<?xml version="1.0" standalone="no"?>
<!DOCTYPE svg PUBLIC "-//W3C//DTD SVG 1.1//EN" "http://www.w3.org/Graphics/SVG/1.1/DTD/svg11.dtd" >
<svg>
<metadata>
Created by FontForge 20090622 at Sat Apr  6 22:37:48 2019
 By deploy user
(c) Copyright The Font Bureau, Inc. 2014. All rights reserved.
</metadata>
<defs>
<font id="Input-Bold" horiz-adv-x="624" >
  <font-face 
    font-family="Input"
    font-weight="700"
    font-stretch="condensed"
    units-per-em="1100"
    panose-1="2 0 6 9 3 0 0 9 0 4"
    ascent="850"
    descent="-250"
    x-height="600"
    cap-height="800"
    bbox="-239 -450 832 1400"
    underline-thickness="0"
    underline-position="0"
    unicode-range="U+000D-U+1F41B"
  />
<missing-glyph 
d="M50 -250v1100h524v-1100h-524zM150 -150h324v900h-324v-900z" />
    <glyph glyph-name=".notdef" 
d="M50 -250v1100h524v-1100h-524zM150 -150h324v900h-324v-900z" />
    <glyph glyph-name="NULL" horiz-adv-x="0" 
 />
    <glyph glyph-name="nonmarkingreturn" unicode="&#xd;" horiz-adv-x="0" 
 />
    <glyph glyph-name="space" unicode="&#xa0;" 
 />
    <glyph glyph-name="space" unicode=" " 
 />
    <glyph glyph-name="A" unicode="A" 
d="M388 323l-73 356l-78 -356h151zM454 0l-44 213h-197l-47 -213h-130l193 800h167l193 -800h-135z" />
    <glyph glyph-name="Agrave" unicode="&#xc0;" 
d="M388 323l-73 356l-78 -356h151zM454 0l-44 213h-197l-47 -213h-130l193 800h167l193 -800h-135zM301 900l-179 200h182l96 -200h-99z" />
    <glyph glyph-name="Aacute" unicode="&#xc1;" 
d="M388 323l-73 356l-78 -356h151zM454 0l-44 213h-197l-47 -213h-130l193 800h167l193 -800h-135zM205 900l97 200h182l-180 -200h-99z" />
    <glyph glyph-name="Acircumflex" unicode="&#xc2;" 
d="M388 323l-73 356l-78 -356h151zM454 0l-44 213h-197l-47 -213h-130l193 800h167l193 -800h-135zM153 900l-49 68l154 152h106l156 -152l-48 -67l-161 109z" />
    <glyph glyph-name="Atilde" unicode="&#xc3;" 
d="M388 323l-73 356l-78 -356h151zM454 0l-44 213h-197l-47 -213h-130l193 800h167l193 -800h-135zM387 910q-35 0 -56.5 16t-37.5 38l-24.5 36.5t-27.5 16.5t-26 -17.5t-9 -63.5v-16h-93v15q0 80 33.5 131t93.5 51q34 0 55.5 -15.5t37.5 -38.5l24.5 -37t25.5 -17
q16 0 26 18t10 64v16h93v-15q0 -81 -33 -131.5t-92 -50.5z" />
    <glyph glyph-name="Adieresis" unicode="&#xc4;" 
d="M388 323l-73 356l-78 -356h151zM454 0l-44 213h-197l-47 -213h-130l193 800h167l193 -800h-135zM207 903q-32 0 -52.5 13.5t-20.5 50.5v10q0 37 20.5 51.5t52.5 14.5q33 0 53 -14.5t20 -51.5v-10q0 -37 -20.5 -50.5t-52.5 -13.5zM417 903q-33 0 -53 13.5t-20 50.5v10
q0 37 20 51.5t53 14.5q32 0 52.5 -14.5t20.5 -51.5v-10q0 -37 -21 -50.5t-52 -13.5z" />
    <glyph glyph-name="Aring" unicode="&#xc5;" 
d="M388 323l-73 356l-78 -356h151zM454 0l-44 213h-197l-47 -213h-130l193 800h167l193 -800h-135zM312 882q-72 0 -117 36t-45 112v32q0 77 45 114t117 37q73 0 117.5 -37t44.5 -114v-32q0 -76 -45 -112t-117 -36zM312 959q31 0 47 16.5t16 54.5v32q0 37 -16 55.5t-47 18.5
t-47 -18.5t-16 -55.5v-32q0 -38 16 -54.5t47 -16.5z" />
    <glyph glyph-name="Amacron" unicode="&#x100;" 
d="M388 323l-73 356l-78 -356h151zM454 0l-44 213h-197l-47 -213h-130l193 800h167l193 -800h-135zM131 945v110h362v-110h-362z" />
    <glyph glyph-name="Abreve" unicode="&#x102;" 
d="M388 323l-73 356l-78 -356h151zM454 0l-44 213h-197l-47 -213h-130l193 800h167l193 -800h-135zM312 893q-104 0 -158.5 53.5t-55.5 166.5h118q1 -71 23 -99t73 -28t73 28t23 99h118q-1 -113 -55.5 -166.5t-158.5 -53.5z" />
    <glyph glyph-name="Aogonek" unicode="&#x104;" 
d="M388 323l-73 356l-78 -356h151zM454 0l-44 213h-197l-47 -213h-130l193 800h167l193 -800h-135zM531 -218q-66 0 -104.5 32t-38.5 90q0 52 37.5 93.5t87.5 59.5l22 -34q-26 -19 -35 -41.5t-9 -44.5q0 -27 15.5 -40.5t46.5 -13.5q15 0 35.5 3t42.5 7v-100q-25 -5 -51.5 -8
t-48.5 -3z" />
    <glyph glyph-name="Aringacute" unicode="&#x1fa;" 
d="M388 323l-73 356l-78 -356h151zM454 0l-44 213h-197l-47 -213h-130l193 800h167l193 -800h-135zM312 882q-72 0 -117 36t-45 112v32q0 77 45 114t117 37q73 0 117.5 -37t44.5 -114v-32q0 -76 -45 -112t-117 -36zM312 959q31 0 47 16.5t16 54.5v32q0 37 -16 55.5t-47 18.5
t-47 -18.5t-16 -55.5v-32q0 -38 16 -54.5t47 -16.5zM261 1200l97 200h182l-180 -200h-99z" />
    <glyph glyph-name="B" unicode="B" 
d="M75 0v800h245q107 0 161 -47t54 -141v-41q0 -56 -26 -89.5t-78 -43.5v-29q59 -7 91.5 -49t32.5 -106v-47q0 -103 -59 -155t-176 -52h-245zM215 467h92q47 0 68 22.5t21 73.5v35q0 50 -21 72.5t-68 22.5h-92v-226zM215 107h98q54 0 78 26t24 84v39q0 57 -24 83t-78 26h-98
v-258z" />
    <glyph glyph-name="C" unicode="C" 
d="M325 -10q-128 0 -191.5 68.5t-63.5 205.5v268q0 138 64 208t191 70q125 0 184 -66.5t66 -211.5l-140 -10q-6 104 -29.5 140.5t-81.5 36.5q-63 0 -88.5 -39t-25.5 -135v-255q0 -90 25.5 -129.5t88.5 -39.5q58 0 81 35.5t30 137.5l140 -10q-6 -143 -65.5 -208.5
t-184.5 -65.5z" />
    <glyph glyph-name="Ccedilla" unicode="&#xc7;" 
d="M325 -10q-128 0 -191.5 68.5t-63.5 205.5v268q0 138 64 208t191 70q125 0 184 -66.5t66 -211.5l-140 -10q-6 104 -29.5 140.5t-81.5 36.5q-63 0 -88.5 -39t-25.5 -135v-255q0 -90 25.5 -129.5t88.5 -39.5q58 0 81 35.5t30 137.5l140 -10q-6 -143 -65.5 -208.5
t-184.5 -65.5zM298 0l16 42q68 -9 106 -40.5t38 -91.5q0 -66 -47 -97.5t-115 -31.5q-74 0 -118.5 28t-48.5 88l119 10q1 -19 10.5 -26.5t31.5 -7.5q24 0 35.5 11.5t11.5 45.5q0 32 -8.5 47t-30.5 23z" />
    <glyph glyph-name="Cacute" unicode="&#x106;" 
d="M325 -10q-128 0 -191.5 68.5t-63.5 205.5v268q0 138 64 208t191 70q125 0 184 -66.5t66 -211.5l-140 -10q-6 104 -29.5 140.5t-81.5 36.5q-63 0 -88.5 -39t-25.5 -135v-255q0 -90 25.5 -129.5t88.5 -39.5q58 0 81 35.5t30 137.5l140 -10q-6 -143 -65.5 -208.5
t-184.5 -65.5zM238 900l97 200h182l-180 -200h-99z" />
    <glyph glyph-name="Ccircumflex" unicode="&#x108;" 
d="M325 -10q-128 0 -191.5 68.5t-63.5 205.5v268q0 138 64 208t191 70q125 0 184 -66.5t66 -211.5l-140 -10q-6 104 -29.5 140.5t-81.5 36.5q-63 0 -88.5 -39t-25.5 -135v-255q0 -90 25.5 -129.5t88.5 -39.5q58 0 81 35.5t30 137.5l140 -10q-6 -143 -65.5 -208.5
t-184.5 -65.5zM164 900l-49 68l154 152h106l156 -152l-48 -67l-161 109z" />
    <glyph glyph-name="Cdotaccent" unicode="&#x10a;" 
d="M325 -10q-128 0 -191.5 68.5t-63.5 205.5v268q0 138 64 208t191 70q125 0 184 -66.5t66 -211.5l-140 -10q-6 104 -29.5 140.5t-81.5 36.5q-63 0 -88.5 -39t-25.5 -135v-255q0 -90 25.5 -129.5t88.5 -39.5q58 0 81 35.5t30 137.5l140 -10q-6 -143 -65.5 -208.5
t-184.5 -65.5zM323 903q-43 0 -69.5 13.5t-26.5 50.5v10q0 37 26.5 51.5t69.5 14.5t69.5 -14.5t26.5 -51.5v-10q0 -37 -27 -50.5t-69 -13.5z" />
    <glyph glyph-name="Ccaron" unicode="&#x10c;" 
d="M325 -10q-128 0 -191.5 68.5t-63.5 205.5v268q0 138 64 208t191 70q125 0 184 -66.5t66 -211.5l-140 -10q-6 104 -29.5 140.5t-81.5 36.5q-63 0 -88.5 -39t-25.5 -135v-255q0 -90 25.5 -129.5t88.5 -39.5q58 0 81 35.5t30 137.5l140 -10q-6 -143 -65.5 -208.5
t-184.5 -65.5zM271 904l-156 152l48 68l161 -109l158 109l49 -68l-154 -152h-106z" />
    <glyph glyph-name="D" unicode="D" 
d="M75 0v800h230q116 0 183 -77.5t67 -206.5v-236q0 -128 -67.5 -204t-183.5 -76h-229zM215 111h78q63 0 92 41.5t29 134.5v222q0 95 -29 137.5t-92 42.5h-78v-578z" />
    <glyph glyph-name="Dcaron" unicode="&#x10e;" 
d="M75 0v800h230q116 0 183 -77.5t67 -206.5v-236q0 -128 -67.5 -204t-183.5 -76h-229zM215 111h78q63 0 92 41.5t29 134.5v222q0 95 -29 137.5t-92 42.5h-78v-578zM260 904l-156 152l48 68l161 -109l158 109l49 -68l-154 -152h-106z" />
    <glyph glyph-name="E" unicode="E" 
d="M75 0v800h480v-111h-340v-202h298v-111h-298v-265h340v-111h-480z" />
    <glyph glyph-name="Egrave" unicode="&#xc8;" 
d="M75 0v800h480v-111h-340v-202h298v-111h-298v-265h340v-111h-480zM321 900l-179 200h182l96 -200h-99z" />
    <glyph glyph-name="Eacute" unicode="&#xc9;" 
d="M75 0v800h480v-111h-340v-202h298v-111h-298v-265h340v-111h-480zM230 899l97 200h182l-180 -200h-99z" />
    <glyph glyph-name="Ecircumflex" unicode="&#xca;" 
d="M75 0v800h480v-111h-340v-202h298v-111h-298v-265h340v-111h-480zM164 900l-49 68l154 152h106l156 -152l-48 -67l-161 109z" />
    <glyph glyph-name="Edieresis" unicode="&#xcb;" 
d="M75 0v800h480v-111h-340v-202h298v-111h-298v-265h340v-111h-480zM222 903q-32 0 -52.5 13.5t-20.5 50.5v10q0 37 20.5 51.5t52.5 14.5q33 0 53 -14.5t20 -51.5v-10q0 -37 -20.5 -50.5t-52.5 -13.5zM432 903q-33 0 -53 13.5t-20 50.5v10q0 37 20 51.5t53 14.5
q32 0 52.5 -14.5t20.5 -51.5v-10q0 -37 -21 -50.5t-52 -13.5z" />
    <glyph glyph-name="Emacron" unicode="&#x112;" 
d="M75 0v800h480v-111h-340v-202h298v-111h-298v-265h340v-111h-480zM142 945v110h362v-110h-362z" />
    <glyph glyph-name="Ebreve" unicode="&#x114;" 
d="M75 0v800h480v-111h-340v-202h298v-111h-298v-265h340v-111h-480zM323 893q-104 0 -158.5 53.5t-55.5 166.5h118q1 -71 23 -99t73 -28t73 28t23 99h118q-1 -113 -55.5 -166.5t-158.5 -53.5z" />
    <glyph glyph-name="Edotaccent" unicode="&#x116;" 
d="M75 0v800h480v-111h-340v-202h298v-111h-298v-265h340v-111h-480zM323 903q-43 0 -69.5 13.5t-26.5 50.5v10q0 37 26.5 51.5t69.5 14.5t69.5 -14.5t26.5 -51.5v-10q0 -37 -27 -50.5t-69 -13.5z" />
    <glyph glyph-name="Eogonek" unicode="&#x118;" 
d="M455 -218q-66 0 -104.5 32t-38.5 90q0 52 37.5 93.5t87.5 59.5l22 -34q-26 -19 -35 -41.5t-9 -44.5q0 -27 15.5 -40.5t46.5 -13.5q15 0 35.5 3t42.5 7v-100q-25 -5 -51.5 -8t-48.5 -3zM75 0v800h480v-111h-340v-202h298v-111h-298v-265h340v-111h-480z" />
    <glyph glyph-name="Ecaron" unicode="&#x11a;" 
d="M75 0v800h480v-111h-340v-202h298v-111h-298v-265h340v-111h-480zM274 904l-156 152l48 68l161 -109l158 109l49 -68l-154 -152h-106z" />
    <glyph glyph-name="F" unicode="F" 
d="M103 0v800h463v-111h-322v-272h263v-110h-263v-307h-141z" />
    <glyph glyph-name="G" unicode="G" 
d="M319 -10q-122 0 -185.5 73t-63.5 201v270q0 132 63 204t182 72q117 0 175 -62t65 -189l-141 -10q-5 85 -27 117.5t-71 32.5q-61 0 -83.5 -41t-22.5 -131v-257q0 -88 23 -128.5t86 -40.5q59 0 81 45t22 141h-108v110h248v-127q0 -136 -63.5 -208t-179.5 -72z" />
    <glyph glyph-name="Gcircumflex" unicode="&#x11c;" 
d="M319 -10q-122 0 -185.5 73t-63.5 201v270q0 132 63 204t182 72q117 0 175 -62t65 -189l-141 -10q-5 85 -27 117.5t-71 32.5q-61 0 -83.5 -41t-22.5 -131v-257q0 -88 23 -128.5t86 -40.5q59 0 81 45t22 141h-108v110h248v-127q0 -136 -63.5 -208t-179.5 -72zM158 900
l-49 68l154 152h106l156 -152l-48 -67l-161 109z" />
    <glyph glyph-name="Gbreve" unicode="&#x11e;" 
d="M319 -10q-122 0 -185.5 73t-63.5 201v270q0 132 63 204t182 72q117 0 175 -62t65 -189l-141 -10q-5 85 -27 117.5t-71 32.5q-61 0 -83.5 -41t-22.5 -131v-257q0 -88 23 -128.5t86 -40.5q59 0 81 45t22 141h-108v110h248v-127q0 -136 -63.5 -208t-179.5 -72zM317 893
q-104 0 -158.5 53.5t-55.5 166.5h118q1 -71 23 -99t73 -28t73 28t23 99h118q-1 -113 -55.5 -166.5t-158.5 -53.5z" />
    <glyph glyph-name="Gdotaccent" unicode="&#x120;" 
d="M319 -10q-122 0 -185.5 73t-63.5 201v270q0 132 63 204t182 72q117 0 175 -62t65 -189l-141 -10q-5 85 -27 117.5t-71 32.5q-61 0 -83.5 -41t-22.5 -131v-257q0 -88 23 -128.5t86 -40.5q59 0 81 45t22 141h-108v110h248v-127q0 -136 -63.5 -208t-179.5 -72zM320 903
q-43 0 -69.5 13.5t-26.5 50.5v10q0 37 26.5 51.5t69.5 14.5t69.5 -14.5t26.5 -51.5v-10q0 -37 -27 -50.5t-69 -13.5z" />
    <glyph glyph-name="Gcommaaccent" unicode="&#x122;" 
d="M186 -300l63 200h182l-146 -200h-99zM319 -10q-122 0 -185.5 73t-63.5 201v270q0 132 63 204t182 72q117 0 175 -62t65 -189l-141 -10q-5 85 -27 117.5t-71 32.5q-61 0 -83.5 -41t-22.5 -131v-257q0 -88 23 -128.5t86 -40.5q59 0 81 45t22 141h-108v110h248v-127
q0 -136 -63.5 -208t-179.5 -72z" />
    <glyph glyph-name="H" unicode="H" 
d="M75 0v800h140v-306h194v306h140v-800h-140v383h-194v-383h-140z" />
    <glyph glyph-name="Hcircumflex" unicode="&#x124;" 
d="M75 0v800h140v-306h194v306h140v-800h-140v383h-194v-383h-140zM153 900l-49 68l154 152h106l156 -152l-48 -67l-161 109z" />
    <glyph glyph-name="I" unicode="I" 
d="M75 0v111h167v578h-167v111h474v-111h-167v-578h167v-111h-474z" />
    <glyph glyph-name="Igrave" unicode="&#xcc;" 
d="M75 0v111h167v578h-167v111h474v-111h-167v-578h167v-111h-474zM301 900l-179 200h182l96 -200h-99z" />
    <glyph glyph-name="Iacute" unicode="&#xcd;" 
d="M75 0v111h167v578h-167v111h474v-111h-167v-578h167v-111h-474zM205 900l97 200h182l-180 -200h-99z" />
    <glyph glyph-name="Icircumflex" unicode="&#xce;" 
d="M75 0v111h167v578h-167v111h474v-111h-167v-578h167v-111h-474zM153 900l-49 68l154 152h106l156 -152l-48 -67l-161 109z" />
    <glyph glyph-name="Idieresis" unicode="&#xcf;" 
d="M75 0v111h167v578h-167v111h474v-111h-167v-578h167v-111h-474zM207 903q-32 0 -52.5 13.5t-20.5 50.5v10q0 37 20.5 51.5t52.5 14.5q33 0 53 -14.5t20 -51.5v-10q0 -37 -20.5 -50.5t-52.5 -13.5zM417 903q-33 0 -53 13.5t-20 50.5v10q0 37 20 51.5t53 14.5
q32 0 52.5 -14.5t20.5 -51.5v-10q0 -37 -21 -50.5t-52 -13.5z" />
    <glyph glyph-name="Itilde" unicode="&#x128;" 
d="M75 0v111h167v578h-167v111h474v-111h-167v-578h167v-111h-474zM387 910q-35 0 -56.5 16t-37.5 38l-24.5 36.5t-27.5 16.5t-26 -17.5t-9 -63.5v-16h-93v15q0 80 33.5 131t93.5 51q34 0 55.5 -15.5t37.5 -38.5l24.5 -37t25.5 -17q16 0 26 18t10 64v16h93v-15
q0 -81 -33 -131.5t-92 -50.5z" />
    <glyph glyph-name="Imacron" unicode="&#x12a;" 
d="M75 0v111h167v578h-167v111h474v-111h-167v-578h167v-111h-474zM131 945v110h362v-110h-362z" />
    <glyph glyph-name="Ibreve" unicode="&#x12c;" 
d="M75 0v111h167v578h-167v111h474v-111h-167v-578h167v-111h-474zM312 893q-104 0 -158.5 53.5t-55.5 166.5h118q1 -71 23 -99t73 -28t73 28t23 99h118q-1 -113 -55.5 -166.5t-158.5 -53.5z" />
    <glyph glyph-name="Iogonek" unicode="&#x12e;" 
d="M75 0v111h167v578h-167v111h474v-111h-167v-578h167v-111h-474zM383 -218q-66 0 -104.5 32t-38.5 90q0 52 37.5 93.5t87.5 59.5l22 -34q-26 -19 -35 -41.5t-9 -44.5q0 -27 15.5 -40.5t46.5 -13.5q15 0 35.5 3t42.5 7v-100q-25 -5 -51.5 -8t-48.5 -3z" />
    <glyph glyph-name="Idotaccent" unicode="&#x130;" 
d="M75 0v111h167v578h-167v111h474v-111h-167v-578h167v-111h-474zM312 903q-43 0 -69.5 13.5t-26.5 50.5v10q0 37 26.5 51.5t69.5 14.5t69.5 -14.5t26.5 -51.5v-10q0 -37 -27 -50.5t-69 -13.5z" />
    <glyph glyph-name="J" unicode="J" 
d="M300 -10q-128 0 -184.5 64t-62.5 213l140 11q7 -107 28.5 -142t76.5 -35q51 0 75.5 34.5t24.5 112.5v441h-185v111h325v-550q0 -124 -59 -192t-179 -68z" />
    <glyph glyph-name="Jcircumflex" unicode="&#x134;" 
d="M300 -10q-128 0 -184.5 64t-62.5 213l140 11q7 -107 28.5 -142t76.5 -35q51 0 75.5 34.5t24.5 112.5v441h-185v111h325v-550q0 -124 -59 -192t-179 -68zM211 900l-49 68l154 152h106l156 -152l-48 -67l-161 109z" />
    <glyph glyph-name="K" unicode="K" 
d="M215 364v-364h-140v800h140v-324h32l190 324h158l-236 -368l233 -432h-157l-185 364h-35z" />
    <glyph glyph-name="Kcommaaccent" unicode="&#x136;" 
d="M215 364v-364h-140v800h140v-324h32l190 324h158l-236 -368l233 -432h-157l-185 364h-35zM196 -300l63 200h182l-146 -200h-99z" />
    <glyph glyph-name="L" unicode="L" 
d="M117 0v800h140v-689h292v-111h-432z" />
    <glyph glyph-name="Lacute" unicode="&#x139;" 
d="M117 0v800h140v-689h292v-111h-432zM127 900l97 200h182l-180 -200h-99z" />
    <glyph glyph-name="Lcommaaccent" unicode="&#x13b;" 
d="M117 0v800h140v-689h292v-111h-432zM212 -300l63 200h182l-146 -200h-99z" />
    <glyph glyph-name="Lcaron" unicode="&#x13d;" 
d="M117 0v800h140v-689h292v-111h-432zM348 505l51 295h180l-148 -295h-83z" />
    <glyph glyph-name="M" unicode="M" 
d="M264 217l-92 369l12 -586h-124v800h141l114 -426l112 426h137v-800h-124l13 581l-92 -364h-97z" />
    <glyph glyph-name="N" unicode="N" 
d="M379 0l-184 617v-617h-120v800h160l194 -630v630h120v-800h-170z" />
    <glyph glyph-name="Ntilde" unicode="&#xd1;" 
d="M379 0l-184 617v-617h-120v800h160l194 -630v630h120v-800h-170zM392 910q-35 0 -56.5 16t-37.5 38l-24.5 36.5t-27.5 16.5t-26 -17.5t-9 -63.5v-16h-93v15q0 80 33.5 131t93.5 51q34 0 55.5 -15.5t37.5 -38.5l24.5 -37t25.5 -17q16 0 26 18t10 64v16h93v-15
q0 -81 -33 -131.5t-92 -50.5z" />
    <glyph glyph-name="Nacute" unicode="&#x143;" 
d="M379 0l-184 617v-617h-120v800h160l194 -630v630h120v-800h-170zM227 900l97 200h182l-180 -200h-99z" />
    <glyph glyph-name="Ncommaaccent" unicode="&#x145;" 
d="M178 -300l63 200h182l-146 -200h-99zM379 0l-184 617v-617h-120v800h160l194 -630v630h120v-800h-170z" />
    <glyph glyph-name="Ncaron" unicode="&#x147;" 
d="M379 0l-184 617v-617h-120v800h160l194 -630v630h120v-800h-170zM265 904l-156 152l48 68l161 -109l158 109l49 -68l-154 -152h-106z" />
    <glyph glyph-name="O" unicode="O" 
d="M312 -10q-118 0 -180 70.5t-62 199.5v276q0 131 62.5 202.5t180.5 71.5q117 0 179.5 -71.5t62.5 -202.5v-276q0 -129 -62.5 -199.5t-180.5 -70.5zM312 101q57 0 79.5 36.5t22.5 129.5v262q0 96 -22.5 133t-79.5 37q-56 0 -79 -37t-23 -133v-262q0 -93 23 -129.5t79 -36.5
z" />
    <glyph glyph-name="Ograve" unicode="&#xd2;" 
d="M312 -10q-118 0 -180 70.5t-62 199.5v276q0 131 62.5 202.5t180.5 71.5q117 0 179.5 -71.5t62.5 -202.5v-276q0 -129 -62.5 -199.5t-180.5 -70.5zM312 101q57 0 79.5 36.5t22.5 129.5v262q0 96 -22.5 133t-79.5 37q-56 0 -79 -37t-23 -133v-262q0 -93 23 -129.5t79 -36.5
zM301 900l-179 200h182l96 -200h-99z" />
    <glyph glyph-name="Oacute" unicode="&#xd3;" 
d="M312 -10q-118 0 -180 70.5t-62 199.5v276q0 131 62.5 202.5t180.5 71.5q117 0 179.5 -71.5t62.5 -202.5v-276q0 -129 -62.5 -199.5t-180.5 -70.5zM312 101q57 0 79.5 36.5t22.5 129.5v262q0 96 -22.5 133t-79.5 37q-56 0 -79 -37t-23 -133v-262q0 -93 23 -129.5t79 -36.5
zM233 900l97 200h182l-180 -200h-99z" />
    <glyph glyph-name="Ocircumflex" unicode="&#xd4;" 
d="M312 -10q-118 0 -180 70.5t-62 199.5v276q0 131 62.5 202.5t180.5 71.5q117 0 179.5 -71.5t62.5 -202.5v-276q0 -129 -62.5 -199.5t-180.5 -70.5zM312 101q57 0 79.5 36.5t22.5 129.5v262q0 96 -22.5 133t-79.5 37q-56 0 -79 -37t-23 -133v-262q0 -93 23 -129.5t79 -36.5
zM153 900l-49 68l154 152h106l156 -152l-48 -67l-161 109z" />
    <glyph glyph-name="Otilde" unicode="&#xd5;" 
d="M312 -10q-118 0 -180 70.5t-62 199.5v276q0 131 62.5 202.5t180.5 71.5q117 0 179.5 -71.5t62.5 -202.5v-276q0 -129 -62.5 -199.5t-180.5 -70.5zM312 101q57 0 79.5 36.5t22.5 129.5v262q0 96 -22.5 133t-79.5 37q-56 0 -79 -37t-23 -133v-262q0 -93 23 -129.5t79 -36.5
zM387 910q-35 0 -56.5 16t-37.5 38l-24.5 36.5t-27.5 16.5t-26 -17.5t-9 -63.5v-16h-93v15q0 80 33.5 131t93.5 51q34 0 55.5 -15.5t37.5 -38.5l24.5 -37t25.5 -17q16 0 26 18t10 64v16h93v-15q0 -81 -33 -131.5t-92 -50.5z" />
    <glyph glyph-name="Odieresis" unicode="&#xd6;" 
d="M312 -10q-118 0 -180 70.5t-62 199.5v276q0 131 62.5 202.5t180.5 71.5q117 0 179.5 -71.5t62.5 -202.5v-276q0 -129 -62.5 -199.5t-180.5 -70.5zM312 101q57 0 79.5 36.5t22.5 129.5v262q0 96 -22.5 133t-79.5 37q-56 0 -79 -37t-23 -133v-262q0 -93 23 -129.5t79 -36.5
zM207 903q-32 0 -52.5 13.5t-20.5 50.5v10q0 37 20.5 51.5t52.5 14.5q33 0 53 -14.5t20 -51.5v-10q0 -37 -20.5 -50.5t-52.5 -13.5zM417 903q-33 0 -53 13.5t-20 50.5v10q0 37 20 51.5t53 14.5q32 0 52.5 -14.5t20.5 -51.5v-10q0 -37 -21 -50.5t-52 -13.5z" />
    <glyph glyph-name="Omacron" unicode="&#x14c;" 
d="M312 -10q-118 0 -180 70.5t-62 199.5v276q0 131 62.5 202.5t180.5 71.5q117 0 179.5 -71.5t62.5 -202.5v-276q0 -129 -62.5 -199.5t-180.5 -70.5zM312 101q57 0 79.5 36.5t22.5 129.5v262q0 96 -22.5 133t-79.5 37q-56 0 -79 -37t-23 -133v-262q0 -93 23 -129.5t79 -36.5
zM131 945v110h362v-110h-362z" />
    <glyph glyph-name="Obreve" unicode="&#x14e;" 
d="M312 -10q-118 0 -180 70.5t-62 199.5v276q0 131 62.5 202.5t180.5 71.5q117 0 179.5 -71.5t62.5 -202.5v-276q0 -129 -62.5 -199.5t-180.5 -70.5zM312 101q57 0 79.5 36.5t22.5 129.5v262q0 96 -22.5 133t-79.5 37q-56 0 -79 -37t-23 -133v-262q0 -93 23 -129.5t79 -36.5
zM312 893q-104 0 -158.5 53.5t-55.5 166.5h118q1 -71 23 -99t73 -28t73 28t23 99h118q-1 -113 -55.5 -166.5t-158.5 -53.5z" />
    <glyph glyph-name="Ohungarumlaut" unicode="&#x150;" 
d="M312 -10q-118 0 -180 70.5t-62 199.5v276q0 131 62.5 202.5t180.5 71.5q117 0 179.5 -71.5t62.5 -202.5v-276q0 -129 -62.5 -199.5t-180.5 -70.5zM312 101q57 0 79.5 36.5t22.5 129.5v262q0 96 -22.5 133t-79.5 37q-56 0 -79 -37t-23 -133v-262q0 -93 23 -129.5t79 -36.5
zM359 900l41 200h145l-110 -200h-76zM167 900l41 200h145l-110 -200h-76z" />
    <glyph glyph-name="P" unicode="P" 
d="M75 0v800h252q113 0 172 -52.5t59 -161.5v-110q0 -109 -58 -159t-173 -50h-112v-267h-140zM215 375h104q52 0 75.5 24.5t23.5 85.5v93q0 61 -23.5 86t-75.5 25h-104v-314z" />
    <glyph glyph-name="Q" unicode="Q" 
d="M540 -198q-140 -26 -213 19.5t-73 186.5q-90 16 -137 83.5t-47 178.5v266q0 130 62.5 202t180.5 72q117 0 179.5 -72t62.5 -202v-266q0 -112 -48.5 -180.5t-140.5 -83.5q3 -72 44.5 -89t113.5 -1zM312 111q56 0 79 37t23 127v256q0 92 -23 129t-79 37t-79 -37t-23 -129
v-256q0 -90 23 -127t79 -37z" />
    <glyph glyph-name="R" unicode="R" 
d="M215 409h110q51 0 74 25t23 87v61q0 60 -23 83.5t-74 23.5h-110v-280zM215 0h-140v800h268q107 0 160.5 -54.5t53.5 -159.5v-66q0 -87 -33.5 -139.5t-99.5 -69.5l152 -311h-149l-146 300h-66v-300z" />
    <glyph glyph-name="Racute" unicode="&#x154;" 
d="M215 409h110q51 0 74 25t23 87v61q0 60 -23 83.5t-74 23.5h-110v-280zM215 0h-140v800h268q107 0 160.5 -54.5t53.5 -159.5v-66q0 -87 -33.5 -139.5t-99.5 -69.5l152 -311h-149l-146 300h-66v-300zM239 900l97 200h182l-180 -200h-99z" />
    <glyph glyph-name="Rcommaaccent" unicode="&#x156;" 
d="M215 409h110q51 0 74 25t23 87v61q0 60 -23 83.5t-74 23.5h-110v-280zM215 0h-140v800h268q107 0 160.5 -54.5t53.5 -159.5v-66q0 -87 -33.5 -139.5t-99.5 -69.5l152 -311h-149l-146 300h-66v-300zM165 -300l63 200h182l-146 -200h-99z" />
    <glyph glyph-name="Rcaron" unicode="&#x158;" 
d="M215 409h110q51 0 74 25t23 87v61q0 60 -23 83.5t-74 23.5h-110v-280zM215 0h-140v800h268q107 0 160.5 -54.5t53.5 -159.5v-66q0 -87 -33.5 -139.5t-99.5 -69.5l152 -311h-149l-146 300h-66v-300zM253 904l-156 152l48 68l161 -109l158 109l49 -68l-154 -152h-106z" />
    <glyph glyph-name="S" unicode="S" 
d="M306 -9q-70 0 -133.5 22.5t-113.5 64.5l37 107q48 -39 100 -61t115 -22q57 0 85.5 30t28.5 80q0 51 -30.5 77t-115.5 58q-114 43 -159.5 95.5t-45.5 139.5q0 101 62 162.5t173 61.5q63 0 123 -23t102 -62l-31 -103q-46 37 -93 57t-95 20q-49 0 -75.5 -25t-26.5 -74
q0 -47 31 -72.5t120 -59.5q112 -43 156.5 -95.5t44.5 -139.5q0 -111 -70.5 -174.5t-188.5 -63.5z" />
    <glyph glyph-name="Sacute" unicode="&#x15a;" 
d="M306 -9q-70 0 -133.5 22.5t-113.5 64.5l37 107q48 -39 100 -61t115 -22q57 0 85.5 30t28.5 80q0 51 -30.5 77t-115.5 58q-114 43 -159.5 95.5t-45.5 139.5q0 101 62 162.5t173 61.5q63 0 123 -23t102 -62l-31 -103q-46 37 -93 57t-95 20q-49 0 -75.5 -25t-26.5 -74
q0 -47 31 -72.5t120 -59.5q112 -43 156.5 -95.5t44.5 -139.5q0 -111 -70.5 -174.5t-188.5 -63.5zM204 900l97 200h182l-180 -200h-99z" />
    <glyph glyph-name="Scircumflex" unicode="&#x15c;" 
d="M306 -9q-70 0 -133.5 22.5t-113.5 64.5l37 107q48 -39 100 -61t115 -22q57 0 85.5 30t28.5 80q0 51 -30.5 77t-115.5 58q-114 43 -159.5 95.5t-45.5 139.5q0 101 62 162.5t173 61.5q63 0 123 -23t102 -62l-31 -103q-46 37 -93 57t-95 20q-49 0 -75.5 -25t-26.5 -74
q0 -47 31 -72.5t120 -59.5q112 -43 156.5 -95.5t44.5 -139.5q0 -111 -70.5 -174.5t-188.5 -63.5zM152 900l-49 68l154 152h106l156 -152l-48 -67l-161 109z" />
    <glyph glyph-name="Scedilla" unicode="&#x15e;" 
d="M306 -9q-70 0 -133.5 22.5t-113.5 64.5l37 107q48 -39 100 -61t115 -22q57 0 85.5 30t28.5 80q0 51 -30.5 77t-115.5 58q-114 43 -159.5 95.5t-45.5 139.5q0 101 62 162.5t173 61.5q63 0 123 -23t102 -62l-31 -103q-46 37 -93 57t-95 20q-49 0 -75.5 -25t-26.5 -74
q0 -47 31 -72.5t120 -59.5q112 -43 156.5 -95.5t44.5 -139.5q0 -111 -70.5 -174.5t-188.5 -63.5zM286 0l16 42q68 -9 106 -40.5t38 -91.5q0 -66 -47 -97.5t-115 -31.5q-74 0 -118.5 28t-48.5 88l119 10q1 -19 10.5 -26.5t31.5 -7.5q24 0 35.5 11.5t11.5 45.5q0 32 -8.5 47
t-30.5 23z" />
    <glyph glyph-name="Scaron" unicode="&#x160;" 
d="M306 -9q-70 0 -133.5 22.5t-113.5 64.5l37 107q48 -39 100 -61t115 -22q57 0 85.5 30t28.5 80q0 51 -30.5 77t-115.5 58q-114 43 -159.5 95.5t-45.5 139.5q0 101 62 162.5t173 61.5q63 0 123 -23t102 -62l-31 -103q-46 37 -93 57t-95 20q-49 0 -75.5 -25t-26.5 -74
q0 -47 31 -72.5t120 -59.5q112 -43 156.5 -95.5t44.5 -139.5q0 -111 -70.5 -174.5t-188.5 -63.5zM259 904l-156 152l48 68l161 -109l158 109l49 -68l-154 -152h-106z" />
    <glyph glyph-name="Scommaaccent" unicode="&#x218;" 
d="M306 -9q-70 0 -133.5 22.5t-113.5 64.5l37 107q48 -39 100 -61t115 -22q57 0 85.5 30t28.5 80q0 51 -30.5 77t-115.5 58q-114 43 -159.5 95.5t-45.5 139.5q0 101 62 162.5t173 61.5q63 0 123 -23t102 -62l-31 -103q-46 37 -93 57t-95 20q-49 0 -75.5 -25t-26.5 -74
q0 -47 31 -72.5t120 -59.5q112 -43 156.5 -95.5t44.5 -139.5q0 -111 -70.5 -174.5t-188.5 -63.5zM167 -300l63 200h182l-146 -200h-99z" />
    <glyph glyph-name="T" unicode="T" 
d="M242 0v689h-193v111h527v-111h-194v-689h-140z" />
    <glyph glyph-name="Tcedilla" unicode="&#x162;" 
d="M242 0v689h-193v111h527v-111h-194v-689h-140zM278 0l16 42q68 -9 106 -40.5t38 -91.5q0 -66 -47 -97.5t-115 -31.5q-74 0 -118.5 28t-48.5 88l119 10q1 -19 10.5 -26.5t31.5 -7.5q24 0 35.5 11.5t11.5 45.5q0 32 -8.5 47t-30.5 23z" />
    <glyph glyph-name="Tcaron" unicode="&#x164;" 
d="M242 0v689h-193v111h527v-111h-194v-689h-140zM260 904l-156 152l48 68l161 -109l158 109l49 -68l-154 -152h-106z" />
    <glyph glyph-name="Tcommaaccent" unicode="&#x21a;" 
d="M242 0v689h-193v111h527v-111h-194v-689h-140zM172 -300l63 200h182l-146 -200h-99z" />
    <glyph glyph-name="U" unicode="U" 
d="M312 -10q-121 0 -179 68.5t-58 211.5v530h140v-530q0 -93 21.5 -129.5t75.5 -36.5t75.5 36.5t21.5 129.5v530h140v-530q0 -143 -58 -211.5t-179 -68.5z" />
    <glyph glyph-name="Ugrave" unicode="&#xd9;" 
d="M312 -10q-121 0 -179 68.5t-58 211.5v530h140v-530q0 -93 21.5 -129.5t75.5 -36.5t75.5 36.5t21.5 129.5v530h140v-530q0 -143 -58 -211.5t-179 -68.5zM301 900l-179 200h182l96 -200h-99z" />
    <glyph glyph-name="Uacute" unicode="&#xda;" 
d="M312 -10q-121 0 -179 68.5t-58 211.5v530h140v-530q0 -93 21.5 -129.5t75.5 -36.5t75.5 36.5t21.5 129.5v530h140v-530q0 -143 -58 -211.5t-179 -68.5zM205 900l97 200h182l-180 -200h-99z" />
    <glyph glyph-name="Ucircumflex" unicode="&#xdb;" 
d="M312 -10q-121 0 -179 68.5t-58 211.5v530h140v-530q0 -93 21.5 -129.5t75.5 -36.5t75.5 36.5t21.5 129.5v530h140v-530q0 -143 -58 -211.5t-179 -68.5zM153 900l-49 68l154 152h106l156 -152l-48 -67l-161 109z" />
    <glyph glyph-name="Udieresis" unicode="&#xdc;" 
d="M312 -10q-121 0 -179 68.5t-58 211.5v530h140v-530q0 -93 21.5 -129.5t75.5 -36.5t75.5 36.5t21.5 129.5v530h140v-530q0 -143 -58 -211.5t-179 -68.5zM207 903q-32 0 -52.5 13.5t-20.5 50.5v10q0 37 20.5 51.5t52.5 14.5q33 0 53 -14.5t20 -51.5v-10q0 -37 -20.5 -50.5
t-52.5 -13.5zM417 903q-33 0 -53 13.5t-20 50.5v10q0 37 20 51.5t53 14.5q32 0 52.5 -14.5t20.5 -51.5v-10q0 -37 -21 -50.5t-52 -13.5z" />
    <glyph glyph-name="Utilde" unicode="&#x168;" 
d="M312 -10q-121 0 -179 68.5t-58 211.5v530h140v-530q0 -93 21.5 -129.5t75.5 -36.5t75.5 36.5t21.5 129.5v530h140v-530q0 -143 -58 -211.5t-179 -68.5zM387 910q-35 0 -56.5 16t-37.5 38l-24.5 36.5t-27.5 16.5t-26 -17.5t-9 -63.5v-16h-93v15q0 80 33.5 131t93.5 51
q34 0 55.5 -15.5t37.5 -38.5l24.5 -37t25.5 -17q16 0 26 18t10 64v16h93v-15q0 -81 -33 -131.5t-92 -50.5z" />
    <glyph glyph-name="Umacron" unicode="&#x16a;" 
d="M312 -10q-121 0 -179 68.5t-58 211.5v530h140v-530q0 -93 21.5 -129.5t75.5 -36.5t75.5 36.5t21.5 129.5v530h140v-530q0 -143 -58 -211.5t-179 -68.5zM131 945v110h362v-110h-362z" />
    <glyph glyph-name="Ubreve" unicode="&#x16c;" 
d="M312 -10q-121 0 -179 68.5t-58 211.5v530h140v-530q0 -93 21.5 -129.5t75.5 -36.5t75.5 36.5t21.5 129.5v530h140v-530q0 -143 -58 -211.5t-179 -68.5zM312 893q-104 0 -158.5 53.5t-55.5 166.5h118q1 -71 23 -99t73 -28t73 28t23 99h118q-1 -113 -55.5 -166.5
t-158.5 -53.5z" />
    <glyph glyph-name="Uring" unicode="&#x16e;" 
d="M312 -10q-121 0 -179 68.5t-58 211.5v530h140v-530q0 -93 21.5 -129.5t75.5 -36.5t75.5 36.5t21.5 129.5v530h140v-530q0 -143 -58 -211.5t-179 -68.5zM312 882q-72 0 -117 36t-45 112v32q0 77 45 114t117 37q73 0 117.5 -37t44.5 -114v-32q0 -76 -45 -112t-117 -36z
M312 959q31 0 47 16.5t16 54.5v32q0 37 -16 55.5t-47 18.5t-47 -18.5t-16 -55.5v-32q0 -38 16 -54.5t47 -16.5z" />
    <glyph glyph-name="Uhungarumlaut" unicode="&#x170;" 
d="M312 -10q-121 0 -179 68.5t-58 211.5v530h140v-530q0 -93 21.5 -129.5t75.5 -36.5t75.5 36.5t21.5 129.5v530h140v-530q0 -143 -58 -211.5t-179 -68.5zM367 900l41 200h145l-110 -200h-76zM175 900l41 200h145l-110 -200h-76z" />
    <glyph glyph-name="Uogonek" unicode="&#x172;" 
d="M366 -218q-66 0 -104.5 32t-38.5 90q0 52 37.5 93.5t87.5 59.5l22 -34q-26 -19 -35 -41.5t-9 -44.5q0 -27 15.5 -40.5t46.5 -13.5q15 0 35.5 3t42.5 7v-100q-25 -5 -51.5 -8t-48.5 -3zM312 -10q-121 0 -179 68.5t-58 211.5v530h140v-530q0 -93 21.5 -129.5t75.5 -36.5
t75.5 36.5t21.5 129.5v530h140v-530q0 -143 -58 -211.5t-179 -68.5z" />
    <glyph glyph-name="V" unicode="V" 
d="M402 0h-179l-187 800h141l135 -660l141 660h136z" />
    <glyph glyph-name="W" unicode="W" 
d="M382 0l-69 416l-69 -416h-125l-88 800h123l41 -618l65 418h104l68 -410l40 610h121l-88 -800h-123z" />
    <glyph glyph-name="Wcircumflex" unicode="&#x174;" 
d="M382 0l-69 416l-69 -416h-125l-88 800h123l41 -618l65 418h104l68 -410l40 610h121l-88 -800h-123zM153 900l-49 68l154 152h106l156 -152l-48 -67l-161 109z" />
    <glyph glyph-name="Wgrave" unicode="&#x1e80;" 
d="M382 0l-69 416l-69 -416h-125l-88 800h123l41 -618l65 418h104l68 -410l40 610h121l-88 -800h-123zM304 900l-179 200h182l96 -200h-99z" />
    <glyph glyph-name="Wacute" unicode="&#x1e82;" 
d="M382 0l-69 416l-69 -416h-125l-88 800h123l41 -618l65 418h104l68 -410l40 610h121l-88 -800h-123zM208 900l97 200h182l-180 -200h-99z" />
    <glyph glyph-name="Wdieresis" unicode="&#x1e84;" 
d="M382 0l-69 416l-69 -416h-125l-88 800h123l41 -618l65 418h104l68 -410l40 610h121l-88 -800h-123zM213 903q-32 0 -52.5 13.5t-20.5 50.5v10q0 37 20.5 51.5t52.5 14.5q33 0 53 -14.5t20 -51.5v-10q0 -37 -20.5 -50.5t-52.5 -13.5zM423 903q-33 0 -53 13.5t-20 50.5v10
q0 37 20 51.5t53 14.5q32 0 52.5 -14.5t20.5 -51.5v-10q0 -37 -21 -50.5t-52 -13.5z" />
    <glyph glyph-name="X" unicode="X" 
d="M443 0l-133 270l-131 -270h-140l207 411l-186 389h147l119 -244l120 244h140l-197 -388l194 -412h-140z" />
    <glyph glyph-name="Y" unicode="Y" 
d="M382 0h-140v300l-215 500h142l144 -367l142 367h142l-215 -500v-300z" />
    <glyph glyph-name="Yacute" unicode="&#xdd;" 
d="M382 0h-140v300l-215 500h142l144 -367l142 367h142l-215 -500v-300zM205 900l97 200h182l-180 -200h-99z" />
    <glyph glyph-name="Ycircumflex" unicode="&#x176;" 
d="M382 0h-140v300l-215 500h142l144 -367l142 367h142l-215 -500v-300zM153 900l-49 68l154 152h106l156 -152l-48 -67l-161 109z" />
    <glyph glyph-name="Ydieresis" unicode="&#x178;" 
d="M382 0h-140v300l-215 500h142l144 -367l142 367h142l-215 -500v-300zM207 903q-32 0 -52.5 13.5t-20.5 50.5v10q0 37 20.5 51.5t52.5 14.5q33 0 53 -14.5t20 -51.5v-10q0 -37 -20.5 -50.5t-52.5 -13.5zM417 903q-33 0 -53 13.5t-20 50.5v10q0 37 20 51.5t53 14.5
q32 0 52.5 -14.5t20.5 -51.5v-10q0 -37 -21 -50.5t-52 -13.5z" />
    <glyph glyph-name="Ygrave" unicode="&#x1ef2;" 
d="M382 0h-140v300l-215 500h142l144 -367l142 367h142l-215 -500v-300zM301 900l-179 200h182l96 -200h-99z" />
    <glyph glyph-name="Z" unicode="Z" 
d="M555 0h-485v111l342 578h-342v111h485v-111l-336 -578h336v-111z" />
    <glyph glyph-name="Zacute" unicode="&#x179;" 
d="M555 0h-485v111l342 578h-342v111h485v-111l-336 -578h336v-111zM230 900l97 200h182l-180 -200h-99z" />
    <glyph glyph-name="Zdotaccent" unicode="&#x17b;" 
d="M555 0h-485v111l342 578h-342v111h485v-111l-336 -578h336v-111zM312 903q-43 0 -69.5 13.5t-26.5 50.5v10q0 37 26.5 51.5t69.5 14.5t69.5 -14.5t26.5 -51.5v-10q0 -37 -27 -50.5t-69 -13.5z" />
    <glyph glyph-name="Zcaron" unicode="&#x17d;" 
d="M555 0h-485v111l342 578h-342v111h485v-111l-336 -578h336v-111zM260 904l-156 152l48 68l161 -109l158 109l49 -68l-154 -152h-106z" />
    <glyph glyph-name="AE" unicode="&#xc6;" 
d="M274 699l-80 -386h109v386h-29zM303 213h-130l-45 -213h-102l180 800h384v-101h-166v-219h152v-100h-152v-279h166v-101h-287v213z" />
    <glyph glyph-name="AEacute" unicode="&#x1fc;" 
d="M274 699l-80 -386h109v386h-29zM303 213h-130l-45 -213h-102l180 800h384v-101h-166v-219h152v-100h-152v-279h166v-101h-287v213zM308 900l97 200h182l-180 -200h-99z" />
    <glyph glyph-name="Eth" unicode="&#xd0;" 
d="M75 0v390h-62v101h62v309h230q116 0 183 -77.5t67 -206.5v-236q0 -128 -67.5 -204t-183.5 -76h-229zM215 111h78q63 0 92 41.5t29 134.5v222q0 95 -29 137.5t-92 42.5h-78v-198h97v-101h-97v-279z" />
    <glyph glyph-name="Oslash" unicode="&#xd8;" 
d="M206 209l154 483q-10 4 -21.5 5.5t-26.5 1.5q-63 0 -88 -39t-25 -138v-248q0 -20 1.5 -36t5.5 -29zM312 101q63 0 88.5 38.5t25.5 134.5v233q0 25 -3 44.5t-8 32.5l-155 -474q11 -4 23.5 -6.5t28.5 -2.5zM312 -10q-22 0 -42.5 3t-38.5 9l-36 -102h-106l54 151
q-36 35 -54.5 89.5t-18.5 126.5v262q0 134 62.5 207.5t180.5 73.5q20 0 39 -2.5t36 -7.5l35 100h106l-50 -149q37 -35 56.5 -91.5t19.5 -130.5v-262q0 -131 -63 -204t-180 -73z" />
    <glyph glyph-name="Oslashacute" unicode="&#x1fe;" 
d="M206 209l154 483q-10 4 -21.5 5.5t-26.5 1.5q-63 0 -88 -39t-25 -138v-248q0 -20 1.5 -36t5.5 -29zM312 101q63 0 88.5 38.5t25.5 134.5v233q0 25 -3 44.5t-8 32.5l-155 -474q11 -4 23.5 -6.5t28.5 -2.5zM312 -10q-22 0 -42.5 3t-38.5 9l-36 -102h-106l54 151
q-36 35 -54.5 89.5t-18.5 126.5v262q0 134 62.5 207.5t180.5 73.5q20 0 39 -2.5t36 -7.5l35 100h106l-50 -149q37 -35 56.5 -91.5t19.5 -130.5v-262q0 -131 -63 -204t-180 -73zM233 900l97 200h182l-180 -200h-99z" />
    <glyph glyph-name="Thorn" unicode="&#xde;" 
d="M75 0v800h140v-127h112q113 0 172 -55t59 -159v-106q0 -104 -59 -158.5t-172 -54.5h-112v-140h-140zM215 249h96q58 0 82 25t24 85v97q0 59 -24 83t-82 24h-96v-314z" />
    <glyph glyph-name="Dcroat" unicode="&#x110;" 
d="M75 0v390h-62v101h62v309h230q116 0 183 -77.5t67 -206.5v-236q0 -128 -67.5 -204t-183.5 -76h-229zM215 111h78q63 0 92 41.5t29 134.5v222q0 95 -29 137.5t-92 42.5h-78v-198h97v-101h-97v-279z" />
    <glyph glyph-name="Hbar" unicode="&#x126;" 
d="M217 427h190v130h-190v-130zM217 316v-316h-140v557h-77v100h77v143h140v-143h190v143h141v-143h76v-100h-76v-557h-141v316h-190z" />
    <glyph glyph-name="IJ" unicode="&#x132;" 
d="M171 0h-112v800h112v-800zM404 -10q-87 0 -129 62t-43 208l112 11q2 -107 12.5 -142t42.5 -35q30 0 42.5 34.5t12.5 101.5v467h-124v103h236v-570q0 -112 -40 -176t-122 -64z" />
    <glyph glyph-name="Ldot" unicode="&#x13f;" 
d="M117 0v800h140v-689h292v-111h-432zM513 400q-43 0 -69.5 13.5t-26.5 50.5v10q0 37 26.5 51.5t69.5 14.5t69.5 -14.5t26.5 -51.5v-10q0 -37 -27 -50.5t-69 -13.5z" />
    <glyph glyph-name="Lslash" unicode="&#x141;" 
d="M117 0v344l-67 -24v93l67 24v363h140v-312l198 72v-93l-198 -72v-284h292v-111h-432z" />
    <glyph glyph-name="Eng" unicode="&#x14a;" 
d="M344 -209q-29 0 -59 8t-61 21l17 107q25 -13 47 -20.5t41 -7.5q37 0 58.5 29t21.5 98v557q0 57 -18.5 85t-52.5 28q-32 0 -61.5 -26t-61.5 -76v-594h-140v800h140v-107h25q21 56 63 86.5t96 30.5q65 0 107.5 -50t42.5 -142v-607q0 -107 -57 -163.5t-148 -56.5z" />
    <glyph glyph-name="OE" unicode="&#x152;" 
d="M250 0q-99 0 -154.5 74t-55.5 198v255q0 124 55.5 198.5t154.5 74.5h343v-101h-169v-212h141v-101h-141v-285h169v-101h-343zM259 104h44v592h-44q-52 0 -75.5 -42.5t-23.5 -128.5v-251q0 -85 23.5 -127.5t75.5 -42.5z" />
    <glyph glyph-name="Tbar" unicode="&#x166;" 
d="M242 0v303h-144v100h144v286h-193v111h527v-111h-194v-286h145v-100h-145v-303h-140z" />
    <glyph glyph-name="Alpha" unicode="&#x391;" 
d="M388 323l-73 356l-78 -356h151zM454 0l-44 213h-197l-47 -213h-130l193 800h167l193 -800h-135z" />
    <glyph glyph-name="Alphatonos" unicode="&#x386;" 
d="M388 323l-73 356l-78 -356h151zM454 0l-44 213h-197l-47 -213h-130l193 800h167l193 -800h-135zM8 700l46 200h174l-130 -200h-90z" />
    <glyph glyph-name="Beta" unicode="&#x392;" 
d="M75 0v800h245q107 0 161 -47t54 -141v-41q0 -56 -26 -89.5t-78 -43.5v-29q59 -7 91.5 -49t32.5 -106v-47q0 -103 -59 -155t-176 -52h-245zM215 467h92q47 0 68 22.5t21 73.5v35q0 50 -21 72.5t-68 22.5h-92v-226zM215 107h98q54 0 78 26t24 84v39q0 57 -24 83t-78 26h-98
v-258z" />
    <glyph glyph-name="Gamma" unicode="&#x393;" 
d="M103 0v800h463v-111h-322v-689h-141z" />
    <glyph glyph-name="Delta" unicode="&#x394;" 
d="M48 0v111l171 689h190l168 -689v-111h-529zM448 111l-136 577l-142 -577h278z" />
    <glyph glyph-name="Epsilon" unicode="&#x395;" 
d="M75 0v800h480v-111h-340v-202h298v-111h-298v-265h340v-111h-480z" />
    <glyph glyph-name="Epsilontonos" unicode="&#x388;" 
d="M75 0v800h480v-111h-340v-202h298v-111h-298v-265h340v-111h-480zM-114 700l46 200h174l-130 -200h-90z" />
    <glyph glyph-name="Zeta" unicode="&#x396;" 
d="M555 0h-485v111l342 578h-342v111h485v-111l-336 -578h336v-111z" />
    <glyph glyph-name="Eta" unicode="&#x397;" 
d="M75 0v800h140v-306h194v306h140v-800h-140v383h-194v-383h-140z" />
    <glyph glyph-name="Etatonos" unicode="&#x389;" 
d="M75 0v800h140v-306h194v306h140v-800h-140v383h-194v-383h-140zM-128 700l46 200h174l-130 -200h-90z" />
    <glyph glyph-name="Theta" unicode="&#x398;" 
d="M312 -10q-119 0 -183.5 72t-64.5 205v262q0 134 64.5 207.5t184.5 73.5q119 0 183 -73.5t64 -207.5v-262q0 -133 -64 -205t-184 -72zM312 101q66 0 93.5 38.5t27.5 134.5v248q0 97 -27.5 137t-93.5 40t-93.5 -40t-27.5 -137v-248q0 -96 27.5 -134.5t93.5 -38.5zM243 353
v104h141v-104h-141z" />
    <glyph glyph-name="Iota" unicode="&#x399;" 
d="M75 0v111h167v578h-167v111h474v-111h-167v-578h167v-111h-474z" />
    <glyph glyph-name="Iotatonos" unicode="&#x38a;" 
d="M75 0v111h167v578h-167v111h474v-111h-167v-578h167v-111h-474zM-128 700l46 200h174l-130 -200h-90z" />
    <glyph glyph-name="Iotadieresis" unicode="&#x3aa;" 
d="M75 0v111h167v578h-167v111h474v-111h-167v-578h167v-111h-474zM207 903q-32 0 -52.5 13.5t-20.5 50.5v10q0 37 20.5 51.5t52.5 14.5q33 0 53 -14.5t20 -51.5v-10q0 -37 -20.5 -50.5t-52.5 -13.5zM417 903q-33 0 -53 13.5t-20 50.5v10q0 37 20 51.5t53 14.5
q32 0 52.5 -14.5t20.5 -51.5v-10q0 -37 -21 -50.5t-52 -13.5z" />
    <glyph glyph-name="Kappa" unicode="&#x39a;" 
d="M215 364v-364h-140v800h140v-324h32l190 324h158l-236 -368l233 -432h-157l-185 364h-35z" />
    <glyph glyph-name="Lambda" unicode="&#x39b;" 
d="M454 0l-139 679l-149 -679h-130l193 800h167l193 -800h-135z" />
    <glyph glyph-name="Mu" unicode="&#x39c;" 
d="M264 217l-92 369l12 -586h-124v800h141l114 -426l112 426h137v-800h-124l13 581l-92 -364h-97z" />
    <glyph glyph-name="Nu" unicode="&#x39d;" 
d="M379 0l-184 617v-617h-120v800h160l194 -630v630h120v-800h-170z" />
    <glyph glyph-name="Xi" unicode="&#x39e;" 
d="M70 689v111h485v-111h-485zM90 376v111h444v-111h-444zM70 0v111h485v-111h-485z" />
    <glyph glyph-name="Omicron" unicode="&#x39f;" 
d="M312 -10q-118 0 -180 70.5t-62 199.5v276q0 131 62.5 202.5t180.5 71.5q117 0 179.5 -71.5t62.5 -202.5v-276q0 -129 -62.5 -199.5t-180.5 -70.5zM312 101q57 0 79.5 36.5t22.5 129.5v262q0 96 -22.5 133t-79.5 37q-56 0 -79 -37t-23 -133v-262q0 -93 23 -129.5t79 -36.5
z" />
    <glyph glyph-name="Omicrontonos" unicode="&#x38c;" 
d="M314 -10q-118 0 -180 70.5t-62 199.5v276q0 131 62.5 202.5t180.5 71.5q117 0 179.5 -71.5t62.5 -202.5v-276q0 -129 -62.5 -199.5t-180.5 -70.5zM314 101q57 0 79.5 36.5t22.5 129.5v262q0 96 -22.5 133t-79.5 37q-56 0 -79 -37t-23 -133v-262q0 -93 23 -129.5t79 -36.5
zM-37 700l46 200h174l-130 -200h-90z" />
    <glyph glyph-name="Pi" unicode="&#x3a0;" 
d="M75 0v800h474v-800h-140v689h-194v-689h-140z" />
    <glyph glyph-name="Rho" unicode="&#x3a1;" 
d="M75 0v800h252q113 0 172 -52.5t59 -161.5v-110q0 -109 -58 -159t-173 -50h-112v-267h-140zM215 375h104q52 0 75.5 24.5t23.5 85.5v93q0 61 -23.5 86t-75.5 25h-104v-314z" />
    <glyph glyph-name="Sigma" unicode="&#x3a3;" 
d="M538 0h-459v111l263 299l-263 279v111h459v-111h-310l209 -227v-92l-219 -259h320v-111z" />
    <glyph glyph-name="Tau" unicode="&#x3a4;" 
d="M242 0v689h-193v111h527v-111h-194v-689h-140z" />
    <glyph glyph-name="Upsilon" unicode="&#x3a5;" 
d="M382 0h-140v300l-215 500h142l144 -367l142 367h142l-215 -500v-300z" />
    <glyph glyph-name="Upsilontonos" unicode="&#x38e;" 
d="M382 0h-140v300l-215 500h142l144 -367l142 367h142l-215 -500v-300zM-136 700l46 200h174l-130 -200h-90z" />
    <glyph glyph-name="Upsilondieresis" unicode="&#x3ab;" 
d="M382 0h-140v300l-215 500h142l144 -367l142 367h142l-215 -500v-300zM207 903q-32 0 -52.5 13.5t-20.5 50.5v10q0 37 20.5 51.5t52.5 14.5q33 0 53 -14.5t20 -51.5v-10q0 -37 -20.5 -50.5t-52.5 -13.5zM417 903q-33 0 -53 13.5t-20 50.5v10q0 37 20 51.5t53 14.5
q32 0 52.5 -14.5t20.5 -51.5v-10q0 -37 -21 -50.5t-52 -13.5z" />
    <glyph glyph-name="Phi" unicode="&#x3a6;" 
d="M385 90h-15v-100h-117v100h-14q-93 0 -140.5 65.5t-47.5 181.5v122q0 117 47.5 184t140.5 67h14v100h117v-100h15q93 0 140.5 -67t47.5 -184v-122q0 -116 -47.5 -181.5t-140.5 -65.5zM387 603h-21v-406h21q35 0 51 35t16 105v122q0 71 -16 107.5t-51 36.5zM238 197h19
v406h-19q-36 0 -52 -36.5t-16 -107.5v-122q0 -70 16 -105t52 -35z" />
    <glyph glyph-name="Chi" unicode="&#x3a7;" 
d="M443 0l-133 270l-131 -270h-140l207 411l-186 389h147l119 -244l120 244h140l-197 -388l194 -412h-140z" />
    <glyph glyph-name="Psi" unicode="&#x3a8;" 
d="M371 0h-118v191q-96 16 -143 83.5t-47 175.5v350h117v-346q0 -68 17 -104.5t57 -46.5v497h116v-497q40 9 57 46t17 105v346h117v-350q0 -108 -47 -175.5t-143 -83.5v-191z" />
    <glyph glyph-name="Omega" unicode="&#x3a9;" 
d="M282 0h-221v100h98v94q-52 27 -75 81t-23 129v125q0 137 64.5 209t186.5 72t186.5 -72t64.5 -209v-125q0 -75 -23 -129t-74 -81v-94h97v-100h-221v230q45 13 62.5 57t17.5 117v127q0 91 -25 128t-85 37q-59 0 -84.5 -37t-25.5 -128v-127q0 -73 17.5 -117t62.5 -57v-230z
" />
    <glyph glyph-name="Omegatonos" unicode="&#x38f;" 
d="M282 0h-221v100h98v94q-52 27 -75 81t-23 129v125q0 137 64.5 209t186.5 72t186.5 -72t64.5 -209v-125q0 -75 -23 -129t-74 -81v-94h97v-100h-221v230q45 13 62.5 57t17.5 117v127q0 91 -25 128t-85 37q-59 0 -84.5 -37t-25.5 -128v-127q0 -73 17.5 -117t62.5 -57v-230z
M-67 700l46 200h174l-130 -200h-90z" />
    <glyph glyph-name="Ohm" unicode="&#x2126;" 
d="M282 0h-221v100h98v94q-52 27 -75 81t-23 129v125q0 137 64.5 209t186.5 72t186.5 -72t64.5 -209v-125q0 -75 -23 -129t-74 -81v-94h97v-100h-221v230q45 13 62.5 57t17.5 117v127q0 91 -25 128t-85 37q-59 0 -84.5 -37t-25.5 -128v-127q0 -73 17.5 -117t62.5 -57v-230z
" />
    <glyph glyph-name="Djecyrillic" unicode="&#x402;" 
d="M136 0v689h-102v111h394v-111h-152v-169h75q105 0 160 -55.5t55 -165.5v-78q0 -110 -55 -165.5t-160 -55.5v109q40 0 60 25.5t20 88.5v74q0 63 -20 88.5t-60 25.5h-75v-411h-140z" />
    <glyph glyph-name="Ecyrillic" unicode="&#x404;" 
d="M575 264q-6 -140 -67 -207t-183 -67q-125 0 -190 69.5t-65 204.5v268q0 137 65 207.5t190 70.5q122 0 183 -67t67 -211l-140 -10q-7 104 -30.5 140.5t-83.5 36.5q-62 0 -86.5 -36.5t-24.5 -137.5v-38h146v-111h-146v-106q0 -98 24.5 -133.5t87.5 -35.5q60 0 83 36t30 137
z" />
    <glyph glyph-name="Dzecyrillic" unicode="&#x405;" 
d="M306 -9q-70 0 -133.5 22.5t-113.5 64.5l37 107q48 -39 100 -61t115 -22q57 0 85.5 30t28.5 80q0 51 -30.5 77t-115.5 58q-114 43 -159.5 95.5t-45.5 139.5q0 101 62 162.5t173 61.5q63 0 123 -23t102 -62l-31 -103q-46 37 -93 57t-95 20q-49 0 -75.5 -25t-26.5 -74
q0 -47 31 -72.5t120 -59.5q112 -43 156.5 -95.5t44.5 -139.5q0 -111 -70.5 -174.5t-188.5 -63.5z" />
    <glyph glyph-name="Icyrillic" unicode="&#x406;" 
d="M75 0v111h167v578h-167v111h474v-111h-167v-578h167v-111h-474z" />
    <glyph glyph-name="Yicyrillic" unicode="&#x407;" 
d="M75 0v111h167v578h-167v111h474v-111h-167v-578h167v-111h-474zM207 903q-32 0 -52.5 13.5t-20.5 50.5v10q0 37 20.5 51.5t52.5 14.5q33 0 53 -14.5t20 -51.5v-10q0 -37 -20.5 -50.5t-52.5 -13.5zM417 903q-33 0 -53 13.5t-20 50.5v10q0 37 20 51.5t53 14.5
q32 0 52.5 -14.5t20.5 -51.5v-10q0 -37 -21 -50.5t-52 -13.5z" />
    <glyph glyph-name="Jecyrillic" unicode="&#x408;" 
d="M300 -10q-128 0 -184.5 64t-62.5 213l140 11q7 -107 28.5 -142t76.5 -35q51 0 75.5 34.5t24.5 112.5v441h-185v111h325v-550q0 -124 -59 -192t-179 -68z" />
    <glyph glyph-name="Ljecyrillic" unicode="&#x409;" 
d="M186 154q-1 -80 -33 -120t-89 -40q-14 0 -28.5 2.5t-29.5 7.5l16 108q7 -2 13 -4t13 -2q13 0 21 16t9 57l7 621h289v-267h45q74 0 111 -49.5t37 -149.5v-130q0 -102 -37 -153t-111 -51h-155v696h-72zM374 104h30q27 0 40 25t13 85v109q0 59 -13 83.5t-40 24.5h-30v-327z
" />
    <glyph glyph-name="Njecyrillic" unicode="&#x40a;" 
d="M374 104h29q28 0 41 25t13 85v109q0 59 -13 83.5t-41 24.5h-29v-327zM167 383v-383h-109v800h109v-306h97v306h110v-267h45q74 0 111 -49.5t37 -149.5v-130q0 -102 -37 -153t-112 -51h-154v383h-97z" />
    <glyph glyph-name="Tshecyrillic" unicode="&#x40b;" 
d="M274 0h-141v689h-102v111h400v-111h-157v-196h83q105 0 157 -50.5t52 -153.5v-289h-141v280q0 56 -18 80.5t-56 24.5h-77v-385z" />
    <glyph glyph-name="Dzhecyrillic" unicode="&#x40f;" 
d="M242 -150v150h-167v800h140v-689h194v689h140v-800h-167v-150h-140z" />
    <glyph glyph-name="Acyrillic" unicode="&#x410;" 
d="M388 323l-73 356l-78 -356h151zM454 0l-44 213h-197l-47 -213h-130l193 800h167l193 -800h-135z" />
    <glyph glyph-name="Becyrillic" unicode="&#x411;" 
d="M75 0v800h445v-111h-305v-205h125q106 0 163.5 -53.5t57.5 -152.5v-59q0 -104 -57.5 -161.5t-162.5 -57.5h-266zM215 111h109q51 0 74 26t23 88v38q0 61 -23 86.5t-74 25.5h-109v-264z" />
    <glyph glyph-name="Vecyrillic" unicode="&#x412;" 
d="M75 0v800h245q107 0 161 -47t54 -141v-41q0 -56 -26 -89.5t-78 -43.5v-29q59 -7 91.5 -49t32.5 -106v-47q0 -103 -59 -155t-176 -52h-245zM215 467h92q47 0 68 22.5t21 73.5v35q0 50 -21 72.5t-68 22.5h-92v-226zM215 107h98q54 0 78 26t24 84v39q0 57 -24 83t-78 26h-98
v-258z" />
    <glyph glyph-name="Gecyrillic" unicode="&#x413;" 
d="M103 0v800h463v-111h-322v-689h-141z" />
    <glyph glyph-name="Gjecyrillic" unicode="&#x403;" 
d="M103 0v800h463v-111h-322v-689h-141zM237 900l97 200h182l-180 -200h-99z" />
    <glyph glyph-name="Decyrillic" unicode="&#x414;" 
d="M214 134v-23h173v578h-134l-2 -385q-1 -61 -9 -103t-28 -67zM152 0v-150h-130v261h54q23 21 34.5 67t12.5 131l4 491h388v-689h73v-261h-130v150h-306z" />
    <glyph glyph-name="Iecyrillic" unicode="&#x415;" 
d="M75 0v800h480v-111h-340v-202h298v-111h-298v-265h340v-111h-480z" />
    <glyph glyph-name="IEgravecyrillic" unicode="&#x400;" 
d="M75 0v800h480v-111h-340v-202h298v-111h-298v-265h340v-111h-480zM298 900l-179 200h182l96 -200h-99z" />
    <glyph glyph-name="Iocyrillic" unicode="&#x401;" 
d="M75 0v800h480v-111h-340v-202h298v-111h-298v-265h340v-111h-480zM221 903q-32 0 -52.5 13.5t-20.5 50.5v10q0 37 20.5 51.5t52.5 14.5q33 0 53 -14.5t20 -51.5v-10q0 -37 -20.5 -50.5t-52.5 -13.5zM431 903q-33 0 -53 13.5t-20 50.5v10q0 37 20 51.5t53 14.5
q32 0 52.5 -14.5t20.5 -51.5v-10q0 -37 -21 -50.5t-52 -13.5z" />
    <glyph glyph-name="Zhecyrillic" unicode="&#x416;" 
d="M225 371l-81 -371h-113l111 443l-112 357h113l86 -332h31v332h104v-332h32l85 332h114l-107 -360l105 -440h-113l-80 371h-36v-371h-104v371h-35z" />
    <glyph glyph-name="Zecyrillic" unicode="&#x417;" 
d="M311 -10q-122 0 -183 57t-67 176l141 10q7 -78 31.5 -106t77.5 -28q57 0 80 27t23 87v40q0 63 -25.5 89t-82.5 26h-83v110h83q51 0 71.5 18.5t20.5 69.5v42q0 51 -21 72t-70 21q-46 0 -64.5 -25.5t-24.5 -90.5l-140 10q6 110 62 162.5t169 52.5q112 0 170.5 -48.5
t58.5 -146.5v-33q0 -63 -35 -99.5t-90 -43.5v-29q61 -7 101.5 -52.5t40.5 -116.5v-30q0 -110 -59.5 -165.5t-184.5 -55.5z" />
    <glyph glyph-name="Iicyrillic" unicode="&#x418;" 
d="M426 0v615l-180 -615h-171v800h123v-629l192 629h159v-800h-123z" />
    <glyph glyph-name="Igravecyrillic" unicode="&#x40d;" 
d="M426 0v615l-180 -615h-171v800h123v-629l192 629h159v-800h-123zM287 900l-179 200h182l96 -200h-99z" />
    <glyph glyph-name="Iishortcyrillic" unicode="&#x419;" 
d="M426 0v615l-180 -615h-171v800h123v-629l192 629h159v-800h-123zM315 893q-90 0 -148 50t-58 160l124 10q-1 -69 17 -98t65 -29t65 29t17 98l124 -10q0 -110 -58 -160t-148 -50z" />
    <glyph glyph-name="Kacyrillic" unicode="&#x41a;" 
d="M215 364v-364h-140v800h140v-324h32l190 324h158l-236 -368l233 -432h-157l-185 364h-35z" />
    <glyph glyph-name="Kjecyrillic" unicode="&#x40c;" 
d="M215 364v-364h-140v800h140v-324h32l190 324h158l-236 -368l233 -432h-157l-185 364h-35zM263 900l97 200h182l-180 -200h-99z" />
    <glyph glyph-name="Elcyrillic" unicode="&#x41b;" 
d="M409 0v689h-135l-2 -453q-1 -124 -44 -185.5t-126 -61.5q-20 0 -41 3.5t-42 10.5l17 110q11 -4 22 -7t21 -3q27 0 40.5 32t13.5 114l4 551h412v-800h-140z" />
    <glyph glyph-name="Emcyrillic" unicode="&#x41c;" 
d="M264 217l-92 369l12 -586h-124v800h141l114 -426l112 426h137v-800h-124l13 581l-92 -364h-97z" />
    <glyph glyph-name="Encyrillic" unicode="&#x41d;" 
d="M75 0v800h140v-306h194v306h140v-800h-140v383h-194v-383h-140z" />
    <glyph glyph-name="Ocyrillic" unicode="&#x41e;" 
d="M312 -10q-118 0 -180 70.5t-62 199.5v276q0 131 62.5 202.5t180.5 71.5q117 0 179.5 -71.5t62.5 -202.5v-276q0 -129 -62.5 -199.5t-180.5 -70.5zM312 101q57 0 79.5 36.5t22.5 129.5v262q0 96 -22.5 133t-79.5 37q-56 0 -79 -37t-23 -133v-262q0 -93 23 -129.5t79 -36.5
z" />
    <glyph glyph-name="Pecyrillic" unicode="&#x41f;" 
d="M75 0v800h474v-800h-140v689h-194v-689h-140z" />
    <glyph glyph-name="Ercyrillic" unicode="&#x420;" 
d="M75 0v800h252q113 0 172 -52.5t59 -161.5v-110q0 -109 -58 -159t-173 -50h-112v-267h-140zM215 375h104q52 0 75.5 24.5t23.5 85.5v93q0 61 -23.5 86t-75.5 25h-104v-314z" />
    <glyph glyph-name="Escyrillic" unicode="&#x421;" 
d="M325 -10q-128 0 -191.5 68.5t-63.5 205.5v268q0 138 64 208t191 70q125 0 184 -66.5t66 -211.5l-140 -10q-6 104 -29.5 140.5t-81.5 36.5q-63 0 -88.5 -39t-25.5 -135v-255q0 -90 25.5 -129.5t88.5 -39.5q58 0 81 35.5t30 137.5l140 -10q-6 -143 -65.5 -208.5
t-184.5 -65.5z" />
    <glyph glyph-name="Tecyrillic" unicode="&#x422;" 
d="M242 0v689h-193v111h527v-111h-194v-689h-140z" />
    <glyph glyph-name="Ucyrillic" unicode="&#x423;" 
d="M167 -3q-25 0 -51 3.5t-52 8.5l15 111q24 -6 44.5 -9t36.5 -3q43 0 67 21.5t37 69.5l4 18h-48l-175 583h138l127 -434l131 434h137l-197 -639q-28 -87 -82 -125.5t-132 -38.5z" />
    <glyph glyph-name="Ushortcyrillic" unicode="&#x40e;" 
d="M167 -3q-25 0 -51 3.5t-52 8.5l15 111q24 -6 44.5 -9t36.5 -3q43 0 67 21.5t37 69.5l4 18h-48l-175 583h138l127 -434l131 434h137l-197 -639q-28 -87 -82 -125.5t-132 -38.5zM312 893q-90 0 -148 50t-58 160l124 10q-1 -69 17 -98t65 -29t65 29t17 98l124 -10
q0 -110 -58 -160t-148 -50z" />
    <glyph glyph-name="Efcyrillic" unicode="&#x424;" 
d="M385 90h-15v-100h-117v100h-14q-93 0 -140.5 65.5t-47.5 181.5v122q0 117 47.5 184t140.5 67h14v100h117v-100h15q93 0 140.5 -67t47.5 -184v-122q0 -116 -47.5 -181.5t-140.5 -65.5zM387 603h-21v-406h21q35 0 51 35t16 105v122q0 71 -16 107.5t-51 36.5zM238 197h19
v406h-19q-36 0 -52 -36.5t-16 -107.5v-122q0 -70 16 -105t52 -35z" />
    <glyph glyph-name="Khacyrillic" unicode="&#x425;" 
d="M443 0l-133 270l-131 -270h-140l207 411l-186 389h147l119 -244l120 244h140l-197 -388l194 -412h-140z" />
    <glyph glyph-name="Tsecyrillic" unicode="&#x426;" 
d="M451 -150v150h-376v800h140v-689h164v689h140v-689h72v-261h-140z" />
    <glyph glyph-name="Checyrillic" unicode="&#x427;" 
d="M546 800v-800h-140v270h-97q-122 0 -179.5 53.5t-57.5 167.5v309h140v-307q0 -60 24 -87.5t73 -27.5h97v422h140z" />
    <glyph glyph-name="Shacyrillic" unicode="&#x428;" 
d="M53 0v800h118v-695h84v695h114v-695h84v695h118v-800h-518z" />
    <glyph glyph-name="Shchacyrillic" unicode="&#x429;" 
d="M607 -167h-122v167h-432v800h118v-695h84v695h114v-695h84v695h118v-695h36v-272z" />
    <glyph glyph-name="Hardsigncyrillic" unicode="&#x42a;" 
d="M361 0h-214v689h-125v111h262v-267h77q105 0 156 -51.5t51 -158.5v-109q0 -109 -51 -161.5t-156 -52.5zM284 111h61q46 0 66 26t20 87v89q0 60 -20 86t-66 26h-61v-314z" />
    <glyph glyph-name="Yericyrillic" unicode="&#x42b;" 
d="M62 0v800h117v-267h29q89 0 132.5 -51t43.5 -155v-116q0 -107 -43.5 -159t-132.5 -52h-146zM445 0v800h117v-800h-117zM179 105h27q33 0 48.5 26t15.5 89v97q0 62 -15.5 88t-48.5 26h-27v-326z" />
    <glyph glyph-name="Softsigncyrillic" unicode="&#x42c;" 
d="M75 0v800h140v-267h130q115 0 172 -51.5t57 -156.5v-112q0 -107 -57 -160t-173 -53h-269zM215 111h111q54 0 81 25.5t27 85.5v93q0 60 -27 85t-81 25h-111v-314z" />
    <glyph glyph-name="Ereversedcyrillic" unicode="&#x42d;" 
d="M317 -10q-121 0 -183 67t-68 207l140 10q7 -99 29.5 -136t83.5 -37q65 0 88.5 40.5t23.5 128.5v106h-160v111h160v38q0 99 -24.5 136.5t-87.5 37.5q-60 0 -83 -38t-30 -139l-140 10q6 141 68 209.5t182 68.5q130 0 193 -71.5t63 -206.5v-268q0 -133 -62.5 -203.5
t-192.5 -70.5z" />
    <glyph glyph-name="IUcyrillic" unicode="&#x42e;" 
d="M403 -10q-82 0 -124 61.5t-42 171.5v156h-67v-379h-117v800h117v-316h67v86q0 114 42.5 177t124.5 63q83 0 125 -63t42 -177v-347q0 -110 -42.5 -171.5t-125.5 -61.5zM403 98q28 0 39 28.5t11 96.5v347q0 71 -11 101t-39 30t-39.5 -30t-11.5 -101v-347q0 -68 11.5 -96.5
t39.5 -28.5z" />
    <glyph glyph-name="IAcyrillic" unicode="&#x42f;" 
d="M299 409h110v280h-110q-51 0 -74 -25t-23 -82v-61q0 -60 23 -86t74 -26zM409 300h-72l-138 -300h-151l149 314q-65 19 -97.5 70.5t-32.5 135.5v66q0 107 53.5 160.5t160.5 53.5h268v-800h-140v300z" />
    <glyph glyph-name="Gheupturncyrillic" unicode="&#x490;" 
d="M103 0v800h323v150h140v-261h-322v-689h-141z" />
    <glyph glyph-name="a" unicode="a" 
d="M258 88q34 0 60.5 13.5t48.5 43.5v104h-111q-33 0 -49.5 -17.5t-16.5 -63.5q0 -38 16 -59t52 -21zM224 -10q-72 0 -117.5 46t-45.5 126q0 81 48 126t126 45h132v86q0 43 -20.5 64.5t-63.5 21.5t-63.5 -20.5t-31.5 -77.5l-115 24q18 94 68.5 136.5t145.5 42.5
q101 0 158 -44t57 -139v-260q0 -46 21 -57.5t62 -3.5v-106q-67 -14 -109.5 6.5t-54.5 81.5h-22q-25 -41 -71.5 -69.5t-103.5 -28.5z" />
    <glyph glyph-name="agrave" unicode="&#xe0;" 
d="M258 88q34 0 60.5 13.5t48.5 43.5v104h-111q-33 0 -49.5 -17.5t-16.5 -63.5q0 -38 16 -59t52 -21zM224 -10q-72 0 -117.5 46t-45.5 126q0 81 48 126t126 45h132v86q0 43 -20.5 64.5t-63.5 21.5t-63.5 -20.5t-31.5 -77.5l-115 24q18 94 68.5 136.5t145.5 42.5
q101 0 158 -44t57 -139v-260q0 -46 21 -57.5t62 -3.5v-106q-67 -14 -109.5 6.5t-54.5 81.5h-22q-25 -41 -71.5 -69.5t-103.5 -28.5zM290 700l-179 200h182l96 -200h-99z" />
    <glyph glyph-name="aacute" unicode="&#xe1;" 
d="M258 88q34 0 60.5 13.5t48.5 43.5v104h-111q-33 0 -49.5 -17.5t-16.5 -63.5q0 -38 16 -59t52 -21zM224 -10q-72 0 -117.5 46t-45.5 126q0 81 48 126t126 45h132v86q0 43 -20.5 64.5t-63.5 21.5t-63.5 -20.5t-31.5 -77.5l-115 24q18 94 68.5 136.5t145.5 42.5
q101 0 158 -44t57 -139v-260q0 -46 21 -57.5t62 -3.5v-106q-67 -14 -109.5 6.5t-54.5 81.5h-22q-25 -41 -71.5 -69.5t-103.5 -28.5zM194 700l97 200h182l-180 -200h-99z" />
    <glyph glyph-name="acircumflex" unicode="&#xe2;" 
d="M258 88q34 0 60.5 13.5t48.5 43.5v104h-111q-33 0 -49.5 -17.5t-16.5 -63.5q0 -38 16 -59t52 -21zM224 -10q-72 0 -117.5 46t-45.5 126q0 81 48 126t126 45h132v86q0 43 -20.5 64.5t-63.5 21.5t-63.5 -20.5t-31.5 -77.5l-115 24q18 94 68.5 136.5t145.5 42.5
q101 0 158 -44t57 -139v-260q0 -46 21 -57.5t62 -3.5v-106q-67 -14 -109.5 6.5t-54.5 81.5h-22q-25 -41 -71.5 -69.5t-103.5 -28.5zM145 700l-49 68l154 152h106l156 -152l-48 -67l-161 109z" />
    <glyph glyph-name="atilde" unicode="&#xe3;" 
d="M258 88q34 0 60.5 13.5t48.5 43.5v104h-111q-33 0 -49.5 -17.5t-16.5 -63.5q0 -38 16 -59t52 -21zM224 -10q-72 0 -117.5 46t-45.5 126q0 81 48 126t126 45h132v86q0 43 -20.5 64.5t-63.5 21.5t-63.5 -20.5t-31.5 -77.5l-115 24q18 94 68.5 136.5t145.5 42.5
q101 0 158 -44t57 -139v-260q0 -46 21 -57.5t62 -3.5v-106q-67 -14 -109.5 6.5t-54.5 81.5h-22q-25 -41 -71.5 -69.5t-103.5 -28.5zM376 710q-35 0 -56.5 16t-37.5 38l-24.5 36.5t-27.5 16.5t-26 -17.5t-9 -63.5v-16h-93v15q0 80 33.5 131t93.5 51q34 0 55.5 -15.5
t37.5 -38.5l24.5 -37t25.5 -17q16 0 26 18t10 64v16h93v-15q0 -81 -33 -131.5t-92 -50.5z" />
    <glyph glyph-name="adieresis" unicode="&#xe4;" 
d="M258 88q34 0 60.5 13.5t48.5 43.5v104h-111q-33 0 -49.5 -17.5t-16.5 -63.5q0 -38 16 -59t52 -21zM224 -10q-72 0 -117.5 46t-45.5 126q0 81 48 126t126 45h132v86q0 43 -20.5 64.5t-63.5 21.5t-63.5 -20.5t-31.5 -77.5l-115 24q18 94 68.5 136.5t145.5 42.5
q101 0 158 -44t57 -139v-260q0 -46 21 -57.5t62 -3.5v-106q-67 -14 -109.5 6.5t-54.5 81.5h-22q-25 -41 -71.5 -69.5t-103.5 -28.5zM196 703q-32 0 -52.5 13.5t-20.5 50.5v10q0 37 20.5 51.5t52.5 14.5q33 0 53 -14.5t20 -51.5v-10q0 -37 -20.5 -50.5t-52.5 -13.5zM406 703
q-33 0 -53 13.5t-20 50.5v10q0 37 20 51.5t53 14.5q32 0 52.5 -14.5t20.5 -51.5v-10q0 -37 -21 -50.5t-52 -13.5z" />
    <glyph glyph-name="aring" unicode="&#xe5;" 
d="M258 88q34 0 60.5 13.5t48.5 43.5v104h-111q-33 0 -49.5 -17.5t-16.5 -63.5q0 -38 16 -59t52 -21zM224 -10q-72 0 -117.5 46t-45.5 126q0 81 48 126t126 45h132v86q0 43 -20.5 64.5t-63.5 21.5t-63.5 -20.5t-31.5 -77.5l-115 24q18 94 68.5 136.5t145.5 42.5
q101 0 158 -44t57 -139v-260q0 -46 21 -57.5t62 -3.5v-106q-67 -14 -109.5 6.5t-54.5 81.5h-22q-25 -41 -71.5 -69.5t-103.5 -28.5zM296 682q-72 0 -117 36t-45 112v32q0 77 45 114t117 37q73 0 117.5 -37t44.5 -114v-32q0 -76 -45 -112t-117 -36zM296 759q31 0 47 16.5
t16 54.5v32q0 37 -16 55.5t-47 18.5t-47 -18.5t-16 -55.5v-32q0 -38 16 -54.5t47 -16.5z" />
    <glyph glyph-name="amacron" unicode="&#x101;" 
d="M258 88q34 0 60.5 13.5t48.5 43.5v104h-111q-33 0 -49.5 -17.5t-16.5 -63.5q0 -38 16 -59t52 -21zM224 -10q-72 0 -117.5 46t-45.5 126q0 81 48 126t126 45h132v86q0 43 -20.5 64.5t-63.5 21.5t-63.5 -20.5t-31.5 -77.5l-115 24q18 94 68.5 136.5t145.5 42.5
q101 0 158 -44t57 -139v-260q0 -46 21 -57.5t62 -3.5v-106q-67 -14 -109.5 6.5t-54.5 81.5h-22q-25 -41 -71.5 -69.5t-103.5 -28.5zM115 745v110h362v-110h-362z" />
    <glyph glyph-name="abreve" unicode="&#x103;" 
d="M258 88q34 0 60.5 13.5t48.5 43.5v104h-111q-33 0 -49.5 -17.5t-16.5 -63.5q0 -38 16 -59t52 -21zM224 -10q-72 0 -117.5 46t-45.5 126q0 81 48 126t126 45h132v86q0 43 -20.5 64.5t-63.5 21.5t-63.5 -20.5t-31.5 -77.5l-115 24q18 94 68.5 136.5t145.5 42.5
q101 0 158 -44t57 -139v-260q0 -46 21 -57.5t62 -3.5v-106q-67 -14 -109.5 6.5t-54.5 81.5h-22q-25 -41 -71.5 -69.5t-103.5 -28.5zM296 693q-104 0 -158.5 53.5t-55.5 166.5h118q1 -71 23 -99t73 -28t73 28t23 99h118q-1 -113 -55.5 -166.5t-158.5 -53.5z" />
    <glyph glyph-name="aogonek" unicode="&#x105;" 
d="M258 88q34 0 60.5 13.5t48.5 43.5v104h-111q-33 0 -49.5 -17.5t-16.5 -63.5q0 -38 16 -59t52 -21zM224 -10q-72 0 -117.5 46t-45.5 126q0 81 48 126t126 45h132v86q0 43 -20.5 64.5t-63.5 21.5t-63.5 -20.5t-31.5 -77.5l-115 24q18 94 68.5 136.5t145.5 42.5
q101 0 158 -44t57 -139v-260q0 -46 21 -57.5t62 -3.5v-106q-67 -14 -109.5 6.5t-54.5 81.5h-22q-25 -41 -71.5 -69.5t-103.5 -28.5zM519 -218q-66 0 -104.5 32t-38.5 90q0 52 37.5 93.5t87.5 59.5l22 -34q-26 -19 -35 -41.5t-9 -44.5q0 -27 15.5 -40.5t46.5 -13.5
q15 0 35.5 3t42.5 7v-100q-25 -5 -51.5 -8t-48.5 -3z" />
    <glyph glyph-name="aringacute" unicode="&#x1fb;" 
d="M258 88q34 0 60.5 13.5t48.5 43.5v104h-111q-33 0 -49.5 -17.5t-16.5 -63.5q0 -38 16 -59t52 -21zM224 -10q-72 0 -117.5 46t-45.5 126q0 81 48 126t126 45h132v86q0 43 -20.5 64.5t-63.5 21.5t-63.5 -20.5t-31.5 -77.5l-115 24q18 94 68.5 136.5t145.5 42.5
q101 0 158 -44t57 -139v-260q0 -46 21 -57.5t62 -3.5v-106q-67 -14 -109.5 6.5t-54.5 81.5h-22q-25 -41 -71.5 -69.5t-103.5 -28.5zM296 682q-72 0 -117 36t-45 112v32q0 77 45 114t117 37q73 0 117.5 -37t44.5 -114v-32q0 -76 -45 -112t-117 -36zM296 759q31 0 47 16.5
t16 54.5v32q0 37 -16 55.5t-47 18.5t-47 -18.5t-16 -55.5v-32q0 -38 16 -54.5t47 -16.5zM233 1000l97 200h182l-180 -200h-99z" />
    <glyph glyph-name="b" unicode="b" 
d="M306 -9q-62 0 -122.5 18t-102.5 48v743h140v-290h25q17 49 55 74.5t91 25.5q73 0 112 -55.5t39 -149.5v-199q0 -104 -61 -159.5t-176 -55.5zM312 97q48 0 69.5 25.5t21.5 84.5v184q0 55 -18 80t-54 25q-31 0 -58 -17.5t-52 -55.5v-299q20 -13 41.5 -20t49.5 -7z" />
    <glyph glyph-name="c" unicode="c" 
d="M321 -10q-118 0 -179 56.5t-61 160.5v185q0 104 61.5 161t177.5 57q107 0 162 -53t65 -160l-135 -9q-4 65 -26 89.5t-70 24.5q-49 0 -72 -26t-23 -89v-176q0 -62 23 -88t74 -26q48 0 69 20.5t25 74.5l135 -9q-6 -98 -59.5 -145.5t-166.5 -47.5z" />
    <glyph glyph-name="ccedilla" unicode="&#xe7;" 
d="M321 -10q-118 0 -179 56.5t-61 160.5v185q0 104 61.5 161t177.5 57q107 0 162 -53t65 -160l-135 -9q-4 65 -26 89.5t-70 24.5q-49 0 -72 -26t-23 -89v-176q0 -62 23 -88t74 -26q48 0 69 20.5t25 74.5l135 -9q-6 -98 -59.5 -145.5t-166.5 -47.5zM312 0l16 42
q68 -9 106 -40.5t38 -91.5q0 -66 -47 -97.5t-115 -31.5q-74 0 -118.5 28t-48.5 88l119 10q1 -19 10.5 -26.5t31.5 -7.5q24 0 35.5 11.5t11.5 45.5q0 32 -8.5 47t-30.5 23z" />
    <glyph glyph-name="cacute" unicode="&#x107;" 
d="M321 -10q-118 0 -179 56.5t-61 160.5v185q0 104 61.5 161t177.5 57q107 0 162 -53t65 -160l-135 -9q-4 65 -26 89.5t-70 24.5q-49 0 -72 -26t-23 -89v-176q0 -62 23 -88t74 -26q48 0 69 20.5t25 74.5l135 -9q-6 -98 -59.5 -145.5t-166.5 -47.5zM233 700l97 200h182
l-180 -200h-99z" />
    <glyph glyph-name="ccircumflex" unicode="&#x109;" 
d="M321 -10q-118 0 -179 56.5t-61 160.5v185q0 104 61.5 161t177.5 57q107 0 162 -53t65 -160l-135 -9q-4 65 -26 89.5t-70 24.5q-49 0 -72 -26t-23 -89v-176q0 -62 23 -88t74 -26q48 0 69 20.5t25 74.5l135 -9q-6 -98 -59.5 -145.5t-166.5 -47.5zM161 700l-49 68l154 152
h106l156 -152l-48 -67l-161 109z" />
    <glyph glyph-name="cdotaccent" unicode="&#x10b;" 
d="M321 -10q-118 0 -179 56.5t-61 160.5v185q0 104 61.5 161t177.5 57q107 0 162 -53t65 -160l-135 -9q-4 65 -26 89.5t-70 24.5q-49 0 -72 -26t-23 -89v-176q0 -62 23 -88t74 -26q48 0 69 20.5t25 74.5l135 -9q-6 -98 -59.5 -145.5t-166.5 -47.5zM317 703q-43 0 -69.5 13.5
t-26.5 50.5v10q0 37 26.5 51.5t69.5 14.5t69.5 -14.5t26.5 -51.5v-10q0 -37 -27 -50.5t-69 -13.5z" />
    <glyph glyph-name="ccaron" unicode="&#x10d;" 
d="M321 -10q-118 0 -179 56.5t-61 160.5v185q0 104 61.5 161t177.5 57q107 0 162 -53t65 -160l-135 -9q-4 65 -26 89.5t-70 24.5q-49 0 -72 -26t-23 -89v-176q0 -62 23 -88t74 -26q48 0 69 20.5t25 74.5l135 -9q-6 -98 -59.5 -145.5t-166.5 -47.5zM265 704l-156 152l48 68
l161 -109l158 109l49 -68l-154 -152h-106z" />
    <glyph glyph-name="d" unicode="d" 
d="M293 104q32 0 58.5 18t51.5 55v293q-22 17 -44 25t-47 8q-48 0 -69.5 -26.5t-21.5 -83.5v-184q0 -54 18 -79.5t54 -25.5zM378 90q-16 -45 -53 -72.5t-90 -27.5q-75 0 -114.5 57t-39.5 148v199q0 101 55.5 158t153.5 57q30 0 59 -7t54 -20v218h140v-800h-140v90h-25z" />
    <glyph glyph-name="dcaron" unicode="&#x10f;" 
d="M293 104q32 0 58.5 18t51.5 55v293q-22 17 -44 25t-47 8q-48 0 -69.5 -26.5t-21.5 -83.5v-184q0 -54 18 -79.5t54 -25.5zM378 90q-16 -45 -53 -72.5t-90 -27.5q-75 0 -114.5 57t-39.5 148v199q0 101 55.5 158t153.5 57q30 0 59 -7t54 -20v218h140v-800h-140v90h-25z
M601 705l51 295h180l-148 -295h-83z" />
    <glyph glyph-name="e" unicode="e" 
d="M549 135q-25 -78 -76.5 -111.5t-154.5 -33.5q-108 0 -172.5 55.5t-64.5 159.5v191q0 103 63.5 158.5t168.5 55.5q106 0 168 -57t62 -166v-114h-322v-73q0 -57 23.5 -84t76.5 -27q46 0 71 18t38 62zM221 403v-46h182v39q0 63 -21 90t-70 27t-70 -26t-21 -84z" />
    <glyph glyph-name="egrave" unicode="&#xe8;" 
d="M549 135q-25 -78 -76.5 -111.5t-154.5 -33.5q-108 0 -172.5 55.5t-64.5 159.5v191q0 103 63.5 158.5t168.5 55.5q106 0 168 -57t62 -166v-114h-322v-73q0 -57 23.5 -84t76.5 -27q46 0 71 18t38 62zM221 403v-46h182v39q0 63 -21 90t-70 27t-70 -26t-21 -84zM304 700
l-179 200h182l96 -200h-99z" />
    <glyph glyph-name="eacute" unicode="&#xe9;" 
d="M549 135q-25 -78 -76.5 -111.5t-154.5 -33.5q-108 0 -172.5 55.5t-64.5 159.5v191q0 103 63.5 158.5t168.5 55.5q106 0 168 -57t62 -166v-114h-322v-73q0 -57 23.5 -84t76.5 -27q46 0 71 18t38 62zM221 403v-46h182v39q0 63 -21 90t-70 27t-70 -26t-21 -84zM219 700
l97 200h182l-180 -200h-99z" />
    <glyph glyph-name="ecircumflex" unicode="&#xea;" 
d="M549 135q-25 -78 -76.5 -111.5t-154.5 -33.5q-108 0 -172.5 55.5t-64.5 159.5v191q0 103 63.5 158.5t168.5 55.5q106 0 168 -57t62 -166v-114h-322v-73q0 -57 23.5 -84t76.5 -27q46 0 71 18t38 62zM221 403v-46h182v39q0 63 -21 90t-70 27t-70 -26t-21 -84zM156 700
l-49 68l154 152h106l156 -152l-48 -67l-161 109z" />
    <glyph glyph-name="edieresis" unicode="&#xeb;" 
d="M549 135q-25 -78 -76.5 -111.5t-154.5 -33.5q-108 0 -172.5 55.5t-64.5 159.5v191q0 103 63.5 158.5t168.5 55.5q106 0 168 -57t62 -166v-114h-322v-73q0 -57 23.5 -84t76.5 -27q46 0 71 18t38 62zM221 403v-46h182v39q0 63 -21 90t-70 27t-70 -26t-21 -84zM210 703
q-32 0 -52.5 13.5t-20.5 50.5v10q0 37 20.5 51.5t52.5 14.5q33 0 53 -14.5t20 -51.5v-10q0 -37 -20.5 -50.5t-52.5 -13.5zM420 703q-33 0 -53 13.5t-20 50.5v10q0 37 20 51.5t53 14.5q32 0 52.5 -14.5t20.5 -51.5v-10q0 -37 -21 -50.5t-52 -13.5z" />
    <glyph glyph-name="emacron" unicode="&#x113;" 
d="M549 135q-25 -78 -76.5 -111.5t-154.5 -33.5q-108 0 -172.5 55.5t-64.5 159.5v191q0 103 63.5 158.5t168.5 55.5q106 0 168 -57t62 -166v-114h-322v-73q0 -57 23.5 -84t76.5 -27q46 0 71 18t38 62zM221 403v-46h182v39q0 63 -21 90t-70 27t-70 -26t-21 -84zM134 745v110
h362v-110h-362z" />
    <glyph glyph-name="ebreve" unicode="&#x115;" 
d="M549 135q-25 -78 -76.5 -111.5t-154.5 -33.5q-108 0 -172.5 55.5t-64.5 159.5v191q0 103 63.5 158.5t168.5 55.5q106 0 168 -57t62 -166v-114h-322v-73q0 -57 23.5 -84t76.5 -27q46 0 71 18t38 62zM221 403v-46h182v39q0 63 -21 90t-70 27t-70 -26t-21 -84zM309 693
q-104 0 -158.5 53.5t-55.5 166.5h118q1 -71 23 -99t73 -28t73 28t23 99h118q-1 -113 -55.5 -166.5t-158.5 -53.5z" />
    <glyph glyph-name="edotaccent" unicode="&#x117;" 
d="M549 135q-25 -78 -76.5 -111.5t-154.5 -33.5q-108 0 -172.5 55.5t-64.5 159.5v191q0 103 63.5 158.5t168.5 55.5q106 0 168 -57t62 -166v-114h-322v-73q0 -57 23.5 -84t76.5 -27q46 0 71 18t38 62zM221 403v-46h182v39q0 63 -21 90t-70 27t-70 -26t-21 -84zM315 703
q-43 0 -69.5 13.5t-26.5 50.5v10q0 37 26.5 51.5t69.5 14.5t69.5 -14.5t26.5 -51.5v-10q0 -37 -27 -50.5t-69 -13.5z" />
    <glyph glyph-name="eogonek" unicode="&#x119;" 
d="M429 -218q-66 0 -104.5 32t-38.5 90q0 52 37.5 93.5t87.5 59.5l22 -34q-26 -19 -35 -41.5t-9 -44.5q0 -27 15.5 -40.5t46.5 -13.5q15 0 35.5 3t42.5 7v-100q-25 -5 -51.5 -8t-48.5 -3zM549 135q-25 -78 -76.5 -111.5t-154.5 -33.5q-108 0 -172.5 55.5t-64.5 159.5v191
q0 103 63.5 158.5t168.5 55.5q106 0 168 -57t62 -166v-114h-322v-73q0 -57 23.5 -84t76.5 -27q46 0 71 18t38 62zM221 403v-46h182v39q0 63 -21 90t-70 27t-70 -26t-21 -84z" />
    <glyph glyph-name="ecaron" unicode="&#x11b;" 
d="M549 135q-25 -78 -76.5 -111.5t-154.5 -33.5q-108 0 -172.5 55.5t-64.5 159.5v191q0 103 63.5 158.5t168.5 55.5q106 0 168 -57t62 -166v-114h-322v-73q0 -57 23.5 -84t76.5 -27q46 0 71 18t38 62zM221 403v-46h182v39q0 63 -21 90t-70 27t-70 -26t-21 -84zM263 704
l-156 152l48 68l161 -109l158 109l49 -68l-154 -152h-106z" />
    <glyph glyph-name="f" unicode="f" 
d="M212 0v493h-137v107h137v37q0 85 57 134t148 49q39 0 74 -7.5t63 -19.5l-17 -99q-28 11 -54 16.5t-51 5.5q-37 0 -58.5 -20t-21.5 -65v-31h191v-107h-191v-493h-140z" />
    <glyph glyph-name="g" 
d="M574 -41q0 -81 -51.5 -125t-135.5 -44h-148q-92 0 -140.5 37.5t-48.5 106.5q0 49 25 78.5t64 34.5v20q-30 8 -50.5 31t-20.5 71t30 82.5t79 40.5v18q-43 15 -63.5 47t-20.5 67v18q0 72 55 115t145 43h274v-97l-134 22v-20q31 -10 50.5 -39.5t19.5 -62.5v-18
q0 -71 -54 -112.5t-146 -41.5h-76q-26 0 -40.5 -12.5t-14.5 -42.5q0 -29 16 -42.5t45 -13.5h161q81 0 130.5 -38.5t49.5 -122.5zM298 312q40 0 58 20.5t18 60.5v38q0 40 -18.5 59.5t-57.5 19.5t-57.5 -19.5t-18.5 -59.5v-38q0 -40 18 -60.5t58 -20.5zM250 -120h139
q31 0 50.5 14.5t19.5 53.5q0 37 -19 51t-48 14h-208v-60q0 -36 15 -54.5t51 -18.5z" />
    <glyph glyph-name="gcircumflex" 
d="M574 -41q0 -81 -51.5 -125t-135.5 -44h-148q-92 0 -140.5 37.5t-48.5 106.5q0 49 25 78.5t64 34.5v20q-30 8 -50.5 31t-20.5 71t30 82.5t79 40.5v18q-43 15 -63.5 47t-20.5 67v18q0 72 55 115t145 43h274v-97l-134 22v-20q31 -10 50.5 -39.5t19.5 -62.5v-18
q0 -71 -54 -112.5t-146 -41.5h-76q-26 0 -40.5 -12.5t-14.5 -42.5q0 -29 16 -42.5t45 -13.5h161q81 0 130.5 -38.5t49.5 -122.5zM298 312q40 0 58 20.5t18 60.5v38q0 40 -18.5 59.5t-57.5 19.5t-57.5 -19.5t-18.5 -59.5v-38q0 -40 18 -60.5t58 -20.5zM250 -120h139
q31 0 50.5 14.5t19.5 53.5q0 37 -19 51t-48 14h-208v-60q0 -36 15 -54.5t51 -18.5zM156 700l-49 68l154 152h106l156 -152l-48 -67l-161 109z" />
    <glyph glyph-name="gbreve" 
d="M574 -41q0 -81 -51.5 -125t-135.5 -44h-148q-92 0 -140.5 37.5t-48.5 106.5q0 49 25 78.5t64 34.5v20q-30 8 -50.5 31t-20.5 71t30 82.5t79 40.5v18q-43 15 -63.5 47t-20.5 67v18q0 72 55 115t145 43h274v-97l-134 22v-20q31 -10 50.5 -39.5t19.5 -62.5v-18
q0 -71 -54 -112.5t-146 -41.5h-76q-26 0 -40.5 -12.5t-14.5 -42.5q0 -29 16 -42.5t45 -13.5h161q81 0 130.5 -38.5t49.5 -122.5zM298 312q40 0 58 20.5t18 60.5v38q0 40 -18.5 59.5t-57.5 19.5t-57.5 -19.5t-18.5 -59.5v-38q0 -40 18 -60.5t58 -20.5zM250 -120h139
q31 0 50.5 14.5t19.5 53.5q0 37 -19 51t-48 14h-208v-60q0 -36 15 -54.5t51 -18.5zM312 693q-104 0 -158.5 53.5t-55.5 166.5h118q1 -71 23 -99t73 -28t73 28t23 99h118q-1 -113 -55.5 -166.5t-158.5 -53.5z" />
    <glyph glyph-name="gdotaccent" 
d="M574 -41q0 -81 -51.5 -125t-135.5 -44h-148q-92 0 -140.5 37.5t-48.5 106.5q0 49 25 78.5t64 34.5v20q-30 8 -50.5 31t-20.5 71t30 82.5t79 40.5v18q-43 15 -63.5 47t-20.5 67v18q0 72 55 115t145 43h274v-97l-134 22v-20q31 -10 50.5 -39.5t19.5 -62.5v-18
q0 -71 -54 -112.5t-146 -41.5h-76q-26 0 -40.5 -12.5t-14.5 -42.5q0 -29 16 -42.5t45 -13.5h161q81 0 130.5 -38.5t49.5 -122.5zM298 312q40 0 58 20.5t18 60.5v38q0 40 -18.5 59.5t-57.5 19.5t-57.5 -19.5t-18.5 -59.5v-38q0 -40 18 -60.5t58 -20.5zM250 -120h139
q31 0 50.5 14.5t19.5 53.5q0 37 -19 51t-48 14h-208v-60q0 -36 15 -54.5t51 -18.5zM312 703q-43 0 -69.5 13.5t-26.5 50.5v10q0 37 26.5 51.5t69.5 14.5t69.5 -14.5t26.5 -51.5v-10q0 -37 -27 -50.5t-69 -13.5z" />
    <glyph glyph-name="gcommaaccent" 
d="M574 -41q0 -81 -51.5 -125t-135.5 -44h-148q-92 0 -140.5 37.5t-48.5 106.5q0 49 25 78.5t64 34.5v20q-30 8 -50.5 31t-20.5 71t30 82.5t79 40.5v18q-43 15 -63.5 47t-20.5 67v18q0 72 55 115t145 43h274v-97l-134 22v-20q31 -10 50.5 -39.5t19.5 -62.5v-18
q0 -71 -54 -112.5t-146 -41.5h-76q-26 0 -40.5 -12.5t-14.5 -42.5q0 -29 16 -42.5t45 -13.5h161q81 0 130.5 -38.5t49.5 -122.5zM298 312q40 0 58 20.5t18 60.5v38q0 40 -18.5 59.5t-57.5 19.5t-57.5 -19.5t-18.5 -59.5v-38q0 -40 18 -60.5t58 -20.5zM250 -120h139
q31 0 50.5 14.5t19.5 53.5q0 37 -19 51t-48 14h-208v-60q0 -36 15 -54.5t51 -18.5zM211 700l146 200h99l-63 -200h-182z" />
    <glyph glyph-name="h" unicode="h" 
d="M81 0v800h140v-290h25q17 46 56.5 73t91.5 27q69 0 109 -49.5t40 -133.5v-427h-140v399q0 47 -17.5 72t-50.5 25q-32 0 -61 -21t-53 -60v-415h-140z" />
    <glyph glyph-name="hcircumflex" unicode="&#x125;" 
d="M81 0v800h140v-290h25q17 46 56.5 73t91.5 27q69 0 109 -49.5t40 -133.5v-427h-140v399q0 47 -17.5 72t-50.5 25q-32 0 -61 -21t-53 -60v-415h-140zM-11 900l-49 68l154 152h106l156 -152l-48 -67l-161 109z" />
    <glyph glyph-name="i" 
d="M86 0v107h156v386h-156v107h296v-493h156v-107h-452zM318 703q-43 0 -69.5 13.5t-26.5 50.5v10q0 37 26.5 51.5t69.5 14.5t69.5 -14.5t26.5 -51.5v-10q0 -37 -27 -50.5t-69 -13.5z" />
    <glyph glyph-name="igrave" 
d="M86 0v107h156v386h-156v107h296v-493h156v-107h-452zM313 700l-179 200h182l96 -200h-99z" />
    <glyph glyph-name="iacute" 
d="M86 0v107h156v386h-156v107h296v-493h156v-107h-452zM205 700l97 200h182l-180 -200h-99z" />
    <glyph glyph-name="icircumflex" 
d="M86 0v107h156v386h-156v107h296v-493h156v-107h-452zM153 700l-49 68l154 152h106l156 -152l-48 -67l-161 109z" />
    <glyph glyph-name="idieresis" 
d="M86 0v107h156v386h-156v107h296v-493h156v-107h-452zM207 703q-32 0 -52.5 13.5t-20.5 50.5v10q0 37 20.5 51.5t52.5 14.5q33 0 53 -14.5t20 -51.5v-10q0 -37 -20.5 -50.5t-52.5 -13.5zM417 703q-33 0 -53 13.5t-20 50.5v10q0 37 20 51.5t53 14.5q32 0 52.5 -14.5
t20.5 -51.5v-10q0 -37 -21 -50.5t-52 -13.5z" />
    <glyph glyph-name="itilde" 
d="M86 0v107h156v386h-156v107h296v-493h156v-107h-452zM387 710q-35 0 -56.5 16t-37.5 38l-24.5 36.5t-27.5 16.5t-26 -17.5t-9 -63.5v-16h-93v15q0 80 33.5 131t93.5 51q34 0 55.5 -15.5t37.5 -38.5l24.5 -37t25.5 -17q16 0 26 18t10 64v16h93v-15q0 -81 -33 -131.5
t-92 -50.5z" />
    <glyph glyph-name="imacron" 
d="M86 0v107h156v386h-156v107h296v-493h156v-107h-452zM131 745v110h362v-110h-362z" />
    <glyph glyph-name="ibreve" 
d="M86 0v107h156v386h-156v107h296v-493h156v-107h-452zM312 693q-104 0 -158.5 53.5t-55.5 166.5h118q1 -71 23 -99t73 -28t73 28t23 99h118q-1 -113 -55.5 -166.5t-158.5 -53.5z" />
    <glyph glyph-name="iogonek" 
d="M318 703q-43 0 -69.5 13.5t-26.5 50.5v10q0 37 26.5 51.5t69.5 14.5t69.5 -14.5t26.5 -51.5v-10q0 -37 -27 -50.5t-69 -13.5zM86 0v107h156v386h-156v107h296v-493h156v-107h-452zM371 -218q-66 0 -104.5 32t-38.5 90q0 52 37.5 93.5t87.5 59.5l22 -34q-26 -19 -35 -41.5
t-9 -44.5q0 -27 15.5 -40.5t46.5 -13.5q15 0 35.5 3t42.5 7v-100q-25 -5 -51.5 -8t-48.5 -3z" />
    <glyph glyph-name="j" unicode="j" 
d="M224 -209q-37 0 -74 4.5t-74 17.5l16 107q33 -13 62 -17t54 -4q52 0 82 25.5t30 85.5v483h-216v107h356v-605q0 -98 -66 -151t-170 -53zM383 703q-43 0 -69.5 13.5t-26.5 50.5v10q0 37 26.5 51.5t69.5 14.5t69.5 -14.5t26.5 -51.5v-10q0 -37 -27 -50.5t-69 -13.5z" />
    <glyph glyph-name="jcircumflex" unicode="&#x135;" 
d="M224 -209q-37 0 -74 4.5t-74 17.5l16 107q33 -13 62 -17t54 -4q52 0 82 25.5t30 85.5v483h-216v107h356v-605q0 -98 -66 -151t-170 -53zM202 700l-49 68l154 152h106l156 -152l-48 -67l-161 109z" />
    <glyph glyph-name="k" unicode="k" 
d="M240 263v-263h-140v800h140v-437h35l138 237h149l-174 -275l171 -325h-151l-133 263h-35z" />
    <glyph glyph-name="kcommaaccent" unicode="&#x137;" 
d="M240 263v-263h-140v800h140v-437h35l138 237h149l-174 -275l171 -325h-151l-133 263h-35zM194 -300l63 200h182l-146 -200h-99z" />
    <glyph glyph-name="l" 
d="M92 0v107h161v586h-161v107h302v-693h155v-107h-457z" />
    <glyph glyph-name="lacute" 
d="M92 0v107h161v586h-161v107h302v-693h155v-107h-457zM206 900l97 200h182l-180 -200h-99z" />
    <glyph glyph-name="lcommaaccent" 
d="M92 0v107h161v586h-161v107h302v-693h155v-107h-457zM168 -300l63 200h182l-146 -200h-99z" />
    <glyph glyph-name="lcaron" 
d="M92 0v107h161v586h-161v107h302v-693h155v-107h-457zM462 705l51 295h180l-148 -295h-83z" />
    <glyph glyph-name="m" unicode="m" 
d="M168 438v-438h-116v600h115v-77h23q14 43 38 64t55 21t51.5 -21t28.5 -64h22q14 43 39 64t60 21q43 0 65.5 -36.5t22.5 -105.5v-466h-116v447q0 32 -7 49t-21 17q-15 0 -30.5 -20.5t-29.5 -54.5v-438h-112v447q0 33 -6.5 49.5t-21.5 16.5t-30 -19.5t-30 -55.5z" />
    <glyph glyph-name="n" unicode="n" 
d="M81 0v600h140v-90h25q19 47 59 73.5t91 26.5q69 0 108 -48.5t39 -134.5v-427h-140v401q0 46 -17.5 70.5t-50.5 24.5q-32 0 -61.5 -20t-52.5 -58v-418h-140z" />
    <glyph glyph-name="ntilde" unicode="&#xf1;" 
d="M81 0v600h140v-90h25q19 47 59 73.5t91 26.5q69 0 108 -48.5t39 -134.5v-427h-140v401q0 46 -17.5 70.5t-50.5 24.5q-32 0 -61.5 -20t-52.5 -58v-418h-140zM404 710q-35 0 -56.5 16t-37.5 38l-24.5 36.5t-27.5 16.5t-26 -17.5t-9 -63.5v-16h-93v15q0 80 33.5 131t93.5 51
q34 0 55.5 -15.5t37.5 -38.5l24.5 -37t25.5 -17q16 0 26 18t10 64v16h93v-15q0 -81 -33 -131.5t-92 -50.5z" />
    <glyph glyph-name="nacute" unicode="&#x144;" 
d="M81 0v600h140v-90h25q19 47 59 73.5t91 26.5q69 0 108 -48.5t39 -134.5v-427h-140v401q0 46 -17.5 70.5t-50.5 24.5q-32 0 -61.5 -20t-52.5 -58v-418h-140zM222 700l97 200h182l-180 -200h-99z" />
    <glyph glyph-name="ncommaaccent" unicode="&#x146;" 
d="M183 -300l63 200h182l-146 -200h-99zM81 0v600h140v-90h25q19 47 59 73.5t91 26.5q69 0 108 -48.5t39 -134.5v-427h-140v401q0 46 -17.5 70.5t-50.5 24.5q-32 0 -61.5 -20t-52.5 -58v-418h-140z" />
    <glyph glyph-name="ncaron" unicode="&#x148;" 
d="M81 0v600h140v-90h25q19 47 59 73.5t91 26.5q69 0 108 -48.5t39 -134.5v-427h-140v401q0 46 -17.5 70.5t-50.5 24.5q-32 0 -61.5 -20t-52.5 -58v-418h-140zM277 704l-156 152l48 68l161 -109l158 109l49 -68l-154 -152h-106z" />
    <glyph glyph-name="o" unicode="o" 
d="M314 -10q-110 0 -171 56.5t-61 157.5v188q0 103 61.5 160.5t170.5 57.5q108 0 169.5 -58t61.5 -161v-189q0 -100 -61.5 -156t-169.5 -56zM314 97q47 0 69 26t22 84v182q0 60 -22 87t-69 27t-69.5 -27t-22.5 -86v-181q0 -59 22.5 -85.5t69.5 -26.5z" />
    <glyph glyph-name="ograve" unicode="&#xf2;" 
d="M314 -10q-110 0 -171 56.5t-61 157.5v188q0 103 61.5 160.5t170.5 57.5q108 0 169.5 -58t61.5 -161v-189q0 -100 -61.5 -156t-169.5 -56zM314 97q47 0 69 26t22 84v182q0 60 -22 87t-69 27t-69.5 -27t-22.5 -86v-181q0 -59 22.5 -85.5t69.5 -26.5zM301 700l-179 200h182
l96 -200h-99z" />
    <glyph glyph-name="oacute" unicode="&#xf3;" 
d="M314 -10q-110 0 -171 56.5t-61 157.5v188q0 103 61.5 160.5t170.5 57.5q108 0 169.5 -58t61.5 -161v-189q0 -100 -61.5 -156t-169.5 -56zM314 97q47 0 69 26t22 84v182q0 60 -22 87t-69 27t-69.5 -27t-22.5 -86v-181q0 -59 22.5 -85.5t69.5 -26.5zM205 700l97 200h182
l-180 -200h-99z" />
    <glyph glyph-name="ocircumflex" unicode="&#xf4;" 
d="M314 -10q-110 0 -171 56.5t-61 157.5v188q0 103 61.5 160.5t170.5 57.5q108 0 169.5 -58t61.5 -161v-189q0 -100 -61.5 -156t-169.5 -56zM314 97q47 0 69 26t22 84v182q0 60 -22 87t-69 27t-69.5 -27t-22.5 -86v-181q0 -59 22.5 -85.5t69.5 -26.5zM153 700l-49 68
l154 152h106l156 -152l-48 -67l-161 109z" />
    <glyph glyph-name="otilde" unicode="&#xf5;" 
d="M314 -10q-110 0 -171 56.5t-61 157.5v188q0 103 61.5 160.5t170.5 57.5q108 0 169.5 -58t61.5 -161v-189q0 -100 -61.5 -156t-169.5 -56zM314 97q47 0 69 26t22 84v182q0 60 -22 87t-69 27t-69.5 -27t-22.5 -86v-181q0 -59 22.5 -85.5t69.5 -26.5zM387 710
q-35 0 -56.5 16t-37.5 38l-24.5 36.5t-27.5 16.5t-26 -17.5t-9 -63.5v-16h-93v15q0 80 33.5 131t93.5 51q34 0 55.5 -15.5t37.5 -38.5l24.5 -37t25.5 -17q16 0 26 18t10 64v16h93v-15q0 -81 -33 -131.5t-92 -50.5z" />
    <glyph glyph-name="odieresis" unicode="&#xf6;" 
d="M314 -10q-110 0 -171 56.5t-61 157.5v188q0 103 61.5 160.5t170.5 57.5q108 0 169.5 -58t61.5 -161v-189q0 -100 -61.5 -156t-169.5 -56zM314 97q47 0 69 26t22 84v182q0 60 -22 87t-69 27t-69.5 -27t-22.5 -86v-181q0 -59 22.5 -85.5t69.5 -26.5zM207 703
q-32 0 -52.5 13.5t-20.5 50.5v10q0 37 20.5 51.5t52.5 14.5q33 0 53 -14.5t20 -51.5v-10q0 -37 -20.5 -50.5t-52.5 -13.5zM417 703q-33 0 -53 13.5t-20 50.5v10q0 37 20 51.5t53 14.5q32 0 52.5 -14.5t20.5 -51.5v-10q0 -37 -21 -50.5t-52 -13.5z" />
    <glyph glyph-name="omacron" unicode="&#x14d;" 
d="M314 -10q-110 0 -171 56.5t-61 157.5v188q0 103 61.5 160.5t170.5 57.5q108 0 169.5 -58t61.5 -161v-189q0 -100 -61.5 -156t-169.5 -56zM314 97q47 0 69 26t22 84v182q0 60 -22 87t-69 27t-69.5 -27t-22.5 -86v-181q0 -59 22.5 -85.5t69.5 -26.5zM131 745v110h362v-110
h-362z" />
    <glyph glyph-name="obreve" unicode="&#x14f;" 
d="M314 -10q-110 0 -171 56.5t-61 157.5v188q0 103 61.5 160.5t170.5 57.5q108 0 169.5 -58t61.5 -161v-189q0 -100 -61.5 -156t-169.5 -56zM314 97q47 0 69 26t22 84v182q0 60 -22 87t-69 27t-69.5 -27t-22.5 -86v-181q0 -59 22.5 -85.5t69.5 -26.5zM318 693
q-104 0 -158.5 53.5t-55.5 166.5h118q1 -71 23 -99t73 -28t73 28t23 99h118q-1 -113 -55.5 -166.5t-158.5 -53.5z" />
    <glyph glyph-name="ohungarumlaut" unicode="&#x151;" 
d="M314 -10q-110 0 -171 56.5t-61 157.5v188q0 103 61.5 160.5t170.5 57.5q108 0 169.5 -58t61.5 -161v-189q0 -100 -61.5 -156t-169.5 -56zM314 97q47 0 69 26t22 84v182q0 60 -22 87t-69 27t-69.5 -27t-22.5 -86v-181q0 -59 22.5 -85.5t69.5 -26.5zM353 700l41 200h145
l-110 -200h-76zM161 700l41 200h145l-110 -200h-76z" />
    <glyph glyph-name="p" unicode="p" 
d="M313 97q46 0 68 26.5t22 83.5v192q0 50 -18.5 73.5t-53.5 23.5q-30 0 -57.5 -18t-52.5 -55v-292q23 -17 45 -25.5t47 -8.5zM334 -9q-29 0 -58.5 7t-54.5 20v-218h-140v800h140v-90h25q16 47 54.5 73.5t91.5 26.5q72 0 111.5 -52.5t39.5 -145.5v-206q0 -99 -56 -157
t-153 -58z" />
    <glyph glyph-name="q" unicode="q" 
d="M403 -200v290h-25q-17 -46 -55.5 -73t-90.5 -27q-72 0 -111.5 55.5t-39.5 149.5v199q0 103 62.5 159t174.5 56q57 0 119.5 -15t105.5 -43v-751h-140zM293 104q30 0 57.5 18t52.5 55v299q-19 13 -41 20t-50 7q-44 0 -67.5 -26.5t-23.5 -83.5v-178q0 -57 18.5 -84t53.5 -27
z" />
    <glyph glyph-name="r" unicode="r" 
d="M105 0v600h141v-100h25q17 57 56 83.5t92 26.5q63 0 97.5 -43.5t34.5 -123.5v-100h-128v57q0 51 -15.5 73.5t-52.5 22.5q-32 0 -61 -20t-48 -63v-413h-141z" />
    <glyph glyph-name="racute" unicode="&#x155;" 
d="M105 0v600h141v-100h25q17 57 56 83.5t92 26.5q63 0 97.5 -43.5t34.5 -123.5v-100h-128v57q0 51 -15.5 73.5t-52.5 22.5q-32 0 -61 -20t-48 -63v-413h-141zM230 700l97 200h182l-180 -200h-99z" />
    <glyph glyph-name="rcommaaccent" unicode="&#x157;" 
d="M105 0v600h141v-100h25q17 57 56 83.5t92 26.5q63 0 97.5 -43.5t34.5 -123.5v-100h-128v57q0 51 -15.5 73.5t-52.5 22.5q-32 0 -61 -20t-48 -63v-413h-141zM52 -300l63 200h182l-146 -200h-99z" />
    <glyph glyph-name="rcaron" unicode="&#x159;" 
d="M105 0v600h141v-100h25q17 57 56 83.5t92 26.5q63 0 97.5 -43.5t34.5 -123.5v-100h-128v57q0 51 -15.5 73.5t-52.5 22.5q-32 0 -61 -20t-48 -63v-413h-141zM285 704l-156 152l48 68l161 -109l158 109l49 -68l-154 -152h-106z" />
    <glyph glyph-name="s" unicode="s" 
d="M310 -9q-66 0 -129 20t-108 53l37 93q45 -29 98.5 -47.5t101.5 -18.5q46 0 72 16t26 53q0 39 -24.5 55t-96.5 34q-104 25 -151 64.5t-47 116.5q0 84 59 132t155 48q60 0 117 -19t100 -50l-32 -91q-42 26 -87.5 43t-88.5 17q-39 0 -61 -15.5t-22 -50.5q0 -37 28 -53
t109 -38q98 -23 140 -64t42 -116q0 -84 -64.5 -133t-173.5 -49z" />
    <glyph glyph-name="sacute" unicode="&#x15b;" 
d="M310 -9q-66 0 -129 20t-108 53l37 93q45 -29 98.5 -47.5t101.5 -18.5q46 0 72 16t26 53q0 39 -24.5 55t-96.5 34q-104 25 -151 64.5t-47 116.5q0 84 59 132t155 48q60 0 117 -19t100 -50l-32 -91q-42 26 -87.5 43t-88.5 17q-39 0 -61 -15.5t-22 -50.5q0 -37 28 -53
t109 -38q98 -23 140 -64t42 -116q0 -84 -64.5 -133t-173.5 -49zM209 700l97 200h182l-180 -200h-99z" />
    <glyph glyph-name="scircumflex" unicode="&#x15d;" 
d="M310 -9q-66 0 -129 20t-108 53l37 93q45 -29 98.5 -47.5t101.5 -18.5q46 0 72 16t26 53q0 39 -24.5 55t-96.5 34q-104 25 -151 64.5t-47 116.5q0 84 59 132t155 48q60 0 117 -19t100 -50l-32 -91q-42 26 -87.5 43t-88.5 17q-39 0 -61 -15.5t-22 -50.5q0 -37 28 -53
t109 -38q98 -23 140 -64t42 -116q0 -84 -64.5 -133t-173.5 -49zM151 700l-49 68l154 152h106l156 -152l-48 -67l-161 109z" />
    <glyph glyph-name="scedilla" unicode="&#x15f;" 
d="M310 -9q-66 0 -129 20t-108 53l37 93q45 -29 98.5 -47.5t101.5 -18.5q46 0 72 16t26 53q0 39 -24.5 55t-96.5 34q-104 25 -151 64.5t-47 116.5q0 84 59 132t155 48q60 0 117 -19t100 -50l-32 -91q-42 26 -87.5 43t-88.5 17q-39 0 -61 -15.5t-22 -50.5q0 -37 28 -53
t109 -38q98 -23 140 -64t42 -116q0 -84 -64.5 -133t-173.5 -49zM280 0l16 42q68 -9 106 -40.5t38 -91.5q0 -66 -47 -97.5t-115 -31.5q-74 0 -118.5 28t-48.5 88l119 10q1 -19 10.5 -26.5t31.5 -7.5q24 0 35.5 11.5t11.5 45.5q0 32 -8.5 47t-30.5 23z" />
    <glyph glyph-name="scaron" unicode="&#x161;" 
d="M310 -9q-66 0 -129 20t-108 53l37 93q45 -29 98.5 -47.5t101.5 -18.5q46 0 72 16t26 53q0 39 -24.5 55t-96.5 34q-104 25 -151 64.5t-47 116.5q0 84 59 132t155 48q60 0 117 -19t100 -50l-32 -91q-42 26 -87.5 43t-88.5 17q-39 0 -61 -15.5t-22 -50.5q0 -37 28 -53
t109 -38q98 -23 140 -64t42 -116q0 -84 -64.5 -133t-173.5 -49zM258 704l-156 152l48 68l161 -109l158 109l49 -68l-154 -152h-106z" />
    <glyph glyph-name="scommaaccent" unicode="&#x219;" 
d="M310 -9q-66 0 -129 20t-108 53l37 93q45 -29 98.5 -47.5t101.5 -18.5q46 0 72 16t26 53q0 39 -24.5 55t-96.5 34q-104 25 -151 64.5t-47 116.5q0 84 59 132t155 48q60 0 117 -19t100 -50l-32 -91q-42 26 -87.5 43t-88.5 17q-39 0 -61 -15.5t-22 -50.5q0 -37 28 -53
t109 -38q98 -23 140 -64t42 -116q0 -84 -64.5 -133t-173.5 -49zM172 -300l63 200h182l-146 -200h-99z" />
    <glyph glyph-name="t" unicode="t" 
d="M405 -10q-98 0 -152 53t-54 148v302h-125v107h125v200h140v-200h194v-107h-194v-289q0 -51 21.5 -77t62.5 -26q28 0 54 6t47 14l17 -107q-21 -10 -58 -17t-78 -7z" />
    <glyph glyph-name="tcedilla" unicode="&#x163;" 
d="M405 -10q-98 0 -152 53t-54 148v302h-125v107h125v200h140v-200h194v-107h-194v-289q0 -51 21.5 -77t62.5 -26q28 0 54 6t47 14l17 -107q-21 -10 -58 -17t-78 -7zM329 0l16 42q68 -9 106 -40.5t38 -91.5q0 -66 -47 -97.5t-115 -31.5q-74 0 -118.5 28t-48.5 88l119 10
q1 -19 10.5 -26.5t31.5 -7.5q24 0 35.5 11.5t11.5 45.5q0 32 -8.5 47t-30.5 23z" />
    <glyph glyph-name="tcaron" unicode="&#x165;" 
d="M405 -10q-98 0 -152 53t-54 148v302h-125v107h125v200h140v-200h194v-107h-194v-289q0 -51 21.5 -77t62.5 -26q28 0 54 6t47 14l17 -107q-21 -10 -58 -17t-78 -7zM418 705l51 295h180l-148 -295h-83z" />
    <glyph glyph-name="tcommaaccent" unicode="&#x21b;" 
d="M405 -10q-98 0 -152 53t-54 148v302h-125v107h125v200h140v-200h194v-107h-194v-289q0 -51 21.5 -77t62.5 -26q28 0 54 6t47 14l17 -107q-21 -10 -58 -17t-78 -7zM200 -300l63 200h182l-146 -200h-99z" />
    <glyph glyph-name="u" unicode="u" 
d="M227 -10q-65 0 -105.5 49.5t-40.5 133.5v427h140v-394q0 -51 16.5 -76.5t50.5 -25.5q31 0 60.5 21.5t54.5 63.5v411h140v-600h-140v90h-25q-16 -47 -58 -73.5t-93 -26.5z" />
    <glyph glyph-name="ugrave" unicode="&#xf9;" 
d="M227 -10q-65 0 -105.5 49.5t-40.5 133.5v427h140v-394q0 -51 16.5 -76.5t50.5 -25.5q31 0 60.5 21.5t54.5 63.5v411h140v-600h-140v90h-25q-16 -47 -58 -73.5t-93 -26.5zM299 700l-179 200h182l96 -200h-99z" />
    <glyph glyph-name="uacute" unicode="&#xfa;" 
d="M227 -10q-65 0 -105.5 49.5t-40.5 133.5v427h140v-394q0 -51 16.5 -76.5t50.5 -25.5q31 0 60.5 21.5t54.5 63.5v411h140v-600h-140v90h-25q-16 -47 -58 -73.5t-93 -26.5zM244 700l97 200h182l-180 -200h-99z" />
    <glyph glyph-name="ucircumflex" unicode="&#xfb;" 
d="M227 -10q-65 0 -105.5 49.5t-40.5 133.5v427h140v-394q0 -51 16.5 -76.5t50.5 -25.5q31 0 60.5 21.5t54.5 63.5v411h140v-600h-140v90h-25q-16 -47 -58 -73.5t-93 -26.5zM159 700l-49 68l154 152h106l156 -152l-48 -67l-161 109z" />
    <glyph glyph-name="udieresis" unicode="&#xfc;" 
d="M227 -10q-65 0 -105.5 49.5t-40.5 133.5v427h140v-394q0 -51 16.5 -76.5t50.5 -25.5q31 0 60.5 21.5t54.5 63.5v411h140v-600h-140v90h-25q-16 -47 -58 -73.5t-93 -26.5zM213 703q-32 0 -52.5 13.5t-20.5 50.5v10q0 37 20.5 51.5t52.5 14.5q33 0 53 -14.5t20 -51.5v-10
q0 -37 -20.5 -50.5t-52.5 -13.5zM423 703q-33 0 -53 13.5t-20 50.5v10q0 37 20 51.5t53 14.5q32 0 52.5 -14.5t20.5 -51.5v-10q0 -37 -21 -50.5t-52 -13.5z" />
    <glyph glyph-name="utilde" unicode="&#x169;" 
d="M227 -10q-65 0 -105.5 49.5t-40.5 133.5v427h140v-394q0 -51 16.5 -76.5t50.5 -25.5q31 0 60.5 21.5t54.5 63.5v411h140v-600h-140v90h-25q-16 -47 -58 -73.5t-93 -26.5zM387 710q-35 0 -56.5 16t-37.5 38l-24.5 36.5t-27.5 16.5t-26 -17.5t-9 -63.5v-16h-93v15
q0 80 33.5 131t93.5 51q34 0 55.5 -15.5t37.5 -38.5l24.5 -37t25.5 -17q16 0 26 18t10 64v16h93v-15q0 -81 -33 -131.5t-92 -50.5z" />
    <glyph glyph-name="umacron" unicode="&#x16b;" 
d="M227 -10q-65 0 -105.5 49.5t-40.5 133.5v427h140v-394q0 -51 16.5 -76.5t50.5 -25.5q31 0 60.5 21.5t54.5 63.5v411h140v-600h-140v90h-25q-16 -47 -58 -73.5t-93 -26.5zM131 745v110h362v-110h-362z" />
    <glyph glyph-name="ubreve" unicode="&#x16d;" 
d="M227 -10q-65 0 -105.5 49.5t-40.5 133.5v427h140v-394q0 -51 16.5 -76.5t50.5 -25.5q31 0 60.5 21.5t54.5 63.5v411h140v-600h-140v90h-25q-16 -47 -58 -73.5t-93 -26.5zM318 693q-104 0 -158.5 53.5t-55.5 166.5h118q1 -71 23 -99t73 -28t73 28t23 99h118
q-1 -113 -55.5 -166.5t-158.5 -53.5z" />
    <glyph glyph-name="uring" unicode="&#x16f;" 
d="M227 -10q-65 0 -105.5 49.5t-40.5 133.5v427h140v-394q0 -51 16.5 -76.5t50.5 -25.5q31 0 60.5 21.5t54.5 63.5v411h140v-600h-140v90h-25q-16 -47 -58 -73.5t-93 -26.5zM318 682q-72 0 -117 36t-45 112v32q0 77 45 114t117 37q73 0 117.5 -37t44.5 -114v-32
q0 -76 -45 -112t-117 -36zM318 759q31 0 47 16.5t16 54.5v32q0 37 -16 55.5t-47 18.5t-47 -18.5t-16 -55.5v-32q0 -38 16 -54.5t47 -16.5z" />
    <glyph glyph-name="uhungarumlaut" unicode="&#x171;" 
d="M227 -10q-65 0 -105.5 49.5t-40.5 133.5v427h140v-394q0 -51 16.5 -76.5t50.5 -25.5q31 0 60.5 21.5t54.5 63.5v411h140v-600h-140v90h-25q-16 -47 -58 -73.5t-93 -26.5zM359 700l41 200h145l-110 -200h-76zM167 700l41 200h145l-110 -200h-76z" />
    <glyph glyph-name="uogonek" unicode="&#x173;" 
d="M496 -218q-66 0 -104.5 32t-38.5 90q0 52 37.5 93.5t87.5 59.5l22 -34q-26 -19 -35 -41.5t-9 -44.5q0 -27 15.5 -40.5t46.5 -13.5q15 0 35.5 3t42.5 7v-100q-25 -5 -51.5 -8t-48.5 -3zM227 -10q-65 0 -105.5 49.5t-40.5 133.5v427h140v-394q0 -51 16.5 -76.5t50.5 -25.5
q31 0 60.5 21.5t54.5 63.5v411h140v-600h-140v90h-25q-16 -47 -58 -73.5t-93 -26.5z" />
    <glyph glyph-name="v" unicode="v" 
d="M404 0h-184l-155 600h136l113 -482l114 482h130z" />
    <glyph glyph-name="w" unicode="w" 
d="M380 0l-68 337l-64 -337h-130l-82 600h121l47 -439l58 336h96l65 -331l44 434h122l-83 -600h-126z" />
    <glyph glyph-name="wcircumflex" unicode="&#x175;" 
d="M380 0l-68 337l-64 -337h-130l-82 600h121l47 -439l58 336h96l65 -331l44 434h122l-83 -600h-126zM159 700l-49 68l154 152h106l156 -152l-48 -67l-161 109z" />
    <glyph glyph-name="wgrave" unicode="&#x1e81;" 
d="M380 0l-68 337l-64 -337h-130l-82 600h121l47 -439l58 336h96l65 -331l44 434h122l-83 -600h-126zM301 700l-179 200h182l96 -200h-99z" />
    <glyph glyph-name="wacute" unicode="&#x1e83;" 
d="M380 0l-68 337l-64 -337h-130l-82 600h121l47 -439l58 336h96l65 -331l44 434h122l-83 -600h-126zM233 700l97 200h182l-180 -200h-99z" />
    <glyph glyph-name="wdieresis" unicode="&#x1e85;" 
d="M380 0l-68 337l-64 -337h-130l-82 600h121l47 -439l58 336h96l65 -331l44 434h122l-83 -600h-126zM213 703q-32 0 -52.5 13.5t-20.5 50.5v10q0 37 20.5 51.5t52.5 14.5q33 0 53 -14.5t20 -51.5v-10q0 -37 -20.5 -50.5t-52.5 -13.5zM423 703q-33 0 -53 13.5t-20 50.5v10
q0 37 20 51.5t53 14.5q32 0 52.5 -14.5t20.5 -51.5v-10q0 -37 -21 -50.5t-52 -13.5z" />
    <glyph glyph-name="x" unicode="x" 
d="M415 0l-110 192l-100 -192h-142l179 304l-168 296h143l99 -173l92 173h142l-168 -289l177 -311h-144z" />
    <glyph glyph-name="y" unicode="y" 
d="M179 -208q-26 0 -55.5 3t-62.5 8l11 107q30 -7 54 -10t43 -3q49 0 75.5 24.5t41.5 81.5l2 11h-85l-150 586h144l116 -484l118 484h139l-161 -608q-28 -108 -84.5 -154t-145.5 -46z" />
    <glyph glyph-name="yacute" unicode="&#xfd;" 
d="M179 -208q-26 0 -55.5 3t-62.5 8l11 107q30 -7 54 -10t43 -3q49 0 75.5 24.5t41.5 81.5l2 11h-85l-150 586h144l116 -484l118 484h139l-161 -608q-28 -108 -84.5 -154t-145.5 -46zM212 700l97 200h182l-180 -200h-99z" />
    <glyph glyph-name="ydieresis" unicode="&#xff;" 
d="M179 -208q-26 0 -55.5 3t-62.5 8l11 107q30 -7 54 -10t43 -3q49 0 75.5 24.5t41.5 81.5l2 11h-85l-150 586h144l116 -484l118 484h139l-161 -608q-28 -108 -84.5 -154t-145.5 -46zM207 703q-32 0 -52.5 13.5t-20.5 50.5v10q0 37 20.5 51.5t52.5 14.5q33 0 53 -14.5
t20 -51.5v-10q0 -37 -20.5 -50.5t-52.5 -13.5zM417 703q-33 0 -53 13.5t-20 50.5v10q0 37 20 51.5t53 14.5q32 0 52.5 -14.5t20.5 -51.5v-10q0 -37 -21 -50.5t-52 -13.5z" />
    <glyph glyph-name="ycircumflex" unicode="&#x177;" 
d="M179 -208q-26 0 -55.5 3t-62.5 8l11 107q30 -7 54 -10t43 -3q49 0 75.5 24.5t41.5 81.5l2 11h-85l-150 586h144l116 -484l118 484h139l-161 -608q-28 -108 -84.5 -154t-145.5 -46zM153 700l-49 68l154 152h106l156 -152l-48 -67l-161 109z" />
    <glyph glyph-name="ygrave" unicode="&#x1ef3;" 
d="M179 -208q-26 0 -55.5 3t-62.5 8l11 107q30 -7 54 -10t43 -3q49 0 75.5 24.5t41.5 81.5l2 11h-85l-150 586h144l116 -484l118 484h139l-161 -608q-28 -108 -84.5 -154t-145.5 -46zM301 700l-179 200h182l96 -200h-99z" />
    <glyph glyph-name="z" unicode="z" 
d="M533 0h-441v107l291 386h-291v107h441v-107l-282 -386h282v-107z" />
    <glyph glyph-name="zacute" unicode="&#x17a;" 
d="M533 0h-441v107l291 386h-291v107h441v-107l-282 -386h282v-107zM227 700l97 200h182l-180 -200h-99z" />
    <glyph glyph-name="zdotaccent" unicode="&#x17c;" 
d="M533 0h-441v107l291 386h-291v107h441v-107l-282 -386h282v-107zM314 703q-43 0 -69.5 13.5t-26.5 50.5v10q0 37 26.5 51.5t69.5 14.5t69.5 -14.5t26.5 -51.5v-10q0 -37 -27 -50.5t-69 -13.5z" />
    <glyph glyph-name="zcaron" unicode="&#x17e;" 
d="M533 0h-441v107l291 386h-291v107h441v-107l-282 -386h282v-107zM257 704l-156 152l48 68l161 -109l158 109l49 -68l-154 -152h-106z" />
    <glyph glyph-name="ordfeminine" unicode="&#xaa;" 
d="M261 392q28 0 54 11.5t46 39.5v68h-104q-27 0 -41.5 -12.5t-14.5 -47.5q0 -29 14 -44t46 -15zM235 308q-62 0 -105.5 36t-43.5 100q0 67 43 103.5t114 36.5h118v54q0 41 -18 62.5t-55 21.5q-35 0 -54 -15t-31 -64l-107 22q14 74 59.5 109.5t135.5 35.5q88 0 139 -39
t51 -126v-180q0 -42 18.5 -53.5t64.5 -4.5v-91q-63 -10 -101 6.5t-51 70.5h-19q-20 -37 -63.5 -61t-94.5 -24z" />
    <glyph glyph-name="ordmasculine" unicode="&#xba;" 
d="M312 308q-93 0 -147.5 47.5t-54.5 136.5v129q0 91 55 140t148 49q92 0 146.5 -49t54.5 -140v-129q0 -89 -54.5 -136.5t-147.5 -47.5zM312 399q45 0 63.5 23t18.5 75v123q0 49 -18.5 73.5t-63.5 24.5q-44 0 -63.5 -24.5t-19.5 -74.5v-122q0 -52 19.5 -75t63.5 -23z" />
    <glyph glyph-name="germandbls" unicode="&#xdf;" 
d="M405 -6q-47 0 -91.5 19t-75.5 52l38 90q28 -26 58 -45t61 -19t47.5 16.5t16.5 53.5q0 35 -20 53t-72 39q-63 25 -92.5 62t-29.5 99q0 70 37.5 114.5t100.5 54.5q-4 63 -29 90.5t-68 27.5t-69 -31t-26 -100v-570h-135v583q0 113 65 169t163 56q107 0 168 -67.5t61 -172.5
v-57q-73 -1 -109 -21.5t-36 -60.5q0 -34 23.5 -51t74.5 -38q60 -26 88 -64.5t28 -101.5q0 -86 -49.5 -133t-127.5 -47z" />
    <glyph glyph-name="ae" unicode="&#xe6;" 
d="M585 147q-15 -80 -53.5 -118.5t-101.5 -38.5q-43 0 -74.5 20.5t-48.5 62.5h-22q-15 -35 -44 -59t-73 -24q-54 0 -91.5 42.5t-37.5 126.5t40.5 129t106.5 45h81v80q0 49 -13 73.5t-40 24.5q-25 0 -36.5 -18t-25.5 -73l-101 24q16 86 53 126t102 40q38 0 66 -16.5t44 -52.5
q20 35 50.5 52t67.5 17q69 0 110 -51.5t41 -155.5v-130h-211v-98q0 -45 11.5 -69t39.5 -24q25 0 38 17.5t20 61.5zM374 415v-64h107v59q0 57 -12.5 83t-39.5 26t-41 -25t-14 -79zM267 132v123h-53q-28 0 -44 -19t-16 -68q0 -42 11 -64.5t34 -22.5q19 0 35.5 13.5t32.5 37.5z
" />
    <glyph glyph-name="aeacute" unicode="&#x1fd;" 
d="M585 147q-15 -80 -53.5 -118.5t-101.5 -38.5q-43 0 -74.5 20.5t-48.5 62.5h-22q-15 -35 -44 -59t-73 -24q-54 0 -91.5 42.5t-37.5 126.5t40.5 129t106.5 45h81v80q0 49 -13 73.5t-40 24.5q-25 0 -36.5 -18t-25.5 -73l-101 24q16 86 53 126t102 40q38 0 66 -16.5t44 -52.5
q20 35 50.5 52t67.5 17q69 0 110 -51.5t41 -155.5v-130h-211v-98q0 -45 11.5 -69t39.5 -24q25 0 38 17.5t20 61.5zM374 415v-64h107v59q0 57 -12.5 83t-39.5 26t-41 -25t-14 -79zM267 132v123h-53q-28 0 -44 -19t-16 -68q0 -42 11 -64.5t34 -22.5q19 0 35.5 13.5t32.5 37.5z
M270 700l97 200h182l-180 -200h-99z" />
    <glyph glyph-name="eth" unicode="&#xf0;" 
d="M312 -10q-106 0 -171.5 57t-65.5 173v72q0 96 53 152t137 56q53 0 86.5 -22t46.5 -52h18q-4 62 -21.5 108.5t-48.5 80.5l-146 -78v86l81 44q-27 19 -61.5 35t-76.5 29l79 90q55 -18 100 -39.5t80 -49.5l132 71v-86l-73 -40q46 -55 67 -129.5t21 -173.5v-148
q0 -123 -65 -179.5t-172 -56.5zM313 97q52 0 74 29.5t22 88.5v69q0 54 -22 81t-74 27q-53 0 -74.5 -27t-21.5 -81v-69q0 -59 21.5 -88.5t74.5 -29.5z" />
    <glyph glyph-name="oslash" unicode="&#xf8;" 
d="M204 216q0 -24 3 -41.5t10 -30.5l143 355q-10 3 -22 5t-26 2q-57 0 -82.5 -29.5t-25.5 -93.5v-167zM312 94q57 0 82.5 28t25.5 94v168q0 22 -2.5 39.5t-9.5 30.5l-142 -354q10 -3 21.5 -4.5t24.5 -1.5zM312 -10q-19 0 -38.5 2.5t-37.5 6.5l-43 -99h-95l58 134
q-38 26 -59.5 72.5t-21.5 103.5v176q0 108 65 166t173 58q19 0 39 -2.5t38 -6.5l42 99h95l-58 -135q37 -27 58.5 -73.5t21.5 -105.5v-176q0 -107 -64.5 -163.5t-172.5 -56.5z" />
    <glyph glyph-name="oslashacute" unicode="&#x1ff;" 
d="M204 216q0 -24 3 -41.5t10 -30.5l143 355q-10 3 -22 5t-26 2q-57 0 -82.5 -29.5t-25.5 -93.5v-167zM312 94q57 0 82.5 28t25.5 94v168q0 22 -2.5 39.5t-9.5 30.5l-142 -354q10 -3 21.5 -4.5t24.5 -1.5zM312 -10q-19 0 -38.5 2.5t-37.5 6.5l-43 -99h-95l58 134
q-38 26 -59.5 72.5t-21.5 103.5v176q0 108 65 166t173 58q19 0 39 -2.5t38 -6.5l42 99h95l-58 -135q37 -27 58.5 -73.5t21.5 -105.5v-176q0 -107 -64.5 -163.5t-172.5 -56.5zM233 700l97 200h182l-180 -200h-99z" />
    <glyph glyph-name="thorn" unicode="&#xfe;" 
d="M312 97q47 0 69 26t22 84v192q0 51 -18 74t-54 23q-31 0 -58 -17.5t-52 -55.5v-292q23 -18 44.5 -26t46.5 -8zM334 -9q-30 0 -59 7t-54 20v-218h-140v1000h140v-290h25q16 47 54.5 73.5t91.5 26.5q72 0 111.5 -52t39.5 -146v-206q0 -101 -55 -158t-154 -57z" />
    <glyph glyph-name="dcroat" unicode="&#x111;" 
d="M293 104q30 0 57.5 18t52.5 55v238q-22 16 -45.5 23.5t-48.5 7.5q-44 0 -66 -26.5t-22 -83.5v-123q0 -54 18.5 -81.5t53.5 -27.5zM378 90q-16 -46 -54.5 -73t-93.5 -27q-72 0 -110.5 54.5t-38.5 150.5v142q0 102 53.5 158.5t149.5 56.5q34 0 64 -8.5t55 -21.5v98h-144v87
h144v93h140v-93h84v-87h-84v-620h-140v90h-25z" />
    <glyph glyph-name="hbar" unicode="&#x127;" 
d="M221 350v-350h-140v620h-84v87h84v93h140v-93h144v-87h-144v-170h25q18 49 58 76t92 27q69 0 108 -46t39 -126v-381h-140v346q0 46 -16 69.5t-50 23.5q-31 0 -60 -22.5t-56 -66.5z" />
    <glyph glyph-name="dotlessi" 
d="M86 0v107h156v386h-156v107h296v-493h156v-107h-452z" />
    <glyph glyph-name="ij" 
d="M150 703q-40 0 -65 13.5t-25 50.5v10q0 37 25 51.5t65 14.5t64.5 -14.5t24.5 -51.5v-10q0 -37 -25 -50.5t-64 -13.5zM476 703q-40 0 -65 13.5t-25 50.5v10q0 37 25 51.5t65 14.5t65 -14.5t25 -51.5v-10q0 -37 -25 -50.5t-65 -13.5zM219 0h-129v600h129v-600zM344 -209
q-31 0 -62.5 5t-62.5 17l17 107q26 -11 49 -16t44 -5q41 0 65 25.5t24 85.5v483h-108v107h237v-605q0 -103 -59.5 -153.5t-143.5 -50.5z" />
    <glyph glyph-name="kgreenlandic" unicode="&#x138;" 
d="M240 263v-263h-140v600h140v-237h35l138 237h149l-174 -275l171 -325h-151l-133 263h-35z" />
    <glyph glyph-name="ldot" 
d="M92 0v107h161v586h-161v107h302v-693h155v-107h-457zM599 317q-43 0 -69.5 13.5t-26.5 50.5v10q0 37 26.5 51.5t69.5 14.5t69.5 -14.5t26.5 -51.5v-10q0 -37 -27 -50.5t-69 -13.5z" />
    <glyph glyph-name="lslash" 
d="M92 0v107h161v234l-131 -41v93l131 41v259h-161v107h302v-322l91 29v-94l-91 -28v-278h155v-107h-457z" />
    <glyph glyph-name="napostrophe" unicode="&#x149;" 
d="M81 0v600h140v-90h25q19 47 59 73.5t91 26.5q69 0 108 -48.5t39 -134.5v-427h-140v401q0 46 -17.5 70.5t-50.5 24.5q-32 0 -61.5 -20t-52.5 -58v-418h-140zM-4 700l97 200h182l-180 -200h-99z" />
    <glyph glyph-name="eng" unicode="&#x14b;" 
d="M352 -209q-28 0 -56 6t-56 16l17 107q22 -10 42 -15.5t37 -5.5q31 0 49 24t18 80v402q0 45 -17 68t-51 23q-32 0 -61.5 -20t-52.5 -58v-418h-140v600h140v-90h25q20 48 61 74t90 26q68 0 107 -47.5t39 -132.5l1 -441q0 -102 -57.5 -150t-134.5 -48z" />
    <glyph glyph-name="oe" unicode="&#x153;" 
d="M580 140q-12 -81 -48.5 -115.5t-101.5 -34.5q-41 0 -73 17.5t-51 51.5q-18 -34 -46.5 -51.5t-63.5 -17.5q-63 0 -105 51t-42 155v204q0 107 42.5 158.5t105.5 51.5q34 0 62.5 -17.5t45.5 -51.5q19 34 50.5 51.5t69.5 17.5q66 0 108 -47t42 -146v-144h-211v-110
q0 -42 13 -61.5t42 -19.5q28 0 43 14.5t21 57.5zM364 433v-82h98v76q0 46 -11 67.5t-38 21.5q-25 0 -37 -20t-12 -63zM210 91q26 0 37.5 24t11.5 80v210q0 53 -11.5 78.5t-37.5 25.5q-25 0 -36.5 -26t-11.5 -79v-209q0 -56 11.5 -80t36.5 -24z" />
    <glyph glyph-name="tbar" unicode="&#x167;" 
d="M405 -10q-98 0 -152 53t-54 148v79h-104v100h104v123h-125v107h125v200h140v-200h194v-107h-194v-123h174v-100h-174v-66q0 -51 21.5 -77t62.5 -26q28 0 54 6t47 14l17 -107q-21 -10 -58 -17t-78 -7z" />
    <glyph glyph-name="longs" unicode="&#x17f;" 
d="M242 0v493h-100v107h100v37q0 89 56.5 136t140.5 47q28 0 59 -7t59 -18l-17 -98q-24 9 -45 14t-38 5q-35 0 -55 -20.5t-20 -64.5v-631h-140z" />
    <glyph glyph-name="dotlessj" unicode="&#xf6be;" 
d="M224 -209q-37 0 -74 4.5t-74 17.5l16 107q33 -13 62 -17t54 -4q52 0 82 25.5t30 85.5v483h-216v107h356v-605q0 -98 -66 -151t-170 -53z" />
    <glyph glyph-name="dotlessj" unicode="&#x237;" 
d="M224 -209q-37 0 -74 4.5t-74 17.5l16 107q33 -13 62 -17t54 -4q52 0 82 25.5t30 85.5v483h-216v107h356v-605q0 -98 -66 -151t-170 -53z" />
    <glyph glyph-name="alpha" unicode="&#x3b1;" 
d="M280 104q27 0 49.5 16.5t42.5 50.5v259q-21 34 -43.5 50t-49.5 16q-29 0 -44.5 -25t-15.5 -79v-186q0 -52 15.5 -77t45.5 -25zM418 104h-25q-23 -54 -66 -84t-98 -30q-69 0 -110 52t-41 147v216q0 96 39 151t104 55q45 0 77.5 -24t49.5 -70h24v83h141v-429q0 -46 16 -59
t51 -6v-106q-71 -14 -111.5 11.5t-50.5 92.5z" />
    <glyph glyph-name="alphatonos" unicode="&#x3ac;" 
d="M280 104q27 0 49.5 16.5t42.5 50.5v259q-21 34 -43.5 50t-49.5 16q-29 0 -44.5 -25t-15.5 -79v-186q0 -52 15.5 -77t45.5 -25zM418 104h-25q-23 -54 -66 -84t-98 -30q-69 0 -110 52t-41 147v216q0 96 39 151t104 55q45 0 77.5 -24t49.5 -70h24v83h141v-429q0 -46 16 -59
t51 -6v-106q-71 -14 -111.5 11.5t-50.5 92.5zM276 700l46 200h174l-130 -200h-90z" />
    <glyph glyph-name="beta" unicode="&#x3b2;" 
d="M310 99q42 0 67 28t25 94v49q0 59 -24 84t-74 25h-35v94h31q40 0 59 21.5t19 68.5v38q0 52 -19 75t-60 23q-42 0 -60 -26t-18 -84v-458q19 -16 40.5 -24t48.5 -8zM334 -10q-31 0 -59.5 6.5t-53.5 18.5v-215h-140v786q0 109 58 166.5t160 57.5q98 0 158 -49t60 -138v-36
q0 -54 -28.5 -90.5t-90.5 -48.5v-29q70 -7 107.5 -48t37.5 -105v-57q0 -104 -58 -161.5t-151 -57.5z" />
    <glyph glyph-name="gamma" unicode="&#x3b3;" 
d="M396 -200h-168l14 220l-189 580h143l116 -434l117 434h141l-188 -580z" />
    <glyph glyph-name="delta" unicode="&#x3b4;" 
d="M312 -10q-105 0 -168.5 54t-63.5 163v104q0 61 31.5 103.5t90.5 69.5q-52 26 -74.5 59t-22.5 85q0 84 53.5 128t150.5 44h166v-107h-156q-40 0 -60 -13t-20 -49q0 -34 31 -52t103 -45q89 -35 130 -80t41 -132v-115q0 -109 -63.5 -163t-168.5 -54zM312 97q46 0 69 25.5
t23 84.5v115q0 49 -27.5 76t-90.5 49q-30 -17 -48 -47.5t-18 -80.5v-112q0 -59 23 -84.5t69 -25.5z" />
    <glyph glyph-name="epsilon" unicode="&#x3b5;" 
d="M321 -10q-124 0 -185 43t-61 130v13q0 50 32.5 86.5t98.5 41.5v22q-54 4 -85 31.5t-31 76.5v17q0 81 58.5 120t172.5 39q107 0 161.5 -44t61.5 -143l-128 -8q-5 54 -26 76t-69 22q-49 0 -69.5 -16.5t-20.5 -54.5v-14q0 -37 20 -51.5t68 -14.5h47v-87h-47q-61 0 -82 -20
t-21 -65v-10q0 -47 23 -68t82 -21q57 0 80.5 23.5t29.5 81.5l128 -7q-7 -103 -58 -151t-180 -48z" />
    <glyph glyph-name="epsilontonos" unicode="&#x3ad;" 
d="M321 -10q-124 0 -185 43t-61 130v13q0 50 32.5 86.5t98.5 41.5v22q-54 4 -85 31.5t-31 76.5v17q0 81 58.5 120t172.5 39q107 0 161.5 -44t61.5 -143l-128 -8q-5 54 -26 76t-69 22q-49 0 -69.5 -16.5t-20.5 -54.5v-14q0 -37 20 -51.5t68 -14.5h47v-87h-47q-61 0 -82 -20
t-21 -65v-10q0 -47 23 -68t82 -21q57 0 80.5 23.5t29.5 81.5l128 -7q-7 -103 -58 -151t-180 -48zM251 700l46 200h174l-130 -200h-90z" />
    <glyph glyph-name="zeta" unicode="&#x3b6;" 
d="M356 -200h-109v104h110q28 0 45 12t17 49q0 38 -17 51t-45 13h-59q-107 0 -163.5 55t-56.5 151q0 74 27 132.5t79 126.5l101 135l-6 13q-89 -10 -145.5 33.5t-83.5 125.5l86 36q28 -75 83.5 -96t148.5 2l159 82l32 -134l-154 -41l-120 -193q-31 -57 -48.5 -102.5
t-17.5 -94.5q0 -63 23 -95t69 -32h76q73 0 115 -40t42 -125q0 -83 -50.5 -125.5t-137.5 -42.5z" />
    <glyph glyph-name="eta" unicode="&#x3b7;" 
d="M403 -200v605q0 45 -17 68t-51 23q-32 0 -61.5 -20t-52.5 -58v-418h-140v600h140v-90h25q19 46 59.5 73t91.5 27q69 0 107.5 -48t38.5 -132v-630h-140z" />
    <glyph glyph-name="etatonos" unicode="&#x3ae;" 
d="M403 -200v605q0 45 -17 68t-51 23q-32 0 -61.5 -20t-52.5 -58v-418h-140v600h140v-90h25q19 46 59.5 73t91.5 27q69 0 107.5 -48t38.5 -132v-630h-140zM262 700l46 200h174l-130 -200h-90z" />
    <glyph glyph-name="theta" unicode="&#x3b8;" 
d="M312 -10q-108 0 -169.5 59t-61.5 168v362q0 110 62 170.5t170 60.5q107 0 168.5 -60.5t61.5 -170.5v-362q0 -109 -61.5 -168t-169.5 -59zM215 576v-120h194v122q0 63 -22.5 94t-74.5 31q-51 0 -74 -31.5t-23 -95.5zM312 97q52 0 74.5 30t22.5 96v132h-194v-132
q0 -66 23 -96t74 -30z" />
    <glyph glyph-name="iota" unicode="&#x3b9;" 
d="M427 -6q-90 0 -143 53t-53 142v304h-150v107h290v-398q0 -49 20.5 -73t57.5 -24q23 0 44.5 5.5t37.5 14.5l23 -105q-32 -13 -64 -19.5t-63 -6.5z" />
    <glyph glyph-name="iotadieresistonos" unicode="&#x390;" 
d="M427 -6q-90 0 -143 53t-53 142v304h-150v107h290v-398q0 -49 20.5 -73t57.5 -24q23 0 44.5 5.5t37.5 14.5l23 -105q-32 -13 -64 -19.5t-63 -6.5zM236 700l39 200h128l-87 -200h-80zM129 697q-28 0 -46 13.5t-18 49.5v10q0 37 18 51.5t46 14.5q29 0 47 -14.5t18 -51.5v-10
q0 -36 -18.5 -49.5t-46.5 -13.5zM479 697q-29 0 -47 13.5t-18 49.5v10q0 37 18 51.5t47 14.5t46.5 -14.5t17.5 -51.5v-10q0 -36 -18 -49.5t-46 -13.5z" />
    <glyph glyph-name="iotatonos" unicode="&#x3af;" 
d="M427 -6q-90 0 -143 53t-53 142v304h-150v107h290v-398q0 -49 20.5 -73t57.5 -24q23 0 44.5 5.5t37.5 14.5l23 -105q-32 -13 -64 -19.5t-63 -6.5zM240 700l46 200h174l-130 -200h-90z" />
    <glyph glyph-name="iotadieresis" unicode="&#x3ca;" 
d="M427 -6q-90 0 -143 53t-53 142v304h-150v107h290v-398q0 -49 20.5 -73t57.5 -24q23 0 44.5 5.5t37.5 14.5l23 -105q-32 -13 -64 -19.5t-63 -6.5zM203 703q-32 0 -52.5 13.5t-20.5 50.5v10q0 37 20.5 51.5t52.5 14.5q33 0 53 -14.5t20 -51.5v-10q0 -37 -20.5 -50.5
t-52.5 -13.5zM413 703q-33 0 -53 13.5t-20 50.5v10q0 37 20 51.5t53 14.5q32 0 52.5 -14.5t20.5 -51.5v-10q0 -37 -21 -50.5t-52 -13.5z" />
    <glyph glyph-name="kappa" unicode="&#x3ba;" 
d="M240 263v-263h-140v600h140v-237h35l138 237h149l-174 -275l171 -325h-151l-133 263h-35z" />
    <glyph glyph-name="lambda" unicode="&#x3bb;" 
d="M428 0l-120 495l-114 -495h-141l139 569h98l-5 22q-15 59 -41 83.5t-77 24.5q-16 0 -35.5 -2.5t-42.5 -6.5l-16 107q27 4 52.5 6.5t49.5 2.5q92 0 146.5 -40t78.5 -129l170 -637h-142z" />
    <glyph glyph-name="mu" unicode="&#x3bc;" 
d="M227 20l8 -220h-157l8 220v580h141v-400q0 -51 18.5 -72.5t45.5 -21.5t47 15t38 43v436h140v-429q0 -47 14 -59.5t47 -5.5v-106q-61 -13 -95 8t-47 78h-22q-19 -44 -46 -69t-67 -25q-22 0 -41 10t-32 29v-11z" />
    <glyph glyph-name="nu" unicode="&#x3bd;" 
d="M384 0h-145l-186 600h142l133 -473q45 117 70.5 240.5t32.5 232.5h139q-16 -169 -66.5 -320t-119.5 -280z" />
    <glyph glyph-name="xi" unicode="&#x3be;" 
d="M549 -32q0 -83 -51.5 -125.5t-141.5 -42.5h-97v104h98q31 0 49 12t18 49q0 38 -18 51t-49 13h-70q-93 0 -147 49.5t-54 135.5v23q0 60 37 105.5t111 52.5v23q-48 0 -73 29.5t-25 72.5q0 37 22 66.5t70 42.5v23q-77 1 -125.5 40t-72.5 109l80 36q32 -63 85 -84t141 -5
l173 77l25 -134l-182 -44l-28 -22q-25 -22 -36 -46.5t-11 -52.5q0 -37 15.5 -53t39.5 -16h142v-104h-146q-54 0 -77.5 -29t-23.5 -72v-23q0 -43 22.5 -69.5t71.5 -26.5h52q84 0 130 -40t46 -125z" />
    <glyph glyph-name="omicron" unicode="&#x3bf;" 
d="M314 -10q-110 0 -171 56.5t-61 157.5v188q0 103 61.5 160.5t170.5 57.5q108 0 169.5 -58t61.5 -161v-189q0 -100 -61.5 -156t-169.5 -56zM314 97q47 0 69 26t22 84v182q0 60 -22 87t-69 27t-69.5 -27t-22.5 -86v-181q0 -59 22.5 -85.5t69.5 -26.5z" />
    <glyph glyph-name="omicrontonos" unicode="&#x3cc;" 
d="M314 -10q-110 0 -171 56.5t-61 157.5v188q0 103 61.5 160.5t170.5 57.5q108 0 169.5 -58t61.5 -161v-189q0 -100 -61.5 -156t-169.5 -56zM314 97q47 0 69 26t22 84v182q0 60 -22 87t-69 27t-69.5 -27t-22.5 -86v-181q0 -59 22.5 -85.5t69.5 -26.5zM239 700l46 200h174
l-130 -200h-90z" />
    <glyph glyph-name="pi" unicode="&#x3c0;" 
d="M558 600v-107h-78v-316q0 -49 19 -64t70 -7v-106q-109 -17 -163.5 18t-54.5 122v353h-119v-493h-129v493h-67v107h522z" />
    <glyph glyph-name="rho" unicode="&#x3c1;" 
d="M331 104q37 0 54.5 27t17.5 84v178q0 57 -23 82.5t-67 25.5q-45 0 -68.5 -25.5t-23.5 -82.5v-216q25 -37 53 -55t57 -18zM81 -200v593q0 105 59.5 160.5t169.5 55.5q111 0 172 -55.5t61 -160.5v-195q0 -96 -43.5 -152t-121.5 -56q-51 0 -85.5 26.5t-46.5 73.5h-25v-290
h-140z" />
    <glyph glyph-name="sigma1" unicode="&#x3c2;" 
d="M243 -200v107h110q28 0 44.5 11.5t16.5 48.5t-16.5 49.5t-44.5 12.5h-72q-100 0 -150 58t-50 166v137q0 106 59 163t175 57q106 0 158 -54t63 -165l-134 -10q-4 69 -23.5 95t-67.5 26q-50 0 -70 -26t-20 -87v-139q0 -61 21 -87.5t74 -26.5h70q75 0 117 -40t42 -125
q0 -83 -56.5 -127t-153.5 -44h-92z" />
    <glyph glyph-name="sigma" unicode="&#x3c3;" 
d="M296 97q40 0 57 26t17 85v165q0 63 -17 93t-57 30t-57.5 -27.5t-17.5 -83.5v-177q0 -59 17.5 -85t57.5 -26zM296 -10q-98 0 -156.5 55t-58.5 159v182q0 101 58.5 157.5t156.5 56.5h308v-117l-144 13q24 -24 37 -59.5t13 -81.5v-151q0 -104 -58.5 -159t-155.5 -55z" />
    <glyph glyph-name="tau" unicode="&#x3c4;" 
d="M483 0q-120 -18 -180.5 17t-60.5 123v349h-167v111h482v-111h-175v-318q0 -44 22 -58.5t79 -6.5v-106z" />
    <glyph glyph-name="upsilon" unicode="&#x3c5;" 
d="M313 -10q-110 0 -171 57.5t-61 161.5v391h140v-390q0 -57 21 -83t70 -26t70 25.5t21 82.5v391h140v-391q0 -104 -60.5 -161.5t-169.5 -57.5z" />
    <glyph glyph-name="upsilondieresistonos" unicode="&#x3b0;" 
d="M313 -10q-110 0 -171 57.5t-61 161.5v391h140v-390q0 -57 21 -83t70 -26t70 25.5t21 82.5v391h140v-391q0 -104 -60.5 -161.5t-169.5 -57.5zM244 700l39 200h128l-87 -200h-80zM137 697q-28 0 -46 13.5t-18 49.5v10q0 37 18 51.5t46 14.5q29 0 47 -14.5t18 -51.5v-10
q0 -36 -18.5 -49.5t-46.5 -13.5zM487 697q-29 0 -47 13.5t-18 49.5v10q0 37 18 51.5t47 14.5t46.5 -14.5t17.5 -51.5v-10q0 -36 -18 -49.5t-46 -13.5z" />
    <glyph glyph-name="upsilondieresis" unicode="&#x3cb;" 
d="M313 -10q-110 0 -171 57.5t-61 161.5v391h140v-390q0 -57 21 -83t70 -26t70 25.5t21 82.5v391h140v-391q0 -104 -60.5 -161.5t-169.5 -57.5zM207 703q-32 0 -52.5 13.5t-20.5 50.5v10q0 37 20.5 51.5t52.5 14.5q33 0 53 -14.5t20 -51.5v-10q0 -37 -20.5 -50.5
t-52.5 -13.5zM417 703q-33 0 -53 13.5t-20 50.5v10q0 37 20 51.5t53 14.5q32 0 52.5 -14.5t20.5 -51.5v-10q0 -37 -21 -50.5t-52 -13.5z" />
    <glyph glyph-name="upsilontonos" unicode="&#x3cd;" 
d="M313 -10q-110 0 -171 57.5t-61 161.5v391h140v-390q0 -57 21 -83t70 -26t70 25.5t21 82.5v391h140v-391q0 -104 -60.5 -161.5t-169.5 -57.5zM233 700l46 200h174l-130 -200h-90z" />
    <glyph glyph-name="phi" unicode="&#x3c6;" 
d="M370 -200h-109v194q-98 14 -151 85t-53 193v94q0 76 10.5 139t32.5 109l112 -32q-16 -40 -27.5 -95t-11.5 -121v-94q0 -77 21.5 -120t71.5 -56v504h78q102 0 162.5 -70t60.5 -204v-72q0 -111 -53.5 -177.5t-143.5 -81.5v-195zM365 499v-403q52 11 74.5 50t22.5 108v72
q0 90 -23.5 131.5t-73.5 41.5z" />
    <glyph glyph-name="chi" unicode="&#x3c7;" 
d="M401 -200l-98 241l-102 -241h-138l178 396l-164 404h140l101 -246l105 246h138l-182 -400l164 -400h-142z" />
    <glyph glyph-name="psi" unicode="&#x3c8;" 
d="M370 -200h-116v191q-100 13 -148.5 75.5t-48.5 164.5v369h117v-369q0 -60 19.5 -93t66.5 -40v502h104v-502q47 7 66.5 40t19.5 93v369h117v-369q0 -102 -48.5 -164.5t-148.5 -76.5v-190z" />
    <glyph glyph-name="omega" unicode="&#x3c9;" 
d="M184 -10q-58 0 -92.5 61.5t-34.5 179.5v125q0 81 12 151t28 110l113 -32q-12 -37 -24 -100t-12 -129v-135q0 -60 11 -90t31 -30q22 0 33 22.5t11 73.5v256h104v-256q0 -51 11 -73.5t33 -22.5t32 30t10 90v135q0 66 -12 129t-24 100l113 32q16 -40 28 -110t12 -151v-125
q0 -118 -34.5 -179.5t-93.5 -61.5q-42 0 -72 29t-46 95h-20q-12 -66 -42 -95t-75 -29z" />
    <glyph glyph-name="omegatonos" unicode="&#x3ce;" 
d="M184 -10q-58 0 -92.5 61.5t-34.5 179.5v125q0 81 12 151t28 110l113 -32q-12 -37 -24 -100t-12 -129v-135q0 -60 11 -90t31 -30q22 0 33 22.5t11 73.5v256h104v-256q0 -51 11 -73.5t33 -22.5t32 30t10 90v135q0 66 -12 129t-24 100l113 32q16 -40 28 -110t12 -151v-125
q0 -118 -34.5 -179.5t-93.5 -61.5q-42 0 -72 29t-46 95h-20q-12 -66 -42 -95t-75 -29zM245 700l46 200h174l-130 -200h-90z" />
    <glyph glyph-name="acyrillic" unicode="&#x430;" 
d="M258 88q34 0 60.5 13.5t48.5 43.5v104h-111q-33 0 -49.5 -17.5t-16.5 -63.5q0 -38 16 -59t52 -21zM224 -10q-72 0 -117.5 46t-45.5 126q0 81 48 126t126 45h132v86q0 43 -20.5 64.5t-63.5 21.5t-63.5 -20.5t-31.5 -77.5l-115 24q18 94 68.5 136.5t145.5 42.5
q101 0 158 -44t57 -139v-260q0 -46 21 -57.5t62 -3.5v-106q-67 -14 -109.5 6.5t-54.5 81.5h-22q-25 -41 -71.5 -69.5t-103.5 -28.5z" />
    <glyph glyph-name="becyrillic" unicode="&#x431;" 
d="M312 -10q-106 0 -169 57t-63 179v268q0 133 57.5 202t172.5 87l193 32l13 -110l-185 -32q-60 -11 -89 -50t-29 -117l-1 -44h20q18 35 52.5 56.5t85.5 21.5q79 0 127 -52.5t48 -142.5v-132q0 -112 -63 -167.5t-170 -55.5zM312 97q49 0 70 28t21 83v123q0 50 -21 75.5
t-70 25.5q-50 0 -70.5 -25.5t-20.5 -75.5v-123q0 -55 20.5 -83t70.5 -28z" />
    <glyph glyph-name="vecyrillic" unicode="&#x432;" 
d="M81 0v600h229q113 0 173.5 -36t60.5 -116v-17q0 -49 -31 -76.5t-85 -31.5v-22q66 -5 98.5 -40.5t32.5 -84.5v-13q0 -81 -58.5 -122t-190.5 -41h-229zM215 356h101q52 0 72.5 13t20.5 51v14q0 39 -19.5 54t-73.5 15h-101v-147zM215 101h101q60 0 84 19t24 62v10
q0 41 -23 59t-85 18h-101v-168z" />
    <glyph glyph-name="gecyrillic" unicode="&#x433;" 
d="M117 0v600h418v-111h-278v-489h-140z" />
    <glyph glyph-name="gjecyrillic" unicode="&#x453;" 
d="M117 0v600h418v-111h-278v-489h-140zM228 700l97 200h182l-180 -200h-99z" />
    <glyph glyph-name="decyrillic" unicode="&#x434;" 
d="M227 135v-24h154v378h-117l-3 -218q-1 -44 -9.5 -77t-24.5 -59zM171 0v-150h-129v261h51q20 19 30.5 56.5t11.5 108.5l4 324h371v-489h72v-261h-129v150h-282z" />
    <glyph glyph-name="iecyrillic" unicode="&#x435;" 
d="M549 135q-25 -78 -76.5 -111.5t-154.5 -33.5q-108 0 -172.5 55.5t-64.5 159.5v191q0 103 63.5 158.5t168.5 55.5q106 0 168 -57t62 -166v-114h-322v-73q0 -57 23.5 -84t76.5 -27q46 0 71 18t38 62zM221 403v-46h182v39q0 63 -21 90t-70 27t-70 -26t-21 -84z" />
    <glyph glyph-name="iegravecyrillic" unicode="&#x450;" 
d="M549 135q-25 -78 -76.5 -111.5t-154.5 -33.5q-108 0 -172.5 55.5t-64.5 159.5v191q0 103 63.5 158.5t168.5 55.5q106 0 168 -57t62 -166v-114h-322v-73q0 -57 23.5 -84t76.5 -27q46 0 71 18t38 62zM221 403v-46h182v39q0 63 -21 90t-70 27t-70 -26t-21 -84zM304 700
l-179 200h182l96 -200h-99z" />
    <glyph glyph-name="iocyrillic" unicode="&#x451;" 
d="M549 135q-25 -78 -76.5 -111.5t-154.5 -33.5q-108 0 -172.5 55.5t-64.5 159.5v191q0 103 63.5 158.5t168.5 55.5q106 0 168 -57t62 -166v-114h-322v-73q0 -57 23.5 -84t76.5 -27q46 0 71 18t38 62zM221 403v-46h182v39q0 63 -21 90t-70 27t-70 -26t-21 -84zM207 703
q-32 0 -52.5 13.5t-20.5 50.5v10q0 37 20.5 51.5t52.5 14.5q33 0 53 -14.5t20 -51.5v-10q0 -37 -20.5 -50.5t-52.5 -13.5zM417 703q-33 0 -53 13.5t-20 50.5v10q0 37 20 51.5t53 14.5q32 0 52.5 -14.5t20.5 -51.5v-10q0 -37 -21 -50.5t-52 -13.5z" />
    <glyph glyph-name="zhecyrillic" unicode="&#x436;" 
d="M228 273l-84 -273h-116l116 330l-119 270h118l92 -233h25v233h104v-233h24l89 233h121l-119 -270l118 -330h-120l-82 273h-31v-273h-104v273h-32z" />
    <glyph glyph-name="zecyrillic" unicode="&#x437;" 
d="M314 -10q-122 0 -177.5 46.5t-61.5 152.5l128 7q7 -66 30.5 -87.5t80.5 -21.5q60 0 82 22.5t22 70.5v10q0 46 -21 65.5t-82 19.5h-42v87h42q48 0 68 14t20 52v14q0 40 -19.5 55.5t-69.5 15.5t-70 -19.5t-26 -78.5l-128 8q7 99 60.5 143t163.5 44q117 0 173.5 -37.5
t56.5 -121.5v-17q0 -49 -31 -76.5t-85 -31.5v-22q66 -5 98.5 -41.5t32.5 -86.5v-13q0 -89 -58.5 -131t-186.5 -42z" />
    <glyph glyph-name="iicyrillic" unicode="&#x438;" 
d="M422 0v426l-191 -426h-150v600h122v-446l201 446h139v-600h-121z" />
    <glyph glyph-name="iishortcyrillic" unicode="&#x439;" 
d="M422 0v426l-191 -426h-150v600h122v-446l201 446h139v-600h-121zM312 693q-90 0 -148 50t-58 160l124 10q-1 -69 17 -98t65 -29t65 29t17 98l124 -10q0 -110 -58 -160t-148 -50z" />
    <glyph glyph-name="igravecyrillic" unicode="&#x45d;" 
d="M422 0v426l-191 -426h-150v600h122v-446l201 446h139v-600h-121zM313 700l-179 200h182l96 -200h-99z" />
    <glyph glyph-name="kacyrillic" unicode="&#x43a;" 
d="M240 263v-263h-140v600h140v-237h35l138 237h149l-174 -275l171 -325h-151l-133 263h-35z" />
    <glyph glyph-name="kjecyrillic" unicode="&#x45c;" 
d="M240 263v-263h-140v600h140v-237h35l138 237h149l-174 -275l171 -325h-151l-133 263h-35zM258 700l97 200h182l-180 -200h-99z" />
    <glyph glyph-name="elcyrillic" unicode="&#x43b;" 
d="M409 0v493h-136l-2 -261q-1 -124 -41.5 -183.5t-121.5 -59.5q-20 0 -40 4t-40 10l15 106q12 -4 22 -7t19 -3q28 0 41 33.5t14 112.5l3 355h407v-600h-140z" />
    <glyph glyph-name="emcyrillic" unicode="&#x43c;" 
d="M262 150l-81 290l12 -440h-121v600h147l96 -319l95 319h142v-600h-121l12 435l-80 -285h-101z" />
    <glyph glyph-name="encyrillic" unicode="&#x43d;" 
d="M81 0v600h140v-207h182v207h140v-600h-140v283h-182v-283h-140z" />
    <glyph glyph-name="ocyrillic" unicode="&#x43e;" 
d="M314 -10q-110 0 -171 56.5t-61 157.5v188q0 103 61.5 160.5t170.5 57.5q108 0 169.5 -58t61.5 -161v-189q0 -100 -61.5 -156t-169.5 -56zM314 97q47 0 69 26t22 84v182q0 60 -22 87t-69 27t-69.5 -27t-22.5 -86v-181q0 -59 22.5 -85.5t69.5 -26.5z" />
    <glyph glyph-name="pecyrillic" unicode="&#x43f;" 
d="M81 0v600h462v-600h-140v489h-182v-489h-140z" />
    <glyph glyph-name="ercyrillic" unicode="&#x440;" 
d="M313 97q46 0 68 26.5t22 83.5v192q0 50 -18.5 73.5t-53.5 23.5q-30 0 -57.5 -18t-52.5 -55v-292q23 -17 45 -25.5t47 -8.5zM334 -9q-29 0 -58.5 7t-54.5 20v-218h-140v800h140v-90h25q16 47 54.5 73.5t91.5 26.5q72 0 111.5 -52.5t39.5 -145.5v-206q0 -99 -56 -157
t-153 -58z" />
    <glyph glyph-name="escyrillic" unicode="&#x441;" 
d="M321 -10q-118 0 -179 56.5t-61 160.5v185q0 104 61.5 161t177.5 57q107 0 162 -53t65 -160l-135 -9q-4 65 -26 89.5t-70 24.5q-49 0 -72 -26t-23 -89v-176q0 -62 23 -88t74 -26q48 0 69 20.5t25 74.5l135 -9q-6 -98 -59.5 -145.5t-166.5 -47.5z" />
    <glyph glyph-name="tecyrillic" unicode="&#x442;" 
d="M242 0v489h-175v111h491v-111h-176v-489h-140z" />
    <glyph glyph-name="ucyrillic" unicode="&#x443;" 
d="M179 -208q-26 0 -55.5 3t-62.5 8l11 107q30 -7 54 -10t43 -3q49 0 75.5 24.5t41.5 81.5l2 11h-85l-150 586h144l116 -484l118 484h139l-161 -608q-28 -108 -84.5 -154t-145.5 -46z" />
    <glyph glyph-name="ushortcyrillic" unicode="&#x45e;" 
d="M179 -208q-26 0 -55.5 3t-62.5 8l11 107q30 -7 54 -10t43 -3q49 0 75.5 24.5t41.5 81.5l2 11h-85l-150 586h144l116 -484l118 484h139l-161 -608q-28 -108 -84.5 -154t-145.5 -46zM312 693q-90 0 -148 50t-58 160l124 10q-1 -69 17 -98t65 -29t65 29t17 98l124 -10
q0 -110 -58 -160t-148 -50z" />
    <glyph glyph-name="efcyrillic" unicode="&#x444;" 
d="M396 0h-26v-200h-116v200h-26q-81 0 -126 58t-45 161v163q0 103 45 160.5t126 57.5h26v200h116v-200h26q81 0 126 -57.5t45 -160.5v-164q0 -102 -45 -160t-126 -58zM245 97h19v406h-19q-35 0 -54.5 -31t-19.5 -94v-158q0 -62 19.5 -92.5t54.5 -30.5zM379 503h-19v-406h19
q35 0 54.5 30.5t19.5 92.5v158q0 63 -19.5 94t-54.5 31z" />
    <glyph glyph-name="khacyrillic" unicode="&#x445;" 
d="M415 0l-110 192l-100 -192h-142l179 304l-168 296h143l99 -173l92 173h142l-168 -289l177 -311h-144z" />
    <glyph glyph-name="tsecyrillic" unicode="&#x446;" 
d="M455 -150v150h-374v600h140v-489h160v489h141v-489h66v-261h-133z" />
    <glyph glyph-name="checyrillic" unicode="&#x447;" 
d="M525 600v-600h-141v197q-18 -6 -43.5 -10t-57.5 -4q-106 0 -159.5 55t-53.5 163v199h140v-197q0 -60 23.5 -85.5t70.5 -25.5q21 -1 42.5 4t37.5 12v292h141z" />
    <glyph glyph-name="shacyrillic" unicode="&#x448;" 
d="M57 0v600h114v-498h84v498h114v-498h84v498h114v-600h-510z" />
    <glyph glyph-name="shchacyrillic" unicode="&#x449;" 
d="M603 -150h-114v150h-432v600h114v-498h84v498h114v-498h84v498h114v-493h36v-257z" />
    <glyph glyph-name="hardsigncyrillic" unicode="&#x44a;" 
d="M377 0h-232v489h-125v111h265v-187h93q93 0 144.5 -47.5t51.5 -132.5v-52q0 -85 -52 -133t-145 -48zM285 107h72q40 0 58.5 18.5t18.5 61.5v45q0 41 -18.5 58.5t-58.5 17.5h-72v-201z" />
    <glyph glyph-name="yericyrillic" unicode="&#x44b;" 
d="M62 0v600h117v-180h40q79 0 123.5 -44.5t44.5 -125.5v-72q0 -84 -44 -131t-124 -47h-157zM445 0v600h117v-600h-117zM179 101h33q34 0 50 19t16 65v56q0 43 -16 61.5t-50 18.5h-33v-220z" />
    <glyph glyph-name="softsigncyrillic" unicode="&#x44c;" 
d="M78 0v600h141v-187h134q99 0 153.5 -48.5t54.5 -135.5v-45q0 -87 -54.5 -135.5t-153.5 -48.5h-275zM219 107h110q48 0 69.5 18.5t21.5 62.5v39q0 43 -21.5 62t-69.5 19h-110v-201z" />
    <glyph glyph-name="ereversedcyrillic" unicode="&#x44d;" 
d="M304 -10q-115 0 -171 47.5t-62 148.5l136 10q3 -59 22.5 -81.5t73.5 -22.5q55 0 77.5 26.5t22.5 87.5v59h-150v91h150v40q0 60 -22 86t-76 26q-51 0 -73 -23t-25 -84l-136 10q10 102 66.5 150.5t167.5 48.5q116 0 177 -56t61 -163v-179q0 -107 -60 -164.5t-179 -57.5z
" />
    <glyph glyph-name="iucyrillic" unicode="&#x44e;" 
d="M403 -10q-82 0 -124 51t-42 143v96h-65v-280h-119v600h119v-217h65v29q0 93 42.5 145.5t124.5 52.5q84 0 125.5 -53.5t41.5 -144.5v-228q0 -90 -42 -142t-126 -52zM403 94q28 0 39.5 20.5t11.5 69.5v228q0 51 -11.5 72.5t-39.5 21.5t-39.5 -21.5t-11.5 -72.5v-228
q0 -49 11.5 -69.5t39.5 -20.5z" />
    <glyph glyph-name="iacyrillic" unicode="&#x44f;" 
d="M296 302h107v194h-107q-33 0 -48.5 -18.5t-15.5 -64.5v-22q0 -49 15.5 -69t48.5 -20zM403 200h-56l-121 -200h-153l129 213q-54 15 -82 59t-28 116v25q0 92 45 139.5t130 47.5h276v-600h-140v200z" />
    <glyph glyph-name="djecyrillic" unicode="&#x452;" 
d="M346 -209q-27 0 -55 6t-56 16l16 107q23 -10 43 -15.5t37 -5.5q33 0 52.5 24t19.5 80v350q0 43 -18 64.5t-49 21.5t-61 -21.5t-54 -60.5v-357h-140v620h-84v87h84v93h140v-93h144v-87h-144v-167h25q19 48 58.5 74t91.5 26q66 0 106.5 -45t40.5 -123v-396
q0 -98 -56.5 -148t-140.5 -50z" />
    <glyph glyph-name="ecyrillic" unicode="&#x454;" 
d="M553 186q-6 -101 -61.5 -148.5t-167.5 -47.5q-119 0 -181 57.5t-62 164.5v179q0 106 63 162.5t179 56.5q108 0 164 -48.5t66 -150.5l-136 -10q-4 60 -25.5 83.5t-72.5 23.5t-74.5 -26t-23.5 -86v-43h163v-86h-163v-61q0 -61 24 -87.5t76 -26.5q51 0 72 23.5t24 80.5z" />
    <glyph glyph-name="dzecyrillic" unicode="&#x455;" 
d="M310 -9q-66 0 -129 20t-108 53l37 93q45 -29 98.5 -47.5t101.5 -18.5q46 0 72 16t26 53q0 39 -24.5 55t-96.5 34q-104 25 -151 64.5t-47 116.5q0 84 59 132t155 48q60 0 117 -19t100 -50l-32 -91q-42 26 -87.5 43t-88.5 17q-39 0 -61 -15.5t-22 -50.5q0 -37 28 -53
t109 -38q98 -23 140 -64t42 -116q0 -84 -64.5 -133t-173.5 -49z" />
    <glyph glyph-name="icyrillic" 
d="M86 0v107h156v386h-156v107h296v-493h156v-107h-452zM318 703q-43 0 -69.5 13.5t-26.5 50.5v10q0 37 26.5 51.5t69.5 14.5t69.5 -14.5t26.5 -51.5v-10q0 -37 -27 -50.5t-69 -13.5z" />
    <glyph glyph-name="yicyrillic" 
d="M86 0v107h156v386h-156v107h296v-493h156v-107h-452zM207 703q-32 0 -52.5 13.5t-20.5 50.5v10q0 37 20.5 51.5t52.5 14.5q33 0 53 -14.5t20 -51.5v-10q0 -37 -20.5 -50.5t-52.5 -13.5zM417 703q-33 0 -53 13.5t-20 50.5v10q0 37 20 51.5t53 14.5q32 0 52.5 -14.5
t20.5 -51.5v-10q0 -37 -21 -50.5t-52 -13.5z" />
    <glyph glyph-name="jecyrillic" unicode="&#x458;" 
d="M224 -209q-37 0 -74 4.5t-74 17.5l16 107q33 -13 62 -17t54 -4q52 0 82 25.5t30 85.5v483h-216v107h356v-605q0 -98 -66 -151t-170 -53zM383 703q-43 0 -69.5 13.5t-26.5 50.5v10q0 37 26.5 51.5t69.5 14.5t69.5 -14.5t26.5 -51.5v-10q0 -37 -27 -50.5t-69 -13.5z" />
    <glyph glyph-name="ljecyrillic" unicode="&#x459;" 
d="M197 500l-3 -366q-1 -69 -34.5 -105t-89.5 -36q-15 0 -30.5 3t-31.5 8l17 108q7 -3 14 -5t14 -2q14 0 22.5 12t9.5 42l6 441h286v-187h54q66 0 102.5 -44t36.5 -123v-74q0 -81 -37 -126.5t-103 -45.5h-163v500h-70zM377 98h33q26 1 38 20t12 64v58q0 42 -12 59.5
t-38 17.5h-33v-219z" />
    <glyph glyph-name="njecyrillic" unicode="&#x45a;" 
d="M374 98h33q26 0 38 18t12 59v69q0 43 -12 61.5t-38 18.5h-33v-226zM167 296v-296h-109v600h109v-203h97v203h110v-180h56q65 0 101 -44t36 -123v-85q0 -80 -36 -124t-102 -44h-165v296h-97z" />
    <glyph glyph-name="tshecyrillic" unicode="&#x45b;" 
d="M221 350v-350h-140v620h-84v87h84v93h140v-93h144v-87h-144v-170h25q18 49 58 76t92 27q69 0 108 -46t39 -126v-381h-140v346q0 46 -16 69.5t-50 23.5q-31 0 -60 -22.5t-56 -66.5z" />
    <glyph glyph-name="dzhecyrillic" unicode="&#x45f;" 
d="M245 -150v150h-164v600h140v-489h182v489h140v-600h-164v-150h-134z" />
    <glyph glyph-name="gheupturncyrillic" unicode="&#x491;" 
d="M117 0v600h285v150h133v-261h-278v-489h-140z" />
    <glyph glyph-name="nsuperior" unicode="&#x207f;" 
d="M117 302v499h119v-72h23q8 21 20.5 36.5t29.5 25.5q16 10 34 14.5t37 4.5q28 0 52 -11.5t41 -33.5t26 -54t9 -72v-337h-119v324q0 22 -4 38.5t-11 27.5q-7 10 -17 15.5t-23 5.5t-26 -5t-26 -15q-12 -9 -23.5 -22.5t-22.5 -30.5v-338h-119z" />
    <glyph glyph-name="gravecmb" unicode="&#x300;" horiz-adv-x="0" 
d="M-11 700l-179 200h182l96 -200h-99z" />
    <glyph glyph-name="acutecmb" unicode="&#x301;" horiz-adv-x="0" 
d="M-107 700l97 200h182l-180 -200h-99z" />
    <glyph glyph-name="circumflexcmb" unicode="&#x302;" horiz-adv-x="0" 
d="M-159 700l-49 68l154 152h106l156 -152l-48 -67l-161 109z" />
    <glyph glyph-name="tildecmb" unicode="&#x303;" horiz-adv-x="0" 
d="M75 710q-35 0 -56.5 16t-37.5 38l-24.5 36.5t-27.5 16.5t-26 -17.5t-9 -63.5v-16h-93v15q0 80 33.5 131t93.5 51q34 0 55.5 -15.5t37.5 -38.5l24.5 -37t25.5 -17q16 0 26 18t10 64v16h93v-15q0 -81 -33 -131.5t-92 -50.5z" />
    <glyph glyph-name="macroncmb" unicode="&#x304;" horiz-adv-x="0" 
d="M-181 745v110h362v-110h-362z" />
    <glyph glyph-name="brevecmb" unicode="&#x306;" horiz-adv-x="0" 
d="M0 693q-104 0 -158.5 53.5t-55.5 166.5h118q1 -71 23 -99t73 -28t73 28t23 99h118q-1 -113 -55.5 -166.5t-158.5 -53.5z" />
    <glyph glyph-name="dotaccentcmb" unicode="&#x307;" horiz-adv-x="0" 
d="M0 703q-43 0 -69.5 13.5t-26.5 50.5v10q0 37 26.5 51.5t69.5 14.5t69.5 -14.5t26.5 -51.5v-10q0 -37 -27 -50.5t-69 -13.5z" />
    <glyph glyph-name="dieresiscmb" unicode="&#x308;" horiz-adv-x="0" 
d="M-105 703q-32 0 -52.5 13.5t-20.5 50.5v10q0 37 20.5 51.5t52.5 14.5q33 0 53 -14.5t20 -51.5v-10q0 -37 -20.5 -50.5t-52.5 -13.5zM105 703q-33 0 -53 13.5t-20 50.5v10q0 37 20 51.5t53 14.5q32 0 52.5 -14.5t20.5 -51.5v-10q0 -37 -21 -50.5t-52 -13.5z" />
    <glyph glyph-name="ringcmb" unicode="&#x30a;" horiz-adv-x="0" 
d="M0 682q-72 0 -117 36t-45 112v32q0 77 45 114t117 37q73 0 117.5 -37t44.5 -114v-32q0 -76 -45 -112t-117 -36zM0 759q31 0 47 16.5t16 54.5v32q0 37 -16 55.5t-47 18.5t-47 -18.5t-16 -55.5v-32q0 -38 16 -54.5t47 -16.5z" />
    <glyph glyph-name="hungarumlautcmb" unicode="&#x30b;" horiz-adv-x="0" 
d="M41 700l41 200h145l-110 -200h-76zM-151 700l41 200h145l-110 -200h-76z" />
    <glyph glyph-name="caroncmb" unicode="&#x30c;" horiz-adv-x="0" 
d="M-52 704l-156 152l48 68l161 -109l158 109l49 -68l-154 -152h-106z" />
    <glyph glyph-name="commaturnedabovecmb" unicode="&#x312;" horiz-adv-x="0" 
d="M-123 700l146 200h99l-63 -200h-182z" />
    <glyph glyph-name="commaaccentcmb" unicode="&#x326;" horiz-adv-x="0" 
d="M-129 -300l63 200h182l-146 -200h-99z" />
    <glyph glyph-name="cedillacmb" unicode="&#x327;" horiz-adv-x="0" 
d="M-25 0l16 42q68 -9 106 -40.5t38 -91.5q0 -66 -47 -97.5t-115 -31.5q-74 0 -118.5 28t-48.5 88l119 10q1 -19 10.5 -26.5t31.5 -7.5q24 0 35.5 11.5t11.5 45.5q0 32 -8.5 47t-30.5 23z" />
    <glyph glyph-name="ogonekcmb" unicode="&#x328;" horiz-adv-x="0" 
d="M24 -218q-66 0 -104.5 32t-38.5 90q0 52 37.5 93.5t87.5 59.5l22 -34q-26 -19 -35 -41.5t-9 -44.5q0 -27 15.5 -40.5t46.5 -13.5q15 0 35.5 3t42.5 7v-100q-25 -5 -51.5 -8t-48.5 -3z" />
    <glyph glyph-name="zero" 
d="M312 -10q-116 0 -179 85t-63 242v162q0 160 63 245.5t180 85.5q116 0 179 -85.5t63 -245.5v-162q0 -157 -63 -242t-180 -85zM312 97q63 0 88.5 51t25.5 176v148q0 128 -25.5 179.5t-88.5 51.5t-88 -51.5t-25 -179.5v-148q0 -125 25 -176t88 -51zM312 319q-27 0 -43.5 11
t-16.5 42v55q0 30 16.5 41.5t43.5 11.5t43.5 -11.5t16.5 -41.5v-55q0 -31 -17 -42t-43 -11z" />
    <glyph glyph-name="one" unicode="1" 
d="M100 0v111h172v548h-24q-17 -57 -60.5 -88.5t-98.5 -27.5l-8 116q63 -1 116 38.5t78 102.5h138v-689h150v-111h-463z" />
    <glyph glyph-name="two" unicode="2" 
d="M70 0v168q0 94 33.5 144.5t123.5 92.5l91 40q51 24 69.5 46t18.5 70v33q0 57 -21.5 83t-72.5 26q-50 0 -69 -31t-25 -123l-140 10q7 135 60.5 193t172.5 58t177 -53t58 -157v-57q0 -77 -36 -120.5t-119 -83.5l-91 -40q-54 -25 -72 -50t-18 -79v-59h345v-111h-485z" />
    <glyph glyph-name="three" unicode="3" 
d="M311 -10q-131 0 -187.5 58t-62.5 175l141 10q7 -79 29.5 -106.5t79.5 -27.5t80 26t23 88v40q0 62 -24.5 88.5t-80.5 26.5h-86v110h86q50 0 69.5 18.5t19.5 69.5v42q0 51 -20.5 72t-68.5 21q-46 0 -65.5 -25.5t-25.5 -90.5l-140 10q6 113 61 164t165 51q113 0 173.5 -47
t60.5 -148v-33q0 -61 -34.5 -98.5t-90.5 -44.5v-29q64 -7 103 -54.5t39 -114.5v-30q0 -109 -59.5 -165t-184.5 -56z" />
    <glyph glyph-name="four" unicode="4" 
d="M187 312h169v315zM596 205h-100v-205h-140v205h-295v107l257 488h178v-488h100v-107z" />
    <glyph glyph-name="five" unicode="5" 
d="M309 -10q-133 0 -187.5 52.5t-60.5 188.5l141 10q7 -88 28 -116t80 -28t81.5 29t22.5 94v54q0 62 -23.5 90.5t-84.5 28.5h-220v407h441v-107h-300v-186h120q103 0 155.5 -52.5t52.5 -162.5v-83q0 -102 -61 -160.5t-185 -58.5z" />
    <glyph glyph-name="six" unicode="6" 
d="M312 -10q-122 0 -182 71t-60 208v263q0 138 61 208t183 70q111 0 164.5 -45t68.5 -149l-148 -23q-9 64 -28 87t-65 23q-52 0 -74 -37.5t-22 -127.5v-112h10q23 36 58 55t91 19q93 0 139.5 -61.5t46.5 -169.5v-36q0 -120 -61.5 -181.5t-181.5 -61.5zM311 97q54 0 77.5 33
t23.5 103v26q0 72 -23.5 106t-77.5 34t-77.5 -34t-23.5 -106v-26q0 -72 23.5 -104t77.5 -32z" />
    <glyph glyph-name="seven" unicode="7" 
d="M200 0q49 273 88 401t126 282h-344v117h485v-117q-90 -179 -132 -320t-72 -363h-151z" />
    <glyph glyph-name="eight" unicode="8" 
d="M312 -10q-124 0 -183 52.5t-59 162.5v29q0 72 36 119t101 54v29q-51 6 -86 44t-35 101v39q0 97 55.5 143.5t170.5 46.5q116 0 171 -46.5t55 -143.5v-39q0 -63 -34.5 -101t-85.5 -44v-29q64 -7 100.5 -54.5t36.5 -118.5v-29q0 -110 -59 -162.5t-184 -52.5zM312 474
q47 0 66.5 21t19.5 74v39q0 52 -19.5 72.5t-66.5 20.5q-46 0 -65.5 -20.5t-19.5 -72.5v-39q0 -53 19.5 -74t65.5 -21zM312 99q58 0 80 27t22 91v29q0 66 -22 93t-80 27t-80 -27t-22 -93v-29q0 -64 22 -91t80 -27z" />
    <glyph glyph-name="nine" unicode="9" 
d="M313 401q54 0 77.5 34t23.5 106v26q0 72 -23.5 104t-77.5 32t-77.5 -33t-23.5 -103v-26q0 -72 23.5 -106t77.5 -34zM310 -10q-110 0 -164 45.5t-69 148.5l148 23q9 -66 28 -88t67 -22q51 0 72.5 38.5t21.5 129.5v109h-11q-21 -35 -57 -54t-89 -19q-93 0 -140 58.5
t-47 171.5v36q0 120 61 181.5t181 61.5q122 0 182.5 -71t60.5 -208v-263q0 -137 -61 -207.5t-184 -70.5z" />
    <glyph glyph-name="onequarter" unicode="&#xbc;" 
d="M157 411v78h114v209h-16q-4 -20 -14 -37t-24 -29t-31 -18.5t-35 -7.5l-4 86q20 2 39.5 10t36.5 23q17 14 30 35t20 47h108v-318h104v-78h-328zM20 248v110l266 -20v-70zM350 268v70l254 20v-110zM519 -114h-78v-96h-110v96h-212v81l189 249h133v-249h78v-81zM206 -33h125
v163z" />
    <glyph glyph-name="onehalf" unicode="&#xbd;" 
d="M157 411v78h114v209h-16q-4 -20 -14 -37t-24 -29t-31 -18.5t-35 -7.5l-4 86q19 2 38 9.5t36 22.5q18 14 31.5 35t20.5 48h108v-318h104v-78h-328zM20 248v110l266 -20v-70zM350 268v70l254 20v-110zM128 -210v89q0 25 5.5 45.5t16.5 36.5q12 16 30.5 28t44.5 18l102 25
q16 4 26 8t16 9t9 12t3 18v13q0 11 -5 19t-14 14q-9 5 -22 7.5t-29 2.5q-17 0 -29 -3t-20 -10q-9 -7 -13.5 -19t-5.5 -30l-111 7q2 34 13 58.5t32 40.5q21 17 54 25t80 8t81 -8t56 -23t32.5 -37t10.5 -51v-28q0 -23 -7 -41t-19 -30q-13 -13 -30.5 -22t-39.5 -14l-102 -25
q-17 -4 -26.5 -8t-15.5 -10q-7 -6 -10 -15.5t-3 -24.5h259v-85h-369z" />
    <glyph glyph-name="threequarters" unicode="&#xbe;" 
d="M314 404q-48 0 -83 8t-59 24q-23 16 -35.5 40t-14.5 56l110 6q2 -17 7 -28t14 -17t23.5 -9t37.5 -3q20 0 34 2.5t22 6.5q9 5 12.5 12t3.5 17v16q0 11 -4 18.5t-13 12.5q-9 4 -23.5 6.5t-34.5 2.5h-77v77h77q18 0 30 2t20 6t11.5 11.5t3.5 18.5v16q0 9 -4.5 14.5
t-12.5 8.5q-9 3 -21.5 4.5t-30.5 1.5t-29.5 -2t-18.5 -7q-8 -5 -11.5 -13t-4.5 -20l-111 6q2 30 14.5 52t34.5 35q22 14 53 20t73 6t74.5 -5t55.5 -15q24 -11 36.5 -29.5t12.5 -44.5v-14q0 -17 -6 -31t-16 -24q-11 -10 -24.5 -16t-28.5 -8v-18q16 -2 31 -8t28 -17
q12 -10 19.5 -24t7.5 -31v-11q0 -30 -12 -51t-36 -35q-24 -13 -57.5 -19.5t-77.5 -6.5zM20 248v110l266 -20v-70zM350 268v70l254 20v-110zM522 -114h-78v-96h-109v96h-213v81l189 249h133v-249h78v-81zM209 -33h126v163z" />
    <glyph glyph-name="oneeighth" unicode="&#x215b;" 
d="M154 411v78h113v209h-15q-4 -20 -14 -37t-24 -29t-31 -18.5t-35 -7.5l-5 86q19 2 38.5 9.5t36.5 21.5q17 15 30.5 36t20.5 48h109v-318h103v-78h-327zM20 248v110l266 -20v-70zM350 268v70l254 20v-110zM318 -215q-52 0 -87.5 8t-56.5 23q-21 16 -30.5 37.5t-9.5 50.5v14
q0 18 6 33t17 26t27 18t37 9v18q-17 2 -31 7.5t-24 13.5q-11 9 -16.5 21t-5.5 26v20q0 27 11.5 47t33.5 32q22 13 54 19t75 6t75 -6t54 -18t33.5 -32t11.5 -48v-20q0 -14 -5.5 -26t-16.5 -21q-10 -8 -24 -13.5t-30 -7.5v-18q20 -2 36 -9t28 -19q11 -11 17 -26t6 -32v-14
q0 -30 -9.5 -51.5t-30.5 -36.5t-57 -23t-88 -8zM318 45q16 0 27.5 2t20.5 6q8 4 12 11.5t4 17.5v17q0 10 -4 17.5t-12 11.5q-9 5 -20.5 7t-27.5 2q-15 0 -27 -2t-20 -7q-8 -4 -12.5 -11.5t-4.5 -17.5v-17q0 -10 4.5 -17.5t12.5 -11.5t19.5 -6t27.5 -2zM318 -138q23 0 37.5 3
t22.5 10q8 6 11 14.5t3 20.5v12q0 12 -3 21t-11 15t-22.5 9.5t-37.5 3.5q-22 0 -36.5 -3.5t-23.5 -9.5q-8 -6 -11 -15t-3 -21v-12q0 -12 3 -20.5t11 -14.5q8 -7 23 -10t37 -3z" />
    <glyph glyph-name="threeeighths" unicode="&#x215c;" 
d="M314 404q-47 0 -82.5 8t-58.5 24q-24 16 -36.5 40t-14.5 56l110 6q2 -17 7 -28t14 -17t23.5 -9t37.5 -3q20 0 34 2.5t22 6.5q9 5 12.5 12t3.5 17v16q0 11 -4 18.5t-13 12.5q-9 4 -23.5 6.5t-34.5 2.5h-77v77h77q18 0 30 1.5t20 5.5q8 5 11.5 12t3.5 19v16q0 9 -4.5 14.5
t-12.5 8.5q-9 3 -21.5 4.5t-30.5 1.5t-30 -2t-19 -7t-10.5 -13t-4.5 -20l-111 6q2 31 14.5 53t34.5 35t53.5 19t72.5 6t73.5 -4.5t55.5 -15.5q24 -10 37 -28.5t13 -45.5v-14q0 -17 -6 -31t-16 -24q-11 -10 -24.5 -16t-28.5 -8v-18q16 -2 31 -8t28 -17q12 -10 19.5 -24
t7.5 -31v-11q0 -31 -12.5 -52.5t-36.5 -34.5t-57.5 -19t-76.5 -6zM20 248v110l266 -20v-70zM350 268v70l254 20v-110zM318 -215q-52 0 -87.5 8t-56.5 23q-21 16 -30.5 37.5t-9.5 50.5v14q0 18 6 33t17 26t27 18t37 9v18q-17 2 -31 7.5t-24 13.5q-11 9 -16.5 21t-5.5 26v20
q0 27 11.5 47t33.5 32q22 13 54 19t75 6t75 -6t54 -18t33.5 -32t11.5 -48v-20q0 -14 -5.5 -26t-16.5 -21q-10 -8 -24 -13.5t-30 -7.5v-18q20 -2 36 -9t28 -19q11 -11 17 -26t6 -32v-14q0 -30 -9.5 -51.5t-30.5 -36.5t-57 -23t-88 -8zM318 45q16 0 27.5 2t20.5 6q8 4 12 11.5
t4 17.5v17q0 10 -4 17.5t-12 11.5q-9 5 -20.5 7t-27.5 2q-15 0 -27 -2t-20 -7q-8 -4 -12.5 -11.5t-4.5 -17.5v-17q0 -10 4.5 -17.5t12.5 -11.5t19.5 -6t27.5 -2zM318 -138q23 0 37.5 3t22.5 10q8 6 11 14.5t3 20.5v12q0 12 -3 21t-11 15t-22.5 9.5t-37.5 3.5
q-22 0 -36.5 -3.5t-23.5 -9.5q-8 -6 -11 -15t-3 -21v-12q0 -12 3 -20.5t11 -14.5q8 -7 23 -10t37 -3z" />
    <glyph glyph-name="fiveeighths" unicode="&#x215d;" 
d="M315 401q-52 0 -87.5 6.5t-57.5 21.5q-23 14 -34.5 38.5t-13.5 61.5l110 6q2 -17 6.5 -28t14.5 -17q9 -7 24.5 -9.5t39.5 -2.5q22 0 35.5 2.5t20.5 8.5q8 6 10.5 14.5t2.5 22.5v20q0 12 -3.5 20t-13.5 13q-9 5 -27.5 7.5t-47.5 2.5h-156v218h343v-77h-234v-62h89
q40 0 70 -7t50 -21q21 -14 31 -35.5t10 -50.5v-34q0 -26 -10.5 -47.5t-32.5 -37.5t-57 -25t-82 -9zM20 248v110l266 -20v-70zM350 268v70l254 20v-110zM318 -215q-52 0 -87.5 8t-56.5 23q-21 16 -30.5 37.5t-9.5 50.5v14q0 18 6 33t17 26t27 18t37 9v18q-17 2 -31 7.5
t-24 14.5q-11 8 -16.5 20t-5.5 27v20q0 27 11.5 46.5t33.5 31.5q22 13 54 19t75 6t75 -6t54 -18t33.5 -32t11.5 -47v-20q0 -15 -5.5 -27t-16.5 -20q-10 -9 -24 -14.5t-30 -7.5v-18q20 -2 36 -9t28 -19q11 -11 17 -26t6 -32v-14q0 -30 -9.5 -51.5t-30.5 -36.5t-57 -23t-88 -8
zM318 45q16 0 27.5 2t20.5 6q8 4 12 11.5t4 17.5v17q0 10 -4 17.5t-12 11.5q-9 5 -20.5 7t-27.5 2q-15 0 -27 -2t-20 -7q-8 -4 -12.5 -11.5t-4.5 -17.5v-17q0 -10 4.5 -17.5t12.5 -11.5t19.5 -6t27.5 -2zM318 -138q23 0 37.5 3t22.5 10q8 6 11 14.5t3 20.5v12q0 12 -3 21
t-11 15t-22.5 9.5t-37.5 3.5q-22 0 -36.5 -3.5t-23.5 -9.5q-8 -6 -11 -15t-3 -21v-12q0 -12 3 -20.5t11 -14.5q8 -7 23 -10t37 -3z" />
    <glyph glyph-name="seveneighths" unicode="&#x215e;" 
d="M247 411q12 50 27.5 92t33.5 78q19 37 42 70.5t53 68.5h-259v87h369v-87q-29 -38 -52.5 -75t-42.5 -75t-33 -78t-23 -81h-115zM20 248v110l266 -20v-70zM350 268v70l254 20v-110zM318 -215q-52 0 -87.5 8t-56.5 23q-21 16 -30.5 37.5t-9.5 50.5v14q0 18 6 33t17 26t27 18
t37 9v18q-17 2 -31 7.5t-24 13.5q-11 9 -16.5 21t-5.5 26v20q0 27 11.5 47t33.5 32q22 13 54 19t75 6t75 -6t54 -18t33.5 -32t11.5 -48v-20q0 -14 -5.5 -26t-16.5 -21q-10 -8 -24 -13.5t-30 -7.5v-18q20 -2 36 -9t28 -19q11 -11 17 -26t6 -32v-14q0 -30 -9.5 -51.5
t-30.5 -36.5t-57 -23t-88 -8zM318 45q16 0 27.5 2t20.5 6q8 4 12 11.5t4 17.5v17q0 10 -4 17.5t-12 11.5q-9 5 -20.5 7t-27.5 2q-15 0 -27 -2t-20 -7q-8 -4 -12.5 -11.5t-4.5 -17.5v-17q0 -10 4.5 -17.5t12.5 -11.5t19.5 -6t27.5 -2zM318 -138q23 0 37.5 3t22.5 10
q8 6 11 14.5t3 20.5v12q0 12 -3 21t-11 15t-22.5 9.5t-37.5 3.5q-22 0 -36.5 -3.5t-23.5 -9.5q-8 -6 -11 -15t-3 -21v-12q0 -12 3 -20.5t11 -14.5q8 -7 23 -10t37 -3z" />
    <glyph glyph-name="underscore" unicode="_" 
d="M73 -200v124h479v-124h-479z" />
    <glyph glyph-name="hyphen" unicode="&#x2011;" 
d="M73 290v124h479v-124h-479z" />
    <glyph glyph-name="hyphen" unicode="&#x2010;" 
d="M73 290v124h479v-124h-479z" />
    <glyph glyph-name="hyphen" unicode="&#xad;" 
d="M73 290v124h479v-124h-479z" />
    <glyph glyph-name="hyphen" unicode="-" 
d="M73 290v124h479v-124h-479z" />
    <glyph glyph-name="endash" unicode="&#x2013;" 
d="M69 290v124h486v-124h-486z" />
    <glyph glyph-name="emdash" unicode="&#x2014;" 
d="M20 290v124h584v-124h-584z" />
    <glyph glyph-name="horizontalbar" unicode="&#x2015;" 
d="M20 290v124h584v-124h-584z" />
    <glyph glyph-name="parenleft" unicode="(" 
d="M496 -210q-172 36 -254.5 167.5t-82.5 342.5q0 210 82.5 342t254.5 168l14 -96q-112 -34 -161.5 -138t-49.5 -276t49.5 -274.5t161.5 -136.5z" />
    <glyph glyph-name="parenright" unicode=")" 
d="M128 -210l-14 99q112 34 162 137.5t50 273.5q0 169 -50 274.5t-162 139.5l14 96q172 -36 255 -168t83 -342q0 -211 -83 -342.5t-255 -167.5z" />
    <glyph glyph-name="bracketleft" unicode="[" 
d="M159 -200v1000h349v-107h-209v-794h209v-99h-349z" />
    <glyph glyph-name="bracketright" unicode="]" 
d="M117 -200v99h209v794h-209v107h349v-1000h-349z" />
    <glyph glyph-name="braceleft" 
d="M508 -210q-210 -4 -300.5 36t-90.5 130q0 49 16 81.5t38 57.5q26 31 40 51.5t14 43.5q0 45 -40.5 63.5t-150.5 21.5v74q110 3 150.5 21.5t40.5 62.5q0 22 -14 39.5t-40 42.5q-22 21 -38 50t-16 78q0 90 90.5 130.5t300.5 36.5v-107q-140 3 -195.5 -15t-55.5 -64
q0 -25 14.5 -45.5t39.5 -43.5t40 -46.5t15 -56.5q0 -60 -50.5 -87.5t-167.5 -31.5v-5q117 -10 167.5 -40t50.5 -90q0 -33 -15.5 -55.5t-40.5 -45.5q-24 -22 -38.5 -44.5t-14.5 -53.5q0 -49 55.5 -68t195.5 -16v-105z" />
    <glyph glyph-name="braceright" 
d="M507 -44q0 -90 -90.5 -130t-299.5 -36v105q140 -3 195 16t55 68q0 31 -14 53.5t-38 44.5q-25 23 -40.5 45.5t-15.5 55.5q0 60 50 90t167 40v5q-117 4 -167 31.5t-50 87.5q0 33 15 56.5t40 46.5q24 23 38.5 43.5t14.5 45.5q0 46 -55 64t-195 15v107q209 4 299.5 -36.5
t90.5 -130.5q0 -49 -16 -78t-38 -50q-25 -25 -39.5 -42.5t-14.5 -39.5q0 -44 41 -62.5t151 -21.5v-74q-110 -3 -151 -21.5t-41 -63.5q0 -23 14.5 -43.5t40.5 -51.5q22 -25 37.5 -57.5t15.5 -81.5z" />
    <glyph glyph-name="numbersign" unicode="#" 
d="M361 293l8 214h-105l-9 -214h106zM348 0l8 190h-105l-8 -190h-110l9 190h-109v103h113l9 214h-122v103h126l8 190h109l-8 -190h106l8 190h109l-8 -190h108v-103h-113l-8 -214h121v-103h-126l-8 -190h-109z" />
    <glyph glyph-name="percent" unicode="%" 
d="M192 465q-67 0 -108.5 37t-41.5 114v54q0 76 42 113t108 37t107 -37t41 -113v-54q0 -77 -41 -114t-107 -37zM192 548q21 0 33 14.5t12 47.5v62q0 31 -12 46t-33 15q-22 0 -34.5 -15t-12.5 -46v-62q0 -33 12.5 -47.5t34.5 -14.5zM21 229l533 410l51 -73l-535 -409z
M433 -22q-66 0 -107.5 36.5t-41.5 111.5v57q0 76 41.5 113t107.5 37q67 0 108 -37t41 -113v-57q0 -75 -41.5 -111.5t-107.5 -36.5zM433 61q22 0 34 13.5t12 44.5v66q0 31 -12 46t-34 15q-21 0 -33.5 -15t-12.5 -46v-66q0 -31 12.5 -44.5t33.5 -13.5z" />
    <glyph glyph-name="perthousand" unicode="&#x2030;" 
d="M177 465q-63 0 -102 37.5t-39 115.5v50q0 78 39 115t102 37t101 -37t38 -115v-50q0 -78 -38.5 -115.5t-100.5 -37.5zM134 612q0 -34 11.5 -49t31.5 -15q19 0 30.5 15t11.5 49v59q0 32 -11.5 47t-30.5 15q-20 0 -31.5 -15t-11.5 -47v-59zM600 565l-541 -352l-43 69
l540 352zM491 -22q-27 0 -48 13t-34 40q-13 -27 -35 -40t-50 -13q-46 0 -75 37t-29 112v56q0 77 30.5 114t78.5 37q27 0 47.5 -13t33.5 -39q13 26 34 39t47 13q49 0 78.5 -37t29.5 -114v-56q0 -75 -30 -112t-78 -37zM308 116q0 -31 8 -44t21 -13t20.5 13t7.5 44v75
q0 31 -7.5 45.5t-20.5 14.5t-21 -14.5t-8 -45.5v-75zM454 116q0 -31 8 -44t21 -13t20.5 13t7.5 44v75q0 31 -7.5 45.5t-20.5 14.5t-21 -14.5t-8 -45.5v-75z" />
    <glyph glyph-name="quotesingle" unicode="'" 
d="M251 383l-28 417h179l-29 -417h-122z" />
    <glyph glyph-name="quotedbl" unicode="&#x22;" 
d="M398 383l-28 417h175l-28 -417h-119zM107 383l-28 417h176l-29 -417h-119z" />
    <glyph glyph-name="quoteleft" unicode="&#x2018;" 
d="M164 383l203 417h94l-83 -417h-214z" />
    <glyph glyph-name="quoteleft" unicode="&#x2bb;" 
d="M164 383l203 417h94l-83 -417h-214z" />
    <glyph glyph-name="quoteright" unicode="&#x2019;" 
d="M163 383l83 417h214l-202 -417h-95z" />
    <glyph glyph-name="quotedblleft" unicode="&#x201c;" 
d="M314 383l198 417h88l-80 -417h-206zM28 383l199 417h88l-81 -417h-206z" />
    <glyph glyph-name="quotedblright" unicode="&#x201d;" 
d="M309 383l81 417h206l-199 -417h-88zM24 383l80 417h206l-198 -417h-88z" />
    <glyph glyph-name="quotereversed" unicode="&#x201b;" 
d="M359 383l-203 417h215l83 -417h-95z" />
    <glyph glyph-name="quotesinglbase" unicode="&#x201a;" 
d="M182 -183l66 418h214l-186 -418h-94z" />
    <glyph glyph-name="quotedblbase" unicode="&#x201e;" 
d="M239 -182l81 417h206l-199 -417h-88zM-46 -182l80 417h206l-198 -417h-88z" />
    <glyph glyph-name="guilsinglleft" unicode="&#x2039;" 
d="M466 72l-307 211v134l307 211v-123l-225 -155l225 -155v-123z" />
    <glyph glyph-name="guilsinglright" unicode="&#x203a;" 
d="M159 72v123l225 155l-225 155v123l307 -211v-134z" />
    <glyph glyph-name="guillemotleft" unicode="&#xab;" 
d="M571 72l-239 210v135l239 210v-122l-176 -155l176 -155v-123zM293 72l-240 210v135l240 210v-122l-176 -155l176 -155v-123z" />
    <glyph glyph-name="guillemotright" unicode="&#xbb;" 
d="M53 72v123l176 155l-176 155v122l239 -210v-135zM331 72v123l176 155l-176 155v122l240 -210v-135z" />
    <glyph glyph-name="asterisk" 
d="M498 302l-160 154l35 -236h-124l36 235l-159 -153l-62 114l197 95l-197 95l62 113l159 -154l-36 235h124l-35 -235l160 154l62 -113l-198 -95l198 -95z" />
    <glyph glyph-name="dagger" unicode="&#x2020;" 
d="M250 -200v693h-63l-32 -214h-97l25 321h166l-6 200h138l-6 -200h166l25 -321h-97l-32 214h-63v-693h-124z" />
    <glyph glyph-name="daggerdbl" unicode="&#x2021;" 
d="M243 -200l5 188h-167l-26 240h96l33 -133h66v410h-66l-33 -133h-96l26 240h167l-5 188h138l-5 -188h168l25 -240h-95l-34 133h-66v-410h66l34 133h95l-25 -240h-168l5 -188h-138z" />
    <glyph glyph-name="period" unicode="." 
d="M313 -10q-52 0 -84 25t-32 74v50q0 51 32 76t84 25q51 0 82.5 -25t31.5 -76v-50q0 -49 -32.5 -74t-81.5 -25z" />
    <glyph glyph-name="comma" unicode="," 
d="M172 -183l66 418h214l-186 -418h-94z" />
    <glyph glyph-name="colon" unicode=":" 
d="M313 391q-49 0 -78 22t-29 67v49q0 46 29 69t78 23q48 0 77 -23t29 -69v-49q0 -45 -30 -67t-76 -22zM313 -8q-49 0 -78 22t-29 68v49q0 46 29 68.5t78 22.5q48 0 77 -22.5t29 -68.5v-49q0 -46 -30 -68t-76 -22z" />
    <glyph glyph-name="semicolon" unicode=";" 
d="M313 391q-49 0 -78 22t-29 67v49q0 46 29 69t78 23q48 0 77 -23t29 -69v-49q0 -45 -30 -67t-76 -22zM182 -175l62 402h198l-173 -402h-87z" />
    <glyph glyph-name="ellipsis" unicode="&#x2026;" 
d="M512 -9q-29 0 -47 20.5t-18 63.5v80q0 44 18 65t47 21t47 -21t18 -65v-80q0 -43 -18.5 -63.5t-46.5 -20.5zM312 -9q-28 0 -46.5 20.5t-18.5 63.5v80q0 44 18.5 65t46.5 21q29 0 47 -21t18 -65v-80q0 -43 -18.5 -63.5t-46.5 -20.5zM113 -9q-29 0 -47 20.5t-18 63.5v80
q0 44 18 65t47 21t46.5 -21t17.5 -65v-80q0 -43 -18 -63.5t-46 -20.5z" />
    <glyph glyph-name="exclam" unicode="!" 
d="M250 300l-25 500h174l-26 -500h-123zM315 -10q-54 0 -81.5 20.5t-27.5 63.5v28q0 44 27.5 65t81.5 21t81.5 -21t27.5 -65v-28q0 -43 -27.5 -63.5t-81.5 -20.5z" />
    <glyph glyph-name="exclamdown" unicode="&#xa1;" 
d="M312 810q54 0 82 -20.5t28 -63.5v-28q0 -44 -28 -65t-82 -21t-81 21t-27 65v28q0 43 27.5 63.5t80.5 20.5zM378 500l25 -500h-174l26 500h123z" />
    <glyph glyph-name="exclamdbl" unicode="&#x203c;" 
d="M400 300l-25 500h152l-26 -500h-101zM121 300l-25 500h151l-25 -500h-101zM455 -10q-25 0 -43.5 5t-30.5 15q-13 11 -19 26.5t-6 37.5v28q0 22 6 38.5t19 26.5q12 11 30.5 16t43.5 5t43 -5t30 -16q12 -10 18 -26.5t6 -38.5v-28q0 -22 -6 -37.5t-18 -26.5q-13 -10 -31 -15
t-42 -5zM176 -10q-25 0 -43.5 5t-30.5 15q-13 11 -19 26.5t-6 37.5v28q0 22 6 38.5t19 26.5q12 11 30.5 16t43.5 5q24 0 42.5 -5t29.5 -16q12 -10 18 -26.5t6 -38.5v-28q0 -22 -6 -37.5t-18 -26.5q-12 -10 -30 -15t-42 -5z" />
    <glyph glyph-name="question" unicode="?" 
d="M219 296l-17 98q137 26 185.5 61.5t48.5 96.5v27q0 60 -26.5 92t-95.5 32q-73 0 -98 -32.5t-32 -121.5l-140 10q6 134 68.5 192.5t200.5 58.5q128 0 195.5 -61t67.5 -160v-41q0 -109 -81 -164t-276 -88zM274 -10q-54 0 -81.5 20.5t-27.5 63.5v28q0 44 27.5 65t81.5 21
t81.5 -21t27.5 -65v-28q0 -43 -27.5 -63.5t-81.5 -20.5z" />
    <glyph glyph-name="questiondown" unicode="&#xbf;" 
d="M348 810q54 0 81.5 -20.5t27.5 -63.5v-28q0 -44 -27.5 -65t-81.5 -21t-81.5 21t-27.5 65v28q0 43 28 63.5t81 20.5zM404 504l16 -98q-140 -27 -187 -62.5t-47 -95.5v-27q0 -60 26.5 -92t95.5 -32q74 0 99 32.5t31 121.5l141 -10q-7 -135 -70 -193t-200 -58
q-129 0 -196 61.5t-67 159.5v41q0 108 82 164t276 88z" />
    <glyph glyph-name="slash" unicode="/" 
d="M86 -200l334 1000h118l-334 -1000h-118z" />
    <glyph glyph-name="backslash" unicode="\" 
d="M420 -199l-334 1000l118 -1l334 -1000z" />
    <glyph glyph-name="fraction" unicode="&#x2215;" 
d="M87 0l334 800h117l-334 -800h-117z" />
    <glyph glyph-name="fraction" unicode="&#x2044;" 
d="M87 0l334 800h117l-334 -800h-117z" />
    <glyph glyph-name="bar" unicode="|" 
d="M255 -200v1000h115v-1000h-115z" />
    <glyph glyph-name="brokenbar" unicode="&#xa6;" 
d="M255 400v400h115v-400h-115zM255 -200v400h115v-400h-115z" />
    <glyph glyph-name="at" unicode="@" 
d="M364 -110q-150 0 -226.5 84.5t-76.5 228.5v320q0 131 64 209t195 78q123 0 184 -81t61 -222v-226q-1 -84 -45.5 -125t-125.5 -41q-84 0 -123.5 44t-39.5 123v122q0 78 35 124.5t91 46.5q40 0 64.5 -17t36.5 -45h24q-2 107 -38 161.5t-125 54.5q-90 0 -129 -53.5
t-39 -152.5v-315q0 -112 49.5 -173.5t163.5 -61.5q49 0 91 8t75 19v-84q-32 -10 -77.5 -18t-88.5 -8zM397 210q25 0 39.5 14.5t14.5 60.5v113q0 43 -15 62.5t-39 19.5q-25 0 -39 -19.5t-14 -64.5v-105q0 -43 14 -62t39 -19z" />
    <glyph glyph-name="ampersand" unicode="&#x26;" 
d="M580 -11q-45 15 -88 40t-82 58q-36 -44 -80.5 -70.5t-107.5 -26.5q-78 0 -129 52t-51 151q0 78 31 134t89 99q-19 48 -29.5 92t-10.5 80q0 101 44.5 157t126.5 56q76 0 117 -48.5t41 -108.5q0 -77 -37 -128.5t-136 -108.5l14.5 -30.5t16.5 -30.5q18 -33 39.5 -63.5
t44.5 -57.5q18 39 35.5 87t35.5 105l105 -36q-22 -59 -52 -114.5t-67 -112.5l157 -70zM237 595q0 -25 4.5 -52.5t13.5 -55.5q42 28 65 62.5t23 81.5q0 38 -14 59.5t-36 21.5q-30 0 -43 -27t-13 -90zM255 88q25 0 47.5 15t43.5 43q-28 28 -52.5 59.5t-46.5 63.5l-23 35.5
t-20 35.5q-18 -27 -27 -62t-9 -72q0 -58 23 -88t64 -30z" />
    <glyph glyph-name="section" unicode="&#xa7;" 
d="M304 212q8 -1 16.5 -3.5t16.5 -4.5q40 2 68 22t28 64q0 41 -26.5 60.5t-81.5 34.5q-8 1 -16.5 3.5t-16.5 4.5q-40 -1 -68.5 -21.5t-28.5 -64.5q0 -41 26.5 -60.5t82.5 -34.5zM327 -207q-72 0 -140.5 25.5t-113.5 68.5l41 102q50 -42 102 -63.5t115 -21.5q43 0 75 18
t32 62q0 46 -36 69.5t-108 42.5q-125 26 -182 69.5t-57 119.5q0 60 33 96t84 53q-57 28 -87 70t-30 106q0 93 67.5 143.5t178.5 50.5q72 0 139 -25.5t116 -68.5l-48 -98q-51 40 -100.5 60.5t-110.5 20.5q-53 0 -80 -21.5t-27 -60.5q0 -46 42 -70t132 -43q107 -25 158 -68.5
t51 -121.5q0 -58 -30 -94.5t-78 -55.5q52 -28 80 -68.5t28 -102.5q0 -92 -66.5 -143t-179.5 -51z" />
    <glyph glyph-name="paragraph" unicode="&#xb6;" 
d="M436 340h-80v-540h-132v540q-83 1 -135 50.5t-52 146.5v52q0 104 53.5 157.5t137.5 53.5h340v-1000h-132v540z" />
    <glyph glyph-name="lsquare" unicode="&#x2113;" 
d="M302 350q13 0 23.5 3t18.5 11q8 7 14 20.5t9 32.5l29 201q3 19 2.5 34t-5.5 25q-5 11 -15.5 16.5t-25.5 5.5q-14 0 -24.5 -3.5t-18.5 -11.5t-14 -21.5t-9 -34.5l-31 -204q-3 -18 -1.5 -32t7.5 -23q6 -10 16 -14.5t25 -4.5zM455 36q-23 -10 -45.5 -18t-45.5 -14
q-22 -5 -44.5 -8t-43.5 -3q-48 0 -86 14.5t-64 43.5q-26 28 -36 70t-2 95l60 424q7 44 26 76.5t47 52.5q29 21 65 31t77 10q50 0 86 -11.5t58 -34.5t30 -57t1 -79l-33 -221q-5 -40 -21.5 -69.5t-40.5 -49.5q-25 -19 -56 -28.5t-67 -9.5q-13 0 -25 1.5t-22 4.5q-11 4 -20 8.5
t-17 10.5l-7 -56q-4 -27 0 -48t14 -35q11 -14 27 -21t37 -7q15 0 32.5 2.5t36.5 7.5q19 6 39 13.5t40 17.5v-113z" />
    <glyph glyph-name="numero" unicode="&#x2116;" 
d="M206 656v-256h-117v400h150l179 -265v265h117v-400h-154zM373 -12q-74 0 -118 36.5t-44 108.5v56q0 73 44 110.5t118 37.5q75 0 118.5 -37.5t43.5 -110.5v-56q0 -72 -44 -108.5t-118 -36.5zM373 71q25 0 38 15t13 51v49q0 33 -13 49t-38 16t-38 -16t-13 -49v-49
q0 -36 13 -51t38 -15z" />
    <glyph glyph-name="periodcentered" unicode="&#x2219;" 
d="M313 274q-52 0 -84 25t-32 75v49q0 50 32 76t84 26q51 0 82.5 -26t31.5 -76v-49q0 -50 -32.5 -75t-81.5 -25z" />
    <glyph glyph-name="periodcentered" unicode="&#xb7;" 
d="M313 274q-52 0 -84 25t-32 75v49q0 50 32 76t84 26q51 0 82.5 -26t31.5 -76v-49q0 -50 -32.5 -75t-81.5 -25z" />
    <glyph glyph-name="bullet" unicode="&#x2022;" 
d="M313 236q-63 0 -102 30.5t-39 95.5v72q0 66 39 97.5t102 31.5t101.5 -31.5t38.5 -97.5v-72q0 -65 -39.5 -95.5t-100.5 -30.5z" />
    <glyph glyph-name="anoteleia" unicode="&#x387;" 
d="M323 274q-52 0 -84 25t-32 75v49q0 50 32 76t84 26q51 0 82.5 -26t31.5 -76v-49q0 -50 -32.5 -75t-81.5 -25z" />
    <glyph glyph-name="underscoredbl" unicode="&#x2017;" 
d="M73 0v124h479v-124h-479zM73 -228v124h479v-124h-479z" />
    <glyph glyph-name="minute" unicode="&#x2032;" 
d="M173 383l83 417h214l-202 -417h-95z" />
    <glyph glyph-name="second" unicode="&#x2033;" 
d="M212 383l81 417h206l-199 -417h-88zM-73 383l80 417h206l-198 -417h-88z" />
    <glyph glyph-name="overline" unicode="&#x203e;" 
d="M73 876v124h479v-124h-479z" />
    <glyph glyph-name="plus" unicode="+" 
d="M253 37v253h-180v120h180v253h118v-253h181v-120h-181v-253h-118z" />
    <glyph glyph-name="minus" unicode="&#x2212;" 
d="M73 290v120h479v-120h-479z" />
    <glyph glyph-name="plusminus" unicode="&#xb1;" 
d="M253 137v253h-180v120h180v253h118v-253h181v-120h-181v-253h-118zM73 0v120h479v-120h-479z" />
    <glyph glyph-name="divide" unicode="&#xf7;" 
d="M312 521q-37 0 -59.5 16.5t-22.5 51.5v19q0 36 22.5 53.5t59.5 17.5t59 -17.5t22 -53.5v-19q0 -35 -22.5 -51.5t-58.5 -16.5zM73 293v114h479v-114h-479zM312 21q-37 0 -59.5 16.5t-22.5 51.5v19q0 36 22.5 53.5t59.5 17.5t59 -17.5t22 -53.5v-19q0 -35 -22.5 -51.5
t-58.5 -16.5z" />
    <glyph glyph-name="multiply" unicode="&#xd7;" 
d="M156 44l-81 67l162 239l-160 236l79 70l156 -229l156 226l81 -67l-162 -236l162 -236l-81 -67l-156 226z" />
    <glyph glyph-name="equal" unicode="=" 
d="M73 430v121h479v-121h-479zM73 149v121h479v-121h-479z" />
    <glyph glyph-name="less" unicode="&#x3c;" 
d="M527 13l-429 269v136l429 269v-116l-351 -221l351 -221v-116z" />
    <glyph glyph-name="greater" unicode="&#x3e;" 
d="M98 13v112l357 225l-357 225v112l429 -269v-136z" />
    <glyph glyph-name="lessequal" unicode="&#x2264;" 
d="M527 200l-429 232v136l429 232v-116l-337 -184l337 -184v-116zM98 0v106h429v-106h-429z" />
    <glyph glyph-name="greaterequal" unicode="&#x2265;" 
d="M98 200v116l337 184l-337 184v116l429 -232l-1 -135zM527 0h-429v106h429v-106z" />
    <glyph glyph-name="approxequal" unicode="&#x2248;" 
d="M420 387q-21 0 -39 6t-34 19t-31 33t-31 50q-17 35 -26.5 53t-18.5 30q-9 13 -18 19.5t-19 6.5t-18 -6t-14 -19t-9 -34.5t-3 -51.5v-86h-95v92q0 53 9.5 94.5t27.5 69.5q17 28 42 42.5t56 14.5q21 0 39 -6t34 -19t31 -33t31 -50l27 -53t18 -30t18 -19.5t20 -6.5
q10 0 17.5 6t13.5 19t9 35t3 52v85h94v-92q0 -53 -9.5 -94.5t-26.5 -69.5q-18 -28 -43 -42.5t-55 -14.5zM420 -13q-21 0 -39 6t-34 19t-31 33t-31 50q-17 35 -26.5 53t-18.5 30q-9 13 -18 19.5t-20 6.5q-10 0 -18 -6t-13 -19q-6 -13 -9 -34.5t-3 -51.5v-86h-95v92
q0 53 9.5 94.5t27.5 69.5q17 28 42 42.5t56 14.5q21 0 39 -6t34 -19t31 -33t31 -50l26.5 -52t18.5 -31q10 -13 19 -19.5t19 -6.5t18 6t13 19q6 13 9 35t3 52v85h94v-92q0 -53 -9.5 -94.5t-26.5 -69.5q-18 -28 -43 -42.5t-55 -14.5z" />
    <glyph glyph-name="notequal" unicode="&#x2260;" 
d="M552 181h-233l-37 -181h-107l38 181h-140v118h165l42 202h-207v118h232l37 181h107l-38 -181h141v-118h-166l-42 -202h208v-118z" />
    <glyph glyph-name="logicalnot" unicode="&#xac;" 
d="M434 0v290h-361v120h479v-410h-118z" />
    <glyph glyph-name="uni23af" unicode="&#x23af;" 
d="M-20 333v134h664v-134h-664z" />
    <glyph glyph-name="arrowleft" unicode="&#x2190;" 
d="M324 58l-304 332v20l304 332h16v-275h264v-134h-264v-275h-16z" />
    <glyph glyph-name="arrowup" unicode="&#x2191;" 
d="M242 -17v450h-226v20l288 364h16l287 -364v-20h-225v-450h-140z" />
    <glyph glyph-name="arrowright" unicode="&#x2192;" 
d="M284 58v275h-264v134h264v275h16l304 -332v-20l-304 -332h-16z" />
    <glyph glyph-name="arrowdown" unicode="&#x2193;" 
d="M304 -26l-292 365v20h230v450h140v-450h230v-20l-292 -365h-16z" />
    <glyph glyph-name="arrowboth" unicode="&#x2194;" 
d="M248 333v-275h-17l-211 332v20l211 332h17v-275h128v275h17l211 -332v-20l-211 -332h-17v275h-128z" />
    <glyph glyph-name="partialdiff" unicode="&#x2202;" 
d="M262 -10q-54 0 -95.5 14t-68.5 43t-37 72.5t-1 101.5l9 64q8 48 27 86.5t48 66.5q29 27 66 41.5t79 14.5q26 0 47 -5.5t36 -15.5q16 -10 26 -23.5t14 -28.5h18q5 60 -4 104.5t-35 78.5t-73 61.5t-119 50.5l99 96q85 -28 140.5 -66.5t86.5 -91.5q30 -53 37.5 -123
t-6.5 -162l-22 -142q-10 -61 -33 -106t-59 -74q-35 -29 -80 -43t-100 -14zM279 96q26 0 45 7.5t32 21.5q13 15 21 37t13 53l11 63q4 28 1.5 48t-11.5 34q-10 14 -27 20.5t-43 6.5t-45 -6.5t-32 -20.5q-13 -13 -21 -33.5t-12 -48.5l-11 -63q-5 -30 -2.5 -52.5t11.5 -36.5
q10 -15 27 -22.5t43 -7.5z" />
    <glyph glyph-name="Delta#1" unicode="&#x2206;" 
d="M48 0v111l171 689h190l168 -689v-111h-529zM448 111l-136 577l-142 -577h278z" />
    <glyph glyph-name="product" unicode="&#x220f;" 
d="M75 -200v1000h474v-1000h-140v889h-194v-889h-140z" />
    <glyph glyph-name="summation" unicode="&#x2211;" 
d="M558 -89v-111h-499v111l307 400l-307 378v111h499v-111h-361l263 -327v-92l-271 -359h369z" />
    <glyph glyph-name="mu1" unicode="&#xb5;" 
d="M224 20l8 -220h-157l8 220v580h141v-400q0 -51 18.5 -72.5t45.5 -21.5t47 15t38 43v436h140v-429q0 -47 14 -59.5t47 -5.5v-106q-61 -13 -95 8t-47 78h-22q-19 -44 -46 -69t-67 -25q-22 0 -41 10t-32 29v-11z" />
    <glyph glyph-name="radical" unicode="&#x221a;" 
d="M273 0l-130 384l-109 -20v106l185 30l123 -396l145 796h127l-180 -900h-161z" />
    <glyph glyph-name="infinity" unicode="&#x221e;" 
d="M184 117q-26 0 -50 18.5t-43 54.5q-19 37 -30 90.5t-11 120.5t12 120.5t33 89.5t48 54t57 18q23 0 41.5 -10.5t33.5 -30.5t27 -50.5t22 -71.5q12 42 24.5 72.5t26.5 50.5t31 30t37 10q26 0 49.5 -18.5t41.5 -54.5q19 -37 29.5 -90t10.5 -120q0 -68 -12 -121t-33 -89
t-49 -54.5t-59 -18.5q-22 0 -40 10t-32 30q-14 19 -25.5 48.5t-22.5 70.5q-12 -41 -24 -70.5t-26 -49.5t-30.5 -29.5t-36.5 -9.5zM421 213q11 0 20 10.5t15 33.5q7 22 10.5 59t3.5 88q0 49 -4 84.5t-10 56.5q-6 22 -14.5 32t-18.5 10q-13 0 -23.5 -11.5t-19.5 -31.5
q-10 -21 -18 -46t-18 -63q14 -70 23 -111t18 -66q8 -24 16.5 -34.5t19.5 -10.5zM201 213q13 0 23.5 11t19.5 31q10 20 18 44.5t18 61.5q-14 71 -23 113t-18 67q-8 25 -16.5 35.5t-19.5 10.5t-20 -10.5t-15 -33.5q-7 -22 -10.5 -58.5t-3.5 -87.5q0 -50 4 -85.5t10 -56.5
q6 -22 14.5 -32t18.5 -10z" />
    <glyph glyph-name="orthogonal" unicode="&#x221f;" 
d="M103 0v700h141v-586h294v-114h-435z" />
    <glyph glyph-name="intersection" unicode="&#x2229;" 
d="M86 0v452q0 61 15.5 109.5t44.5 81.5q30 33 72 50t95 17t94.5 -17t70.5 -50q30 -33 45 -81.5t15 -109.5v-452h-140v447q0 40 -5 68.5t-15 47.5q-10 18 -26.5 27t-39.5 9t-39 -9t-26 -27q-10 -19 -15 -48t-5 -69v-446h-141z" />
    <glyph glyph-name="integral" unicode="&#x222b;" 
d="M182 -206q-16 0 -31.5 1.5t-30.5 4.5q-16 3 -30.5 7.5t-28.5 10.5l17 100q12 -5 23.5 -9t22.5 -6q11 -3 21 -4t19 -1q22 0 36.5 7.5t23.5 22.5q10 15 14 39t4 59v585q0 49 14.5 88.5t40.5 65.5q27 27 63.5 41t80.5 14q16 0 32 -1.5t31 -4.5t30 -7.5t28 -10.5l-17 -99
q-12 5 -23 8.5t-22 5.5q-11 3 -21 4t-20 1q-21 0 -35.5 -7.5t-23.5 -22.5t-13.5 -39.5t-4.5 -58.5v-584q0 -49 -14.5 -88.5t-41.5 -66.5q-26 -27 -63 -41t-81 -14z" />
    <glyph glyph-name="equivalence" unicode="&#x2261;" 
d="M73 507v121h479v-121h-479zM73 286v121h479v-121h-479zM73 65v121h479v-121h-479z" />
    <glyph glyph-name="integralbt" unicode="&#x2321;" 
d="M211 -206q-14 0 -29.5 1.5t-31.5 4.5t-31.5 7.5t-28.5 10.5l16 100q12 -5 23.5 -9t22.5 -6q11 -3 21 -4t20 -1q20 0 34.5 7.5t23.5 23.5q10 16 14.5 42t4.5 62v767h141v-790q0 -51 -15 -91.5t-42 -67.5q-27 -28 -63.5 -42.5t-79.5 -14.5z" />
    <glyph glyph-name="dollar" unicode="$" 
d="M195 569q0 -35 17.5 -56.5t63.5 -38.5v177q-42 -4 -61.5 -23.5t-19.5 -58.5zM439 235q0 34 -19.5 56t-70.5 40v-188q45 3 67.5 25.5t22.5 66.5zM357 -50h-90v95q-63 6 -115.5 25.5t-92.5 50.5l32 98q41 -31 86 -49.5t99 -24.5v206q-115 28 -161.5 73.5t-46.5 131.5
q0 87 51 137.5t148 60.5v96h90v-96q51 -5 98.5 -21.5t79.5 -40.5l-26 -98q-40 25 -78.5 39t-81.5 18v-198q121 -31 169.5 -77.5t48.5 -130.5q0 -88 -55 -140.5t-155 -60.5v-94z" />
    <glyph glyph-name="cent" unicode="&#xa2;" 
d="M210 321q0 -58 16.5 -87.5t54.5 -36.5v406q-38 -7 -54.5 -36.5t-16.5 -87.5v-158zM270 -50v143q-97 11 -146 71t-49 163v150q0 102 50.5 160.5t144.5 69.5v143h89v-142q91 -10 135 -64t53 -153l-129 -10q-3 59 -19 86t-51 34v-403q36 6 51.5 30.5t18.5 80.5l129 -10
q-5 -96 -46.5 -147.5t-141.5 -59.5v-142h-89z" />
    <glyph glyph-name="sterling" unicode="&#xa3;" 
d="M577 238q-7 -121 -53 -184.5t-125 -63.5q-31 0 -62.5 15t-68.5 35q-31 17 -55.5 23t-48.5 -12l-76 -60l-61 90l81 55q29 22 51.5 67.5t22.5 90.5q0 24 -4 44t-11 37h-119v93h74q-10 23 -17.5 51t-7.5 64q0 102 57.5 164.5t163.5 62.5q118 0 171.5 -60.5t59.5 -181.5
l-129 -10q-4 72 -24 104t-75 32q-45 0 -65.5 -30t-20.5 -83q0 -33 7 -60.5t17 -52.5h136v-93h-104q4 -16 6 -34t2 -39q0 -40 -20.5 -77t-64.5 -67l15 -25q23 13 41 13.5t37 -7.5q18 -7 34 -16.5t36 -9.5q37 0 51.5 30t19.5 105z" />
    <glyph glyph-name="currency" unicode="&#xa4;" 
d="M312 201q36 0 54 26.5t18 86.5v175q0 57 -18 83.5t-54 26.5t-54 -26.5t-18 -83.5v-175q0 -60 18 -86.5t54 -26.5zM312 90q-42 0 -77 12t-60 35l-74 -88l-64 70l87 103q-6 19 -9.5 42.5t-3.5 49.5v175q0 25 3 47.5t9 42.5l-86 102l64 70l74 -88q26 24 61 35.5t77 11.5
t77.5 -12t60.5 -36l72 84l64 -70l-85 -100q5 -19 8 -40.5t3 -46.5v-175q0 -23 -2.5 -43.5t-6.5 -38.5l83 -108l-64 -70l-72 85q-26 -25 -61 -37t-78 -12z" />
    <glyph glyph-name="yen" unicode="&#xa5;" 
d="M549 100h-167v-100h-140v100h-167v93h167v107h-167v93h125l-189 407h147l157 -394l156 394h141l-187 -407h124v-93h-167v-107h167v-93z" />
    <glyph glyph-name="franc" unicode="&#x20a3;" 
d="M359 172h-138v-172h-141v172h-84v101h84v527h483v-111h-342v-179h283v-110h-283v-127h138v-101z" />
    <glyph glyph-name="lira" unicode="&#x20a4;" 
d="M605 238q-3 -60 -18.5 -106.5t-41.5 -78.5q-27 -31 -63.5 -47t-82.5 -16q-19 0 -37.5 4.5t-36.5 12.5l-26 13l-45 23q-19 9 -33.5 14.5t-28.5 8.5q-15 2 -28.5 -1.5t-26.5 -13.5l-77 -60l-61 90l82 55q14 10 27 27.5t24 38.5q10 21 16 43.5t6 42.5h-134v87h117l-4 10.5
t-5 10.5q-2 6 -4 10.5t-6 11.5l-7.5 15l-7.5 15l-6.5 14.5t-6.5 15.5h-70v87h49q0 68 16.5 110.5t48.5 72.5t78.5 46t105.5 16q66 0 114 -15t79 -45t47 -75t19 -107l-137 -10q-2 36 -9 61t-20 41q-14 16 -36 23.5t-56 7.5q-28 0 -49 -8t-34 -23q-13 -14 -19.5 -34.5
t-6.5 -46.5l169 -14v-87h-145q1 -3 2.5 -6t4.5 -7q2 -5 3.5 -8t2.5 -6q6 -12 9.5 -20t6.5 -17q4 -9 7.5 -19t5.5 -20h103v-87h-94q-2 -16 -9 -32.5t-19 -33.5t-29.5 -33t-40.5 -31l14 -25q16 10 30 15t27 5q13 1 25 -1.5t24 -7.5q9 -3 23.5 -10.5t23.5 -11.5q8 -3 18.5 -6
t20.5 -3q21 0 34.5 7.5t21.5 23.5t12 40.5t7 63.5z" />
    <glyph glyph-name="peseta" unicode="&#x20a7;" 
d="M123 365h14q8 0 14 4t10 13q5 9 7 24t2 37v192q0 22 -2 37t-7 24q-4 9 -10 13t-14 4h-14v-348zM588 151q0 -40 -9 -70.5t-24 -50.5q-16 -20 -36.5 -30t-44.5 -10q-6 0 -12 0.5t-11 1.5q-6 2 -11.5 3.5t-10.5 4.5q-8 -3 -15.5 -5t-14.5 -2q-7 -1 -14 -1.5t-15 -0.5
q-18 0 -33 8.5t-26 27.5q-12 19 -18 49t-6 71v366h-39v-72q0 -47 -8 -78.5t-21 -49.5q-14 -18 -32 -25.5t-39 -7.5h-19v-280h-84v800h104q21 0 38.5 -7.5t31.5 -25.5q13 -18 21 -49.5t8 -78.5v-39h39v200h78v-200h84v-8q5 4 11 7.5t12 5.5q6 3 12.5 4t12.5 1q13 0 24 -2.5
t22 -7.5t22 -13t23 -19l-38 -72q-9 9 -15.5 14.5t-12.5 9.5q-5 3 -10.5 5t-11.5 2q-5 0 -9.5 -3.5t-6.5 -12.5q-3 -8 -4.5 -21.5t-1.5 -33.5q0 -21 4.5 -39t11.5 -34q8 -16 16 -29l23 -36q13 -20 22 -36t16 -36q8 -19 12.5 -43t4.5 -52zM474 73q8 0 14 3.5t11 11.5t8 22
t3 34q0 17 -4.5 34t-11.5 33t-14.5 28.5l-23.5 39.5q-13 21 -22 37.5t-17 36.5q-7 20 -11.5 44t-4.5 52q0 9 0.5 17.5t0.5 16.5l2 15.5t3 14.5h-42v-374q0 -16 1.5 -28t4.5 -20t6.5 -12t8.5 -4h5.5t5.5 1q3 0 6 1l6 2l13 25l15.5 -14t11.5 -9t12 -6t13 -2z" />
    <glyph glyph-name="Euro" unicode="&#x20ac;" 
d="M331 -10q-117 0 -175 68t-58 196v4h-73v86h72v110h-72v86h73v3q0 130 58.5 198.5t176.5 68.5q113 0 167 -60t60 -185l-123 -10q-6 80 -28.5 112t-79.5 32q-60 0 -84 -36t-24 -118v-5h144v-86h-144v-110h144v-86h-144v-5q0 -81 24 -116.5t86 -35.5q59 0 79.5 32t26.5 108
l123 -10q-6 -123 -61 -182t-168 -59z" />
    <glyph glyph-name="florin" unicode="&#x192;" 
d="M185 -6q-15 0 -31 1.5t-32 4.5t-31.5 7.5t-29.5 10.5l17 100q12 -5 23.5 -9t22.5 -6q11 -3 21 -4t19 -1q21 0 36 6t24 18t13.5 31.5t4.5 46.5v203h-170v107h170v127q0 42 14 76t40 58t62.5 36.5t80.5 12.5q15 0 31 -1.5t32 -4.5t31.5 -7.5t28.5 -10.5l-17 -99
q-12 5 -23.5 8.5t-22.5 5.5q-11 3 -21 4t-19 1q-21 0 -35.5 -6t-23.5 -18t-13.5 -31.5t-4.5 -46.5v-104h173v-107h-173v-225q0 -42 -14 -76.5t-40 -58.5t-62.5 -36.5t-80.5 -12.5z" />
    <glyph glyph-name="asciicircum" unicode="^" 
d="M453 200l-141 416l-138 -416h-129l197 600h140l200 -600h-129z" />
    <glyph glyph-name="asciitilde" unicode="~" 
d="M419 217q-45 0 -77.5 29.5t-63.5 98.5q-25 62 -41 93.5t-38 31.5q-20 0 -31 -26t-11 -89v-130h-93v136q0 105 38 163.5t97 58.5q46 0 78.5 -29.5t62.5 -98.5q26 -63 42 -94t38 -31q19 0 30 24.5t11 77.5v136h93v-143q0 -99 -37.5 -153.5t-97.5 -54.5z" />
    <glyph glyph-name="acute" unicode="&#xb4;" 
d="M205 700l97 200h182l-180 -200h-99z" />
    <glyph glyph-name="grave" unicode="`" 
d="M349 383l-203 417h215l83 -417h-95z" />
    <glyph glyph-name="hungarumlaut" unicode="&#x2dd;" 
d="M353 700l41 200h145l-110 -200h-76zM161 700l41 200h145l-110 -200h-76z" />
    <glyph glyph-name="circumflex" unicode="&#x2c6;" 
d="M153 700l-49 68l154 152h106l156 -152l-48 -67l-161 109z" />
    <glyph glyph-name="caron" unicode="&#x2c7;" 
d="M260 704l-156 152l48 68l161 -109l158 109l49 -68l-154 -152h-106z" />
    <glyph glyph-name="breve" unicode="&#x2d8;" 
d="M312 693q-104 0 -158.5 53.5t-55.5 166.5h118q1 -71 23 -99t73 -28t73 28t23 99h118q-1 -113 -55.5 -166.5t-158.5 -53.5z" />
    <glyph glyph-name="tilde" unicode="&#x2dc;" 
d="M387 710q-35 0 -56.5 16t-37.5 38l-24.5 36.5t-27.5 16.5t-26 -17.5t-9 -63.5v-16h-93v15q0 80 33.5 131t93.5 51q34 0 55.5 -15.5t37.5 -38.5l24.5 -37t25.5 -17q16 0 26 18t10 64v16h93v-15q0 -81 -33 -131.5t-92 -50.5z" />
    <glyph glyph-name="macron" unicode="&#x2c9;" 
d="M131 745v110h362v-110h-362z" />
    <glyph glyph-name="macron" unicode="&#xaf;" 
d="M131 745v110h362v-110h-362z" />
    <glyph glyph-name="dieresis" unicode="&#xa8;" 
d="M207 703q-32 0 -52.5 13.5t-20.5 50.5v10q0 37 20.5 51.5t52.5 14.5q33 0 53 -14.5t20 -51.5v-10q0 -37 -20.5 -50.5t-52.5 -13.5zM417 703q-33 0 -53 13.5t-20 50.5v10q0 37 20 51.5t53 14.5q32 0 52.5 -14.5t20.5 -51.5v-10q0 -37 -21 -50.5t-52 -13.5z" />
    <glyph glyph-name="dotaccent" unicode="&#x2d9;" 
d="M312 703q-43 0 -69.5 13.5t-26.5 50.5v10q0 37 26.5 51.5t69.5 14.5t69.5 -14.5t26.5 -51.5v-10q0 -37 -27 -50.5t-69 -13.5z" />
    <glyph glyph-name="ring" unicode="&#x2da;" 
d="M312 682q-72 0 -117 36t-45 112v32q0 77 45 114t117 37q73 0 117.5 -37t44.5 -114v-32q0 -76 -45 -112t-117 -36zM312 759q31 0 47 16.5t16 54.5v32q0 37 -16 55.5t-47 18.5t-47 -18.5t-16 -55.5v-32q0 -38 16 -54.5t47 -16.5z" />
    <glyph glyph-name="cedilla" unicode="&#xb8;" 
d="M287 0l16 42q68 -9 106 -40.5t38 -91.5q0 -66 -47 -97.5t-115 -31.5q-74 0 -118.5 28t-48.5 88l119 10q1 -19 10.5 -26.5t31.5 -7.5q24 0 35.5 11.5t11.5 45.5q0 32 -8.5 47t-30.5 23z" />
    <glyph glyph-name="ogonek" unicode="&#x2db;" 
d="M336 -218q-66 0 -104.5 32t-38.5 90q0 52 37.5 93.5t87.5 59.5l22 -34q-26 -19 -35 -41.5t-9 -44.5q0 -27 15.5 -40.5t46.5 -13.5q15 0 35.5 3t42.5 7v-100q-25 -5 -51.5 -8t-48.5 -3z" />
    <glyph glyph-name="tonos" unicode="&#x384;" 
d="M239 700l46 200h174l-130 -200h-90z" />
    <glyph glyph-name="dieresistonos" unicode="&#x385;" 
d="M244 700l39 200h128l-87 -200h-80zM137 697q-28 0 -46 13.5t-18 49.5v10q0 37 18 51.5t46 14.5q29 0 47 -14.5t18 -51.5v-10q0 -36 -18.5 -49.5t-46.5 -13.5zM487 697q-29 0 -47 13.5t-18 49.5v10q0 37 18 51.5t47 14.5t46.5 -14.5t17.5 -51.5v-10q0 -36 -18 -49.5
t-46 -13.5z" />
    <glyph glyph-name="copyright" unicode="&#xa9;" 
d="M312 -110q-142 0 -208.5 93t-66.5 274v222q0 183 67 277t209 94q141 0 208 -94t67 -277v-222q0 -181 -67 -274t-209 -93zM312 -51q118 0 166 79.5t48 244.5v189q0 166 -48 247.5t-166 81.5q-117 0 -165 -81.5t-48 -247.5v-188q0 -166 48 -245.5t165 -79.5zM320 90
q-80 0 -116 48.5t-36 144.5v177q0 94 36 142t116 48q69 0 101 -46.5t37 -142.5l-97 -6q-4 63 -13 84t-31 21q-23 0 -34 -23t-11 -77v-180q0 -53 11 -76t35 -23q22 0 30.5 18t12.5 77l97 -6q-5 -93 -37 -136.5t-101 -43.5z" />
    <glyph glyph-name="registered" unicode="&#xae;" 
d="M312 131q-126 0 -185.5 71.5t-59.5 205.5v173q0 134 59.5 206.5t186.5 72.5q125 0 185 -72.5t60 -206.5v-173q0 -134 -60 -205.5t-186 -71.5zM312 182q104 0 147.5 56.5t43.5 175.5v160q0 119 -43.5 177.5t-147.5 58.5t-147.5 -58.5t-43.5 -177.5v-160
q0 -119 43.5 -175.5t147.5 -56.5zM282 503h36q15 0 27 8t12 34v29q0 28 -12 38t-27 10h-36v-119zM282 309h-93v379h138q60 0 92 -30t32 -86v-29q0 -34 -15.5 -57.5t-44.5 -34.5l72 -142h-100l-58 131h-23v-131z" />
    <glyph glyph-name="trademark" unicode="&#x2122;" 
d="M88 351v371h-66v78h211v-78h-57v-371h-88zM344 724l12 -373h-77v449h104l44 -221l46 221h101v-449h-76l11 369l-53 -232h-60z" />
    <glyph glyph-name="degree" unicode="&#xb0;" 
d="M312 336q-82 0 -133 44t-51 134v110q0 92 51 137t133 45q84 0 134.5 -45t50.5 -137v-110q0 -90 -51 -134t-134 -44zM312 436q35 0 53 19.5t18 65.5v96q0 45 -18 66.5t-53 21.5t-52.5 -21.5t-17.5 -66.5v-96q0 -46 17.5 -65.5t52.5 -19.5z" />
    <glyph glyph-name="careof" unicode="&#x2105;" 
d="M237 593l98 -8q-2 -30 -12.5 -53t-28.5 -38q-19 -14 -44.5 -21.5t-57.5 -7.5q-34 0 -61.5 9t-47.5 28t-30.5 47.5t-10.5 66.5v54q0 38 10.5 66t30.5 47t47.5 28t61.5 9q32 0 57.5 -7.5t44.5 -22.5q18 -15 28.5 -38t12.5 -54l-98 -10q0 11 -3 19.5t-9 13.5q-6 6 -14 8.5
t-19 2.5t-19.5 -3.5t-14.5 -11.5q-7 -7 -10 -18.5t-3 -26.5v-63q0 -16 3 -28t10 -19q6 -8 14.5 -11.5t19.5 -3.5t19 2.5t14 8.5q6 5 9 14t3 21zM21 229l533 410l51 -73l-535 -409zM433 -22q-34 0 -61.5 9t-46.5 27q-20 19 -30.5 47t-10.5 65v57q0 37 10.5 65.5t30.5 47.5
t47.5 28t60.5 9q34 0 61.5 -9t47.5 -28q19 -19 29.5 -47t10.5 -66v-57q0 -37 -10.5 -65t-30.5 -47q-19 -18 -46.5 -27t-61.5 -9zM433 61q11 0 19.5 3.5t14.5 10.5t9 18t3 26v66q0 16 -3 27.5t-9 18.5q-6 8 -14.5 11.5t-19.5 3.5t-19.5 -3.5t-14.5 -11.5q-6 -7 -9 -19t-3 -27
v-66q0 -15 3 -26t9 -18t14.5 -10.5t19.5 -3.5z" />
    <glyph glyph-name="uni2117" unicode="&#x2117;" 
d="M312 -110q-135 0 -198.5 93t-63.5 274v222q0 183 64 277t199 94q134 0 197.5 -94t63.5 -277v-222q0 -181 -63.5 -274t-198.5 -93zM312 -51q110 0 155.5 79t45.5 245v189q0 166 -45.5 247.5t-155.5 81.5t-155 -81.5t-45 -247.5v-188q0 -166 45 -245.5t155 -79.5zM181 112
v524h141q74 0 112 -43t38 -126v-39q0 -77 -38 -117t-113 -40h-31v-159h-109zM290 360h31q24 0 36 15.5t12 52.5v39q0 42 -12 60t-36 18h-31v-185z" />
    <glyph glyph-name="estimated" unicode="&#x212e;" 
d="M308 -12q-119 0 -192 118.5t-73 295.5q0 178 73 295.5t195 117.5q121 0 192.5 -133t75.5 -332h-382v-238q22 -25 49.5 -38.5t61.5 -13.5q63 0 109.5 32t76.5 89l40 -57q-35 -63 -92.5 -99.5t-133.5 -36.5zM197 430h225v258q-22 24 -49 39.5t-64 15.5q-35 0 -63 -13
t-49 -39v-261z" />
    <glyph glyph-name="arrowupdn" unicode="&#x2195;" 
d="M320 -117h-16l-288 347v20h226v300h-226v20l288 347h16l288 -347v-20h-226v-300h226v-20z" />
    <glyph glyph-name="arrowupdnbse" unicode="&#x21a8;" 
d="M73 -220v120h479v-120h-479zM320 -117h-16l-288 347v20h226v300h-226v20l288 347h16l288 -347v-20h-226v-300h226v-20z" />
    <glyph glyph-name="logicalnotreversed" unicode="&#x2310;" 
d="M38 0v410h548v-120h-430v-290h-118z" />
    <glyph glyph-name="lighthorzbxd" unicode="&#x2500;" 
d="M-20 350h664v-100h-664v100z" />
    <glyph glyph-name="heavyhorzbxd" unicode="&#x2501;" 
d="M-20 400h664v-200h-664v200z" />
    <glyph glyph-name="lightvertbxd" unicode="&#x2502;" 
d="M262 1050h100v-1500h-100v1500z" />
    <glyph glyph-name="heavyvertbxd" unicode="&#x2503;" 
d="M212 1050h200v-1500h-200v1500z" />
    <glyph glyph-name="lighttrpldashhorzbxd" unicode="&#x2504;" 
d="M34 350h139v-100h-139v100zM242 350h139v-100h-139v100zM450 350h139v-100h-139v100z" />
    <glyph glyph-name="heavytrpldashhorzbxd" unicode="&#x2505;" 
d="M34 400h139v-200h-139v200zM242 400h139v-200h-139v200zM450 400h139v-200h-139v200z" />
    <glyph glyph-name="lighttrpldashvertbxd" unicode="&#x2506;" 
d="M262 55h100v-244h-100v244zM262 421h100v-244h-100v244zM262 787h100v-244h-100v244zM262 1153h100v-244h-100v244z" />
    <glyph glyph-name="heavytrpldashvertbxd" unicode="&#x2507;" 
d="M212 55h200v-244h-200v244zM212 421h200v-244h-200v244zM212 787h200v-244h-200v244zM212 1153h200v-244h-200v244z" />
    <glyph glyph-name="lightquaddashhorzbxd" unicode="&#x2508;" 
d="M19 350h117v-100h-117v100zM175 350h117v-100h-117v100zM331 350h117v-100h-117v100zM487 350h117v-100h-117v100z" />
    <glyph glyph-name="heavyquaddashhorzbxd" unicode="&#x2509;" 
d="M19 400h117v-200h-117v200zM175 400h117v-200h-117v200zM331 400h117v-200h-117v200zM487 400h117v-200h-117v200z" />
    <glyph glyph-name="lightquaddashvertbxd" unicode="&#x250a;" 
d="M262 -9h100v-207h-100v207zM262 266h100v-207h-100v207zM262 541h100v-207h-100v207zM262 816h100v-207h-100v207z" />
    <glyph glyph-name="heavyquaddashvertbxd" unicode="&#x250b;" 
d="M212 -9h200v-207h-200v207zM212 266h200v-207h-200v207zM212 541h200v-207h-200v207zM212 816h200v-207h-200v207z" />
    <glyph glyph-name="lightdnrightbxd" unicode="&#x250c;" 
d="M262 350h382v-100h-282v-700h-100v800z" />
    <glyph glyph-name="dnlightrightheavybxd" unicode="&#x250d;" 
d="M262 400h382v-200h-282v-650h-100v850z" />
    <glyph glyph-name="dnheavyrightlightbxd" unicode="&#x250e;" 
d="M212 350h432v-100h-232v-700h-200v800z" />
    <glyph glyph-name="heavydnrightbxd" unicode="&#x250f;" 
d="M212 400h432v-200h-232v-650h-200v850z" />
    <glyph glyph-name="lightdnleftbxd" unicode="&#x2510;" 
d="M-20 350h382v-800h-100v700h-282v100z" />
    <glyph glyph-name="dnlightleftheavybxd" unicode="&#x2511;" 
d="M-20 400h382v-850h-100v650h-282v200z" />
    <glyph glyph-name="dnheavyleftlightbxd" unicode="&#x2512;" 
d="M-20 350h432v-800h-200v700h-232v100z" />
    <glyph glyph-name="heavydnleftbxd" unicode="&#x2513;" 
d="M-20 400h432v-850h-200v650h-232v200z" />
    <glyph glyph-name="lightuprightbxd" unicode="&#x2514;" 
d="M262 1050h100v-700h282v-100h-382v800z" />
    <glyph glyph-name="uplightrightheavybxd" unicode="&#x2515;" 
d="M262 1050h100v-650h282v-200h-382v850z" />
    <glyph glyph-name="upheavyrightlightbxd" unicode="&#x2516;" 
d="M212 1050h200v-700h232v-100h-432v800z" />
    <glyph glyph-name="heavyuprightbxd" unicode="&#x2517;" 
d="M212 1050h200v-650h232v-200h-432v850z" />
    <glyph glyph-name="lightupleftbxd" unicode="&#x2518;" 
d="M-20 350h282v700h100v-800h-382v100z" />
    <glyph glyph-name="uplightleftheavybxd" unicode="&#x2519;" 
d="M-20 400h282v650h100v-850h-382v200z" />
    <glyph glyph-name="upheavyleftlightbxd" unicode="&#x251a;" 
d="M-20 350h232v700h200v-800h-432v100z" />
    <glyph glyph-name="heavyupleftbxd" unicode="&#x251b;" 
d="M-20 400h232v650h200v-850h-432v200z" />
    <glyph glyph-name="lightvertrightbxd" unicode="&#x251c;" 
d="M262 1050h100v-700h282v-100h-282v-700h-100v1500z" />
    <glyph glyph-name="vertlightrightheavybxd" unicode="&#x251d;" 
d="M262 1050h100v-650h282v-200h-282v-650h-100v1500z" />
    <glyph glyph-name="upheavyrightdnlightbxd" unicode="&#x251e;" 
d="M212 1050h200v-700h232v-100h-282v-700h-100v700h-50v800z" />
    <glyph glyph-name="dnheavyrightuplightbxd" unicode="&#x251f;" 
d="M212 350h50v700h100v-700h282v-100h-232v-700h-200v800z" />
    <glyph glyph-name="vertheavyrightlightbxd" unicode="&#x2520;" 
d="M212 1050h200v-700h232v-100h-232v-700h-200v1500z" />
    <glyph glyph-name="dnlightrightupheavybxd" unicode="&#x2521;" 
d="M212 1050h200v-650h232v-200h-282v-650h-100v650h-50v850z" />
    <glyph glyph-name="uplightrightdnheavybxd" unicode="&#x2522;" 
d="M212 400h50v650h100v-650h282v-200h-232v-650h-200v850z" />
    <glyph glyph-name="heavyvertrightbxd" unicode="&#x2523;" 
d="M212 1050h200v-650h232v-200h-232v-650h-200v1500z" />
    <glyph glyph-name="lightvertleftbxd" unicode="&#x2524;" 
d="M-20 350h282v700h100v-1500h-100v700h-282v100z" />
    <glyph glyph-name="vertlightleftheavybxd" unicode="&#x2525;" 
d="M-20 400h282v650h100v-1500h-100v650h-282v200z" />
    <glyph glyph-name="upheavyleftdnlightbxd" unicode="&#x2526;" 
d="M-20 350h232v700h200v-800h-50v-700h-100v700h-282v100z" />
    <glyph glyph-name="dnheavyleftuplightbxd" unicode="&#x2527;" 
d="M-20 350h282v700h100v-700h50v-800h-200v700h-232v100z" />
    <glyph glyph-name="vertheavyleftlightbxd" unicode="&#x2528;" 
d="M-20 350h232v700h200v-1500h-200v700h-232v100z" />
    <glyph glyph-name="dnlightleftupheavybxd" unicode="&#x2529;" 
d="M-20 400h232v650h200v-850h-50v-650h-100v650h-282v200z" />
    <glyph glyph-name="uplightleftdnheavybxd" unicode="&#x252a;" 
d="M-20 400h282v650h100v-650h50v-850h-200v650h-232v200z" />
    <glyph glyph-name="heavyvertleftbxd" unicode="&#x252b;" 
d="M-20 400h232v650h200v-1500h-200v650h-232v200z" />
    <glyph glyph-name="lightdnhorzbxd" unicode="&#x252c;" 
d="M-20 350h664v-100h-282v-700h-100v700h-282v100z" />
    <glyph glyph-name="leftheavyrightdnlightbxd" unicode="&#x252d;" 
d="M-20 400h382v-50h282v-100h-282v-700h-100v650h-282v200z" />
    <glyph glyph-name="rightheavyleftdnlightbxd" unicode="&#x252e;" 
d="M-20 350h282v50h382v-200h-282v-650h-100v700h-282v100z" />
    <glyph glyph-name="dnlighthorzheavybxd" unicode="&#x252f;" 
d="M-20 400h664v-200h-282v-650h-100v650h-282v200z" />
    <glyph glyph-name="dnheavyhorzlightbxd" unicode="&#x2530;" 
d="M-20 350h664v-100h-232v-700h-200v700h-232v100z" />
    <glyph glyph-name="rightlightleftdnheavybxd" unicode="&#x2531;" 
d="M-20 400h432v-50h232v-100h-232v-700h-200v650h-232v200z" />
    <glyph glyph-name="leftlightrightdnheavybxd" unicode="&#x2532;" 
d="M-20 350h232v50h432v-200h-232v-650h-200v700h-232v100z" />
    <glyph glyph-name="heavydnhorzbxd" unicode="&#x2533;" 
d="M-20 400h664v-200h-232v-650h-200v650h-232v200z" />
    <glyph glyph-name="lightuphorzbxd" unicode="&#x2534;" 
d="M-20 350h282v700h100v-700h282v-100h-664v100z" />
    <glyph glyph-name="leftheavyrightuplightbxd" unicode="&#x2535;" 
d="M-20 400h282v650h100v-700h282v-100h-282v-50h-382v200z" />
    <glyph glyph-name="rightheavyleftuplightbxd" unicode="&#x2536;" 
d="M-20 350h282v700h100v-650h282v-200h-382v50h-282v100z" />
    <glyph glyph-name="uplighthorzheavybxd" unicode="&#x2537;" 
d="M-20 400h282v650h100v-650h282v-200h-664v200z" />
    <glyph glyph-name="upheavyhorzlightbxd" unicode="&#x2538;" 
d="M-20 350h232v700h200v-700h232v-100h-664v100z" />
    <glyph glyph-name="rightlightleftupheavybxd" unicode="&#x2539;" 
d="M-20 400h232v650h200v-700h232v-100h-232v-50h-432v200z" />
    <glyph glyph-name="leftlightrightupheavybxd" unicode="&#x253a;" 
d="M-20 350h232v700h200v-650h232v-200h-432v50h-232v100z" />
    <glyph glyph-name="heavyuphorzbxd" unicode="&#x253b;" 
d="M-20 400h232v650h200v-650h232v-200h-664v200z" />
    <glyph glyph-name="lightverthorzbxd" unicode="&#x253c;" 
d="M-20 350h282v700h100v-700h282v-100h-282v-700h-100v700h-282v100z" />
    <glyph glyph-name="leftheavyrightvertlightbxd" unicode="&#x253d;" 
d="M-20 400h282v650h100v-700h282v-100h-282v-700h-100v650h-282v200z" />
    <glyph glyph-name="rightheavyleftvertlightbxd" unicode="&#x253e;" 
d="M-20 350h282v700h100v-650h282v-200h-282v-650h-100v700h-282v100z" />
    <glyph glyph-name="vertlighthorzheavybxd" unicode="&#x253f;" 
d="M-20 400h282v650h100v-650h282v-200h-282v-650h-100v650h-282v200z" />
    <glyph glyph-name="upheavydnhorzlightbxd" unicode="&#x2540;" 
d="M-20 350h232v700h200v-700h232v-100h-282v-700h-100v700h-282v100z" />
    <glyph glyph-name="dnheavyuphorzlightbxd" unicode="&#x2541;" 
d="M-20 350h282v700h100v-700h282v-100h-232v-700h-200v700h-232v100z" />
    <glyph glyph-name="vertheavyhorzlightbxd" unicode="&#x2542;" 
d="M-20 350h232v700h200v-700h232v-100h-232v-700h-200v700h-232v100z" />
    <glyph glyph-name="leftupheavyrightdnlightbxd" unicode="&#x2543;" 
d="M-20 400h232v650h200v-700h232v-100h-232v-50h-50v-650h-100v650h-282v200z" />
    <glyph glyph-name="rightupheavyleftdnlightbxd" unicode="&#x2544;" 
d="M-20 350h232v700h200v-650h232v-200h-282v-650h-100v650h-50v50h-232v100z" />
    <glyph glyph-name="leftdnheavyrightuplightbxd" unicode="&#x2545;" 
d="M-20 400h282v650h100v-650h50v-50h232v-100h-232v-700h-200v650h-232v200z" />
    <glyph glyph-name="rightdnheavyleftuplightbxd" unicode="&#x2546;" 
d="M-20 350h232v50h50v650h100v-650h282v-200h-232v-650h-200v700h-232v100z" />
    <glyph glyph-name="dnlightuphorzheavybxd" unicode="&#x2547;" 
d="M-20 400h232v650h200v-650h232v-200h-282v-650h-100v650h-282v200z" />
    <glyph glyph-name="uplightdnhorzheavybxd" unicode="&#x2548;" 
d="M-20 400h282v650h100v-650h282v-200h-232v-650h-200v650h-232v200z" />
    <glyph glyph-name="rightlightleftvertheavybxd" unicode="&#x2549;" 
d="M-20 400h232v650h200v-700h232v-100h-232v-700h-200v650h-232v200z" />
    <glyph glyph-name="leftlightrightvertheavybxd" unicode="&#x254a;" 
d="M-20 350h232v700h200v-650h232v-200h-232v-650h-200v700h-232v100z" />
    <glyph glyph-name="heavyverthorzbxd" unicode="&#x254b;" 
d="M-20 400h232v650h200v-650h232v-200h-232v-650h-200v650h-232v200z" />
    <glyph glyph-name="lightdbldashhorzbxd" unicode="&#x254c;" 
d="M78 350h156v-100h-156v100zM390 350h156v-100h-156v100z" />
    <glyph glyph-name="heavydbldashhorzbxd" unicode="&#x254d;" 
d="M78 400h156v-200h-156v200zM390 400h156v-200h-156v200z" />
    <glyph glyph-name="lightdbldashvertbxd" unicode="&#x254e;" 
d="M262 162h100v-275h-100v275zM262 712h100v-275h-100v275z" />
    <glyph glyph-name="heavydbldashvertbxd" unicode="&#x254f;" 
d="M212 162h200v-275h-200v275zM212 712h200v-275h-200v275z" />
    <glyph glyph-name="dblhorzbxd" unicode="&#x2550;" 
d="M-20 450h664v-100h-664v100zM-20 250h664v-100h-664v100z" />
    <glyph glyph-name="dblvertbxd" unicode="&#x2551;" 
d="M162 1050h100v-1500h-100v1500zM362 1050h100v-1500h-100v1500z" />
    <glyph glyph-name="dnsngrightdblbxd" unicode="&#x2552;" 
d="M262 450h382v-100h-282v-100h282v-100h-282v-600h-100v900z" />
    <glyph glyph-name="dndblrightsngbxd" unicode="&#x2553;" 
d="M162 350h482v-100h-182v-700h-100v700h-100v-700h-100v800z" />
    <glyph glyph-name="dbldnrightbxd" unicode="&#x2554;" 
d="M162 450h482v-100h-382v-800h-100v900zM362 250h282v-100h-182v-600h-100v700z" />
    <glyph glyph-name="dnsngleftdblbxd" unicode="&#x2555;" 
d="M-20 450h382v-900h-100v600h-282v100h282v100h-282v100z" />
    <glyph glyph-name="dndblleftsngbxd" unicode="&#x2556;" 
d="M-20 350h482v-800h-100v700h-100v-700h-100v700h-182v100z" />
    <glyph glyph-name="dbldnleftbxd" unicode="&#x2557;" 
d="M-20 450h482v-900h-100v800h-382v100zM-20 250h282v-700h-100v600h-182v100z" />
    <glyph glyph-name="upsngrightdblbxd" unicode="&#x2558;" 
d="M262 1050h100v-600h282v-100h-282v-100h282v-100h-382v900z" />
    <glyph glyph-name="updblrightsngbxd" unicode="&#x2559;" 
d="M162 1050h100v-700h100v700h100v-700h182v-100h-482v800z" />
    <glyph glyph-name="dbluprightbxd" unicode="&#x255a;" 
d="M162 1050h100v-800h382v-100h-482v900zM362 1050h100v-600h182v-100h-282v700z" />
    <glyph glyph-name="upsngleftdblbxd" unicode="&#x255b;" 
d="M-20 450h282v600h100v-900h-382v100h282v100h-282v100z" />
    <glyph glyph-name="updblleftsngbxd" unicode="&#x255c;" 
d="M-20 350h182v700h100v-700h100v700h100v-800h-482v100z" />
    <glyph glyph-name="dblupleftbxd" unicode="&#x255d;" 
d="M-20 250h382v800h100v-900h-482v100zM-20 450h182v600h100v-700h-282v100z" />
    <glyph glyph-name="vertsngrightdblbxd" unicode="&#x255e;" 
d="M262 1050h100v-600h282v-100h-282v-100h282v-100h-282v-600h-100v1500z" />
    <glyph glyph-name="vertdblrightsngbxd" unicode="&#x255f;" 
d="M362 1050h100v-700h182v-100h-182v-700h-100v1500zM162 1050h100v-1500h-100v1500z" />
    <glyph glyph-name="dblvertrightbxd" unicode="&#x2560;" 
d="M162 1050h100v-1500h-100v1500zM362 1050h100v-600h182v-100h-282v700zM362 250h282v-100h-182v-600h-100v700z" />
    <glyph glyph-name="vertsngleftdblbxd" unicode="&#x2561;" 
d="M-20 450h282v600h100v-1500h-100v600h-282v100h282v100h-282v100z" />
    <glyph glyph-name="vertdblleftsngbxd" unicode="&#x2562;" 
d="M-20 350h182v700h100v-1500h-100v700h-182v100zM362 1050h100v-1500h-100v1500z" />
    <glyph glyph-name="dblvertleftbxd" unicode="&#x2563;" 
d="M362 1050h100v-1500h-100v1500zM-20 250h282v-700h-100v600h-182v100zM-20 450h182v600h100v-700h-282v100z" />
    <glyph glyph-name="dnsnghorzdblbxd" unicode="&#x2564;" 
d="M-20 250h664v-100h-282v-600h-100v600h-282v100zM-20 450h664v-100h-664v100z" />
    <glyph glyph-name="dndblhorzsngbxd" unicode="&#x2565;" 
d="M-20 350h664v-100h-182v-700h-100v700h-100v-700h-100v700h-182v100z" />
    <glyph glyph-name="dbldnhorzbxd" unicode="&#x2566;" 
d="M-20 250h282v-700h-100v600h-182v100zM362 250h282v-100h-182v-600h-100v700zM-20 450h664v-100h-664v100z" />
    <glyph glyph-name="upsnghorzdblbxd" unicode="&#x2567;" 
d="M-20 450h282v600h100v-600h282v-100h-664v100zM-20 250h664v-100h-664v100z" />
    <glyph glyph-name="updblhorzsngbxd" unicode="&#x2568;" 
d="M-20 350h182v700h100v-700h100v700h100v-700h182v-100h-664v100z" />
    <glyph glyph-name="dbluphorzbxd" unicode="&#x2569;" 
d="M-20 450h182v600h100v-700h-282v100zM362 1050h100v-600h182v-100h-282v700zM-20 250h664v-100h-664v100z" />
    <glyph glyph-name="vertsnghorzdblbxd" unicode="&#x256a;" 
d="M-20 450h282v600h100v-600h282v-100h-282v-100h282v-100h-282v-600h-100v600h-282v100h282v100h-282v100z" />
    <glyph glyph-name="vertdblhorzsngbxd" unicode="&#x256b;" 
d="M-20 350h182v700h100v-700h100v700h100v-700h182v-100h-182v-700h-100v700h-100v-700h-100v700h-182v100z" />
    <glyph glyph-name="dblverthorzbxd" unicode="&#x256c;" 
d="M-20 450h182v600h100v-700h-282v100zM-20 250h282v-700h-100v600h-182v100zM362 1050h100v-600h182v-100h-282v700zM362 250h282v-100h-182v-600h-100v700z" />
    <glyph glyph-name="lightarcdnrightbxd" unicode="&#x256d;" 
d="M262 -12q0 75 28.5 141t77.5 115t115 77.5t141 28.5h20v-100h-20q-54 0 -102 -20.5t-83.5 -56t-56 -83.5t-20.5 -102v-438h-100v438z" />
    <glyph glyph-name="lightarcdnleftbxd" unicode="&#x256e;" 
d="M362 -450h-100v438q0 54 -20.5 102t-56 83.5t-83.5 56t-102 20.5h-20v100h20q75 0 141 -28.5t115 -77.5t77.5 -115t28.5 -141v-438z" />
    <glyph glyph-name="lightarcupleftbxd" unicode="&#x256f;" 
d="M362 612q0 -75 -28.5 -141t-77.5 -115t-115 -77.5t-141 -28.5h-20v100h20q54 0 102 20.5t83.5 56t56 83.5t20.5 102v438h100v-438z" />
    <glyph glyph-name="lightarcuprightbxd" unicode="&#x2570;" 
d="M262 1050h100v-438q0 -54 20.5 -102t56 -83.5t83.5 -56t102 -20.5h20v-100h-20q-75 0 -141 28.5t-115 77.5t-77.5 115t-28.5 141v438z" />
    <glyph glyph-name="lightdiaguprightdnleftbxd" unicode="&#x2571;" 
d="M567 850h57v-101l-567 -999h-57v101z" />
    <glyph glyph-name="lightdiagupleftdnrightbxd" unicode="&#x2572;" 
d="M624 -149v-101h-57l-567 999v101h57z" />
    <glyph glyph-name="lightdiagcrossbxd" unicode="&#x2573;" 
d="M255 300l-255 449v101h57l255 -450l255 450h57v-101l-255 -449l255 -449v-101h-57l-255 449l-255 -449h-57v101z" />
    <glyph glyph-name="lightleftbxd" unicode="&#x2574;" 
d="M-20 350h382v-100h-382v100z" />
    <glyph glyph-name="lightupbxd" unicode="&#x2575;" 
d="M262 1050h100v-800h-100v800z" />
    <glyph glyph-name="lightrightbxd" unicode="&#x2576;" 
d="M262 350h382v-100h-382v100z" />
    <glyph glyph-name="lightdnbxd" unicode="&#x2577;" 
d="M262 350h100v-800h-100v800z" />
    <glyph glyph-name="heavyleftbxd" unicode="&#x2578;" 
d="M-20 400h382v-200h-382v200z" />
    <glyph glyph-name="heavyupbxd" unicode="&#x2579;" 
d="M212 1050h200v-800h-200v800z" />
    <glyph glyph-name="heavyrightbxd" unicode="&#x257a;" 
d="M262 400h382v-200h-382v200z" />
    <glyph glyph-name="heavydnbxd" unicode="&#x257b;" 
d="M212 350h200v-800h-200v800z" />
    <glyph glyph-name="lightleftheavyrightbxd" unicode="&#x257c;" 
d="M-20 350h282v50h382v-200h-382v50h-282v100z" />
    <glyph glyph-name="lightupheavydnbxd" unicode="&#x257d;" 
d="M212 350h50v700h100v-700h50v-800h-200v800z" />
    <glyph glyph-name="heavyleftlightrightbxd" unicode="&#x257e;" 
d="M-20 400h382v-50h282v-100h-282v-50h-382v200z" />
    <glyph glyph-name="heavyuplightdnbxd" unicode="&#x257f;" 
d="M212 1050h200v-800h-50v-700h-100v700h-50v800z" />
    <glyph glyph-name="uphalfblock" unicode="&#x2580;" 
d="M0 850h624v-550h-624v550z" />
    <glyph glyph-name="dneighthblock" unicode="&#x2581;" 
d="M0 -113h624v-137h-624v137z" />
    <glyph glyph-name="dnquarterblock" unicode="&#x2582;" 
d="M0 25h624v-275h-624v275z" />
    <glyph glyph-name="dnthreeeighthsblock" unicode="&#x2583;" 
d="M0 162h624v-412h-624v412z" />
    <glyph glyph-name="dnhalfblock" unicode="&#x2584;" 
d="M0 300h624v-550h-624v550z" />
    <glyph glyph-name="dnfiveeighthsblock" unicode="&#x2585;" 
d="M0 437h624v-687h-624v687z" />
    <glyph glyph-name="dnthreequartersblock" unicode="&#x2586;" 
d="M0 575h624v-825h-624v825z" />
    <glyph glyph-name="dnseveneighthsblock" unicode="&#x2587;" 
d="M0 712h624v-962h-624v962z" />
    <glyph glyph-name="fullblock" unicode="&#x2588;" 
d="M0 850h624v-1100h-624v1100z" />
    <glyph glyph-name="leftseveneighthsblock" unicode="&#x2589;" 
d="M0 850h546v-1100h-546v1100z" />
    <glyph glyph-name="leftthreequartersblock" unicode="&#x258a;" 
d="M0 850h468v-1100h-468v1100z" />
    <glyph glyph-name="leftfiveeighthsblock" unicode="&#x258b;" 
d="M0 850h390v-1100h-390v1100z" />
    <glyph glyph-name="lefthalfblock" unicode="&#x258c;" 
d="M0 850h312v-1100h-312v1100z" />
    <glyph glyph-name="leftthreeeighthsblock" unicode="&#x258d;" 
d="M0 850h234v-1100h-234v1100z" />
    <glyph glyph-name="leftquarterblock" unicode="&#x258e;" 
d="M0 850h156v-1100h-156v1100z" />
    <glyph glyph-name="lefteighthblock" unicode="&#x258f;" 
d="M0 850h78v-1100h-78v1100z" />
    <glyph glyph-name="righthalfblock" unicode="&#x2590;" 
d="M312 850h312v-1100h-312v1100z" />
    <glyph glyph-name="lightshade" unicode="&#x2591;" 
d="M0 -220h20v-30h-20v30zM50 -170h20v-30h-20v30zM0 -120h20v-30h-20v30zM50 -70h20v-30h-20v30zM0 -20h20v-30h-20v30zM50 30h20v-30h-20v30zM0 80h20v-30h-20v30zM50 130h20v-30h-20v30zM0 180h20v-30h-20v30zM50 230h20v-30h-20v30zM0 280h20v-30h-20v30zM50 330h20v-30
h-20v30zM0 380h20v-30h-20v30zM50 430h20v-30h-20v30zM0 480h20v-30h-20v30zM50 530h20v-30h-20v30zM0 580h20v-30h-20v30zM50 630h20v-30h-20v30zM0 680h20v-30h-20v30zM50 730h20v-30h-20v30zM0 780h20v-30h-20v30zM50 830h20v-30h-20v30zM100 -220h20v-30h-20v30z
M150 -170h20v-30h-20v30zM100 -120h20v-30h-20v30zM150 -70h20v-30h-20v30zM100 -20h20v-30h-20v30zM150 30h20v-30h-20v30zM100 80h20v-30h-20v30zM150 130h20v-30h-20v30zM100 180h20v-30h-20v30zM150 230h20v-30h-20v30zM100 280h20v-30h-20v30zM150 330h20v-30h-20v30z
M100 380h20v-30h-20v30zM150 430h20v-30h-20v30zM100 480h20v-30h-20v30zM150 530h20v-30h-20v30zM100 580h20v-30h-20v30zM150 630h20v-30h-20v30zM100 680h20v-30h-20v30zM150 730h20v-30h-20v30zM100 780h20v-30h-20v30zM150 830h20v-30h-20v30zM200 -220h20v-30h-20v30z
M250 -170h20v-30h-20v30zM200 -120h20v-30h-20v30zM250 -70h20v-30h-20v30zM200 -20h20v-30h-20v30zM250 30h20v-30h-20v30zM200 80h20v-30h-20v30zM250 130h20v-30h-20v30zM200 180h20v-30h-20v30zM250 230h20v-30h-20v30zM200 280h20v-30h-20v30zM250 330h20v-30h-20v30z
M200 380h20v-30h-20v30zM250 430h20v-30h-20v30zM200 480h20v-30h-20v30zM250 530h20v-30h-20v30zM200 580h20v-30h-20v30zM250 630h20v-30h-20v30zM200 680h20v-30h-20v30zM250 730h20v-30h-20v30zM200 780h20v-30h-20v30zM250 830h20v-30h-20v30zM300 -220h20v-30h-20v30z
M350 -170h20v-30h-20v30zM300 -120h20v-30h-20v30zM350 -70h20v-30h-20v30zM300 -20h20v-30h-20v30zM350 30h20v-30h-20v30zM300 80h20v-30h-20v30zM350 130h20v-30h-20v30zM300 180h20v-30h-20v30zM350 230h20v-30h-20v30zM300 280h20v-30h-20v30zM350 330h20v-30h-20v30z
M300 380h20v-30h-20v30zM350 430h20v-30h-20v30zM300 480h20v-30h-20v30zM350 530h20v-30h-20v30zM300 580h20v-30h-20v30zM350 630h20v-30h-20v30zM300 680h20v-30h-20v30zM350 730h20v-30h-20v30zM300 780h20v-30h-20v30zM350 830h20v-30h-20v30zM400 -220h20v-30h-20v30z
M450 -170h20v-30h-20v30zM400 -120h20v-30h-20v30zM450 -70h20v-30h-20v30zM400 -20h20v-30h-20v30zM450 30h20v-30h-20v30zM400 80h20v-30h-20v30zM450 130h20v-30h-20v30zM400 180h20v-30h-20v30zM450 230h20v-30h-20v30zM400 280h20v-30h-20v30zM450 330h20v-30h-20v30z
M400 380h20v-30h-20v30zM450 430h20v-30h-20v30zM400 480h20v-30h-20v30zM450 530h20v-30h-20v30zM400 580h20v-30h-20v30zM450 630h20v-30h-20v30zM400 680h20v-30h-20v30zM450 730h20v-30h-20v30zM400 780h20v-30h-20v30zM450 830h20v-30h-20v30zM500 -220h20v-30h-20v30z
M550 -170h20v-30h-20v30zM500 -120h20v-30h-20v30zM550 -70h20v-30h-20v30zM500 -20h20v-30h-20v30zM550 30h20v-30h-20v30zM500 80h20v-30h-20v30zM550 130h20v-30h-20v30zM500 180h20v-30h-20v30zM550 230h20v-30h-20v30zM500 280h20v-30h-20v30zM550 330h20v-30h-20v30z
M500 380h20v-30h-20v30zM550 430h20v-30h-20v30zM500 480h20v-30h-20v30zM550 530h20v-30h-20v30zM500 580h20v-30h-20v30zM550 630h20v-30h-20v30zM500 680h20v-30h-20v30zM550 730h20v-30h-20v30zM500 780h20v-30h-20v30zM550 830h20v-30h-20v30zM600 -220h20v-30h-20v30z
M650 -170h20v-30h-20v30zM600 -120h20v-30h-20v30zM650 -70h20v-30h-20v30zM600 -20h20v-30h-20v30zM650 30h20v-30h-20v30zM600 80h20v-30h-20v30zM650 130h20v-30h-20v30zM600 180h20v-30h-20v30zM650 230h20v-30h-20v30zM600 280h20v-30h-20v30zM650 330h20v-30h-20v30z
M600 380h20v-30h-20v30zM650 430h20v-30h-20v30zM600 480h20v-30h-20v30zM650 530h20v-30h-20v30zM600 580h20v-30h-20v30zM650 630h20v-30h-20v30zM600 680h20v-30h-20v30zM650 730h20v-30h-20v30zM600 780h20v-30h-20v30zM650 830h20v-30h-20v30z" />
    <glyph glyph-name="mediumshade" unicode="&#x2592;" 
d="M0 -200h40v-50h-40v50zM50 -150h40v-50h-40v50zM0 -100h40v-50h-40v50zM50 -50h40v-50h-40v50zM0 0h40v-50h-40v50zM50 50h40v-50h-40v50zM0 100h40v-50h-40v50zM50 150h40v-50h-40v50zM0 200h40v-50h-40v50zM50 250h40v-50h-40v50zM0 300h40v-50h-40v50zM50 350h40v-50
h-40v50zM0 400h40v-50h-40v50zM50 450h40v-50h-40v50zM0 500h40v-50h-40v50zM50 550h40v-50h-40v50zM0 600h40v-50h-40v50zM50 650h40v-50h-40v50zM0 700h40v-50h-40v50zM50 750h40v-50h-40v50zM0 800h40v-50h-40v50zM50 850h40v-50h-40v50zM100 -200h40v-50h-40v50z
M150 -150h40v-50h-40v50zM100 -100h40v-50h-40v50zM150 -50h40v-50h-40v50zM100 0h40v-50h-40v50zM150 50h40v-50h-40v50zM100 100h40v-50h-40v50zM150 150h40v-50h-40v50zM100 200h40v-50h-40v50zM150 250h40v-50h-40v50zM100 300h40v-50h-40v50zM150 350h40v-50h-40v50z
M100 400h40v-50h-40v50zM150 450h40v-50h-40v50zM100 500h40v-50h-40v50zM150 550h40v-50h-40v50zM100 600h40v-50h-40v50zM150 650h40v-50h-40v50zM100 700h40v-50h-40v50zM150 750h40v-50h-40v50zM100 800h40v-50h-40v50zM150 850h40v-50h-40v50zM200 -200h40v-50h-40v50z
M250 -150h40v-50h-40v50zM200 -100h40v-50h-40v50zM250 -50h40v-50h-40v50zM200 0h40v-50h-40v50zM250 50h40v-50h-40v50zM200 100h40v-50h-40v50zM250 150h40v-50h-40v50zM200 200h40v-50h-40v50zM250 250h40v-50h-40v50zM200 300h40v-50h-40v50zM250 350h40v-50h-40v50z
M200 400h40v-50h-40v50zM250 450h40v-50h-40v50zM200 500h40v-50h-40v50zM250 550h40v-50h-40v50zM200 600h40v-50h-40v50zM250 650h40v-50h-40v50zM200 700h40v-50h-40v50zM250 750h40v-50h-40v50zM200 800h40v-50h-40v50zM250 850h40v-50h-40v50zM300 -200h40v-50h-40v50z
M350 -150h40v-50h-40v50zM300 -100h40v-50h-40v50zM350 -50h40v-50h-40v50zM300 0h40v-50h-40v50zM350 50h40v-50h-40v50zM300 100h40v-50h-40v50zM350 150h40v-50h-40v50zM300 200h40v-50h-40v50zM350 250h40v-50h-40v50zM300 300h40v-50h-40v50zM350 350h40v-50h-40v50z
M300 400h40v-50h-40v50zM350 450h40v-50h-40v50zM300 500h40v-50h-40v50zM350 550h40v-50h-40v50zM300 600h40v-50h-40v50zM350 650h40v-50h-40v50zM300 700h40v-50h-40v50zM350 750h40v-50h-40v50zM300 800h40v-50h-40v50zM350 850h40v-50h-40v50zM400 -200h40v-50h-40v50z
M450 -150h40v-50h-40v50zM400 -100h40v-50h-40v50zM450 -50h40v-50h-40v50zM400 0h40v-50h-40v50zM450 50h40v-50h-40v50zM400 100h40v-50h-40v50zM450 150h40v-50h-40v50zM400 200h40v-50h-40v50zM450 250h40v-50h-40v50zM400 300h40v-50h-40v50zM450 350h40v-50h-40v50z
M400 400h40v-50h-40v50zM450 450h40v-50h-40v50zM400 500h40v-50h-40v50zM450 550h40v-50h-40v50zM400 600h40v-50h-40v50zM450 650h40v-50h-40v50zM400 700h40v-50h-40v50zM450 750h40v-50h-40v50zM400 800h40v-50h-40v50zM450 850h40v-50h-40v50zM500 -200h40v-50h-40v50z
M550 -150h40v-50h-40v50zM500 -100h40v-50h-40v50zM550 -50h40v-50h-40v50zM500 0h40v-50h-40v50zM550 50h40v-50h-40v50zM500 100h40v-50h-40v50zM550 150h40v-50h-40v50zM500 200h40v-50h-40v50zM550 250h40v-50h-40v50zM500 300h40v-50h-40v50zM550 350h40v-50h-40v50z
M500 400h40v-50h-40v50zM550 450h40v-50h-40v50zM500 500h40v-50h-40v50zM550 550h40v-50h-40v50zM500 600h40v-50h-40v50zM550 650h40v-50h-40v50zM500 700h40v-50h-40v50zM550 750h40v-50h-40v50zM500 800h40v-50h-40v50zM550 850h40v-50h-40v50zM600 -200h40v-50h-40v50z
M650 -150h40v-50h-40v50zM600 -100h40v-50h-40v50zM650 -50h40v-50h-40v50zM600 0h40v-50h-40v50zM650 50h40v-50h-40v50zM600 100h40v-50h-40v50zM650 150h40v-50h-40v50zM600 200h40v-50h-40v50zM650 250h40v-50h-40v50zM600 300h40v-50h-40v50zM650 350h40v-50h-40v50z
M600 400h40v-50h-40v50zM650 450h40v-50h-40v50zM600 500h40v-50h-40v50zM650 550h40v-50h-40v50zM600 600h40v-50h-40v50zM650 650h40v-50h-40v50zM600 700h40v-50h-40v50zM650 750h40v-50h-40v50zM600 800h40v-50h-40v50zM650 850h40v-50h-40v50z" />
    <glyph glyph-name="darkshade" unicode="&#x2593;" 
d="M0 -185h45v-65h-45v65zM50 -135h45v-65h-45v65zM0 -85h45v-65h-45v65zM50 -35h45v-65h-45v65zM0 15h45v-65h-45v65zM50 65h45v-65h-45v65zM0 115h45v-65h-45v65zM50 165h45v-65h-45v65zM0 215h45v-65h-45v65zM50 265h45v-65h-45v65zM0 315h45v-65h-45v65zM50 365h45v-65
h-45v65zM0 415h45v-65h-45v65zM50 465h45v-65h-45v65zM0 515h45v-65h-45v65zM50 565h45v-65h-45v65zM0 615h45v-65h-45v65zM50 665h45v-65h-45v65zM0 715h45v-65h-45v65zM50 765h45v-65h-45v65zM0 815h45v-65h-45v65zM50 865h45v-65h-45v65zM100 -185h45v-65h-45v65z
M150 -135h45v-65h-45v65zM100 -85h45v-65h-45v65zM150 -35h45v-65h-45v65zM100 15h45v-65h-45v65zM150 65h45v-65h-45v65zM100 115h45v-65h-45v65zM150 165h45v-65h-45v65zM100 215h45v-65h-45v65zM150 265h45v-65h-45v65zM100 315h45v-65h-45v65zM150 365h45v-65h-45v65z
M100 415h45v-65h-45v65zM150 465h45v-65h-45v65zM100 515h45v-65h-45v65zM150 565h45v-65h-45v65zM100 615h45v-65h-45v65zM150 665h45v-65h-45v65zM100 715h45v-65h-45v65zM150 765h45v-65h-45v65zM100 815h45v-65h-45v65zM150 865h45v-65h-45v65zM200 -185h45v-65h-45v65z
M250 -135h45v-65h-45v65zM200 -85h45v-65h-45v65zM250 -35h45v-65h-45v65zM200 15h45v-65h-45v65zM250 65h45v-65h-45v65zM200 115h45v-65h-45v65zM250 165h45v-65h-45v65zM200 215h45v-65h-45v65zM250 265h45v-65h-45v65zM200 315h45v-65h-45v65zM250 365h45v-65h-45v65z
M200 415h45v-65h-45v65zM250 465h45v-65h-45v65zM200 515h45v-65h-45v65zM250 565h45v-65h-45v65zM200 615h45v-65h-45v65zM250 665h45v-65h-45v65zM200 715h45v-65h-45v65zM250 765h45v-65h-45v65zM200 815h45v-65h-45v65zM250 865h45v-65h-45v65zM300 -185h45v-65h-45v65z
M350 -135h45v-65h-45v65zM300 -85h45v-65h-45v65zM350 -35h45v-65h-45v65zM300 15h45v-65h-45v65zM350 65h45v-65h-45v65zM300 115h45v-65h-45v65zM350 165h45v-65h-45v65zM300 215h45v-65h-45v65zM350 265h45v-65h-45v65zM300 315h45v-65h-45v65zM350 365h45v-65h-45v65z
M300 415h45v-65h-45v65zM350 465h45v-65h-45v65zM300 515h45v-65h-45v65zM350 565h45v-65h-45v65zM300 615h45v-65h-45v65zM350 665h45v-65h-45v65zM300 715h45v-65h-45v65zM350 765h45v-65h-45v65zM300 815h45v-65h-45v65zM350 865h45v-65h-45v65zM400 -185h45v-65h-45v65z
M450 -135h45v-65h-45v65zM400 -85h45v-65h-45v65zM450 -35h45v-65h-45v65zM400 15h45v-65h-45v65zM450 65h45v-65h-45v65zM400 115h45v-65h-45v65zM450 165h45v-65h-45v65zM400 215h45v-65h-45v65zM450 265h45v-65h-45v65zM400 315h45v-65h-45v65zM450 365h45v-65h-45v65z
M400 415h45v-65h-45v65zM450 465h45v-65h-45v65zM400 515h45v-65h-45v65zM450 565h45v-65h-45v65zM400 615h45v-65h-45v65zM450 665h45v-65h-45v65zM400 715h45v-65h-45v65zM450 765h45v-65h-45v65zM400 815h45v-65h-45v65zM450 865h45v-65h-45v65zM500 -185h45v-65h-45v65z
M550 -135h45v-65h-45v65zM500 -85h45v-65h-45v65zM550 -35h45v-65h-45v65zM500 15h45v-65h-45v65zM550 65h45v-65h-45v65zM500 115h45v-65h-45v65zM550 165h45v-65h-45v65zM500 215h45v-65h-45v65zM550 265h45v-65h-45v65zM500 315h45v-65h-45v65zM550 365h45v-65h-45v65z
M500 415h45v-65h-45v65zM550 465h45v-65h-45v65zM500 515h45v-65h-45v65zM550 565h45v-65h-45v65zM500 615h45v-65h-45v65zM550 665h45v-65h-45v65zM500 715h45v-65h-45v65zM550 765h45v-65h-45v65zM500 815h45v-65h-45v65zM550 865h45v-65h-45v65zM600 -185h45v-65h-45v65z
M650 -135h45v-65h-45v65zM600 -85h45v-65h-45v65zM650 -35h45v-65h-45v65zM600 15h45v-65h-45v65zM650 65h45v-65h-45v65zM600 115h45v-65h-45v65zM650 165h45v-65h-45v65zM600 215h45v-65h-45v65zM650 265h45v-65h-45v65zM600 315h45v-65h-45v65zM650 365h45v-65h-45v65z
M600 415h45v-65h-45v65zM650 465h45v-65h-45v65zM600 515h45v-65h-45v65zM650 565h45v-65h-45v65zM600 615h45v-65h-45v65zM650 665h45v-65h-45v65zM600 715h45v-65h-45v65zM650 765h45v-65h-45v65zM600 815h45v-65h-45v65zM650 865h45v-65h-45v65z" />
    <glyph glyph-name="upeighthblock" unicode="&#x2594;" 
d="M0 850h624v-138h-624v138z" />
    <glyph glyph-name="righteighthblock" unicode="&#x2595;" 
d="M546 850h78v-1100h-78v1100z" />
    <glyph glyph-name="dnleftquadrant" unicode="&#x2596;" 
d="M0 300h312v-550h-312v550z" />
    <glyph glyph-name="dnrightquadrant" unicode="&#x2597;" 
d="M312 300h312v-550h-312v550z" />
    <glyph glyph-name="upleftquadrant" unicode="&#x2598;" 
d="M0 850h312v-550h-312v550z" />
    <glyph glyph-name="upleftdnleftdnrightquadrant" unicode="&#x2599;" 
d="M0 850h312v-550h312v-550h-624v1100z" />
    <glyph glyph-name="upleftdnrightquadrant" unicode="&#x259a;" 
d="M0 850h312v-550h312v-550h-312v550h-312v550z" />
    <glyph glyph-name="upleftuprightdnleftquadrant" unicode="&#x259b;" 
d="M0 850h624v-550h-312v-550h-312v1100z" />
    <glyph glyph-name="upleftuprightdnrightquadrant" unicode="&#x259c;" 
d="M0 850h624v-1100h-312v550h-312v550z" />
    <glyph glyph-name="uprightquadrant" unicode="&#x259d;" 
d="M312 850h312v-550h-312v550z" />
    <glyph glyph-name="uprightdnleftquadrant" unicode="&#x259e;" 
d="M0 300h312v-550h-312v550zM312 850h312v-550h-312v550z" />
    <glyph glyph-name="uprightdnleftdnrightquadrant" unicode="&#x259f;" 
d="M0 300h312v550h312v-1100h-624v550z" />
    <glyph glyph-name="blacksquare" unicode="&#x25a0;" 
d="M62 700h501v-600h-501v600z" />
    <glyph glyph-name="H22073" unicode="&#x25a1;" 
d="M62 100v600h501v-600h-501zM157 187h311v426h-311v-426z" />
    <glyph glyph-name="blacksmallsquare" unicode="&#x25aa;" 
d="M190 546h244v-292h-244v292z" />
    <glyph glyph-name="whitesmallsquare" unicode="&#x25ab;" 
d="M467 214h-310v372h310v-372zM387 509h-150v-218h150v218z" />
    <glyph glyph-name="triagup" unicode="&#x25b2;" 
d="M320 700l214 -480v-20h-444v20l214 480h16z" />
    <glyph glyph-name="blackrightpointingpointer" unicode="&#x25ba;" 
d="M521 440l-401 -227h-17v474h17l401 -227v-20z" />
    <glyph glyph-name="blackdownpointingtriangle" unicode="&#x25bc;" 
d="M304 150l-214 480v20h444v-20l-214 -480h-16z" />
    <glyph glyph-name="triaglf" unicode="&#x25c4;" 
d="M103 460l401 227h17v-474h-17l-401 227v20z" />
    <glyph glyph-name="lozenge" unicode="&#x25ca;" 
d="M265 0l-212 400l212 400h88l219 -400l-219 -400h-88zM311 60l182 340l-182 340l-174 -340z" />
    <glyph glyph-name="circle" unicode="&#x25cb;" 
d="M314 86q-57 0 -105 23t-84 66q-35 42 -54.5 100t-19.5 126t19.5 126t54.5 101q36 43 84 66t105 23t105 -23t84 -66q35 -43 54.5 -101t19.5 -126t-19.5 -126t-54.5 -100q-36 -43 -84 -66t-105 -23zM314 171q39 0 71 16.5t56 47.5t36.5 73.5t12.5 92.5t-12.5 92.5
t-36.5 73.5t-56 47.5t-71 16.5t-72 -16.5t-56 -47.5q-24 -31 -36.5 -73.5t-12.5 -92.5t12.5 -92.5t36.5 -73.5q23 -31 56 -47.5t72 -16.5z" />
    <glyph glyph-name="H18533" unicode="&#x25cf;" 
d="M314 86q-57 0 -105 23t-84 66q-35 42 -54.5 100t-19.5 126t19.5 126t54.5 101q36 43 84 66t105 23t105 -23t84 -66q35 -43 54.5 -101t19.5 -126t-19.5 -126t-54.5 -100q-36 -43 -84 -66t-105 -23z" />
    <glyph glyph-name="whitebullet" unicode="&#x25e6;" 
d="M486 362q0 -40 -11.5 -71t-34.5 -52q-22 -22 -54.5 -32.5t-72.5 -10.5q-41 0 -73.5 10.5t-54.5 32.5q-23 21 -34.5 52t-11.5 71v72q0 41 12 72.5t34 52.5q23 22 55 33t73 11t73.5 -11t54.5 -33q22 -21 33.5 -52.5t11.5 -72.5v-72zM216 362q0 -25 7 -42.5t20 -27.5
t30.5 -14.5t39.5 -4.5t39 4.5t30 14.5t20 27.5t7 42.5v72q0 26 -7 43.5t-19 28.5q-13 11 -30.5 15.5t-39.5 4.5t-39.5 -4.5t-30.5 -15.5t-20 -28.5t-7 -43.5v-72z" />
    <glyph glyph-name="uni2619" unicode="&#x2619;" 
d="M584 373l-70 2q1 33 -4 59.5t-15.5 45t-26.5 28.5t-35 10h-235q-40 0 -69 14.5t-46.5 41.5t-25 64.5t-5.5 85.5l71 -2q-2 -30 0 -53t10 -40t22.5 -26t37.5 -9h58v82q0 42 12.5 75.5t36.5 56.5t59.5 35.5t81.5 12.5l9 -84q-31 0 -52 -4.5t-35.5 -16.5t-22 -34t-7.5 -56
v-67h101q35 0 64 -14.5t50 -42.5t30.5 -69.5t5.5 -94.5zM317 183v253h36q31 0 53 -7.5t37.5 -24t23 -43.5t7.5 -67v-188q0 -71 -17.5 -130.5t-50.5 -103t-78.5 -67t-99.5 -23.5q-52 0 -91 17t-63.5 47t-36 70.5t-10.5 87.5l74 -5q0 -31 5 -54t14.5 -38t23 -22.5t29.5 -7.5
q14 0 24.5 4.5t17 13t9.5 20.5t3 27v38l-147 215v92q0 38 6.5 68t20 51.5t34.5 33t50 11.5h11l87 -268h28z" />
    <glyph glyph-name="female" unicode="&#x2640;" 
d="M352 -200h-79v205h-169v80h169v168q-43 7 -79 30.5t-62 60.5q-25 36 -39 83.5t-14 102.5q0 61 17 112.5t48 89.5q31 37 74 57.5t94 20.5t94 -20.5t74 -58.5q32 -37 49 -88.5t17 -112.5q0 -55 -14 -102.5t-39 -83.5q-26 -37 -62 -60.5t-79 -30.5v-168h169v-80h-169v-205z
M312 730q-33 0 -60.5 -14t-47.5 -41q-20 -26 -30.5 -63t-10.5 -82q0 -44 10.5 -81t30.5 -64t47.5 -41t60.5 -14q34 0 61.5 14t47.5 41t30.5 63.5t10.5 81.5t-10.5 81.5t-30.5 63.5t-47.5 41t-61.5 14z" />
    <glyph glyph-name="male" unicode="&#x2642;" 
d="M488 260q0 -61 -17 -112.5t-49 -88.5q-31 -38 -74 -58.5t-94 -20.5t-94 20.5t-74 58.5q-32 37 -49 88.5t-17 112.5t17 112.5t49 88.5q31 38 74 58.5t94 20.5q14 0 28.5 -2t27.5 -5q13 -4 26 -9t25 -11l147 214h-211v73h328v-399h-70v282l-138 -215q17 -19 30 -42t22 -49
q10 -26 14.5 -55.5t4.5 -61.5zM254 460q-33 0 -61 -14t-48 -41q-20 -26 -30.5 -63t-10.5 -82q0 -44 10.5 -81t30.5 -64t48 -41t61 -14t61 14t48 41t30.5 64t10.5 81q0 45 -10.5 81.5t-30.5 63.5t-48 41t-61 14z" />
    <glyph glyph-name="spade" unicode="&#x2660;" 
d="M455 90v-90h-284v90h100l11 260h-23l-47 -150h-44q-30 0 -53.5 12.5t-38.5 33.5q-16 22 -23.5 50t-7.5 60v92l236 352h62l237 -352v-92q0 -32 -7.5 -60t-23.5 -50q-15 -21 -38.5 -33.5t-53.5 -12.5h-44l-47 150h-23l11 -260h101z" />
    <glyph glyph-name="club" unicode="&#x2663;" 
d="M193 603q0 41 8 78.5t24 66.5q15 29 37.5 45.5t49.5 16.5t49.5 -16.5t37.5 -45.5q16 -29 24 -66.5t8 -78.5l-58 -106l22 -28q11 18 22 31t21 22q11 10 22.5 14.5t22.5 4.5q22 0 41.5 -10.5t35.5 -30.5q15 -20 24 -49t9 -65q0 -40 -12.5 -77t-35.5 -65q-23 -29 -55 -45
t-70 -16l-41 172h-34l9 -268h102v-87h-287v87h101l9 268h-33l-41 -172q-38 0 -70 15t-55 42t-35.5 64.5t-12.5 81.5q0 35 9.5 63t25.5 47t36 28.5t41 9.5q12 0 23.5 -4.5t22.5 -12.5q10 -8 20 -20t19 -28l22 28z" />
    <glyph glyph-name="heart" unicode="&#x2665;" 
d="M265 0l-203 422l-17 172q-4 41 2.5 78.5t22.5 65.5q16 29 40 45.5t53 16.5q30 0 53.5 -13.5t40.5 -41.5q17 -27 28 -71t15 -104h24q4 58 17 102t32 72q20 29 44.5 42.5t51.5 13.5t49.5 -16.5t37.5 -45.5q15 -28 21.5 -65.5t2.5 -78.5l-17 -172l-204 -422h-94z" />
    <glyph glyph-name="diamond" unicode="&#x2666;" 
d="M264 0l-212 400l212 400h88l219 -400l-219 -400h-88z" />
    <glyph glyph-name="musicalnote" unicode="&#x266a;" 
d="M471 431q0 38 -14 62t-66.5 63t-69.5 64v-468q0 -35 -11.5 -65t-32.5 -52t-49 -33.5t-60 -11.5q-28 0 -49 8.5t-35 23.5t-20.5 35t-6.5 43t9.5 46t27.5 41.5t43.5 29.5t56.5 11h57v582h59q3 -39 25.5 -59t87.5 -67.5t96 -92.5t31 -114q0 -37 -7.5 -69t-21 -58.5
t-30.5 -48.5t-38 -44l-43 57q14 13 24.5 26t19 27t13 30t4.5 34z" />
    <glyph glyph-name="checkmark" unicode="&#x2713;" 
d="M165 0l-162 486h141l100 -313q21 85 46 167t55 160q29 79 62.5 154t71.5 146h138q-50 -91 -93 -187t-79 -197q-37 -100 -66.5 -204t-52.5 -212h-161z" />
    <glyph glyph-name="uni2767" unicode="&#x2767;" 
d="M35 373q-4 53 5.5 95t30.5 70t50.5 42t64.5 14h100v67q0 34 -7.5 56t-22 34t-35.5 16.5t-52 4.5l10 84q45 0 80.5 -12.5t59.5 -35.5t36.5 -56.5t12.5 -75.5v-82h58q23 0 37.5 9t22.5 26t10 40t0 53l72 2q2 -48 -5.5 -86t-25 -64.5t-46.5 -41t-69 -14.5h-235
q-20 0 -36 -10t-26.5 -28.5t-15.5 -45t-3 -59.5zM302 183h28l87 268h11q29 0 50.5 -11.5t35 -33t20 -51.5t6.5 -68v-92l-147 -215v-38q0 -15 3 -27t9 -20.5t16.5 -13t24.5 -4.5q16 0 29.5 7.5t23 22.5t14.5 38t5 54l74 5q1 -47 -10.5 -87.5t-36 -70.5t-63 -47t-90.5 -17
q-54 0 -99.5 23.5t-78.5 67t-50.5 103t-17.5 130.5v188q0 40 7.5 67t23 43.5t37.5 24t52 7.5h36v-253z" />
    <glyph glyph-name="commaaccent" unicode="&#xf6c3;" 
d="M183 -300l63 200h182l-146 -200h-99z" />
    <glyph glyph-name="apple" unicode="&#x1f41b;" 
d="M537 543h73v-39h-73l-172 -27l42 -57h130l40 -115l28 -58l-34 -16l-29 61l-34 89h-86l14 -160h64l13 -217l27 -71l-35 -18l-32 86l-10 175h-30l-75 -207h-91l-77 207h-30l-9 -175l-32 -86l-35 18l26 71l13 217h66l12 160h-86l-33 -89l-30 -61l-33 16l28 58l40 115h130
l41 57l-171 27h-74v39h74l180 -25v42l-35 22v51l54 14v20l-110 60l-53 12l2 39l51 -10l137 -70l136 70l50 10l2 -39l-52 -12l-113 -60v-20l56 -14v-51l-34 -22v-42z" />
    </font>
</defs>
</svg>
