<?xml version="1.0" standalone="no"?>
<!DOCTYPE svg PUBLIC "-//W3C//DTD SVG 1.1//EN" "http://www.w3.org/Graphics/SVG/1.1/DTD/svg11.dtd" >
<svg>
<metadata>
Created by FontForge 20090622 at Sat Apr  6 22:40:20 2019
 By deploy user
(c) Copyright The Font Bureau, Inc. 2014. All rights reserved.
</metadata>
<defs>
<font id="Input-Italic" horiz-adv-x="624" >
  <font-face 
    font-family="Input"
    font-weight="400"
    font-style="italic"
    font-stretch="condensed"
    units-per-em="1100"
    panose-1="2 0 4 9 2 0 0 9 0 4"
    ascent="850"
    descent="-250"
    x-height="600"
    cap-height="800"
    bbox="-206.118 -450 831 1400"
    underline-thickness="0"
    underline-position="0"
    slope="-6"
    unicode-range="U+000D-U+1F41B"
  />
<missing-glyph 
d="M50 -250v1100h524v-1100h-524zM135 -165h354v930h-354v-930z" />
    <glyph glyph-name=".notdef" 
d="M50 -250v1100h524v-1100h-524zM135 -165h354v930h-354v-930z" />
    <glyph glyph-name="NULL" horiz-adv-x="0" 
 />
    <glyph glyph-name="nonmarkingreturn" unicode="&#xd;" horiz-adv-x="0" 
 />
    <glyph glyph-name="space" unicode="&#xa0;" 
 />
    <glyph glyph-name="space" unicode=" " 
 />
    <glyph glyph-name="A" unicode="A" 
d="M397 317l-55 379l-135 -379h190zM443 0l-35 244h-226l-87 -244h-83l301 800h83l132 -800h-85z" />
    <glyph glyph-name="Agrave" unicode="&#xc0;" 
d="M397 317l-55 379l-135 -379h190zM443 0l-35 244h-226l-87 -244h-83l301 800h83l132 -800h-85zM367 900l-141 200h121l94 -200h-74z" />
    <glyph glyph-name="Aacute" unicode="&#xc1;" 
d="M397 317l-55 379l-135 -379h190zM443 0l-35 244h-226l-87 -244h-83l301 800h83l132 -800h-85zM271 900l135 200h122l-183 -200h-74z" />
    <glyph glyph-name="Acircumflex" unicode="&#xc2;" 
d="M397 317l-55 379l-135 -379h190zM443 0l-35 244h-226l-87 -244h-83l301 800h83l132 -800h-85zM222 918l-32 50l168 146h57l139 -146l-45 -51l-132 112z" />
    <glyph glyph-name="Atilde" unicode="&#xc3;" 
d="M397 317l-55 379l-135 -379h190zM443 0l-35 244h-226l-87 -244h-83l301 800h83l132 -800h-85zM431 910q-32 0 -49.5 19.5t-29.5 41.5l-21 41t-26 19q-19 0 -31.5 -24t-16.5 -78l-1 -9h-63l1 15q8 72 41 120.5t86 48.5q35 0 53.5 -19.5t29.5 -40.5l18.5 -41t23.5 -19
q18 0 31 23.5t19 77.5l1 10h62l-2 -15q-7 -74 -40 -122t-86 -48z" />
    <glyph glyph-name="Adieresis" unicode="&#xc4;" 
d="M397 317l-55 379l-135 -379h190zM443 0l-35 244h-226l-87 -244h-83l301 800h83l132 -800h-85zM270 916q-24 0 -37.5 10.5t-9.5 40.5v5q3 31 19 42t40 11q25 0 37.5 -11t9.5 -42v-5q-4 -30 -19.5 -40.5t-39.5 -10.5zM462 916q-25 0 -38 10.5t-9 40.5v5q3 31 18.5 42
t40.5 11q23 0 36.5 -11t10.5 -42v-5q-4 -30 -20 -40.5t-39 -10.5z" />
    <glyph glyph-name="Aring" unicode="&#xc5;" 
d="M397 317l-55 379l-135 -379h190zM443 0l-35 244h-226l-87 -244h-83l301 800h83l132 -800h-85zM363 888q-59 0 -91.5 35t-25.5 107l4 32q7 73 47.5 109t99.5 36q60 0 92 -36t25 -109l-4 -32q-7 -72 -47.5 -107t-99.5 -35zM370 953q34 0 53.5 17.5t23.5 59.5l4 32
q4 41 -11.5 60.5t-49.5 19.5t-53.5 -19.5t-23.5 -60.5l-4 -32q-4 -42 11.5 -59.5t49.5 -17.5z" />
    <glyph glyph-name="Amacron" unicode="&#x100;" 
d="M397 317l-55 379l-135 -379h190zM443 0l-35 244h-226l-87 -244h-83l301 800h83l132 -800h-85zM205 964l8 72h332l-8 -72h-332z" />
    <glyph glyph-name="Abreve" unicode="&#x102;" 
d="M397 317l-55 379l-135 -379h190zM443 0l-35 244h-226l-87 -244h-83l301 800h83l132 -800h-85zM364 893q-87 0 -134.5 48.5t-37.5 152.5h82q-7 -72 17.5 -102.5t79.5 -30.5t85.5 30.5t39.5 102.5h82q-12 -104 -69.5 -152.5t-144.5 -48.5z" />
    <glyph glyph-name="Aogonek" unicode="&#x104;" 
d="M397 317l-55 379l-135 -379h190zM443 0l-35 244h-226l-87 -244h-83l301 800h83l132 -800h-85zM463 -213q-52 0 -85 31.5t-27 85.5q5 44 40.5 80t74.5 54l20 -15q-32 -22 -45 -49t-15 -46q-3 -28 11.5 -43.5t42.5 -15.5q15 0 38.5 3.5t36.5 6.5l-8 -82q-17 -4 -41 -7
t-43 -3z" />
    <glyph glyph-name="Aringacute" unicode="&#x1fa;" 
d="M397 317l-55 379l-135 -379h190zM443 0l-35 244h-226l-87 -244h-83l301 800h83l132 -800h-85zM363 888q-59 0 -91.5 35t-25.5 107l4 32q7 73 47.5 109t99.5 36q60 0 92 -36t25 -109l-4 -32q-7 -72 -47.5 -107t-99.5 -35zM370 953q34 0 53.5 17.5t23.5 59.5l4 32
q4 41 -11.5 60.5t-49.5 19.5t-53.5 -19.5t-23.5 -60.5l-4 -32q-4 -42 11.5 -59.5t49.5 -17.5zM320 1200l135 200h122l-183 -200h-74z" />
    <glyph glyph-name="B" unicode="B" 
d="M63 0l84 800h205q103 0 148 -46.5t35 -141.5l-5 -48q-5 -47 -35 -82t-76 -44l-3 -29q56 -6 85.5 -50.5t22.5 -113.5l-5 -43q-10 -102 -71 -152t-174 -50h-211zM191 454h134q61 0 91 29t37 95l2 22q7 66 -17 95t-85 29h-134zM151 76h151q65 0 98 32.5t40 104.5l3 27
q8 73 -18 105.5t-91 32.5h-151z" />
    <glyph glyph-name="C" unicode="C" 
d="M278 -10q-116 0 -167.5 69.5t-37.5 206.5l28 264q14 139 80.5 209.5t182.5 70.5q113 0 162.5 -64.5t41.5 -200.5l-80 -10q4 113 -24.5 158t-106.5 45q-84 0 -123.5 -46t-51.5 -155l-29 -278q-10 -101 21.5 -149t111.5 -48q78 0 115.5 43.5t57.5 155.5l78 -10
q-21 -134 -83.5 -197.5t-175.5 -63.5z" />
    <glyph glyph-name="Ccedilla" unicode="&#xc7;" 
d="M278 -10q-116 0 -167.5 69.5t-37.5 206.5l28 264q14 139 80.5 209.5t182.5 70.5q113 0 162.5 -64.5t41.5 -200.5l-80 -10q4 113 -24.5 158t-106.5 45q-84 0 -123.5 -46t-51.5 -155l-29 -278q-10 -101 21.5 -149t111.5 -48q78 0 115.5 43.5t57.5 155.5l78 -10
q-21 -134 -83.5 -197.5t-175.5 -63.5zM253 0l20 42q43 -10 68.5 -43t19.5 -90q-6 -63 -47 -92.5t-85 -29.5q-53 0 -85 21.5t-30 75.5l72 10q-1 -19 9.5 -26.5t36.5 -7.5q25 0 39.5 13t18.5 47q3 37 -5 54.5t-32 25.5z" />
    <glyph glyph-name="Cacute" unicode="&#x106;" 
d="M278 -10q-116 0 -167.5 69.5t-37.5 206.5l28 264q14 139 80.5 209.5t182.5 70.5q113 0 162.5 -64.5t41.5 -200.5l-80 -10q4 113 -24.5 158t-106.5 45q-84 0 -123.5 -46t-51.5 -155l-29 -278q-10 -101 21.5 -149t111.5 -48q78 0 115.5 43.5t57.5 155.5l78 -10
q-21 -134 -83.5 -197.5t-175.5 -63.5zM313 900l135 200h122l-183 -200h-74z" />
    <glyph glyph-name="Ccircumflex" unicode="&#x108;" 
d="M278 -10q-116 0 -167.5 69.5t-37.5 206.5l28 264q14 139 80.5 209.5t182.5 70.5q113 0 162.5 -64.5t41.5 -200.5l-80 -10q4 113 -24.5 158t-106.5 45q-84 0 -123.5 -46t-51.5 -155l-29 -278q-10 -101 21.5 -149t111.5 -48q78 0 115.5 43.5t57.5 155.5l78 -10
q-21 -134 -83.5 -197.5t-175.5 -63.5zM229 918l-32 50l168 146h57l139 -146l-45 -51l-132 112z" />
    <glyph glyph-name="Cdotaccent" unicode="&#x10a;" 
d="M278 -10q-116 0 -167.5 69.5t-37.5 206.5l28 264q14 139 80.5 209.5t182.5 70.5q113 0 162.5 -64.5t41.5 -200.5l-80 -10q4 113 -24.5 158t-106.5 45q-84 0 -123.5 -46t-51.5 -155l-29 -278q-10 -101 21.5 -149t111.5 -48q78 0 115.5 43.5t57.5 155.5l78 -10
q-21 -134 -83.5 -197.5t-175.5 -63.5zM373 916q-31 0 -49.5 10.5t-14.5 40.5v5q3 31 24 42t52 11t49 -11t15 -42v-5q-4 -30 -24.5 -40.5t-51.5 -10.5z" />
    <glyph glyph-name="Ccaron" unicode="&#x10c;" 
d="M278 -10q-116 0 -167.5 69.5t-37.5 206.5l28 264q14 139 80.5 209.5t182.5 70.5q113 0 162.5 -64.5t41.5 -200.5l-80 -10q4 113 -24.5 158t-106.5 45q-84 0 -123.5 -46t-51.5 -155l-29 -278q-10 -101 21.5 -149t111.5 -48q78 0 115.5 43.5t57.5 155.5l78 -10
q-21 -134 -83.5 -197.5t-175.5 -63.5zM344 904l-139 146l45 50l132 -110l155 110l32 -50l-168 -146h-57z" />
    <glyph glyph-name="D" unicode="D" 
d="M63 0l84 800h181q116 0 175.5 -75t46.5 -200l-27 -254q-12 -123 -87.5 -197t-191.5 -74h-181zM151 72h102q83 0 131.5 53t57.5 141l28 264q9 89 -28 143.5t-120 54.5h-102z" />
    <glyph glyph-name="Dcaron" unicode="&#x10e;" 
d="M63 0l84 800h181q116 0 175.5 -75t46.5 -200l-27 -254q-12 -123 -87.5 -197t-191.5 -74h-181zM151 72h102q83 0 131.5 53t57.5 141l28 264q9 89 -28 143.5t-120 54.5h-102zM336 904l-139 146l45 50l132 -110l155 110l32 -50l-168 -146h-57z" />
    <glyph glyph-name="E" unicode="E" 
d="M63 0l84 800h432l-7 -72h-352l-27 -254h310l-8 -73h-310l-34 -329h352l-8 -72h-432z" />
    <glyph glyph-name="Egrave" unicode="&#xc8;" 
d="M63 0l84 800h432l-7 -72h-352l-27 -254h310l-8 -73h-310l-34 -329h352l-8 -72h-432zM374 900l-141 200h121l94 -200h-74z" />
    <glyph glyph-name="Eacute" unicode="&#xc9;" 
d="M63 0l84 800h432l-7 -72h-352l-27 -254h310l-8 -73h-310l-34 -329h352l-8 -72h-432zM295 900l135 200h122l-183 -200h-74z" />
    <glyph glyph-name="Ecircumflex" unicode="&#xca;" 
d="M63 0l84 800h432l-7 -72h-352l-27 -254h310l-8 -73h-310l-34 -329h352l-8 -72h-432zM238 918l-32 50l168 146h57l139 -146l-45 -51l-132 112z" />
    <glyph glyph-name="Edieresis" unicode="&#xcb;" 
d="M63 0l84 800h432l-7 -72h-352l-27 -254h310l-8 -73h-310l-34 -329h352l-8 -72h-432zM286 916q-24 0 -37.5 10.5t-9.5 40.5v5q3 31 19 42t40 11q25 0 37.5 -11t9.5 -42v-5q-4 -30 -19.5 -40.5t-39.5 -10.5zM478 916q-25 0 -38 10.5t-9 40.5v5q3 31 18.5 42t40.5 11
q23 0 36.5 -11t10.5 -42v-5q-4 -30 -20 -40.5t-39 -10.5z" />
    <glyph glyph-name="Emacron" unicode="&#x112;" 
d="M63 0l84 800h432l-7 -72h-352l-27 -254h310l-8 -73h-310l-34 -329h352l-8 -72h-432zM221 964l8 72h332l-8 -72h-332z" />
    <glyph glyph-name="Ebreve" unicode="&#x114;" 
d="M63 0l84 800h432l-7 -72h-352l-27 -254h310l-8 -73h-310l-34 -329h352l-8 -72h-432zM380 893q-87 0 -134.5 48.5t-37.5 152.5h82q-7 -72 17.5 -102.5t79.5 -30.5t85.5 30.5t39.5 102.5h82q-12 -104 -69.5 -152.5t-144.5 -48.5z" />
    <glyph glyph-name="Edotaccent" unicode="&#x116;" 
d="M63 0l84 800h432l-7 -72h-352l-27 -254h310l-8 -73h-310l-34 -329h352l-8 -72h-432zM382 916q-31 0 -49.5 10.5t-14.5 40.5v5q3 31 24 42t52 11t49 -11t15 -42v-5q-4 -30 -24.5 -40.5t-51.5 -10.5z" />
    <glyph glyph-name="Eogonek" unicode="&#x118;" 
d="M390 -213q-52 0 -85 31.5t-27 85.5q5 44 40.5 80t74.5 54l20 -15q-32 -22 -45 -49t-15 -46q-3 -28 11.5 -43.5t42.5 -15.5q15 0 38.5 3.5t36.5 6.5l-8 -82q-17 -4 -41 -7t-43 -3zM63 0l84 800h432l-7 -72h-352l-27 -254h310l-8 -73h-310l-34 -329h352l-8 -72h-432z" />
    <glyph glyph-name="Ecaron" unicode="&#x11a;" 
d="M63 0l84 800h432l-7 -72h-352l-27 -254h310l-8 -73h-310l-34 -329h352l-8 -72h-432zM362 904l-139 146l45 50l132 -110l155 110l32 -50l-168 -146h-57z" />
    <glyph glyph-name="F" unicode="F" 
d="M61 0l84 800h433l-7 -72h-353l-36 -342h294l-8 -73h-294l-33 -313h-80z" />
    <glyph glyph-name="G" unicode="G" 
d="M283 -10q-119 0 -171 74.5t-39 201.5l28 264q14 137 81.5 208.5t181.5 71.5q104 0 150.5 -60t39.5 -191l-82 -10q4 101 -22.5 145t-94.5 44q-81 0 -121 -45.5t-52 -156.5l-29 -277q-11 -107 22 -152t119 -45q77 0 116 54t52 182h-161l8 72h242l-10 -92
q-14 -140 -80.5 -214t-177.5 -74z" />
    <glyph glyph-name="Gcircumflex" unicode="&#x11c;" 
d="M283 -10q-119 0 -171 74.5t-39 201.5l28 264q14 137 81.5 208.5t181.5 71.5q104 0 150.5 -60t39.5 -191l-82 -10q4 101 -22.5 145t-94.5 44q-81 0 -121 -45.5t-52 -156.5l-29 -277q-11 -107 22 -152t119 -45q77 0 116 54t52 182h-161l8 72h242l-10 -92
q-14 -140 -80.5 -214t-177.5 -74zM238 918l-32 50l168 146h57l139 -146l-45 -51l-132 112z" />
    <glyph glyph-name="Gbreve" unicode="&#x11e;" 
d="M283 -10q-119 0 -171 74.5t-39 201.5l28 264q14 137 81.5 208.5t181.5 71.5q104 0 150.5 -60t39.5 -191l-82 -10q4 101 -22.5 145t-94.5 44q-81 0 -121 -45.5t-52 -156.5l-29 -277q-11 -107 22 -152t119 -45q77 0 116 54t52 182h-161l8 72h242l-10 -92
q-14 -140 -80.5 -214t-177.5 -74zM380 893q-87 0 -134.5 48.5t-37.5 152.5h82q-7 -72 17.5 -102.5t79.5 -30.5t85.5 30.5t39.5 102.5h82q-12 -104 -69.5 -152.5t-144.5 -48.5z" />
    <glyph glyph-name="Gdotaccent" unicode="&#x120;" 
d="M283 -10q-119 0 -171 74.5t-39 201.5l28 264q14 137 81.5 208.5t181.5 71.5q104 0 150.5 -60t39.5 -191l-82 -10q4 101 -22.5 145t-94.5 44q-81 0 -121 -45.5t-52 -156.5l-29 -277q-11 -107 22 -152t119 -45q77 0 116 54t52 182h-161l8 72h242l-10 -92
q-14 -140 -80.5 -214t-177.5 -74zM373 916q-31 0 -49.5 10.5t-14.5 40.5v5q3 31 24 42t52 11t49 -11t15 -42v-5q-4 -30 -24.5 -40.5t-51.5 -10.5z" />
    <glyph glyph-name="Gcommaaccent" unicode="&#x122;" 
d="M135 -300l102 200h122l-149 -200h-75zM283 -10q-119 0 -171 74.5t-39 201.5l28 264q14 137 81.5 208.5t181.5 71.5q104 0 150.5 -60t39.5 -191l-82 -10q4 101 -22.5 145t-94.5 44q-81 0 -121 -45.5t-52 -156.5l-29 -277q-11 -107 22 -152t119 -45q77 0 116 54t52 182
h-161l8 72h242l-10 -92q-14 -140 -80.5 -214t-177.5 -74z" />
    <glyph glyph-name="H" unicode="H" 
d="M63 0l84 800h80l-35 -331h254l35 331h80l-84 -800h-80l42 396h-254l-42 -396h-80z" />
    <glyph glyph-name="Hcircumflex" unicode="&#x124;" 
d="M63 0l84 800h80l-35 -331h254l35 331h80l-84 -800h-80l42 396h-254l-42 -396h-80zM221 918l-32 50l168 146h57l139 -146l-45 -51l-132 112z" />
    <glyph glyph-name="I" unicode="I" 
d="M63 0l8 72h167l69 656h-167l7 72h414l-7 -72h-167l-69 -656h167l-8 -72h-414z" />
    <glyph glyph-name="Igrave" unicode="&#xcc;" 
d="M63 0l8 72h167l69 656h-167l7 72h414l-7 -72h-167l-69 -656h167l-8 -72h-414zM366 900l-141 200h121l94 -200h-74z" />
    <glyph glyph-name="Iacute" unicode="&#xcd;" 
d="M63 0l8 72h167l69 656h-167l7 72h414l-7 -72h-167l-69 -656h167l-8 -72h-414zM270 900l135 200h122l-183 -200h-74z" />
    <glyph glyph-name="Icircumflex" unicode="&#xce;" 
d="M63 0l8 72h167l69 656h-167l7 72h414l-7 -72h-167l-69 -656h167l-8 -72h-414zM221 918l-32 50l168 146h57l139 -146l-45 -51l-132 112z" />
    <glyph glyph-name="Idieresis" unicode="&#xcf;" 
d="M63 0l8 72h167l69 656h-167l7 72h414l-7 -72h-167l-69 -656h167l-8 -72h-414zM269 916q-24 0 -37.5 10.5t-9.5 40.5v5q3 31 19 42t40 11q25 0 37.5 -11t9.5 -42v-5q-4 -30 -19.5 -40.5t-39.5 -10.5zM461 916q-25 0 -38 10.5t-9 40.5v5q3 31 18.5 42t40.5 11
q23 0 36.5 -11t10.5 -42v-5q-4 -30 -20 -40.5t-39 -10.5z" />
    <glyph glyph-name="Itilde" unicode="&#x128;" 
d="M63 0l8 72h167l69 656h-167l7 72h414l-7 -72h-167l-69 -656h167l-8 -72h-414zM430 910q-32 0 -49.5 19.5t-29.5 41.5l-21 41t-26 19q-19 0 -31.5 -24t-16.5 -78l-1 -9h-63l1 15q8 72 41 120.5t86 48.5q35 0 53.5 -19.5t29.5 -40.5l18.5 -41t23.5 -19q18 0 31 23.5
t19 77.5l1 10h62l-2 -15q-7 -74 -40 -122t-86 -48z" />
    <glyph glyph-name="Imacron" unicode="&#x12a;" 
d="M63 0l8 72h167l69 656h-167l7 72h414l-7 -72h-167l-69 -656h167l-8 -72h-414zM204 964l8 72h332l-8 -72h-332z" />
    <glyph glyph-name="Ibreve" unicode="&#x12c;" 
d="M63 0l8 72h167l69 656h-167l7 72h414l-7 -72h-167l-69 -656h167l-8 -72h-414zM363 893q-87 0 -134.5 48.5t-37.5 152.5h82q-7 -72 17.5 -102.5t79.5 -30.5t85.5 30.5t39.5 102.5h82q-12 -104 -69.5 -152.5t-144.5 -48.5z" />
    <glyph glyph-name="Iogonek" unicode="&#x12e;" 
d="M63 0l8 72h167l69 656h-167l7 72h414l-7 -72h-167l-69 -656h167l-8 -72h-414zM306 -213q-52 0 -85 31.5t-27 85.5q5 44 40.5 80t74.5 54l20 -15q-32 -22 -45 -49t-15 -46q-3 -28 11.5 -43.5t42.5 -15.5q15 0 38.5 3.5t36.5 6.5l-8 -82q-17 -4 -41 -7t-43 -3z" />
    <glyph glyph-name="Idotaccent" unicode="&#x130;" 
d="M63 0l8 72h167l69 656h-167l7 72h414l-7 -72h-167l-69 -656h167l-8 -72h-414zM365 916q-31 0 -49.5 10.5t-14.5 40.5v5q3 31 24 42t52 11t49 -11t15 -42v-5q-4 -30 -24.5 -40.5t-51.5 -10.5z" />
    <glyph glyph-name="J" unicode="J" 
d="M253 -10q-112 0 -159.5 61t-38.5 197l81 11q-5 -116 20 -156.5t106 -40.5q72 0 112 45.5t50 135.5l51 485h-166l7 72h246l-58 -555q-13 -125 -78.5 -190t-172.5 -65z" />
    <glyph glyph-name="Jcircumflex" unicode="&#x134;" 
d="M253 -10q-112 0 -159.5 61t-38.5 197l81 11q-5 -116 20 -156.5t106 -40.5q72 0 112 45.5t50 135.5l51 485h-166l7 72h246l-58 -555q-13 -125 -78.5 -190t-172.5 -65zM297 918l-32 50l168 146h57l139 -146l-45 -51l-132 112z" />
    <glyph glyph-name="K" unicode="K" 
d="M184 393l-41 -393h-80l84 800h80l-35 -334h28l297 334h94l-334 -367l248 -433h-98l-212 393h-31z" />
    <glyph glyph-name="Kcommaaccent" unicode="&#x136;" 
d="M184 393l-41 -393h-80l84 800h80l-35 -334h28l297 334h94l-334 -367l248 -433h-98l-212 393h-31zM126 -300l102 200h122l-149 -200h-75z" />
    <glyph glyph-name="L" unicode="L" 
d="M105 0l84 800h79l-76 -728h293l-8 -72h-372z" />
    <glyph glyph-name="Lacute" unicode="&#x139;" 
d="M105 0l84 800h79l-76 -728h293l-8 -72h-372zM231 900l135 200h122l-183 -200h-74z" />
    <glyph glyph-name="Lcommaaccent" unicode="&#x13b;" 
d="M105 0l84 800h79l-76 -728h293l-8 -72h-372zM138 -300l102 200h122l-149 -200h-75z" />
    <glyph glyph-name="Lcaron" unicode="&#x13d;" 
d="M105 0l84 800h79l-76 -728h293l-8 -72h-372zM373 505l99 295h119l-160 -295h-58z" />
    <glyph glyph-name="M" unicode="M" 
d="M250 186l-73 492l-72 -678h-72l84 800h110l77 -504l181 504h106l-84 -800h-72l70 672l-175 -486h-80z" />
    <glyph glyph-name="N" unicode="N" 
d="M360 0l-150 713l-75 -713h-72l84 800h111l156 -712l75 712h72l-84 -800h-117z" />
    <glyph glyph-name="Ntilde" unicode="&#xd1;" 
d="M360 0l-150 713l-75 -713h-72l84 800h111l156 -712l75 712h72l-84 -800h-117zM447 910q-32 0 -49.5 19.5t-29.5 41.5l-21 41t-26 19q-19 0 -31.5 -24t-16.5 -78l-1 -9h-63l1 15q8 72 41 120.5t86 48.5q35 0 53.5 -19.5t29.5 -40.5l18.5 -41t23.5 -19q18 0 31 23.5
t19 77.5l1 10h62l-2 -15q-7 -74 -40 -122t-86 -48z" />
    <glyph glyph-name="Nacute" unicode="&#x143;" 
d="M360 0l-150 713l-75 -713h-72l84 800h111l156 -712l75 712h72l-84 -800h-117zM286 900l135 200h122l-183 -200h-74z" />
    <glyph glyph-name="Ncommaaccent" unicode="&#x145;" 
d="M110 -300l102 200h122l-149 -200h-75zM360 0l-150 713l-75 -713h-72l84 800h111l156 -712l75 712h72l-84 -800h-117z" />
    <glyph glyph-name="Ncaron" unicode="&#x147;" 
d="M360 0l-150 713l-75 -713h-72l84 800h111l156 -712l75 712h72l-84 -800h-117zM353 904l-139 146l45 50l132 -110l155 110l32 -50l-168 -146h-57z" />
    <glyph glyph-name="O" unicode="O" 
d="M269 -10q-109 0 -159.5 71.5t-36.5 208.5l27 256q15 140 80.5 212t175.5 72q109 0 159 -72t35 -212l-27 -256q-14 -137 -79 -208.5t-175 -71.5zM277 62q78 0 115.5 46.5t49.5 155.5l28 268q12 111 -16 158.5t-106 47.5t-116 -47.5t-50 -158.5l-28 -268
q-12 -109 16.5 -155.5t106.5 -46.5z" />
    <glyph glyph-name="Ograve" unicode="&#xd2;" 
d="M269 -10q-109 0 -159.5 71.5t-36.5 208.5l27 256q15 140 80.5 212t175.5 72q109 0 159 -72t35 -212l-27 -256q-14 -137 -79 -208.5t-175 -71.5zM277 62q78 0 115.5 46.5t49.5 155.5l28 268q12 111 -16 158.5t-106 47.5t-116 -47.5t-50 -158.5l-28 -268
q-12 -109 16.5 -155.5t106.5 -46.5zM366 900l-141 200h121l94 -200h-74z" />
    <glyph glyph-name="Oacute" unicode="&#xd3;" 
d="M269 -10q-109 0 -159.5 71.5t-36.5 208.5l27 256q15 140 80.5 212t175.5 72q109 0 159 -72t35 -212l-27 -256q-14 -137 -79 -208.5t-175 -71.5zM277 62q78 0 115.5 46.5t49.5 155.5l28 268q12 111 -16 158.5t-106 47.5t-116 -47.5t-50 -158.5l-28 -268
q-12 -109 16.5 -155.5t106.5 -46.5zM304 900l135 200h122l-183 -200h-74z" />
    <glyph glyph-name="Ocircumflex" unicode="&#xd4;" 
d="M269 -10q-109 0 -159.5 71.5t-36.5 208.5l27 256q15 140 80.5 212t175.5 72q109 0 159 -72t35 -212l-27 -256q-14 -137 -79 -208.5t-175 -71.5zM277 62q78 0 115.5 46.5t49.5 155.5l28 268q12 111 -16 158.5t-106 47.5t-116 -47.5t-50 -158.5l-28 -268
q-12 -109 16.5 -155.5t106.5 -46.5zM221 918l-32 50l168 146h57l139 -146l-45 -51l-132 112z" />
    <glyph glyph-name="Otilde" unicode="&#xd5;" 
d="M269 -10q-109 0 -159.5 71.5t-36.5 208.5l27 256q15 140 80.5 212t175.5 72q109 0 159 -72t35 -212l-27 -256q-14 -137 -79 -208.5t-175 -71.5zM277 62q78 0 115.5 46.5t49.5 155.5l28 268q12 111 -16 158.5t-106 47.5t-116 -47.5t-50 -158.5l-28 -268
q-12 -109 16.5 -155.5t106.5 -46.5zM430 910q-32 0 -49.5 19.5t-29.5 41.5l-21 41t-26 19q-19 0 -31.5 -24t-16.5 -78l-1 -9h-63l1 15q8 72 41 120.5t86 48.5q35 0 53.5 -19.5t29.5 -40.5l18.5 -41t23.5 -19q18 0 31 23.5t19 77.5l1 10h62l-2 -15q-7 -74 -40 -122t-86 -48z
" />
    <glyph glyph-name="Odieresis" unicode="&#xd6;" 
d="M269 -10q-109 0 -159.5 71.5t-36.5 208.5l27 256q15 140 80.5 212t175.5 72q109 0 159 -72t35 -212l-27 -256q-14 -137 -79 -208.5t-175 -71.5zM277 62q78 0 115.5 46.5t49.5 155.5l28 268q12 111 -16 158.5t-106 47.5t-116 -47.5t-50 -158.5l-28 -268
q-12 -109 16.5 -155.5t106.5 -46.5zM269 916q-24 0 -37.5 10.5t-9.5 40.5v5q3 31 19 42t40 11q25 0 37.5 -11t9.5 -42v-5q-4 -30 -19.5 -40.5t-39.5 -10.5zM461 916q-25 0 -38 10.5t-9 40.5v5q3 31 18.5 42t40.5 11q23 0 36.5 -11t10.5 -42v-5q-4 -30 -20 -40.5t-39 -10.5z
" />
    <glyph glyph-name="Omacron" unicode="&#x14c;" 
d="M269 -10q-109 0 -159.5 71.5t-36.5 208.5l27 256q15 140 80.5 212t175.5 72q109 0 159 -72t35 -212l-27 -256q-14 -137 -79 -208.5t-175 -71.5zM277 62q78 0 115.5 46.5t49.5 155.5l28 268q12 111 -16 158.5t-106 47.5t-116 -47.5t-50 -158.5l-28 -268
q-12 -109 16.5 -155.5t106.5 -46.5zM204 964l8 72h332l-8 -72h-332z" />
    <glyph glyph-name="Obreve" unicode="&#x14e;" 
d="M269 -10q-109 0 -159.5 71.5t-36.5 208.5l27 256q15 140 80.5 212t175.5 72q109 0 159 -72t35 -212l-27 -256q-14 -137 -79 -208.5t-175 -71.5zM277 62q78 0 115.5 46.5t49.5 155.5l28 268q12 111 -16 158.5t-106 47.5t-116 -47.5t-50 -158.5l-28 -268
q-12 -109 16.5 -155.5t106.5 -46.5zM363 893q-87 0 -134.5 48.5t-37.5 152.5h82q-7 -72 17.5 -102.5t79.5 -30.5t85.5 30.5t39.5 102.5h82q-12 -104 -69.5 -152.5t-144.5 -48.5z" />
    <glyph glyph-name="Ohungarumlaut" unicode="&#x150;" 
d="M269 -10q-109 0 -159.5 71.5t-36.5 208.5l27 256q15 140 80.5 212t175.5 72q109 0 159 -72t35 -212l-27 -256q-14 -137 -79 -208.5t-175 -71.5zM277 62q78 0 115.5 46.5t49.5 155.5l28 268q12 111 -16 158.5t-106 47.5t-116 -47.5t-50 -158.5l-28 -268
q-12 -109 16.5 -155.5t106.5 -46.5zM411 900l68 200h115l-125 -200h-58zM219 900l68 200h115l-125 -200h-58z" />
    <glyph glyph-name="P" unicode="P" 
d="M63 0l84 800h234q108 0 151.5 -50.5t32.5 -159.5l-9 -86q-12 -110 -67 -161.5t-163 -51.5h-152l-31 -291h-80zM181 361h151q69 0 102.5 32.5t41.5 106.5l9 91q8 72 -18.5 104.5t-95.5 32.5h-151z" />
    <glyph glyph-name="Q" unicode="Q" 
d="M503 -185q-107 -28 -179 4t-61 160q-107 2 -156 74.5t-35 207.5l28 265q15 138 81 211t175 73q108 0 158.5 -73t35.5 -211l-28 -265q-11 -110 -57 -179t-120 -91q-6 -87 41.5 -103t110.5 -3zM276 61q78 0 116 44t48 145l30 286q11 106 -17 152t-106 46t-116 -46t-49 -152
l-30 -286q-10 -101 18 -145t106 -44z" />
    <glyph glyph-name="R" unicode="R" 
d="M184 389h170q68 0 101.5 34.5t41.5 108.5l7 63q7 69 -19.5 101t-94.5 32h-170zM143 0h-80l84 800h251q104 0 150 -51.5t35 -156.5l-6 -59q-10 -98 -57 -151t-132 -63l140 -319h-92l-139 319h-120z" />
    <glyph glyph-name="Racute" unicode="&#x154;" 
d="M184 389h170q68 0 101.5 34.5t41.5 108.5l7 63q7 69 -19.5 101t-94.5 32h-170zM143 0h-80l84 800h251q104 0 150 -51.5t35 -156.5l-6 -59q-10 -98 -57 -151t-132 -63l140 -319h-92l-139 319h-120zM335 900l135 200h122l-183 -200h-74z" />
    <glyph glyph-name="Rcommaaccent" unicode="&#x156;" 
d="M184 389h170q68 0 101.5 34.5t41.5 108.5l7 63q7 69 -19.5 101t-94.5 32h-170zM143 0h-80l84 800h251q104 0 150 -51.5t35 -156.5l-6 -59q-10 -98 -57 -151t-132 -63l140 -319h-92l-139 319h-120zM115 -300l102 200h122l-149 -200h-75z" />
    <glyph glyph-name="Rcaron" unicode="&#x158;" 
d="M184 389h170q68 0 101.5 34.5t41.5 108.5l7 63q7 69 -19.5 101t-94.5 32h-170zM143 0h-80l84 800h251q104 0 150 -51.5t35 -156.5l-6 -59q-10 -98 -57 -151t-132 -63l140 -319h-92l-139 319h-120zM341 904l-139 146l45 50l132 -110l155 110l32 -50l-168 -146h-57z" />
    <glyph glyph-name="S" unicode="S" 
d="M280 -8q-72 0 -135.5 27t-105.5 81l50 61q38 -49 91 -72.5t116 -23.5q67 0 111.5 38t51.5 105q6 57 -25 90t-135 76q-118 47 -159.5 96.5t-33.5 132.5q11 97 75.5 148t158.5 51q66 0 127.5 -27.5t98.5 -81.5l-48 -64q-37 49 -87 75t-103 26q-58 0 -96.5 -31t-44.5 -91
q-6 -54 27 -86.5t143 -76.5q112 -43 151.5 -90.5t31.5 -129.5q-12 -110 -86 -171.5t-174 -61.5z" />
    <glyph glyph-name="Sacute" unicode="&#x15a;" 
d="M280 -8q-72 0 -135.5 27t-105.5 81l50 61q38 -49 91 -72.5t116 -23.5q67 0 111.5 38t51.5 105q6 57 -25 90t-135 76q-118 47 -159.5 96.5t-33.5 132.5q11 97 75.5 148t158.5 51q66 0 127.5 -27.5t98.5 -81.5l-48 -64q-37 49 -87 75t-103 26q-58 0 -96.5 -31t-44.5 -91
q-6 -54 27 -86.5t143 -76.5q112 -43 151.5 -90.5t31.5 -129.5q-12 -110 -86 -171.5t-174 -61.5zM271 900l135 200h122l-183 -200h-74z" />
    <glyph glyph-name="Scircumflex" unicode="&#x15c;" 
d="M280 -8q-72 0 -135.5 27t-105.5 81l50 61q38 -49 91 -72.5t116 -23.5q67 0 111.5 38t51.5 105q6 57 -25 90t-135 76q-118 47 -159.5 96.5t-33.5 132.5q11 97 75.5 148t158.5 51q66 0 127.5 -27.5t98.5 -81.5l-48 -64q-37 49 -87 75t-103 26q-58 0 -96.5 -31t-44.5 -91
q-6 -54 27 -86.5t143 -76.5q112 -43 151.5 -90.5t31.5 -129.5q-12 -110 -86 -171.5t-174 -61.5zM222 918l-32 50l168 146h57l139 -146l-45 -51l-132 112z" />
    <glyph glyph-name="Scedilla" unicode="&#x15e;" 
d="M280 -8q-72 0 -135.5 27t-105.5 81l50 61q38 -49 91 -72.5t116 -23.5q67 0 111.5 38t51.5 105q6 57 -25 90t-135 76q-118 47 -159.5 96.5t-33.5 132.5q11 97 75.5 148t158.5 51q66 0 127.5 -27.5t98.5 -81.5l-48 -64q-37 49 -87 75t-103 26q-58 0 -96.5 -31t-44.5 -91
q-6 -54 27 -86.5t143 -76.5q112 -43 151.5 -90.5t31.5 -129.5q-12 -110 -86 -171.5t-174 -61.5zM246 0l20 42q43 -10 68.5 -43t19.5 -90q-6 -63 -47 -92.5t-85 -29.5q-53 0 -85 21.5t-30 75.5l72 10q-1 -19 9.5 -26.5t36.5 -7.5q25 0 39.5 13t18.5 47q3 37 -5 54.5t-32 25.5
z" />
    <glyph glyph-name="Scaron" unicode="&#x160;" 
d="M280 -8q-72 0 -135.5 27t-105.5 81l50 61q38 -49 91 -72.5t116 -23.5q67 0 111.5 38t51.5 105q6 57 -25 90t-135 76q-118 47 -159.5 96.5t-33.5 132.5q11 97 75.5 148t158.5 51q66 0 127.5 -27.5t98.5 -81.5l-48 -64q-37 49 -87 75t-103 26q-58 0 -96.5 -31t-44.5 -91
q-6 -54 27 -86.5t143 -76.5q112 -43 151.5 -90.5t31.5 -129.5q-12 -110 -86 -171.5t-174 -61.5zM337 904l-139 146l45 50l132 -110l155 110l32 -50l-168 -146h-57z" />
    <glyph glyph-name="Scommaaccent" unicode="&#x218;" 
d="M280 -8q-72 0 -135.5 27t-105.5 81l50 61q38 -49 91 -72.5t116 -23.5q67 0 111.5 38t51.5 105q6 57 -25 90t-135 76q-118 47 -159.5 96.5t-33.5 132.5q11 97 75.5 148t158.5 51q66 0 127.5 -27.5t98.5 -81.5l-48 -64q-37 49 -87 75t-103 26q-58 0 -96.5 -31t-44.5 -91
q-6 -54 27 -86.5t143 -76.5q112 -43 151.5 -90.5t31.5 -129.5q-12 -110 -86 -171.5t-174 -61.5zM111 -300l102 200h122l-149 -200h-75z" />
    <glyph glyph-name="T" unicode="T" 
d="M230 0l77 728h-206l7 72h493l-7 -72h-207l-77 -728h-80z" />
    <glyph glyph-name="Tcedilla" unicode="&#x162;" 
d="M230 0l77 728h-206l7 72h493l-7 -72h-207l-77 -728h-80zM234 0l20 42q43 -10 68.5 -43t19.5 -90q-6 -63 -47 -92.5t-85 -29.5q-53 0 -85 21.5t-30 75.5l72 10q-1 -19 9.5 -26.5t36.5 -7.5q25 0 39.5 13t18.5 47q3 37 -5 54.5t-32 25.5z" />
    <glyph glyph-name="Tcaron" unicode="&#x164;" 
d="M230 0l77 728h-206l7 72h493l-7 -72h-207l-77 -728h-80zM336 904l-139 146l45 50l132 -110l155 110l32 -50l-168 -146h-57z" />
    <glyph glyph-name="Tcommaaccent" unicode="&#x21a;" 
d="M230 0l77 728h-206l7 72h493l-7 -72h-207l-77 -728h-80zM109 -300l102 200h122l-149 -200h-75z" />
    <glyph glyph-name="U" unicode="U" 
d="M269 -10q-104 0 -148.5 67t-30.5 204l57 539h80l-57 -544q-11 -107 13 -151.5t93 -44.5q70 0 103.5 44.5t44.5 151.5l57 544h80l-57 -539q-14 -137 -72.5 -204t-162.5 -67z" />
    <glyph glyph-name="Ugrave" unicode="&#xd9;" 
d="M269 -10q-104 0 -148.5 67t-30.5 204l57 539h80l-57 -544q-11 -107 13 -151.5t93 -44.5q70 0 103.5 44.5t44.5 151.5l57 544h80l-57 -539q-14 -137 -72.5 -204t-162.5 -67zM366 900l-141 200h121l94 -200h-74z" />
    <glyph glyph-name="Uacute" unicode="&#xda;" 
d="M269 -10q-104 0 -148.5 67t-30.5 204l57 539h80l-57 -544q-11 -107 13 -151.5t93 -44.5q70 0 103.5 44.5t44.5 151.5l57 544h80l-57 -539q-14 -137 -72.5 -204t-162.5 -67zM270 900l135 200h122l-183 -200h-74z" />
    <glyph glyph-name="Ucircumflex" unicode="&#xdb;" 
d="M269 -10q-104 0 -148.5 67t-30.5 204l57 539h80l-57 -544q-11 -107 13 -151.5t93 -44.5q70 0 103.5 44.5t44.5 151.5l57 544h80l-57 -539q-14 -137 -72.5 -204t-162.5 -67zM221 918l-32 50l168 146h57l139 -146l-45 -51l-132 112z" />
    <glyph glyph-name="Udieresis" unicode="&#xdc;" 
d="M269 -10q-104 0 -148.5 67t-30.5 204l57 539h80l-57 -544q-11 -107 13 -151.5t93 -44.5q70 0 103.5 44.5t44.5 151.5l57 544h80l-57 -539q-14 -137 -72.5 -204t-162.5 -67zM269 916q-24 0 -37.5 10.5t-9.5 40.5v5q3 31 19 42t40 11q25 0 37.5 -11t9.5 -42v-5
q-4 -30 -19.5 -40.5t-39.5 -10.5zM461 916q-25 0 -38 10.5t-9 40.5v5q3 31 18.5 42t40.5 11q23 0 36.5 -11t10.5 -42v-5q-4 -30 -20 -40.5t-39 -10.5z" />
    <glyph glyph-name="Utilde" unicode="&#x168;" 
d="M269 -10q-104 0 -148.5 67t-30.5 204l57 539h80l-57 -544q-11 -107 13 -151.5t93 -44.5q70 0 103.5 44.5t44.5 151.5l57 544h80l-57 -539q-14 -137 -72.5 -204t-162.5 -67zM430 910q-32 0 -49.5 19.5t-29.5 41.5l-21 41t-26 19q-19 0 -31.5 -24t-16.5 -78l-1 -9h-63l1 15
q8 72 41 120.5t86 48.5q35 0 53.5 -19.5t29.5 -40.5l18.5 -41t23.5 -19q18 0 31 23.5t19 77.5l1 10h62l-2 -15q-7 -74 -40 -122t-86 -48z" />
    <glyph glyph-name="Umacron" unicode="&#x16a;" 
d="M269 -10q-104 0 -148.5 67t-30.5 204l57 539h80l-57 -544q-11 -107 13 -151.5t93 -44.5q70 0 103.5 44.5t44.5 151.5l57 544h80l-57 -539q-14 -137 -72.5 -204t-162.5 -67zM204 964l8 72h332l-8 -72h-332z" />
    <glyph glyph-name="Ubreve" unicode="&#x16c;" 
d="M269 -10q-104 0 -148.5 67t-30.5 204l57 539h80l-57 -544q-11 -107 13 -151.5t93 -44.5q70 0 103.5 44.5t44.5 151.5l57 544h80l-57 -539q-14 -137 -72.5 -204t-162.5 -67zM363 893q-87 0 -134.5 48.5t-37.5 152.5h82q-7 -72 17.5 -102.5t79.5 -30.5t85.5 30.5
t39.5 102.5h82q-12 -104 -69.5 -152.5t-144.5 -48.5z" />
    <glyph glyph-name="Uring" unicode="&#x16e;" 
d="M269 -10q-104 0 -148.5 67t-30.5 204l57 539h80l-57 -544q-11 -107 13 -151.5t93 -44.5q70 0 103.5 44.5t44.5 151.5l57 544h80l-57 -539q-14 -137 -72.5 -204t-162.5 -67zM362 888q-59 0 -91.5 35t-25.5 107l4 32q7 73 47.5 109t99.5 36q60 0 92 -36t25 -109l-4 -32
q-7 -72 -47.5 -107t-99.5 -35zM369 953q34 0 53.5 17.5t23.5 59.5l4 32q4 41 -11.5 60.5t-49.5 19.5t-53.5 -19.5t-23.5 -60.5l-4 -32q-4 -42 11.5 -59.5t49.5 -17.5z" />
    <glyph glyph-name="Uhungarumlaut" unicode="&#x170;" 
d="M269 -10q-104 0 -148.5 67t-30.5 204l57 539h80l-57 -544q-11 -107 13 -151.5t93 -44.5q70 0 103.5 44.5t44.5 151.5l57 544h80l-57 -539q-14 -137 -72.5 -204t-162.5 -67zM419 900l68 200h115l-125 -200h-58zM227 900l68 200h115l-125 -200h-58z" />
    <glyph glyph-name="Uogonek" unicode="&#x172;" 
d="M305 -213q-52 0 -85 31.5t-27 85.5q5 44 40.5 80t74.5 54l20 -15q-32 -22 -45 -49t-15 -46q-3 -28 11.5 -43.5t42.5 -15.5q15 0 38.5 3.5t36.5 6.5l-8 -82q-17 -4 -41 -7t-43 -3zM269 -10q-104 0 -148.5 67t-30.5 204l57 539h80l-57 -544q-11 -107 13 -151.5t93 -44.5
q70 0 103.5 44.5t44.5 151.5l57 544h80l-57 -539q-14 -137 -72.5 -204t-162.5 -67z" />
    <glyph glyph-name="V" unicode="V" 
d="M312 0h-83l-133 800h87l103 -670l242 670h84z" />
    <glyph glyph-name="W" unicode="W" 
d="M370 0l-49 499l-151 -499h-81l-6 800h80l-9 -663l138 463h86l40 -465l132 665h75l-174 -800h-81z" />
    <glyph glyph-name="Wcircumflex" unicode="&#x174;" 
d="M370 0l-49 499l-151 -499h-81l-6 800h80l-9 -663l138 463h86l40 -465l132 665h75l-174 -800h-81zM221 918l-32 50l168 146h57l139 -146l-45 -51l-132 112z" />
    <glyph glyph-name="Wgrave" unicode="&#x1e80;" 
d="M370 0l-49 499l-151 -499h-81l-6 800h80l-9 -663l138 463h86l40 -465l132 665h75l-174 -800h-81zM374 900l-141 200h121l94 -200h-74z" />
    <glyph glyph-name="Wacute" unicode="&#x1e82;" 
d="M370 0l-49 499l-151 -499h-81l-6 800h80l-9 -663l138 463h86l40 -465l132 665h75l-174 -800h-81zM278 900l135 200h122l-183 -200h-74z" />
    <glyph glyph-name="Wdieresis" unicode="&#x1e84;" 
d="M370 0l-49 499l-151 -499h-81l-6 800h80l-9 -663l138 463h86l40 -465l132 665h75l-174 -800h-81zM269 916q-24 0 -37.5 10.5t-9.5 40.5v5q3 31 19 42t40 11q25 0 37.5 -11t9.5 -42v-5q-4 -30 -19.5 -40.5t-39.5 -10.5zM461 916q-25 0 -38 10.5t-9 40.5v5q3 31 18.5 42
t40.5 11q23 0 36.5 -11t10.5 -42v-5q-4 -30 -20 -40.5t-39 -10.5z" />
    <glyph glyph-name="X" unicode="X" 
d="M452 0l-145 338l-218 -338h-94l277 408l-173 392h93l138 -323l208 323h94l-267 -392l180 -408h-93z" />
    <glyph glyph-name="Y" unicode="Y" 
d="M310 0h-80l32 300l-188 500h90l152 -418l229 418h89l-292 -500z" />
    <glyph glyph-name="Yacute" unicode="&#xdd;" 
d="M310 0h-80l32 300l-188 500h90l152 -418l229 418h89l-292 -500zM270 900l135 200h122l-183 -200h-74z" />
    <glyph glyph-name="Ycircumflex" unicode="&#x176;" 
d="M310 0h-80l32 300l-188 500h90l152 -418l229 418h89l-292 -500zM221 918l-32 50l168 146h57l139 -146l-45 -51l-132 112z" />
    <glyph glyph-name="Ydieresis" unicode="&#x178;" 
d="M310 0h-80l32 300l-188 500h90l152 -418l229 418h89l-292 -500zM269 916q-24 0 -37.5 10.5t-9.5 40.5v5q3 31 19 42t40 11q25 0 37.5 -11t9.5 -42v-5q-4 -30 -19.5 -40.5t-39.5 -10.5zM461 916q-25 0 -38 10.5t-9 40.5v5q3 31 18.5 42t40.5 11q23 0 36.5 -11t10.5 -42v-5
q-4 -30 -20 -40.5t-39 -10.5z" />
    <glyph glyph-name="Ygrave" unicode="&#x1ef2;" 
d="M310 0h-80l32 300l-188 500h90l152 -418l229 418h89l-292 -500zM366 900l-141 200h121l94 -200h-74z" />
    <glyph glyph-name="Z" unicode="Z" 
d="M495 0h-450l8 72l426 656h-357l7 72h450l-7 -72l-425 -656h356z" />
    <glyph glyph-name="Zacute" unicode="&#x179;" 
d="M495 0h-450l8 72l426 656h-357l7 72h450l-7 -72l-425 -656h356zM295 900l135 200h122l-183 -200h-74z" />
    <glyph glyph-name="Zdotaccent" unicode="&#x17b;" 
d="M495 0h-450l8 72l426 656h-357l7 72h450l-7 -72l-425 -656h356zM365 916q-31 0 -49.5 10.5t-14.5 40.5v5q3 31 24 42t52 11t49 -11t15 -42v-5q-4 -30 -24.5 -40.5t-51.5 -10.5z" />
    <glyph glyph-name="Zcaron" unicode="&#x17d;" 
d="M495 0h-450l8 72l426 656h-357l7 72h450l-7 -72l-425 -656h356zM336 904l-139 146l45 50l132 -110l155 110l32 -50l-168 -146h-57z" />
    <glyph glyph-name="AE" unicode="&#xc6;" 
d="M302 738l-148 -431h157l46 431h-55zM305 244h-173l-84 -244h-70l288 800h372l-6 -62h-203l-30 -277h195l-6 -62h-195l-35 -337h203l-7 -62h-275z" />
    <glyph glyph-name="AEacute" unicode="&#x1fc;" 
d="M302 738l-148 -431h157l46 431h-55zM305 244h-173l-84 -244h-70l288 800h372l-6 -62h-203l-30 -277h195l-6 -62h-195l-35 -337h203l-7 -62h-275zM379 900l135 200h122l-183 -200h-74z" />
    <glyph glyph-name="Eth" unicode="&#xd0;" 
d="M63 0l42 399h-83l9 82h83l33 319h181q116 0 175.5 -75t46.5 -200l-27 -254q-12 -123 -87.5 -197t-191.5 -74h-181zM151 72h102q83 0 131.5 53t57.5 141l28 264q9 89 -28 143.5t-120 54.5h-102l-26 -247h127l-9 -82h-127z" />
    <glyph glyph-name="Oslash" unicode="&#xd8;" 
d="M156 126l256 601q-12 5 -28.5 8t-35.5 3q-78 0 -116 -46t-49 -154l-30 -280q-4 -42 -3 -74.5t6 -57.5zM277 62q78 0 115.5 45t48.5 151l30 286q6 52 4 90.5t-13 64.5l-264 -619q15 -9 35 -13.5t44 -4.5zM269 -10q-28 0 -51.5 4.5t-43.5 13.5l-50 -108h-82l71 156
q-27 34 -37.5 86.5t-2.5 121.5l28 268q14 135 80 206.5t175 71.5q22 0 42 -3t38 -10l46 103h82l-64 -143q33 -34 46 -91t5 -134l-28 -268q-14 -133 -80 -203.5t-174 -70.5z" />
    <glyph glyph-name="Oslashacute" unicode="&#x1fe;" 
d="M156 126l256 601q-12 5 -28.5 8t-35.5 3q-78 0 -116 -46t-49 -154l-30 -280q-4 -42 -3 -74.5t6 -57.5zM277 62q78 0 115.5 45t48.5 151l30 286q6 52 4 90.5t-13 64.5l-264 -619q15 -9 35 -13.5t44 -4.5zM269 -10q-28 0 -51.5 4.5t-43.5 13.5l-50 -108h-82l71 156
q-27 34 -37.5 86.5t-2.5 121.5l28 268q14 135 80 206.5t175 71.5q22 0 42 -3t38 -10l46 103h82l-64 -143q33 -34 46 -91t5 -134l-28 -268q-14 -133 -80 -203.5t-174 -70.5zM304 900l135 200h122l-183 -200h-74z" />
    <glyph glyph-name="Thorn" unicode="&#xde;" 
d="M63 0l84 800h80l-14 -133h154q101 0 148 -54t36 -156l-8 -77q-12 -109 -70.5 -165.5t-160.5 -56.5h-152l-17 -158h-80zM167 229h153q69 0 101.5 33t40.5 111l10 89q7 72 -19 102t-95 30h-153z" />
    <glyph glyph-name="Dcroat" unicode="&#x110;" 
d="M63 0l42 399h-83l9 82h83l33 319h181q116 0 175.5 -75t46.5 -200l-27 -254q-12 -123 -87.5 -197t-191.5 -74h-181zM151 72h102q83 0 131.5 53t57.5 141l28 264q9 89 -28 143.5t-120 54.5h-102l-26 -247h127l-9 -82h-127z" />
    <glyph glyph-name="Hbar" unicode="&#x126;" 
d="M189 433h254l13 130h-254zM181 360l-38 -360h-81l59 563h-85l9 81h85l16 156h81l-16 -156h254l16 156h81l-16 -156h85l-9 -81h-85l-59 -563h-81l38 360h-254z" />
    <glyph glyph-name="IJ" unicode="&#x132;" 
d="M110 0h-81l84 800h81zM343 -10q-78 0 -112.5 59t-24.5 205l82 11q-5 -116 7 -156.5t57 -40.5q46 0 71 48t34 129l50 479h-161l8 76h243l-58 -551q-13 -121 -61 -190t-135 -69z" />
    <glyph glyph-name="Ldot" unicode="&#x13f;" 
d="M105 0l84 800h79l-76 -728h293l-8 -72h-372zM546 419q-31 0 -49.5 10.5t-14.5 40.5v5q3 31 24 42t52 11t49 -11t15 -42v-5q-4 -30 -24.5 -40.5t-51.5 -10.5z" />
    <glyph glyph-name="Lslash" unicode="&#x141;" 
d="M105 0l39 369l-88 -30l7 68l88 30l38 363h79l-35 -334l218 75l-7 -68l-218 -75l-34 -326h293l-8 -72h-372z" />
    <glyph glyph-name="Eng" unicode="&#x14a;" 
d="M262 -208q-30 0 -61.5 9.5t-66.5 25.5l26 88q32 -18 58 -27t51 -9q51 0 87 39t46 130l58 553q7 66 -16.5 98t-69.5 32t-84.5 -29t-81.5 -80l-65 -622h-80l84 800h80l-10 -96h25q23 48 68 77t97 29q72 0 108 -53.5t27 -140.5l-61 -580q-13 -118 -72 -181t-147 -63z" />
    <glyph glyph-name="OE" unicode="&#x152;" 
d="M203 0q-102 0 -152 72t-37 192l28 265q13 123 78 197t166 74h361l-6 -62h-212l-28 -264h214l-7 -63h-214l-36 -349h212l-7 -62h-360zM209 60h76l72 680h-76q-72 0 -114.5 -56.5t-52.5 -150.5l-29 -272q-9 -93 21.5 -147t102.5 -54z" />
    <glyph glyph-name="Tbar" unicode="&#x166;" 
d="M230 0l33 316h-169l9 81h169l35 331h-206l7 72h493l-7 -72h-207l-35 -331h169l-9 -81h-169l-33 -316h-80z" />
    <glyph glyph-name="Alpha" unicode="&#x391;" 
d="M397 317l-55 379l-135 -379h190zM443 0l-35 244h-226l-87 -244h-83l301 800h83l132 -800h-85z" />
    <glyph glyph-name="Alphatonos" unicode="&#x386;" 
d="M397 317l-55 379l-135 -379h190zM443 0l-35 244h-226l-87 -244h-83l301 800h83l132 -800h-85zM76 700l85 200h114l-133 -200h-66z" />
    <glyph glyph-name="Beta" unicode="&#x392;" 
d="M63 0l84 800h205q103 0 148 -46.5t35 -141.5l-5 -48q-5 -47 -35 -82t-76 -44l-3 -29q56 -6 85.5 -50.5t22.5 -113.5l-5 -43q-10 -102 -71 -152t-174 -50h-211zM191 454h134q61 0 91 29t37 95l2 22q7 66 -17 95t-85 29h-134zM151 76h151q65 0 98 32.5t40 104.5l3 27
q8 73 -18 105.5t-91 32.5h-151z" />
    <glyph glyph-name="Gamma" unicode="&#x393;" 
d="M61 0l84 800h433l-7 -72h-353l-77 -728h-80z" />
    <glyph glyph-name="Delta" unicode="&#x394;" 
d="M11 0l8 72l290 728h81l147 -728l-8 -72h-518zM459 72l-117 626l-248 -626h365z" />
    <glyph glyph-name="Epsilon" unicode="&#x395;" 
d="M63 0l84 800h432l-7 -72h-352l-27 -254h310l-8 -73h-310l-34 -329h352l-8 -72h-432z" />
    <glyph glyph-name="Epsilontonos" unicode="&#x388;" 
d="M63 0l84 800h432l-7 -72h-352l-27 -254h310l-8 -73h-310l-34 -329h352l-8 -72h-432zM-40 700l85 200h114l-133 -200h-66z" />
    <glyph glyph-name="Zeta" unicode="&#x396;" 
d="M495 0h-450l8 72l426 656h-357l7 72h450l-7 -72l-425 -656h356z" />
    <glyph glyph-name="Eta" unicode="&#x397;" 
d="M63 0l84 800h80l-35 -331h254l35 331h80l-84 -800h-80l42 396h-254l-42 -396h-80z" />
    <glyph glyph-name="Etatonos" unicode="&#x389;" 
d="M63 0l84 800h80l-35 -331h254l35 331h80l-84 -800h-80l42 396h-254l-42 -396h-80zM-48 700l85 200h114l-133 -200h-66z" />
    <glyph glyph-name="Theta" unicode="&#x398;" 
d="M269 -10q-116 0 -168.5 70t-38.5 204l28 268q14 137 82 207.5t184 70.5q115 0 167.5 -70.5t38.5 -207.5l-28 -268q-14 -134 -81.5 -204t-183.5 -70zM277 62q84 0 124.5 45.5t51.5 150.5l30 280q11 108 -20 154t-115 46q-85 0 -125.5 -46t-51.5 -154l-30 -280
q-11 -105 20 -150.5t116 -45.5zM229 366l9 78h163l-9 -78h-163z" />
    <glyph glyph-name="Iota" unicode="&#x399;" 
d="M63 0l8 72h167l69 656h-167l7 72h414l-7 -72h-167l-69 -656h167l-8 -72h-414z" />
    <glyph glyph-name="Iotatonos" unicode="&#x38a;" 
d="M63 0l8 72h167l69 656h-167l7 72h414l-7 -72h-167l-69 -656h167l-8 -72h-414zM-48 700l85 200h114l-133 -200h-66z" />
    <glyph glyph-name="Iotadieresis" unicode="&#x3aa;" 
d="M63 0l8 72h167l69 656h-167l7 72h414l-7 -72h-167l-69 -656h167l-8 -72h-414zM269 916q-24 0 -37.5 10.5t-9.5 40.5v5q3 31 19 42t40 11q25 0 37.5 -11t9.5 -42v-5q-4 -30 -19.5 -40.5t-39.5 -10.5zM461 916q-25 0 -38 10.5t-9 40.5v5q3 31 18.5 42t40.5 11
q23 0 36.5 -11t10.5 -42v-5q-4 -30 -20 -40.5t-39 -10.5z" />
    <glyph glyph-name="Kappa" unicode="&#x39a;" 
d="M184 393l-41 -393h-80l84 800h80l-35 -334h28l297 334h94l-334 -367l248 -433h-98l-212 393h-31z" />
    <glyph glyph-name="Lambda" unicode="&#x39b;" 
d="M443 0l-101 696l-247 -696h-83l301 800h83l132 -800h-85z" />
    <glyph glyph-name="Mu" unicode="&#x39c;" 
d="M250 186l-73 492l-72 -678h-72l84 800h110l77 -504l181 504h106l-84 -800h-72l70 672l-175 -486h-80z" />
    <glyph glyph-name="Nu" unicode="&#x39d;" 
d="M360 0l-150 713l-75 -713h-72l84 800h111l156 -712l75 712h72l-84 -800h-117z" />
    <glyph glyph-name="Xi" unicode="&#x39e;" 
d="M122 728l7 72h450l-7 -72h-450zM109 401l8 73h407l-8 -73h-407zM45 0l8 72h450l-8 -72h-450z" />
    <glyph glyph-name="Omicron" unicode="&#x39f;" 
d="M269 -10q-109 0 -159.5 71.5t-36.5 208.5l27 256q15 140 80.5 212t175.5 72q109 0 159 -72t35 -212l-27 -256q-14 -137 -79 -208.5t-175 -71.5zM277 62q78 0 115.5 46.5t49.5 155.5l28 268q12 111 -16 158.5t-106 47.5t-116 -47.5t-50 -158.5l-28 -268
q-12 -109 16.5 -155.5t106.5 -46.5z" />
    <glyph glyph-name="Omicrontonos" unicode="&#x38c;" 
d="M273 -10q-109 0 -159.5 71.5t-36.5 208.5l27 256q15 140 80.5 212t175.5 72q109 0 159 -72t35 -212l-27 -256q-14 -137 -79 -208.5t-175 -71.5zM281 62q78 0 115.5 46.5t49.5 155.5l28 268q12 111 -16 158.5t-106 47.5t-116 -47.5t-50 -158.5l-28 -268
q-12 -109 16.5 -155.5t106.5 -46.5zM22 700l85 200h114l-133 -200h-66z" />
    <glyph glyph-name="Pi" unicode="&#x3a0;" 
d="M63 0l84 800h414l-84 -800h-80l77 728h-254l-77 -728h-80z" />
    <glyph glyph-name="Rho" unicode="&#x3a1;" 
d="M63 0l84 800h234q108 0 151.5 -50.5t32.5 -159.5l-9 -86q-12 -110 -67 -161.5t-163 -51.5h-152l-31 -291h-80zM181 361h151q69 0 102.5 32.5t41.5 106.5l9 91q8 72 -18.5 104.5t-95.5 32.5h-151z" />
    <glyph glyph-name="Sigma" unicode="&#x3a3;" 
d="M496 0h-459l8 72l332 340l-263 316l7 72h459l-7 -72h-352l221 -279l-7 -66l-293 -311h362z" />
    <glyph glyph-name="Tau" unicode="&#x3a4;" 
d="M230 0l77 728h-206l7 72h493l-7 -72h-207l-77 -728h-80z" />
    <glyph glyph-name="Upsilon" unicode="&#x3a5;" 
d="M310 0h-80l32 300l-188 500h90l152 -418l229 418h89l-292 -500z" />
    <glyph glyph-name="Upsilontonos" unicode="&#x38e;" 
d="M310 0h-80l32 300l-188 500h90l152 -418l229 418h89l-292 -500zM-74 700l85 200h114l-133 -200h-66z" />
    <glyph glyph-name="Upsilondieresis" unicode="&#x3ab;" 
d="M310 0h-80l32 300l-188 500h90l152 -418l229 418h89l-292 -500zM269 916q-24 0 -37.5 10.5t-9.5 40.5v5q3 31 19 42t40 11q25 0 37.5 -11t9.5 -42v-5q-4 -30 -19.5 -40.5t-39.5 -10.5zM461 916q-25 0 -38 10.5t-9 40.5v5q3 31 18.5 42t40.5 11q23 0 36.5 -11t10.5 -42v-5
q-4 -30 -20 -40.5t-39 -10.5z" />
    <glyph glyph-name="Phi" unicode="&#x3a6;" 
d="M346 90h-26l-10 -100h-82l10 100h-24q-93 0 -131 67t-26 189l11 104q13 125 66 192.5t146 67.5h24l10 100h82l-10 -100h26q93 0 130 -67.5t24 -192.5l-11 -104q-12 -122 -64 -189t-145 -67zM403 634h-29l-50 -468h29q54 0 82.5 42t38.5 138l11 104q11 99 -8.5 141.5
t-73.5 42.5zM222 166h29l50 468h-29q-54 0 -83 -42.5t-40 -141.5l-11 -104q-10 -96 10 -138t74 -42z" />
    <glyph glyph-name="Chi" unicode="&#x3a7;" 
d="M452 0l-145 338l-218 -338h-94l277 408l-173 392h93l138 -323l208 323h94l-267 -392l180 -408h-93z" />
    <glyph glyph-name="Psi" unicode="&#x3a8;" 
d="M311 0h-82l20 195q-89 11 -128.5 75t-28.5 171l38 359h77l-38 -365q-9 -80 11.5 -119.5t76.5 -47.5l56 532h82l-56 -532q58 7 86.5 47t37.5 120l38 365h77l-38 -359q-11 -107 -63 -171t-146 -75z" />
    <glyph glyph-name="Omega" unicode="&#x3a9;" 
d="M227 0h-190l9 81h109l10 98q-54 22 -74.5 77t-11.5 139l14 137q14 137 81 207.5t181 70.5q115 0 166.5 -70.5t37.5 -207.5l-14 -137q-9 -84 -41.5 -139t-90.5 -77l-10 -98h109l-9 -81h-190l24 230q63 12 91 50.5t36 114.5l14 136q12 113 -17 160.5t-113 47.5t-123 -47.5
t-51 -160.5l-14 -136q-8 -76 11 -114.5t80 -50.5z" />
    <glyph glyph-name="Omegatonos" unicode="&#x38f;" 
d="M227 0h-190l9 81h109l10 98q-54 22 -74.5 77t-11.5 139l14 137q14 137 81 207.5t181 70.5q115 0 166.5 -70.5t37.5 -207.5l-14 -137q-9 -84 -41.5 -139t-90.5 -77l-10 -98h109l-9 -81h-190l24 230q63 12 91 50.5t36 114.5l14 136q12 113 -17 160.5t-113 47.5t-123 -47.5
t-51 -160.5l-14 -136q-8 -76 11 -114.5t80 -50.5zM1 700l85 200h114l-133 -200h-66z" />
    <glyph glyph-name="Ohm" unicode="&#x2126;" 
d="M227 0h-190l9 81h109l10 98q-54 22 -74.5 77t-11.5 139l14 137q14 137 81 207.5t181 70.5q115 0 166.5 -70.5t37.5 -207.5l-14 -137q-9 -84 -41.5 -139t-90.5 -77l-10 -98h109l-9 -81h-190l24 230q63 12 91 50.5t36 114.5l14 136q12 113 -17 160.5t-113 47.5t-123 -47.5
t-51 -160.5l-14 -136q-8 -76 11 -114.5t80 -50.5z" />
    <glyph glyph-name="Djecyrillic" unicode="&#x402;" 
d="M131 0l77 728h-128l7 72h419l-7 -72h-212l-22 -208h111q95 0 137 -51t31 -151l-12 -115q-10 -101 -63 -152t-148 -51l7 70q55 0 86 31t39 104l11 111q8 72 -16.5 103t-79.5 31h-111l-47 -450h-79z" />
    <glyph glyph-name="Ecyrillic" unicode="&#x404;" 
d="M537 251q-19 -129 -84.5 -195t-174.5 -66q-116 0 -167.5 69.5t-37.5 206.5l28 264q14 138 80.5 209t182.5 71q109 0 160.5 -67t43.5 -198l-80 -10q4 109 -25.5 156t-104.5 47q-84 0 -124 -46.5t-52 -154.5l-6 -63h192l-8 -73h-192l-15 -142q-11 -106 19.5 -151.5
t114.5 -45.5q75 0 114.5 46t57.5 153z" />
    <glyph glyph-name="Dzecyrillic" unicode="&#x405;" 
d="M280 -8q-72 0 -135.5 27t-105.5 81l50 61q38 -49 91 -72.5t116 -23.5q67 0 111.5 38t51.5 105q6 57 -25 90t-135 76q-118 47 -159.5 96.5t-33.5 132.5q11 97 75.5 148t158.5 51q66 0 127.5 -27.5t98.5 -81.5l-48 -64q-37 49 -87 75t-103 26q-58 0 -96.5 -31t-44.5 -91
q-6 -54 27 -86.5t143 -76.5q112 -43 151.5 -90.5t31.5 -129.5q-12 -110 -86 -171.5t-174 -61.5z" />
    <glyph glyph-name="Icyrillic" unicode="&#x406;" 
d="M63 0l8 72h167l69 656h-167l7 72h414l-7 -72h-167l-69 -656h167l-8 -72h-414z" />
    <glyph glyph-name="Yicyrillic" unicode="&#x407;" 
d="M63 0l8 72h167l69 656h-167l7 72h414l-7 -72h-167l-69 -656h167l-8 -72h-414zM269 916q-24 0 -37.5 10.5t-9.5 40.5v5q3 31 19 42t40 11q25 0 37.5 -11t9.5 -42v-5q-4 -30 -19.5 -40.5t-39.5 -10.5zM461 916q-25 0 -38 10.5t-9 40.5v5q3 31 18.5 42t40.5 11
q23 0 36.5 -11t10.5 -42v-5q-4 -30 -20 -40.5t-39 -10.5z" />
    <glyph glyph-name="Jecyrillic" unicode="&#x408;" 
d="M253 -10q-112 0 -159.5 61t-38.5 197l81 11q-5 -116 20 -156.5t106 -40.5q72 0 112 45.5t50 135.5l51 485h-166l7 72h246l-58 -555q-13 -125 -78.5 -190t-172.5 -65z" />
    <glyph glyph-name="Ljecyrillic" unicode="&#x409;" 
d="M141 173q-11 -92 -45 -136t-83 -44q-13 0 -25.5 3t-25.5 8l25 77q7 -4 14.5 -6.5t13.5 -3.5q19 -2 32 19.5t19 75.5l77 634h248l-31 -291h45q80 0 114.5 -55t22.5 -166l-7 -71q-12 -109 -57.5 -163t-124.5 -54h-121l76 721h-101zM315 79h45q41 0 66 31.5t33 105.5l8 77
q8 75 -10.5 107t-59.5 32h-45z" />
    <glyph glyph-name="Njecyrillic" unicode="&#x40a;" 
d="M315 79h46q41 0 65.5 31.5t32.5 105.5l8 77q8 75 -10 107t-59 32h-46zM146 396l-42 -396h-75l84 800h75l-35 -331h128l35 331h75l-31 -291h46q79 0 113.5 -55t22.5 -166l-7 -71q-12 -109 -57 -163t-124 -54h-122l42 396h-128z" />
    <glyph glyph-name="Tshecyrillic" unicode="&#x40b;" 
d="M201 0h-79l77 728h-128l7 72h420l-7 -72h-213l-26 -241h118q96 0 138.5 -52.5t31.5 -157.5l-29 -277h-80l29 278q8 72 -14.5 105t-80.5 33h-120z" />
    <glyph glyph-name="Dzhecyrillic" unicode="&#x40f;" 
d="M214 -150l16 150h-167l84 800h80l-76 -728h254l76 728h80l-84 -800h-167l-16 -150h-80z" />
    <glyph glyph-name="Acyrillic" unicode="&#x410;" 
d="M397 317l-55 379l-135 -379h190zM443 0l-35 244h-226l-87 -244h-83l301 800h83l132 -800h-85z" />
    <glyph glyph-name="Becyrillic" unicode="&#x411;" 
d="M63 0l84 800h394l-7 -72h-314l-29 -267h155q92 0 136 -49t35 -140l-8 -68q-10 -98 -64.5 -151t-145.5 -53h-236zM151 72h139q69 0 101 32t40 105l5 48q8 72 -18 103t-95 31h-139z" />
    <glyph glyph-name="Vecyrillic" unicode="&#x412;" 
d="M63 0l84 800h205q103 0 148 -46.5t35 -141.5l-5 -48q-5 -47 -35 -82t-76 -44l-3 -29q56 -6 85.5 -50.5t22.5 -113.5l-5 -43q-10 -102 -71 -152t-174 -50h-211zM191 454h134q61 0 91 29t37 95l2 22q7 66 -17 95t-85 29h-134zM151 76h151q65 0 98 32.5t40 104.5l3 27
q8 73 -18 105.5t-91 32.5h-151z" />
    <glyph glyph-name="Gecyrillic" unicode="&#x413;" 
d="M61 0l84 800h433l-7 -72h-353l-77 -728h-80z" />
    <glyph glyph-name="Gjecyrillic" unicode="&#x403;" 
d="M61 0l84 800h433l-7 -72h-353l-77 -728h-80zM308 900l135 200h122l-183 -200h-74z" />
    <glyph glyph-name="Decyrillic" unicode="&#x414;" 
d="M138 99l-2 -27h253l69 656h-205l-48 -425q-9 -75 -21.5 -122t-45.5 -82zM68 0l-16 -150h-81l24 222h49q33 29 53.5 87t30.5 150l54 491h363l-76 -728h85l-24 -222h-81l16 150h-397z" />
    <glyph glyph-name="Iecyrillic" unicode="&#x415;" 
d="M63 0l84 800h432l-7 -72h-352l-27 -254h310l-8 -73h-310l-34 -329h352l-8 -72h-432z" />
    <glyph glyph-name="IEgravecyrillic" unicode="&#x400;" 
d="M63 0l84 800h432l-7 -72h-352l-27 -254h310l-8 -73h-310l-34 -329h352l-8 -72h-432zM393 900l-141 200h121l94 -200h-74z" />
    <glyph glyph-name="Iocyrillic" unicode="&#x401;" 
d="M63 0l84 800h432l-7 -72h-352l-27 -254h310l-8 -73h-310l-34 -329h352l-8 -72h-432zM295 916q-24 0 -37.5 10.5t-9.5 40.5v5q3 31 19 42t40 11q25 0 37.5 -11t9.5 -42v-5q-4 -30 -19.5 -40.5t-39.5 -10.5zM487 916q-25 0 -38 10.5t-9 40.5v5q3 31 18.5 42t40.5 11
q23 0 36.5 -11t10.5 -42v-5q-4 -30 -20 -40.5t-39 -10.5z" />
    <glyph glyph-name="Zhecyrillic" unicode="&#x416;" 
d="M241 396l-179 -396h-82l207 428l-120 372h77l104 -338h35l35 338h74l-35 -338h35l173 338h78l-198 -369l115 -431h-81l-95 396h-34l-42 -396h-74l42 396h-35z" />
    <glyph glyph-name="Zecyrillic" unicode="&#x417;" 
d="M260 -10q-110 0 -158 53.5t-43 169.5l82 10q-2 -90 25.5 -126.5t100.5 -36.5q83 0 122 36.5t48 121.5l2 21q9 88 -17 120t-109 32h-85l8 73h85q72 0 101.5 25.5t36.5 93.5l3 28q7 69 -21.5 99t-101.5 30q-64 0 -95.5 -32.5t-47.5 -116.5l-79 10q18 110 74 159.5t162 49.5
q98 0 148.5 -52t40.5 -153l-4 -33q-6 -58 -44.5 -91.5t-99.5 -37.5l-3 -29q73 -7 105 -53.5t25 -114.5l-3 -27q-12 -111 -74 -170t-184 -59z" />
    <glyph glyph-name="Iicyrillic" unicode="&#x418;" 
d="M405 0l75 713l-300 -713h-117l84 800h72l-75 -712l306 712h111l-84 -800h-72z" />
    <glyph glyph-name="Igravecyrillic" unicode="&#x40d;" 
d="M405 0l75 713l-300 -713h-117l84 800h72l-75 -712l306 712h111l-84 -800h-72zM358 900l-141 200h121l94 -200h-74z" />
    <glyph glyph-name="Iishortcyrillic" unicode="&#x419;" 
d="M405 0l75 713l-300 -713h-117l84 800h72l-75 -712l306 712h111l-84 -800h-72zM371 893q-71 0 -118 42t-37 149l82 10q-7 -72 10 -102.5t70 -30.5t76 30.5t32 102.5l80 -10q-12 -107 -68 -149t-127 -42z" />
    <glyph glyph-name="Kacyrillic" unicode="&#x41a;" 
d="M184 393l-41 -393h-80l84 800h80l-35 -334h28l297 334h94l-334 -367l248 -433h-98l-212 393h-31z" />
    <glyph glyph-name="Kjecyrillic" unicode="&#x40c;" 
d="M184 393l-41 -393h-80l84 800h80l-35 -334h28l297 334h94l-334 -367l248 -433h-98l-212 393h-31zM327 900l135 200h122l-183 -200h-74z" />
    <glyph glyph-name="Elcyrillic" unicode="&#x41b;" 
d="M397 0l77 728h-205l-54 -493q-14 -123 -59 -183.5t-114 -60.5q-19 0 -36 3t-31 8l23 70q12 -6 22.5 -8.5t22.5 -2.5q40 0 62.5 45.5t32.5 141.5l61 552h362l-84 -800h-80z" />
    <glyph glyph-name="Emcyrillic" unicode="&#x41c;" 
d="M250 186l-73 492l-72 -678h-72l84 800h110l77 -504l181 504h106l-84 -800h-72l70 672l-175 -486h-80z" />
    <glyph glyph-name="Encyrillic" unicode="&#x41d;" 
d="M63 0l84 800h80l-35 -331h254l35 331h80l-84 -800h-80l42 396h-254l-42 -396h-80z" />
    <glyph glyph-name="Ocyrillic" unicode="&#x41e;" 
d="M269 -10q-109 0 -159.5 71.5t-36.5 208.5l27 256q15 140 80.5 212t175.5 72q109 0 159 -72t35 -212l-27 -256q-14 -137 -79 -208.5t-175 -71.5zM277 62q78 0 115.5 46.5t49.5 155.5l28 268q12 111 -16 158.5t-106 47.5t-116 -47.5t-50 -158.5l-28 -268
q-12 -109 16.5 -155.5t106.5 -46.5z" />
    <glyph glyph-name="Pecyrillic" unicode="&#x41f;" 
d="M63 0l84 800h414l-84 -800h-80l77 728h-254l-77 -728h-80z" />
    <glyph glyph-name="Ercyrillic" unicode="&#x420;" 
d="M63 0l84 800h234q108 0 151.5 -50.5t32.5 -159.5l-9 -86q-12 -110 -67 -161.5t-163 -51.5h-152l-31 -291h-80zM181 361h151q69 0 102.5 32.5t41.5 106.5l9 91q8 72 -18.5 104.5t-95.5 32.5h-151z" />
    <glyph glyph-name="Escyrillic" unicode="&#x421;" 
d="M278 -10q-116 0 -167.5 69.5t-37.5 206.5l28 264q14 139 80.5 209.5t182.5 70.5q113 0 162.5 -64.5t41.5 -200.5l-80 -10q4 113 -24.5 158t-106.5 45q-84 0 -123.5 -46t-51.5 -155l-29 -278q-10 -101 21.5 -149t111.5 -48q78 0 115.5 43.5t57.5 155.5l78 -10
q-21 -134 -83.5 -197.5t-175.5 -63.5z" />
    <glyph glyph-name="Tecyrillic" unicode="&#x422;" 
d="M230 0l77 728h-206l7 72h493l-7 -72h-207l-77 -728h-80z" />
    <glyph glyph-name="Ucyrillic" unicode="&#x423;" 
d="M137 1q-16 0 -32 2t-33 6l22 72q17 -4 31.5 -6.5t26.5 -2.5q42 0 65.5 28t47.5 83l3 3h-28l-141 614h81l116 -554l236 554h76l-286 -648q-40 -89 -87 -120t-98 -31z" />
    <glyph glyph-name="Ushortcyrillic" unicode="&#x40e;" 
d="M137 1q-16 0 -32 2t-33 6l22 72q17 -4 31.5 -6.5t26.5 -2.5q42 0 65.5 28t47.5 83l3 3h-28l-141 614h81l116 -554l236 554h76l-286 -648q-40 -89 -87 -120t-98 -31zM363 893q-71 0 -118 42t-37 149l82 10q-7 -72 10 -102.5t70 -30.5t76 30.5t32 102.5l80 -10
q-12 -107 -68 -149t-127 -42z" />
    <glyph glyph-name="Efcyrillic" unicode="&#x424;" 
d="M346 90h-26l-10 -100h-82l10 100h-24q-93 0 -131 67t-26 189l11 104q13 125 66 192.5t146 67.5h24l10 100h82l-10 -100h26q93 0 130 -67.5t24 -192.5l-11 -104q-12 -122 -64 -189t-145 -67zM403 634h-29l-50 -468h29q54 0 82.5 42t38.5 138l11 104q11 99 -8.5 141.5
t-73.5 42.5zM222 166h29l50 468h-29q-54 0 -83 -42.5t-40 -141.5l-11 -104q-10 -96 10 -138t74 -42z" />
    <glyph glyph-name="Khacyrillic" unicode="&#x425;" 
d="M452 0l-145 338l-218 -338h-94l277 408l-173 392h93l138 -323l208 323h94l-267 -392l180 -408h-93z" />
    <glyph glyph-name="Tsecyrillic" unicode="&#x426;" 
d="M423 -150l16 150h-376l84 800h80l-76 -728h212l76 728h80l-76 -728h83l-24 -222h-79z" />
    <glyph glyph-name="Checyrillic" unicode="&#x427;" 
d="M561 800l-84 -800h-80l30 289h-127q-109 0 -153 47.5t-33 151.5l33 312h80l-32 -310q-8 -68 19 -99.5t94 -31.5h127l46 441h80z" />
    <glyph glyph-name="Shacyrillic" unicode="&#x428;" 
d="M29 0l84 800h75l-77 -730h129l77 730h74l-77 -730h129l77 730h75l-84 -800h-482z" />
    <glyph glyph-name="Shchacyrillic" unicode="&#x429;" 
d="M534 -136h-78l14 136h-441l84 800h75l-77 -730h129l77 730h74l-77 -730h129l77 730h75l-77 -730h37z" />
    <glyph glyph-name="Hardsigncyrillic" unicode="&#x42a;" 
d="M330 0h-183l77 728h-160l7 72h240l-31 -291h102q99 0 140 -51.5t29 -160.5l-9 -89q-11 -107 -62.5 -157.5t-149.5 -50.5zM235 72h103q57 0 87 33t37 103l10 94q7 70 -16 103.5t-80 33.5h-103z" />
    <glyph glyph-name="Yericyrillic" unicode="&#x42b;" 
d="M46 0l84 800h74l-31 -291h50q86 0 121.5 -52t23.5 -163l-9 -83q-11 -108 -57 -159.5t-131 -51.5h-125zM420 0l84 800h74l-84 -800h-74zM127 70h49q46 0 73 32.5t35 107.5l9 89q8 75 -12 108.5t-66 33.5h-49z" />
    <glyph glyph-name="Softsigncyrillic" unicode="&#x42c;" 
d="M63 0l84 800h80l-31 -291h152q107 0 152 -52t33 -162l-9 -85q-11 -108 -66.5 -159t-162.5 -51h-232zM151 72h153q61 0 96.5 32.5t43.5 104.5l10 91q7 73 -21.5 106t-90.5 33h-153z" />
    <glyph glyph-name="Ereversedcyrillic" unicode="&#x42d;" 
d="M278 -10q-109 0 -160.5 64.5t-45.5 196.5l81 10q-4 -105 24.5 -152t107.5 -47q84 0 124 52t50 145l15 142h-227l8 73h227l6 63q12 108 -18 154.5t-114 46.5q-77 0 -116 -47t-58 -156l-79 10q21 134 86.5 199.5t173.5 65.5q123 0 170.5 -74.5t34.5 -205.5l-28 -264
q-14 -130 -76.5 -203t-185.5 -73z" />
    <glyph glyph-name="IUcyrillic" unicode="&#x42e;" 
d="M348 -10q-83 0 -116 63t-20 181l18 173h-83l-43 -407h-75l84 800h75l-35 -331h83l9 85q13 125 60 190.5t130 65.5q82 0 114.5 -65.5t19.5 -190.5l-33 -320q-13 -118 -59 -181t-129 -63zM355 58q46 0 71 41.5t35 134.5l33 320q11 98 -5 142.5t-62 44.5t-71.5 -44.5
t-36.5 -142.5l-33 -320q-10 -93 6.5 -134.5t62.5 -41.5z" />
    <glyph glyph-name="IAcyrillic" unicode="&#x42f;" 
d="M268 389h170l36 339h-170q-66 0 -100.5 -32.5t-41.5 -100.5l-7 -63q-8 -74 19.5 -108.5t93.5 -34.5zM431 319h-122l-200 -319h-97l207 318q-83 10 -118.5 63t-25.5 152l6 59q11 106 67.5 157t161.5 51h251l-84 -800h-80z" />
    <glyph glyph-name="Gheupturncyrillic" unicode="&#x490;" 
d="M61 0l84 800h353l16 150h80l-23 -222h-353l-77 -728h-80z" />
    <glyph glyph-name="a" unicode="a" 
d="M216 67q50 0 88 21t69 70l10 102h-143q-44 0 -71.5 -21t-32.5 -72q-5 -48 13 -74t67 -26zM198 -10q-71 0 -112 43t-32 127q8 78 57 123t118 45h161l11 98q5 46 -19.5 76.5t-79.5 30.5q-58 0 -87.5 -23t-51.5 -90l-68 23q23 82 77.5 124.5t135.5 42.5t132 -42.5t42 -126.5
l-31 -298q-5 -49 18 -65t76 -3l-9 -80q-63 -8 -100.5 13t-34.5 87h-16q-27 -46 -77.5 -75.5t-109.5 -29.5z" />
    <glyph glyph-name="agrave" unicode="&#xe0;" 
d="M216 67q50 0 88 21t69 70l10 102h-143q-44 0 -71.5 -21t-32.5 -72q-5 -48 13 -74t67 -26zM198 -10q-71 0 -112 43t-32 127q8 78 57 123t118 45h161l11 98q5 46 -19.5 76.5t-79.5 30.5q-58 0 -87.5 -23t-51.5 -90l-68 23q23 82 77.5 124.5t135.5 42.5t132 -42.5t42 -126.5
l-31 -298q-5 -49 18 -65t76 -3l-9 -80q-63 -8 -100.5 13t-34.5 87h-16q-27 -46 -77.5 -75.5t-109.5 -29.5zM329 700l-141 200h121l94 -200h-74z" />
    <glyph glyph-name="aacute" unicode="&#xe1;" 
d="M216 67q50 0 88 21t69 70l10 102h-143q-44 0 -71.5 -21t-32.5 -72q-5 -48 13 -74t67 -26zM198 -10q-71 0 -112 43t-32 127q8 78 57 123t118 45h161l11 98q5 46 -19.5 76.5t-79.5 30.5q-58 0 -87.5 -23t-51.5 -90l-68 23q23 82 77.5 124.5t135.5 42.5t132 -42.5t42 -126.5
l-31 -298q-5 -49 18 -65t76 -3l-9 -80q-63 -8 -100.5 13t-34.5 87h-16q-27 -46 -77.5 -75.5t-109.5 -29.5zM233 700l135 200h122l-183 -200h-74z" />
    <glyph glyph-name="acircumflex" unicode="&#xe2;" 
d="M216 67q50 0 88 21t69 70l10 102h-143q-44 0 -71.5 -21t-32.5 -72q-5 -48 13 -74t67 -26zM198 -10q-71 0 -112 43t-32 127q8 78 57 123t118 45h161l11 98q5 46 -19.5 76.5t-79.5 30.5q-58 0 -87.5 -23t-51.5 -90l-68 23q23 82 77.5 124.5t135.5 42.5t132 -42.5t42 -126.5
l-31 -298q-5 -49 18 -65t76 -3l-9 -80q-63 -8 -100.5 13t-34.5 87h-16q-27 -46 -77.5 -75.5t-109.5 -29.5zM193 718l-32 50l168 146h57l139 -146l-45 -51l-132 112z" />
    <glyph glyph-name="atilde" unicode="&#xe3;" 
d="M216 67q50 0 88 21t69 70l10 102h-143q-44 0 -71.5 -21t-32.5 -72q-5 -48 13 -74t67 -26zM198 -10q-71 0 -112 43t-32 127q8 78 57 123t118 45h161l11 98q5 46 -19.5 76.5t-79.5 30.5q-58 0 -87.5 -23t-51.5 -90l-68 23q23 82 77.5 124.5t135.5 42.5t132 -42.5t42 -126.5
l-31 -298q-5 -49 18 -65t76 -3l-9 -80q-63 -8 -100.5 13t-34.5 87h-16q-27 -46 -77.5 -75.5t-109.5 -29.5zM393 710q-32 0 -49.5 19.5t-29.5 41.5l-21 41t-26 19q-19 0 -31.5 -24t-16.5 -78l-1 -9h-63l1 15q8 72 41 120.5t86 48.5q35 0 53.5 -19.5t29.5 -40.5l18.5 -41
t23.5 -19q18 0 31 23.5t19 77.5l1 10h62l-2 -15q-7 -74 -40 -122t-86 -48z" />
    <glyph glyph-name="adieresis" unicode="&#xe4;" 
d="M216 67q50 0 88 21t69 70l10 102h-143q-44 0 -71.5 -21t-32.5 -72q-5 -48 13 -74t67 -26zM198 -10q-71 0 -112 43t-32 127q8 78 57 123t118 45h161l11 98q5 46 -19.5 76.5t-79.5 30.5q-58 0 -87.5 -23t-51.5 -90l-68 23q23 82 77.5 124.5t135.5 42.5t132 -42.5t42 -126.5
l-31 -298q-5 -49 18 -65t76 -3l-9 -80q-63 -8 -100.5 13t-34.5 87h-16q-27 -46 -77.5 -75.5t-109.5 -29.5zM232 716q-24 0 -37.5 10.5t-9.5 40.5v5q3 31 19 42t40 11q25 0 37.5 -11t9.5 -42v-5q-4 -30 -19.5 -40.5t-39.5 -10.5zM424 716q-25 0 -38 10.5t-9 40.5v5
q3 31 18.5 42t40.5 11q23 0 36.5 -11t10.5 -42v-5q-4 -30 -20 -40.5t-39 -10.5z" />
    <glyph glyph-name="aring" unicode="&#xe5;" 
d="M216 67q50 0 88 21t69 70l10 102h-143q-44 0 -71.5 -21t-32.5 -72q-5 -48 13 -74t67 -26zM198 -10q-71 0 -112 43t-32 127q8 78 57 123t118 45h161l11 98q5 46 -19.5 76.5t-79.5 30.5q-58 0 -87.5 -23t-51.5 -90l-68 23q23 82 77.5 124.5t135.5 42.5t132 -42.5t42 -126.5
l-31 -298q-5 -49 18 -65t76 -3l-9 -80q-63 -8 -100.5 13t-34.5 87h-16q-27 -46 -77.5 -75.5t-109.5 -29.5zM326 688q-59 0 -91.5 35t-25.5 107l4 32q7 73 47.5 109t99.5 36q60 0 92 -36t25 -109l-4 -32q-7 -72 -47.5 -107t-99.5 -35zM333 753q34 0 53.5 17.5t23.5 59.5l4 32
q4 41 -11.5 60.5t-49.5 19.5t-53.5 -19.5t-23.5 -60.5l-4 -32q-4 -42 11.5 -59.5t49.5 -17.5z" />
    <glyph glyph-name="amacron" unicode="&#x101;" 
d="M216 67q50 0 88 21t69 70l10 102h-143q-44 0 -71.5 -21t-32.5 -72q-5 -48 13 -74t67 -26zM198 -10q-71 0 -112 43t-32 127q8 78 57 123t118 45h161l11 98q5 46 -19.5 76.5t-79.5 30.5q-58 0 -87.5 -23t-51.5 -90l-68 23q23 82 77.5 124.5t135.5 42.5t132 -42.5t42 -126.5
l-31 -298q-5 -49 18 -65t76 -3l-9 -80q-63 -8 -100.5 13t-34.5 87h-16q-27 -46 -77.5 -75.5t-109.5 -29.5zM168 764l8 72h332l-8 -72h-332z" />
    <glyph glyph-name="abreve" unicode="&#x103;" 
d="M216 67q50 0 88 21t69 70l10 102h-143q-44 0 -71.5 -21t-32.5 -72q-5 -48 13 -74t67 -26zM198 -10q-71 0 -112 43t-32 127q8 78 57 123t118 45h161l11 98q5 46 -19.5 76.5t-79.5 30.5q-58 0 -87.5 -23t-51.5 -90l-68 23q23 82 77.5 124.5t135.5 42.5t132 -42.5t42 -126.5
l-31 -298q-5 -49 18 -65t76 -3l-9 -80q-63 -8 -100.5 13t-34.5 87h-16q-27 -46 -77.5 -75.5t-109.5 -29.5zM327 693q-87 0 -134.5 48.5t-37.5 152.5h82q-7 -72 17.5 -102.5t79.5 -30.5t85.5 30.5t39.5 102.5h82q-12 -104 -69.5 -152.5t-144.5 -48.5z" />
    <glyph glyph-name="aogonek" unicode="&#x105;" 
d="M216 67q50 0 88 21t69 70l10 102h-143q-44 0 -71.5 -21t-32.5 -72q-5 -48 13 -74t67 -26zM198 -10q-71 0 -112 43t-32 127q8 78 57 123t118 45h161l11 98q5 46 -19.5 76.5t-79.5 30.5q-58 0 -87.5 -23t-51.5 -90l-68 23q23 82 77.5 124.5t135.5 42.5t132 -42.5t42 -126.5
l-31 -298q-5 -49 18 -65t76 -3l-9 -80q-63 -8 -100.5 13t-34.5 87h-16q-27 -46 -77.5 -75.5t-109.5 -29.5zM454 -213q-52 0 -85 31.5t-27 85.5q5 44 40.5 80t74.5 54l20 -15q-32 -22 -45 -49t-15 -46q-3 -28 11.5 -43.5t42.5 -15.5q15 0 38.5 3.5t36.5 6.5l-8 -82
q-17 -4 -41 -7t-43 -3z" />
    <glyph glyph-name="aringacute" unicode="&#x1fb;" 
d="M216 67q50 0 88 21t69 70l10 102h-143q-44 0 -71.5 -21t-32.5 -72q-5 -48 13 -74t67 -26zM198 -10q-71 0 -112 43t-32 127q8 78 57 123t118 45h161l11 98q5 46 -19.5 76.5t-79.5 30.5q-58 0 -87.5 -23t-51.5 -90l-68 23q23 82 77.5 124.5t135.5 42.5t132 -42.5t42 -126.5
l-31 -298q-5 -49 18 -65t76 -3l-9 -80q-63 -8 -100.5 13t-34.5 87h-16q-27 -46 -77.5 -75.5t-109.5 -29.5zM326 688q-59 0 -91.5 35t-25.5 107l4 32q7 73 47.5 109t99.5 36q60 0 92 -36t25 -109l-4 -32q-7 -72 -47.5 -107t-99.5 -35zM333 753q34 0 53.5 17.5t23.5 59.5l4 32
q4 41 -11.5 60.5t-49.5 19.5t-53.5 -19.5t-23.5 -60.5l-4 -32q-4 -42 11.5 -59.5t49.5 -17.5zM284 1000l135 200h122l-183 -200h-74z" />
    <glyph glyph-name="b" unicode="b" 
d="M263 -11q-56 0 -106 16t-88 49l78 746h79l-30 -284h26q24 45 65 69.5t92 24.5q78 0 114 -57t25 -166l-19 -181q-11 -104 -73 -160.5t-163 -56.5zM269 62q71 0 107 35.5t44 110.5l20 189q7 70 -14 102t-75 32q-46 0 -85.5 -25.5t-79.5 -82.5l-34 -326q26 -19 54 -27t63 -8
z" />
    <glyph glyph-name="c" unicode="c" 
d="M281 -10q-111 0 -159 55t-38 156l20 191q11 107 71.5 162.5t169.5 55.5q98 0 144 -49t41 -151l-78 -3q3 73 -25 100.5t-91 27.5q-68 0 -106.5 -33t-45.5 -105l-21 -199q-7 -68 25 -100t101 -32q63 0 95.5 22t42.5 85l78 -3q-16 -93 -71 -136.5t-153 -43.5z" />
    <glyph glyph-name="ccedilla" unicode="&#xe7;" 
d="M281 -10q-111 0 -159 55t-38 156l20 191q11 107 71.5 162.5t169.5 55.5q98 0 144 -49t41 -151l-78 -3q3 73 -25 100.5t-91 27.5q-68 0 -106.5 -33t-45.5 -105l-21 -199q-7 -68 25 -100t101 -32q63 0 95.5 22t42.5 85l78 -3q-16 -93 -71 -136.5t-153 -43.5zM240 0l20 42
q43 -10 68.5 -43t19.5 -90q-6 -63 -47 -92.5t-85 -29.5q-53 0 -85 21.5t-30 75.5l72 10q-1 -19 9.5 -26.5t36.5 -7.5q25 0 39.5 13t18.5 47q3 37 -5 54.5t-32 25.5z" />
    <glyph glyph-name="cacute" unicode="&#x107;" 
d="M281 -10q-111 0 -159 55t-38 156l20 191q11 107 71.5 162.5t169.5 55.5q98 0 144 -49t41 -151l-78 -3q3 73 -25 100.5t-91 27.5q-68 0 -106.5 -33t-45.5 -105l-21 -199q-7 -68 25 -100t101 -32q63 0 95.5 22t42.5 85l78 -3q-16 -93 -71 -136.5t-153 -43.5zM253 700
l135 200h122l-183 -200h-74z" />
    <glyph glyph-name="ccircumflex" unicode="&#x109;" 
d="M281 -10q-111 0 -159 55t-38 156l20 191q11 107 71.5 162.5t169.5 55.5q98 0 144 -49t41 -151l-78 -3q3 73 -25 100.5t-91 27.5q-68 0 -106.5 -33t-45.5 -105l-21 -199q-7 -68 25 -100t101 -32q63 0 95.5 22t42.5 85l78 -3q-16 -93 -71 -136.5t-153 -43.5zM215 718
l-32 50l168 146h57l139 -146l-45 -51l-132 112z" />
    <glyph glyph-name="cdotaccent" unicode="&#x10b;" 
d="M281 -10q-111 0 -159 55t-38 156l20 191q11 107 71.5 162.5t169.5 55.5q98 0 144 -49t41 -151l-78 -3q3 73 -25 100.5t-91 27.5q-68 0 -106.5 -33t-45.5 -105l-21 -199q-7 -68 25 -100t101 -32q63 0 95.5 22t42.5 85l78 -3q-16 -93 -71 -136.5t-153 -43.5zM350 716
q-31 0 -49.5 10.5t-14.5 40.5v5q3 31 24 42t52 11t49 -11t15 -42v-5q-4 -30 -24.5 -40.5t-51.5 -10.5z" />
    <glyph glyph-name="ccaron" unicode="&#x10d;" 
d="M281 -10q-111 0 -159 55t-38 156l20 191q11 107 71.5 162.5t169.5 55.5q98 0 144 -49t41 -151l-78 -3q3 73 -25 100.5t-91 27.5q-68 0 -106.5 -33t-45.5 -105l-21 -199q-7 -68 25 -100t101 -32q63 0 95.5 22t42.5 85l78 -3q-16 -93 -71 -136.5t-153 -43.5zM321 704
l-139 146l45 50l132 -110l155 110l32 -50l-168 -146h-57z" />
    <glyph glyph-name="d" unicode="d" 
d="M252 69q45 0 85 26.5t80 81.5l33 319q-23 22 -51.5 32t-63.5 10q-69 0 -106.5 -36t-45.5 -110l-20 -191q-7 -68 15 -100t74 -32zM381 84q-24 -45 -66 -69.5t-91 -24.5q-75 0 -112.5 58t-26.5 165l19 181q11 102 74.5 159.5t164.5 57.5q28 0 59 -8t57 -22l23 219h79
l-84 -800h-79l9 84h-26z" />
    <glyph glyph-name="dcaron" unicode="&#x10f;" 
d="M252 69q45 0 85 26.5t80 81.5l33 319q-23 22 -51.5 32t-63.5 10q-69 0 -106.5 -36t-45.5 -110l-20 -191q-7 -68 15 -100t74 -32zM381 84q-24 -45 -66 -69.5t-91 -24.5q-75 0 -112.5 58t-26.5 165l19 181q11 102 74.5 159.5t164.5 57.5q28 0 59 -8t57 -22l23 219h79
l-84 -800h-79l9 84h-26zM613 705l99 295h119l-160 -295h-58z" />
    <glyph glyph-name="e" unicode="e" 
d="M494 129q-32 -72 -81.5 -105.5t-143.5 -33.5q-98 0 -147 54t-37 161l19 186q12 111 76 165t155 54q92 0 143.5 -55t38.5 -171l-10 -98h-335l-8 -79q-8 -78 20.5 -110.5t91.5 -32.5q61 0 90.5 21.5t50.5 67.5zM182 385l-3 -32h256l2 22q9 83 -19.5 121.5t-91.5 38.5
t-99.5 -37.5t-44.5 -112.5z" />
    <glyph glyph-name="egrave" unicode="&#xe8;" 
d="M494 129q-32 -72 -81.5 -105.5t-143.5 -33.5q-98 0 -147 54t-37 161l19 186q12 111 76 165t155 54q92 0 143.5 -55t38.5 -171l-10 -98h-335l-8 -79q-8 -78 20.5 -110.5t91.5 -32.5q61 0 90.5 21.5t50.5 67.5zM182 385l-3 -32h256l2 22q9 83 -19.5 121.5t-91.5 38.5
t-99.5 -37.5t-44.5 -112.5zM347 700l-141 200h121l94 -200h-74z" />
    <glyph glyph-name="eacute" unicode="&#xe9;" 
d="M494 129q-32 -72 -81.5 -105.5t-143.5 -33.5q-98 0 -147 54t-37 161l19 186q12 111 76 165t155 54q92 0 143.5 -55t38.5 -171l-10 -98h-335l-8 -79q-8 -78 20.5 -110.5t91.5 -32.5q61 0 90.5 21.5t50.5 67.5zM182 385l-3 -32h256l2 22q9 83 -19.5 121.5t-91.5 38.5
t-99.5 -37.5t-44.5 -112.5zM250 700l135 200h122l-183 -200h-74z" />
    <glyph glyph-name="ecircumflex" unicode="&#xea;" 
d="M494 129q-32 -72 -81.5 -105.5t-143.5 -33.5q-98 0 -147 54t-37 161l19 186q12 111 76 165t155 54q92 0 143.5 -55t38.5 -171l-10 -98h-335l-8 -79q-8 -78 20.5 -110.5t91.5 -32.5q61 0 90.5 21.5t50.5 67.5zM182 385l-3 -32h256l2 22q9 83 -19.5 121.5t-91.5 38.5
t-99.5 -37.5t-44.5 -112.5zM202 718l-32 50l168 146h57l139 -146l-45 -51l-132 112z" />
    <glyph glyph-name="edieresis" unicode="&#xeb;" 
d="M494 129q-32 -72 -81.5 -105.5t-143.5 -33.5q-98 0 -147 54t-37 161l19 186q12 111 76 165t155 54q92 0 143.5 -55t38.5 -171l-10 -98h-335l-8 -79q-8 -78 20.5 -110.5t91.5 -32.5q61 0 90.5 21.5t50.5 67.5zM182 385l-3 -32h256l2 22q9 83 -19.5 121.5t-91.5 38.5
t-99.5 -37.5t-44.5 -112.5zM250 716q-24 0 -37.5 10.5t-9.5 40.5v5q3 31 19 42t40 11q25 0 37.5 -11t9.5 -42v-5q-4 -30 -19.5 -40.5t-39.5 -10.5zM442 716q-25 0 -38 10.5t-9 40.5v5q3 31 18.5 42t40.5 11q23 0 36.5 -11t10.5 -42v-5q-4 -30 -20 -40.5t-39 -10.5z" />
    <glyph glyph-name="emacron" unicode="&#x113;" 
d="M494 129q-32 -72 -81.5 -105.5t-143.5 -33.5q-98 0 -147 54t-37 161l19 186q12 111 76 165t155 54q92 0 143.5 -55t38.5 -171l-10 -98h-335l-8 -79q-8 -78 20.5 -110.5t91.5 -32.5q61 0 90.5 21.5t50.5 67.5zM182 385l-3 -32h256l2 22q9 83 -19.5 121.5t-91.5 38.5
t-99.5 -37.5t-44.5 -112.5zM185 764l8 72h332l-8 -72h-332z" />
    <glyph glyph-name="ebreve" unicode="&#x115;" 
d="M494 129q-32 -72 -81.5 -105.5t-143.5 -33.5q-98 0 -147 54t-37 161l19 186q12 111 76 165t155 54q92 0 143.5 -55t38.5 -171l-10 -98h-335l-8 -79q-8 -78 20.5 -110.5t91.5 -32.5q61 0 90.5 21.5t50.5 67.5zM182 385l-3 -32h256l2 22q9 83 -19.5 121.5t-91.5 38.5
t-99.5 -37.5t-44.5 -112.5zM344 693q-87 0 -134.5 48.5t-37.5 152.5h82q-7 -72 17.5 -102.5t79.5 -30.5t85.5 30.5t39.5 102.5h82q-12 -104 -69.5 -152.5t-144.5 -48.5z" />
    <glyph glyph-name="edotaccent" unicode="&#x117;" 
d="M494 129q-32 -72 -81.5 -105.5t-143.5 -33.5q-98 0 -147 54t-37 161l19 186q12 111 76 165t155 54q92 0 143.5 -55t38.5 -171l-10 -98h-335l-8 -79q-8 -78 20.5 -110.5t91.5 -32.5q61 0 90.5 21.5t50.5 67.5zM182 385l-3 -32h256l2 22q9 83 -19.5 121.5t-91.5 38.5
t-99.5 -37.5t-44.5 -112.5zM346 716q-31 0 -49.5 10.5t-14.5 40.5v5q3 31 24 42t52 11t49 -11t15 -42v-5q-4 -30 -24.5 -40.5t-51.5 -10.5z" />
    <glyph glyph-name="eogonek" unicode="&#x119;" 
d="M363 -213q-52 0 -85 31.5t-27 85.5q5 44 40.5 80t74.5 54l20 -15q-32 -22 -45 -49t-15 -46q-3 -28 11.5 -43.5t42.5 -15.5q15 0 38.5 3.5t36.5 6.5l-8 -82q-17 -4 -41 -7t-43 -3zM494 129q-32 -72 -81.5 -105.5t-143.5 -33.5q-98 0 -147 54t-37 161l19 186q12 111 76 165
t155 54q92 0 143.5 -55t38.5 -171l-10 -98h-335l-8 -79q-8 -78 20.5 -110.5t91.5 -32.5q61 0 90.5 21.5t50.5 67.5zM182 385l-3 -32h256l2 22q9 83 -19.5 121.5t-91.5 38.5t-99.5 -37.5t-44.5 -112.5z" />
    <glyph glyph-name="ecaron" unicode="&#x11b;" 
d="M494 129q-32 -72 -81.5 -105.5t-143.5 -33.5q-98 0 -147 54t-37 161l19 186q12 111 76 165t155 54q92 0 143.5 -55t38.5 -171l-10 -98h-335l-8 -79q-8 -78 20.5 -110.5t91.5 -32.5q61 0 90.5 21.5t50.5 67.5zM182 385l-3 -32h256l2 22q9 83 -19.5 121.5t-91.5 38.5
t-99.5 -37.5t-44.5 -112.5zM317 704l-139 146l45 50l132 -110l155 110l32 -50l-168 -146h-57z" />
    <glyph glyph-name="f" unicode="f" 
d="M167 -200l76 724h-143l8 76h143l4 42q8 76 63 117.5t127 41.5q35 0 73.5 -10.5t56.5 -21.5l-25 -71q-25 13 -54.5 19t-59.5 6q-42 0 -69 -17.5t-31 -56.5l-5 -49h209l-8 -76h-209l-76 -724h-80z" />
    <glyph glyph-name="g" 
d="M514 -55q-8 -81 -62 -118t-124 -37h-158q-75 0 -120 34t-36 115q4 46 28.5 74.5t65.5 32.5l2 21q-29 4 -45 27t-11 71q5 40 30.5 74.5t79.5 38.5l2 18q-38 17 -49 51t-8 59l3 35q7 67 60.5 113t142.5 46h246l-9 -84l-126 26l-2 -19q32 -12 46 -43.5t11 -61.5l-4 -33
q-7 -67 -55.5 -110.5t-146.5 -43.5h-104q-22 0 -35.5 -14t-16.5 -48q-4 -34 11 -50.5t48 -16.5h191q69 0 111.5 -36.5t33.5 -120.5zM285 303q51 0 81 23.5t35 75.5l3 28q6 52 -19.5 75t-76.5 23q-52 0 -81 -23t-35 -75l-3 -28q-5 -52 20 -75.5t76 -23.5zM172 -139h174
q37 0 63.5 19.5t31.5 63.5q5 43 -14.5 62t-53.5 19h-270l-8 -73q-5 -46 15 -68.5t62 -22.5z" />
    <glyph glyph-name="gcircumflex" 
d="M514 -55q-8 -81 -62 -118t-124 -37h-158q-75 0 -120 34t-36 115q4 46 28.5 74.5t65.5 32.5l2 21q-29 4 -45 27t-11 71q5 40 30.5 74.5t79.5 38.5l2 18q-38 17 -49 51t-8 59l3 35q7 67 60.5 113t142.5 46h246l-9 -84l-126 26l-2 -19q32 -12 46 -43.5t11 -61.5l-4 -33
q-7 -67 -55.5 -110.5t-146.5 -43.5h-104q-22 0 -35.5 -14t-16.5 -48q-4 -34 11 -50.5t48 -16.5h191q69 0 111.5 -36.5t33.5 -120.5zM285 303q51 0 81 23.5t35 75.5l3 28q6 52 -19.5 75t-76.5 23q-52 0 -81 -23t-35 -75l-3 -28q-5 -52 20 -75.5t76 -23.5zM172 -139h174
q37 0 63.5 19.5t31.5 63.5q5 43 -14.5 62t-53.5 19h-270l-8 -73q-5 -46 15 -68.5t62 -22.5zM192 718l-32 50l168 146h57l139 -146l-45 -51l-132 112z" />
    <glyph glyph-name="gbreve" 
d="M514 -55q-8 -81 -62 -118t-124 -37h-158q-75 0 -120 34t-36 115q4 46 28.5 74.5t65.5 32.5l2 21q-29 4 -45 27t-11 71q5 40 30.5 74.5t79.5 38.5l2 18q-38 17 -49 51t-8 59l3 35q7 67 60.5 113t142.5 46h246l-9 -84l-126 26l-2 -19q32 -12 46 -43.5t11 -61.5l-4 -33
q-7 -67 -55.5 -110.5t-146.5 -43.5h-104q-22 0 -35.5 -14t-16.5 -48q-4 -34 11 -50.5t48 -16.5h191q69 0 111.5 -36.5t33.5 -120.5zM285 303q51 0 81 23.5t35 75.5l3 28q6 52 -19.5 75t-76.5 23q-52 0 -81 -23t-35 -75l-3 -28q-5 -52 20 -75.5t76 -23.5zM172 -139h174
q37 0 63.5 19.5t31.5 63.5q5 43 -14.5 62t-53.5 19h-270l-8 -73q-5 -46 15 -68.5t62 -22.5zM343 693q-87 0 -134.5 48.5t-37.5 152.5h82q-7 -72 17.5 -102.5t79.5 -30.5t85.5 30.5t39.5 102.5h82q-12 -104 -69.5 -152.5t-144.5 -48.5z" />
    <glyph glyph-name="gdotaccent" 
d="M514 -55q-8 -81 -62 -118t-124 -37h-158q-75 0 -120 34t-36 115q4 46 28.5 74.5t65.5 32.5l2 21q-29 4 -45 27t-11 71q5 40 30.5 74.5t79.5 38.5l2 18q-38 17 -49 51t-8 59l3 35q7 67 60.5 113t142.5 46h246l-9 -84l-126 26l-2 -19q32 -12 46 -43.5t11 -61.5l-4 -33
q-7 -67 -55.5 -110.5t-146.5 -43.5h-104q-22 0 -35.5 -14t-16.5 -48q-4 -34 11 -50.5t48 -16.5h191q69 0 111.5 -36.5t33.5 -120.5zM285 303q51 0 81 23.5t35 75.5l3 28q6 52 -19.5 75t-76.5 23q-52 0 -81 -23t-35 -75l-3 -28q-5 -52 20 -75.5t76 -23.5zM172 -139h174
q37 0 63.5 19.5t31.5 63.5q5 43 -14.5 62t-53.5 19h-270l-8 -73q-5 -46 15 -68.5t62 -22.5zM345 716q-31 0 -49.5 10.5t-14.5 40.5v5q3 31 24 42t52 11t49 -11t15 -42v-5q-4 -30 -24.5 -40.5t-51.5 -10.5z" />
    <glyph glyph-name="gcommaaccent" 
d="M514 -55q-8 -81 -62 -118t-124 -37h-158q-75 0 -120 34t-36 115q4 46 28.5 74.5t65.5 32.5l2 21q-29 4 -45 27t-11 71q5 40 30.5 74.5t79.5 38.5l2 18q-38 17 -49 51t-8 59l3 35q7 67 60.5 113t142.5 46h246l-9 -84l-126 26l-2 -19q32 -12 46 -43.5t11 -61.5l-4 -33
q-7 -67 -55.5 -110.5t-146.5 -43.5h-104q-22 0 -35.5 -14t-16.5 -48q-4 -34 11 -50.5t48 -16.5h191q69 0 111.5 -36.5t33.5 -120.5zM285 303q51 0 81 23.5t35 75.5l3 28q6 52 -19.5 75t-76.5 23q-52 0 -81 -23t-35 -75l-3 -28q-5 -52 20 -75.5t76 -23.5zM172 -139h174
q37 0 63.5 19.5t31.5 63.5q5 43 -14.5 62t-53.5 19h-270l-8 -73q-5 -46 15 -68.5t62 -22.5zM267 700l149 200h75l-102 -200h-122z" />
    <glyph glyph-name="h" unicode="h" 
d="M63 0l84 800h79l-30 -284h26q20 43 63 68.5t94 25.5q74 0 112.5 -54t28.5 -144l-43 -412h-79l42 400q7 65 -15 98t-71 33q-43 0 -84.5 -25t-82.5 -74l-45 -432h-79z" />
    <glyph glyph-name="hcircumflex" unicode="&#x125;" 
d="M63 0l84 800h79l-30 -284h26q20 43 63 68.5t94 25.5q74 0 112.5 -54t28.5 -144l-43 -412h-79l42 400q7 65 -15 98t-71 33q-43 0 -84.5 -25t-82.5 -74l-45 -432h-79zM65 918l-32 50l168 146h57l139 -146l-45 -51l-132 112z" />
    <glyph glyph-name="i" 
d="M62 0l8 76h168l47 448h-168l8 76h248l-55 -524h168l-8 -76h-416zM344 716q-31 0 -49.5 10.5t-14.5 40.5v5q3 31 24 42t52 11t49 -11t15 -42v-5q-4 -30 -24.5 -40.5t-51.5 -10.5z" />
    <glyph glyph-name="igrave" 
d="M62 0l8 76h168l47 448h-168l8 76h248l-55 -524h168l-8 -76h-416zM346 700l-141 200h121l94 -200h-74z" />
    <glyph glyph-name="iacute" 
d="M62 0l8 76h168l47 448h-168l8 76h248l-55 -524h168l-8 -76h-416zM250 700l135 200h122l-183 -200h-74z" />
    <glyph glyph-name="icircumflex" 
d="M62 0l8 76h168l47 448h-168l8 76h248l-55 -524h168l-8 -76h-416zM201 718l-32 50l168 146h57l139 -146l-45 -51l-132 112z" />
    <glyph glyph-name="idieresis" 
d="M62 0l8 76h168l47 448h-168l8 76h248l-55 -524h168l-8 -76h-416zM249 716q-24 0 -37.5 10.5t-9.5 40.5v5q3 31 19 42t40 11q25 0 37.5 -11t9.5 -42v-5q-4 -30 -19.5 -40.5t-39.5 -10.5zM441 716q-25 0 -38 10.5t-9 40.5v5q3 31 18.5 42t40.5 11q23 0 36.5 -11t10.5 -42
v-5q-4 -30 -20 -40.5t-39 -10.5z" />
    <glyph glyph-name="itilde" 
d="M62 0l8 76h168l47 448h-168l8 76h248l-55 -524h168l-8 -76h-416zM410 710q-32 0 -49.5 19.5t-29.5 41.5l-21 41t-26 19q-19 0 -31.5 -24t-16.5 -78l-1 -9h-63l1 15q8 72 41 120.5t86 48.5q35 0 53.5 -19.5t29.5 -40.5l18.5 -41t23.5 -19q18 0 31 23.5t19 77.5l1 10h62
l-2 -15q-7 -74 -40 -122t-86 -48z" />
    <glyph glyph-name="imacron" 
d="M62 0l8 76h168l47 448h-168l8 76h248l-55 -524h168l-8 -76h-416zM184 764l8 72h332l-8 -72h-332z" />
    <glyph glyph-name="ibreve" 
d="M62 0l8 76h168l47 448h-168l8 76h248l-55 -524h168l-8 -76h-416zM343 693q-87 0 -134.5 48.5t-37.5 152.5h82q-7 -72 17.5 -102.5t79.5 -30.5t85.5 30.5t39.5 102.5h82q-12 -104 -69.5 -152.5t-144.5 -48.5z" />
    <glyph glyph-name="iogonek" 
d="M344 716q-31 0 -49.5 10.5t-14.5 40.5v5q3 31 24 42t52 11t49 -11t15 -42v-5q-4 -30 -24.5 -40.5t-51.5 -10.5zM62 0l8 76h168l47 448h-168l8 76h248l-55 -524h168l-8 -76h-416zM317 -213q-52 0 -85 31.5t-27 85.5q5 44 40.5 80t74.5 54l20 -15q-32 -22 -45 -49t-15 -46
q-3 -28 11.5 -43.5t42.5 -15.5q15 0 38.5 3.5t36.5 6.5l-8 -82q-17 -4 -41 -7t-43 -3z" />
    <glyph glyph-name="j" unicode="j" 
d="M172 -208q-31 0 -61.5 4.5t-66.5 17.5l27 87q29 -13 55.5 -17.5t52.5 -4.5q54 0 91 29t45 97l54 519h-235l8 76h315l-64 -607q-11 -104 -74.5 -152.5t-146.5 -48.5zM427 716q-31 0 -49.5 10.5t-14.5 40.5v5q3 31 24 42t52 11t49 -11t15 -42v-5q-4 -30 -24.5 -40.5
t-51.5 -10.5z" />
    <glyph glyph-name="jcircumflex" unicode="&#x135;" 
d="M172 -208q-31 0 -61.5 4.5t-66.5 17.5l27 87q29 -13 55.5 -17.5t52.5 -4.5q54 0 91 29t45 97l54 519h-235l8 76h315l-64 -607q-11 -104 -74.5 -152.5t-146.5 -48.5zM256 718l-32 50l168 146h57l139 -146l-45 -51l-132 112z" />
    <glyph glyph-name="k" unicode="k" 
d="M216 281l-30 -281h-80l84 800h80l-47 -448h43l188 248h98l-228 -281l163 -319h-92l-136 281h-43z" />
    <glyph glyph-name="kcommaaccent" unicode="&#x137;" 
d="M216 281l-30 -281h-80l84 800h80l-47 -448h43l188 248h98l-228 -281l163 -319h-92l-136 281h-43zM120 -300l102 200h122l-149 -200h-75z" />
    <glyph glyph-name="l" 
d="M62 0l8 76h167l68 648h-167l8 76h247l-76 -724h168l-8 -76h-415z" />
    <glyph glyph-name="lacute" 
d="M62 0l8 76h167l68 648h-167l8 76h247l-76 -724h168l-8 -76h-415zM264 900l135 200h122l-183 -200h-74z" />
    <glyph glyph-name="lcommaaccent" 
d="M62 0l8 76h167l68 648h-167l8 76h247l-76 -724h168l-8 -76h-415zM106 -300l102 200h122l-149 -200h-75z" />
    <glyph glyph-name="lcaron" 
d="M62 0l8 76h167l68 648h-167l8 76h247l-76 -724h168l-8 -76h-415zM444 705l99 295h119l-160 -295h-58z" />
    <glyph glyph-name="m" unicode="m" 
d="M150 437l-46 -437h-74l63 600h75l-8 -72h16q20 40 47 62t57 22q33 0 52.5 -22t24.5 -62h18q20 40 48.5 62t61.5 22q42 0 61.5 -38.5t12.5 -107.5l-49 -466h-74l48 457q4 42 -4.5 64t-27.5 22t-44.5 -27t-53.5 -79l-46 -437h-76l48 457q5 43 -3.5 64.5t-27.5 21.5
t-44 -26.5t-55 -79.5z" />
    <glyph glyph-name="n" unicode="n" 
d="M63 0l63 600h79l-9 -84h26q27 43 69.5 68.5t88.5 25.5q75 0 112.5 -53t27.5 -146l-43 -411h-79l42 396q7 67 -15 101t-71 34q-43 0 -85 -26t-82 -77l-45 -428h-79z" />
    <glyph glyph-name="ntilde" unicode="&#xf1;" 
d="M63 0l63 600h79l-9 -84h26q27 43 69.5 68.5t88.5 25.5q75 0 112.5 -53t27.5 -146l-43 -411h-79l42 396q7 67 -15 101t-71 34q-43 0 -85 -26t-82 -77l-45 -428h-79zM427 710q-32 0 -49.5 19.5t-29.5 41.5l-21 41t-26 19q-19 0 -31.5 -24t-16.5 -78l-1 -9h-63l1 15
q8 72 41 120.5t86 48.5q35 0 53.5 -19.5t29.5 -40.5l18.5 -41t23.5 -19q18 0 31 23.5t19 77.5l1 10h62l-2 -15q-7 -74 -40 -122t-86 -48z" />
    <glyph glyph-name="nacute" unicode="&#x144;" 
d="M63 0l63 600h79l-9 -84h26q27 43 69.5 68.5t88.5 25.5q75 0 112.5 -53t27.5 -146l-43 -411h-79l42 396q7 67 -15 101t-71 34q-43 0 -85 -26t-82 -77l-45 -428h-79zM267 700l135 200h122l-183 -200h-74z" />
    <glyph glyph-name="ncommaaccent" unicode="&#x146;" 
d="M127 -300l102 200h122l-149 -200h-75zM63 0l63 600h79l-9 -84h26q27 43 69.5 68.5t88.5 25.5q75 0 112.5 -53t27.5 -146l-43 -411h-79l42 396q7 67 -15 101t-71 34q-43 0 -85 -26t-82 -77l-45 -428h-79z" />
    <glyph glyph-name="ncaron" unicode="&#x148;" 
d="M63 0l63 600h79l-9 -84h26q27 43 69.5 68.5t88.5 25.5q75 0 112.5 -53t27.5 -146l-43 -411h-79l42 396q7 67 -15 101t-71 34q-43 0 -85 -26t-82 -77l-45 -428h-79zM333 704l-139 146l45 50l132 -110l155 110l32 -50l-168 -146h-57z" />
    <glyph glyph-name="o" unicode="o" 
d="M269 -10q-100 0 -147.5 55.5t-37.5 158.5l20 188q11 105 71 161.5t160 56.5q99 0 146.5 -56t36.5 -160l-19 -189q-11 -104 -70.5 -159.5t-159.5 -55.5zM277 66q64 0 99.5 32t42.5 103l20 193q8 72 -20.5 106t-92.5 34t-99.5 -34t-43.5 -106l-20 -194q-7 -70 21.5 -102
t92.5 -32z" />
    <glyph glyph-name="ograve" unicode="&#xf2;" 
d="M269 -10q-100 0 -147.5 55.5t-37.5 158.5l20 188q11 105 71 161.5t160 56.5q99 0 146.5 -56t36.5 -160l-19 -189q-11 -104 -70.5 -159.5t-159.5 -55.5zM277 66q64 0 99.5 32t42.5 103l20 193q8 72 -20.5 106t-92.5 34t-99.5 -34t-43.5 -106l-20 -194q-7 -70 21.5 -102
t92.5 -32zM346 700l-141 200h121l94 -200h-74z" />
    <glyph glyph-name="oacute" unicode="&#xf3;" 
d="M269 -10q-100 0 -147.5 55.5t-37.5 158.5l20 188q11 105 71 161.5t160 56.5q99 0 146.5 -56t36.5 -160l-19 -189q-11 -104 -70.5 -159.5t-159.5 -55.5zM277 66q64 0 99.5 32t42.5 103l20 193q8 72 -20.5 106t-92.5 34t-99.5 -34t-43.5 -106l-20 -194q-7 -70 21.5 -102
t92.5 -32zM250 700l135 200h122l-183 -200h-74z" />
    <glyph glyph-name="ocircumflex" unicode="&#xf4;" 
d="M269 -10q-100 0 -147.5 55.5t-37.5 158.5l20 188q11 105 71 161.5t160 56.5q99 0 146.5 -56t36.5 -160l-19 -189q-11 -104 -70.5 -159.5t-159.5 -55.5zM277 66q64 0 99.5 32t42.5 103l20 193q8 72 -20.5 106t-92.5 34t-99.5 -34t-43.5 -106l-20 -194q-7 -70 21.5 -102
t92.5 -32zM201 718l-32 50l168 146h57l139 -146l-45 -51l-132 112z" />
    <glyph glyph-name="otilde" unicode="&#xf5;" 
d="M269 -10q-100 0 -147.5 55.5t-37.5 158.5l20 188q11 105 71 161.5t160 56.5q99 0 146.5 -56t36.5 -160l-19 -189q-11 -104 -70.5 -159.5t-159.5 -55.5zM277 66q64 0 99.5 32t42.5 103l20 193q8 72 -20.5 106t-92.5 34t-99.5 -34t-43.5 -106l-20 -194q-7 -70 21.5 -102
t92.5 -32zM410 710q-32 0 -49.5 19.5t-29.5 41.5l-21 41t-26 19q-19 0 -31.5 -24t-16.5 -78l-1 -9h-63l1 15q8 72 41 120.5t86 48.5q35 0 53.5 -19.5t29.5 -40.5l18.5 -41t23.5 -19q18 0 31 23.5t19 77.5l1 10h62l-2 -15q-7 -74 -40 -122t-86 -48z" />
    <glyph glyph-name="odieresis" unicode="&#xf6;" 
d="M269 -10q-100 0 -147.5 55.5t-37.5 158.5l20 188q11 105 71 161.5t160 56.5q99 0 146.5 -56t36.5 -160l-19 -189q-11 -104 -70.5 -159.5t-159.5 -55.5zM277 66q64 0 99.5 32t42.5 103l20 193q8 72 -20.5 106t-92.5 34t-99.5 -34t-43.5 -106l-20 -194q-7 -70 21.5 -102
t92.5 -32zM249 716q-24 0 -37.5 10.5t-9.5 40.5v5q3 31 19 42t40 11q25 0 37.5 -11t9.5 -42v-5q-4 -30 -19.5 -40.5t-39.5 -10.5zM441 716q-25 0 -38 10.5t-9 40.5v5q3 31 18.5 42t40.5 11q23 0 36.5 -11t10.5 -42v-5q-4 -30 -20 -40.5t-39 -10.5z" />
    <glyph glyph-name="omacron" unicode="&#x14d;" 
d="M269 -10q-100 0 -147.5 55.5t-37.5 158.5l20 188q11 105 71 161.5t160 56.5q99 0 146.5 -56t36.5 -160l-19 -189q-11 -104 -70.5 -159.5t-159.5 -55.5zM277 66q64 0 99.5 32t42.5 103l20 193q8 72 -20.5 106t-92.5 34t-99.5 -34t-43.5 -106l-20 -194q-7 -70 21.5 -102
t92.5 -32zM184 764l8 72h332l-8 -72h-332z" />
    <glyph glyph-name="obreve" unicode="&#x14f;" 
d="M269 -10q-100 0 -147.5 55.5t-37.5 158.5l20 188q11 105 71 161.5t160 56.5q99 0 146.5 -56t36.5 -160l-19 -189q-11 -104 -70.5 -159.5t-159.5 -55.5zM277 66q64 0 99.5 32t42.5 103l20 193q8 72 -20.5 106t-92.5 34t-99.5 -34t-43.5 -106l-20 -194q-7 -70 21.5 -102
t92.5 -32zM343 693q-87 0 -134.5 48.5t-37.5 152.5h82q-7 -72 17.5 -102.5t79.5 -30.5t85.5 30.5t39.5 102.5h82q-12 -104 -69.5 -152.5t-144.5 -48.5z" />
    <glyph glyph-name="ohungarumlaut" unicode="&#x151;" 
d="M269 -10q-100 0 -147.5 55.5t-37.5 158.5l20 188q11 105 71 161.5t160 56.5q99 0 146.5 -56t36.5 -160l-19 -189q-11 -104 -70.5 -159.5t-159.5 -55.5zM277 66q64 0 99.5 32t42.5 103l20 193q8 72 -20.5 106t-92.5 34t-99.5 -34t-43.5 -106l-20 -194q-7 -70 21.5 -102
t92.5 -32zM391 700l68 200h115l-125 -200h-58zM199 700l68 200h115l-125 -200h-58z" />
    <glyph glyph-name="p" unicode="p" 
d="M269 62q69 0 106 36.5t45 109.5l20 189q7 68 -15 101t-74 33q-45 0 -85 -26.5t-80 -81.5l-33 -319q24 -21 52.5 -31.5t63.5 -10.5zM260 -11q-28 0 -58.5 8t-57.5 22l-23 -219h-79l84 800h79l-9 -84h26q23 43 64.5 68.5t92.5 25.5q76 0 112.5 -60.5t25.5 -164.5l-18 -179
q-11 -101 -74.5 -159t-164.5 -58z" />
    <glyph glyph-name="q" unicode="q" 
d="M377 -200l30 284h-26q-27 -46 -68.5 -70t-87.5 -24q-78 0 -114.5 58t-25.5 165l19 181q11 102 76 159.5t161 57.5q55 0 105 -14.5t89 -40.5l-79 -756h-79zM252 69q45 0 85.5 27t79.5 81l34 326q-24 18 -53 26.5t-63 8.5q-62 0 -103 -37t-49 -109l-18 -177
q-8 -73 13.5 -109.5t73.5 -36.5z" />
    <glyph glyph-name="r" unicode="r" 
d="M105 0l63 600h80l-9 -89h26q21 52 59.5 75.5t89.5 23.5q56 0 90.5 -42t26.5 -120l-9 -91h-79l6 61q6 57 -11.5 85t-63.5 28q-40 0 -75.5 -24t-67.5 -70l-46 -437h-80z" />
    <glyph glyph-name="racute" unicode="&#x155;" 
d="M105 0l63 600h80l-9 -89h26q21 52 59.5 75.5t89.5 23.5q56 0 90.5 -42t26.5 -120l-9 -91h-79l6 61q6 57 -11.5 85t-63.5 28q-40 0 -75.5 -24t-67.5 -70l-46 -437h-80zM284 700l135 200h122l-183 -200h-74z" />
    <glyph glyph-name="rcommaaccent" unicode="&#x157;" 
d="M105 0l63 600h80l-9 -89h26q21 52 59.5 75.5t89.5 23.5q56 0 90.5 -42t26.5 -120l-9 -91h-79l6 61q6 57 -11.5 85t-63.5 28q-40 0 -75.5 -24t-67.5 -70l-46 -437h-80zM9 -300l102 200h122l-149 -200h-75z" />
    <glyph glyph-name="rcaron" unicode="&#x159;" 
d="M105 0l63 600h80l-9 -89h26q21 52 59.5 75.5t89.5 23.5q56 0 90.5 -42t26.5 -120l-9 -91h-79l6 61q6 57 -11.5 85t-63.5 28q-40 0 -75.5 -24t-67.5 -70l-46 -437h-80zM350 704l-139 146l45 50l132 -110l155 110l32 -50l-168 -146h-57z" />
    <glyph glyph-name="s" unicode="s" 
d="M281 -11q-63 0 -122.5 20t-103.5 62l45 67q36 -32 86 -51.5t104 -19.5t91 19.5t42 68.5q6 50 -25 70t-114 37q-99 19 -140 59.5t-33 115.5q9 84 66.5 128.5t139.5 44.5q58 0 113 -22.5t95 -62.5l-44 -69q-34 31 -78.5 53.5t-95.5 22.5q-49 0 -80 -20.5t-37 -69.5
q-5 -50 25.5 -70.5t112.5 -36.5q99 -19 140.5 -60.5t34.5 -112.5q-9 -87 -72 -130t-150 -43z" />
    <glyph glyph-name="sacute" unicode="&#x15b;" 
d="M281 -11q-63 0 -122.5 20t-103.5 62l45 67q36 -32 86 -51.5t104 -19.5t91 19.5t42 68.5q6 50 -25 70t-114 37q-99 19 -140 59.5t-33 115.5q9 84 66.5 128.5t139.5 44.5q58 0 113 -22.5t95 -62.5l-44 -69q-34 31 -78.5 53.5t-95.5 22.5q-49 0 -80 -20.5t-37 -69.5
q-5 -50 25.5 -70.5t112.5 -36.5q99 -19 140.5 -60.5t34.5 -112.5q-9 -87 -72 -130t-150 -43zM248 700l135 200h122l-183 -200h-74z" />
    <glyph glyph-name="scircumflex" unicode="&#x15d;" 
d="M281 -11q-63 0 -122.5 20t-103.5 62l45 67q36 -32 86 -51.5t104 -19.5t91 19.5t42 68.5q6 50 -25 70t-114 37q-99 19 -140 59.5t-33 115.5q9 84 66.5 128.5t139.5 44.5q58 0 113 -22.5t95 -62.5l-44 -69q-34 31 -78.5 53.5t-95.5 22.5q-49 0 -80 -20.5t-37 -69.5
q-5 -50 25.5 -70.5t112.5 -36.5q99 -19 140.5 -60.5t34.5 -112.5q-9 -87 -72 -130t-150 -43zM199 718l-32 50l168 146h57l139 -146l-45 -51l-132 112z" />
    <glyph glyph-name="scedilla" unicode="&#x15f;" 
d="M281 -11q-63 0 -122.5 20t-103.5 62l45 67q36 -32 86 -51.5t104 -19.5t91 19.5t42 68.5q6 50 -25 70t-114 37q-99 19 -140 59.5t-33 115.5q9 84 66.5 128.5t139.5 44.5q58 0 113 -22.5t95 -62.5l-44 -69q-34 31 -78.5 53.5t-95.5 22.5q-49 0 -80 -20.5t-37 -69.5
q-5 -50 25.5 -70.5t112.5 -36.5q99 -19 140.5 -60.5t34.5 -112.5q-9 -87 -72 -130t-150 -43zM243 0l20 42q43 -10 68.5 -43t19.5 -90q-6 -63 -47 -92.5t-85 -29.5q-53 0 -85 21.5t-30 75.5l72 10q-1 -19 9.5 -26.5t36.5 -7.5q25 0 39.5 13t18.5 47q3 37 -5 54.5t-32 25.5z
" />
    <glyph glyph-name="scaron" unicode="&#x161;" 
d="M281 -11q-63 0 -122.5 20t-103.5 62l45 67q36 -32 86 -51.5t104 -19.5t91 19.5t42 68.5q6 50 -25 70t-114 37q-99 19 -140 59.5t-33 115.5q9 84 66.5 128.5t139.5 44.5q58 0 113 -22.5t95 -62.5l-44 -69q-34 31 -78.5 53.5t-95.5 22.5q-49 0 -80 -20.5t-37 -69.5
q-5 -50 25.5 -70.5t112.5 -36.5q99 -19 140.5 -60.5t34.5 -112.5q-9 -87 -72 -130t-150 -43zM314 704l-139 146l45 50l132 -110l155 110l32 -50l-168 -146h-57z" />
    <glyph glyph-name="scommaaccent" unicode="&#x219;" 
d="M281 -11q-63 0 -122.5 20t-103.5 62l45 67q36 -32 86 -51.5t104 -19.5t91 19.5t42 68.5q6 50 -25 70t-114 37q-99 19 -140 59.5t-33 115.5q9 84 66.5 128.5t139.5 44.5q58 0 113 -22.5t95 -62.5l-44 -69q-34 31 -78.5 53.5t-95.5 22.5q-49 0 -80 -20.5t-37 -69.5
q-5 -50 25.5 -70.5t112.5 -36.5q99 -19 140.5 -60.5t34.5 -112.5q-9 -87 -72 -130t-150 -43zM110 -300l102 200h122l-149 -200h-75z" />
    <glyph glyph-name="t" unicode="t" 
d="M363 -9q-85 0 -126.5 50t-32.5 140l36 343h-143l8 76h143l21 200h79l-21 -200h219l-8 -76h-219l-35 -332q-6 -60 15 -90t70 -30q31 0 60 5t55 15l8 -78q-25 -9 -60 -16t-69 -7z" />
    <glyph glyph-name="tcedilla" unicode="&#x163;" 
d="M363 -9q-85 0 -126.5 50t-32.5 140l36 343h-143l8 76h143l21 200h79l-21 -200h219l-8 -76h-219l-35 -332q-6 -60 15 -90t70 -30q31 0 60 5t55 15l8 -78q-25 -9 -60 -16t-69 -7zM300 0l20 42q43 -10 68.5 -43t19.5 -90q-6 -63 -47 -92.5t-85 -29.5q-53 0 -85 21.5
t-30 75.5l72 10q-1 -19 9.5 -26.5t36.5 -7.5q25 0 39.5 13t18.5 47q3 37 -5 54.5t-32 25.5z" />
    <glyph glyph-name="tcaron" unicode="&#x165;" 
d="M363 -9q-85 0 -126.5 50t-32.5 140l36 343h-143l8 76h143l21 200h79l-21 -200h219l-8 -76h-219l-35 -332q-6 -60 15 -90t70 -30q31 0 60 5t55 15l8 -78q-25 -9 -60 -16t-69 -7zM393 705l99 295h119l-160 -295h-58z" />
    <glyph glyph-name="tcommaaccent" unicode="&#x21b;" 
d="M363 -9q-85 0 -126.5 50t-32.5 140l36 343h-143l8 76h143l21 200h79l-21 -200h219l-8 -76h-219l-35 -332q-6 -60 15 -90t70 -30q31 0 60 5t55 15l8 -78q-25 -9 -60 -16t-69 -7zM126 -300l102 200h122l-149 -200h-75z" />
    <glyph glyph-name="u" unicode="u" 
d="M225 -10q-74 0 -113 54.5t-29 144.5l43 411h79l-42 -402q-7 -63 15 -96t72 -33q42 0 84 24.5t81 72.5l46 434h79l-63 -600h-79l9 84h-26q-19 -41 -62 -67.5t-94 -26.5z" />
    <glyph glyph-name="ugrave" unicode="&#xf9;" 
d="M225 -10q-74 0 -113 54.5t-29 144.5l43 411h79l-42 -402q-7 -63 15 -96t72 -33q42 0 84 24.5t81 72.5l46 434h79l-63 -600h-79l9 84h-26q-19 -41 -62 -67.5t-94 -26.5zM319 700l-141 200h121l94 -200h-74z" />
    <glyph glyph-name="uacute" unicode="&#xfa;" 
d="M225 -10q-74 0 -113 54.5t-29 144.5l43 411h79l-42 -402q-7 -63 15 -96t72 -33q42 0 84 24.5t81 72.5l46 434h79l-63 -600h-79l9 84h-26q-19 -41 -62 -67.5t-94 -26.5zM283 700l135 200h122l-183 -200h-74z" />
    <glyph glyph-name="ucircumflex" unicode="&#xfb;" 
d="M225 -10q-74 0 -113 54.5t-29 144.5l43 411h79l-42 -402q-7 -63 15 -96t72 -33q42 0 84 24.5t81 72.5l46 434h79l-63 -600h-79l9 84h-26q-19 -41 -62 -67.5t-94 -26.5zM201 718l-32 50l168 146h57l139 -146l-45 -51l-132 112z" />
    <glyph glyph-name="udieresis" unicode="&#xfc;" 
d="M225 -10q-74 0 -113 54.5t-29 144.5l43 411h79l-42 -402q-7 -63 15 -96t72 -33q42 0 84 24.5t81 72.5l46 434h79l-63 -600h-79l9 84h-26q-19 -41 -62 -67.5t-94 -26.5zM249 716q-24 0 -37.5 10.5t-9.5 40.5v5q3 31 19 42t40 11q25 0 37.5 -11t9.5 -42v-5
q-4 -30 -19.5 -40.5t-39.5 -10.5zM441 716q-25 0 -38 10.5t-9 40.5v5q3 31 18.5 42t40.5 11q23 0 36.5 -11t10.5 -42v-5q-4 -30 -20 -40.5t-39 -10.5z" />
    <glyph glyph-name="utilde" unicode="&#x169;" 
d="M225 -10q-74 0 -113 54.5t-29 144.5l43 411h79l-42 -402q-7 -63 15 -96t72 -33q42 0 84 24.5t81 72.5l46 434h79l-63 -600h-79l9 84h-26q-19 -41 -62 -67.5t-94 -26.5zM410 710q-32 0 -49.5 19.5t-29.5 41.5l-21 41t-26 19q-19 0 -31.5 -24t-16.5 -78l-1 -9h-63l1 15
q8 72 41 120.5t86 48.5q35 0 53.5 -19.5t29.5 -40.5l18.5 -41t23.5 -19q18 0 31 23.5t19 77.5l1 10h62l-2 -15q-7 -74 -40 -122t-86 -48z" />
    <glyph glyph-name="umacron" unicode="&#x16b;" 
d="M225 -10q-74 0 -113 54.5t-29 144.5l43 411h79l-42 -402q-7 -63 15 -96t72 -33q42 0 84 24.5t81 72.5l46 434h79l-63 -600h-79l9 84h-26q-19 -41 -62 -67.5t-94 -26.5zM184 764l8 72h332l-8 -72h-332z" />
    <glyph glyph-name="ubreve" unicode="&#x16d;" 
d="M225 -10q-74 0 -113 54.5t-29 144.5l43 411h79l-42 -402q-7 -63 15 -96t72 -33q42 0 84 24.5t81 72.5l46 434h79l-63 -600h-79l9 84h-26q-19 -41 -62 -67.5t-94 -26.5zM343 693q-87 0 -134.5 48.5t-37.5 152.5h82q-7 -72 17.5 -102.5t79.5 -30.5t85.5 30.5t39.5 102.5h82
q-12 -104 -69.5 -152.5t-144.5 -48.5z" />
    <glyph glyph-name="uring" unicode="&#x16f;" 
d="M225 -10q-74 0 -113 54.5t-29 144.5l43 411h79l-42 -402q-7 -63 15 -96t72 -33q42 0 84 24.5t81 72.5l46 434h79l-63 -600h-79l9 84h-26q-19 -41 -62 -67.5t-94 -26.5zM342 688q-59 0 -91.5 35t-25.5 107l4 32q7 73 47.5 109t99.5 36q60 0 92 -36t25 -109l-4 -32
q-7 -72 -47.5 -107t-99.5 -35zM349 753q34 0 53.5 17.5t23.5 59.5l4 32q4 41 -11.5 60.5t-49.5 19.5t-53.5 -19.5t-23.5 -60.5l-4 -32q-4 -42 11.5 -59.5t49.5 -17.5z" />
    <glyph glyph-name="uhungarumlaut" unicode="&#x171;" 
d="M225 -10q-74 0 -113 54.5t-29 144.5l43 411h79l-42 -402q-7 -63 15 -96t72 -33q42 0 84 24.5t81 72.5l46 434h79l-63 -600h-79l9 84h-26q-19 -41 -62 -67.5t-94 -26.5zM409 700l68 200h115l-125 -200h-58zM217 700l68 200h115l-125 -200h-58z" />
    <glyph glyph-name="uogonek" unicode="&#x173;" 
d="M441 -213q-52 0 -85 31.5t-27 85.5q5 44 40.5 80t74.5 54l20 -15q-32 -22 -45 -49t-15 -46q-3 -28 11.5 -43.5t42.5 -15.5q15 0 38.5 3.5t36.5 6.5l-8 -82q-17 -4 -41 -7t-43 -3zM225 -10q-74 0 -113 54.5t-29 144.5l43 411h79l-42 -402q-7 -63 15 -96t72 -33
q42 0 84 24.5t81 72.5l46 434h79l-63 -600h-79l9 84h-26q-19 -41 -62 -67.5t-94 -26.5z" />
    <glyph glyph-name="v" unicode="v" 
d="M319 0h-99l-116 600h88l86 -530l197 530h86z" />
    <glyph glyph-name="w" unicode="w" 
d="M344 0l-31 412l-114 -412h-93l-31 600h77l8 -540l112 443h99l27 -430l116 527h77l-157 -600h-90z" />
    <glyph glyph-name="wcircumflex" unicode="&#x175;" 
d="M344 0l-31 412l-114 -412h-93l-31 600h77l8 -540l112 443h99l27 -430l116 527h77l-157 -600h-90zM201 718l-32 50l168 146h57l139 -146l-45 -51l-132 112z" />
    <glyph glyph-name="wgrave" unicode="&#x1e81;" 
d="M344 0l-31 412l-114 -412h-93l-31 600h77l8 -540l112 443h99l27 -430l116 527h77l-157 -600h-90zM346 700l-141 200h121l94 -200h-74z" />
    <glyph glyph-name="wacute" unicode="&#x1e83;" 
d="M344 0l-31 412l-114 -412h-93l-31 600h77l8 -540l112 443h99l27 -430l116 527h77l-157 -600h-90zM248 700l135 200h122l-183 -200h-74z" />
    <glyph glyph-name="wdieresis" unicode="&#x1e85;" 
d="M344 0l-31 412l-114 -412h-93l-31 600h77l8 -540l112 443h99l27 -430l116 527h77l-157 -600h-90zM249 716q-24 0 -37.5 10.5t-9.5 40.5v5q3 31 19 42t40 11q25 0 37.5 -11t9.5 -42v-5q-4 -30 -19.5 -40.5t-39.5 -10.5zM441 716q-25 0 -38 10.5t-9 40.5v5q3 31 18.5 42
t40.5 11q23 0 36.5 -11t10.5 -42v-5q-4 -30 -20 -40.5t-39 -10.5z" />
    <glyph glyph-name="x" unicode="x" 
d="M396 0l-106 234l-150 -234h-89l206 301l-138 299h91l102 -227l152 227h89l-208 -295l141 -305h-90z" />
    <glyph glyph-name="y" unicode="y" 
d="M108 -204q-20 0 -41.5 3t-42.5 7l22 75q22 -5 39.5 -7.5t33.5 -2.5q44 0 74 26t54 82l4 10h-31l-115 611h87l88 -536l197 536h84l-243 -627q-40 -102 -94.5 -139.5t-115.5 -37.5z" />
    <glyph glyph-name="yacute" unicode="&#xfd;" 
d="M108 -204q-20 0 -41.5 3t-42.5 7l22 75q22 -5 39.5 -7.5t33.5 -2.5q44 0 74 26t54 82l4 10h-31l-115 611h87l88 -536l197 536h84l-243 -627q-40 -102 -94.5 -139.5t-115.5 -37.5zM248 700l135 200h122l-183 -200h-74z" />
    <glyph glyph-name="ydieresis" unicode="&#xff;" 
d="M108 -204q-20 0 -41.5 3t-42.5 7l22 75q22 -5 39.5 -7.5t33.5 -2.5q44 0 74 26t54 82l4 10h-31l-115 611h87l88 -536l197 536h84l-243 -627q-40 -102 -94.5 -139.5t-115.5 -37.5zM249 716q-24 0 -37.5 10.5t-9.5 40.5v5q3 31 19 42t40 11q25 0 37.5 -11t9.5 -42v-5
q-4 -30 -19.5 -40.5t-39.5 -10.5zM441 716q-25 0 -38 10.5t-9 40.5v5q3 31 18.5 42t40.5 11q23 0 36.5 -11t10.5 -42v-5q-4 -30 -20 -40.5t-39 -10.5z" />
    <glyph glyph-name="ycircumflex" unicode="&#x177;" 
d="M108 -204q-20 0 -41.5 3t-42.5 7l22 75q22 -5 39.5 -7.5t33.5 -2.5q44 0 74 26t54 82l4 10h-31l-115 611h87l88 -536l197 536h84l-243 -627q-40 -102 -94.5 -139.5t-115.5 -37.5zM201 718l-32 50l168 146h57l139 -146l-45 -51l-132 112z" />
    <glyph glyph-name="ygrave" unicode="&#x1ef3;" 
d="M108 -204q-20 0 -41.5 3t-42.5 7l22 75q22 -5 39.5 -7.5t33.5 -2.5q44 0 74 26t54 82l4 10h-31l-115 611h87l88 -536l197 536h84l-243 -627q-40 -102 -94.5 -139.5t-115.5 -37.5zM346 700l-141 200h121l94 -200h-74z" />
    <glyph glyph-name="z" unicode="z" 
d="M460 0h-380l8 76l335 448h-288l8 76h380l-8 -76l-330 -448h283z" />
    <glyph glyph-name="zacute" unicode="&#x17a;" 
d="M460 0h-380l8 76l335 448h-288l8 76h380l-8 -76l-330 -448h283zM250 700l135 200h122l-183 -200h-74z" />
    <glyph glyph-name="zdotaccent" unicode="&#x17c;" 
d="M460 0h-380l8 76l335 448h-288l8 76h380l-8 -76l-330 -448h283zM351 716q-31 0 -49.5 10.5t-14.5 40.5v5q3 31 24 42t52 11t49 -11t15 -42v-5q-4 -30 -24.5 -40.5t-51.5 -10.5z" />
    <glyph glyph-name="zcaron" unicode="&#x17e;" 
d="M460 0h-380l8 76l335 448h-288l8 76h380l-8 -76l-330 -448h283zM315 704l-139 146l45 50l132 -110l155 110l32 -50l-168 -146h-57z" />
    <glyph glyph-name="ordfeminine" unicode="&#xaa;" 
d="M262 398q32 0 62 17t55 59l6 55h-115q-31 0 -53.5 -14t-26.5 -49q-4 -34 12.5 -51t59.5 -17zM239 332q-59 0 -92 33t-26 98q6 57 45.5 91.5t88.5 34.5h136l7 69q4 36 -14 62.5t-62 26.5t-68.5 -15t-43.5 -71l-57 20q17 60 58.5 94.5t114.5 34.5q66 0 107.5 -35.5
t33.5 -104.5l-22 -211q-4 -41 11.5 -51.5t61.5 -4.5l-7 -68q-57 -1 -83.5 15.5t-23.5 72.5h-14q-23 -39 -63 -65t-88 -26z" />
    <glyph glyph-name="ordmasculine" unicode="&#xba;" 
d="M305 332q-84 0 -126.5 44t-33.5 131l13 123q9 88 61 134t136 46t125.5 -46t32.5 -134l-13 -123q-9 -87 -60 -131t-135 -44zM312 397q54 0 84 24.5t36 81.5l13 128q7 59 -18 86t-79 27t-84 -27t-37 -86l-13 -128q-6 -57 19 -81.5t79 -24.5z" />
    <glyph glyph-name="germandbls" unicode="&#xdf;" 
d="M358 -6q-53 0 -99.5 25t-75.5 72l53 70q25 -34 61 -59t79 -25q44 0 73.5 21t33.5 68q5 48 -16 69t-82 37q-75 19 -120.5 53.5t-36.5 118.5q8 79 63.5 123t138.5 48q-2 57 -34.5 86.5t-86.5 29.5q-58 0 -99.5 -40t-49.5 -120l-81 -771h-80l82 783q12 107 79 166t159 59
q96 0 148 -60t42 -161l-4 -37q-90 0 -140 -23t-56 -78q-5 -45 22.5 -61.5t98.5 -35.5q67 -16 105.5 -54t29.5 -126q-9 -87 -67.5 -132.5t-139.5 -45.5z" />
    <glyph glyph-name="ae" unicode="&#xe6;" 
d="M553 142q-16 -78 -54 -115t-108 -37q-49 0 -80 23t-42 70h-12q-24 -42 -55 -67.5t-77 -25.5q-51 0 -82.5 45t-22.5 128q8 76 52 120.5t95 44.5h104l10 94q6 54 -10.5 89t-56.5 35q-35 0 -52 -18.5t-38 -82.5l-61 24q20 72 58 106.5t104 34.5q37 0 64 -16.5t40 -48.5
q23 33 53 49t66 16q69 0 106 -48t26 -149l-13 -127h-236l-11 -105q-8 -72 9 -101t59 -29t60.5 18.5t31.5 75.5zM345 415l-8 -74h163l7 64q7 74 -9.5 108.5t-56.5 34.5t-64.5 -33t-31.5 -100zM252 142l14 131h-81q-34 0 -59.5 -23t-31.5 -83q-6 -54 6 -84t48 -30
q30 0 54.5 24.5t49.5 64.5z" />
    <glyph glyph-name="aeacute" unicode="&#x1fd;" 
d="M553 142q-16 -78 -54 -115t-108 -37q-49 0 -80 23t-42 70h-12q-24 -42 -55 -67.5t-77 -25.5q-51 0 -82.5 45t-22.5 128q8 76 52 120.5t95 44.5h104l10 94q6 54 -10.5 89t-56.5 35q-35 0 -52 -18.5t-38 -82.5l-61 24q20 72 58 106.5t104 34.5q37 0 64 -16.5t40 -48.5
q23 33 53 49t66 16q69 0 106 -48t26 -149l-13 -127h-236l-11 -105q-8 -72 9 -101t59 -29t60.5 18.5t31.5 75.5zM345 415l-8 -74h163l7 64q7 74 -9.5 108.5t-56.5 34.5t-64.5 -33t-31.5 -100zM252 142l14 131h-81q-34 0 -59.5 -23t-31.5 -83q-6 -54 6 -84t48 -30
q30 0 54.5 24.5t49.5 64.5zM291 700l135 200h122l-183 -200h-74z" />
    <glyph glyph-name="eth" unicode="&#xf0;" 
d="M269 -10q-93 0 -144.5 54.5t-39.5 164.5l10 94q9 91 68 144t143 53q52 0 83.5 -22t41.5 -52h19q3 64 -4.5 115t-27.5 91l-172 -89l8 74l129 67q-25 28 -62 49t-84 37l23 51q61 -20 107.5 -47t76.5 -60l163 83l-8 -74l-117 -61q29 -53 36.5 -122.5t-1.5 -159.5l-17 -165
q-13 -117 -75.5 -171t-155.5 -54zM278 66q69 0 101.5 36t39.5 108l8 79q7 67 -18 100.5t-94 33.5t-101.5 -33.5t-39.5 -100.5l-8 -79q-7 -72 18 -108t94 -36z" />
    <glyph glyph-name="oslash" unicode="&#xf8;" 
d="M165 197q-3 -26 -0.5 -47t10.5 -37l207 410q-12 4 -26 6t-30 2q-64 0 -98.5 -32.5t-41.5 -101.5zM277 69q64 0 98.5 30t41.5 98l21 199q2 27 0 49t-10 38l-207 -406q12 -4 26 -6t30 -2zM269 -10q-22 0 -41.5 3t-38.5 9l-55 -102h-84l76 139q-25 26 -36.5 66t-5.5 96
l21 194q11 110 75 162.5t155 52.5q22 0 42 -3t39 -9l53 102h84l-75 -141q25 -26 36 -66.5t5 -97.5l-21 -194q-11 -109 -74.5 -160t-154.5 -51z" />
    <glyph glyph-name="oslashacute" unicode="&#x1ff;" 
d="M165 197q-3 -26 -0.5 -47t10.5 -37l207 410q-12 4 -26 6t-30 2q-64 0 -98.5 -32.5t-41.5 -101.5zM277 69q64 0 98.5 30t41.5 98l21 199q2 27 0 49t-10 38l-207 -406q12 -4 26 -6t30 -2zM269 -10q-22 0 -41.5 3t-38.5 9l-55 -102h-84l76 139q-25 26 -36.5 66t-5.5 96
l21 194q11 110 75 162.5t155 52.5q22 0 42 -3t39 -9l53 102h84l-75 -141q25 -26 36 -66.5t5 -97.5l-21 -194q-11 -109 -74.5 -160t-154.5 -51zM248 700l135 200h122l-183 -200h-74z" />
    <glyph glyph-name="thorn" unicode="&#xfe;" 
d="M269 62q70 0 106.5 35.5t44.5 110.5l20 189q7 69 -14 101.5t-75 32.5q-46 0 -85.5 -26t-79.5 -82l-33 -319q26 -22 54 -32t62 -10zM260 -11q-29 0 -59.5 8t-56.5 22l-23 -219h-79l105 1000h79l-30 -284h26q24 45 65 69.5t92 24.5q77 0 113.5 -59t24.5 -166l-18 -179
q-11 -104 -74 -160.5t-165 -56.5z" />
    <glyph glyph-name="dcroat" unicode="&#x111;" 
d="M252 69q44 0 85.5 27t79.5 81l28 274q-23 21 -52 31.5t-63 10.5q-67 0 -104 -36.5t-44 -108.5l-14 -132q-8 -74 12.5 -110.5t71.5 -36.5zM381 84q-24 -46 -65.5 -70t-90.5 -24q-77 0 -114 58t-26 165l15 137q11 103 74.5 160t166.5 57q28 0 57.5 -8t55.5 -22l11 102h-169
l8 74h169l9 87h79l-9 -87h84l-8 -74h-84l-67 -639h-79l9 84h-26z" />
    <glyph glyph-name="hbar" unicode="&#x127;" 
d="M182 381l-40 -381h-79l67 639h-84l8 74h84l9 87h79l-9 -87h169l-8 -74h-169l-18 -175h26q22 47 66.5 74.5t98.5 27.5q71 0 107.5 -48t28.5 -129l-41 -389h-79l39 374q6 57 -16 84.5t-73 27.5q-42 0 -82.5 -25.5t-83.5 -79.5z" />
    <glyph glyph-name="dotlessi" 
d="M62 0l8 76h168l47 448h-168l8 76h248l-55 -524h168l-8 -76h-416z" />
    <glyph glyph-name="ij" 
d="M196 716q-31 0 -49.5 10.5t-14.5 40.5v5q3 31 24 42t52 11t48.5 -11t14.5 -42v-5q-4 -30 -24 -40.5t-51 -10.5zM510 716q-31 0 -49.5 10.5t-14.5 40.5v5q3 31 24 42t52 11t49 -11t15 -42v-5q-4 -30 -24.5 -40.5t-51.5 -10.5zM161 0h-81l63 600h81zM271 -208
q-28 0 -54.5 5t-56.5 17l27 87q24 -12 46.5 -17t45.5 -5q47 0 79 29t40 97l54 519h-109l8 76h190l-64 -607q-10 -101 -69 -151t-137 -50z" />
    <glyph glyph-name="kgreenlandic" unicode="&#x138;" 
d="M216 281l-30 -281h-80l63 600h80l-26 -248h43l188 248h98l-228 -281l163 -319h-92l-136 281h-43z" />
    <glyph glyph-name="ldot" 
d="M62 0l8 76h167l68 648h-167l8 76h247l-76 -724h168l-8 -76h-415zM611 307q-31 0 -49.5 10.5t-14.5 40.5v5q3 31 24 42t52 11t49 -11t15 -42v-5q-4 -30 -24.5 -40.5t-51.5 -10.5z" />
    <glyph glyph-name="lslash" 
d="M62 0l8 76h167l30 283l-129 -40l7 68l129 40l31 297h-167l8 76h247l-36 -347l132 41l-7 -68l-133 -41l-32 -309h168l-8 -76h-415z" />
    <glyph glyph-name="napostrophe" unicode="&#x149;" 
d="M63 0l63 600h79l-9 -84h26q27 43 69.5 68.5t88.5 25.5q75 0 112.5 -53t27.5 -146l-43 -411h-79l42 396q7 67 -15 101t-71 34q-43 0 -85 -26t-82 -77l-45 -428h-79zM41 700l135 200h122l-183 -200h-74z" />
    <glyph glyph-name="eng" unicode="&#x14b;" 
d="M288 -208q-25 0 -51 6t-53 16l27 87q22 -10 43.5 -16t40.5 -6q40 0 68 25t34 85l43 415q7 63 -14.5 95t-71.5 32q-43 0 -84.5 -25.5t-82.5 -77.5l-45 -428h-79l63 600h79l-9 -84h26q27 43 70 68.5t92 25.5q73 0 109.5 -51t27.5 -138l-46 -444q-10 -93 -62.5 -139
t-124.5 -46z" />
    <glyph glyph-name="oe" unicode="&#x153;" 
d="M552 129q-16 -69 -53.5 -104t-107.5 -35q-44 0 -74 18.5t-43 56.5q-23 -38 -55.5 -56.5t-71.5 -18.5q-65 0 -99.5 54.5t-22.5 167.5l18 172q12 114 58.5 170t111.5 56q38 0 66 -18.5t43 -56.5q22 38 54 56.5t71 18.5q71 0 107.5 -46.5t26.5 -143.5l-14 -134h-234
l-12 -112q-7 -66 9.5 -94.5t57.5 -28.5q42 0 61 17t30 64zM347 421l-8 -80h161l7 70q8 72 -8.5 105t-57.5 33q-40 0 -63.5 -31.5t-30.5 -96.5zM161 52q40 0 64.5 37.5t33.5 121.5l18 171q9 85 -7 125.5t-56 40.5q-39 0 -64 -40.5t-34 -124.5l-18 -172q-9 -84 7.5 -121.5
t55.5 -37.5z" />
    <glyph glyph-name="tbar" unicode="&#x167;" 
d="M363 -9q-85 0 -126.5 50t-32.5 140l11 108h-114l9 81h114l16 154h-143l8 76h143l21 200h79l-21 -200h219l-8 -76h-219l-16 -154h189l-9 -81h-189l-10 -97q-6 -60 15 -90t70 -30q31 0 60 5t55 15l8 -78q-25 -9 -60 -16t-69 -7z" />
    <glyph glyph-name="longs" unicode="&#x17f;" 
d="M209 -200l76 724h-100l8 76h100l4 42q8 73 55.5 116t110.5 43q25 0 55.5 -8t47.5 -18l-24 -72q-16 7 -37 13.5t-43 6.5q-35 0 -57.5 -17.5t-26.5 -56.5l-89 -849h-80z" />
    <glyph glyph-name="dotlessj" unicode="&#xf6be;" 
d="M172 -208q-31 0 -61.5 4.5t-66.5 17.5l27 87q29 -13 55.5 -17.5t52.5 -4.5q54 0 91 29t45 97l54 519h-235l8 76h315l-64 -607q-11 -104 -74.5 -152.5t-146.5 -48.5z" />
    <glyph glyph-name="dotlessj" unicode="&#x237;" 
d="M172 -208q-31 0 -61.5 4.5t-66.5 17.5l27 87q29 -13 55.5 -17.5t52.5 -4.5q54 0 91 29t45 97l54 519h-235l8 76h315l-64 -607q-11 -104 -74.5 -152.5t-146.5 -48.5z" />
    <glyph glyph-name="alpha" unicode="&#x3b1;" 
d="M235 69q41 0 78.5 26.5t77.5 83.5l25 241q-27 57 -59 83.5t-73 26.5q-46 0 -73 -37.5t-35 -110.5l-17 -163q-8 -75 11 -112.5t65 -37.5zM397 91h-24q-26 -51 -69 -76t-96 -25q-71 0 -107 57.5t-24 167.5l18 175q11 106 60 163t121 57q46 0 79 -25t47 -72h24l9 87h81
l-47 -452q-6 -52 12.5 -68t64.5 -5l-9 -80q-69 -8 -105.5 14.5t-34.5 81.5z" />
    <glyph glyph-name="alphatonos" unicode="&#x3ac;" 
d="M235 69q41 0 78.5 26.5t77.5 83.5l25 241q-27 57 -59 83.5t-73 26.5q-46 0 -73 -37.5t-35 -110.5l-17 -163q-8 -75 11 -112.5t65 -37.5zM397 91h-24q-26 -51 -69 -76t-96 -25q-71 0 -107 57.5t-24 167.5l18 175q11 106 60 163t121 57q46 0 79 -25t47 -72h24l9 87h81
l-47 -452q-6 -52 12.5 -68t64.5 -5l-9 -80q-69 -8 -105.5 14.5t-34.5 81.5zM329 700l85 200h114l-133 -200h-66z" />
    <glyph glyph-name="beta" unicode="&#x3b2;" 
d="M268 60q70 0 106.5 39t44.5 119l4 42q7 64 -23 94.5t-99 30.5h-39l9 82h34q60 0 91 29t37 89l2 10q7 73 -17 108t-83 35q-58 0 -90.5 -35.5t-40.5 -110.5l-51 -490q24 -22 52 -32t63 -10zM260 -10q-31 0 -60.5 8.5t-55.5 22.5l-23 -221h-79l83 786q11 111 70 167.5
t147 56.5q89 0 135.5 -52.5t36.5 -148.5l-3 -24q-5 -53 -29.5 -90.5t-72.5 -46.5l-3 -29q52 -6 78.5 -47.5t21.5 -95.5l-5 -51q-13 -119 -80.5 -177t-160.5 -58z" />
    <glyph glyph-name="gamma" unicode="&#x3b3;" 
d="M297 -200h-96l31 220l-127 580h88l95 -462l189 462h84l-249 -580z" />
    <glyph glyph-name="delta" unicode="&#x3b4;" 
d="M269 -10q-93 0 -145.5 54.5t-40.5 167.5l11 105q7 66 47.5 110t94.5 67q-49 28 -68 61t-14 86q9 84 58 121.5t139 37.5h154l-8 -76h-156q-54 0 -80.5 -15t-31.5 -61q-4 -39 18.5 -60t111.5 -54q98 -38 130.5 -82t24.5 -122l-13 -118q-12 -113 -75.5 -167.5t-156.5 -54.5z
M277 66q64 0 100 34t44 112l13 118q5 54 -28.5 85.5t-120.5 57.5q-43 -19 -73 -57.5t-37 -101.5l-11 -102q-8 -78 20.5 -112t92.5 -34z" />
    <glyph glyph-name="epsilon" unicode="&#x3b5;" 
d="M272 -10q-116 0 -167 44t-41 136l1 7q5 53 41.5 92t102.5 44l2 22q-52 4 -80.5 31.5t-23.5 74.5l2 11q8 80 63.5 119t164.5 39q99 0 144 -41.5t43 -132.5l-81 -8q0 61 -25.5 82.5t-88.5 21.5q-72 0 -104 -18.5t-37 -64.5l-1 -14q-4 -37 22.5 -53t94.5 -16h46l-7 -75h-46
q-75 0 -110 -23.5t-42 -82.5l-1 -10q-6 -60 25 -84.5t111 -24.5q70 0 104.5 24t48.5 93l78 -7q-17 -102 -73 -144t-166 -42z" />
    <glyph glyph-name="epsilontonos" unicode="&#x3ad;" 
d="M272 -10q-116 0 -167 44t-41 136l1 7q5 53 41.5 92t102.5 44l2 22q-52 4 -80.5 31.5t-23.5 74.5l2 11q8 80 63.5 119t164.5 39q99 0 144 -41.5t43 -132.5l-81 -8q0 61 -25.5 82.5t-88.5 21.5q-72 0 -104 -18.5t-37 -64.5l-1 -14q-4 -37 22.5 -53t94.5 -16h46l-7 -75h-46
q-75 0 -110 -23.5t-42 -82.5l-1 -10q-6 -60 25 -84.5t111 -24.5q70 0 104.5 24t48.5 93l78 -7q-17 -102 -73 -144t-166 -42zM283 700l85 200h114l-133 -200h-66z" />
    <glyph glyph-name="zeta" unicode="&#x3b6;" 
d="M299 -200h-92l8 79h105q31 0 51 13t24 54q5 40 -12.5 53.5t-48.5 13.5h-72q-99 0 -145 64.5t-36 159.5q7 64 35.5 120.5t59.5 90.5l158 187l-5 11q-96 -11 -145 35.5t-54 132.5l71 4q3 -67 55 -90t135 1l165 90l23 -93l-125 -50l-212 -263q-28 -29 -51.5 -74t-29.5 -98
q-7 -66 21 -107.5t85 -41.5h70q69 0 106 -35t29 -113q-7 -69 -54 -106.5t-119 -37.5z" />
    <glyph glyph-name="eta" unicode="&#x3b7;" 
d="M377 -200l63 604q7 63 -14.5 95t-71.5 32q-43 0 -84.5 -25.5t-82.5 -77.5l-45 -428h-79l63 600h79l-9 -84h26q27 43 70.5 68.5t91.5 25.5q72 0 109 -51t28 -138l-65 -621h-79z" />
    <glyph glyph-name="etatonos" unicode="&#x3ae;" 
d="M377 -200l63 604q7 63 -14.5 95t-71.5 32q-43 0 -84.5 -25.5t-82.5 -77.5l-45 -428h-79l63 600h79l-9 -84h26q27 43 70.5 68.5t91.5 25.5q72 0 109 -51t28 -138l-65 -621h-79zM287 700l85 200h114l-133 -200h-66z" />
    <glyph glyph-name="theta" unicode="&#x3b8;" 
d="M269 -10q-98 0 -146.5 57t-36.5 170l38 362q12 116 72.5 173.5t159.5 57.5q98 0 146 -57.5t36 -173.5l-38 -362q-12 -113 -72.5 -170t-158.5 -57zM204 581l-14 -135h254l14 134q8 80 -20 117t-91 37t-99 -36.5t-44 -116.5zM277 66q63 0 98.5 35t43.5 112l16 151h-254
l-16 -151q-8 -77 20.5 -112t91.5 -35z" />
    <glyph glyph-name="iota" unicode="&#x3b9;" 
d="M391 -5q-75 0 -113 47.5t-28 134.5l36 347h-186l8 76h266l-46 -436q-5 -46 12.5 -70t60.5 -24q17 0 42.5 4.5t42.5 14.5l10 -73q-20 -10 -47.5 -15.5t-57.5 -5.5z" />
    <glyph glyph-name="iotadieresistonos" unicode="&#x390;" 
d="M391 -5q-75 0 -113 47.5t-28 134.5l36 347h-186l8 76h266l-46 -436q-5 -46 12.5 -70t60.5 -24q17 0 42.5 4.5t42.5 14.5l10 -73q-20 -10 -47.5 -15.5t-57.5 -5.5zM283 700l60 200h98l-108 -200h-50zM192 703q-20 0 -31.5 10.5t-8.5 41.5l1 4q3 31 16.5 42t33.5 11t31 -11
t8 -42l-1 -4q-3 -31 -16.5 -41.5t-32.5 -10.5zM480 703q-20 0 -31 10.5t-8 41.5l1 4q3 31 16 42t33 11t31.5 -11t8.5 -42l-1 -4q-3 -31 -17 -41.5t-33 -10.5z" />
    <glyph glyph-name="iotatonos" unicode="&#x3af;" 
d="M391 -5q-75 0 -113 47.5t-28 134.5l36 347h-186l8 76h266l-46 -436q-5 -46 12.5 -70t60.5 -24q17 0 42.5 4.5t42.5 14.5l10 -73q-20 -10 -47.5 -15.5t-57.5 -5.5zM278 700l85 200h114l-133 -200h-66z" />
    <glyph glyph-name="iotadieresis" unicode="&#x3ca;" 
d="M391 -5q-75 0 -113 47.5t-28 134.5l36 347h-186l8 76h266l-46 -436q-5 -46 12.5 -70t60.5 -24q17 0 42.5 4.5t42.5 14.5l10 -73q-20 -10 -47.5 -15.5t-57.5 -5.5zM245 716q-24 0 -37.5 10.5t-9.5 40.5v5q3 31 19 42t40 11q25 0 37.5 -11t9.5 -42v-5q-4 -30 -19.5 -40.5
t-39.5 -10.5zM437 716q-25 0 -38 10.5t-9 40.5v5q3 31 18.5 42t40.5 11q23 0 36.5 -11t10.5 -42v-5q-4 -30 -20 -40.5t-39 -10.5z" />
    <glyph glyph-name="kappa" unicode="&#x3ba;" 
d="M216 281l-30 -281h-80l63 600h80l-26 -248h43l188 248h98l-228 -281l163 -319h-92l-136 281h-43z" />
    <glyph glyph-name="lambda" unicode="&#x3bb;" 
d="M410 0l-85 534l-198 -534h-85l246 626h23l-3 19q-8 43 -29 65t-62 22q-16 0 -37.5 -3t-46.5 -10l-6 74q23 5 45 8.5t43 3.5q62 0 102 -31.5t55 -100.5l126 -673h-88z" />
    <glyph glyph-name="mu" unicode="&#x3bc;" 
d="M144 20l-14 -220h-97l31 220l61 580h80l-43 -410q-7 -66 19.5 -94.5t68.5 -28.5q38 0 69 23.5t61 63.5l47 446h80l-47 -452q-6 -54 12 -69.5t65 -3.5l-9 -80q-62 -9 -91.5 18.5t-26.5 94.5h-16q-31 -56 -70.5 -87.5t-89.5 -31.5q-28 0 -50.5 12.5t-37.5 37.5z" />
    <glyph glyph-name="nu" unicode="&#x3bd;" 
d="M311 0h-83l-123 600h83l98 -550q75 139 124 277.5t72 272.5h79q-34 -169 -100.5 -320t-149.5 -280z" />
    <glyph glyph-name="xi" unicode="&#x3be;" 
d="M489 -56q-7 -69 -53.5 -106.5t-118.5 -37.5h-91l8 79h104q31 0 50.5 13t23.5 54q5 40 -12 53.5t-48 13.5h-88q-93 0 -141.5 50.5t-39.5 137.5l3 30q7 62 49 109.5t117 54.5l2 23q-48 0 -70 30.5t-17 78.5q4 39 23 67.5t56 47.5l3 23q-74 7 -112.5 46.5t-45.5 102.5l75 4
q3 -42 58.5 -65t132.5 -14l176 80l25 -93l-185 -60l-43 -27q-41 -29 -60 -55t-23 -58q-4 -45 13 -63.5t45 -18.5h162l-9 -78h-161q-62 0 -93 -35t-36 -85l-3 -30q-6 -56 19 -90t87 -34h88q67 0 102.5 -35t27.5 -113z" />
    <glyph glyph-name="omicron" unicode="&#x3bf;" 
d="M269 -10q-100 0 -147.5 55.5t-37.5 158.5l20 188q11 105 71 161.5t160 56.5q99 0 146.5 -56t36.5 -160l-19 -189q-11 -104 -70.5 -159.5t-159.5 -55.5zM277 66q64 0 99.5 32t42.5 103l20 193q8 72 -20.5 106t-92.5 34t-99.5 -34t-43.5 -106l-20 -194q-7 -70 21.5 -102
t92.5 -32z" />
    <glyph glyph-name="omicrontonos" unicode="&#x3cc;" 
d="M269 -10q-100 0 -147.5 55.5t-37.5 158.5l20 188q11 105 71 161.5t160 56.5q99 0 146.5 -56t36.5 -160l-19 -189q-11 -104 -70.5 -159.5t-159.5 -55.5zM277 66q64 0 99.5 32t42.5 103l20 193q8 72 -20.5 106t-92.5 34t-99.5 -34t-43.5 -106l-20 -194q-7 -70 21.5 -102
t92.5 -32zM283 700l85 200h114l-133 -200h-66z" />
    <glyph glyph-name="pi" unicode="&#x3c0;" 
d="M566 600l-8 -76h-101l-40 -378q-5 -52 14 -66.5t80 -4.5l-9 -80q-98 -7 -137.5 18t-32.5 91l44 420h-144l-55 -524h-80l55 524h-85l8 76h491z" />
    <glyph glyph-name="rho" unicode="&#x3c1;" 
d="M302 69q52 0 81.5 36t37.5 110l18 177q8 72 -21 107.5t-92 35.5q-64 0 -99.5 -35.5t-43.5 -107.5l-22 -215q27 -54 61.5 -81t79.5 -27zM42 -200l62 592q11 107 73 163t158 56t145 -56t38 -163l-19 -182q-11 -108 -61.5 -164t-124.5 -56q-49 0 -85 24t-51 70h-26l-30 -284
h-79z" />
    <glyph glyph-name="sigma1" unicode="&#x3c2;" 
d="M212 -200l8 76h105q31 0 50.5 13t23.5 56q4 40 -12.5 54t-47.5 14h-71q-108 0 -150 57t-30 167l16 153q11 107 66.5 163.5t166.5 56.5q99 0 139.5 -51.5t35.5 -161.5l-75 -3q5 79 -19.5 110t-89.5 31q-67 0 -101.5 -31.5t-42.5 -101.5l-19 -181q-7 -70 19 -101.5
t88 -31.5h72q68 0 103.5 -34t27.5 -112q-7 -69 -53 -105.5t-118 -36.5h-92z" />
    <glyph glyph-name="sigma" unicode="&#x3c3;" 
d="M261 66q54 0 85 31t39 103l16 154q9 87 -14.5 127t-77.5 40q-55 0 -87 -33.5t-40 -106.5l-19 -181q-8 -72 17.5 -103t80.5 -31zM253 -10q-84 0 -132 51.5t-37 162.5l19 175q11 107 70.5 164t143.5 57h308l-9 -86l-189 21q32 -24 47 -65.5t9 -101.5l-18 -164
q-11 -111 -69.5 -162.5t-142.5 -51.5z" />
    <glyph glyph-name="tau" unicode="&#x3c4;" 
d="M409 -5q-99 -6 -137 18t-31 91l44 424h-167l8 72h422l-8 -72h-175l-41 -397q-4 -40 15.5 -52.5t78.5 -3.5z" />
    <glyph glyph-name="upsilon" unicode="&#x3c5;" 
d="M269 -10q-101 0 -148.5 53t-36.5 154l42 403h79l-43 -406q-7 -71 21.5 -101.5t93.5 -30.5t99.5 30.5t41.5 101.5l43 406h79l-42 -403q-11 -101 -69.5 -154t-159.5 -53z" />
    <glyph glyph-name="upsilondieresistonos" unicode="&#x3b0;" 
d="M269 -10q-101 0 -148.5 53t-36.5 154l42 403h79l-43 -406q-7 -71 21.5 -101.5t93.5 -30.5t99.5 30.5t41.5 101.5l43 406h79l-42 -403q-11 -101 -69.5 -154t-159.5 -53zM291 700l60 200h98l-108 -200h-50zM200 703q-20 0 -31.5 10.5t-8.5 41.5l1 4q3 31 16.5 42t33.5 11
t31 -11t8 -42l-1 -4q-3 -31 -16.5 -41.5t-32.5 -10.5zM488 703q-20 0 -31 10.5t-8 41.5l1 4q3 31 16 42t33 11t31.5 -11t8.5 -42l-1 -4q-3 -31 -17 -41.5t-33 -10.5z" />
    <glyph glyph-name="upsilondieresis" unicode="&#x3cb;" 
d="M269 -10q-101 0 -148.5 53t-36.5 154l42 403h79l-43 -406q-7 -71 21.5 -101.5t93.5 -30.5t99.5 30.5t41.5 101.5l43 406h79l-42 -403q-11 -101 -69.5 -154t-159.5 -53zM249 716q-24 0 -37.5 10.5t-9.5 40.5v5q3 31 19 42t40 11q25 0 37.5 -11t9.5 -42v-5
q-4 -30 -19.5 -40.5t-39.5 -10.5zM441 716q-25 0 -38 10.5t-9 40.5v5q3 31 18.5 42t40.5 11q23 0 36.5 -11t10.5 -42v-5q-4 -30 -20 -40.5t-39 -10.5z" />
    <glyph glyph-name="upsilontonos" unicode="&#x3cd;" 
d="M269 -10q-101 0 -148.5 53t-36.5 154l42 403h79l-43 -406q-7 -71 21.5 -101.5t93.5 -30.5t99.5 30.5t41.5 101.5l43 406h79l-42 -403q-11 -101 -69.5 -154t-159.5 -53zM283 700l85 200h114l-133 -200h-66z" />
    <glyph glyph-name="phi" unicode="&#x3c6;" 
d="M286 -200h-76l20 192q-93 10 -140.5 74.5t-36.5 174.5l11 98q9 86 33 156.5t58 124.5l67 -32q-28 -47 -51.5 -110t-31.5 -139l-11 -98q-8 -82 19.5 -129t90.5 -57l57 545h80q89 0 137.5 -68t32.5 -214l-6 -63q-13 -119 -76.5 -186t-156.5 -77zM363 538l-51 -484
q66 11 103.5 61.5t47.5 139.5l6 63q12 114 -15 167t-91 53z" />
    <glyph glyph-name="chi" unicode="&#x3c7;" 
d="M368 -200l-93 320l-167 -320h-77l218 395l-121 405h79l97 -325l170 325h77l-223 -400l121 -400h-81z" />
    <glyph glyph-name="psi" unicode="&#x3c8;" 
d="M286 -200h-74l20 194q-103 9 -147.5 66.5t-33.5 157.5l40 382h75l-41 -387q-7 -70 19.5 -103.5t94.5 -39.5l56 530h76l-56 -530q70 6 103.5 39.5t40.5 103.5l41 387h75l-40 -382q-11 -100 -68 -157.5t-161 -66.5z" />
    <glyph glyph-name="omega" unicode="&#x3c9;" 
d="M152 -10q-55 0 -84 59t-17 172l9 88q10 95 36.5 181.5t49.5 126.5l66 -32q-16 -32 -41.5 -110.5t-35.5 -165.5l-8 -84q-9 -81 3.5 -122t45.5 -41q32 0 50.5 31t25.5 101l29 272h76l-29 -272q-7 -70 5.5 -101t44.5 -31q33 0 53.5 41t29.5 122l8 84q10 87 0.5 165.5
t-19.5 110.5l74 32q16 -40 23 -126.5t-3 -181.5l-9 -88q-12 -113 -53 -172t-96 -59q-41 0 -66.5 31.5t-31.5 97.5h-10q-20 -66 -52.5 -97.5t-73.5 -31.5z" />
    <glyph glyph-name="omegatonos" unicode="&#x3ce;" 
d="M152 -10q-55 0 -84 59t-17 172l9 88q10 95 36.5 181.5t49.5 126.5l66 -32q-16 -32 -41.5 -110.5t-35.5 -165.5l-8 -84q-9 -81 3.5 -122t45.5 -41q32 0 50.5 31t25.5 101l29 272h76l-29 -272q-7 -70 5.5 -101t44.5 -31q33 0 53.5 41t29.5 122l8 84q10 87 0.5 165.5
t-19.5 110.5l74 32q16 -40 23 -126.5t-3 -181.5l-9 -88q-12 -113 -53 -172t-96 -59q-41 0 -66.5 31.5t-31.5 97.5h-10q-20 -66 -52.5 -97.5t-73.5 -31.5zM291 700l85 200h114l-133 -200h-66z" />
    <glyph glyph-name="acyrillic" unicode="&#x430;" 
d="M216 67q50 0 88 21t69 70l10 102h-143q-44 0 -71.5 -21t-32.5 -72q-5 -48 13 -74t67 -26zM198 -10q-71 0 -112 43t-32 127q8 78 57 123t118 45h161l11 98q5 46 -19.5 76.5t-79.5 30.5q-58 0 -87.5 -23t-51.5 -90l-68 23q23 82 77.5 124.5t135.5 42.5t132 -42.5t42 -126.5
l-31 -298q-5 -49 18 -65t76 -3l-9 -80q-63 -8 -100.5 13t-34.5 87h-16q-27 -46 -77.5 -75.5t-109.5 -29.5z" />
    <glyph glyph-name="becyrillic" unicode="&#x431;" 
d="M269 -10q-93 0 -145 53t-40 169l35 327q10 98 70 154t157 79l182 42l7 -67l-184 -41q-77 -19 -116.5 -66t-49.5 -144l-1 -24h19q15 25 54 46.5t93 21.5q87 0 130.5 -55t33.5 -151l-13 -122q-12 -113 -75.5 -167.5t-156.5 -54.5zM277 66q70 0 103 36.5t40 110.5l12 113
q8 69 -17.5 103t-95.5 34q-69 0 -102 -34t-41 -103l-12 -113q-7 -74 18.5 -110.5t94.5 -36.5z" />
    <glyph glyph-name="vecyrillic" unicode="&#x432;" 
d="M63 0l63 600h203q110 0 157 -38t39 -115l-1 -11q-5 -48 -38.5 -75.5t-87.5 -31.5l-3 -22q66 -5 94 -42t23 -88l-1 -7q-9 -87 -70.5 -128.5t-174.5 -41.5h-203zM180 352h130q72 0 100 15.5t33 57.5l1 14q5 48 -21.5 65.5t-101.5 17.5h-123zM151 76h123q84 0 117.5 20
t39.5 77l1 10q6 56 -22 75.5t-108 19.5h-130z" />
    <glyph glyph-name="gecyrillic" unicode="&#x433;" 
d="M105 0l63 600h382l-8 -72h-303l-55 -528h-79z" />
    <glyph glyph-name="gjecyrillic" unicode="&#x453;" 
d="M105 0l63 600h382l-8 -72h-303l-55 -528h-79zM315 700l135 200h122l-183 -200h-74z" />
    <glyph glyph-name="decyrillic" unicode="&#x434;" 
d="M176 99l-2 -27h198l47 456h-163l-32 -290q-6 -44 -17 -78.5t-31 -60.5zM92 0l-16 -150h-80l24 222h59q27 24 44 66t24 107l40 355h320l-55 -528h84l-24 -222h-80l16 150h-356z" />
    <glyph glyph-name="iecyrillic" unicode="&#x435;" 
d="M494 129q-32 -72 -81.5 -105.5t-143.5 -33.5q-98 0 -147 54t-37 161l19 186q12 111 76 165t155 54q92 0 143.5 -55t38.5 -171l-10 -98h-335l-8 -79q-8 -78 20.5 -110.5t91.5 -32.5q61 0 90.5 21.5t50.5 67.5zM182 385l-3 -32h256l2 22q9 83 -19.5 121.5t-91.5 38.5
t-99.5 -37.5t-44.5 -112.5z" />
    <glyph glyph-name="iegravecyrillic" unicode="&#x450;" 
d="M494 129q-32 -72 -81.5 -105.5t-143.5 -33.5q-98 0 -147 54t-37 161l19 186q12 111 76 165t155 54q92 0 143.5 -55t38.5 -171l-10 -98h-335l-8 -79q-8 -78 20.5 -110.5t91.5 -32.5q61 0 90.5 21.5t50.5 67.5zM182 385l-3 -32h256l2 22q9 83 -19.5 121.5t-91.5 38.5
t-99.5 -37.5t-44.5 -112.5zM347 700l-141 200h121l94 -200h-74z" />
    <glyph glyph-name="iocyrillic" unicode="&#x451;" 
d="M494 129q-32 -72 -81.5 -105.5t-143.5 -33.5q-98 0 -147 54t-37 161l19 186q12 111 76 165t155 54q92 0 143.5 -55t38.5 -171l-10 -98h-335l-8 -79q-8 -78 20.5 -110.5t91.5 -32.5q61 0 90.5 21.5t50.5 67.5zM182 385l-3 -32h256l2 22q9 83 -19.5 121.5t-91.5 38.5
t-99.5 -37.5t-44.5 -112.5zM250 716q-24 0 -37.5 10.5t-9.5 40.5v5q3 31 19 42t40 11q25 0 37.5 -11t9.5 -42v-5q-4 -30 -19.5 -40.5t-39.5 -10.5zM442 716q-25 0 -38 10.5t-9 40.5v5q3 31 18.5 42t40.5 11q23 0 36.5 -11t10.5 -42v-5q-4 -30 -20 -40.5t-39 -10.5z" />
    <glyph glyph-name="zhecyrillic" unicode="&#x436;" 
d="M238 295l-152 -295h-84l187 327l-127 273h84l100 -237h25l25 237h74l-25 -237h25l151 237h82l-185 -273l120 -327h-83l-92 295h-25l-31 -295h-74l31 295h-26z" />
    <glyph glyph-name="zecyrillic" unicode="&#x437;" 
d="M265 -10q-115 0 -159.5 41.5t-41.5 144.5l80 7q0 -69 28.5 -92.5t100.5 -23.5q80 0 116 22.5t42 85.5l1 10q7 60 -23 83t-105 23h-48l7 75h48q69 0 98.5 15t33.5 54l1 14q5 47 -22.5 65t-99.5 18q-63 0 -93 -21t-44 -83l-78 8q16 93 69 133.5t154 40.5q104 0 154 -37.5
t42 -120.5l-2 -11q-5 -47 -38.5 -74.5t-87.5 -31.5l-2 -22q64 -5 92.5 -44t23.5 -92l-1 -7q-10 -90 -67.5 -135t-178.5 -45z" />
    <glyph glyph-name="iicyrillic" unicode="&#x438;" 
d="M401 0l53 501l-283 -501h-108l63 600h77l-53 -505l287 505h103l-63 -600h-76z" />
    <glyph glyph-name="iishortcyrillic" unicode="&#x439;" 
d="M401 0l53 501l-283 -501h-108l63 600h77l-53 -505l287 505h103l-63 -600h-76zM343 693q-71 0 -118 42t-37 149l82 10q-7 -72 10 -102.5t70 -30.5t76 30.5t32 102.5l80 -10q-12 -107 -68 -149t-127 -42z" />
    <glyph glyph-name="igravecyrillic" unicode="&#x45d;" 
d="M401 0l53 501l-283 -501h-108l63 600h77l-53 -505l287 505h103l-63 -600h-76zM346 700l-141 200h121l94 -200h-74z" />
    <glyph glyph-name="kacyrillic" unicode="&#x43a;" 
d="M216 281l-30 -281h-80l63 600h80l-26 -248h43l188 248h98l-228 -281l163 -319h-92l-136 281h-43z" />
    <glyph glyph-name="kjecyrillic" unicode="&#x45c;" 
d="M216 281l-30 -281h-80l63 600h80l-26 -248h43l188 248h98l-228 -281l163 -319h-92l-136 281h-43zM303 700l135 200h122l-183 -200h-74z" />
    <glyph glyph-name="elcyrillic" unicode="&#x43b;" 
d="M397 0l55 524h-187l-33 -287q-14 -124 -59 -185t-114 -61q-17 0 -31.5 3.5t-26.5 7.5l22 72l21 -7t16 -3q42 0 63.5 42.5t32.5 143.5l40 350h344l-63 -600h-80z" />
    <glyph glyph-name="emcyrillic" unicode="&#x43c;" 
d="M242 150l-57 403l-59 -553h-72l63 600h129l51 -370l128 370h124l-63 -600h-72l53 545l-137 -395h-88z" />
    <glyph glyph-name="encyrillic" unicode="&#x43d;" 
d="M63 0l63 600h79l-22 -213h256l22 213h79l-63 -600h-79l33 314h-256l-33 -314h-79z" />
    <glyph glyph-name="ocyrillic" unicode="&#x43e;" 
d="M269 -10q-100 0 -147.5 55.5t-37.5 158.5l20 188q11 105 71 161.5t160 56.5q99 0 146.5 -56t36.5 -160l-19 -189q-11 -104 -70.5 -159.5t-159.5 -55.5zM277 66q64 0 99.5 32t42.5 103l20 193q8 72 -20.5 106t-92.5 34t-99.5 -34t-43.5 -106l-20 -194q-7 -70 21.5 -102
t92.5 -32z" />
    <glyph glyph-name="pecyrillic" unicode="&#x43f;" 
d="M63 0l63 600h414l-63 -600h-79l55 528h-256l-55 -528h-79z" />
    <glyph glyph-name="ercyrillic" unicode="&#x440;" 
d="M269 62q69 0 106 36.5t45 109.5l20 189q7 68 -15 101t-74 33q-45 0 -85 -26.5t-80 -81.5l-33 -319q24 -21 52.5 -31.5t63.5 -10.5zM260 -11q-28 0 -58.5 8t-57.5 22l-23 -219h-79l84 800h79l-9 -84h26q23 43 64.5 68.5t92.5 25.5q76 0 112.5 -60.5t25.5 -164.5l-18 -179
q-11 -101 -74.5 -159t-164.5 -58z" />
    <glyph glyph-name="escyrillic" unicode="&#x441;" 
d="M281 -10q-111 0 -159 55t-38 156l20 191q11 107 71.5 162.5t169.5 55.5q98 0 144 -49t41 -151l-78 -3q3 73 -25 100.5t-91 27.5q-68 0 -106.5 -33t-45.5 -105l-21 -199q-7 -68 25 -100t101 -32q63 0 95.5 22t42.5 85l78 -3q-16 -93 -71 -136.5t-153 -43.5z" />
    <glyph glyph-name="tecyrillic" unicode="&#x442;" 
d="M230 0l55 528h-193l8 72h466l-8 -72h-193l-55 -528h-80z" />
    <glyph glyph-name="ucyrillic" unicode="&#x443;" 
d="M108 -204q-20 0 -41.5 3t-42.5 7l22 75q22 -5 39.5 -7.5t33.5 -2.5q44 0 74 26t54 82l4 10h-31l-115 611h87l88 -536l197 536h84l-243 -627q-40 -102 -94.5 -139.5t-115.5 -37.5z" />
    <glyph glyph-name="ushortcyrillic" unicode="&#x45e;" 
d="M108 -204q-20 0 -41.5 3t-42.5 7l22 75q22 -5 39.5 -7.5t33.5 -2.5q44 0 74 26t54 82l4 10h-31l-115 611h87l88 -536l197 536h84l-243 -627q-40 -102 -94.5 -139.5t-115.5 -37.5zM343 693q-71 0 -118 42t-37 149l82 10q-7 -72 10 -102.5t70 -30.5t76 30.5t32 102.5
l80 -10q-12 -107 -68 -149t-127 -42z" />
    <glyph glyph-name="efcyrillic" unicode="&#x444;" 
d="M335 0h-28l-21 -200h-74l21 200h-28q-84 0 -123.5 66.5t-26.5 186.5l9 93q13 121 66.5 187.5t137.5 66.5h28l21 200h74l-21 -200h28q84 0 123.5 -66.5t26.5 -187.5l-9 -93q-13 -120 -66.5 -186.5t-137.5 -66.5zM223 76h22l47 449h-22q-56 0 -88.5 -46t-42.5 -137l-9 -87
q-10 -90 13.5 -134.5t79.5 -44.5zM380 525h-22l-47 -449h22q56 0 88.5 44.5t42.5 134.5l9 87q10 91 -13.5 137t-79.5 46z" />
    <glyph glyph-name="khacyrillic" unicode="&#x445;" 
d="M396 0l-106 234l-150 -234h-89l206 301l-138 299h91l102 -227l152 227h89l-208 -295l141 -305h-90z" />
    <glyph glyph-name="tsecyrillic" unicode="&#x446;" 
d="M427 -150l16 150h-380l63 600h79l-55 -528h213l55 528h79l-55 -528h85l-24 -222h-76z" />
    <glyph glyph-name="checyrillic" unicode="&#x447;" 
d="M497 600l-63 -600h-80l23 221q-23 -8 -55.5 -13t-60.5 -5q-96 0 -140 49.5t-34 145.5l21 202h81l-21 -200q-7 -67 21.5 -96t90.5 -30q27 0 56 6t49 16l32 304h80z" />
    <glyph glyph-name="shacyrillic" unicode="&#x448;" 
d="M28 0l63 600h75l-56 -534h130l56 534h74l-56 -534h130l56 534h75l-63 -600h-484z" />
    <glyph glyph-name="shchacyrillic" unicode="&#x449;" 
d="M542 -150h-74l16 150h-456l63 600h75l-56 -534h130l56 534h74l-56 -534h130l56 534h75l-55 -524h46z" />
    <glyph glyph-name="hardsigncyrillic" unicode="&#x44a;" 
d="M329 0h-226l55 528h-125l8 72h205l-22 -211h145q81 0 122.5 -46t33.5 -127l-4 -37q-9 -84 -60 -131.5t-132 -47.5zM191 76h128q57 0 86.5 24t34.5 75l5 42q5 51 -19.5 74.5t-81.5 23.5h-128z" />
    <glyph glyph-name="yericyrillic" unicode="&#x44b;" 
d="M46 0l63 600h74l-23 -216h75q71 0 105.5 -48.5t25.5 -133.5l-2 -20q-9 -85 -53 -133.5t-115 -48.5h-150zM420 0l63 600h74l-63 -600h-74zM128 73h58q48 0 72.5 25t30.5 79l3 33q6 52 -13.5 77t-67.5 25h-58z" />
    <glyph glyph-name="softsigncyrillic" unicode="&#x44c;" 
d="M62 0l63 600h80l-22 -211h187q81 0 122 -45.5t33 -125.5l-4 -40q-9 -84 -59.5 -131t-131.5 -47h-268zM150 76h170q58 0 86.5 24t33.5 75l5 45q5 50 -18.5 72.5t-81.5 22.5h-170z" />
    <glyph glyph-name="ereversedcyrillic" unicode="&#x44d;" 
d="M256 -10q-100 0 -143.5 46t-40.5 144l77 4q-4 -63 23 -89.5t93 -26.5q71 0 109 32.5t45 101.5l8 72h-193l7 72h193l6 49q7 72 -23.5 104.5t-100.5 32.5q-69 0 -101.5 -31t-42.5 -106l-77 3q18 107 73 159.5t154 52.5q113 0 160 -56t36 -163l-19 -181q-11 -108 -70 -164
t-173 -56z" />
    <glyph glyph-name="iucyrillic" unicode="&#x44e;" 
d="M348 -10q-82 0 -116.5 53t-24.5 152l11 104h-76l-31 -299h-82l63 600h82l-23 -223h76l2 24q11 100 57 154.5t128 54.5q84 0 116.5 -57t22.5 -152l-22 -206q-9 -93 -53.5 -149t-129.5 -56zM356 69q48 0 71.5 28.5t30.5 97.5l22 206q8 71 -9.5 100.5t-65.5 29.5
q-49 0 -72.5 -29.5t-31.5 -100.5l-22 -206q-7 -69 10.5 -97.5t66.5 -28.5z" />
    <glyph glyph-name="iacyrillic" unicode="&#x44f;" 
d="M257 295h172l24 226h-172q-44 0 -66.5 -23.5t-27.5 -73.5l-3 -22q-5 -54 12 -80.5t61 -26.5zM421 219h-81l-185 -219h-100l185 215q-76 3 -110.5 49t-25.5 134l2 19q9 91 56 137t128 46h250l-63 -600h-79z" />
    <glyph glyph-name="djecyrillic" unicode="&#x452;" 
d="M289 -208q-24 0 -50.5 6t-53.5 16l26 87q23 -10 44.5 -16t40.5 -6q40 0 67.5 29.5t35.5 99.5l39 372q6 56 -19.5 81t-70.5 25q-43 0 -85 -26t-80 -72l-41 -388h-79l67 639h-84l8 74h84l9 87h79l-9 -87h169l-8 -74h-169l-17 -167h26q26 46 67.5 70t96.5 24q71 0 108 -46.5
t29 -122.5l-43 -402q-10 -104 -64 -153.5t-123 -49.5z" />
    <glyph glyph-name="ecyrillic" unicode="&#x454;" 
d="M506 180q-16 -98 -71 -144t-154 -46q-111 0 -159 56t-37 164l19 181q11 107 71 163t170 56q98 0 143.5 -52.5t40.5 -159.5l-79 -3q4 74 -22 105t-92 31q-68 0 -106.5 -32.5t-45.5 -103.5l-6 -48h192l-7 -74h-192l-8 -71q-7 -69 25 -100.5t101 -31.5q64 0 96.5 26t41.5 88
z" />
    <glyph glyph-name="dzecyrillic" unicode="&#x455;" 
d="M281 -11q-63 0 -122.5 20t-103.5 62l45 67q36 -32 86 -51.5t104 -19.5t91 19.5t42 68.5q6 50 -25 70t-114 37q-99 19 -140 59.5t-33 115.5q9 84 66.5 128.5t139.5 44.5q58 0 113 -22.5t95 -62.5l-44 -69q-34 31 -78.5 53.5t-95.5 22.5q-49 0 -80 -20.5t-37 -69.5
q-5 -50 25.5 -70.5t112.5 -36.5q99 -19 140.5 -60.5t34.5 -112.5q-9 -87 -72 -130t-150 -43z" />
    <glyph glyph-name="icyrillic" 
d="M62 0l8 76h168l47 448h-168l8 76h248l-55 -524h168l-8 -76h-416zM344 716q-31 0 -49.5 10.5t-14.5 40.5v5q3 31 24 42t52 11t49 -11t15 -42v-5q-4 -30 -24.5 -40.5t-51.5 -10.5z" />
    <glyph glyph-name="yicyrillic" 
d="M62 0l8 76h168l47 448h-168l8 76h248l-55 -524h168l-8 -76h-416zM249 716q-24 0 -37.5 10.5t-9.5 40.5v5q3 31 19 42t40 11q25 0 37.5 -11t9.5 -42v-5q-4 -30 -19.5 -40.5t-39.5 -10.5zM441 716q-25 0 -38 10.5t-9 40.5v5q3 31 18.5 42t40.5 11q23 0 36.5 -11t10.5 -42
v-5q-4 -30 -20 -40.5t-39 -10.5z" />
    <glyph glyph-name="jecyrillic" unicode="&#x458;" 
d="M172 -208q-31 0 -61.5 4.5t-66.5 17.5l27 87q29 -13 55.5 -17.5t52.5 -4.5q54 0 91 29t45 97l54 519h-235l8 76h315l-64 -607q-11 -104 -74.5 -152.5t-146.5 -48.5zM427 716q-31 0 -49.5 10.5t-14.5 40.5v5q3 31 24 42t52 11t49 -11t15 -42v-5q-4 -30 -24.5 -40.5
t-51.5 -10.5z" />
    <glyph glyph-name="ljecyrillic" unicode="&#x459;" 
d="M210 519l-48 -369q-9 -78 -46.5 -118t-86.5 -40q-14 0 -29 3t-30 9l26 86q10 -5 20.5 -8.5t19.5 -3.5q20 0 33 17t18 57l58 448h234l-22 -211h71q63 0 93 -46t21 -129l-5 -54q-8 -75 -47 -117.5t-102 -42.5h-147l55 519h-86zM324 77h54q39 1 59.5 23.5t25.5 70.5l5 47
q5 49 -10.5 73t-54.5 24h-54z" />
    <glyph glyph-name="njecyrillic" unicode="&#x45a;" 
d="M315 77h54q38 0 58.5 20.5t25.5 61.5l6 56q5 47 -11.5 70.5t-54.5 23.5h-54zM137 311l-33 -311h-75l63 600h75l-23 -216h128l23 216h75l-23 -216h71q63 0 93.5 -47t22.5 -130l-5 -43q-8 -78 -48 -121t-102 -43h-147l33 311h-128z" />
    <glyph glyph-name="tshecyrillic" unicode="&#x45b;" 
d="M182 381l-40 -381h-79l67 639h-84l8 74h84l9 87h79l-9 -87h169l-8 -74h-169l-18 -175h26q22 47 66.5 74.5t98.5 27.5q71 0 107.5 -48t28.5 -129l-41 -389h-79l39 374q6 57 -16 84.5t-73 27.5q-42 0 -82.5 -25.5t-83.5 -79.5z" />
    <glyph glyph-name="dzhecyrillic" unicode="&#x45f;" 
d="M216 -150l16 150h-169l63 600h79l-55 -528h256l55 528h79l-63 -600h-168l-16 -150h-77z" />
    <glyph glyph-name="gheupturncyrillic" unicode="&#x491;" 
d="M105 0l63 600h306l16 150h76l-24 -222h-303l-55 -528h-79z" />
    <glyph glyph-name="nsuperior" unicode="&#x207f;" 
d="M137 303l52 499h66l-7 -68h21q11 23 26 38t31 23q17 9 33 12t32 3q27 0 49.5 -10t38.5 -29t23 -46t4 -60l-38 -362h-66l36 342q3 26 -1 45t-13 31q-10 13 -24 19t-31 6q-19 0 -36 -5t-32 -15q-16 -10 -30.5 -23.5t-28.5 -30.5l-39 -369h-66z" />
    <glyph glyph-name="gravecmb" unicode="&#x300;" horiz-adv-x="0" 
d="M34 700l-141 200h121l94 -200h-74z" />
    <glyph glyph-name="acutecmb" unicode="&#x301;" horiz-adv-x="0" 
d="M-62 700l135 200h122l-183 -200h-74z" />
    <glyph glyph-name="circumflexcmb" unicode="&#x302;" horiz-adv-x="0" 
d="M-111 718l-32 50l168 146h57l139 -146l-45 -51l-132 112z" />
    <glyph glyph-name="tildecmb" unicode="&#x303;" horiz-adv-x="0" 
d="M98 710q-32 0 -49.5 19.5t-29.5 41.5l-21 41t-26 19q-19 0 -31.5 -24t-16.5 -78l-1 -9h-63l1 15q8 72 41 120.5t86 48.5q35 0 53.5 -19.5t29.5 -40.5l18.5 -41t23.5 -19q18 0 31 23.5t19 77.5l1 10h62l-2 -15q-7 -74 -40 -122t-86 -48z" />
    <glyph glyph-name="macroncmb" unicode="&#x304;" horiz-adv-x="0" 
d="M-128 764l8 72h332l-8 -72h-332z" />
    <glyph glyph-name="brevecmb" unicode="&#x306;" horiz-adv-x="0" 
d="M31 693q-87 0 -134.5 48.5t-37.5 152.5h82q-7 -72 17.5 -102.5t79.5 -30.5t85.5 30.5t39.5 102.5h82q-12 -104 -69.5 -152.5t-144.5 -48.5z" />
    <glyph glyph-name="dotaccentcmb" unicode="&#x307;" horiz-adv-x="0" 
d="M33 716q-31 0 -49.5 10.5t-14.5 40.5v5q3 31 24 42t52 11t49 -11t15 -42v-5q-4 -30 -24.5 -40.5t-51.5 -10.5z" />
    <glyph glyph-name="dieresiscmb" unicode="&#x308;" horiz-adv-x="0" 
d="M-63 716q-24 0 -37.5 10.5t-9.5 40.5v5q3 31 19 42t40 11q25 0 37.5 -11t9.5 -42v-5q-4 -30 -19.5 -40.5t-39.5 -10.5zM129 716q-25 0 -38 10.5t-9 40.5v5q3 31 18.5 42t40.5 11q23 0 36.5 -11t10.5 -42v-5q-4 -30 -20 -40.5t-39 -10.5z" />
    <glyph glyph-name="ringcmb" unicode="&#x30a;" horiz-adv-x="0" 
d="M30 688q-59 0 -91.5 35t-25.5 107l4 32q7 73 47.5 109t99.5 36q60 0 92 -36t25 -109l-4 -32q-7 -72 -47.5 -107t-99.5 -35zM37 753q34 0 53.5 17.5t23.5 59.5l4 32q4 41 -11.5 60.5t-49.5 19.5t-53.5 -19.5t-23.5 -60.5l-4 -32q-4 -42 11.5 -59.5t49.5 -17.5z" />
    <glyph glyph-name="hungarumlautcmb" unicode="&#x30b;" horiz-adv-x="0" 
d="M97 700l68 200h115l-125 -200h-58zM-95 700l68 200h115l-125 -200h-58z" />
    <glyph glyph-name="caroncmb" unicode="&#x30c;" horiz-adv-x="0" 
d="M4 704l-139 146l45 50l132 -110l155 110l32 -50l-168 -146h-57z" />
    <glyph glyph-name="commaturnedabovecmb" unicode="&#x312;" horiz-adv-x="0" 
d="M-79 700l149 200h75l-102 -200h-122z" />
    <glyph glyph-name="commaaccentcmb" unicode="&#x326;" horiz-adv-x="0" 
d="M-185 -300l102 200h122l-149 -200h-75z" />
    <glyph glyph-name="cedillacmb" unicode="&#x327;" horiz-adv-x="0" 
d="M-67 0l20 42q43 -10 68.5 -43t19.5 -90q-6 -63 -47 -92.5t-85 -29.5q-53 0 -85 21.5t-30 75.5l72 10q-1 -19 9.5 -26.5t36.5 -7.5q25 0 39.5 13t18.5 47q3 37 -5 54.5t-32 25.5z" />
    <glyph glyph-name="ogonekcmb" unicode="&#x328;" horiz-adv-x="0" 
d="M-17 -213q-52 0 -85 31.5t-27 85.5q5 44 40.5 80t74.5 54l20 -15q-32 -22 -45 -49t-15 -46q-3 -28 11.5 -43.5t42.5 -15.5q15 0 38.5 3.5t36.5 6.5l-8 -82q-17 -4 -41 -7t-43 -3z" />
    <glyph glyph-name="zero" 
d="M269 -10q-110 0 -158.5 86.5t-30.5 252.5l14 138q18 168 84.5 255.5t177.5 87.5q110 0 158 -87.5t30 -255.5l-14 -138q-18 -166 -84.5 -252.5t-176.5 -86.5zM277 66q78 0 117 59.5t54 198.5l16 148q14 141 -12.5 201.5t-104.5 60.5t-117.5 -60.5t-53.5 -201.5l-16 -148
q-15 -139 12 -198.5t105 -59.5zM304 325q-27 0 -42.5 11t-11.5 42l4 43q3 30 21 41.5t45 11.5t42 -11.5t12 -41.5l-4 -43q-4 -31 -22 -42t-44 -11z" />
    <glyph glyph-name="one" unicode="1" 
d="M88 0l8 72h184l65 626h-23q-30 -49 -80 -71.5t-106 -12.5v84q63 -7 121.5 20.5t101.5 81.5h77l-76 -728h169l-8 -72h-433z" />
    <glyph glyph-name="two" unicode="2" 
d="M45 0l18 172q10 93 50.5 142t130.5 77l120 40q48 12 71 39.5t29 78.5l5 48q8 74 -19 105.5t-103 31.5q-74 0 -104.5 -36t-50.5 -149l-79 10q21 139 75.5 195t165.5 56q109 0 158 -49.5t38 -150.5l-8 -73q-7 -74 -46 -116t-128 -70l-119 -40q-46 -12 -72 -43.5t-33 -93.5
l-10 -102h369l-8 -72h-450z" />
    <glyph glyph-name="three" unicode="3" 
d="M260 -10q-129 0 -167 56t-34 167l82 10q-3 -99 22 -131t104 -32q85 0 123 35.5t47 122.5l2 21q9 86 -18.5 119t-108.5 33h-84l8 73h84q71 0 101.5 26.5t37.5 92.5l3 28q8 71 -19 100t-102 29q-66 0 -97.5 -31.5t-47.5 -117.5l-79 10q18 113 74 161t156 48q96 0 151 -48.5
t44 -156.5l-4 -33q-6 -59 -44.5 -92t-99.5 -37l-3 -29q72 -7 104 -56t26 -112l-3 -27q-11 -104 -70.5 -166.5t-187.5 -62.5z" />
    <glyph glyph-name="four" unicode="4" 
d="M157 290h229l43 408zM558 214h-100l-22 -214h-80l22 214h-319l8 76l336 510h117l-54 -510h100z" />
    <glyph glyph-name="five" unicode="5" 
d="M263 -10q-127 0 -168.5 46.5t-35.5 175.5l82 10q-5 -98 20 -127t110 -29q82 0 120 37t45 107l5 48q8 72 -14.5 110t-82.5 38h-239l41 394h398l-8 -76h-318l-25 -238h157q95 0 140 -54.5t32 -171.5l-6 -57q-10 -98 -75 -155.5t-178 -57.5z" />
    <glyph glyph-name="six" unicode="6" 
d="M269 -10q-113 0 -161 75t-34 214l27 253q14 137 79.5 207.5t176.5 70.5q101 0 145.5 -40.5t51.5 -134.5l-91 -23q-5 69 -27.5 95.5t-88.5 26.5q-78 0 -116 -47t-49 -157l-12 -110h16q26 40 61.5 59.5t89.5 19.5q107 0 151.5 -68t33.5 -172l-1 -16q-13 -124 -77.5 -188.5
t-174.5 -64.5zM276 66q74 0 113 41.5t48 131.5l1 8q9 89 -21 130t-104 41t-113 -41t-48 -130l-1 -8q-9 -90 21 -131.5t104 -41.5z" />
    <glyph glyph-name="seven" unicode="7" 
d="M189 0q77 272 134.5 413t165.5 301h-369l9 86h450l-9 -86q-115 -187 -176.5 -338t-117.5 -376h-87z" />
    <glyph glyph-name="eight" unicode="8" 
d="M269 -10q-119 0 -166.5 51t-35.5 165l2 19q8 78 48 126.5t103 55.5l3 29q-49 5 -77.5 46.5t-21.5 107.5l3 29q11 101 64.5 146t163.5 45t154.5 -45t33.5 -146l-3 -29q-7 -66 -44.5 -107.5t-86.5 -46.5l-3 -29q61 -7 91 -56.5t22 -125.5l-2 -19q-12 -114 -70.5 -165
t-177.5 -51zM318 458q72 0 103 28.5t39 101.5l2 23q8 72 -17 100.5t-97 28.5t-103 -28.5t-39 -100.5l-2 -23q-8 -73 17 -101.5t97 -28.5zM276 60q81 0 116 33.5t44 120.5l2 13q9 87 -19 121t-109 34t-116 -34t-44 -121l-2 -13q-9 -87 19 -120.5t109 -33.5z" />
    <glyph glyph-name="nine" unicode="9" 
d="M311 382q74 0 113 41t48 130l1 8q9 90 -21 131.5t-104 41.5t-113 -41.5t-48 -131.5l-1 -8q-9 -89 21 -130t104 -41zM267 -10q-101 0 -145 41t-52 134l91 23q5 -72 29 -97t87 -25q78 0 116 47t49 156l12 111h-15q-23 -38 -62 -58.5t-92 -20.5q-103 0 -149 63.5t-34 176.5
l2 16q13 124 77 188.5t174 64.5q113 0 161 -75.5t34 -213.5l-27 -253q-14 -133 -78 -205.5t-178 -72.5z" />
    <glyph glyph-name="onequarter" unicode="&#xbc;" 
d="M173 410l7 68h114l24 226h-12q-7 -19 -19 -35t-28 -28q-15 -12 -32.5 -18t-36.5 -6l2 66q23 1 45 9.5t40 24.5q19 15 33 38t21 51h72l-35 -328h103l-7 -68h-291zM4 252l10 91l264 -20l-5 -51zM337 272l5 51l256 20l-10 -91zM452 -114h-78l-10 -96h-73l10 96h-213l6 61
l218 269h97l-29 -269h78zM159 -53h148l22 207z" />
    <glyph glyph-name="onehalf" unicode="&#xbd;" 
d="M173 410l7 68h114l24 226h-12q-7 -19 -19 -35t-28 -28q-15 -12 -32.5 -18t-36.5 -6l2 66q21 1 41.5 8.5t39.5 22.5q20 15 34.5 38t23.5 54h72l-35 -328h103l-7 -68h-291zM4 252l10 91l264 -20l-5 -51zM337 272l5 51l256 20l-10 -91zM82 -210l8 80q3 24 10.5 44t21.5 36
q12 16 32.5 27.5t46.5 17.5l105 25q16 4 26 8t18 10q7 6 10.5 13.5t4.5 18.5l3 23q1 13 -2 23t-12 17t-25.5 11t-42.5 4t-43 -4.5t-27 -14.5q-10 -9 -16 -24t-10 -38l-73 7q6 36 17 61.5t32 42.5q20 17 51 25.5t75 8.5q43 0 73.5 -8t47.5 -22q18 -15 24.5 -36t3.5 -48
l-4 -38q-2 -24 -10.5 -41.5t-22.5 -30.5q-14 -12 -31.5 -20t-41.5 -14l-104 -25q-16 -3 -26 -6.5t-17 -11.5q-8 -7 -13.5 -21.5t-8.5 -37.5h259l-6 -62h-333z" />
    <glyph glyph-name="threequarters" unicode="&#xbe;" 
d="M310 404q-45 0 -76 7.5t-48 23.5q-19 15 -26 37.5t-6 54.5l74 6q0 -18 3 -29.5t12 -19.5q9 -7 26.5 -10.5t47.5 -3.5q28 0 47 3t31 9q10 6 15.5 14t6.5 19l2 16q1 11 -2 19.5t-14 13.5q-9 5 -27 8t-46 3h-41l8 68h41q24 0 39.5 2.5t25.5 7.5q10 6 15.5 15t7.5 23l2 25
q1 8 -4.5 14t-15.5 9q-12 4 -28 5.5t-37 1.5t-36 -3t-26 -10q-11 -6 -17 -16.5t-8 -25.5l-74 6q6 31 18 52.5t33 35.5q20 14 49 20.5t68 6.5q37 0 65 -4.5t49 -15.5q20 -11 30 -29.5t7 -45.5l-2 -18q-1 -17 -8 -31t-19 -24q-11 -10 -26.5 -16t-32.5 -8l-2 -18q20 -2 36 -8
t26 -15q11 -10 16 -22t4 -26l-2 -16q-3 -28 -15.5 -48.5t-34.5 -34.5t-55 -21t-76 -7zM4 252l10 91l264 -20l-5 -51zM337 272l5 51l256 20l-10 -91zM451 -114h-78l-10 -96h-73l10 96h-213l6 61l218 269h97l-29 -269h78zM158 -53h148l22 207z" />
    <glyph glyph-name="oneeighth" unicode="&#x215b;" 
d="M174 410l7 68h114l24 226h-12q-7 -19 -19 -35t-28 -28q-15 -12 -32.5 -18t-36.5 -6l2 66q21 1 41.5 8.5t39.5 22.5q20 15 34.5 38t23.5 54h72l-35 -328h103l-7 -68h-291zM4 252l10 91l264 -20l-5 -51zM337 272l5 51l256 20l-10 -91zM251 -215q-47 0 -78 8t-48 22
q-18 15 -24 36t-4 49l2 14q2 19 9 35t19 27q13 12 29 18.5t36 8.5l2 18q-16 2 -28.5 7.5t-21.5 14.5q-10 9 -14 21.5t-2 27.5l2 20q3 26 15.5 45.5t33.5 31.5t50 18t67 6q39 0 67 -5.5t47 -17.5t27 -31.5t5 -46.5l-2 -20q-2 -15 -9 -27.5t-17 -21.5t-24.5 -14.5t-30.5 -7.5
l-2 -18q20 -2 35 -9t24 -19q10 -12 14 -27.5t2 -33.5l-2 -14q-3 -29 -13.5 -50t-31.5 -36q-20 -14 -53.5 -21.5t-80.5 -7.5zM279 46q22 0 37.5 2.5t26.5 8.5q11 5 16.5 13.5t7.5 20.5l1 13q1 12 -3 20t-14 13q-9 5 -24.5 7.5t-37.5 2.5t-37.5 -2.5t-25.5 -7.5t-16 -13
t-7 -20l-1 -13q-2 -12 2.5 -20.5t13.5 -13.5q9 -6 24 -8.5t37 -2.5zM258 -149q30 0 49 4t30 12q10 7 14.5 18t6.5 26v7q2 16 -0.5 27t-10.5 19q-9 8 -27 12t-48 4t-48.5 -4t-29.5 -12q-10 -8 -14.5 -19t-6.5 -27v-7q-2 -15 0.5 -26t10.5 -18q9 -8 26.5 -12t47.5 -4z" />
    <glyph glyph-name="threeeighths" unicode="&#x215c;" 
d="M310 404q-46 0 -76.5 7.5t-47.5 22.5q-19 15 -26 38t-6 55l74 6q0 -18 3 -29.5t12 -19.5q9 -7 26.5 -10.5t47.5 -3.5q28 0 47 3t31 9q10 6 15.5 14t6.5 19l2 16q1 11 -2 19t-14 14q-9 5 -27 8t-46 3h-41l8 68h41q24 0 39.5 2t25.5 8q10 5 15.5 14.5t7.5 23.5l2 25
q1 8 -4.5 14t-15.5 9q-12 4 -28 5.5t-37 1.5t-36 -3t-25 -10q-11 -6 -17 -16.5t-9 -25.5l-74 6q6 31 18 52.5t33 35.5q19 14 48 20.5t69 6.5q37 0 65.5 -4.5t48.5 -15.5q21 -11 30.5 -29.5t6.5 -45.5l-2 -18q-1 -17 -8 -31t-19 -24q-11 -10 -26.5 -16t-32.5 -8l-2 -18
q20 -2 36 -8t26 -15q11 -10 16 -22t4 -26l-2 -16q-3 -28 -15 -48.5t-35 -34.5q-22 -14 -55 -21t-76 -7zM4 252l10 91l264 -20l-5 -51zM337 272l5 51l256 20l-10 -91zM251 -215q-47 0 -78 8t-48 22q-18 15 -24 36t-4 49l2 14q2 19 9 35t19 27q13 12 29 18.5t36 8.5l2 18
q-16 2 -28.5 7.5t-21.5 14.5q-10 9 -14 21.5t-2 27.5l2 20q3 26 15.5 45.5t33.5 31.5t50 18t67 6q39 0 67 -5.5t47 -17.5t27 -31.5t5 -46.5l-2 -20q-2 -15 -9 -27.5t-17 -21.5t-24.5 -14.5t-30.5 -7.5l-2 -18q20 -2 35 -9t24 -19q10 -12 14 -27.5t2 -33.5l-2 -14
q-3 -29 -13.5 -50t-31.5 -36q-20 -14 -53.5 -21.5t-80.5 -7.5zM279 46q22 0 37.5 2.5t26.5 8.5q11 5 16.5 13.5t7.5 20.5l1 13q1 12 -3 20t-14 13q-9 5 -24.5 7.5t-37.5 2.5t-37.5 -2.5t-25.5 -7.5t-16 -13t-7 -20l-1 -13q-2 -12 2.5 -20.5t13.5 -13.5q9 -6 24 -8.5t37 -2.5
zM258 -149q30 0 49 4t30 12q10 7 14.5 18t6.5 26v7q2 16 -0.5 27t-10.5 19q-9 8 -27 12t-48 4t-48.5 -4t-29.5 -12q-10 -8 -14.5 -19t-6.5 -27v-7q-2 -15 0.5 -26t10.5 -18q9 -8 26.5 -12t47.5 -4z" />
    <glyph glyph-name="fiveeighths" unicode="&#x215d;" 
d="M313 406q-47 0 -77.5 5.5t-49.5 18.5q-18 13 -26 35.5t-6 57.5l74 6q0 -19 3.5 -30.5t14.5 -17.5q10 -6 27 -8t47 -2q27 0 44.5 3t29.5 9q11 5 16.5 14t7.5 22l2 28q2 13 -1.5 22t-13.5 14q-9 6 -25.5 9t-41.5 3h-161l22 211h304l-7 -65h-230l-8 -74h103q35 0 61.5 -7
t43.5 -21q18 -14 25 -35t4 -49l-3 -34q-3 -26 -15.5 -47t-34.5 -37q-23 -15 -55 -23t-74 -8zM4 252l10 91l264 -20l-5 -51zM337 272l5 51l256 20l-10 -91zM251 -215q-47 0 -78 8t-48 22q-18 15 -24 36t-4 49l2 14q2 19 9 35t19 27q13 12 29 18.5t36 8.5l2 18
q-16 2 -28.5 7.5t-21.5 14.5q-10 9 -14 21.5t-2 27.5l2 20q3 26 15.5 45.5t33.5 31.5t50 18t67 6q39 0 67 -5.5t47 -17.5t27 -31.5t5 -46.5l-2 -20q-2 -15 -9 -27.5t-17 -21.5t-24.5 -14.5t-30.5 -7.5l-2 -18q20 -2 35 -9t24 -19q10 -12 14 -27.5t2 -33.5l-2 -14
q-3 -29 -13.5 -50t-31.5 -36q-20 -14 -53.5 -21.5t-80.5 -7.5zM279 46q22 0 37.5 2.5t26.5 8.5q11 5 16.5 13.5t7.5 20.5l1 13q1 12 -3 20t-14 13q-9 5 -24.5 7.5t-37.5 2.5t-37.5 -2.5t-25.5 -7.5t-16 -13t-7 -20l-1 -13q-2 -12 2.5 -20.5t13.5 -13.5q9 -6 24 -8.5t37 -2.5
zM258 -149q30 0 49 4t30 12q10 7 14.5 18t6.5 26v7q2 16 -0.5 27t-10.5 19q-9 8 -27 12t-48 4t-48.5 -4t-29.5 -12q-10 -8 -14.5 -19t-6.5 -27v-7q-2 -15 0.5 -26t10.5 -18q9 -8 26.5 -12t47.5 -4z" />
    <glyph glyph-name="seveneighths" unicode="&#x215e;" 
d="M250 410q17 55 35 99.5t41 83.5q22 38 50 73.5t64 71.5h-259l7 68h333l-7 -68q-36 -39 -64.5 -78.5t-51.5 -80.5q-23 -40 -40 -82.5t-30 -86.5h-78zM4 252l10 91l264 -20l-5 -51zM337 272l5 51l256 20l-10 -91zM251 -215q-47 0 -78 8t-48 22q-18 15 -24 36t-4 49l2 14
q2 19 9 35t19 27q13 12 29 18.5t36 8.5l2 18q-16 2 -28.5 7.5t-21.5 14.5q-10 9 -14 21.5t-2 27.5l2 20q3 26 15.5 45.5t33.5 31.5t50 18t67 6q39 0 67 -5.5t47 -17.5t27 -31.5t5 -46.5l-2 -20q-2 -15 -9 -27.5t-17 -21.5t-24.5 -14.5t-30.5 -7.5l-2 -18q20 -2 35 -9t24 -19
q10 -12 14 -27.5t2 -33.5l-2 -14q-3 -29 -13.5 -50t-31.5 -36q-20 -14 -53.5 -21.5t-80.5 -7.5zM279 46q22 0 37.5 2.5t26.5 8.5q11 5 16.5 13.5t7.5 20.5l1 13q1 12 -3 20t-14 13q-9 5 -24.5 7.5t-37.5 2.5t-37.5 -2.5t-25.5 -7.5t-16 -13t-7 -20l-1 -13q-2 -12 2.5 -20.5
t13.5 -13.5q9 -6 24 -8.5t37 -2.5zM258 -149q30 0 49 4t30 12q10 7 14.5 18t6.5 26v7q2 16 -0.5 27t-10.5 19q-9 8 -27 12t-48 4t-48.5 -4t-29.5 -12q-10 -8 -14.5 -19t-6.5 -27v-7q-2 -15 0.5 -26t10.5 -18q9 -8 26.5 -12t47.5 -4z" />
    <glyph glyph-name="underscore" unicode="_" 
d="M16 -200l8 80h466l-8 -80h-466z" />
    <glyph glyph-name="hyphen" unicode="&#x2011;" 
d="M69 309l9 80h466l-9 -80h-466z" />
    <glyph glyph-name="hyphen" unicode="&#x2010;" 
d="M69 309l9 80h466l-9 -80h-466z" />
    <glyph glyph-name="hyphen" unicode="&#xad;" 
d="M69 309l9 80h466l-9 -80h-466z" />
    <glyph glyph-name="hyphen" unicode="-" 
d="M69 309l9 80h466l-9 -80h-466z" />
    <glyph glyph-name="endash" unicode="&#x2013;" 
d="M96 309l9 80h412l-9 -80h-412z" />
    <glyph glyph-name="emdash" unicode="&#x2014;" 
d="M10 309l9 80h584l-9 -80h-584z" />
    <glyph glyph-name="horizontalbar" unicode="&#x2015;" 
d="M10 309l9 80h584l-9 -80h-584z" />
    <glyph glyph-name="parenleft" unicode="(" 
d="M414 -210q-130 39 -194 170.5t-42 339.5q21 209 113 340t230 170l2 -63q-111 -36 -178.5 -154.5t-85.5 -292.5q-19 -175 23.5 -294.5t145.5 -155.5z" />
    <glyph glyph-name="parenright" unicode=")" 
d="M82 -210l-2 60q111 36 178.5 155.5t86.5 294.5q18 175 -24.5 293t-145.5 154l14 63q130 -39 194 -170.5t43 -339.5q-22 -208 -114 -339.5t-230 -170.5z" />
    <glyph glyph-name="bracketleft" unicode="[" 
d="M125 -200l105 1000h289l-8 -76h-208l-91 -864h208l-6 -60h-289z" />
    <glyph glyph-name="bracketright" unicode="]" 
d="M84 -200l6 60h208l91 864h-208l8 76h289l-105 -1000h-289z" />
    <glyph glyph-name="braceleft" 
d="M413 -210q-176 -4 -249 38.5t-64 127.5q6 51 27 86t43 60l41 46.5t23 48.5q5 47 -35 67.5t-147 23.5l5 48q108 3 152 22.5t49 65.5q2 27 -14 46t-32 40q-17 23 -30.5 55.5t-8.5 83.5q9 81 90.5 123t256.5 38l-8 -76q-136 3 -195.5 -19t-64.5 -72q-3 -25 9.5 -48t34.5 -51
q21 -28 33 -55.5t9 -61.5q-6 -53 -49 -81.5t-120 -32.5l-1 -5q76 -10 112.5 -43t30.5 -90q-3 -30 -21 -55t-46 -53q-27 -26 -44 -50.5t-20 -56.5q-6 -53 49 -76t192 -20z" />
    <glyph glyph-name="braceright" 
d="M430 -44q-9 -85 -90 -127.5t-257 -38.5l8 74q135 -3 195 20t66 76q3 32 -9 56.5t-33 50.5q-22 28 -35 53t-10 55q6 57 49.5 90t121.5 43l1 5q-77 4 -114 32.5t-31 81.5q3 34 21 61.5t45 55.5q28 28 45.5 51t20.5 48q5 50 -50.5 72t-191.5 19l8 76q177 4 249.5 -38
t63.5 -123q-5 -51 -25.5 -83.5t-41.5 -55.5l-42 -40t-22 -46q-5 -46 35 -65.5t146 -22.5l-5 -48q-107 -3 -151 -23.5t-49 -67.5q-3 -26 12 -48.5l32 -46.5q16 -25 30 -60t8 -86z" />
    <glyph glyph-name="numbersign" unicode="#" 
d="M354 287l33 226h-117l-33 -226h117zM312 0l31 209h-117l-31 -209h-73l31 209h-109l8 78h112l33 226h-121l8 78h124l31 209h73l-31 -209h117l31 209h73l-31 -209h109l-8 -78h-112l-33 -226h121l-8 -78h-124l-31 -209h-73z" />
    <glyph glyph-name="percent" unicode="%" 
d="M199 460q-62 0 -96.5 38t-25.5 118l5 54q8 76 51 113t104 37q63 0 97 -37t26 -113l-5 -54q-9 -80 -51.5 -118t-104.5 -38zM207 531q29 0 47 20t23 65l6 55q4 41 -10 60.5t-43 19.5q-28 0 -47 -19.5t-23 -60.5l-6 -55q-5 -45 10 -65t43 -20zM14 234l569 384l29 -53
l-570 -384zM387 -22q-63 0 -98 36.5t-27 111.5l7 62q8 76 51 113t105 37q63 0 96.5 -37t25.5 -113l-7 -62q-8 -75 -49.5 -111.5t-103.5 -36.5zM394 49q28 0 46.5 18.5t22.5 58.5l7 64q4 40 -10.5 59.5t-42.5 19.5t-47 -19.5t-23 -59.5l-7 -64q-4 -40 11 -58.5t43 -18.5z" />
    <glyph glyph-name="perthousand" unicode="&#x2030;" 
d="M195 460q-60 0 -92.5 37t-24.5 114l7 64q8 74 48.5 109.5t99.5 35.5q60 0 92.5 -35.5t24.5 -109.5l-7 -64q-8 -77 -48.5 -114t-99.5 -37zM157 610q-4 -42 8.5 -60.5t37.5 -18.5t41 18.5t20 60.5l7 67q4 38 -8 56t-37 18t-41.5 -18t-20.5 -56zM601 574l-567 -370l-30 55
l566 370zM450 -22q-25 0 -44 13t-29 38q-14 -25 -34.5 -38t-45.5 -13q-46 0 -70 34.5t-16 106.5l9 92q8 72 39 107.5t75 35.5q26 0 44 -13t29 -39q14 26 35.5 39t46.5 13q45 0 68.5 -35.5t15.5 -107.5l-9 -92q-8 -72 -39 -106.5t-75 -34.5zM281 107q-3 -34 4 -49.5t23 -15.5
t27 15.5t14 49.5l13 118q3 35 -4 51.5t-23 16.5t-27 -16.5t-14 -51.5zM421 107q-3 -34 4 -49.5t24 -15.5q16 0 27 15.5t14 49.5l13 118q3 35 -4 51.5t-23 16.5q-17 0 -28 -16.5t-14 -51.5z" />
    <glyph glyph-name="quotesingle" unicode="'" 
d="M274 414l14 386h132l-66 -386h-80z" />
    <glyph glyph-name="quotedbl" unicode="&#x22;" 
d="M399 414l15 386h132l-65 -386h-82zM147 414l15 386h132l-65 -386h-82z" />
    <glyph glyph-name="quoteleft" unicode="&#x2018;" 
d="M191 414l227 386h69l-132 -386h-164z" />
    <glyph glyph-name="quoteleft" unicode="&#x2bb;" 
d="M191 414l227 386h69l-132 -386h-164z" />
    <glyph glyph-name="quoteright" unicode="&#x2019;" 
d="M181 414l132 386h164l-227 -386h-69z" />
    <glyph glyph-name="quotedblleft" unicode="&#x201c;" 
d="M315 414l229 386h61l-133 -386h-157zM63 414l229 386h61l-133 -386h-157z" />
    <glyph glyph-name="quotedblright" unicode="&#x201d;" 
d="M315 414l133 386h156l-227 -386h-62zM63 414l134 386h155l-228 -386h-61z" />
    <glyph glyph-name="quotereversed" unicode="&#x201b;" 
d="M362 414l-147 386h163l52 -386h-68z" />
    <glyph glyph-name="quotesinglbase" unicode="&#x201a;" 
d="M134 -214l116 385h162l-209 -385h-69z" />
    <glyph glyph-name="quotedblbase" unicode="&#x201e;" 
d="M295 -210l133 386h156l-227 -386h-62zM43 -210l134 386h155l-228 -386h-61z" />
    <glyph glyph-name="guilsinglleft" unicode="&#x2039;" 
d="M407 123l-228 191l8 72l268 191l-8 -72l-216 -155l183 -155z" />
    <glyph glyph-name="guilsinglright" unicode="&#x203a;" 
d="M159 123l7 72l218 155l-185 155l8 72l228 -191l-8 -72z" />
    <glyph glyph-name="guillemotleft" unicode="&#xab;" 
d="M516 122l-195 191l7 71l236 192l-8 -72l-189 -155l156 -155zM267 122l-195 191l7 71l236 192l-8 -72l-189 -155l156 -155z" />
    <glyph glyph-name="guillemotright" unicode="&#xbb;" 
d="M52 122l7 72l190 155l-157 155l8 72l194 -192l-7 -71zM301 122l7 72l190 155l-157 155l8 72l194 -192l-7 -71z" />
    <glyph glyph-name="asterisk" 
d="M496 328l-151 142v-222h-100l47 221l-180 -141l-41 85l204 112l-180 111l59 86l150 -142l-1 220h100l-46 -221l181 143l40 -86l-204 -111l180 -112z" />
    <glyph glyph-name="dagger" unicode="&#x2020;" 
d="M208 -200l76 724h-84l-56 -206h-65l56 282h156l16 200h94l-27 -200h157l-4 -282h-65l-12 206h-85l-76 -724h-81z" />
    <glyph glyph-name="daggerdbl" unicode="&#x2021;" 
d="M202 -200l27 205h-156l-3 221h65l18 -146h84l47 440h-84l-50 -146h-65l50 221h156l16 205h94l-26 -205h156l2 -221h-65l-18 146h-84l-47 -440h84l50 146h65l-49 -221h-156l-17 -205h-94z" />
    <glyph glyph-name="period" unicode="." 
d="M270 -10q-41 0 -64.5 20.5t-18.5 66.5l2 16q5 46 32.5 67t68.5 21t64 -21t18 -67l-2 -16q-5 -46 -32.5 -66.5t-67.5 -20.5z" />
    <glyph glyph-name="comma" unicode="," 
d="M124 -214l116 385h162l-209 -385h-69z" />
    <glyph glyph-name="colon" unicode=":" 
d="M313 397q-41 0 -65 18.5t-20 60.5l4 39q5 43 33 62.5t69 19.5q42 0 65 -19.5t18 -62.5l-4 -39q-4 -42 -32 -60.5t-68 -18.5zM270 -12q-41 0 -65 18.5t-20 61.5l4 39q5 43 33 62.5t69 19.5q42 0 65 -19.5t18 -62.5l-4 -39q-4 -43 -32 -61.5t-68 -18.5z" />
    <glyph glyph-name="semicolon" unicode=";" 
d="M313 397q-41 0 -65 18.5t-20 60.5l4 39q5 43 33 62.5t69 19.5q42 0 65 -19.5t18 -62.5l-4 -39q-4 -42 -32 -60.5t-68 -18.5zM122 -221l118 399h165l-214 -399h-69z" />
    <glyph glyph-name="ellipsis" unicode="&#x2026;" 
d="M469 -9q-26 0 -40.5 20.5t-9.5 63.5l2 21q5 44 23.5 65t44.5 21t40.5 -21t9.5 -65l-2 -21q-5 -43 -24 -63.5t-44 -20.5zM269 -9q-26 0 -40.5 20.5t-9.5 63.5l2 21q5 44 23.5 65t44.5 21q27 0 41 -21t9 -65l-2 -21q-5 -43 -24 -63.5t-44 -20.5zM70 -9q-26 0 -41 20.5
t-10 63.5l2 21q5 44 24 65t45 21q27 0 40.5 -21t8.5 -65l-2 -21q-5 -43 -23.5 -63.5t-43.5 -20.5z" />
    <glyph glyph-name="exclam" unicode="!" 
d="M277 300l26 500h114l-77 -500h-63zM276 -10q-41 0 -58 20.5t-12 63.5l3 28q4 44 25.5 65t62.5 21t57 -21t12 -65l-3 -28q-5 -43 -26 -63.5t-61 -20.5z" />
    <glyph glyph-name="exclamdown" unicode="&#xa1;" 
d="M355 810q41 0 58 -20.5t12 -63.5l-3 -28q-4 -44 -25.5 -65t-62.5 -21q-40 0 -56.5 21t-12.5 65l3 28q5 43 26 63.5t61 20.5zM355 500l-27 -500h-114l79 500h62z" />
    <glyph glyph-name="exclamdbl" unicode="&#x203c;" 
d="M386 300l27 500h115l-77 -500h-65zM155 300l27 500h115l-77 -500h-65zM386 -10q-21 0 -35.5 5t-23.5 15q-8 11 -11.5 26.5t-0.5 37.5l3 28q2 22 9 38.5t17 26.5q11 11 26.5 16t36.5 5t35 -5t23 -16q9 -10 11.5 -26.5t0.5 -38.5l-3 -28q-3 -22 -9.5 -37.5t-16.5 -26.5
q-11 -10 -26.5 -15t-35.5 -5zM155 -10q-21 0 -35.5 5t-23.5 15q-8 11 -11.5 26.5t-0.5 37.5l3 28q2 22 9 38.5t17 26.5q11 11 26.5 16t36.5 5t35 -5t23 -16q9 -10 11.5 -26.5t0.5 -38.5l-3 -28q-3 -22 -9.5 -37.5t-16.5 -26.5q-11 -10 -26.5 -15t-35.5 -5z" />
    <glyph glyph-name="question" unicode="?" 
d="M246 327l-10 67q151 28 203.5 63t58.5 95l3 33q8 74 -23 111.5t-124 37.5q-103 0 -138 -37.5t-53 -147.5l-79 10q22 143 80.5 197t196.5 54q128 0 179.5 -56t41.5 -156l-5 -50q-11 -97 -86 -143.5t-245 -77.5zM238 -10q-40 0 -57.5 20.5t-12.5 63.5l3 28q4 44 26 65
t62 21q41 0 57.5 -21t12.5 -65l-3 -28q-5 -43 -26.5 -63.5t-61.5 -20.5z" />
    <glyph glyph-name="questiondown" unicode="&#xbf;" 
d="M387 810q40 0 57 -20.5t12 -63.5l-3 -28q-4 -44 -25.5 -65t-61.5 -21q-41 0 -58 21t-13 65l3 28q5 43 27 63.5t62 20.5zM379 473l10 -67q-150 -28 -203 -63t-59 -95l-3 -33q-8 -75 22.5 -112t124.5 -37q102 0 137 37.5t53 147.5l79 -10q-21 -142 -79.5 -196.5
t-196.5 -54.5q-128 0 -180 55.5t-42 156.5l5 50q11 97 86.5 143.5t245.5 77.5z" />
    <glyph glyph-name="slash" unicode="/" 
d="M41 -200l439 1000h82l-439 -1000h-82z" />
    <glyph glyph-name="backslash" unicode="\" 
d="M375 -200l-229 1000h82l229 -1000h-82z" />
    <glyph glyph-name="fraction" unicode="&#x2215;" 
d="M63 0l418 800h81l-418 -800h-81z" />
    <glyph glyph-name="fraction" unicode="&#x2044;" 
d="M63 0l418 800h81l-418 -800h-81z" />
    <glyph glyph-name="bar" unicode="|" 
d="M213 -200l105 1000h73l-105 -1000h-73z" />
    <glyph glyph-name="brokenbar" unicode="&#xa6;" 
d="M276 400l42 400h73l-42 -400h-73zM213 -200l42 400h73l-42 -400h-73z" />
    <glyph glyph-name="at" unicode="@" 
d="M316 -110q-140 0 -205.5 78t-51.5 216l36 344q14 128 81 205t186 77q108 0 159 -79.5t38 -209.5l-27 -252q-10 -77 -52.5 -119t-112.5 -42q-73 0 -103 43.5t-21 121.5l14 140q9 77 47.5 123t86.5 46q28 0 42 -13.5t23 -29.5h24q7 93 -24 145.5t-103 52.5
q-84 0 -125 -54.5t-52 -154.5l-36 -346q-11 -104 31 -161.5t153 -57.5q46 0 89 9.5t75 20.5l-8 -74q-30 -10 -76 -19.5t-88 -9.5zM377 182q33 0 53 18.5t26 77.5l14 132q5 51 -12 74.5t-47 23.5q-32 0 -51.5 -23t-25.5 -76l-14 -129q-5 -53 10 -75.5t47 -22.5z" />
    <glyph glyph-name="ampersand" unicode="&#x26;" 
d="M539 -1q-46 17 -89.5 46t-82.5 66q-42 -54 -89.5 -87.5t-101.5 -33.5q-74 0 -113.5 51.5t-29.5 153.5q9 84 50 142t90 89q-14 49 -20 96t-2 88q10 97 54 149t118 52q66 0 100.5 -47.5t27.5 -114.5q-9 -85 -53 -138t-143 -100q6 -19 14 -37t17 -36q16 -35 36.5 -68
t43.5 -61q30 44 57.5 99.5t53.5 118.5l60 -43q-23 -49 -57 -98.5l-84 -120.5l162 -87zM226 604q-3 -34 0.5 -71t13.5 -76q66 34 100 75.5t40 96.5q5 43 -12.5 74.5t-49.5 31.5q-41 0 -63 -34.5t-29 -96.5zM190 66q32 0 66.5 23.5t67.5 65.5q-26 30 -49.5 63.5t-41.5 67.5
q-13 23 -24 46.5t-19 46.5q-34 -31 -55.5 -79t-26.5 -98q-6 -62 15 -99t67 -37z" />
    <glyph glyph-name="section" unicode="&#xa7;" 
d="M282 193q7 -1 15.5 -3.5t14.5 -4.5q43 2 79 27t42 85q5 47 -22.5 69.5t-85.5 37.5q-7 1 -15 3.5t-16 4.5q-41 -1 -77.5 -26.5t-42.5 -85.5q-5 -47 23 -69.5t85 -37.5zM263 -207q-58 0 -109 24t-86 70l48 63q38 -43 74 -64t85 -21q47 0 85 24t44 81q6 63 -30.5 94.5
t-109.5 50.5q-96 20 -137.5 60.5t-35.5 103.5q8 69 42.5 106.5t84.5 53.5q-50 26 -74.5 67t-17.5 104q10 97 72 145.5t146 48.5q58 0 109 -24t87 -70l-49 -67q-39 45 -74.5 67t-84.5 22t-86.5 -27t-42.5 -75q-7 -66 30.5 -97t108.5 -47q97 -24 138.5 -65.5t34.5 -107.5
t-44.5 -101.5t-88.5 -49.5q53 -26 79.5 -67.5t19.5 -107.5q-10 -96 -69.5 -145t-148.5 -49z" />
    <glyph glyph-name="paragraph" unicode="&#xb6;" 
d="M432 340h-85l-57 -540h-82l57 540q-84 -1 -134 49.5t-40 147.5l6 52q11 101 71 156t142 55h253l-105 -1000h-83z" />
    <glyph glyph-name="lsquare" unicode="&#x2113;" 
d="M291 331q19 0 36 4t29 12q14 8 23 21t14 30l60 241q5 21 5.5 39t-5.5 31q-7 14 -21 21.5t-38 7.5q-20 0 -37 -4.5t-30 -13.5q-14 -9 -23 -22.5t-14 -30.5l-64 -244q-5 -22 -4 -39t8 -29q8 -12 23 -18t38 -6zM385 23l-33 -11.5t-34 -9.5q-17 -4 -36 -6.5t-38 -2.5
q-45 0 -79 14t-55 39q-20 26 -25.5 62.5t6.5 80.5l117 463q9 39 28 69t45 50q26 19 56.5 29t64.5 10q42 0 71 -13.5t46 -37.5q16 -25 19 -58.5t-7 -73.5l-55 -220q-9 -40 -28 -69.5t-44 -49.5q-24 -19 -54 -28.5t-63 -9.5q-16 0 -29.5 3t-24.5 9t-20 14.5t-16 19.5l-23 -96
q-7 -30 -4.5 -53t13.5 -39q12 -16 31 -24.5t45 -8.5q14 0 28.5 1.5t31.5 5.5q16 3 34 9t38 14z" />
    <glyph glyph-name="numero" unicode="&#x2116;" 
d="M213 739l-34 -320h-73l40 381h110l202 -299l31 299h73l-40 -381h-99zM344 -16q-61 0 -91 40.5t-22 116.5l5 53q8 77 47 118t100 41t91 -41t22 -118l-5 -53q-8 -76 -47 -116.5t-100 -40.5zM352 53q31 0 49 19.5t23 65.5l6 59q5 46 -9 68t-45 22t-49 -22t-23 -68l-6 -59
q-5 -46 9 -65.5t45 -19.5z" />
    <glyph glyph-name="periodcentered" unicode="&#x2219;" 
d="M303 303q-41 0 -64.5 20.5t-18.5 68.5l1 11q6 49 33.5 70t68.5 21t64 -21t17 -70l-1 -11q-5 -48 -32.5 -68.5t-67.5 -20.5z" />
    <glyph glyph-name="periodcentered" unicode="&#xb7;" 
d="M303 303q-41 0 -64.5 20.5t-18.5 68.5l1 11q6 49 33.5 70t68.5 21t64 -21t17 -70l-1 -11q-5 -48 -32.5 -68.5t-67.5 -20.5z" />
    <glyph glyph-name="bullet" unicode="&#x2022;" 
d="M296 236q-63 0 -99 30.5t-29 95.5l8 72q7 66 49 97.5t105 31.5t98.5 -31.5t28.5 -97.5l-8 -72q-7 -65 -49.5 -95.5t-103.5 -30.5z" />
    <glyph glyph-name="anoteleia" unicode="&#x387;" 
d="M313 303q-41 0 -64.5 20.5t-18.5 68.5l1 11q6 49 33.5 70t68.5 21t64 -21t17 -70l-1 -11q-5 -48 -32.5 -68.5t-67.5 -20.5z" />
    <glyph glyph-name="underscoredbl" unicode="&#x2017;" 
d="M16 0l8 80h466l-8 -80h-466zM16 -178l8 80h466l-8 -80h-466z" />
    <glyph glyph-name="minute" unicode="&#x2032;" 
d="M191 414l132 386h164l-227 -386h-69z" />
    <glyph glyph-name="second" unicode="&#x2033;" 
d="M235 414l133 386h156l-227 -386h-62zM-17 414l134 386h155l-228 -386h-61z" />
    <glyph glyph-name="overline" unicode="&#x203e;" 
d="M16 917l8 80h466l-8 -80h-466z" />
    <glyph glyph-name="plus" unicode="+" 
d="M234 43l27 266h-192l9 82h192l28 266h82l-28 -266h192l-9 -82h-192l-27 -266h-82z" />
    <glyph glyph-name="minus" unicode="&#x2212;" 
d="M69 309l9 82h466l-9 -82h-466z" />
    <glyph glyph-name="plusminus" unicode="&#xb1;" 
d="M234 143l27 266h-192l9 82h192l28 266h82l-28 -266h192l-9 -82h-192l-27 -266h-82zM69 2l9 82h466l-9 -82h-466z" />
    <glyph glyph-name="divide" unicode="&#xf7;" 
d="M326 530q-31 0 -49.5 14.5t-15.5 45.5l2 17q3 31 24.5 46.5t52.5 15.5t49 -15.5t15 -46.5l-2 -17q-3 -31 -24 -45.5t-52 -14.5zM69 306l9 88h466l-9 -88h-466zM273 30q-31 0 -49.5 14.5t-15.5 45.5l2 17q4 31 25.5 46.5t52.5 15.5t49 -15.5t14 -46.5l-2 -17
q-3 -31 -24 -45.5t-52 -14.5z" />
    <glyph glyph-name="multiply" unicode="&#xd7;" 
d="M98 58l-49 47l207 245l-155 247l58 45l153 -240l203 233l49 -46l-206 -239l156 -239l-59 -46l-154 233z" />
    <glyph glyph-name="equal" unicode="=" 
d="M82 427l9 83h466l-9 -83h-466zM57 190l9 83h466l-9 -83h-466z" />
    <glyph glyph-name="less" unicode="&#x3c;" 
d="M482 26l-388 288l8 72l448 288l-8 -78l-383 -246l331 -246z" />
    <glyph glyph-name="greater" unicode="&#x3e;" 
d="M64 26l8 80l379 244l-328 244l9 80l388 -286l-8 -76z" />
    <glyph glyph-name="lessequal" unicode="&#x2264;" 
d="M500 200l-390 264l7 72l446 264l-8 -77l-375 -223l328 -223zM61 0l8 77h418l-8 -77h-418z" />
    <glyph glyph-name="greaterequal" unicode="&#x2265;" 
d="M82 200l8 77l376 223l-329 223l8 77l390 -264l-8 -72zM479 0h-418l8 77h418z" />
    <glyph glyph-name="approxequal" unicode="&#x2248;" 
d="M415 393q-21 0 -37.5 6t-30.5 20q-14 13 -25 34t-22 52q-13 40 -22 62t-17 33q-8 10 -16.5 13.5t-22.5 3.5q-12 0 -22.5 -7t-18.5 -21q-10 -15 -16.5 -39t-9.5 -57l-11 -99h-75l11 105q6 49 19.5 86.5t35.5 63.5t49 39t58 13q21 0 37.5 -6t29.5 -19q14 -14 25 -35t22 -51
q13 -40 22 -62t17 -33q8 -10 16 -13.5t22 -3.5q12 0 23 6.5t19 21.5q9 15 15.5 38.5t9.5 57.5l11 98h75l-11 -105q-6 -48 -19.5 -86t-34.5 -64q-22 -26 -49 -39t-57 -13zM373 -7q-21 0 -37.5 6t-30.5 20q-14 13 -25 34t-22 52q-13 40 -22 62t-17 33q-8 10 -16 13.5t-22 3.5
q-12 0 -23 -7t-19 -21q-10 -15 -16.5 -39t-9.5 -57l-11 -99h-75l11 105q6 49 19.5 86.5t35.5 63.5t49 39t58 13q21 0 37.5 -6t29.5 -19q14 -14 25 -35t22 -51q13 -40 22 -62t17 -33q8 -10 16 -13.5t22 -3.5q12 0 23 6.5t19 21.5q9 15 15.5 38.5t9.5 57.5l11 98h75l-12 -105
q-5 -48 -19 -86t-34 -64q-22 -26 -49 -39t-57 -13z" />
    <glyph glyph-name="notequal" unicode="&#x2260;" 
d="M524 197h-235l-62 -197h-81l61 197h-149l9 86h168l72 234h-216l9 86h235l62 197h81l-61 -197h149l-9 -86h-168l-72 -234h216z" />
    <glyph glyph-name="logicalnot" unicode="&#xac;" 
d="M422 0l32 309h-385l9 82h466l-41 -391h-81z" />
    <glyph glyph-name="uni23af" unicode="&#x23af;" 
d="M-20 364v72h664v-72h-664z" />
    <glyph glyph-name="arrowleft" unicode="&#x2190;" 
d="M293 89l-273 301v20l273 301h17v-275h294v-72h-294v-275h-17z" />
    <glyph glyph-name="arrowup" unicode="&#x2191;" 
d="M272 14v450h-231v20l263 302h16l263 -302v-20h-231v-450h-80z" />
    <glyph glyph-name="arrowright" unicode="&#x2192;" 
d="M314 89v275h-294v72h294v275h17l273 -301v-20l-273 -301h-17z" />
    <glyph glyph-name="arrowdown" unicode="&#x2193;" 
d="M304 18l-261 301v20h229v450h80v-450h230v-20l-262 -301h-16z" />
    <glyph glyph-name="arrowboth" unicode="&#x2194;" 
d="M254 364v-275h-17l-217 301v20l217 301h17v-275h116v275h17l217 -301v-20l-217 -301h-17v275h-116z" />
    <glyph glyph-name="partialdiff" unicode="&#x2202;" 
d="M266 -10q-48 0 -86 14t-62 41q-25 28 -33.5 70t1.5 97l12 77q9 46 28.5 83t48.5 64q28 26 65 39.5t80 13.5q26 0 48.5 -5.5t40.5 -15.5q17 -10 28 -23.5t15 -28.5h18q8 66 1.5 116.5t-29.5 88.5q-24 39 -67.5 68t-111.5 51l41 63q82 -27 134.5 -63.5t79.5 -87.5
q26 -51 30 -120t-12 -162l-26 -152q-11 -59 -32.5 -102t-52.5 -71t-71 -41.5t-88 -13.5zM274 63q35 0 61 9.5t44 27.5q18 19 29.5 47t18.5 66l11 61q5 36 2 62t-15 43q-12 18 -35 26.5t-58 8.5t-61.5 -8.5t-44.5 -25.5q-18 -18 -29 -44t-16 -62l-11 -61q-7 -38 -4.5 -66
t14.5 -46q12 -19 35.5 -28.5t58.5 -9.5z" />
    <glyph glyph-name="Delta#1" unicode="&#x2206;" 
d="M11 0l8 72l290 728h81l147 -728l-8 -72h-518zM459 72l-117 626l-248 -626h365z" />
    <glyph glyph-name="product" unicode="&#x220f;" 
d="M42 -200l105 1000h414l-105 -1000h-80l98 928h-254l-98 -928h-80z" />
    <glyph glyph-name="summation" unicode="&#x2211;" 
d="M483 -128l-8 -72h-460l8 72l353 441l-263 415l7 72h460l-7 -72h-373l242 -379l-7 -66l-335 -411h383z" />
    <glyph glyph-name="mu1" unicode="&#xb5;" 
d="M135 20l-14 -220h-97l31 220l61 580h80l-43 -410q-7 -66 19.5 -94.5t68.5 -28.5q38 0 69 23.5t61 63.5l47 446h80l-47 -452q-6 -54 12 -69.5t65 -3.5l-9 -80q-62 -9 -91.5 18.5t-26.5 94.5h-16q-31 -56 -70.5 -87.5t-89.5 -31.5q-28 0 -50.5 12.5t-37.5 37.5z" />
    <glyph glyph-name="radical" unicode="&#x221a;" 
d="M261 0l-102 423l-95 -20l7 67l144 30l98 -456l248 856h76l-276 -900h-100z" />
    <glyph glyph-name="infinity" unicode="&#x221e;" 
d="M163 123q-26 0 -47.5 18t-36.5 54q-14 36 -19 88t2 118t23 118t39 87q22 35 48.5 53t54.5 18q22 0 38.5 -11.5t27.5 -34.5q13 -23 21 -57t13 -79q18 47 34 81t32 56q16 23 33.5 34t36.5 11q26 0 47 -18t36 -54q14 -35 18.5 -87t-2.5 -118t-23 -118t-39 -88
q-22 -35 -49.5 -53t-56.5 -18q-20 0 -35.5 11.5t-26.5 33.5t-19.5 54t-15.5 76q-17 -46 -32.5 -78.5t-31.5 -53.5q-16 -22 -33 -32.5t-37 -10.5zM404 188q13 0 25.5 12t23.5 37q12 26 20.5 68t15.5 100q4 56 4 96t-7 64q-5 25 -15 36t-23 11q-15 0 -28.5 -15.5t-25.5 -42.5
q-13 -27 -24 -57.5l-29 -84.5q7 -68 12.5 -107t11.5 -65q6 -27 15.5 -39.5t23.5 -12.5zM177 188q14 0 27 15t26 41q12 26 22 52t31 86q-7 71 -12.5 111t-12.5 66q-6 27 -15.5 40t-22.5 13t-25.5 -12t-23.5 -37q-12 -26 -20.5 -68t-14.5 -100q-6 -55 -5.5 -95t7.5 -65
q5 -24 15.5 -35.5t23.5 -11.5z" />
    <glyph glyph-name="orthogonal" unicode="&#x221f;" 
d="M61 0l74 700h80l-67 -630h355l-7 -70h-435z" />
    <glyph glyph-name="intersection" unicode="&#x2229;" 
d="M62 0l46 441q7 66 26.5 116.5t49.5 84.5q31 34 71.5 51t89.5 17t85.5 -17t59.5 -51q24 -34 32.5 -84.5t1.5 -116.5l-46 -441h-80l47 446q5 52 1 88.5t-18 59.5q-13 23 -36 33.5t-55 10.5q-33 0 -57.5 -10.5t-43.5 -33.5q-18 -23 -30 -59.5t-17 -88.5l-47 -446h-80z" />
    <glyph glyph-name="integral" unicode="&#x222b;" 
d="M133 -206q-15 0 -30.5 1.5t-30.5 4.5q-16 3 -29.5 7.5t-23.5 10.5l25 75q11 -6 22.5 -10t23.5 -6q11 -3 21.5 -4t20.5 -1q26 0 43 8t28 26q12 18 18.5 47.5t11.5 76.5l59 564q5 48 20.5 86.5t37.5 65.5q24 27 53.5 41t63.5 14q15 0 31.5 -1.5t31.5 -4.5t29 -7.5t25 -10.5
l-25 -74q-10 6 -21.5 10t-22.5 6q-12 2 -23 3t-22 1q-25 0 -42.5 -8t-28.5 -27q-11 -18 -18 -47.5t-12 -75.5l-59 -563q-5 -47 -20 -86t-39 -66t-54 -41.5t-64 -14.5z" />
    <glyph glyph-name="equivalence" unicode="&#x2261;" 
d="M89 494l9 83h466l-9 -83h-466zM70 311l8 83h466l-8 -83h-466zM51 129l8 82h466l-8 -82h-466z" />
    <glyph glyph-name="integralbt" unicode="&#x2321;" 
d="M134 -206q-12 0 -27.5 1.5t-32.5 4.5t-32 7.5t-25 10.5l25 75q11 -6 22.5 -10t23.5 -6q11 -3 21.5 -4t20.5 -1q27 0 44.5 9.5t28.5 30.5q11 20 18 52t12 82l79 754h80l-82 -783q-6 -52 -21.5 -93.5t-38.5 -70.5q-24 -29 -53.5 -44t-62.5 -15z" />
    <glyph glyph-name="dollar" unicode="$" 
d="M196 577q-5 -46 14.5 -74.5t82.5 -53.5l24 230q-55 -2 -85.5 -24.5t-35.5 -77.5zM432 225q4 46 -16.5 73.5t-84.5 53.5l-25 -239q52 1 86 28.5t40 83.5zM298 -50h-66l10 98q-49 4 -94.5 20t-75.5 44l31 67q32 -27 74 -43t81 -20l27 253q-99 35 -134 81.5t-27 121.5
q9 88 58 131.5t134 48.5l10 98h66l-10 -100q43 -4 83.5 -18t66.5 -34l-32 -71q-29 19 -64 32t-71 17l-26 -244q100 -38 136.5 -83t28.5 -116q-8 -85 -59 -133t-137 -54z" />
    <glyph glyph-name="cent" unicode="&#xa2;" 
d="M176 313q-7 -70 16 -105t80 -41l49 467q-58 -5 -88.5 -40t-38.5 -107zM241 -50l15 142q-97 8 -133.5 68t-25.5 167l16 150q11 103 60.5 163t146.5 68l15 142h65l-14 -141q86 -6 122.5 -57.5t30.5 -154.5l-75 -3q5 78 -17 108.5t-77 32.5l-50 -469q57 1 84.5 28t38.5 102
l75 -3q-17 -100 -64 -148t-133 -54l-15 -141h-65z" />
    <glyph glyph-name="sterling" unicode="&#xa3;" 
d="M532 199q-17 -102 -66 -155.5t-121 -53.5q-23 0 -49 12t-65 37q-30 19 -52.5 23t-45.5 -11l-83 -60l-40 61l72 45q34 22 61 77.5t33 106.5q3 37 0 64t-10 49h-114l10 87h73q-8 24 -11.5 54t1.5 73q9 91 67 146.5t155 55.5q104 0 152 -48t42 -155l-82 -10
q4 84 -22.5 113.5t-96.5 29.5q-60 0 -93.5 -33.5t-40.5 -100.5q-5 -40 2 -69.5t18 -55.5h173l-10 -87h-134q5 -22 6.5 -48t-2.5 -57q-4 -41 -25.5 -86t-66.5 -84l9 -10q24 18 45.5 16.5t47.5 -17.5q21 -12 41 -26t45 -14q40 0 61.5 29.5t35.5 111.5z" />
    <glyph glyph-name="currency" unicode="&#xa4;" 
d="M287 162q51 0 80 32t37 106l20 194q8 74 -14 109t-73 35t-80 -35t-37 -109l-20 -194q-8 -74 14 -106t73 -32zM279 90q-43 0 -76 13.5t-53 41.5l-78 -83l-46 57l94 101q-2 17 -2.5 37.5t2.5 42.5l20 194q2 24 7 45.5t12 40.5l-74 101l58 57l61 -85q28 29 64 43t78 14
q43 0 76 -14.5t53 -43.5l77 81l46 -57l-94 -99q2 -18 2.5 -39t-1.5 -44l-20 -194q-3 -22 -7.5 -42t-10.5 -37l73 -97l-58 -57l-60 79q-27 -28 -63.5 -42t-79.5 -14z" />
    <glyph glyph-name="yen" unicode="&#xa5;" 
d="M488 100h-167l-11 -100h-79l11 100h-167l9 87h167l12 113h-167l9 87h124l-157 413h88l148 -452l241 452h87l-243 -413h125l-9 -87h-167l-12 -113h167z" />
    <glyph glyph-name="franc" unicode="&#x20a3;" 
d="M332 213h-168l-22 -213h-81l22 213h-83l9 82h83l53 505h434l-7 -72h-353l-25 -237h294l-8 -72h-294l-13 -124h168z" />
    <glyph glyph-name="lira" unicode="&#x20a4;" 
d="M559 199q-8 -51 -25.5 -90t-41.5 -66q-25 -26 -58 -39.5t-72 -13.5q-18 0 -36 4.5t-35 12.5q-16 8 -10 4.5t-58 32.5q-17 9 -31 14.5t-29 7.5q-14 1 -28.5 -2t-27.5 -13l-83 -60l-40 61l72 45q16 11 32 31.5t28 46.5q14 26 22.5 53.5t11.5 53.5v5.5t1 4.5q0 2 -0.5 4.5
t0.5 4.5h-134l7 74h120q-1 6 -3 11.5t-3 10.5q-3 6 -4.5 10.5t-4.5 11.5q-1 5 -6 16.5t-7 19.5q-3 8 -6 17.5t-5 18.5h-68l7 74h51q1 6 1 11t1 10q-1 6 -0.5 11.5t1.5 11.5q5 45 24.5 82.5t50.5 63.5q33 27 78 41t100 14q62 0 105 -12.5t68 -38.5q26 -25 36.5 -63t7.5 -89
l-82 -10q1 39 -6 65t-23 41q-17 16 -44.5 22.5t-69.5 6.5q-40 0 -69.5 -8.5t-50.5 -24.5q-19 -17 -30 -40t-14 -52q-1 -6 -1.5 -11.5t-0.5 -10.5t0.5 -10t0.5 -10h236l-7 -74h-212q1 -4 2.5 -8.5t4.5 -10.5l3.5 -10.5t3.5 -8.5q4 -10 7 -19t6 -19q3 -9 5.5 -19t3.5 -21h163
l-7 -74h-151q-4 -31 -9 -50.5t-15 -41.5t-28 -45t-43 -45l8 -10q15 10 29 14t29 3q14 -1 27.5 -5t29.5 -11l28.5 -14.5t30.5 -14.5q11 -5 23.5 -9t24.5 -4q25 0 43 7.5t30 24.5q11 16 19.5 42.5t15.5 66.5z" />
    <glyph glyph-name="peseta" unicode="&#x20a7;" 
d="M106 352h26q8 0 14.5 4.5t11.5 15.5q6 10 10 28t7 43l20 192q2 25 2 43t-4 28q-3 11 -8.5 15.5t-13.5 4.5h-26zM562 151q-4 -40 -16 -70t-29 -51q-18 -20 -39.5 -30t-46.5 -10q-7 0 -13.5 0.5t-12.5 2.5q-7 1 -12.5 3.5l-11.5 5.5q-7 -3 -14.5 -5t-13.5 -3
q-7 -2 -13 -2.5t-13 -0.5q-18 0 -32 8.5t-23 27.5q-10 19 -13 49t1 71l40 379h-51l-9 -85q-4 -45 -15 -76.5t-26 -49.5q-15 -19 -34 -27t-42 -8h-26l-29 -280h-65l84 800h92q22 0 39 -8t28 -27q13 -18 16.5 -49.5t-1.5 -76.5l-4 -39h51l21 200h66l-21 -200h66l-5 -49
q7 14 17 25.5t21 18.5q10 8 22 11.5t24 3.5q13 0 24 -2.5t21 -7.5q11 -5 21 -13t21 -19l-45 -66q-8 9 -14 14.5t-12 9.5q-5 3 -10.5 5t-12.5 2t-13.5 -4.5t-11.5 -13.5t-9 -23.5t-6 -35.5t1 -39t9 -34q7 -16 14.5 -29l21.5 -36q12 -20 20.5 -36t14.5 -36q7 -19 9.5 -43
t-0.5 -52zM439 67q11 0 20 4t17 13t13 24t7 36q2 17 -1.5 33.5t-9.5 32.5q-7 15 -6 14.5t-30 52.5q-12 20 -20 37.5t-15 37.5q-6 21 -8.5 45t0.5 52q1 11 3 21.5t4 19.5q2 10 4.5 19t5.5 17h-57l-41 -393q-2 -16 -1.5 -28t2.5 -20t5 -12t8 -4q4 0 8 0.5t9 1.5q5 2 10 3.5
t11 4.5v0l13 19l14 -14t11 -9q5 -4 11 -6t13 -2z" />
    <glyph glyph-name="Euro" unicode="&#x20ac;" 
d="M299 -10q-112 0 -158.5 70t-32.5 202v7h-85l8 75h85l12 110h-85l8 75h85v5q14 134 76 205t174 71q107 0 151 -50t39 -151l-82 -10q3 73 -20 106t-95 33q-80 0 -116 -48t-47 -153v-8h168l-8 -75h-167l-12 -110h167l-8 -75h-168l-1 -10q-11 -104 15 -150.5t105 -46.5
q72 0 102 31.5t43 103.5l80 -10q-17 -99 -71 -148t-162 -49z" />
    <glyph glyph-name="florin" unicode="&#x192;" 
d="M161 -6q-13 0 -29.5 1.5t-33.5 4.5t-32.5 7.5t-25.5 10.5l25 75q11 -6 22.5 -10t23.5 -6q11 -3 21.5 -4t20.5 -1q26 0 43 6t27 18q10 13 16.5 33.5t9.5 51.5l25 235h-176l8 75h176l15 151q4 36 18 65.5t38 50.5q22 21 50.5 32t59.5 11q13 0 29.5 -1.5t33.5 -4.5t32 -7.5
t26 -10.5l-25 -74q-11 6 -23.5 10t-22.5 6q-12 2 -22.5 3t-20.5 1q-25 0 -41.5 -6t-28.5 -18q-10 -13 -16 -33.5t-9 -51.5l-13 -123h185l-8 -75h-185l-28 -263q-4 -36 -18 -66t-36 -50q-22 -21 -51 -32t-60 -11z" />
    <glyph glyph-name="asciicircum" unicode="^" 
d="M471 200l-126 500l-225 -500h-78l272 600h80l155 -600h-78z" />
    <glyph glyph-name="asciitilde" unicode="~" 
d="M405 224q-49 0 -77 30t-49 111q-21 87 -34 110t-35 23q-28 0 -44 -23.5t-22 -82.5l-16 -158h-75l17 164q8 80 51 129t99 49q50 0 77 -30t49 -112q19 -87 32 -109.5t36 -22.5q25 0 43 29.5t24 89.5l16 151h75l-16 -158q-10 -86 -52 -138t-99 -52z" />
    <glyph glyph-name="acute" unicode="&#xb4;" 
d="M250 700l135 200h122l-183 -200h-74z" />
    <glyph glyph-name="grave" unicode="`" 
d="M352 414l-147 386h163l52 -386h-68z" />
    <glyph glyph-name="hungarumlaut" unicode="&#x2dd;" 
d="M409 700l68 200h115l-125 -200h-58zM217 700l68 200h115l-125 -200h-58z" />
    <glyph glyph-name="circumflex" unicode="&#x2c6;" 
d="M201 718l-32 50l168 146h57l139 -146l-45 -51l-132 112z" />
    <glyph glyph-name="caron" unicode="&#x2c7;" 
d="M316 704l-139 146l45 50l132 -110l155 110l32 -50l-168 -146h-57z" />
    <glyph glyph-name="breve" unicode="&#x2d8;" 
d="M343 693q-87 0 -134.5 48.5t-37.5 152.5h82q-7 -72 17.5 -102.5t79.5 -30.5t85.5 30.5t39.5 102.5h82q-12 -104 -69.5 -152.5t-144.5 -48.5z" />
    <glyph glyph-name="tilde" unicode="&#x2dc;" 
d="M410 710q-32 0 -49.5 19.5t-29.5 41.5l-21 41t-26 19q-19 0 -31.5 -24t-16.5 -78l-1 -9h-63l1 15q8 72 41 120.5t86 48.5q35 0 53.5 -19.5t29.5 -40.5l18.5 -41t23.5 -19q18 0 31 23.5t19 77.5l1 10h62l-2 -15q-7 -74 -40 -122t-86 -48z" />
    <glyph glyph-name="macron" unicode="&#x2c9;" 
d="M184 764l8 72h332l-8 -72h-332z" />
    <glyph glyph-name="macron" unicode="&#xaf;" 
d="M184 764l8 72h332l-8 -72h-332z" />
    <glyph glyph-name="dieresis" unicode="&#xa8;" 
d="M249 716q-24 0 -37.5 10.5t-9.5 40.5v5q3 31 19 42t40 11q25 0 37.5 -11t9.5 -42v-5q-4 -30 -19.5 -40.5t-39.5 -10.5zM441 716q-25 0 -38 10.5t-9 40.5v5q3 31 18.5 42t40.5 11q23 0 36.5 -11t10.5 -42v-5q-4 -30 -20 -40.5t-39 -10.5z" />
    <glyph glyph-name="dotaccent" unicode="&#x2d9;" 
d="M345 716q-31 0 -49.5 10.5t-14.5 40.5v5q3 31 24 42t52 11t49 -11t15 -42v-5q-4 -30 -24.5 -40.5t-51.5 -10.5z" />
    <glyph glyph-name="ring" unicode="&#x2da;" 
d="M342 688q-59 0 -91.5 35t-25.5 107l4 32q7 73 47.5 109t99.5 36q60 0 92 -36t25 -109l-4 -32q-7 -72 -47.5 -107t-99.5 -35zM349 753q34 0 53.5 17.5t23.5 59.5l4 32q4 41 -11.5 60.5t-49.5 19.5t-53.5 -19.5t-23.5 -60.5l-4 -32q-4 -42 11.5 -59.5t49.5 -17.5z" />
    <glyph glyph-name="cedilla" unicode="&#xb8;" 
d="M245 0l20 42q43 -10 68.5 -43t19.5 -90q-6 -63 -47 -92.5t-85 -29.5q-53 0 -85 21.5t-30 75.5l72 10q-1 -19 9.5 -26.5t36.5 -7.5q25 0 39.5 13t18.5 47q3 37 -5 54.5t-32 25.5z" />
    <glyph glyph-name="ogonek" unicode="&#x2db;" 
d="M295 -213q-52 0 -85 31.5t-27 85.5q5 44 40.5 80t74.5 54l20 -15q-32 -22 -45 -49t-15 -46q-3 -28 11.5 -43.5t42.5 -15.5q15 0 38.5 3.5t36.5 6.5l-8 -82q-17 -4 -41 -7t-43 -3z" />
    <glyph glyph-name="tonos" unicode="&#x384;" 
d="M283 700l85 200h114l-133 -200h-66z" />
    <glyph glyph-name="dieresistonos" unicode="&#x385;" 
d="M291 700l60 200h98l-108 -200h-50zM200 703q-20 0 -31.5 10.5t-8.5 41.5l1 4q3 31 16.5 42t33.5 11t31 -11t8 -42l-1 -4q-3 -31 -16.5 -41.5t-32.5 -10.5zM488 703q-20 0 -31 10.5t-8 41.5l1 4q3 31 16 42t33 11t31.5 -11t8.5 -42l-1 -4q-3 -31 -17 -41.5t-33 -10.5z" />
    <glyph glyph-name="copyright" unicode="&#xa9;" 
d="M312 -110q-145 0 -210 96.5t-65 270.5v222q0 175 65.5 273t210.5 98q144 0 209.5 -98t65.5 -273v-222q0 -174 -65.5 -270.5t-210.5 -96.5zM312 -48q120 0 165 82.5t45 233.5v199q0 150 -45 235.5t-165 85.5q-119 0 -164 -85.5t-45 -235.5v-198q0 -152 45 -234.5
t164 -82.5zM319 109q-69 0 -99 46.5t-30 132.5v166q0 85 30.5 131t98.5 46q59 0 86 -40t31 -124l-67 -6q-4 58 -14 78t-37 20q-28 0 -41 -21.5t-13 -71.5v-192q0 -49 13.5 -71t42.5 -22q25 0 35 17.5t14 72.5l67 -6q-4 -81 -31 -118.5t-86 -37.5z" />
    <glyph glyph-name="registered" unicode="&#xae;" 
d="M312 144q-122 0 -177.5 75.5t-55.5 194.5v173q0 121 55.5 197t178.5 76q122 0 177 -76t55 -197v-173q0 -119 -55.5 -194.5t-177.5 -75.5zM312 197q99 0 137 60t38 170v147q0 108 -38 171t-137 63t-137 -63t-38 -171v-147q0 -110 38 -170t137 -60zM267 499h53q18 0 29 9
t11 34v28q0 30 -11 41.5t-29 11.5h-53v-124zM267 334h-52v341h105q43 0 68 -27.5t25 -76.5v-28q0 -35 -14.5 -59.5t-40.5 -32.5l60 -117h-60l-55 111h-36v-111z" />
    <glyph glyph-name="trademark" unicode="&#x2122;" 
d="M106 351v384h-77v65h210v-65h-69v-384h-64zM337 725l1 -374h-59v449h95l49 -196l55 196h84v-449h-58l1 368l-63 -231h-42z" />
    <glyph glyph-name="degree" unicode="&#xb0;" 
d="M312 355q-74 0 -120 42.5t-46 131.5v100q0 89 46 133t120 44q75 0 120.5 -44t45.5 -133v-100q0 -89 -45.5 -131.5t-120.5 -42.5zM312 430q44 0 66.5 21t22.5 72v112q0 49 -22.5 72t-66.5 23q-45 0 -66.5 -23t-21.5 -72v-112q0 -51 21.5 -72t66.5 -21z" />
    <glyph glyph-name="careof" unicode="&#x2105;" 
d="M275 595l79 -8q-4 -32 -16.5 -56t-31.5 -40q-21 -16 -48 -23.5t-59 -7.5t-56.5 9.5t-40.5 28.5t-22.5 49t-2.5 69l5 54q4 37 17 65.5t33 47.5q21 19 47.5 28t57.5 9q32 0 57.5 -7.5t42.5 -22.5t24.5 -37.5t4.5 -52.5l-81 -7q1 15 -1.5 26t-10.5 18q-7 7 -17.5 10.5
t-25.5 3.5q-14 0 -26 -5t-21 -14q-9 -10 -15 -25t-8 -35l-6 -56q-3 -22 0 -38t10 -27q7 -10 17.5 -15t25.5 -5t26.5 3.5t19.5 11.5q9 8 14.5 20t7.5 29zM14 234l569 384l29 -53l-570 -384zM387 -22q-32 0 -56.5 9t-42.5 27q-16 19 -23 47t-3 65l7 62q4 38 17 66t34 47
q20 19 47 28t58 9q32 0 56.5 -9t40.5 -28t22.5 -47t2.5 -66l-7 -62q-4 -37 -16.5 -65t-33.5 -47q-19 -18 -45.5 -27t-57.5 -9zM394 49q14 0 26 4.5t21 13.5q9 10 14.5 24.5t7.5 34.5l7 64q2 20 -0.5 35t-9.5 25q-7 9 -18 14t-25 5t-26 -5t-21 -14q-9 -10 -15 -25t-8 -35
l-7 -64q-2 -20 1 -34.5t10 -24.5q7 -9 18 -13.5t25 -4.5z" />
    <glyph glyph-name="uni2117" unicode="&#x2117;" 
d="M312 -110q-140 0 -203.5 96.5t-63.5 270.5v222q0 175 64 273t204 98t203 -98t63 -273v-222q0 -174 -63.5 -270.5t-203.5 -96.5zM312 -48q115 0 158 82.5t43 233.5v199q0 150 -43 235.5t-158 85.5q-114 0 -157 -85.5t-43 -235.5v-198q0 -152 43 -234.5t157 -82.5zM203 130
v488h120q65 0 99 -40.5t34 -118.5v-36q0 -71 -34 -108t-100 -37h-46v-148h-73zM276 349h46q33 0 47 18t14 56v36q0 44 -14 65t-47 21h-46v-196z" />
    <glyph glyph-name="estimated" unicode="&#x212e;" 
d="M308 -12q-117 0 -191 113t-74 301q0 189 74.5 301t193.5 112q116 0 190 -126t78 -339h-382v-236q23 -24 51.5 -38t59.5 -14q60 0 109 31t77 83l40 -52q-34 -62 -94 -99t-132 -37zM197 430h225v254q-23 25 -49.5 41t-63.5 16q-35 0 -63 -14.5t-49 -39.5v-257z" />
    <glyph glyph-name="arrowupdn" unicode="&#x2195;" 
d="M320 -86h-16l-263 316v20h231v300h-231v20l263 316h16l263 -316v-20h-231v-300h231v-20z" />
    <glyph glyph-name="arrowupdnbse" unicode="&#x21a8;" 
d="M69 -184l9 82h466l-9 -82h-466zM320 -86h-16l-263 316v20h231v300h-231v20l263 316h16l263 -316v-20h-231v-300h231v-20z" />
    <glyph glyph-name="logicalnotreversed" unicode="&#x2310;" 
d="M38 0l41 391h464l-9 -82h-382l-32 -309h-82z" />
    <glyph glyph-name="lighthorzbxd" unicode="&#x2500;" 
d="M-20 342h664v-84h-664v84z" />
    <glyph glyph-name="heavyhorzbxd" unicode="&#x2501;" 
d="M-20 384h664v-168h-664v168z" />
    <glyph glyph-name="lightvertbxd" unicode="&#x2502;" 
d="M270 1050h84v-1500h-84v1500z" />
    <glyph glyph-name="heavyvertbxd" unicode="&#x2503;" 
d="M228 1050h168v-1500h-168v1500z" />
    <glyph glyph-name="lighttrpldashhorzbxd" unicode="&#x2504;" 
d="M34 342h139v-84h-139v84zM242 342h139v-84h-139v84zM450 342h139v-84h-139v84z" />
    <glyph glyph-name="heavytrpldashhorzbxd" unicode="&#x2505;" 
d="M34 384h139v-168h-139v168zM242 384h139v-168h-139v168zM450 384h139v-168h-139v168z" />
    <glyph glyph-name="lighttrpldashvertbxd" unicode="&#x2506;" 
d="M270 55h84v-244h-84v244zM270 421h84v-244h-84v244zM270 787h84v-244h-84v244zM270 1153h84v-244h-84v244z" />
    <glyph glyph-name="heavytrpldashvertbxd" unicode="&#x2507;" 
d="M228 55h168v-244h-168v244zM228 421h168v-244h-168v244zM228 787h168v-244h-168v244zM228 1153h168v-244h-168v244z" />
    <glyph glyph-name="lightquaddashhorzbxd" unicode="&#x2508;" 
d="M19 342h117v-84h-117v84zM175 342h117v-84h-117v84zM331 342h117v-84h-117v84zM487 342h117v-84h-117v84z" />
    <glyph glyph-name="heavyquaddashhorzbxd" unicode="&#x2509;" 
d="M19 384h117v-168h-117v168zM175 384h117v-168h-117v168zM331 384h117v-168h-117v168zM487 384h117v-168h-117v168z" />
    <glyph glyph-name="lightquaddashvertbxd" unicode="&#x250a;" 
d="M270 -9h84v-207h-84v207zM270 266h84v-207h-84v207zM270 541h84v-207h-84v207zM270 816h84v-207h-84v207z" />
    <glyph glyph-name="heavyquaddashvertbxd" unicode="&#x250b;" 
d="M228 -9h168v-207h-168v207zM228 266h168v-207h-168v207zM228 541h168v-207h-168v207zM228 816h168v-207h-168v207z" />
    <glyph glyph-name="lightdnrightbxd" unicode="&#x250c;" 
d="M270 342h374v-84h-290v-708h-84v792z" />
    <glyph glyph-name="dnlightrightheavybxd" unicode="&#x250d;" 
d="M270 384h374v-168h-290v-666h-84v834z" />
    <glyph glyph-name="dnheavyrightlightbxd" unicode="&#x250e;" 
d="M228 342h416v-84h-248v-708h-168v792z" />
    <glyph glyph-name="heavydnrightbxd" unicode="&#x250f;" 
d="M228 384h416v-168h-248v-666h-168v834z" />
    <glyph glyph-name="lightdnleftbxd" unicode="&#x2510;" 
d="M-20 342h374v-792h-84v708h-290v84z" />
    <glyph glyph-name="dnlightleftheavybxd" unicode="&#x2511;" 
d="M-20 384h374v-834h-84v666h-290v168z" />
    <glyph glyph-name="dnheavyleftlightbxd" unicode="&#x2512;" 
d="M-20 342h416v-792h-168v708h-248v84z" />
    <glyph glyph-name="heavydnleftbxd" unicode="&#x2513;" 
d="M-20 384h416v-834h-168v666h-248v168z" />
    <glyph glyph-name="lightuprightbxd" unicode="&#x2514;" 
d="M270 1050h84v-708h290v-84h-374v792z" />
    <glyph glyph-name="uplightrightheavybxd" unicode="&#x2515;" 
d="M270 1050h84v-666h290v-168h-374v834z" />
    <glyph glyph-name="upheavyrightlightbxd" unicode="&#x2516;" 
d="M228 1050h168v-708h248v-84h-416v792z" />
    <glyph glyph-name="heavyuprightbxd" unicode="&#x2517;" 
d="M228 1050h168v-666h248v-168h-416v834z" />
    <glyph glyph-name="lightupleftbxd" unicode="&#x2518;" 
d="M-20 342h290v708h84v-792h-374v84z" />
    <glyph glyph-name="uplightleftheavybxd" unicode="&#x2519;" 
d="M-20 384h290v666h84v-834h-374v168z" />
    <glyph glyph-name="upheavyleftlightbxd" unicode="&#x251a;" 
d="M-20 342h248v708h168v-792h-416v84z" />
    <glyph glyph-name="heavyupleftbxd" unicode="&#x251b;" 
d="M-20 384h248v666h168v-834h-416v168z" />
    <glyph glyph-name="lightvertrightbxd" unicode="&#x251c;" 
d="M270 1050h84v-708h290v-84h-290v-708h-84v1500z" />
    <glyph glyph-name="vertlightrightheavybxd" unicode="&#x251d;" 
d="M270 1050h84v-666h290v-168h-290v-666h-84v1500z" />
    <glyph glyph-name="upheavyrightdnlightbxd" unicode="&#x251e;" 
d="M228 1050h168v-708h248v-84h-290v-708h-84v708h-42v792z" />
    <glyph glyph-name="dnheavyrightuplightbxd" unicode="&#x251f;" 
d="M228 342h42v708h84v-708h290v-84h-248v-708h-168v792z" />
    <glyph glyph-name="vertheavyrightlightbxd" unicode="&#x2520;" 
d="M228 1050h168v-708h248v-84h-248v-708h-168v1500z" />
    <glyph glyph-name="dnlightrightupheavybxd" unicode="&#x2521;" 
d="M228 1050h168v-666h248v-168h-290v-666h-84v666h-42v834z" />
    <glyph glyph-name="uplightrightdnheavybxd" unicode="&#x2522;" 
d="M228 384h42v666h84v-666h290v-168h-248v-666h-168v834z" />
    <glyph glyph-name="heavyvertrightbxd" unicode="&#x2523;" 
d="M228 1050h168v-666h248v-168h-248v-666h-168v1500z" />
    <glyph glyph-name="lightvertleftbxd" unicode="&#x2524;" 
d="M-20 342h290v708h84v-1500h-84v708h-290v84z" />
    <glyph glyph-name="vertlightleftheavybxd" unicode="&#x2525;" 
d="M-20 384h290v666h84v-1500h-84v666h-290v168z" />
    <glyph glyph-name="upheavyleftdnlightbxd" unicode="&#x2526;" 
d="M-20 342h248v708h168v-792h-42v-708h-84v708h-290v84z" />
    <glyph glyph-name="dnheavyleftuplightbxd" unicode="&#x2527;" 
d="M-20 342h290v708h84v-708h42v-792h-168v708h-248v84z" />
    <glyph glyph-name="vertheavyleftlightbxd" unicode="&#x2528;" 
d="M-20 342h248v708h168v-1500h-168v708h-248v84z" />
    <glyph glyph-name="dnlightleftupheavybxd" unicode="&#x2529;" 
d="M-20 384h248v666h168v-834h-42v-666h-84v666h-290v168z" />
    <glyph glyph-name="uplightleftdnheavybxd" unicode="&#x252a;" 
d="M-20 384h290v666h84v-666h42v-834h-168v666h-248v168z" />
    <glyph glyph-name="heavyvertleftbxd" unicode="&#x252b;" 
d="M-20 384h248v666h168v-1500h-168v666h-248v168z" />
    <glyph glyph-name="lightdnhorzbxd" unicode="&#x252c;" 
d="M-20 342h664v-84h-290v-708h-84v708h-290v84z" />
    <glyph glyph-name="leftheavyrightdnlightbxd" unicode="&#x252d;" 
d="M-20 384h374v-42h290v-84h-290v-708h-84v666h-290v168z" />
    <glyph glyph-name="rightheavyleftdnlightbxd" unicode="&#x252e;" 
d="M-20 342h290v42h374v-168h-290v-666h-84v708h-290v84z" />
    <glyph glyph-name="dnlighthorzheavybxd" unicode="&#x252f;" 
d="M-20 384h664v-168h-290v-666h-84v666h-290v168z" />
    <glyph glyph-name="dnheavyhorzlightbxd" unicode="&#x2530;" 
d="M-20 342h664v-84h-248v-708h-168v708h-248v84z" />
    <glyph glyph-name="rightlightleftdnheavybxd" unicode="&#x2531;" 
d="M-20 384h416v-42h248v-84h-248v-708h-168v666h-248v168z" />
    <glyph glyph-name="leftlightrightdnheavybxd" unicode="&#x2532;" 
d="M-20 342h248v42h416v-168h-248v-666h-168v708h-248v84z" />
    <glyph glyph-name="heavydnhorzbxd" unicode="&#x2533;" 
d="M-20 384h664v-168h-248v-666h-168v666h-248v168z" />
    <glyph glyph-name="lightuphorzbxd" unicode="&#x2534;" 
d="M-20 342h290v708h84v-708h290v-84h-664v84z" />
    <glyph glyph-name="leftheavyrightuplightbxd" unicode="&#x2535;" 
d="M-20 384h290v666h84v-708h290v-84h-290v-42h-374v168z" />
    <glyph glyph-name="rightheavyleftuplightbxd" unicode="&#x2536;" 
d="M-20 342h290v708h84v-666h290v-168h-374v42h-290v84z" />
    <glyph glyph-name="uplighthorzheavybxd" unicode="&#x2537;" 
d="M-20 384h290v666h84v-666h290v-168h-664v168z" />
    <glyph glyph-name="upheavyhorzlightbxd" unicode="&#x2538;" 
d="M-20 342h248v708h168v-708h248v-84h-664v84z" />
    <glyph glyph-name="rightlightleftupheavybxd" unicode="&#x2539;" 
d="M-20 384h248v666h168v-708h248v-84h-248v-42h-416v168z" />
    <glyph glyph-name="leftlightrightupheavybxd" unicode="&#x253a;" 
d="M-20 342h248v708h168v-666h248v-168h-416v42h-248v84z" />
    <glyph glyph-name="heavyuphorzbxd" unicode="&#x253b;" 
d="M-20 384h248v666h168v-666h248v-168h-664v168z" />
    <glyph glyph-name="lightverthorzbxd" unicode="&#x253c;" 
d="M-20 342h290v708h84v-708h290v-84h-290v-708h-84v708h-290v84z" />
    <glyph glyph-name="leftheavyrightvertlightbxd" unicode="&#x253d;" 
d="M-20 384h290v666h84v-708h290v-84h-290v-708h-84v666h-290v168z" />
    <glyph glyph-name="rightheavyleftvertlightbxd" unicode="&#x253e;" 
d="M-20 342h290v708h84v-666h290v-168h-290v-666h-84v708h-290v84z" />
    <glyph glyph-name="vertlighthorzheavybxd" unicode="&#x253f;" 
d="M-20 384h290v666h84v-666h290v-168h-290v-666h-84v666h-290v168z" />
    <glyph glyph-name="upheavydnhorzlightbxd" unicode="&#x2540;" 
d="M-20 342h248v708h168v-708h248v-84h-290v-708h-84v708h-290v84z" />
    <glyph glyph-name="dnheavyuphorzlightbxd" unicode="&#x2541;" 
d="M-20 342h290v708h84v-708h290v-84h-248v-708h-168v708h-248v84z" />
    <glyph glyph-name="vertheavyhorzlightbxd" unicode="&#x2542;" 
d="M-20 342h248v708h168v-708h248v-84h-248v-708h-168v708h-248v84z" />
    <glyph glyph-name="leftupheavyrightdnlightbxd" unicode="&#x2543;" 
d="M-20 384h248v666h168v-708h248v-84h-248v-42h-42v-666h-84v666h-290v168z" />
    <glyph glyph-name="rightupheavyleftdnlightbxd" unicode="&#x2544;" 
d="M-20 342h248v708h168v-666h248v-168h-290v-666h-84v666h-42v42h-248v84z" />
    <glyph glyph-name="leftdnheavyrightuplightbxd" unicode="&#x2545;" 
d="M-20 384h290v666h84v-666h42v-42h248v-84h-248v-708h-168v666h-248v168z" />
    <glyph glyph-name="rightdnheavyleftuplightbxd" unicode="&#x2546;" 
d="M-20 342h248v42h42v666h84v-666h290v-168h-248v-666h-168v708h-248v84z" />
    <glyph glyph-name="dnlightuphorzheavybxd" unicode="&#x2547;" 
d="M-20 384h248v666h168v-666h248v-168h-290v-666h-84v666h-290v168z" />
    <glyph glyph-name="uplightdnhorzheavybxd" unicode="&#x2548;" 
d="M-20 384h290v666h84v-666h290v-168h-248v-666h-168v666h-248v168z" />
    <glyph glyph-name="rightlightleftvertheavybxd" unicode="&#x2549;" 
d="M-20 384h248v666h168v-708h248v-84h-248v-708h-168v666h-248v168z" />
    <glyph glyph-name="leftlightrightvertheavybxd" unicode="&#x254a;" 
d="M-20 342h248v708h168v-666h248v-168h-248v-666h-168v708h-248v84z" />
    <glyph glyph-name="heavyverthorzbxd" unicode="&#x254b;" 
d="M-20 384h248v666h168v-666h248v-168h-248v-666h-168v666h-248v168z" />
    <glyph glyph-name="lightdbldashhorzbxd" unicode="&#x254c;" 
d="M78 342h156v-84h-156v84zM390 342h156v-84h-156v84z" />
    <glyph glyph-name="heavydbldashhorzbxd" unicode="&#x254d;" 
d="M78 384h156v-168h-156v168zM390 384h156v-168h-156v168z" />
    <glyph glyph-name="lightdbldashvertbxd" unicode="&#x254e;" 
d="M270 162h84v-275h-84v275zM270 712h84v-275h-84v275z" />
    <glyph glyph-name="heavydbldashvertbxd" unicode="&#x254f;" 
d="M228 162h168v-275h-168v275zM228 712h168v-275h-168v275z" />
    <glyph glyph-name="dblhorzbxd" unicode="&#x2550;" 
d="M-20 426h664v-84h-664v84zM-20 258h664v-84h-664v84z" />
    <glyph glyph-name="dblvertbxd" unicode="&#x2551;" 
d="M186 1050h84v-1500h-84v1500zM354 1050h84v-1500h-84v1500z" />
    <glyph glyph-name="dnsngrightdblbxd" unicode="&#x2552;" 
d="M270 426h374v-84h-290v-84h290v-84h-290v-624h-84v876z" />
    <glyph glyph-name="dndblrightsngbxd" unicode="&#x2553;" 
d="M186 342h458v-84h-206v-708h-84v708h-84v-708h-84v792z" />
    <glyph glyph-name="dbldnrightbxd" unicode="&#x2554;" 
d="M186 426h458v-84h-374v-792h-84v876zM354 258h290v-84h-206v-624h-84v708z" />
    <glyph glyph-name="dnsngleftdblbxd" unicode="&#x2555;" 
d="M-20 426h374v-876h-84v624h-290v84h290v84h-290v84z" />
    <glyph glyph-name="dndblleftsngbxd" unicode="&#x2556;" 
d="M-20 342h458v-792h-84v708h-84v-708h-84v708h-206v84z" />
    <glyph glyph-name="dbldnleftbxd" unicode="&#x2557;" 
d="M-20 426h458v-876h-84v792h-374v84zM-20 258h290v-708h-84v624h-206v84z" />
    <glyph glyph-name="upsngrightdblbxd" unicode="&#x2558;" 
d="M270 1050h84v-624h290v-84h-290v-84h290v-84h-374v876z" />
    <glyph glyph-name="updblrightsngbxd" unicode="&#x2559;" 
d="M186 1050h84v-708h84v708h84v-708h206v-84h-458v792z" />
    <glyph glyph-name="dbluprightbxd" unicode="&#x255a;" 
d="M186 1050h84v-792h374v-84h-458v876zM354 1050h84v-624h206v-84h-290v708z" />
    <glyph glyph-name="upsngleftdblbxd" unicode="&#x255b;" 
d="M-20 426h290v624h84v-876h-374v84h290v84h-290v84z" />
    <glyph glyph-name="updblleftsngbxd" unicode="&#x255c;" 
d="M-20 342h206v708h84v-708h84v708h84v-792h-458v84z" />
    <glyph glyph-name="dblupleftbxd" unicode="&#x255d;" 
d="M-20 258h374v792h84v-876h-458v84zM-20 426h206v624h84v-708h-290v84z" />
    <glyph glyph-name="vertsngrightdblbxd" unicode="&#x255e;" 
d="M270 1050h84v-624h290v-84h-290v-84h290v-84h-290v-624h-84v1500z" />
    <glyph glyph-name="vertdblrightsngbxd" unicode="&#x255f;" 
d="M354 1050h84v-708h206v-84h-206v-708h-84v1500zM186 1050h84v-1500h-84v1500z" />
    <glyph glyph-name="dblvertrightbxd" unicode="&#x2560;" 
d="M186 1050h84v-1500h-84v1500zM354 1050h84v-624h206v-84h-290v708zM354 258h290v-84h-206v-624h-84v708z" />
    <glyph glyph-name="vertsngleftdblbxd" unicode="&#x2561;" 
d="M-20 426h290v624h84v-1500h-84v624h-290v84h290v84h-290v84z" />
    <glyph glyph-name="vertdblleftsngbxd" unicode="&#x2562;" 
d="M-20 342h206v708h84v-1500h-84v708h-206v84zM354 1050h84v-1500h-84v1500z" />
    <glyph glyph-name="dblvertleftbxd" unicode="&#x2563;" 
d="M354 1050h84v-1500h-84v1500zM-20 258h290v-708h-84v624h-206v84zM-20 426h206v624h84v-708h-290v84z" />
    <glyph glyph-name="dnsnghorzdblbxd" unicode="&#x2564;" 
d="M-20 258h664v-84h-290v-624h-84v624h-290v84zM-20 426h664v-84h-664v84z" />
    <glyph glyph-name="dndblhorzsngbxd" unicode="&#x2565;" 
d="M-20 342h664v-84h-206v-708h-84v708h-84v-708h-84v708h-206v84z" />
    <glyph glyph-name="dbldnhorzbxd" unicode="&#x2566;" 
d="M-20 258h290v-708h-84v624h-206v84zM354 258h290v-84h-206v-624h-84v708zM-20 426h664v-84h-664v84z" />
    <glyph glyph-name="upsnghorzdblbxd" unicode="&#x2567;" 
d="M-20 426h290v624h84v-624h290v-84h-664v84zM-20 258h664v-84h-664v84z" />
    <glyph glyph-name="updblhorzsngbxd" unicode="&#x2568;" 
d="M-20 342h206v708h84v-708h84v708h84v-708h206v-84h-664v84z" />
    <glyph glyph-name="dbluphorzbxd" unicode="&#x2569;" 
d="M-20 426h206v624h84v-708h-290v84zM354 1050h84v-624h206v-84h-290v708zM-20 258h664v-84h-664v84z" />
    <glyph glyph-name="vertsnghorzdblbxd" unicode="&#x256a;" 
d="M-20 426h290v624h84v-624h290v-84h-290v-84h290v-84h-290v-624h-84v624h-290v84h290v84h-290v84z" />
    <glyph glyph-name="vertdblhorzsngbxd" unicode="&#x256b;" 
d="M-20 342h206v708h84v-708h84v708h84v-708h206v-84h-206v-708h-84v708h-84v-708h-84v708h-206v84z" />
    <glyph glyph-name="dblverthorzbxd" unicode="&#x256c;" 
d="M-20 426h206v624h84v-708h-290v84zM-20 258h290v-708h-84v624h-206v84zM354 1050h84v-624h206v-84h-290v708zM354 258h290v-84h-206v-624h-84v708z" />
    <glyph glyph-name="lightarcdnrightbxd" unicode="&#x256d;" 
d="M270 -12q0 73 27.5 137.5t75.5 112.5t112.5 76t138.5 28h20v-84h-20q-56 0 -105 -21t-86 -58t-58 -86t-21 -105v-438h-84v438z" />
    <glyph glyph-name="lightarcdnleftbxd" unicode="&#x256e;" 
d="M354 -450h-84v438q0 56 -21 105t-58 86t-86 58t-105 21h-20v84h20q73 0 137.5 -28t112.5 -76t76 -112.5t28 -137.5v-438z" />
    <glyph glyph-name="lightarcupleftbxd" unicode="&#x256f;" 
d="M354 612q0 -74 -28 -138.5t-76 -112.5t-112.5 -75.5t-137.5 -27.5h-20v84h20q56 0 105 21t86 58t58 86t21 105v438h84v-438z" />
    <glyph glyph-name="lightarcuprightbxd" unicode="&#x2570;" 
d="M270 1050h84v-438q0 -56 21 -105t58 -86t86 -58t105 -21h20v-84h-20q-74 0 -138.5 27.5t-112.5 75.5t-75.5 112.5t-27.5 138.5v438z" />
    <glyph glyph-name="lightdiaguprightdnleftbxd" unicode="&#x2571;" 
d="M576 850h48v-85l-576 -1015h-48v85z" />
    <glyph glyph-name="lightdiagupleftdnrightbxd" unicode="&#x2572;" 
d="M624 -165v-85h-48l-576 1015v85h48z" />
    <glyph glyph-name="lightdiagcrossbxd" unicode="&#x2573;" 
d="M264 300l-264 465v85h48l264 -466l264 466h48v-85l-264 -465l264 -465v-85h-48l-264 465l-264 -465h-48v85z" />
    <glyph glyph-name="lightleftbxd" unicode="&#x2574;" 
d="M-20 342h374v-84h-374v84z" />
    <glyph glyph-name="lightupbxd" unicode="&#x2575;" 
d="M270 1050h84v-792h-84v792z" />
    <glyph glyph-name="lightrightbxd" unicode="&#x2576;" 
d="M270 342h374v-84h-374v84z" />
    <glyph glyph-name="lightdnbxd" unicode="&#x2577;" 
d="M270 342h84v-792h-84v792z" />
    <glyph glyph-name="heavyleftbxd" unicode="&#x2578;" 
d="M-20 384h374v-168h-374v168z" />
    <glyph glyph-name="heavyupbxd" unicode="&#x2579;" 
d="M228 1050h168v-792h-168v792z" />
    <glyph glyph-name="heavyrightbxd" unicode="&#x257a;" 
d="M270 384h374v-168h-374v168z" />
    <glyph glyph-name="heavydnbxd" unicode="&#x257b;" 
d="M228 342h168v-792h-168v792z" />
    <glyph glyph-name="lightleftheavyrightbxd" unicode="&#x257c;" 
d="M-20 342h290v42h374v-168h-374v42h-290v84z" />
    <glyph glyph-name="lightupheavydnbxd" unicode="&#x257d;" 
d="M228 342h42v708h84v-708h42v-792h-168v792z" />
    <glyph glyph-name="heavyleftlightrightbxd" unicode="&#x257e;" 
d="M-20 384h374v-42h290v-84h-290v-42h-374v168z" />
    <glyph glyph-name="heavyuplightdnbxd" unicode="&#x257f;" 
d="M228 1050h168v-792h-42v-708h-84v708h-42v792z" />
    <glyph glyph-name="uphalfblock" unicode="&#x2580;" 
d="M0 850h624v-550h-624v550z" />
    <glyph glyph-name="dneighthblock" unicode="&#x2581;" 
d="M0 -113h624v-137h-624v137z" />
    <glyph glyph-name="dnquarterblock" unicode="&#x2582;" 
d="M0 25h624v-275h-624v275z" />
    <glyph glyph-name="dnthreeeighthsblock" unicode="&#x2583;" 
d="M0 162h624v-412h-624v412z" />
    <glyph glyph-name="dnhalfblock" unicode="&#x2584;" 
d="M0 300h624v-550h-624v550z" />
    <glyph glyph-name="dnfiveeighthsblock" unicode="&#x2585;" 
d="M0 437h624v-687h-624v687z" />
    <glyph glyph-name="dnthreequartersblock" unicode="&#x2586;" 
d="M0 575h624v-825h-624v825z" />
    <glyph glyph-name="dnseveneighthsblock" unicode="&#x2587;" 
d="M0 712h624v-962h-624v962z" />
    <glyph glyph-name="fullblock" unicode="&#x2588;" 
d="M0 850h624v-1100h-624v1100z" />
    <glyph glyph-name="leftseveneighthsblock" unicode="&#x2589;" 
d="M0 850h546v-1100h-546v1100z" />
    <glyph glyph-name="leftthreequartersblock" unicode="&#x258a;" 
d="M0 850h468v-1100h-468v1100z" />
    <glyph glyph-name="leftfiveeighthsblock" unicode="&#x258b;" 
d="M0 850h390v-1100h-390v1100z" />
    <glyph glyph-name="lefthalfblock" unicode="&#x258c;" 
d="M0 850h312v-1100h-312v1100z" />
    <glyph glyph-name="leftthreeeighthsblock" unicode="&#x258d;" 
d="M0 850h234v-1100h-234v1100z" />
    <glyph glyph-name="leftquarterblock" unicode="&#x258e;" 
d="M0 850h156v-1100h-156v1100z" />
    <glyph glyph-name="lefteighthblock" unicode="&#x258f;" 
d="M0 850h78v-1100h-78v1100z" />
    <glyph glyph-name="righthalfblock" unicode="&#x2590;" 
d="M312 850h312v-1100h-312v1100z" />
    <glyph glyph-name="lightshade" unicode="&#x2591;" 
d="M0 -220h20v-30h-20v30zM50 -170h20v-30h-20v30zM0 -120h20v-30h-20v30zM50 -70h20v-30h-20v30zM0 -20h20v-30h-20v30zM50 30h20v-30h-20v30zM0 80h20v-30h-20v30zM50 130h20v-30h-20v30zM0 180h20v-30h-20v30zM50 230h20v-30h-20v30zM0 280h20v-30h-20v30zM50 330h20v-30
h-20v30zM0 380h20v-30h-20v30zM50 430h20v-30h-20v30zM0 480h20v-30h-20v30zM50 530h20v-30h-20v30zM0 580h20v-30h-20v30zM50 630h20v-30h-20v30zM0 680h20v-30h-20v30zM50 730h20v-30h-20v30zM0 780h20v-30h-20v30zM50 830h20v-30h-20v30zM100 -220h20v-30h-20v30z
M150 -170h20v-30h-20v30zM100 -120h20v-30h-20v30zM150 -70h20v-30h-20v30zM100 -20h20v-30h-20v30zM150 30h20v-30h-20v30zM100 80h20v-30h-20v30zM150 130h20v-30h-20v30zM100 180h20v-30h-20v30zM150 230h20v-30h-20v30zM100 280h20v-30h-20v30zM150 330h20v-30h-20v30z
M100 380h20v-30h-20v30zM150 430h20v-30h-20v30zM100 480h20v-30h-20v30zM150 530h20v-30h-20v30zM100 580h20v-30h-20v30zM150 630h20v-30h-20v30zM100 680h20v-30h-20v30zM150 730h20v-30h-20v30zM100 780h20v-30h-20v30zM150 830h20v-30h-20v30zM200 -220h20v-30h-20v30z
M250 -170h20v-30h-20v30zM200 -120h20v-30h-20v30zM250 -70h20v-30h-20v30zM200 -20h20v-30h-20v30zM250 30h20v-30h-20v30zM200 80h20v-30h-20v30zM250 130h20v-30h-20v30zM200 180h20v-30h-20v30zM250 230h20v-30h-20v30zM200 280h20v-30h-20v30zM250 330h20v-30h-20v30z
M200 380h20v-30h-20v30zM250 430h20v-30h-20v30zM200 480h20v-30h-20v30zM250 530h20v-30h-20v30zM200 580h20v-30h-20v30zM250 630h20v-30h-20v30zM200 680h20v-30h-20v30zM250 730h20v-30h-20v30zM200 780h20v-30h-20v30zM250 830h20v-30h-20v30zM300 -220h20v-30h-20v30z
M350 -170h20v-30h-20v30zM300 -120h20v-30h-20v30zM350 -70h20v-30h-20v30zM300 -20h20v-30h-20v30zM350 30h20v-30h-20v30zM300 80h20v-30h-20v30zM350 130h20v-30h-20v30zM300 180h20v-30h-20v30zM350 230h20v-30h-20v30zM300 280h20v-30h-20v30zM350 330h20v-30h-20v30z
M300 380h20v-30h-20v30zM350 430h20v-30h-20v30zM300 480h20v-30h-20v30zM350 530h20v-30h-20v30zM300 580h20v-30h-20v30zM350 630h20v-30h-20v30zM300 680h20v-30h-20v30zM350 730h20v-30h-20v30zM300 780h20v-30h-20v30zM350 830h20v-30h-20v30zM400 -220h20v-30h-20v30z
M450 -170h20v-30h-20v30zM400 -120h20v-30h-20v30zM450 -70h20v-30h-20v30zM400 -20h20v-30h-20v30zM450 30h20v-30h-20v30zM400 80h20v-30h-20v30zM450 130h20v-30h-20v30zM400 180h20v-30h-20v30zM450 230h20v-30h-20v30zM400 280h20v-30h-20v30zM450 330h20v-30h-20v30z
M400 380h20v-30h-20v30zM450 430h20v-30h-20v30zM400 480h20v-30h-20v30zM450 530h20v-30h-20v30zM400 580h20v-30h-20v30zM450 630h20v-30h-20v30zM400 680h20v-30h-20v30zM450 730h20v-30h-20v30zM400 780h20v-30h-20v30zM450 830h20v-30h-20v30zM500 -220h20v-30h-20v30z
M550 -170h20v-30h-20v30zM500 -120h20v-30h-20v30zM550 -70h20v-30h-20v30zM500 -20h20v-30h-20v30zM550 30h20v-30h-20v30zM500 80h20v-30h-20v30zM550 130h20v-30h-20v30zM500 180h20v-30h-20v30zM550 230h20v-30h-20v30zM500 280h20v-30h-20v30zM550 330h20v-30h-20v30z
M500 380h20v-30h-20v30zM550 430h20v-30h-20v30zM500 480h20v-30h-20v30zM550 530h20v-30h-20v30zM500 580h20v-30h-20v30zM550 630h20v-30h-20v30zM500 680h20v-30h-20v30zM550 730h20v-30h-20v30zM500 780h20v-30h-20v30zM550 830h20v-30h-20v30zM600 -220h20v-30h-20v30z
M650 -170h20v-30h-20v30zM600 -120h20v-30h-20v30zM650 -70h20v-30h-20v30zM600 -20h20v-30h-20v30zM650 30h20v-30h-20v30zM600 80h20v-30h-20v30zM650 130h20v-30h-20v30zM600 180h20v-30h-20v30zM650 230h20v-30h-20v30zM600 280h20v-30h-20v30zM650 330h20v-30h-20v30z
M600 380h20v-30h-20v30zM650 430h20v-30h-20v30zM600 480h20v-30h-20v30zM650 530h20v-30h-20v30zM600 580h20v-30h-20v30zM650 630h20v-30h-20v30zM600 680h20v-30h-20v30zM650 730h20v-30h-20v30zM600 780h20v-30h-20v30zM650 830h20v-30h-20v30z" />
    <glyph glyph-name="mediumshade" unicode="&#x2592;" 
d="M0 -200h40v-50h-40v50zM50 -150h40v-50h-40v50zM0 -100h40v-50h-40v50zM50 -50h40v-50h-40v50zM0 0h40v-50h-40v50zM50 50h40v-50h-40v50zM0 100h40v-50h-40v50zM50 150h40v-50h-40v50zM0 200h40v-50h-40v50zM50 250h40v-50h-40v50zM0 300h40v-50h-40v50zM50 350h40v-50
h-40v50zM0 400h40v-50h-40v50zM50 450h40v-50h-40v50zM0 500h40v-50h-40v50zM50 550h40v-50h-40v50zM0 600h40v-50h-40v50zM50 650h40v-50h-40v50zM0 700h40v-50h-40v50zM50 750h40v-50h-40v50zM0 800h40v-50h-40v50zM50 850h40v-50h-40v50zM100 -200h40v-50h-40v50z
M150 -150h40v-50h-40v50zM100 -100h40v-50h-40v50zM150 -50h40v-50h-40v50zM100 0h40v-50h-40v50zM150 50h40v-50h-40v50zM100 100h40v-50h-40v50zM150 150h40v-50h-40v50zM100 200h40v-50h-40v50zM150 250h40v-50h-40v50zM100 300h40v-50h-40v50zM150 350h40v-50h-40v50z
M100 400h40v-50h-40v50zM150 450h40v-50h-40v50zM100 500h40v-50h-40v50zM150 550h40v-50h-40v50zM100 600h40v-50h-40v50zM150 650h40v-50h-40v50zM100 700h40v-50h-40v50zM150 750h40v-50h-40v50zM100 800h40v-50h-40v50zM150 850h40v-50h-40v50zM200 -200h40v-50h-40v50z
M250 -150h40v-50h-40v50zM200 -100h40v-50h-40v50zM250 -50h40v-50h-40v50zM200 0h40v-50h-40v50zM250 50h40v-50h-40v50zM200 100h40v-50h-40v50zM250 150h40v-50h-40v50zM200 200h40v-50h-40v50zM250 250h40v-50h-40v50zM200 300h40v-50h-40v50zM250 350h40v-50h-40v50z
M200 400h40v-50h-40v50zM250 450h40v-50h-40v50zM200 500h40v-50h-40v50zM250 550h40v-50h-40v50zM200 600h40v-50h-40v50zM250 650h40v-50h-40v50zM200 700h40v-50h-40v50zM250 750h40v-50h-40v50zM200 800h40v-50h-40v50zM250 850h40v-50h-40v50zM300 -200h40v-50h-40v50z
M350 -150h40v-50h-40v50zM300 -100h40v-50h-40v50zM350 -50h40v-50h-40v50zM300 0h40v-50h-40v50zM350 50h40v-50h-40v50zM300 100h40v-50h-40v50zM350 150h40v-50h-40v50zM300 200h40v-50h-40v50zM350 250h40v-50h-40v50zM300 300h40v-50h-40v50zM350 350h40v-50h-40v50z
M300 400h40v-50h-40v50zM350 450h40v-50h-40v50zM300 500h40v-50h-40v50zM350 550h40v-50h-40v50zM300 600h40v-50h-40v50zM350 650h40v-50h-40v50zM300 700h40v-50h-40v50zM350 750h40v-50h-40v50zM300 800h40v-50h-40v50zM350 850h40v-50h-40v50zM400 -200h40v-50h-40v50z
M450 -150h40v-50h-40v50zM400 -100h40v-50h-40v50zM450 -50h40v-50h-40v50zM400 0h40v-50h-40v50zM450 50h40v-50h-40v50zM400 100h40v-50h-40v50zM450 150h40v-50h-40v50zM400 200h40v-50h-40v50zM450 250h40v-50h-40v50zM400 300h40v-50h-40v50zM450 350h40v-50h-40v50z
M400 400h40v-50h-40v50zM450 450h40v-50h-40v50zM400 500h40v-50h-40v50zM450 550h40v-50h-40v50zM400 600h40v-50h-40v50zM450 650h40v-50h-40v50zM400 700h40v-50h-40v50zM450 750h40v-50h-40v50zM400 800h40v-50h-40v50zM450 850h40v-50h-40v50zM500 -200h40v-50h-40v50z
M550 -150h40v-50h-40v50zM500 -100h40v-50h-40v50zM550 -50h40v-50h-40v50zM500 0h40v-50h-40v50zM550 50h40v-50h-40v50zM500 100h40v-50h-40v50zM550 150h40v-50h-40v50zM500 200h40v-50h-40v50zM550 250h40v-50h-40v50zM500 300h40v-50h-40v50zM550 350h40v-50h-40v50z
M500 400h40v-50h-40v50zM550 450h40v-50h-40v50zM500 500h40v-50h-40v50zM550 550h40v-50h-40v50zM500 600h40v-50h-40v50zM550 650h40v-50h-40v50zM500 700h40v-50h-40v50zM550 750h40v-50h-40v50zM500 800h40v-50h-40v50zM550 850h40v-50h-40v50zM600 -200h40v-50h-40v50z
M650 -150h40v-50h-40v50zM600 -100h40v-50h-40v50zM650 -50h40v-50h-40v50zM600 0h40v-50h-40v50zM650 50h40v-50h-40v50zM600 100h40v-50h-40v50zM650 150h40v-50h-40v50zM600 200h40v-50h-40v50zM650 250h40v-50h-40v50zM600 300h40v-50h-40v50zM650 350h40v-50h-40v50z
M600 400h40v-50h-40v50zM650 450h40v-50h-40v50zM600 500h40v-50h-40v50zM650 550h40v-50h-40v50zM600 600h40v-50h-40v50zM650 650h40v-50h-40v50zM600 700h40v-50h-40v50zM650 750h40v-50h-40v50zM600 800h40v-50h-40v50zM650 850h40v-50h-40v50z" />
    <glyph glyph-name="darkshade" unicode="&#x2593;" 
d="M0 -185h45v-65h-45v65zM50 -135h45v-65h-45v65zM0 -85h45v-65h-45v65zM50 -35h45v-65h-45v65zM0 15h45v-65h-45v65zM50 65h45v-65h-45v65zM0 115h45v-65h-45v65zM50 165h45v-65h-45v65zM0 215h45v-65h-45v65zM50 265h45v-65h-45v65zM0 315h45v-65h-45v65zM50 365h45v-65
h-45v65zM0 415h45v-65h-45v65zM50 465h45v-65h-45v65zM0 515h45v-65h-45v65zM50 565h45v-65h-45v65zM0 615h45v-65h-45v65zM50 665h45v-65h-45v65zM0 715h45v-65h-45v65zM50 765h45v-65h-45v65zM0 815h45v-65h-45v65zM50 865h45v-65h-45v65zM100 -185h45v-65h-45v65z
M150 -135h45v-65h-45v65zM100 -85h45v-65h-45v65zM150 -35h45v-65h-45v65zM100 15h45v-65h-45v65zM150 65h45v-65h-45v65zM100 115h45v-65h-45v65zM150 165h45v-65h-45v65zM100 215h45v-65h-45v65zM150 265h45v-65h-45v65zM100 315h45v-65h-45v65zM150 365h45v-65h-45v65z
M100 415h45v-65h-45v65zM150 465h45v-65h-45v65zM100 515h45v-65h-45v65zM150 565h45v-65h-45v65zM100 615h45v-65h-45v65zM150 665h45v-65h-45v65zM100 715h45v-65h-45v65zM150 765h45v-65h-45v65zM100 815h45v-65h-45v65zM150 865h45v-65h-45v65zM200 -185h45v-65h-45v65z
M250 -135h45v-65h-45v65zM200 -85h45v-65h-45v65zM250 -35h45v-65h-45v65zM200 15h45v-65h-45v65zM250 65h45v-65h-45v65zM200 115h45v-65h-45v65zM250 165h45v-65h-45v65zM200 215h45v-65h-45v65zM250 265h45v-65h-45v65zM200 315h45v-65h-45v65zM250 365h45v-65h-45v65z
M200 415h45v-65h-45v65zM250 465h45v-65h-45v65zM200 515h45v-65h-45v65zM250 565h45v-65h-45v65zM200 615h45v-65h-45v65zM250 665h45v-65h-45v65zM200 715h45v-65h-45v65zM250 765h45v-65h-45v65zM200 815h45v-65h-45v65zM250 865h45v-65h-45v65zM300 -185h45v-65h-45v65z
M350 -135h45v-65h-45v65zM300 -85h45v-65h-45v65zM350 -35h45v-65h-45v65zM300 15h45v-65h-45v65zM350 65h45v-65h-45v65zM300 115h45v-65h-45v65zM350 165h45v-65h-45v65zM300 215h45v-65h-45v65zM350 265h45v-65h-45v65zM300 315h45v-65h-45v65zM350 365h45v-65h-45v65z
M300 415h45v-65h-45v65zM350 465h45v-65h-45v65zM300 515h45v-65h-45v65zM350 565h45v-65h-45v65zM300 615h45v-65h-45v65zM350 665h45v-65h-45v65zM300 715h45v-65h-45v65zM350 765h45v-65h-45v65zM300 815h45v-65h-45v65zM350 865h45v-65h-45v65zM400 -185h45v-65h-45v65z
M450 -135h45v-65h-45v65zM400 -85h45v-65h-45v65zM450 -35h45v-65h-45v65zM400 15h45v-65h-45v65zM450 65h45v-65h-45v65zM400 115h45v-65h-45v65zM450 165h45v-65h-45v65zM400 215h45v-65h-45v65zM450 265h45v-65h-45v65zM400 315h45v-65h-45v65zM450 365h45v-65h-45v65z
M400 415h45v-65h-45v65zM450 465h45v-65h-45v65zM400 515h45v-65h-45v65zM450 565h45v-65h-45v65zM400 615h45v-65h-45v65zM450 665h45v-65h-45v65zM400 715h45v-65h-45v65zM450 765h45v-65h-45v65zM400 815h45v-65h-45v65zM450 865h45v-65h-45v65zM500 -185h45v-65h-45v65z
M550 -135h45v-65h-45v65zM500 -85h45v-65h-45v65zM550 -35h45v-65h-45v65zM500 15h45v-65h-45v65zM550 65h45v-65h-45v65zM500 115h45v-65h-45v65zM550 165h45v-65h-45v65zM500 215h45v-65h-45v65zM550 265h45v-65h-45v65zM500 315h45v-65h-45v65zM550 365h45v-65h-45v65z
M500 415h45v-65h-45v65zM550 465h45v-65h-45v65zM500 515h45v-65h-45v65zM550 565h45v-65h-45v65zM500 615h45v-65h-45v65zM550 665h45v-65h-45v65zM500 715h45v-65h-45v65zM550 765h45v-65h-45v65zM500 815h45v-65h-45v65zM550 865h45v-65h-45v65zM600 -185h45v-65h-45v65z
M650 -135h45v-65h-45v65zM600 -85h45v-65h-45v65zM650 -35h45v-65h-45v65zM600 15h45v-65h-45v65zM650 65h45v-65h-45v65zM600 115h45v-65h-45v65zM650 165h45v-65h-45v65zM600 215h45v-65h-45v65zM650 265h45v-65h-45v65zM600 315h45v-65h-45v65zM650 365h45v-65h-45v65z
M600 415h45v-65h-45v65zM650 465h45v-65h-45v65zM600 515h45v-65h-45v65zM650 565h45v-65h-45v65zM600 615h45v-65h-45v65zM650 665h45v-65h-45v65zM600 715h45v-65h-45v65zM650 765h45v-65h-45v65zM600 815h45v-65h-45v65zM650 865h45v-65h-45v65z" />
    <glyph glyph-name="upeighthblock" unicode="&#x2594;" 
d="M0 850h624v-138h-624v138z" />
    <glyph glyph-name="righteighthblock" unicode="&#x2595;" 
d="M546 850h78v-1100h-78v1100z" />
    <glyph glyph-name="dnleftquadrant" unicode="&#x2596;" 
d="M0 300h312v-550h-312v550z" />
    <glyph glyph-name="dnrightquadrant" unicode="&#x2597;" 
d="M312 300h312v-550h-312v550z" />
    <glyph glyph-name="upleftquadrant" unicode="&#x2598;" 
d="M0 850h312v-550h-312v550z" />
    <glyph glyph-name="upleftdnleftdnrightquadrant" unicode="&#x2599;" 
d="M0 850h312v-550h312v-550h-624v1100z" />
    <glyph glyph-name="upleftdnrightquadrant" unicode="&#x259a;" 
d="M0 850h312v-550h312v-550h-312v550h-312v550z" />
    <glyph glyph-name="upleftuprightdnleftquadrant" unicode="&#x259b;" 
d="M0 850h624v-550h-312v-550h-312v1100z" />
    <glyph glyph-name="upleftuprightdnrightquadrant" unicode="&#x259c;" 
d="M0 850h624v-1100h-312v550h-312v550z" />
    <glyph glyph-name="uprightquadrant" unicode="&#x259d;" 
d="M312 850h312v-550h-312v550z" />
    <glyph glyph-name="uprightdnleftquadrant" unicode="&#x259e;" 
d="M0 300h312v-550h-312v550zM312 850h312v-550h-312v550z" />
    <glyph glyph-name="uprightdnleftdnrightquadrant" unicode="&#x259f;" 
d="M0 300h312v550h312v-1100h-624v550z" />
    </font>
</defs>
</svg>
