<?xml version="1.0" standalone="no"?>
<!DOCTYPE svg PUBLIC "-//W3C//DTD SVG 1.1//EN" "http://www.w3.org/Graphics/SVG/1.1/DTD/svg11.dtd" >
<svg>
<metadata>
Created by FontForge 20090622 at Sat Apr  6 22:33:26 2019
 By deploy user
(c) Copyright The Font Bureau, Inc. 2014. All rights reserved.
</metadata>
<defs>
<font id="Input-Regular" horiz-adv-x="624" >
  <font-face 
    font-family="Input"
    font-weight="400"
    font-stretch="condensed"
    units-per-em="1100"
    panose-1="2 0 4 9 2 0 0 9 0 4"
    ascent="850"
    descent="-250"
    x-height="600"
    cap-height="800"
    bbox="-193 -450 789 1400"
    underline-thickness="0"
    underline-position="0"
    unicode-range="U+000D-U+1F41B"
  />
<missing-glyph 
d="M50 -250v1100h524v-1100h-524zM135 -165h354v930h-354v-930z" />
    <glyph glyph-name=".notdef" 
d="M50 -250v1100h524v-1100h-524zM135 -165h354v930h-354v-930z" />
    <glyph glyph-name="NULL" horiz-adv-x="0" 
 />
    <glyph glyph-name="nonmarkingreturn" unicode="&#xd;" horiz-adv-x="0" 
 />
    <glyph glyph-name="space" unicode="&#xa0;" 
 />
    <glyph glyph-name="space" unicode=" " 
 />
    <glyph glyph-name="A" unicode="A" 
d="M406 317l-95 379l-95 -379h190zM485 0l-61 244h-226l-61 -244h-83l217 800h83l216 -800h-85z" />
    <glyph glyph-name="Agrave" unicode="&#xc0;" 
d="M406 317l-95 379l-95 -379h190zM485 0l-61 244h-226l-61 -244h-83l217 800h83l216 -800h-85zM315 900l-162 200h121l115 -200h-74z" />
    <glyph glyph-name="Aacute" unicode="&#xc1;" 
d="M406 317l-95 379l-95 -379h190zM485 0l-61 244h-226l-61 -244h-83l217 800h83l216 -800h-85zM219 900l114 200h122l-162 -200h-74z" />
    <glyph glyph-name="Acircumflex" unicode="&#xc2;" 
d="M406 317l-95 379l-95 -379h190zM485 0l-61 244h-226l-61 -244h-83l217 800h83l216 -800h-85zM169 918l-38 50l153 146h57l154 -146l-39 -51l-144 112z" />
    <glyph glyph-name="Atilde" unicode="&#xc3;" 
d="M406 317l-95 379l-95 -379h190zM485 0l-61 244h-226l-61 -244h-83l217 800h83l216 -800h-85zM378 910q-32 0 -51.5 19.5t-33.5 41.5l-25 41t-28 19q-19 0 -29 -24t-9 -78v-9h-63v15q0 72 28 120.5t81 48.5q35 0 55.5 -19.5t33.5 -40.5l23.5 -41t25.5 -19q18 0 28.5 23.5
t10.5 77.5v10h62v-15q0 -74 -28 -122t-81 -48z" />
    <glyph glyph-name="Adieresis" unicode="&#xc4;" 
d="M406 317l-95 379l-95 -379h190zM485 0l-61 244h-226l-61 -244h-83l217 800h83l216 -800h-85zM217 916q-24 0 -38.5 10.5t-14.5 40.5v5q0 31 14.5 42t38.5 11q25 0 39 -11t14 -42v-5q0 -30 -14.5 -40.5t-38.5 -10.5zM409 916q-25 0 -39 10.5t-14 40.5v5q0 31 14 42t39 11
q23 0 38 -11t15 -42v-5q0 -30 -15 -40.5t-38 -10.5z" />
    <glyph glyph-name="Aring" unicode="&#xc5;" 
d="M406 317l-95 379l-95 -379h190zM485 0l-61 244h-226l-61 -244h-83l217 800h83l216 -800h-85zM313 888q-59 0 -95.5 35t-36.5 107v32q0 73 36.5 109t95.5 36q60 0 96 -36t36 -109v-32q0 -72 -36.5 -107t-95.5 -35zM313 953q34 0 51.5 17.5t17.5 59.5v32q0 41 -17.5 60.5
t-51.5 19.5t-51.5 -19.5t-17.5 -60.5v-32q0 -42 17.5 -59.5t51.5 -17.5z" />
    <glyph glyph-name="Amacron" unicode="&#x100;" 
d="M406 317l-95 379l-95 -379h190zM485 0l-61 244h-226l-61 -244h-83l217 800h83l216 -800h-85zM147 964v72h332v-72h-332z" />
    <glyph glyph-name="Abreve" unicode="&#x102;" 
d="M406 317l-95 379l-95 -379h190zM485 0l-61 244h-226l-61 -244h-83l217 800h83l216 -800h-85zM313 893q-87 0 -139.5 48.5t-53.5 152.5h82q1 -72 28.5 -102.5t82.5 -30.5t82.5 30.5t28.5 102.5h82q-1 -104 -53.5 -152.5t-139.5 -48.5z" />
    <glyph glyph-name="Aogonek" unicode="&#x104;" 
d="M406 317l-95 379l-95 -379h190zM485 0l-61 244h-226l-61 -244h-83l217 800h83l216 -800h-85zM527 -213q-52 0 -88 31.5t-36 85.5q0 44 32 80t69 54l22 -15q-30 -22 -40 -49t-10 -46q0 -28 16 -43.5t44 -15.5q15 0 38 3.5t36 6.5v-82q-16 -4 -40 -7t-43 -3z" />
    <glyph glyph-name="Aringacute" unicode="&#x1fa;" 
d="M406 317l-95 379l-95 -379h190zM485 0l-61 244h-226l-61 -244h-83l217 800h83l216 -800h-85zM313 888q-59 0 -95.5 35t-36.5 107v32q0 73 36.5 109t95.5 36q60 0 96 -36t36 -109v-32q0 -72 -36.5 -107t-95.5 -35zM313 953q34 0 51.5 17.5t17.5 59.5v32q0 41 -17.5 60.5
t-51.5 19.5t-51.5 -19.5t-17.5 -60.5v-32q0 -42 17.5 -59.5t51.5 -17.5zM268 1200l114 200h122l-162 -200h-74z" />
    <glyph glyph-name="B" unicode="B" 
d="M105 0v800h205q103 0 153 -46.5t50 -141.5v-48q0 -47 -26.5 -82t-71.5 -44v-29q57 -6 91 -50.5t34 -113.5v-43q0 -102 -55.5 -152t-168.5 -50h-211zM185 454h134q61 0 88 29t27 95v22q0 66 -27 95t-88 29h-134v-270zM185 76h151q65 0 94.5 32.5t29.5 104.5v27
q0 73 -29.5 105.5t-94.5 32.5h-151v-302z" />
    <glyph glyph-name="C" unicode="C" 
d="M321 -10q-116 0 -175 69.5t-59 206.5v264q0 139 59 209.5t175 70.5q113 0 169 -64.5t63 -200.5l-79 -10q-8 113 -41.5 158t-111.5 45q-84 0 -118.5 -46t-34.5 -155v-278q0 -101 36.5 -149t116.5 -48q78 0 111 43.5t42 155.5l79 -10q-7 -134 -63 -197.5t-169 -63.5z" />
    <glyph glyph-name="Ccedilla" unicode="&#xc7;" 
d="M321 -10q-116 0 -175 69.5t-59 206.5v264q0 139 59 209.5t175 70.5q113 0 169 -64.5t63 -200.5l-79 -10q-8 113 -41.5 158t-111.5 45q-84 0 -118.5 -46t-34.5 -155v-278q0 -101 36.5 -149t116.5 -48q78 0 111 43.5t42 155.5l79 -10q-7 -134 -63 -197.5t-169 -63.5zM295 0
l16 42q44 -10 73 -43t29 -90q0 -63 -38 -92.5t-82 -29.5q-53 0 -87 21.5t-38 75.5l71 10q1 -19 12.5 -26.5t37.5 -7.5q25 0 38 13t13 47q0 37 -10 54.5t-35 25.5z" />
    <glyph glyph-name="Cacute" unicode="&#x106;" 
d="M321 -10q-116 0 -175 69.5t-59 206.5v264q0 139 59 209.5t175 70.5q113 0 169 -64.5t63 -200.5l-79 -10q-8 113 -41.5 158t-111.5 45q-84 0 -118.5 -46t-34.5 -155v-278q0 -101 36.5 -149t116.5 -48q78 0 111 43.5t42 155.5l79 -10q-7 -134 -63 -197.5t-169 -63.5z
M261 900l114 200h122l-162 -200h-74z" />
    <glyph glyph-name="Ccircumflex" unicode="&#x108;" 
d="M321 -10q-116 0 -175 69.5t-59 206.5v264q0 139 59 209.5t175 70.5q113 0 169 -64.5t63 -200.5l-79 -10q-8 113 -41.5 158t-111.5 45q-84 0 -118.5 -46t-34.5 -155v-278q0 -101 36.5 -149t116.5 -48q78 0 111 43.5t42 155.5l79 -10q-7 -134 -63 -197.5t-169 -63.5z
M176 918l-38 50l153 146h57l154 -146l-39 -51l-144 112z" />
    <glyph glyph-name="Cdotaccent" unicode="&#x10a;" 
d="M321 -10q-116 0 -175 69.5t-59 206.5v264q0 139 59 209.5t175 70.5q113 0 169 -64.5t63 -200.5l-79 -10q-8 113 -41.5 158t-111.5 45q-84 0 -118.5 -46t-34.5 -155v-278q0 -101 36.5 -149t116.5 -48q78 0 111 43.5t42 155.5l79 -10q-7 -134 -63 -197.5t-169 -63.5z
M320 916q-31 0 -50.5 10.5t-19.5 40.5v5q0 31 19.5 42t50.5 11t50.5 -11t19.5 -42v-5q0 -30 -19.5 -40.5t-50.5 -10.5z" />
    <glyph glyph-name="Ccaron" unicode="&#x10c;" 
d="M321 -10q-116 0 -175 69.5t-59 206.5v264q0 139 59 209.5t175 70.5q113 0 169 -64.5t63 -200.5l-79 -10q-8 113 -41.5 158t-111.5 45q-84 0 -118.5 -46t-34.5 -155v-278q0 -101 36.5 -149t116.5 -48q78 0 111 43.5t42 155.5l79 -10q-7 -134 -63 -197.5t-169 -63.5z
M292 904l-154 146l39 50l144 -110l143 110l38 -50l-153 -146h-57z" />
    <glyph glyph-name="D" unicode="D" 
d="M105 0v800h181q116 0 183.5 -75t67.5 -200v-254q0 -123 -67.5 -197t-183.5 -74h-181zM185 72h102q83 0 126 53t43 141v264q0 89 -43 143.5t-126 54.5h-102v-656z" />
    <glyph glyph-name="Dcaron" unicode="&#x10e;" 
d="M105 0v800h181q116 0 183.5 -75t67.5 -200v-254q0 -123 -67.5 -197t-183.5 -74h-181zM185 72h102q83 0 126 53t43 141v264q0 89 -43 143.5t-126 54.5h-102v-656zM284 904l-154 146l39 50l144 -110l143 110l38 -50l-153 -146h-57z" />
    <glyph glyph-name="E" unicode="E" 
d="M105 0v800h432v-72h-352v-254h310v-73h-310v-329h352v-72h-432z" />
    <glyph glyph-name="Egrave" unicode="&#xc8;" 
d="M105 0v800h432v-72h-352v-254h310v-73h-310v-329h352v-72h-432zM322 900l-162 200h121l115 -200h-74z" />
    <glyph glyph-name="Eacute" unicode="&#xc9;" 
d="M105 0v800h432v-72h-352v-254h310v-73h-310v-329h352v-72h-432zM243 900l114 200h122l-162 -200h-74z" />
    <glyph glyph-name="Ecircumflex" unicode="&#xca;" 
d="M105 0v800h432v-72h-352v-254h310v-73h-310v-329h352v-72h-432zM185 918l-38 50l153 146h57l154 -146l-39 -51l-144 112z" />
    <glyph glyph-name="Edieresis" unicode="&#xcb;" 
d="M105 0v800h432v-72h-352v-254h310v-73h-310v-329h352v-72h-432zM233 916q-24 0 -38.5 10.5t-14.5 40.5v5q0 31 14.5 42t38.5 11q25 0 39 -11t14 -42v-5q0 -30 -14.5 -40.5t-38.5 -10.5zM425 916q-25 0 -39 10.5t-14 40.5v5q0 31 14 42t39 11q23 0 38 -11t15 -42v-5
q0 -30 -15 -40.5t-38 -10.5z" />
    <glyph glyph-name="Emacron" unicode="&#x112;" 
d="M105 0v800h432v-72h-352v-254h310v-73h-310v-329h352v-72h-432zM163 964v72h332v-72h-332z" />
    <glyph glyph-name="Ebreve" unicode="&#x114;" 
d="M105 0v800h432v-72h-352v-254h310v-73h-310v-329h352v-72h-432zM329 893q-87 0 -139.5 48.5t-53.5 152.5h82q1 -72 28.5 -102.5t82.5 -30.5t82.5 30.5t28.5 102.5h82q-1 -104 -53.5 -152.5t-139.5 -48.5z" />
    <glyph glyph-name="Edotaccent" unicode="&#x116;" 
d="M105 0v800h432v-72h-352v-254h310v-73h-310v-329h352v-72h-432zM329 916q-31 0 -50.5 10.5t-19.5 40.5v5q0 31 19.5 42t50.5 11t50.5 -11t19.5 -42v-5q0 -30 -19.5 -40.5t-50.5 -10.5z" />
    <glyph glyph-name="Eogonek" unicode="&#x118;" 
d="M454 -213q-52 0 -88 31.5t-36 85.5q0 44 32 80t69 54l22 -15q-30 -22 -40 -49t-10 -46q0 -28 16 -43.5t44 -15.5q15 0 38 3.5t36 6.5v-82q-16 -4 -40 -7t-43 -3zM105 0v800h432v-72h-352v-254h310v-73h-310v-329h352v-72h-432z" />
    <glyph glyph-name="Ecaron" unicode="&#x11a;" 
d="M105 0v800h432v-72h-352v-254h310v-73h-310v-329h352v-72h-432zM310 904l-154 146l39 50l144 -110l143 110l38 -50l-153 -146h-57z" />
    <glyph glyph-name="F" unicode="F" 
d="M103 0v800h433v-72h-353v-342h294v-73h-294v-313h-80z" />
    <glyph glyph-name="G" unicode="G" 
d="M326 -10q-119 0 -179 74.5t-60 201.5v264q0 137 60 208.5t174 71.5q104 0 156.5 -60t59.5 -191l-81 -10q-6 101 -37.5 145t-99.5 44q-81 0 -116 -45.5t-35 -156.5v-277q0 -107 37.5 -152t123.5 -45q77 0 110.5 54t33.5 182h-161v72h242v-92q0 -140 -58.5 -214t-169.5 -74
z" />
    <glyph glyph-name="Gcircumflex" unicode="&#x11c;" 
d="M326 -10q-119 0 -179 74.5t-60 201.5v264q0 137 60 208.5t174 71.5q104 0 156.5 -60t59.5 -191l-81 -10q-6 101 -37.5 145t-99.5 44q-81 0 -116 -45.5t-35 -156.5v-277q0 -107 37.5 -152t123.5 -45q77 0 110.5 54t33.5 182h-161v72h242v-92q0 -140 -58.5 -214t-169.5 -74
zM185 918l-38 50l153 146h57l154 -146l-39 -51l-144 112z" />
    <glyph glyph-name="Gbreve" unicode="&#x11e;" 
d="M326 -10q-119 0 -179 74.5t-60 201.5v264q0 137 60 208.5t174 71.5q104 0 156.5 -60t59.5 -191l-81 -10q-6 101 -37.5 145t-99.5 44q-81 0 -116 -45.5t-35 -156.5v-277q0 -107 37.5 -152t123.5 -45q77 0 110.5 54t33.5 182h-161v72h242v-92q0 -140 -58.5 -214t-169.5 -74
zM329 893q-87 0 -139.5 48.5t-53.5 152.5h82q1 -72 28.5 -102.5t82.5 -30.5t82.5 30.5t28.5 102.5h82q-1 -104 -53.5 -152.5t-139.5 -48.5z" />
    <glyph glyph-name="Gdotaccent" unicode="&#x120;" 
d="M326 -10q-119 0 -179 74.5t-60 201.5v264q0 137 60 208.5t174 71.5q104 0 156.5 -60t59.5 -191l-81 -10q-6 101 -37.5 145t-99.5 44q-81 0 -116 -45.5t-35 -156.5v-277q0 -107 37.5 -152t123.5 -45q77 0 110.5 54t33.5 182h-161v72h242v-92q0 -140 -58.5 -214t-169.5 -74
zM320 916q-31 0 -50.5 10.5t-19.5 40.5v5q0 31 19.5 42t50.5 11t50.5 -11t19.5 -42v-5q0 -30 -19.5 -40.5t-50.5 -10.5z" />
    <glyph glyph-name="Gcommaaccent" unicode="&#x122;" 
d="M209 -300l81 200h122l-128 -200h-75zM326 -10q-119 0 -179 74.5t-60 201.5v264q0 137 60 208.5t174 71.5q104 0 156.5 -60t59.5 -191l-81 -10q-6 101 -37.5 145t-99.5 44q-81 0 -116 -45.5t-35 -156.5v-277q0 -107 37.5 -152t123.5 -45q77 0 110.5 54t33.5 182h-161v72
h242v-92q0 -140 -58.5 -214t-169.5 -74z" />
    <glyph glyph-name="H" unicode="H" 
d="M105 0v800h80v-331h254v331h80v-800h-80v396h-254v-396h-80z" />
    <glyph glyph-name="Hcircumflex" unicode="&#x124;" 
d="M105 0v800h80v-331h254v331h80v-800h-80v396h-254v-396h-80zM168 918l-38 50l153 146h57l154 -146l-39 -51l-144 112z" />
    <glyph glyph-name="I" unicode="I" 
d="M105 0v72h167v656h-167v72h414v-72h-167v-656h167v-72h-414z" />
    <glyph glyph-name="Igrave" unicode="&#xcc;" 
d="M105 0v72h167v656h-167v72h414v-72h-167v-656h167v-72h-414zM314 900l-162 200h121l115 -200h-74z" />
    <glyph glyph-name="Iacute" unicode="&#xcd;" 
d="M105 0v72h167v656h-167v72h414v-72h-167v-656h167v-72h-414zM218 900l114 200h122l-162 -200h-74z" />
    <glyph glyph-name="Icircumflex" unicode="&#xce;" 
d="M105 0v72h167v656h-167v72h414v-72h-167v-656h167v-72h-414zM168 918l-38 50l153 146h57l154 -146l-39 -51l-144 112z" />
    <glyph glyph-name="Idieresis" unicode="&#xcf;" 
d="M105 0v72h167v656h-167v72h414v-72h-167v-656h167v-72h-414zM216 916q-24 0 -38.5 10.5t-14.5 40.5v5q0 31 14.5 42t38.5 11q25 0 39 -11t14 -42v-5q0 -30 -14.5 -40.5t-38.5 -10.5zM408 916q-25 0 -39 10.5t-14 40.5v5q0 31 14 42t39 11q23 0 38 -11t15 -42v-5
q0 -30 -15 -40.5t-38 -10.5z" />
    <glyph glyph-name="Itilde" unicode="&#x128;" 
d="M105 0v72h167v656h-167v72h414v-72h-167v-656h167v-72h-414zM377 910q-32 0 -51.5 19.5t-33.5 41.5l-25 41t-28 19q-19 0 -29 -24t-9 -78v-9h-63v15q0 72 28 120.5t81 48.5q35 0 55.5 -19.5t33.5 -40.5l23.5 -41t25.5 -19q18 0 28.5 23.5t10.5 77.5v10h62v-15
q0 -74 -28 -122t-81 -48z" />
    <glyph glyph-name="Imacron" unicode="&#x12a;" 
d="M105 0v72h167v656h-167v72h414v-72h-167v-656h167v-72h-414zM146 964v72h332v-72h-332z" />
    <glyph glyph-name="Ibreve" unicode="&#x12c;" 
d="M105 0v72h167v656h-167v72h414v-72h-167v-656h167v-72h-414zM312 893q-87 0 -139.5 48.5t-53.5 152.5h82q1 -72 28.5 -102.5t82.5 -30.5t82.5 30.5t28.5 102.5h82q-1 -104 -53.5 -152.5t-139.5 -48.5z" />
    <glyph glyph-name="Iogonek" unicode="&#x12e;" 
d="M105 0v72h167v656h-167v72h414v-72h-167v-656h167v-72h-414zM370 -213q-52 0 -88 31.5t-36 85.5q0 44 32 80t69 54l22 -15q-30 -22 -40 -49t-10 -46q0 -28 16 -43.5t44 -15.5q15 0 38 3.5t36 6.5v-82q-16 -4 -40 -7t-43 -3z" />
    <glyph glyph-name="Idotaccent" unicode="&#x130;" 
d="M105 0v72h167v656h-167v72h414v-72h-167v-656h167v-72h-414zM312 916q-31 0 -50.5 10.5t-19.5 40.5v5q0 31 19.5 42t50.5 11t50.5 -11t19.5 -42v-5q0 -30 -19.5 -40.5t-50.5 -10.5z" />
    <glyph glyph-name="J" unicode="J" 
d="M296 -10q-112 0 -166 61t-59 197l80 11q7 -116 36 -156.5t110 -40.5q72 0 107.5 45.5t35.5 135.5v485h-166v72h246v-555q0 -125 -58.5 -190t-165.5 -65z" />
    <glyph glyph-name="Jcircumflex" unicode="&#x134;" 
d="M296 -10q-112 0 -166 61t-59 197l80 11q7 -116 36 -156.5t110 -40.5q72 0 107.5 45.5t35.5 135.5v485h-166v72h246v-555q0 -125 -58.5 -190t-165.5 -65zM244 918l-38 50l153 146h57l154 -146l-39 -51l-144 112z" />
    <glyph glyph-name="K" unicode="K" 
d="M185 393v-393h-80v800h80v-334h28l262 334h94l-296 -367l294 -433h-98l-253 393h-31z" />
    <glyph glyph-name="Kcommaaccent" unicode="&#x136;" 
d="M185 393v-393h-80v800h80v-334h28l262 334h94l-296 -367l294 -433h-98l-253 393h-31zM200 -300l81 200h122l-128 -200h-75z" />
    <glyph glyph-name="L" unicode="L" 
d="M147 0v800h79v-728h293v-72h-372z" />
    <glyph glyph-name="Lacute" unicode="&#x139;" 
d="M147 0v800h79v-728h293v-72h-372zM179 900l114 200h122l-162 -200h-74z" />
    <glyph glyph-name="Lcommaaccent" unicode="&#x13b;" 
d="M147 0v800h79v-728h293v-72h-372zM212 -300l81 200h122l-128 -200h-75z" />
    <glyph glyph-name="Lcaron" unicode="&#x13d;" 
d="M147 0v800h79v-728h293v-72h-372zM342 505l68 295h119l-129 -295h-58z" />
    <glyph glyph-name="M" unicode="M" 
d="M272 186l-124 492l-1 -678h-72v800h110l130 -504l128 504h106v-800h-72l-1 672l-124 -486h-80z" />
    <glyph glyph-name="N" unicode="N" 
d="M402 0l-225 713v-713h-72v800h111l231 -712v712h72v-800h-117z" />
    <glyph glyph-name="Ntilde" unicode="&#xd1;" 
d="M402 0l-225 713v-713h-72v800h111l231 -712v712h72v-800h-117zM394 910q-32 0 -51.5 19.5t-33.5 41.5l-25 41t-28 19q-19 0 -29 -24t-9 -78v-9h-63v15q0 72 28 120.5t81 48.5q35 0 55.5 -19.5t33.5 -40.5l23.5 -41t25.5 -19q18 0 28.5 23.5t10.5 77.5v10h62v-15
q0 -74 -28 -122t-81 -48z" />
    <glyph glyph-name="Nacute" unicode="&#x143;" 
d="M402 0l-225 713v-713h-72v800h111l231 -712v712h72v-800h-117zM234 900l114 200h122l-162 -200h-74z" />
    <glyph glyph-name="Ncommaaccent" unicode="&#x145;" 
d="M184 -300l81 200h122l-128 -200h-75zM402 0l-225 713v-713h-72v800h111l231 -712v712h72v-800h-117z" />
    <glyph glyph-name="Ncaron" unicode="&#x147;" 
d="M402 0l-225 713v-713h-72v800h111l231 -712v712h72v-800h-117zM301 904l-154 146l39 50l144 -110l143 110l38 -50l-153 -146h-57z" />
    <glyph glyph-name="O" unicode="O" 
d="M312 -10q-109 0 -167 71.5t-58 208.5v256q0 140 58 212t168 72q109 0 166.5 -72t57.5 -212v-256q0 -137 -57.5 -208.5t-167.5 -71.5zM312 62q78 0 111 46.5t33 155.5v268q0 111 -33 158.5t-111 47.5t-111 -47.5t-33 -158.5v-268q0 -109 33 -155.5t111 -46.5z" />
    <glyph glyph-name="Ograve" unicode="&#xd2;" 
d="M312 -10q-109 0 -167 71.5t-58 208.5v256q0 140 58 212t168 72q109 0 166.5 -72t57.5 -212v-256q0 -137 -57.5 -208.5t-167.5 -71.5zM312 62q78 0 111 46.5t33 155.5v268q0 111 -33 158.5t-111 47.5t-111 -47.5t-33 -158.5v-268q0 -109 33 -155.5t111 -46.5zM314 900
l-162 200h121l115 -200h-74z" />
    <glyph glyph-name="Oacute" unicode="&#xd3;" 
d="M312 -10q-109 0 -167 71.5t-58 208.5v256q0 140 58 212t168 72q109 0 166.5 -72t57.5 -212v-256q0 -137 -57.5 -208.5t-167.5 -71.5zM312 62q78 0 111 46.5t33 155.5v268q0 111 -33 158.5t-111 47.5t-111 -47.5t-33 -158.5v-268q0 -109 33 -155.5t111 -46.5zM252 900
l114 200h122l-162 -200h-74z" />
    <glyph glyph-name="Ocircumflex" unicode="&#xd4;" 
d="M312 -10q-109 0 -167 71.5t-58 208.5v256q0 140 58 212t168 72q109 0 166.5 -72t57.5 -212v-256q0 -137 -57.5 -208.5t-167.5 -71.5zM312 62q78 0 111 46.5t33 155.5v268q0 111 -33 158.5t-111 47.5t-111 -47.5t-33 -158.5v-268q0 -109 33 -155.5t111 -46.5zM168 918
l-38 50l153 146h57l154 -146l-39 -51l-144 112z" />
    <glyph glyph-name="Otilde" unicode="&#xd5;" 
d="M312 -10q-109 0 -167 71.5t-58 208.5v256q0 140 58 212t168 72q109 0 166.5 -72t57.5 -212v-256q0 -137 -57.5 -208.5t-167.5 -71.5zM312 62q78 0 111 46.5t33 155.5v268q0 111 -33 158.5t-111 47.5t-111 -47.5t-33 -158.5v-268q0 -109 33 -155.5t111 -46.5zM377 910
q-32 0 -51.5 19.5t-33.5 41.5l-25 41t-28 19q-19 0 -29 -24t-9 -78v-9h-63v15q0 72 28 120.5t81 48.5q35 0 55.5 -19.5t33.5 -40.5l23.5 -41t25.5 -19q18 0 28.5 23.5t10.5 77.5v10h62v-15q0 -74 -28 -122t-81 -48z" />
    <glyph glyph-name="Odieresis" unicode="&#xd6;" 
d="M312 -10q-109 0 -167 71.5t-58 208.5v256q0 140 58 212t168 72q109 0 166.5 -72t57.5 -212v-256q0 -137 -57.5 -208.5t-167.5 -71.5zM312 62q78 0 111 46.5t33 155.5v268q0 111 -33 158.5t-111 47.5t-111 -47.5t-33 -158.5v-268q0 -109 33 -155.5t111 -46.5zM216 916
q-24 0 -38.5 10.5t-14.5 40.5v5q0 31 14.5 42t38.5 11q25 0 39 -11t14 -42v-5q0 -30 -14.5 -40.5t-38.5 -10.5zM408 916q-25 0 -39 10.5t-14 40.5v5q0 31 14 42t39 11q23 0 38 -11t15 -42v-5q0 -30 -15 -40.5t-38 -10.5z" />
    <glyph glyph-name="Omacron" unicode="&#x14c;" 
d="M312 -10q-109 0 -167 71.5t-58 208.5v256q0 140 58 212t168 72q109 0 166.5 -72t57.5 -212v-256q0 -137 -57.5 -208.5t-167.5 -71.5zM312 62q78 0 111 46.5t33 155.5v268q0 111 -33 158.5t-111 47.5t-111 -47.5t-33 -158.5v-268q0 -109 33 -155.5t111 -46.5zM146 964v72
h332v-72h-332z" />
    <glyph glyph-name="Obreve" unicode="&#x14e;" 
d="M312 -10q-109 0 -167 71.5t-58 208.5v256q0 140 58 212t168 72q109 0 166.5 -72t57.5 -212v-256q0 -137 -57.5 -208.5t-167.5 -71.5zM312 62q78 0 111 46.5t33 155.5v268q0 111 -33 158.5t-111 47.5t-111 -47.5t-33 -158.5v-268q0 -109 33 -155.5t111 -46.5zM312 893
q-87 0 -139.5 48.5t-53.5 152.5h82q1 -72 28.5 -102.5t82.5 -30.5t82.5 30.5t28.5 102.5h82q-1 -104 -53.5 -152.5t-139.5 -48.5z" />
    <glyph glyph-name="Ohungarumlaut" unicode="&#x150;" 
d="M312 -10q-109 0 -167 71.5t-58 208.5v256q0 140 58 212t168 72q109 0 166.5 -72t57.5 -212v-256q0 -137 -57.5 -208.5t-167.5 -71.5zM312 62q78 0 111 46.5t33 155.5v268q0 111 -33 158.5t-111 47.5t-111 -47.5t-33 -158.5v-268q0 -109 33 -155.5t111 -46.5zM359 900
l47 200h115l-104 -200h-58zM167 900l47 200h115l-104 -200h-58z" />
    <glyph glyph-name="P" unicode="P" 
d="M105 0v800h234q108 0 157 -50.5t49 -159.5v-86q0 -110 -50 -161.5t-158 -51.5h-152v-291h-80zM185 361h151q69 0 99 32.5t30 106.5v91q0 72 -30 104.5t-99 32.5h-151v-367z" />
    <glyph glyph-name="Q" unicode="Q" 
d="M564 -185q-104 -28 -179 4t-78 160q-107 2 -163.5 74.5t-56.5 207.5v265q0 138 58.5 211t167.5 73q108 0 166 -73t58 -211v-265q0 -110 -38.5 -179t-110.5 -91q3 -87 52 -103t111 -3zM312 61q78 0 111 44t33 145v286q0 106 -33 152t-111 46t-111 -46t-33 -152v-286
q0 -101 33 -145t111 -44z" />
    <glyph glyph-name="R" unicode="R" 
d="M185 389h170q68 0 98 34.5t30 108.5v63q0 69 -30 101t-98 32h-170v-339zM185 0h-80v800h251q104 0 155.5 -51.5t51.5 -156.5v-59q0 -98 -41.5 -151t-125.5 -63l174 -319h-92l-173 319h-120v-319z" />
    <glyph glyph-name="Racute" unicode="&#x154;" 
d="M185 389h170q68 0 98 34.5t30 108.5v63q0 69 -30 101t-98 32h-170v-339zM185 0h-80v800h251q104 0 155.5 -51.5t51.5 -156.5v-59q0 -98 -41.5 -151t-125.5 -63l174 -319h-92l-173 319h-120v-319zM283 900l114 200h122l-162 -200h-74z" />
    <glyph glyph-name="Rcommaaccent" unicode="&#x156;" 
d="M185 389h170q68 0 98 34.5t30 108.5v63q0 69 -30 101t-98 32h-170v-339zM185 0h-80v800h251q104 0 155.5 -51.5t51.5 -156.5v-59q0 -98 -41.5 -151t-125.5 -63l174 -319h-92l-173 319h-120v-319zM189 -300l81 200h122l-128 -200h-75z" />
    <glyph glyph-name="Rcaron" unicode="&#x158;" 
d="M185 389h170q68 0 98 34.5t30 108.5v63q0 69 -30 101t-98 32h-170v-339zM185 0h-80v800h251q104 0 155.5 -51.5t51.5 -156.5v-59q0 -98 -41.5 -151t-125.5 -63l174 -319h-92l-173 319h-120v-319zM289 904l-154 146l39 50l144 -110l143 110l38 -50l-153 -146h-57z" />
    <glyph glyph-name="S" unicode="S" 
d="M323 -8q-72 0 -138.5 27t-114.5 81l44 61q43 -49 98.5 -72.5t118.5 -23.5q67 0 107.5 38t40.5 105q0 57 -34.5 90t-142.5 76q-123 47 -170 96.5t-47 132.5q0 97 59.5 148t153.5 51q66 0 130 -27.5t107 -81.5l-41 -64q-42 49 -95 75t-106 26q-58 0 -93 -31t-35 -91
q0 -54 36.5 -86.5t150.5 -76.5q117 -43 161.5 -90.5t44.5 -129.5q0 -110 -67.5 -171.5t-167.5 -61.5z" />
    <glyph glyph-name="Sacute" unicode="&#x15a;" 
d="M323 -8q-72 0 -138.5 27t-114.5 81l44 61q43 -49 98.5 -72.5t118.5 -23.5q67 0 107.5 38t40.5 105q0 57 -34.5 90t-142.5 76q-123 47 -170 96.5t-47 132.5q0 97 59.5 148t153.5 51q66 0 130 -27.5t107 -81.5l-41 -64q-42 49 -95 75t-106 26q-58 0 -93 -31t-35 -91
q0 -54 36.5 -86.5t150.5 -76.5q117 -43 161.5 -90.5t44.5 -129.5q0 -110 -67.5 -171.5t-167.5 -61.5zM219 900l114 200h122l-162 -200h-74z" />
    <glyph glyph-name="Scircumflex" unicode="&#x15c;" 
d="M323 -8q-72 0 -138.5 27t-114.5 81l44 61q43 -49 98.5 -72.5t118.5 -23.5q67 0 107.5 38t40.5 105q0 57 -34.5 90t-142.5 76q-123 47 -170 96.5t-47 132.5q0 97 59.5 148t153.5 51q66 0 130 -27.5t107 -81.5l-41 -64q-42 49 -95 75t-106 26q-58 0 -93 -31t-35 -91
q0 -54 36.5 -86.5t150.5 -76.5q117 -43 161.5 -90.5t44.5 -129.5q0 -110 -67.5 -171.5t-167.5 -61.5zM169 918l-38 50l153 146h57l154 -146l-39 -51l-144 112z" />
    <glyph glyph-name="Scedilla" unicode="&#x15e;" 
d="M323 -8q-72 0 -138.5 27t-114.5 81l44 61q43 -49 98.5 -72.5t118.5 -23.5q67 0 107.5 38t40.5 105q0 57 -34.5 90t-142.5 76q-123 47 -170 96.5t-47 132.5q0 97 59.5 148t153.5 51q66 0 130 -27.5t107 -81.5l-41 -64q-42 49 -95 75t-106 26q-58 0 -93 -31t-35 -91
q0 -54 36.5 -86.5t150.5 -76.5q117 -43 161.5 -90.5t44.5 -129.5q0 -110 -67.5 -171.5t-167.5 -61.5zM288 0l16 42q44 -10 73 -43t29 -90q0 -63 -38 -92.5t-82 -29.5q-53 0 -87 21.5t-38 75.5l71 10q1 -19 12.5 -26.5t37.5 -7.5q25 0 38 13t13 47q0 37 -10 54.5t-35 25.5z
" />
    <glyph glyph-name="Scaron" unicode="&#x160;" 
d="M323 -8q-72 0 -138.5 27t-114.5 81l44 61q43 -49 98.5 -72.5t118.5 -23.5q67 0 107.5 38t40.5 105q0 57 -34.5 90t-142.5 76q-123 47 -170 96.5t-47 132.5q0 97 59.5 148t153.5 51q66 0 130 -27.5t107 -81.5l-41 -64q-42 49 -95 75t-106 26q-58 0 -93 -31t-35 -91
q0 -54 36.5 -86.5t150.5 -76.5q117 -43 161.5 -90.5t44.5 -129.5q0 -110 -67.5 -171.5t-167.5 -61.5zM285 904l-154 146l39 50l144 -110l143 110l38 -50l-153 -146h-57z" />
    <glyph glyph-name="Scommaaccent" unicode="&#x218;" 
d="M323 -8q-72 0 -138.5 27t-114.5 81l44 61q43 -49 98.5 -72.5t118.5 -23.5q67 0 107.5 38t40.5 105q0 57 -34.5 90t-142.5 76q-123 47 -170 96.5t-47 132.5q0 97 59.5 148t153.5 51q66 0 130 -27.5t107 -81.5l-41 -64q-42 49 -95 75t-106 26q-58 0 -93 -31t-35 -91
q0 -54 36.5 -86.5t150.5 -76.5q117 -43 161.5 -90.5t44.5 -129.5q0 -110 -67.5 -171.5t-167.5 -61.5zM185 -300l81 200h122l-128 -200h-75z" />
    <glyph glyph-name="T" unicode="T" 
d="M272 0v728h-206v72h493v-72h-207v-728h-80z" />
    <glyph glyph-name="Tcedilla" unicode="&#x162;" 
d="M272 0v728h-206v72h493v-72h-207v-728h-80zM276 0l16 42q44 -10 73 -43t29 -90q0 -63 -38 -92.5t-82 -29.5q-53 0 -87 21.5t-38 75.5l71 10q1 -19 12.5 -26.5t37.5 -7.5q25 0 38 13t13 47q0 37 -10 54.5t-35 25.5z" />
    <glyph glyph-name="Tcaron" unicode="&#x164;" 
d="M272 0v728h-206v72h493v-72h-207v-728h-80zM284 904l-154 146l39 50l144 -110l143 110l38 -50l-153 -146h-57z" />
    <glyph glyph-name="Tcommaaccent" unicode="&#x21a;" 
d="M272 0v728h-206v72h493v-72h-207v-728h-80zM183 -300l81 200h122l-128 -200h-75z" />
    <glyph glyph-name="U" unicode="U" 
d="M312 -10q-104 0 -155.5 67t-51.5 204v539h80v-544q0 -107 29 -151.5t98 -44.5q70 0 98.5 44.5t28.5 151.5v544h80v-539q0 -137 -51.5 -204t-155.5 -67z" />
    <glyph glyph-name="Ugrave" unicode="&#xd9;" 
d="M312 -10q-104 0 -155.5 67t-51.5 204v539h80v-544q0 -107 29 -151.5t98 -44.5q70 0 98.5 44.5t28.5 151.5v544h80v-539q0 -137 -51.5 -204t-155.5 -67zM314 900l-162 200h121l115 -200h-74z" />
    <glyph glyph-name="Uacute" unicode="&#xda;" 
d="M312 -10q-104 0 -155.5 67t-51.5 204v539h80v-544q0 -107 29 -151.5t98 -44.5q70 0 98.5 44.5t28.5 151.5v544h80v-539q0 -137 -51.5 -204t-155.5 -67zM218 900l114 200h122l-162 -200h-74z" />
    <glyph glyph-name="Ucircumflex" unicode="&#xdb;" 
d="M312 -10q-104 0 -155.5 67t-51.5 204v539h80v-544q0 -107 29 -151.5t98 -44.5q70 0 98.5 44.5t28.5 151.5v544h80v-539q0 -137 -51.5 -204t-155.5 -67zM168 918l-38 50l153 146h57l154 -146l-39 -51l-144 112z" />
    <glyph glyph-name="Udieresis" unicode="&#xdc;" 
d="M312 -10q-104 0 -155.5 67t-51.5 204v539h80v-544q0 -107 29 -151.5t98 -44.5q70 0 98.5 44.5t28.5 151.5v544h80v-539q0 -137 -51.5 -204t-155.5 -67zM216 916q-24 0 -38.5 10.5t-14.5 40.5v5q0 31 14.5 42t38.5 11q25 0 39 -11t14 -42v-5q0 -30 -14.5 -40.5
t-38.5 -10.5zM408 916q-25 0 -39 10.5t-14 40.5v5q0 31 14 42t39 11q23 0 38 -11t15 -42v-5q0 -30 -15 -40.5t-38 -10.5z" />
    <glyph glyph-name="Utilde" unicode="&#x168;" 
d="M312 -10q-104 0 -155.5 67t-51.5 204v539h80v-544q0 -107 29 -151.5t98 -44.5q70 0 98.5 44.5t28.5 151.5v544h80v-539q0 -137 -51.5 -204t-155.5 -67zM377 910q-32 0 -51.5 19.5t-33.5 41.5l-25 41t-28 19q-19 0 -29 -24t-9 -78v-9h-63v15q0 72 28 120.5t81 48.5
q35 0 55.5 -19.5t33.5 -40.5l23.5 -41t25.5 -19q18 0 28.5 23.5t10.5 77.5v10h62v-15q0 -74 -28 -122t-81 -48z" />
    <glyph glyph-name="Umacron" unicode="&#x16a;" 
d="M312 -10q-104 0 -155.5 67t-51.5 204v539h80v-544q0 -107 29 -151.5t98 -44.5q70 0 98.5 44.5t28.5 151.5v544h80v-539q0 -137 -51.5 -204t-155.5 -67zM146 964v72h332v-72h-332z" />
    <glyph glyph-name="Ubreve" unicode="&#x16c;" 
d="M312 -10q-104 0 -155.5 67t-51.5 204v539h80v-544q0 -107 29 -151.5t98 -44.5q70 0 98.5 44.5t28.5 151.5v544h80v-539q0 -137 -51.5 -204t-155.5 -67zM312 893q-87 0 -139.5 48.5t-53.5 152.5h82q1 -72 28.5 -102.5t82.5 -30.5t82.5 30.5t28.5 102.5h82
q-1 -104 -53.5 -152.5t-139.5 -48.5z" />
    <glyph glyph-name="Uring" unicode="&#x16e;" 
d="M312 -10q-104 0 -155.5 67t-51.5 204v539h80v-544q0 -107 29 -151.5t98 -44.5q70 0 98.5 44.5t28.5 151.5v544h80v-539q0 -137 -51.5 -204t-155.5 -67zM312 888q-59 0 -95.5 35t-36.5 107v32q0 73 36.5 109t95.5 36q60 0 96 -36t36 -109v-32q0 -72 -36.5 -107t-95.5 -35z
M312 953q34 0 51.5 17.5t17.5 59.5v32q0 41 -17.5 60.5t-51.5 19.5t-51.5 -19.5t-17.5 -60.5v-32q0 -42 17.5 -59.5t51.5 -17.5z" />
    <glyph glyph-name="Uhungarumlaut" unicode="&#x170;" 
d="M312 -10q-104 0 -155.5 67t-51.5 204v539h80v-544q0 -107 29 -151.5t98 -44.5q70 0 98.5 44.5t28.5 151.5v544h80v-539q0 -137 -51.5 -204t-155.5 -67zM367 900l47 200h115l-104 -200h-58zM175 900l47 200h115l-104 -200h-58z" />
    <glyph glyph-name="Uogonek" unicode="&#x172;" 
d="M369 -213q-52 0 -88 31.5t-36 85.5q0 44 32 80t69 54l22 -15q-30 -22 -40 -49t-10 -46q0 -28 16 -43.5t44 -15.5q15 0 38 3.5t36 6.5v-82q-16 -4 -40 -7t-43 -3zM312 -10q-104 0 -155.5 67t-51.5 204v539h80v-544q0 -107 29 -151.5t98 -44.5q70 0 98.5 44.5t28.5 151.5
v544h80v-539q0 -137 -51.5 -204t-155.5 -67z" />
    <glyph glyph-name="V" unicode="V" 
d="M354 0h-83l-217 800h87l173 -670l172 670h84z" />
    <glyph glyph-name="W" unicode="W" 
d="M412 0l-101 499l-99 -499h-81l-90 800h80l61 -663l89 463h86l89 -465l62 665h75l-90 -800h-81z" />
    <glyph glyph-name="Wcircumflex" unicode="&#x174;" 
d="M412 0l-101 499l-99 -499h-81l-90 800h80l61 -663l89 463h86l89 -465l62 665h75l-90 -800h-81zM168 918l-38 50l153 146h57l154 -146l-39 -51l-144 112z" />
    <glyph glyph-name="Wgrave" unicode="&#x1e80;" 
d="M412 0l-101 499l-99 -499h-81l-90 800h80l61 -663l89 463h86l89 -465l62 665h75l-90 -800h-81zM322 900l-162 200h121l115 -200h-74z" />
    <glyph glyph-name="Wacute" unicode="&#x1e82;" 
d="M412 0l-101 499l-99 -499h-81l-90 800h80l61 -663l89 463h86l89 -465l62 665h75l-90 -800h-81zM226 900l114 200h122l-162 -200h-74z" />
    <glyph glyph-name="Wdieresis" unicode="&#x1e84;" 
d="M412 0l-101 499l-99 -499h-81l-90 800h80l61 -663l89 463h86l89 -465l62 665h75l-90 -800h-81zM216 916q-24 0 -38.5 10.5t-14.5 40.5v5q0 31 14.5 42t38.5 11q25 0 39 -11t14 -42v-5q0 -30 -14.5 -40.5t-38.5 -10.5zM408 916q-25 0 -39 10.5t-14 40.5v5q0 31 14 42
t39 11q23 0 38 -11t15 -42v-5q0 -30 -15 -40.5t-38 -10.5z" />
    <glyph glyph-name="X" unicode="X" 
d="M494 0l-181 338l-182 -338h-94l234 408l-214 392h93l172 -323l174 323h94l-226 -392l223 -408h-93z" />
    <glyph glyph-name="Y" unicode="Y" 
d="M352 0h-80v300l-240 500h90l196 -418l185 418h89l-240 -500v-300z" />
    <glyph glyph-name="Yacute" unicode="&#xdd;" 
d="M352 0h-80v300l-240 500h90l196 -418l185 418h89l-240 -500v-300zM218 900l114 200h122l-162 -200h-74z" />
    <glyph glyph-name="Ycircumflex" unicode="&#x176;" 
d="M352 0h-80v300l-240 500h90l196 -418l185 418h89l-240 -500v-300zM168 918l-38 50l153 146h57l154 -146l-39 -51l-144 112z" />
    <glyph glyph-name="Ydieresis" unicode="&#x178;" 
d="M352 0h-80v300l-240 500h90l196 -418l185 418h89l-240 -500v-300zM216 916q-24 0 -38.5 10.5t-14.5 40.5v5q0 31 14.5 42t38.5 11q25 0 39 -11t14 -42v-5q0 -30 -14.5 -40.5t-38.5 -10.5zM408 916q-25 0 -39 10.5t-14 40.5v5q0 31 14 42t39 11q23 0 38 -11t15 -42v-5
q0 -30 -15 -40.5t-38 -10.5z" />
    <glyph glyph-name="Ygrave" unicode="&#x1ef2;" 
d="M352 0h-80v300l-240 500h90l196 -418l185 418h89l-240 -500v-300zM314 900l-162 200h121l115 -200h-74z" />
    <glyph glyph-name="Z" unicode="Z" 
d="M537 0h-450v72l357 656h-357v72h450v-72l-356 -656h356v-72z" />
    <glyph glyph-name="Zacute" unicode="&#x179;" 
d="M537 0h-450v72l357 656h-357v72h450v-72l-356 -656h356v-72zM243 900l114 200h122l-162 -200h-74z" />
    <glyph glyph-name="Zdotaccent" unicode="&#x17b;" 
d="M537 0h-450v72l357 656h-357v72h450v-72l-356 -656h356v-72zM312 916q-31 0 -50.5 10.5t-19.5 40.5v5q0 31 19.5 42t50.5 11t50.5 -11t19.5 -42v-5q0 -30 -19.5 -40.5t-50.5 -10.5z" />
    <glyph glyph-name="Zcaron" unicode="&#x17d;" 
d="M537 0h-450v72l357 656h-357v72h450v-72l-356 -656h356v-72zM284 904l-154 146l39 50l144 -110l143 110l38 -50l-153 -146h-57z" />
    <glyph glyph-name="AE" unicode="&#xc6;" 
d="M266 738l-102 -431h157v431h-55zM321 244h-173l-58 -244h-70l204 800h372v-62h-203v-277h195v-62h-195v-337h203v-62h-275v244z" />
    <glyph glyph-name="AEacute" unicode="&#x1fc;" 
d="M266 738l-102 -431h157v431h-55zM321 244h-173l-58 -244h-70l204 800h372v-62h-203v-277h195v-62h-195v-337h203v-62h-275v244zM327 900l114 200h122l-162 -200h-74z" />
    <glyph glyph-name="Eth" unicode="&#xd0;" 
d="M105 0v399h-83v82h83v319h181q116 0 183.5 -75t67.5 -200v-254q0 -123 -67.5 -197t-183.5 -74h-181zM185 72h102q83 0 126 53t43 141v264q0 89 -43 143.5t-126 54.5h-102v-247h127v-82h-127v-327z" />
    <glyph glyph-name="Oslash" unicode="&#xd8;" 
d="M185 126l193 601q-13 5 -30 8t-36 3q-78 0 -111 -46t-33 -154v-280q0 -42 4.5 -74.5t12.5 -57.5zM312 62q78 0 111 45t33 151v286q0 52 -6 90.5t-19 64.5l-199 -619q16 -9 36 -13.5t44 -4.5zM312 -10q-28 0 -52 4.5t-45 13.5l-38 -108h-82l54 156q-30 34 -46 86.5
t-16 121.5v268q0 135 58.5 206.5t167.5 71.5q22 0 42 -3t39 -10l35 103h82l-49 -143q37 -34 56 -91t19 -134v-268q0 -133 -58.5 -203.5t-166.5 -70.5z" />
    <glyph glyph-name="Oslashacute" unicode="&#x1fe;" 
d="M185 126l193 601q-13 5 -30 8t-36 3q-78 0 -111 -46t-33 -154v-280q0 -42 4.5 -74.5t12.5 -57.5zM312 62q78 0 111 45t33 151v286q0 52 -6 90.5t-19 64.5l-199 -619q16 -9 36 -13.5t44 -4.5zM312 -10q-28 0 -52 4.5t-45 13.5l-38 -108h-82l54 156q-30 34 -46 86.5
t-16 121.5v268q0 135 58.5 206.5t167.5 71.5q22 0 42 -3t39 -10l35 103h82l-49 -143q37 -34 56 -91t19 -134v-268q0 -133 -58.5 -203.5t-166.5 -70.5zM252 900l114 200h122l-162 -200h-74z" />
    <glyph glyph-name="Thorn" unicode="&#xde;" 
d="M105 0v800h80v-133h154q101 0 153.5 -54t52.5 -156v-77q0 -109 -53 -165.5t-155 -56.5h-152v-158h-80zM185 229h153q69 0 98 33t29 111v89q0 72 -29 102t-98 30h-153v-365z" />
    <glyph glyph-name="Dcroat" unicode="&#x110;" 
d="M105 0v399h-83v82h83v319h181q116 0 183.5 -75t67.5 -200v-254q0 -123 -67.5 -197t-183.5 -74h-181zM185 72h102q83 0 126 53t43 141v264q0 89 -43 143.5t-126 54.5h-102v-247h127v-82h-127v-327z" />
    <glyph glyph-name="Hbar" unicode="&#x126;" 
d="M185 433h254v130h-254v-130zM185 360v-360h-81v563h-85v81h85v156h81v-156h254v156h81v-156h85v-81h-85v-563h-81v360h-254z" />
    <glyph glyph-name="IJ" unicode="&#x132;" 
d="M152 0h-81v800h81v-800zM386 -10q-78 0 -118.5 59t-46.5 205l81 11q7 -116 23.5 -156.5t61.5 -40.5q46 0 66 48t20 129v479h-161v76h243v-551q0 -121 -41 -190t-128 -69z" />
    <glyph glyph-name="Ldot" unicode="&#x13f;" 
d="M147 0v800h79v-728h293v-72h-372zM513 419q-31 0 -50.5 10.5t-19.5 40.5v5q0 31 19.5 42t50.5 11t50.5 -11t19.5 -42v-5q0 -30 -19.5 -40.5t-50.5 -10.5z" />
    <glyph glyph-name="Lslash" unicode="&#x141;" 
d="M147 0v369l-85 -30v68l85 30v363h79v-334l210 75v-68l-210 -75v-326h293v-72h-372z" />
    <glyph glyph-name="Eng" unicode="&#x14a;" 
d="M326 -208q-30 0 -62.5 9.5t-69.5 25.5l17 88q34 -18 61 -27t52 -9q51 0 83 39t32 130v553q0 66 -27 98t-73 32t-81.5 -29t-72.5 -80v-622h-80v800h80v-96h25q18 48 60 77t94 29q72 0 113.5 -53.5t41.5 -140.5v-580q0 -118 -52.5 -181t-140.5 -63z" />
    <glyph glyph-name="OE" unicode="&#x152;" 
d="M245 0q-102 0 -159.5 72t-57.5 192v265q0 123 57.5 197t158.5 74h361v-62h-212v-264h214v-63h-214v-349h212v-62h-360zM245 60h76v680h-76q-72 0 -108.5 -56.5t-36.5 -150.5v-272q0 -93 36.5 -147t108.5 -54z" />
    <glyph glyph-name="Tbar" unicode="&#x166;" 
d="M272 0v316h-169v81h169v331h-206v72h493v-72h-207v-331h169v-81h-169v-316h-80z" />
    <glyph glyph-name="Alpha" unicode="&#x391;" 
d="M406 317l-95 379l-95 -379h190zM485 0l-61 244h-226l-61 -244h-83l217 800h83l216 -800h-85z" />
    <glyph glyph-name="Alphatonos" unicode="&#x386;" 
d="M406 317l-95 379l-95 -379h190zM485 0l-61 244h-226l-61 -244h-83l217 800h83l216 -800h-85zM44 700l64 200h114l-112 -200h-66z" />
    <glyph glyph-name="Beta" unicode="&#x392;" 
d="M105 0v800h205q103 0 153 -46.5t50 -141.5v-48q0 -47 -26.5 -82t-71.5 -44v-29q57 -6 91 -50.5t34 -113.5v-43q0 -102 -55.5 -152t-168.5 -50h-211zM185 454h134q61 0 88 29t27 95v22q0 66 -27 95t-88 29h-134v-270zM185 76h151q65 0 94.5 32.5t29.5 104.5v27
q0 73 -29.5 105.5t-94.5 32.5h-151v-302z" />
    <glyph glyph-name="Gamma" unicode="&#x393;" 
d="M103 0v800h433v-72h-353v-728h-80z" />
    <glyph glyph-name="Delta" unicode="&#x394;" 
d="M53 0v72l214 728h81l223 -728v-72h-518zM493 72l-182 626l-183 -626h365z" />
    <glyph glyph-name="Epsilon" unicode="&#x395;" 
d="M105 0v800h432v-72h-352v-254h310v-73h-310v-329h352v-72h-432z" />
    <glyph glyph-name="Epsilontonos" unicode="&#x388;" 
d="M105 0v800h432v-72h-352v-254h310v-73h-310v-329h352v-72h-432zM-72 700l64 200h114l-112 -200h-66z" />
    <glyph glyph-name="Zeta" unicode="&#x396;" 
d="M537 0h-450v72l357 656h-357v72h450v-72l-356 -656h356v-72z" />
    <glyph glyph-name="Eta" unicode="&#x397;" 
d="M105 0v800h80v-331h254v331h80v-800h-80v396h-254v-396h-80z" />
    <glyph glyph-name="Etatonos" unicode="&#x389;" 
d="M105 0v800h80v-331h254v331h80v-800h-80v396h-254v-396h-80zM-80 700l64 200h114l-112 -200h-66z" />
    <glyph glyph-name="Theta" unicode="&#x398;" 
d="M312 -10q-116 0 -176 70t-60 204v268q0 137 60.5 207.5t176.5 70.5q115 0 175 -70.5t60 -207.5v-268q0 -134 -60 -204t-176 -70zM312 62q84 0 120 45.5t36 150.5v280q0 108 -36 154t-120 46q-85 0 -120.5 -46t-35.5 -154v-280q0 -105 35.5 -150.5t120.5 -45.5zM233 366
v78h163v-78h-163z" />
    <glyph glyph-name="Iota" unicode="&#x399;" 
d="M105 0v72h167v656h-167v72h414v-72h-167v-656h167v-72h-414z" />
    <glyph glyph-name="Iotatonos" unicode="&#x38a;" 
d="M105 0v72h167v656h-167v72h414v-72h-167v-656h167v-72h-414zM-80 700l64 200h114l-112 -200h-66z" />
    <glyph glyph-name="Iotadieresis" unicode="&#x3aa;" 
d="M105 0v72h167v656h-167v72h414v-72h-167v-656h167v-72h-414zM216 916q-24 0 -38.5 10.5t-14.5 40.5v5q0 31 14.5 42t38.5 11q25 0 39 -11t14 -42v-5q0 -30 -14.5 -40.5t-38.5 -10.5zM408 916q-25 0 -39 10.5t-14 40.5v5q0 31 14 42t39 11q23 0 38 -11t15 -42v-5
q0 -30 -15 -40.5t-38 -10.5z" />
    <glyph glyph-name="Kappa" unicode="&#x39a;" 
d="M185 393v-393h-80v800h80v-334h28l262 334h94l-296 -367l294 -433h-98l-253 393h-31z" />
    <glyph glyph-name="Lambda" unicode="&#x39b;" 
d="M485 0l-174 696l-174 -696h-83l217 800h83l216 -800h-85z" />
    <glyph glyph-name="Mu" unicode="&#x39c;" 
d="M272 186l-124 492l-1 -678h-72v800h110l130 -504l128 504h106v-800h-72l-1 672l-124 -486h-80z" />
    <glyph glyph-name="Nu" unicode="&#x39d;" 
d="M402 0l-225 713v-713h-72v800h111l231 -712v712h72v-800h-117z" />
    <glyph glyph-name="Xi" unicode="&#x39e;" 
d="M87 728v72h450v-72h-450zM109 401v73h407v-73h-407zM87 0v72h450v-72h-450z" />
    <glyph glyph-name="Omicron" unicode="&#x39f;" 
d="M312 -10q-109 0 -167 71.5t-58 208.5v256q0 140 58 212t168 72q109 0 166.5 -72t57.5 -212v-256q0 -137 -57.5 -208.5t-167.5 -71.5zM312 62q78 0 111 46.5t33 155.5v268q0 111 -33 158.5t-111 47.5t-111 -47.5t-33 -158.5v-268q0 -109 33 -155.5t111 -46.5z" />
    <glyph glyph-name="Omicrontonos" unicode="&#x38c;" 
d="M316 -10q-109 0 -167 71.5t-58 208.5v256q0 140 58 212t168 72q109 0 166.5 -72t57.5 -212v-256q0 -137 -57.5 -208.5t-167.5 -71.5zM316 62q78 0 111 46.5t33 155.5v268q0 111 -33 158.5t-111 47.5t-111 -47.5t-33 -158.5v-268q0 -109 33 -155.5t111 -46.5zM-10 700
l64 200h114l-112 -200h-66z" />
    <glyph glyph-name="Pi" unicode="&#x3a0;" 
d="M105 0v800h414v-800h-80v728h-254v-728h-80z" />
    <glyph glyph-name="Rho" unicode="&#x3a1;" 
d="M105 0v800h234q108 0 157 -50.5t49 -159.5v-86q0 -110 -50 -161.5t-158 -51.5h-152v-291h-80zM185 361h151q69 0 99 32.5t30 106.5v91q0 72 -30 104.5t-99 32.5h-151v-367z" />
    <glyph glyph-name="Sigma" unicode="&#x3a3;" 
d="M538 0h-459v72l297 340l-297 316v72h459v-72h-352l251 -279v-66l-261 -311h362v-72z" />
    <glyph glyph-name="Tau" unicode="&#x3a4;" 
d="M272 0v728h-206v72h493v-72h-207v-728h-80z" />
    <glyph glyph-name="Upsilon" unicode="&#x3a5;" 
d="M352 0h-80v300l-240 500h90l196 -418l185 418h89l-240 -500v-300z" />
    <glyph glyph-name="Upsilontonos" unicode="&#x38e;" 
d="M352 0h-80v300l-240 500h90l196 -418l185 418h89l-240 -500v-300zM-106 700l64 200h114l-112 -200h-66z" />
    <glyph glyph-name="Upsilondieresis" unicode="&#x3ab;" 
d="M352 0h-80v300l-240 500h90l196 -418l185 418h89l-240 -500v-300zM216 916q-24 0 -38.5 10.5t-14.5 40.5v5q0 31 14.5 42t38.5 11q25 0 39 -11t14 -42v-5q0 -30 -14.5 -40.5t-38.5 -10.5zM408 916q-25 0 -39 10.5t-14 40.5v5q0 31 14 42t39 11q23 0 38 -11t15 -42v-5
q0 -30 -15 -40.5t-38 -10.5z" />
    <glyph glyph-name="Phi" unicode="&#x3a6;" 
d="M379 90h-26v-100h-82v100h-24q-93 0 -138.5 67t-45.5 189v104q0 125 45.5 192.5t138.5 67.5h24v100h82v-100h26q93 0 137.5 -67.5t44.5 -192.5v-104q0 -122 -44.5 -189t-137.5 -67zM378 634h-29v-468h29q54 0 78 42t24 138v104q0 99 -24 141.5t-78 42.5zM247 166h29v468
h-29q-54 0 -78.5 -42.5t-24.5 -141.5v-104q0 -96 24.5 -138t78.5 -42z" />
    <glyph glyph-name="Chi" unicode="&#x3a7;" 
d="M494 0l-181 338l-182 -338h-94l234 408l-214 392h93l172 -323l174 323h94l-226 -392l223 -408h-93z" />
    <glyph glyph-name="Psi" unicode="&#x3a8;" 
d="M353 0h-82v195q-91 11 -137 75t-46 171v359h77v-365q0 -80 24.5 -119.5t81.5 -47.5v532h82v-532q57 7 81.5 47t24.5 120v365h77v-359q0 -107 -45.5 -171t-137.5 -75v-195z" />
    <glyph glyph-name="Omega" unicode="&#x3a9;" 
d="M269 0h-190v81h109v98q-56 22 -82.5 77t-26.5 139v137q0 137 59.5 207.5t173.5 70.5q115 0 174 -70.5t59 -207.5v-137q0 -84 -26.5 -139t-82.5 -77v-98h109v-81h-190v230q62 12 85.5 50.5t23.5 114.5v136q0 113 -34 160.5t-118 47.5t-118 -47.5t-34 -160.5v-136
q0 -76 23.5 -114.5t85.5 -50.5v-230z" />
    <glyph glyph-name="Omegatonos" unicode="&#x38f;" 
d="M269 0h-190v81h109v98q-56 22 -82.5 77t-26.5 139v137q0 137 59.5 207.5t173.5 70.5q115 0 174 -70.5t59 -207.5v-137q0 -84 -26.5 -139t-82.5 -77v-98h109v-81h-190v230q62 12 85.5 50.5t23.5 114.5v136q0 113 -34 160.5t-118 47.5t-118 -47.5t-34 -160.5v-136
q0 -76 23.5 -114.5t85.5 -50.5v-230zM-31 700l64 200h114l-112 -200h-66z" />
    <glyph glyph-name="Ohm" unicode="&#x2126;" 
d="M269 0h-190v81h109v98q-56 22 -82.5 77t-26.5 139v137q0 137 59.5 207.5t173.5 70.5q115 0 174 -70.5t59 -207.5v-137q0 -84 -26.5 -139t-82.5 -77v-98h109v-81h-190v230q62 12 85.5 50.5t23.5 114.5v136q0 113 -34 160.5t-118 47.5t-118 -47.5t-34 -160.5v-136
q0 -76 23.5 -114.5t85.5 -50.5v-230z" />
    <glyph glyph-name="Djecyrillic" unicode="&#x402;" 
d="M173 0v728h-128v72h419v-72h-212v-208h111q95 0 142.5 -51t47.5 -151v-115q0 -101 -47.5 -152t-142.5 -51v70q55 0 82.5 31t27.5 104v111q0 72 -27.5 103t-82.5 31h-111v-450h-79z" />
    <glyph glyph-name="Ecyrillic" unicode="&#x404;" 
d="M553 251q-6 -129 -64.5 -195t-167.5 -66q-116 0 -175 69.5t-59 206.5v264q0 138 59 209t175 71q109 0 167.5 -67t64.5 -198l-79 -10q-8 109 -42.5 156t-109.5 47q-84 0 -119 -46.5t-35 -154.5v-63h192v-73h-192v-142q0 -106 35 -151.5t119 -45.5q75 0 110 46t42 153z" />
    <glyph glyph-name="Dzecyrillic" unicode="&#x405;" 
d="M323 -8q-72 0 -138.5 27t-114.5 81l44 61q43 -49 98.5 -72.5t118.5 -23.5q67 0 107.5 38t40.5 105q0 57 -34.5 90t-142.5 76q-123 47 -170 96.5t-47 132.5q0 97 59.5 148t153.5 51q66 0 130 -27.5t107 -81.5l-41 -64q-42 49 -95 75t-106 26q-58 0 -93 -31t-35 -91
q0 -54 36.5 -86.5t150.5 -76.5q117 -43 161.5 -90.5t44.5 -129.5q0 -110 -67.5 -171.5t-167.5 -61.5z" />
    <glyph glyph-name="Icyrillic" unicode="&#x406;" 
d="M105 0v72h167v656h-167v72h414v-72h-167v-656h167v-72h-414z" />
    <glyph glyph-name="Yicyrillic" unicode="&#x407;" 
d="M105 0v72h167v656h-167v72h414v-72h-167v-656h167v-72h-414zM216 916q-24 0 -38.5 10.5t-14.5 40.5v5q0 31 14.5 42t38.5 11q25 0 39 -11t14 -42v-5q0 -30 -14.5 -40.5t-38.5 -10.5zM408 916q-25 0 -39 10.5t-14 40.5v5q0 31 14 42t39 11q23 0 38 -11t15 -42v-5
q0 -30 -15 -40.5t-38 -10.5z" />
    <glyph glyph-name="Jecyrillic" unicode="&#x408;" 
d="M296 -10q-112 0 -166 61t-59 197l80 11q7 -116 36 -156.5t110 -40.5q72 0 107.5 45.5t35.5 135.5v485h-166v72h246v-555q0 -125 -58.5 -190t-165.5 -65z" />
    <glyph glyph-name="Ljecyrillic" unicode="&#x409;" 
d="M165 173q-2 -92 -31 -136t-78 -44q-13 0 -26 3t-26 8l16 77q8 -4 15.5 -6.5t14.5 -3.5q19 -2 29.5 19.5t11.5 75.5l10 634h248v-291h45q80 0 120 -55t40 -166v-71q0 -109 -40 -163t-119 -54h-121v721h-101zM349 79h45q41 0 62.5 31.5t21.5 105.5v77q0 75 -21.5 107
t-62.5 32h-45v-353z" />
    <glyph glyph-name="Njecyrillic" unicode="&#x40a;" 
d="M349 79h46q41 0 62 31.5t21 105.5v77q0 75 -21 107t-62 32h-46v-353zM146 396v-396h-75v800h75v-331h128v331h75v-291h46q79 0 119 -55t40 -166v-71q0 -109 -39.5 -163t-118.5 -54h-122v396h-128z" />
    <glyph glyph-name="Tshecyrillic" unicode="&#x40b;" 
d="M243 0h-79v728h-128v72h420v-72h-213v-241h118q96 0 144 -52.5t48 -157.5v-277h-80v278q0 72 -26 105t-84 33h-120v-416z" />
    <glyph glyph-name="Dzhecyrillic" unicode="&#x40f;" 
d="M272 -150v150h-167v800h80v-728h254v728h80v-800h-167v-150h-80z" />
    <glyph glyph-name="Acyrillic" unicode="&#x410;" 
d="M406 317l-95 379l-95 -379h190zM485 0l-61 244h-226l-61 -244h-83l217 800h83l216 -800h-85z" />
    <glyph glyph-name="Becyrillic" unicode="&#x411;" 
d="M105 0v800h394v-72h-314v-267h155q92 0 141 -49t49 -140v-68q0 -98 -49 -151t-140 -53h-236zM185 72h139q69 0 98 32t29 105v48q0 72 -29 103t-98 31h-139v-319z" />
    <glyph glyph-name="Vecyrillic" unicode="&#x412;" 
d="M105 0v800h205q103 0 153 -46.5t50 -141.5v-48q0 -47 -26.5 -82t-71.5 -44v-29q57 -6 91 -50.5t34 -113.5v-43q0 -102 -55.5 -152t-168.5 -50h-211zM185 454h134q61 0 88 29t27 95v22q0 66 -27 95t-88 29h-134v-270zM185 76h151q65 0 94.5 32.5t29.5 104.5v27
q0 73 -29.5 105.5t-94.5 32.5h-151v-302z" />
    <glyph glyph-name="Gecyrillic" unicode="&#x413;" 
d="M103 0v800h433v-72h-353v-728h-80z" />
    <glyph glyph-name="Gjecyrillic" unicode="&#x403;" 
d="M103 0v800h433v-72h-353v-728h-80zM256 900l114 200h122l-162 -200h-74z" />
    <glyph glyph-name="Decyrillic" unicode="&#x414;" 
d="M170 99v-27h253v656h-205l-3 -425q-1 -75 -8.5 -122t-36.5 -82zM110 0v-150h-81v222h49q30 29 44.5 87t15.5 150l2 491h363v-728h85v-222h-81v150h-397z" />
    <glyph glyph-name="Iecyrillic" unicode="&#x415;" 
d="M105 0v800h432v-72h-352v-254h310v-73h-310v-329h352v-72h-432z" />
    <glyph glyph-name="IEgravecyrillic" unicode="&#x400;" 
d="M105 0v800h432v-72h-352v-254h310v-73h-310v-329h352v-72h-432zM341 900l-162 200h121l115 -200h-74z" />
    <glyph glyph-name="Iocyrillic" unicode="&#x401;" 
d="M105 0v800h432v-72h-352v-254h310v-73h-310v-329h352v-72h-432zM242 916q-24 0 -38.5 10.5t-14.5 40.5v5q0 31 14.5 42t38.5 11q25 0 39 -11t14 -42v-5q0 -30 -14.5 -40.5t-38.5 -10.5zM434 916q-25 0 -39 10.5t-14 40.5v5q0 31 14 42t39 11q23 0 38 -11t15 -42v-5
q0 -30 -15 -40.5t-38 -10.5z" />
    <glyph glyph-name="Zhecyrillic" unicode="&#x416;" 
d="M241 396l-137 -396h-82l162 428l-159 372h77l139 -338h35v338h74v-338h35l138 338h78l-159 -369l160 -431h-81l-137 396h-34v-396h-74v396h-35z" />
    <glyph glyph-name="Zecyrillic" unicode="&#x417;" 
d="M303 -10q-110 0 -163.5 53.5t-60.5 169.5l81 10q7 -90 38.5 -126.5t104.5 -36.5q83 0 118 36.5t35 121.5v21q0 88 -29.5 120t-112.5 32h-85v73h85q72 0 99 25.5t27 93.5v28q0 69 -32 99t-105 30q-64 0 -92 -32.5t-35 -116.5l-80 10q6 110 57 159.5t157 49.5q98 0 154 -52
t56 -153v-33q0 -58 -35 -91.5t-96 -37.5v-29q74 -7 111 -53.5t37 -114.5v-27q0 -111 -56 -170t-178 -59z" />
    <glyph glyph-name="Iicyrillic" unicode="&#x418;" 
d="M447 0v713l-225 -713h-117v800h72v-712l231 712h111v-800h-72z" />
    <glyph glyph-name="Igravecyrillic" unicode="&#x40d;" 
d="M447 0v713l-225 -713h-117v800h72v-712l231 712h111v-800h-72zM306 900l-162 200h121l115 -200h-74z" />
    <glyph glyph-name="Iishortcyrillic" unicode="&#x419;" 
d="M447 0v713l-225 -713h-117v800h72v-712l231 712h111v-800h-72zM320 893q-71 0 -122.5 42t-52.5 149l81 10q1 -72 21 -102.5t73 -30.5t73 30.5t21 102.5l81 -10q-1 -107 -52.5 -149t-122.5 -42z" />
    <glyph glyph-name="Kacyrillic" unicode="&#x41a;" 
d="M185 393v-393h-80v800h80v-334h28l262 334h94l-296 -367l294 -433h-98l-253 393h-31z" />
    <glyph glyph-name="Kjecyrillic" unicode="&#x40c;" 
d="M185 393v-393h-80v800h80v-334h28l262 334h94l-296 -367l294 -433h-98l-253 393h-31zM275 900l114 200h122l-162 -200h-74z" />
    <glyph glyph-name="Elcyrillic" unicode="&#x41b;" 
d="M439 0v728h-205l-2 -493q-1 -123 -39.5 -183.5t-107.5 -60.5q-19 0 -36.5 3t-31.5 8l15 70q13 -6 24 -8.5t23 -2.5q40 0 57.5 45.5t17.5 141.5l3 552h362v-800h-80z" />
    <glyph glyph-name="Emcyrillic" unicode="&#x41c;" 
d="M272 186l-124 492l-1 -678h-72v800h110l130 -504l128 504h106v-800h-72l-1 672l-124 -486h-80z" />
    <glyph glyph-name="Encyrillic" unicode="&#x41d;" 
d="M105 0v800h80v-331h254v331h80v-800h-80v396h-254v-396h-80z" />
    <glyph glyph-name="Ocyrillic" unicode="&#x41e;" 
d="M312 -10q-109 0 -167 71.5t-58 208.5v256q0 140 58 212t168 72q109 0 166.5 -72t57.5 -212v-256q0 -137 -57.5 -208.5t-167.5 -71.5zM312 62q78 0 111 46.5t33 155.5v268q0 111 -33 158.5t-111 47.5t-111 -47.5t-33 -158.5v-268q0 -109 33 -155.5t111 -46.5z" />
    <glyph glyph-name="Pecyrillic" unicode="&#x41f;" 
d="M105 0v800h414v-800h-80v728h-254v-728h-80z" />
    <glyph glyph-name="Ercyrillic" unicode="&#x420;" 
d="M105 0v800h234q108 0 157 -50.5t49 -159.5v-86q0 -110 -50 -161.5t-158 -51.5h-152v-291h-80zM185 361h151q69 0 99 32.5t30 106.5v91q0 72 -30 104.5t-99 32.5h-151v-367z" />
    <glyph glyph-name="Escyrillic" unicode="&#x421;" 
d="M321 -10q-116 0 -175 69.5t-59 206.5v264q0 139 59 209.5t175 70.5q113 0 169 -64.5t63 -200.5l-79 -10q-8 113 -41.5 158t-111.5 45q-84 0 -118.5 -46t-34.5 -155v-278q0 -101 36.5 -149t116.5 -48q78 0 111 43.5t42 155.5l79 -10q-7 -134 -63 -197.5t-169 -63.5z" />
    <glyph glyph-name="Tecyrillic" unicode="&#x422;" 
d="M272 0v728h-206v72h493v-72h-207v-728h-80z" />
    <glyph glyph-name="Ucyrillic" unicode="&#x423;" 
d="M179 1q-16 0 -32.5 2t-33.5 6l14 72q18 -4 32.5 -6.5t26.5 -2.5q42 0 63 28t39 83l2 3h-28l-205 614h81l174 -554l178 554h76l-218 -648q-31 -89 -74.5 -120t-94.5 -31z" />
    <glyph glyph-name="Ushortcyrillic" unicode="&#x40e;" 
d="M179 1q-16 0 -32.5 2t-33.5 6l14 72q18 -4 32.5 -6.5t26.5 -2.5q42 0 63 28t39 83l2 3h-28l-205 614h81l174 -554l178 554h76l-218 -648q-31 -89 -74.5 -120t-94.5 -31zM312 893q-71 0 -122.5 42t-52.5 149l81 10q1 -72 21 -102.5t73 -30.5t73 30.5t21 102.5l81 -10
q-1 -107 -52.5 -149t-122.5 -42z" />
    <glyph glyph-name="Efcyrillic" unicode="&#x424;" 
d="M379 90h-26v-100h-82v100h-24q-93 0 -138.5 67t-45.5 189v104q0 125 45.5 192.5t138.5 67.5h24v100h82v-100h26q93 0 137.5 -67.5t44.5 -192.5v-104q0 -122 -44.5 -189t-137.5 -67zM378 634h-29v-468h29q54 0 78 42t24 138v104q0 99 -24 141.5t-78 42.5zM247 166h29v468
h-29q-54 0 -78.5 -42.5t-24.5 -141.5v-104q0 -96 24.5 -138t78.5 -42z" />
    <glyph glyph-name="Khacyrillic" unicode="&#x425;" 
d="M494 0l-181 338l-182 -338h-94l234 408l-214 392h93l172 -323l174 323h94l-226 -392l223 -408h-93z" />
    <glyph glyph-name="Tsecyrillic" unicode="&#x426;" 
d="M481 -150v150h-376v800h80v-728h212v728h80v-728h83v-222h-79z" />
    <glyph glyph-name="Checyrillic" unicode="&#x427;" 
d="M519 800v-800h-80v289h-127q-109 0 -158 47.5t-49 151.5v312h80v-310q0 -68 30 -99.5t97 -31.5h127v441h80z" />
    <glyph glyph-name="Shacyrillic" unicode="&#x428;" 
d="M71 0v800h75v-730h129v730h74v-730h129v730h75v-800h-482z" />
    <glyph glyph-name="Shchacyrillic" unicode="&#x429;" 
d="M590 -136h-78v136h-441v800h75v-730h129v730h74v-730h129v730h75v-730h37v-206z" />
    <glyph glyph-name="Hardsigncyrillic" unicode="&#x42a;" 
d="M372 0h-183v728h-160v72h240v-291h102q99 0 145 -51.5t46 -160.5v-89q0 -107 -46 -157.5t-144 -50.5zM269 72h103q57 0 83.5 33t26.5 103v94q0 70 -26.5 103.5t-83.5 33.5h-103v-367z" />
    <glyph glyph-name="Yericyrillic" unicode="&#x42b;" 
d="M88 0v800h74v-291h50q86 0 126.5 -52t40.5 -163v-83q0 -108 -40.5 -159.5t-125.5 -51.5h-125zM462 0v800h74v-800h-74zM162 70h49q46 0 69.5 32.5t23.5 107.5v89q0 75 -23.5 108.5t-69.5 33.5h-49v-371z" />
    <glyph glyph-name="Softsigncyrillic" unicode="&#x42c;" 
d="M105 0v800h80v-291h152q107 0 157 -52t50 -162v-85q0 -108 -50 -159t-157 -51h-232zM185 72h153q61 0 93.5 32.5t32.5 104.5v91q0 73 -32 106t-94 33h-153v-367z" />
    <glyph glyph-name="Ereversedcyrillic" unicode="&#x42d;" 
d="M321 -10q-109 0 -167.5 64.5t-65.5 196.5l80 10q7 -105 40 -152t112 -47q84 0 119 52t35 145v142h-227v73h227v63q0 108 -35 154.5t-119 46.5q-77 0 -111 -47t-41 -156l-80 10q7 134 65.5 199.5t166.5 65.5q123 0 178.5 -74.5t55.5 -205.5v-264q0 -130 -55 -203t-178 -73
z" />
    <glyph glyph-name="IUcyrillic" unicode="&#x42e;" 
d="M391 -10q-83 0 -122.5 63t-39.5 181v173h-83v-407h-75v800h75v-331h83v85q0 125 40 190.5t123 65.5q82 0 121.5 -65.5t39.5 -190.5v-320q0 -118 -39.5 -181t-122.5 -63zM391 58q46 0 66.5 41.5t20.5 134.5v320q0 98 -20.5 142.5t-66.5 44.5t-67 -44.5t-21 -142.5v-320
q0 -93 21 -134.5t67 -41.5z" />
    <glyph glyph-name="IAcyrillic" unicode="&#x42f;" 
d="M269 389h170v339h-170q-66 0 -97 -32.5t-31 -100.5v-63q0 -74 31 -108.5t97 -34.5zM439 319h-122l-166 -319h-97l174 318q-84 10 -125.5 63t-41.5 152v59q0 106 51 157t156 51h251v-800h-80v319z" />
    <glyph glyph-name="Gheupturncyrillic" unicode="&#x490;" 
d="M103 0v800h353v150h80v-222h-353v-728h-80z" />
    <glyph glyph-name="a" unicode="a" 
d="M251 67q50 0 86 21t61 70v102h-143q-44 0 -69.5 -21t-25.5 -72q0 -48 21 -74t70 -26zM241 -10q-71 0 -116.5 43t-45.5 127q0 78 44.5 123t113.5 45h161v98q0 46 -27.5 76.5t-82.5 30.5q-58 0 -85 -23t-42 -90l-71 23q15 82 65 124.5t131 42.5t136.5 -42.5t55.5 -126.5
v-298q0 -49 24.5 -65t76.5 -3v-80q-63 -8 -102.5 13t-43.5 87h-16q-22 -46 -69.5 -75.5t-106.5 -29.5z" />
    <glyph glyph-name="agrave" unicode="&#xe0;" 
d="M251 67q50 0 86 21t61 70v102h-143q-44 0 -69.5 -21t-25.5 -72q0 -48 21 -74t70 -26zM241 -10q-71 0 -116.5 43t-45.5 127q0 78 44.5 123t113.5 45h161v98q0 46 -27.5 76.5t-82.5 30.5q-58 0 -85 -23t-42 -90l-71 23q15 82 65 124.5t131 42.5t136.5 -42.5t55.5 -126.5
v-298q0 -49 24.5 -65t76.5 -3v-80q-63 -8 -102.5 13t-43.5 87h-16q-22 -46 -69.5 -75.5t-106.5 -29.5zM297 700l-162 200h121l115 -200h-74z" />
    <glyph glyph-name="aacute" unicode="&#xe1;" 
d="M251 67q50 0 86 21t61 70v102h-143q-44 0 -69.5 -21t-25.5 -72q0 -48 21 -74t70 -26zM241 -10q-71 0 -116.5 43t-45.5 127q0 78 44.5 123t113.5 45h161v98q0 46 -27.5 76.5t-82.5 30.5q-58 0 -85 -23t-42 -90l-71 23q15 82 65 124.5t131 42.5t136.5 -42.5t55.5 -126.5
v-298q0 -49 24.5 -65t76.5 -3v-80q-63 -8 -102.5 13t-43.5 87h-16q-22 -46 -69.5 -75.5t-106.5 -29.5zM201 700l114 200h122l-162 -200h-74z" />
    <glyph glyph-name="acircumflex" unicode="&#xe2;" 
d="M251 67q50 0 86 21t61 70v102h-143q-44 0 -69.5 -21t-25.5 -72q0 -48 21 -74t70 -26zM241 -10q-71 0 -116.5 43t-45.5 127q0 78 44.5 123t113.5 45h161v98q0 46 -27.5 76.5t-82.5 30.5q-58 0 -85 -23t-42 -90l-71 23q15 82 65 124.5t131 42.5t136.5 -42.5t55.5 -126.5
v-298q0 -49 24.5 -65t76.5 -3v-80q-63 -8 -102.5 13t-43.5 87h-16q-22 -46 -69.5 -75.5t-106.5 -29.5zM160 718l-38 50l153 146h57l154 -146l-39 -51l-144 112z" />
    <glyph glyph-name="atilde" unicode="&#xe3;" 
d="M251 67q50 0 86 21t61 70v102h-143q-44 0 -69.5 -21t-25.5 -72q0 -48 21 -74t70 -26zM241 -10q-71 0 -116.5 43t-45.5 127q0 78 44.5 123t113.5 45h161v98q0 46 -27.5 76.5t-82.5 30.5q-58 0 -85 -23t-42 -90l-71 23q15 82 65 124.5t131 42.5t136.5 -42.5t55.5 -126.5
v-298q0 -49 24.5 -65t76.5 -3v-80q-63 -8 -102.5 13t-43.5 87h-16q-22 -46 -69.5 -75.5t-106.5 -29.5zM360 710q-32 0 -51.5 19.5t-33.5 41.5l-25 41t-28 19q-19 0 -29 -24t-9 -78v-9h-63v15q0 72 28 120.5t81 48.5q35 0 55.5 -19.5t33.5 -40.5l23.5 -41t25.5 -19
q18 0 28.5 23.5t10.5 77.5v10h62v-15q0 -74 -28 -122t-81 -48z" />
    <glyph glyph-name="adieresis" unicode="&#xe4;" 
d="M251 67q50 0 86 21t61 70v102h-143q-44 0 -69.5 -21t-25.5 -72q0 -48 21 -74t70 -26zM241 -10q-71 0 -116.5 43t-45.5 127q0 78 44.5 123t113.5 45h161v98q0 46 -27.5 76.5t-82.5 30.5q-58 0 -85 -23t-42 -90l-71 23q15 82 65 124.5t131 42.5t136.5 -42.5t55.5 -126.5
v-298q0 -49 24.5 -65t76.5 -3v-80q-63 -8 -102.5 13t-43.5 87h-16q-22 -46 -69.5 -75.5t-106.5 -29.5zM199 716q-24 0 -38.5 10.5t-14.5 40.5v5q0 31 14.5 42t38.5 11q25 0 39 -11t14 -42v-5q0 -30 -14.5 -40.5t-38.5 -10.5zM391 716q-25 0 -39 10.5t-14 40.5v5q0 31 14 42
t39 11q23 0 38 -11t15 -42v-5q0 -30 -15 -40.5t-38 -10.5z" />
    <glyph glyph-name="aring" unicode="&#xe5;" 
d="M251 67q50 0 86 21t61 70v102h-143q-44 0 -69.5 -21t-25.5 -72q0 -48 21 -74t70 -26zM241 -10q-71 0 -116.5 43t-45.5 127q0 78 44.5 123t113.5 45h161v98q0 46 -27.5 76.5t-82.5 30.5q-58 0 -85 -23t-42 -90l-71 23q15 82 65 124.5t131 42.5t136.5 -42.5t55.5 -126.5
v-298q0 -49 24.5 -65t76.5 -3v-80q-63 -8 -102.5 13t-43.5 87h-16q-22 -46 -69.5 -75.5t-106.5 -29.5zM296 688q-59 0 -95.5 35t-36.5 107v32q0 73 36.5 109t95.5 36q60 0 96 -36t36 -109v-32q0 -72 -36.5 -107t-95.5 -35zM296 753q34 0 51.5 17.5t17.5 59.5v32
q0 41 -17.5 60.5t-51.5 19.5t-51.5 -19.5t-17.5 -60.5v-32q0 -42 17.5 -59.5t51.5 -17.5z" />
    <glyph glyph-name="amacron" unicode="&#x101;" 
d="M251 67q50 0 86 21t61 70v102h-143q-44 0 -69.5 -21t-25.5 -72q0 -48 21 -74t70 -26zM241 -10q-71 0 -116.5 43t-45.5 127q0 78 44.5 123t113.5 45h161v98q0 46 -27.5 76.5t-82.5 30.5q-58 0 -85 -23t-42 -90l-71 23q15 82 65 124.5t131 42.5t136.5 -42.5t55.5 -126.5
v-298q0 -49 24.5 -65t76.5 -3v-80q-63 -8 -102.5 13t-43.5 87h-16q-22 -46 -69.5 -75.5t-106.5 -29.5zM130 764v72h332v-72h-332z" />
    <glyph glyph-name="abreve" unicode="&#x103;" 
d="M251 67q50 0 86 21t61 70v102h-143q-44 0 -69.5 -21t-25.5 -72q0 -48 21 -74t70 -26zM241 -10q-71 0 -116.5 43t-45.5 127q0 78 44.5 123t113.5 45h161v98q0 46 -27.5 76.5t-82.5 30.5q-58 0 -85 -23t-42 -90l-71 23q15 82 65 124.5t131 42.5t136.5 -42.5t55.5 -126.5
v-298q0 -49 24.5 -65t76.5 -3v-80q-63 -8 -102.5 13t-43.5 87h-16q-22 -46 -69.5 -75.5t-106.5 -29.5zM296 693q-87 0 -139.5 48.5t-53.5 152.5h82q1 -72 28.5 -102.5t82.5 -30.5t82.5 30.5t28.5 102.5h82q-1 -104 -53.5 -152.5t-139.5 -48.5z" />
    <glyph glyph-name="aogonek" unicode="&#x105;" 
d="M251 67q50 0 86 21t61 70v102h-143q-44 0 -69.5 -21t-25.5 -72q0 -48 21 -74t70 -26zM241 -10q-71 0 -116.5 43t-45.5 127q0 78 44.5 123t113.5 45h161v98q0 46 -27.5 76.5t-82.5 30.5q-58 0 -85 -23t-42 -90l-71 23q15 82 65 124.5t131 42.5t136.5 -42.5t55.5 -126.5
v-298q0 -49 24.5 -65t76.5 -3v-80q-63 -8 -102.5 13t-43.5 87h-16q-22 -46 -69.5 -75.5t-106.5 -29.5zM518 -213q-52 0 -88 31.5t-36 85.5q0 44 32 80t69 54l22 -15q-30 -22 -40 -49t-10 -46q0 -28 16 -43.5t44 -15.5q15 0 38 3.5t36 6.5v-82q-16 -4 -40 -7t-43 -3z" />
    <glyph glyph-name="aringacute" unicode="&#x1fb;" 
d="M251 67q50 0 86 21t61 70v102h-143q-44 0 -69.5 -21t-25.5 -72q0 -48 21 -74t70 -26zM241 -10q-71 0 -116.5 43t-45.5 127q0 78 44.5 123t113.5 45h161v98q0 46 -27.5 76.5t-82.5 30.5q-58 0 -85 -23t-42 -90l-71 23q15 82 65 124.5t131 42.5t136.5 -42.5t55.5 -126.5
v-298q0 -49 24.5 -65t76.5 -3v-80q-63 -8 -102.5 13t-43.5 87h-16q-22 -46 -69.5 -75.5t-106.5 -29.5zM296 688q-59 0 -95.5 35t-36.5 107v32q0 73 36.5 109t95.5 36q60 0 96 -36t36 -109v-32q0 -72 -36.5 -107t-95.5 -35zM296 753q34 0 51.5 17.5t17.5 59.5v32
q0 41 -17.5 60.5t-51.5 19.5t-51.5 -19.5t-17.5 -60.5v-32q0 -42 17.5 -59.5t51.5 -17.5zM252 1000l114 200h122l-162 -200h-74z" />
    <glyph glyph-name="b" unicode="b" 
d="M306 -11q-56 0 -107.5 16t-93.5 49v746h79v-284h26q19 45 57.5 69.5t89.5 24.5q78 0 120 -57t42 -166v-181q0 -104 -56 -160.5t-157 -56.5zM304 62q71 0 103.5 35.5t32.5 110.5v189q0 70 -24.5 102t-78.5 32q-46 0 -82.5 -25.5t-70.5 -82.5v-326q28 -19 56.5 -27t63.5 -8
z" />
    <glyph glyph-name="c" unicode="c" 
d="M324 -10q-111 0 -165 55t-54 156v191q0 107 54.5 162.5t163.5 55.5q98 0 149 -49t57 -151l-78 -3q-4 73 -35 100.5t-94 27.5q-68 0 -103 -33t-35 -105v-199q0 -68 35.5 -100t104.5 -32q63 0 93 22t34 85l78 -3q-6 -93 -56.5 -136.5t-148.5 -43.5z" />
    <glyph glyph-name="ccedilla" unicode="&#xe7;" 
d="M324 -10q-111 0 -165 55t-54 156v191q0 107 54.5 162.5t163.5 55.5q98 0 149 -49t57 -151l-78 -3q-4 73 -35 100.5t-94 27.5q-68 0 -103 -33t-35 -105v-199q0 -68 35.5 -100t104.5 -32q63 0 93 22t34 85l78 -3q-6 -93 -56.5 -136.5t-148.5 -43.5zM282 0l16 42
q44 -10 73 -43t29 -90q0 -63 -38 -92.5t-82 -29.5q-53 0 -87 21.5t-38 75.5l71 10q1 -19 12.5 -26.5t37.5 -7.5q25 0 38 13t13 47q0 37 -10 54.5t-35 25.5z" />
    <glyph glyph-name="cacute" unicode="&#x107;" 
d="M324 -10q-111 0 -165 55t-54 156v191q0 107 54.5 162.5t163.5 55.5q98 0 149 -49t57 -151l-78 -3q-4 73 -35 100.5t-94 27.5q-68 0 -103 -33t-35 -105v-199q0 -68 35.5 -100t104.5 -32q63 0 93 22t34 85l78 -3q-6 -93 -56.5 -136.5t-148.5 -43.5zM221 700l114 200h122
l-162 -200h-74z" />
    <glyph glyph-name="ccircumflex" unicode="&#x109;" 
d="M324 -10q-111 0 -165 55t-54 156v191q0 107 54.5 162.5t163.5 55.5q98 0 149 -49t57 -151l-78 -3q-4 73 -35 100.5t-94 27.5q-68 0 -103 -33t-35 -105v-199q0 -68 35.5 -100t104.5 -32q63 0 93 22t34 85l78 -3q-6 -93 -56.5 -136.5t-148.5 -43.5zM182 718l-38 50l153 146
h57l154 -146l-39 -51l-144 112z" />
    <glyph glyph-name="cdotaccent" unicode="&#x10b;" 
d="M324 -10q-111 0 -165 55t-54 156v191q0 107 54.5 162.5t163.5 55.5q98 0 149 -49t57 -151l-78 -3q-4 73 -35 100.5t-94 27.5q-68 0 -103 -33t-35 -105v-199q0 -68 35.5 -100t104.5 -32q63 0 93 22t34 85l78 -3q-6 -93 -56.5 -136.5t-148.5 -43.5zM317 716
q-31 0 -50.5 10.5t-19.5 40.5v5q0 31 19.5 42t50.5 11t50.5 -11t19.5 -42v-5q0 -30 -19.5 -40.5t-50.5 -10.5z" />
    <glyph glyph-name="ccaron" unicode="&#x10d;" 
d="M324 -10q-111 0 -165 55t-54 156v191q0 107 54.5 162.5t163.5 55.5q98 0 149 -49t57 -151l-78 -3q-4 73 -35 100.5t-94 27.5q-68 0 -103 -33t-35 -105v-199q0 -68 35.5 -100t104.5 -32q63 0 93 22t34 85l78 -3q-6 -93 -56.5 -136.5t-148.5 -43.5zM289 704l-154 146l39 50
l144 -110l143 110l38 -50l-153 -146h-57z" />
    <glyph glyph-name="d" unicode="d" 
d="M287 69q45 0 82 26.5t71 81.5v319q-25 22 -55 32t-65 10q-69 0 -102.5 -36t-33.5 -110v-191q0 -68 25.5 -100t77.5 -32zM414 84q-19 -45 -58.5 -69.5t-88.5 -24.5q-75 0 -118.5 58t-43.5 165v181q0 102 57.5 159.5t158.5 57.5q28 0 59.5 -8t59.5 -22v219h79v-800h-79v84
h-26z" />
    <glyph glyph-name="dcaron" unicode="&#x10f;" 
d="M287 69q45 0 82 26.5t71 81.5v319q-25 22 -55 32t-65 10q-69 0 -102.5 -36t-33.5 -110v-191q0 -68 25.5 -100t77.5 -32zM414 84q-19 -45 -58.5 -69.5t-88.5 -24.5q-75 0 -118.5 58t-43.5 165v181q0 102 57.5 159.5t158.5 57.5q28 0 59.5 -8t59.5 -22v219h79v-800h-79v84
h-26zM602 705l68 295h119l-129 -295h-58z" />
    <glyph glyph-name="e" unicode="e" 
d="M522 129q-24 -72 -70 -105.5t-140 -33.5q-98 0 -152.5 54t-54.5 161v186q0 111 58.5 165t149.5 54q92 0 149 -55t57 -171v-98h-335v-79q0 -78 32 -110.5t95 -32.5q61 0 88.5 21.5t43.5 67.5zM184 385v-32h256v22q0 83 -32.5 121.5t-95.5 38.5t-95.5 -37.5t-32.5 -112.5z
" />
    <glyph glyph-name="egrave" unicode="&#xe8;" 
d="M522 129q-24 -72 -70 -105.5t-140 -33.5q-98 0 -152.5 54t-54.5 161v186q0 111 58.5 165t149.5 54q92 0 149 -55t57 -171v-98h-335v-79q0 -78 32 -110.5t95 -32.5q61 0 88.5 21.5t43.5 67.5zM184 385v-32h256v22q0 83 -32.5 121.5t-95.5 38.5t-95.5 -37.5t-32.5 -112.5z
M315 700l-162 200h121l115 -200h-74z" />
    <glyph glyph-name="eacute" unicode="&#xe9;" 
d="M522 129q-24 -72 -70 -105.5t-140 -33.5q-98 0 -152.5 54t-54.5 161v186q0 111 58.5 165t149.5 54q92 0 149 -55t57 -171v-98h-335v-79q0 -78 32 -110.5t95 -32.5q61 0 88.5 21.5t43.5 67.5zM184 385v-32h256v22q0 83 -32.5 121.5t-95.5 38.5t-95.5 -37.5t-32.5 -112.5z
M218 700l114 200h122l-162 -200h-74z" />
    <glyph glyph-name="ecircumflex" unicode="&#xea;" 
d="M522 129q-24 -72 -70 -105.5t-140 -33.5q-98 0 -152.5 54t-54.5 161v186q0 111 58.5 165t149.5 54q92 0 149 -55t57 -171v-98h-335v-79q0 -78 32 -110.5t95 -32.5q61 0 88.5 21.5t43.5 67.5zM184 385v-32h256v22q0 83 -32.5 121.5t-95.5 38.5t-95.5 -37.5t-32.5 -112.5z
M169 718l-38 50l153 146h57l154 -146l-39 -51l-144 112z" />
    <glyph glyph-name="edieresis" unicode="&#xeb;" 
d="M522 129q-24 -72 -70 -105.5t-140 -33.5q-98 0 -152.5 54t-54.5 161v186q0 111 58.5 165t149.5 54q92 0 149 -55t57 -171v-98h-335v-79q0 -78 32 -110.5t95 -32.5q61 0 88.5 21.5t43.5 67.5zM184 385v-32h256v22q0 83 -32.5 121.5t-95.5 38.5t-95.5 -37.5t-32.5 -112.5z
M217 716q-24 0 -38.5 10.5t-14.5 40.5v5q0 31 14.5 42t38.5 11q25 0 39 -11t14 -42v-5q0 -30 -14.5 -40.5t-38.5 -10.5zM409 716q-25 0 -39 10.5t-14 40.5v5q0 31 14 42t39 11q23 0 38 -11t15 -42v-5q0 -30 -15 -40.5t-38 -10.5z" />
    <glyph glyph-name="emacron" unicode="&#x113;" 
d="M522 129q-24 -72 -70 -105.5t-140 -33.5q-98 0 -152.5 54t-54.5 161v186q0 111 58.5 165t149.5 54q92 0 149 -55t57 -171v-98h-335v-79q0 -78 32 -110.5t95 -32.5q61 0 88.5 21.5t43.5 67.5zM184 385v-32h256v22q0 83 -32.5 121.5t-95.5 38.5t-95.5 -37.5t-32.5 -112.5z
M147 764v72h332v-72h-332z" />
    <glyph glyph-name="ebreve" unicode="&#x115;" 
d="M522 129q-24 -72 -70 -105.5t-140 -33.5q-98 0 -152.5 54t-54.5 161v186q0 111 58.5 165t149.5 54q92 0 149 -55t57 -171v-98h-335v-79q0 -78 32 -110.5t95 -32.5q61 0 88.5 21.5t43.5 67.5zM184 385v-32h256v22q0 83 -32.5 121.5t-95.5 38.5t-95.5 -37.5t-32.5 -112.5z
M313 693q-87 0 -139.5 48.5t-53.5 152.5h82q1 -72 28.5 -102.5t82.5 -30.5t82.5 30.5t28.5 102.5h82q-1 -104 -53.5 -152.5t-139.5 -48.5z" />
    <glyph glyph-name="edotaccent" unicode="&#x117;" 
d="M522 129q-24 -72 -70 -105.5t-140 -33.5q-98 0 -152.5 54t-54.5 161v186q0 111 58.5 165t149.5 54q92 0 149 -55t57 -171v-98h-335v-79q0 -78 32 -110.5t95 -32.5q61 0 88.5 21.5t43.5 67.5zM184 385v-32h256v22q0 83 -32.5 121.5t-95.5 38.5t-95.5 -37.5t-32.5 -112.5z
M313 716q-31 0 -50.5 10.5t-19.5 40.5v5q0 31 19.5 42t50.5 11t50.5 -11t19.5 -42v-5q0 -30 -19.5 -40.5t-50.5 -10.5z" />
    <glyph glyph-name="eogonek" unicode="&#x119;" 
d="M427 -213q-52 0 -88 31.5t-36 85.5q0 44 32 80t69 54l22 -15q-30 -22 -40 -49t-10 -46q0 -28 16 -43.5t44 -15.5q15 0 38 3.5t36 6.5v-82q-16 -4 -40 -7t-43 -3zM522 129q-24 -72 -70 -105.5t-140 -33.5q-98 0 -152.5 54t-54.5 161v186q0 111 58.5 165t149.5 54
q92 0 149 -55t57 -171v-98h-335v-79q0 -78 32 -110.5t95 -32.5q61 0 88.5 21.5t43.5 67.5zM184 385v-32h256v22q0 83 -32.5 121.5t-95.5 38.5t-95.5 -37.5t-32.5 -112.5z" />
    <glyph glyph-name="ecaron" unicode="&#x11b;" 
d="M522 129q-24 -72 -70 -105.5t-140 -33.5q-98 0 -152.5 54t-54.5 161v186q0 111 58.5 165t149.5 54q92 0 149 -55t57 -171v-98h-335v-79q0 -78 32 -110.5t95 -32.5q61 0 88.5 21.5t43.5 67.5zM184 385v-32h256v22q0 83 -32.5 121.5t-95.5 38.5t-95.5 -37.5t-32.5 -112.5z
M285 704l-154 146l39 50l144 -110l143 110l38 -50l-153 -146h-57z" />
    <glyph glyph-name="f" unicode="f" 
d="M230 0v524h-143v76h143v42q0 76 51 117.5t122 41.5q43 0 78 -10.5t55 -21.5l-17 -71q-25 11 -54.5 18t-62.5 7q-42 0 -67 -17.5t-25 -56.5v-49h209v-76h-209v-524h-80z" />
    <glyph glyph-name="g" 
d="M562 -55q0 -81 -50 -118t-120 -37h-158q-75 0 -123.5 34t-48.5 115q0 46 21.5 74.5t61.5 32.5v21q-29 4 -47.5 27t-18.5 71q0 40 22 74.5t76 38.5v18q-40 17 -54.5 51t-14.5 59v35q0 67 48.5 113t137.5 46h246v-84l-129 26v-19q33 -12 50.5 -43.5t17.5 -61.5v-33
q0 -67 -44 -110.5t-142 -43.5h-104q-22 0 -34 -14t-12 -48t16.5 -50.5t49.5 -16.5h191q69 0 115.5 -36.5t46.5 -120.5zM295 303q51 0 78.5 23.5t27.5 75.5v28q0 52 -27.5 75t-78.5 23q-52 0 -79 -23t-27 -75v-28q0 -52 27.5 -75.5t78.5 -23.5zM229 -139h174q37 0 61.5 19.5
t24.5 63.5q0 43 -21.5 62t-55.5 19h-270v-73q0 -46 22.5 -68.5t64.5 -22.5z" />
    <glyph glyph-name="gcircumflex" 
d="M562 -55q0 -81 -50 -118t-120 -37h-158q-75 0 -123.5 34t-48.5 115q0 46 21.5 74.5t61.5 32.5v21q-29 4 -47.5 27t-18.5 71q0 40 22 74.5t76 38.5v18q-40 17 -54.5 51t-14.5 59v35q0 67 48.5 113t137.5 46h246v-84l-129 26v-19q33 -12 50.5 -43.5t17.5 -61.5v-33
q0 -67 -44 -110.5t-142 -43.5h-104q-22 0 -34 -14t-12 -48t16.5 -50.5t49.5 -16.5h191q69 0 115.5 -36.5t46.5 -120.5zM295 303q51 0 78.5 23.5t27.5 75.5v28q0 52 -27.5 75t-78.5 23q-52 0 -79 -23t-27 -75v-28q0 -52 27.5 -75.5t78.5 -23.5zM229 -139h174q37 0 61.5 19.5
t24.5 63.5q0 43 -21.5 62t-55.5 19h-270v-73q0 -46 22.5 -68.5t64.5 -22.5zM159 718l-38 50l153 146h57l154 -146l-39 -51l-144 112z" />
    <glyph glyph-name="gbreve" 
d="M562 -55q0 -81 -50 -118t-120 -37h-158q-75 0 -123.5 34t-48.5 115q0 46 21.5 74.5t61.5 32.5v21q-29 4 -47.5 27t-18.5 71q0 40 22 74.5t76 38.5v18q-40 17 -54.5 51t-14.5 59v35q0 67 48.5 113t137.5 46h246v-84l-129 26v-19q33 -12 50.5 -43.5t17.5 -61.5v-33
q0 -67 -44 -110.5t-142 -43.5h-104q-22 0 -34 -14t-12 -48t16.5 -50.5t49.5 -16.5h191q69 0 115.5 -36.5t46.5 -120.5zM295 303q51 0 78.5 23.5t27.5 75.5v28q0 52 -27.5 75t-78.5 23q-52 0 -79 -23t-27 -75v-28q0 -52 27.5 -75.5t78.5 -23.5zM229 -139h174q37 0 61.5 19.5
t24.5 63.5q0 43 -21.5 62t-55.5 19h-270v-73q0 -46 22.5 -68.5t64.5 -22.5zM312 693q-87 0 -139.5 48.5t-53.5 152.5h82q1 -72 28.5 -102.5t82.5 -30.5t82.5 30.5t28.5 102.5h82q-1 -104 -53.5 -152.5t-139.5 -48.5z" />
    <glyph glyph-name="gdotaccent" 
d="M562 -55q0 -81 -50 -118t-120 -37h-158q-75 0 -123.5 34t-48.5 115q0 46 21.5 74.5t61.5 32.5v21q-29 4 -47.5 27t-18.5 71q0 40 22 74.5t76 38.5v18q-40 17 -54.5 51t-14.5 59v35q0 67 48.5 113t137.5 46h246v-84l-129 26v-19q33 -12 50.5 -43.5t17.5 -61.5v-33
q0 -67 -44 -110.5t-142 -43.5h-104q-22 0 -34 -14t-12 -48t16.5 -50.5t49.5 -16.5h191q69 0 115.5 -36.5t46.5 -120.5zM295 303q51 0 78.5 23.5t27.5 75.5v28q0 52 -27.5 75t-78.5 23q-52 0 -79 -23t-27 -75v-28q0 -52 27.5 -75.5t78.5 -23.5zM229 -139h174q37 0 61.5 19.5
t24.5 63.5q0 43 -21.5 62t-55.5 19h-270v-73q0 -46 22.5 -68.5t64.5 -22.5zM312 716q-31 0 -50.5 10.5t-19.5 40.5v5q0 31 19.5 42t50.5 11t50.5 -11t19.5 -42v-5q0 -30 -19.5 -40.5t-50.5 -10.5z" />
    <glyph glyph-name="gcommaaccent" 
d="M562 -55q0 -81 -50 -118t-120 -37h-158q-75 0 -123.5 34t-48.5 115q0 46 21.5 74.5t61.5 32.5v21q-29 4 -47.5 27t-18.5 71q0 40 22 74.5t76 38.5v18q-40 17 -54.5 51t-14.5 59v35q0 67 48.5 113t137.5 46h246v-84l-129 26v-19q33 -12 50.5 -43.5t17.5 -61.5v-33
q0 -67 -44 -110.5t-142 -43.5h-104q-22 0 -34 -14t-12 -48t16.5 -50.5t49.5 -16.5h191q69 0 115.5 -36.5t46.5 -120.5zM295 303q51 0 78.5 23.5t27.5 75.5v28q0 52 -27.5 75t-78.5 23q-52 0 -79 -23t-27 -75v-28q0 -52 27.5 -75.5t78.5 -23.5zM229 -139h174q37 0 61.5 19.5
t24.5 63.5q0 43 -21.5 62t-55.5 19h-270v-73q0 -46 22.5 -68.5t64.5 -22.5zM235 700l128 200h75l-81 -200h-122z" />
    <glyph glyph-name="h" unicode="h" 
d="M105 0v800h79v-284h26q15 43 55.5 68.5t91.5 25.5q74 0 118 -54t44 -144v-412h-79v400q0 65 -25.5 98t-74.5 33q-43 0 -82 -25t-74 -74v-432h-79z" />
    <glyph glyph-name="hcircumflex" unicode="&#x125;" 
d="M105 0v800h79v-284h26q15 43 55.5 68.5t91.5 25.5q74 0 118 -54t44 -144v-412h-79v400q0 65 -25.5 98t-74.5 33q-43 0 -82 -25t-74 -74v-432h-79zM2 918l-38 50l153 146h57l154 -146l-39 -51l-144 112z" />
    <glyph glyph-name="i" 
d="M104 0v76h168v448h-168v76h248v-524h168v-76h-416zM311 716q-31 0 -50.5 10.5t-19.5 40.5v5q0 31 19.5 42t50.5 11t50.5 -11t19.5 -42v-5q0 -30 -19.5 -40.5t-50.5 -10.5z" />
    <glyph glyph-name="igrave" 
d="M104 0v76h168v448h-168v76h248v-524h168v-76h-416zM314 700l-162 200h121l115 -200h-74z" />
    <glyph glyph-name="iacute" 
d="M104 0v76h168v448h-168v76h248v-524h168v-76h-416zM218 700l114 200h122l-162 -200h-74z" />
    <glyph glyph-name="icircumflex" 
d="M104 0v76h168v448h-168v76h248v-524h168v-76h-416zM168 718l-38 50l153 146h57l154 -146l-39 -51l-144 112z" />
    <glyph glyph-name="idieresis" 
d="M104 0v76h168v448h-168v76h248v-524h168v-76h-416zM216 716q-24 0 -38.5 10.5t-14.5 40.5v5q0 31 14.5 42t38.5 11q25 0 39 -11t14 -42v-5q0 -30 -14.5 -40.5t-38.5 -10.5zM408 716q-25 0 -39 10.5t-14 40.5v5q0 31 14 42t39 11q23 0 38 -11t15 -42v-5q0 -30 -15 -40.5
t-38 -10.5z" />
    <glyph glyph-name="itilde" 
d="M104 0v76h168v448h-168v76h248v-524h168v-76h-416zM377 710q-32 0 -51.5 19.5t-33.5 41.5l-25 41t-28 19q-19 0 -29 -24t-9 -78v-9h-63v15q0 72 28 120.5t81 48.5q35 0 55.5 -19.5t33.5 -40.5l23.5 -41t25.5 -19q18 0 28.5 23.5t10.5 77.5v10h62v-15q0 -74 -28 -122
t-81 -48z" />
    <glyph glyph-name="imacron" 
d="M104 0v76h168v448h-168v76h248v-524h168v-76h-416zM146 764v72h332v-72h-332z" />
    <glyph glyph-name="ibreve" 
d="M104 0v76h168v448h-168v76h248v-524h168v-76h-416zM312 693q-87 0 -139.5 48.5t-53.5 152.5h82q1 -72 28.5 -102.5t82.5 -30.5t82.5 30.5t28.5 102.5h82q-1 -104 -53.5 -152.5t-139.5 -48.5z" />
    <glyph glyph-name="iogonek" 
d="M311 716q-31 0 -50.5 10.5t-19.5 40.5v5q0 31 19.5 42t50.5 11t50.5 -11t19.5 -42v-5q0 -30 -19.5 -40.5t-50.5 -10.5zM104 0v76h168v448h-168v76h248v-524h168v-76h-416zM381 -213q-52 0 -88 31.5t-36 85.5q0 44 32 80t69 54l22 -15q-30 -22 -40 -49t-10 -46
q0 -28 16 -43.5t44 -15.5q15 0 38 3.5t36 6.5v-82q-16 -4 -40 -7t-43 -3z" />
    <glyph glyph-name="j" unicode="j" 
d="M236 -208q-31 0 -62 4.5t-68 17.5l17 87q31 -13 58 -17.5t53 -4.5q54 0 88 29t34 97v519h-235v76h315v-607q0 -104 -58.5 -152.5t-141.5 -48.5zM394 716q-31 0 -50.5 10.5t-19.5 40.5v5q0 31 19.5 42t50.5 11t50.5 -11t19.5 -42v-5q0 -30 -19.5 -40.5t-50.5 -10.5z" />
    <glyph glyph-name="jcircumflex" unicode="&#x135;" 
d="M236 -208q-31 0 -62 4.5t-68 17.5l17 87q31 -13 58 -17.5t53 -4.5q54 0 88 29t34 97v519h-235v76h315v-607q0 -104 -58.5 -152.5t-141.5 -48.5zM223 718l-38 50l153 146h57l154 -146l-39 -51l-144 112z" />
    <glyph glyph-name="k" unicode="k" 
d="M228 281v-281h-80v800h80v-448h43l162 248h98l-199 -281l197 -319h-92l-166 281h-43z" />
    <glyph glyph-name="kcommaaccent" unicode="&#x137;" 
d="M228 281v-281h-80v800h80v-448h43l162 248h98l-199 -281l197 -319h-92l-166 281h-43zM194 -300l81 200h122l-128 -200h-75z" />
    <glyph glyph-name="l" 
d="M104 0v76h167v648h-167v76h247v-724h168v-76h-415z" />
    <glyph glyph-name="lacute" 
d="M104 0v76h167v648h-167v76h247v-724h168v-76h-415zM232 900l114 200h122l-162 -200h-74z" />
    <glyph glyph-name="lcommaaccent" 
d="M104 0v76h167v648h-167v76h247v-724h168v-76h-415zM180 -300l81 200h122l-128 -200h-75z" />
    <glyph glyph-name="lcaron" 
d="M104 0v76h167v648h-167v76h247v-724h168v-76h-415zM433 705l68 295h119l-129 -295h-58z" />
    <glyph glyph-name="m" unicode="m" 
d="M146 437v-437h-74v600h75v-72h16q15 40 40 62t55 22q33 0 54.5 -22t31.5 -62h18q15 40 41.5 62t59.5 22q42 0 65.5 -38.5t23.5 -107.5v-466h-74v457q0 42 -11 64t-30 22t-41.5 -27t-45.5 -79v-437h-76v457q0 43 -10.5 64.5t-29.5 21.5t-41.5 -26.5t-46.5 -79.5z" />
    <glyph glyph-name="n" unicode="n" 
d="M105 0v600h79v-84h26q22 43 62 68.5t86 25.5q75 0 118 -53t43 -146v-411h-79v396q0 67 -25.5 101t-74.5 34q-43 0 -82 -26t-74 -77v-428h-79z" />
    <glyph glyph-name="ntilde" unicode="&#xf1;" 
d="M105 0v600h79v-84h26q22 43 62 68.5t86 25.5q75 0 118 -53t43 -146v-411h-79v396q0 67 -25.5 101t-74.5 34q-43 0 -82 -26t-74 -77v-428h-79zM394 710q-32 0 -51.5 19.5t-33.5 41.5l-25 41t-28 19q-19 0 -29 -24t-9 -78v-9h-63v15q0 72 28 120.5t81 48.5q35 0 55.5 -19.5
t33.5 -40.5l23.5 -41t25.5 -19q18 0 28.5 23.5t10.5 77.5v10h62v-15q0 -74 -28 -122t-81 -48z" />
    <glyph glyph-name="nacute" unicode="&#x144;" 
d="M105 0v600h79v-84h26q22 43 62 68.5t86 25.5q75 0 118 -53t43 -146v-411h-79v396q0 67 -25.5 101t-74.5 34q-43 0 -82 -26t-74 -77v-428h-79zM235 700l114 200h122l-162 -200h-74z" />
    <glyph glyph-name="ncommaaccent" unicode="&#x146;" 
d="M201 -300l81 200h122l-128 -200h-75zM105 0v600h79v-84h26q22 43 62 68.5t86 25.5q75 0 118 -53t43 -146v-411h-79v396q0 67 -25.5 101t-74.5 34q-43 0 -82 -26t-74 -77v-428h-79z" />
    <glyph glyph-name="ncaron" unicode="&#x148;" 
d="M105 0v600h79v-84h26q22 43 62 68.5t86 25.5q75 0 118 -53t43 -146v-411h-79v396q0 67 -25.5 101t-74.5 34q-43 0 -82 -26t-74 -77v-428h-79zM301 704l-154 146l39 50l144 -110l143 110l38 -50l-153 -146h-57z" />
    <glyph glyph-name="o" unicode="o" 
d="M312 -10q-100 0 -153.5 55.5t-53.5 158.5v188q0 105 54 161.5t154 56.5q99 0 152.5 -56t53.5 -160v-189q0 -104 -53.5 -159.5t-153.5 -55.5zM312 66q64 0 96 32t32 103v193q0 72 -32 106t-96 34t-96 -34t-32 -106v-194q0 -70 32 -102t96 -32z" />
    <glyph glyph-name="ograve" unicode="&#xf2;" 
d="M312 -10q-100 0 -153.5 55.5t-53.5 158.5v188q0 105 54 161.5t154 56.5q99 0 152.5 -56t53.5 -160v-189q0 -104 -53.5 -159.5t-153.5 -55.5zM312 66q64 0 96 32t32 103v193q0 72 -32 106t-96 34t-96 -34t-32 -106v-194q0 -70 32 -102t96 -32zM314 700l-162 200h121
l115 -200h-74z" />
    <glyph glyph-name="oacute" unicode="&#xf3;" 
d="M312 -10q-100 0 -153.5 55.5t-53.5 158.5v188q0 105 54 161.5t154 56.5q99 0 152.5 -56t53.5 -160v-189q0 -104 -53.5 -159.5t-153.5 -55.5zM312 66q64 0 96 32t32 103v193q0 72 -32 106t-96 34t-96 -34t-32 -106v-194q0 -70 32 -102t96 -32zM218 700l114 200h122
l-162 -200h-74z" />
    <glyph glyph-name="ocircumflex" unicode="&#xf4;" 
d="M312 -10q-100 0 -153.5 55.5t-53.5 158.5v188q0 105 54 161.5t154 56.5q99 0 152.5 -56t53.5 -160v-189q0 -104 -53.5 -159.5t-153.5 -55.5zM312 66q64 0 96 32t32 103v193q0 72 -32 106t-96 34t-96 -34t-32 -106v-194q0 -70 32 -102t96 -32zM168 718l-38 50l153 146h57
l154 -146l-39 -51l-144 112z" />
    <glyph glyph-name="otilde" unicode="&#xf5;" 
d="M312 -10q-100 0 -153.5 55.5t-53.5 158.5v188q0 105 54 161.5t154 56.5q99 0 152.5 -56t53.5 -160v-189q0 -104 -53.5 -159.5t-153.5 -55.5zM312 66q64 0 96 32t32 103v193q0 72 -32 106t-96 34t-96 -34t-32 -106v-194q0 -70 32 -102t96 -32zM377 710q-32 0 -51.5 19.5
t-33.5 41.5l-25 41t-28 19q-19 0 -29 -24t-9 -78v-9h-63v15q0 72 28 120.5t81 48.5q35 0 55.5 -19.5t33.5 -40.5l23.5 -41t25.5 -19q18 0 28.5 23.5t10.5 77.5v10h62v-15q0 -74 -28 -122t-81 -48z" />
    <glyph glyph-name="odieresis" unicode="&#xf6;" 
d="M312 -10q-100 0 -153.5 55.5t-53.5 158.5v188q0 105 54 161.5t154 56.5q99 0 152.5 -56t53.5 -160v-189q0 -104 -53.5 -159.5t-153.5 -55.5zM312 66q64 0 96 32t32 103v193q0 72 -32 106t-96 34t-96 -34t-32 -106v-194q0 -70 32 -102t96 -32zM216 716q-24 0 -38.5 10.5
t-14.5 40.5v5q0 31 14.5 42t38.5 11q25 0 39 -11t14 -42v-5q0 -30 -14.5 -40.5t-38.5 -10.5zM408 716q-25 0 -39 10.5t-14 40.5v5q0 31 14 42t39 11q23 0 38 -11t15 -42v-5q0 -30 -15 -40.5t-38 -10.5z" />
    <glyph glyph-name="omacron" unicode="&#x14d;" 
d="M312 -10q-100 0 -153.5 55.5t-53.5 158.5v188q0 105 54 161.5t154 56.5q99 0 152.5 -56t53.5 -160v-189q0 -104 -53.5 -159.5t-153.5 -55.5zM312 66q64 0 96 32t32 103v193q0 72 -32 106t-96 34t-96 -34t-32 -106v-194q0 -70 32 -102t96 -32zM146 764v72h332v-72h-332z
" />
    <glyph glyph-name="obreve" unicode="&#x14f;" 
d="M312 -10q-100 0 -153.5 55.5t-53.5 158.5v188q0 105 54 161.5t154 56.5q99 0 152.5 -56t53.5 -160v-189q0 -104 -53.5 -159.5t-153.5 -55.5zM312 66q64 0 96 32t32 103v193q0 72 -32 106t-96 34t-96 -34t-32 -106v-194q0 -70 32 -102t96 -32zM312 693q-87 0 -139.5 48.5
t-53.5 152.5h82q1 -72 28.5 -102.5t82.5 -30.5t82.5 30.5t28.5 102.5h82q-1 -104 -53.5 -152.5t-139.5 -48.5z" />
    <glyph glyph-name="ohungarumlaut" unicode="&#x151;" 
d="M312 -10q-100 0 -153.5 55.5t-53.5 158.5v188q0 105 54 161.5t154 56.5q99 0 152.5 -56t53.5 -160v-189q0 -104 -53.5 -159.5t-153.5 -55.5zM312 66q64 0 96 32t32 103v193q0 72 -32 106t-96 34t-96 -34t-32 -106v-194q0 -70 32 -102t96 -32zM359 700l47 200h115
l-104 -200h-58zM167 700l47 200h115l-104 -200h-58z" />
    <glyph glyph-name="p" unicode="p" 
d="M304 62q69 0 102.5 36.5t33.5 109.5v189q0 68 -25.5 101t-77.5 33q-45 0 -82 -26.5t-71 -81.5v-319q26 -21 55.5 -31.5t64.5 -10.5zM303 -11q-28 0 -59.5 8t-59.5 22v-219h-79v800h79v-84h26q18 43 57 68.5t90 25.5q76 0 119 -60.5t43 -164.5v-179q0 -101 -57.5 -159
t-158.5 -58z" />
    <glyph glyph-name="q" unicode="q" 
d="M440 -200v284h-26q-22 -46 -61 -70t-85 -24q-78 0 -120.5 58t-42.5 165v181q0 102 59 159.5t155 57.5q55 0 106.5 -14.5t93.5 -40.5v-756h-79zM287 69q45 0 82.5 27t70.5 81v326q-26 18 -56 26.5t-64 8.5q-62 0 -99 -37t-37 -109v-177q0 -73 25.5 -109.5t77.5 -36.5z" />
    <glyph glyph-name="r" unicode="r" 
d="M147 0v600h80v-89h26q16 52 52 75.5t87 23.5q56 0 95 -42t39 -120v-91h-79v61q0 57 -20.5 85t-66.5 28q-40 0 -73 -24t-60 -70v-437h-80z" />
    <glyph glyph-name="racute" unicode="&#x155;" 
d="M147 0v600h80v-89h26q16 52 52 75.5t87 23.5q56 0 95 -42t39 -120v-91h-79v61q0 57 -20.5 85t-66.5 28q-40 0 -73 -24t-60 -70v-437h-80zM252 700l114 200h122l-162 -200h-74z" />
    <glyph glyph-name="rcommaaccent" unicode="&#x157;" 
d="M147 0v600h80v-89h26q16 52 52 75.5t87 23.5q56 0 95 -42t39 -120v-91h-79v61q0 57 -20.5 85t-66.5 28q-40 0 -73 -24t-60 -70v-437h-80zM83 -300l81 200h122l-128 -200h-75z" />
    <glyph glyph-name="rcaron" unicode="&#x159;" 
d="M147 0v600h80v-89h26q16 52 52 75.5t87 23.5q56 0 95 -42t39 -120v-91h-79v61q0 57 -20.5 85t-66.5 28q-40 0 -73 -24t-60 -70v-437h-80zM318 704l-154 146l39 50l144 -110l143 110l38 -50l-153 -146h-57z" />
    <glyph glyph-name="s" unicode="s" 
d="M324 -11q-63 0 -124.5 20t-109.5 62l37 67q40 -32 92 -51.5t106 -19.5t89 19.5t35 68.5q0 50 -33 70t-118 37q-101 19 -146 59.5t-45 115.5q0 84 53 128.5t135 44.5q58 0 115.5 -22.5t101.5 -62.5l-37 -69q-37 31 -84 53.5t-98 22.5q-49 0 -78 -20.5t-29 -69.5
q0 -50 32.5 -70.5t116.5 -36.5q101 -19 147 -60.5t46 -112.5q0 -87 -58.5 -130t-145.5 -43z" />
    <glyph glyph-name="sacute" unicode="&#x15b;" 
d="M324 -11q-63 0 -124.5 20t-109.5 62l37 67q40 -32 92 -51.5t106 -19.5t89 19.5t35 68.5q0 50 -33 70t-118 37q-101 19 -146 59.5t-45 115.5q0 84 53 128.5t135 44.5q58 0 115.5 -22.5t101.5 -62.5l-37 -69q-37 31 -84 53.5t-98 22.5q-49 0 -78 -20.5t-29 -69.5
q0 -50 32.5 -70.5t116.5 -36.5q101 -19 147 -60.5t46 -112.5q0 -87 -58.5 -130t-145.5 -43zM216 700l114 200h122l-162 -200h-74z" />
    <glyph glyph-name="scircumflex" unicode="&#x15d;" 
d="M324 -11q-63 0 -124.5 20t-109.5 62l37 67q40 -32 92 -51.5t106 -19.5t89 19.5t35 68.5q0 50 -33 70t-118 37q-101 19 -146 59.5t-45 115.5q0 84 53 128.5t135 44.5q58 0 115.5 -22.5t101.5 -62.5l-37 -69q-37 31 -84 53.5t-98 22.5q-49 0 -78 -20.5t-29 -69.5
q0 -50 32.5 -70.5t116.5 -36.5q101 -19 147 -60.5t46 -112.5q0 -87 -58.5 -130t-145.5 -43zM166 718l-38 50l153 146h57l154 -146l-39 -51l-144 112z" />
    <glyph glyph-name="scedilla" unicode="&#x15f;" 
d="M324 -11q-63 0 -124.5 20t-109.5 62l37 67q40 -32 92 -51.5t106 -19.5t89 19.5t35 68.5q0 50 -33 70t-118 37q-101 19 -146 59.5t-45 115.5q0 84 53 128.5t135 44.5q58 0 115.5 -22.5t101.5 -62.5l-37 -69q-37 31 -84 53.5t-98 22.5q-49 0 -78 -20.5t-29 -69.5
q0 -50 32.5 -70.5t116.5 -36.5q101 -19 147 -60.5t46 -112.5q0 -87 -58.5 -130t-145.5 -43zM285 0l16 42q44 -10 73 -43t29 -90q0 -63 -38 -92.5t-82 -29.5q-53 0 -87 21.5t-38 75.5l71 10q1 -19 12.5 -26.5t37.5 -7.5q25 0 38 13t13 47q0 37 -10 54.5t-35 25.5z" />
    <glyph glyph-name="scaron" unicode="&#x161;" 
d="M324 -11q-63 0 -124.5 20t-109.5 62l37 67q40 -32 92 -51.5t106 -19.5t89 19.5t35 68.5q0 50 -33 70t-118 37q-101 19 -146 59.5t-45 115.5q0 84 53 128.5t135 44.5q58 0 115.5 -22.5t101.5 -62.5l-37 -69q-37 31 -84 53.5t-98 22.5q-49 0 -78 -20.5t-29 -69.5
q0 -50 32.5 -70.5t116.5 -36.5q101 -19 147 -60.5t46 -112.5q0 -87 -58.5 -130t-145.5 -43zM282 704l-154 146l39 50l144 -110l143 110l38 -50l-153 -146h-57z" />
    <glyph glyph-name="scommaaccent" unicode="&#x219;" 
d="M324 -11q-63 0 -124.5 20t-109.5 62l37 67q40 -32 92 -51.5t106 -19.5t89 19.5t35 68.5q0 50 -33 70t-118 37q-101 19 -146 59.5t-45 115.5q0 84 53 128.5t135 44.5q58 0 115.5 -22.5t101.5 -62.5l-37 -69q-37 31 -84 53.5t-98 22.5q-49 0 -78 -20.5t-29 -69.5
q0 -50 32.5 -70.5t116.5 -36.5q101 -19 147 -60.5t46 -112.5q0 -87 -58.5 -130t-145.5 -43zM184 -300l81 200h122l-128 -200h-75z" />
    <glyph glyph-name="t" unicode="t" 
d="M406 -9q-85 0 -132 50t-47 140v343h-143v76h143v200h79v-200h219v-76h-219v-332q0 -60 24 -90t73 -30q31 0 59.5 5t53.5 15l17 -78q-25 -9 -59 -16t-68 -7z" />
    <glyph glyph-name="tcedilla" unicode="&#x163;" 
d="M406 -9q-85 0 -132 50t-47 140v343h-143v76h143v200h79v-200h219v-76h-219v-332q0 -60 24 -90t73 -30q31 0 59.5 5t53.5 15l17 -78q-25 -9 -59 -16t-68 -7zM342 0l16 42q44 -10 73 -43t29 -90q0 -63 -38 -92.5t-82 -29.5q-53 0 -87 21.5t-38 75.5l71 10q1 -19 12.5 -26.5
t37.5 -7.5q25 0 38 13t13 47q0 37 -10 54.5t-35 25.5z" />
    <glyph glyph-name="tcaron" unicode="&#x165;" 
d="M406 -9q-85 0 -132 50t-47 140v343h-143v76h143v200h79v-200h219v-76h-219v-332q0 -60 24 -90t73 -30q31 0 59.5 5t53.5 15l17 -78q-25 -9 -59 -16t-68 -7zM382 705l68 295h119l-129 -295h-58z" />
    <glyph glyph-name="tcommaaccent" unicode="&#x21b;" 
d="M406 -9q-85 0 -132 50t-47 140v343h-143v76h143v200h79v-200h219v-76h-219v-332q0 -60 24 -90t73 -30q31 0 59.5 5t53.5 15l17 -78q-25 -9 -59 -16t-68 -7zM200 -300l81 200h122l-128 -200h-75z" />
    <glyph glyph-name="u" unicode="u" 
d="M268 -10q-74 0 -118.5 54.5t-44.5 144.5v411h79v-402q0 -63 25.5 -96t75.5 -33q42 0 81.5 24.5t73.5 72.5v434h79v-600h-79v84h-26q-15 -41 -55 -67.5t-91 -26.5z" />
    <glyph glyph-name="ugrave" unicode="&#xf9;" 
d="M268 -10q-74 0 -118.5 54.5t-44.5 144.5v411h79v-402q0 -63 25.5 -96t75.5 -33q42 0 81.5 24.5t73.5 72.5v434h79v-600h-79v84h-26q-15 -41 -55 -67.5t-91 -26.5zM287 700l-162 200h121l115 -200h-74z" />
    <glyph glyph-name="uacute" unicode="&#xfa;" 
d="M268 -10q-74 0 -118.5 54.5t-44.5 144.5v411h79v-402q0 -63 25.5 -96t75.5 -33q42 0 81.5 24.5t73.5 72.5v434h79v-600h-79v84h-26q-15 -41 -55 -67.5t-91 -26.5zM251 700l114 200h122l-162 -200h-74z" />
    <glyph glyph-name="ucircumflex" unicode="&#xfb;" 
d="M268 -10q-74 0 -118.5 54.5t-44.5 144.5v411h79v-402q0 -63 25.5 -96t75.5 -33q42 0 81.5 24.5t73.5 72.5v434h79v-600h-79v84h-26q-15 -41 -55 -67.5t-91 -26.5zM168 718l-38 50l153 146h57l154 -146l-39 -51l-144 112z" />
    <glyph glyph-name="udieresis" unicode="&#xfc;" 
d="M268 -10q-74 0 -118.5 54.5t-44.5 144.5v411h79v-402q0 -63 25.5 -96t75.5 -33q42 0 81.5 24.5t73.5 72.5v434h79v-600h-79v84h-26q-15 -41 -55 -67.5t-91 -26.5zM216 716q-24 0 -38.5 10.5t-14.5 40.5v5q0 31 14.5 42t38.5 11q25 0 39 -11t14 -42v-5q0 -30 -14.5 -40.5
t-38.5 -10.5zM408 716q-25 0 -39 10.5t-14 40.5v5q0 31 14 42t39 11q23 0 38 -11t15 -42v-5q0 -30 -15 -40.5t-38 -10.5z" />
    <glyph glyph-name="utilde" unicode="&#x169;" 
d="M268 -10q-74 0 -118.5 54.5t-44.5 144.5v411h79v-402q0 -63 25.5 -96t75.5 -33q42 0 81.5 24.5t73.5 72.5v434h79v-600h-79v84h-26q-15 -41 -55 -67.5t-91 -26.5zM377 710q-32 0 -51.5 19.5t-33.5 41.5l-25 41t-28 19q-19 0 -29 -24t-9 -78v-9h-63v15q0 72 28 120.5
t81 48.5q35 0 55.5 -19.5t33.5 -40.5l23.5 -41t25.5 -19q18 0 28.5 23.5t10.5 77.5v10h62v-15q0 -74 -28 -122t-81 -48z" />
    <glyph glyph-name="umacron" unicode="&#x16b;" 
d="M268 -10q-74 0 -118.5 54.5t-44.5 144.5v411h79v-402q0 -63 25.5 -96t75.5 -33q42 0 81.5 24.5t73.5 72.5v434h79v-600h-79v84h-26q-15 -41 -55 -67.5t-91 -26.5zM146 764v72h332v-72h-332z" />
    <glyph glyph-name="ubreve" unicode="&#x16d;" 
d="M268 -10q-74 0 -118.5 54.5t-44.5 144.5v411h79v-402q0 -63 25.5 -96t75.5 -33q42 0 81.5 24.5t73.5 72.5v434h79v-600h-79v84h-26q-15 -41 -55 -67.5t-91 -26.5zM312 693q-87 0 -139.5 48.5t-53.5 152.5h82q1 -72 28.5 -102.5t82.5 -30.5t82.5 30.5t28.5 102.5h82
q-1 -104 -53.5 -152.5t-139.5 -48.5z" />
    <glyph glyph-name="uring" unicode="&#x16f;" 
d="M268 -10q-74 0 -118.5 54.5t-44.5 144.5v411h79v-402q0 -63 25.5 -96t75.5 -33q42 0 81.5 24.5t73.5 72.5v434h79v-600h-79v84h-26q-15 -41 -55 -67.5t-91 -26.5zM312 688q-59 0 -95.5 35t-36.5 107v32q0 73 36.5 109t95.5 36q60 0 96 -36t36 -109v-32q0 -72 -36.5 -107
t-95.5 -35zM312 753q34 0 51.5 17.5t17.5 59.5v32q0 41 -17.5 60.5t-51.5 19.5t-51.5 -19.5t-17.5 -60.5v-32q0 -42 17.5 -59.5t51.5 -17.5z" />
    <glyph glyph-name="uhungarumlaut" unicode="&#x171;" 
d="M268 -10q-74 0 -118.5 54.5t-44.5 144.5v411h79v-402q0 -63 25.5 -96t75.5 -33q42 0 81.5 24.5t73.5 72.5v434h79v-600h-79v84h-26q-15 -41 -55 -67.5t-91 -26.5zM377 700l47 200h115l-104 -200h-58zM185 700l47 200h115l-104 -200h-58z" />
    <glyph glyph-name="uogonek" unicode="&#x173;" 
d="M505 -213q-52 0 -88 31.5t-36 85.5q0 44 32 80t69 54l22 -15q-30 -22 -40 -49t-10 -46q0 -28 16 -43.5t44 -15.5q15 0 38 3.5t36 6.5v-82q-16 -4 -40 -7t-43 -3zM268 -10q-74 0 -118.5 54.5t-44.5 144.5v411h79v-402q0 -63 25.5 -96t75.5 -33q42 0 81.5 24.5t73.5 72.5
v434h79v-600h-79v84h-26q-15 -41 -55 -67.5t-91 -26.5z" />
    <glyph glyph-name="v" unicode="v" 
d="M361 0h-99l-179 600h88l142 -530l141 530h86z" />
    <glyph glyph-name="w" unicode="w" 
d="M386 0l-74 412l-71 -412h-93l-94 600h77l65 -540l65 443h99l72 -430l61 527h77l-94 -600h-90z" />
    <glyph glyph-name="wcircumflex" unicode="&#x175;" 
d="M386 0l-74 412l-71 -412h-93l-94 600h77l65 -540l65 443h99l72 -430l61 527h77l-94 -600h-90zM168 718l-38 50l153 146h57l154 -146l-39 -51l-144 112z" />
    <glyph glyph-name="wgrave" unicode="&#x1e81;" 
d="M386 0l-74 412l-71 -412h-93l-94 600h77l65 -540l65 443h99l72 -430l61 527h77l-94 -600h-90zM314 700l-162 200h121l115 -200h-74z" />
    <glyph glyph-name="wacute" unicode="&#x1e83;" 
d="M386 0l-74 412l-71 -412h-93l-94 600h77l65 -540l65 443h99l72 -430l61 527h77l-94 -600h-90zM216 700l114 200h122l-162 -200h-74z" />
    <glyph glyph-name="wdieresis" unicode="&#x1e85;" 
d="M386 0l-74 412l-71 -412h-93l-94 600h77l65 -540l65 443h99l72 -430l61 527h77l-94 -600h-90zM216 716q-24 0 -38.5 10.5t-14.5 40.5v5q0 31 14.5 42t38.5 11q25 0 39 -11t14 -42v-5q0 -30 -14.5 -40.5t-38.5 -10.5zM408 716q-25 0 -39 10.5t-14 40.5v5q0 31 14 42t39 11
q23 0 38 -11t15 -42v-5q0 -30 -15 -40.5t-38 -10.5z" />
    <glyph glyph-name="x" unicode="x" 
d="M438 0l-131 234l-125 -234h-89l174 301l-169 299h91l126 -227l128 227h89l-177 -295l173 -305h-90z" />
    <glyph glyph-name="y" unicode="y" 
d="M171 -204q-20 0 -41.5 3t-43.5 7l15 75q22 -5 40 -7.5t34 -2.5q44 0 71 26t45 82l3 10h-31l-179 611h87l144 -536l141 536h84l-177 -627q-29 -102 -80 -139.5t-112 -37.5z" />
    <glyph glyph-name="yacute" unicode="&#xfd;" 
d="M171 -204q-20 0 -41.5 3t-43.5 7l15 75q22 -5 40 -7.5t34 -2.5q44 0 71 26t45 82l3 10h-31l-179 611h87l144 -536l141 536h84l-177 -627q-29 -102 -80 -139.5t-112 -37.5zM216 700l114 200h122l-162 -200h-74z" />
    <glyph glyph-name="ydieresis" unicode="&#xff;" 
d="M171 -204q-20 0 -41.5 3t-43.5 7l15 75q22 -5 40 -7.5t34 -2.5q44 0 71 26t45 82l3 10h-31l-179 611h87l144 -536l141 536h84l-177 -627q-29 -102 -80 -139.5t-112 -37.5zM216 716q-24 0 -38.5 10.5t-14.5 40.5v5q0 31 14.5 42t38.5 11q25 0 39 -11t14 -42v-5
q0 -30 -14.5 -40.5t-38.5 -10.5zM408 716q-25 0 -39 10.5t-14 40.5v5q0 31 14 42t39 11q23 0 38 -11t15 -42v-5q0 -30 -15 -40.5t-38 -10.5z" />
    <glyph glyph-name="ycircumflex" unicode="&#x177;" 
d="M171 -204q-20 0 -41.5 3t-43.5 7l15 75q22 -5 40 -7.5t34 -2.5q44 0 71 26t45 82l3 10h-31l-179 611h87l144 -536l141 536h84l-177 -627q-29 -102 -80 -139.5t-112 -37.5zM168 718l-38 50l153 146h57l154 -146l-39 -51l-144 112z" />
    <glyph glyph-name="ygrave" unicode="&#x1ef3;" 
d="M171 -204q-20 0 -41.5 3t-43.5 7l15 75q22 -5 40 -7.5t34 -2.5q44 0 71 26t45 82l3 10h-31l-179 611h87l144 -536l141 536h84l-177 -627q-29 -102 -80 -139.5t-112 -37.5zM314 700l-162 200h121l115 -200h-74z" />
    <glyph glyph-name="z" unicode="z" 
d="M502 0h-380v76l288 448h-288v76h380v-76l-283 -448h283v-76z" />
    <glyph glyph-name="zacute" unicode="&#x17a;" 
d="M502 0h-380v76l288 448h-288v76h380v-76l-283 -448h283v-76zM218 700l114 200h122l-162 -200h-74z" />
    <glyph glyph-name="zdotaccent" unicode="&#x17c;" 
d="M502 0h-380v76l288 448h-288v76h380v-76l-283 -448h283v-76zM318 716q-31 0 -50.5 10.5t-19.5 40.5v5q0 31 19.5 42t50.5 11t50.5 -11t19.5 -42v-5q0 -30 -19.5 -40.5t-50.5 -10.5z" />
    <glyph glyph-name="zcaron" unicode="&#x17e;" 
d="M502 0h-380v76l288 448h-288v76h380v-76l-283 -448h283v-76zM283 704l-154 146l39 50l144 -110l143 110l38 -50l-153 -146h-57z" />
    <glyph glyph-name="ordfeminine" unicode="&#xaa;" 
d="M262 398q32 0 60.5 17t48.5 59v55h-115q-31 0 -52 -14t-21 -49q0 -34 18 -51t61 -17zM246 332q-59 0 -95.5 33t-36.5 98q0 57 36 91.5t85 34.5h136v69q0 36 -21 62.5t-65 26.5t-66.5 -15t-35.5 -71l-60 20q11 60 49 94.5t111 34.5q66 0 111 -35.5t45 -104.5v-211
q0 -41 16.5 -51.5t62.5 -4.5v-68q-57 -1 -85.5 15.5t-30.5 72.5h-14q-19 -39 -56.5 -65t-85.5 -26z" />
    <glyph glyph-name="ordmasculine" unicode="&#xba;" 
d="M312 332q-84 0 -131 44t-47 131v123q0 88 47 134t131 46t130.5 -46t46.5 -134v-123q0 -87 -46.5 -131t-130.5 -44zM312 397q54 0 81.5 24.5t27.5 81.5v128q0 59 -27.5 86t-81.5 27t-81.5 -27t-27.5 -86v-128q0 -57 27.5 -81.5t81.5 -24.5z" />
    <glyph glyph-name="germandbls" unicode="&#xdf;" 
d="M409 -6q-59 0 -109.5 25t-84.5 72l46 70q30 -34 68 -61t81 -27q44 0 71 22t27 71t-24.5 69.5t-85.5 36.5q-93 24 -134 63.5t-41 108.5q0 79 51 123t133 48q-8 58 -43 87t-90 29q-57 0 -94.5 -40.5t-37.5 -119.5v-571h-80v583q0 107 60 166t154 59q95 0 154 -61.5
t59 -159.5v-37q-90 0 -137.5 -23t-47.5 -78q0 -44 29.5 -61t101.5 -36q82 -20 118 -61.5t36 -118.5q0 -89 -52.5 -133.5t-127.5 -44.5z" />
    <glyph glyph-name="ae" unicode="&#xe6;" 
d="M580 142q-8 -78 -42 -115t-104 -37q-49 0 -82.5 23t-49.5 70h-12q-19 -42 -47.5 -67.5t-74.5 -25.5q-51 0 -87 45t-36 128q0 76 39.5 120.5t90.5 44.5h104v94q0 54 -20 89t-60 35q-35 0 -50 -18.5t-30 -82.5l-63 24q12 72 46.5 106.5t100.5 34.5q37 0 65.5 -16.5
t45.5 -48.5q19 33 47.5 49t64.5 16q69 0 111 -48t42 -149v-127h-236v-105q0 -72 20 -101t62 -29t58.5 18.5t23.5 75.5zM343 415v-74h163v64q0 74 -20.5 108.5t-60.5 34.5t-61 -33t-21 -100zM279 142v131h-81q-34 0 -57 -23t-23 -83q0 -54 15 -84t51 -30q30 0 52 24.5
t43 64.5z" />
    <glyph glyph-name="aeacute" unicode="&#x1fd;" 
d="M580 142q-8 -78 -42 -115t-104 -37q-49 0 -82.5 23t-49.5 70h-12q-19 -42 -47.5 -67.5t-74.5 -25.5q-51 0 -87 45t-36 128q0 76 39.5 120.5t90.5 44.5h104v94q0 54 -20 89t-60 35q-35 0 -50 -18.5t-30 -82.5l-63 24q12 72 46.5 106.5t100.5 34.5q37 0 65.5 -16.5
t45.5 -48.5q19 33 47.5 49t64.5 16q69 0 111 -48t42 -149v-127h-236v-105q0 -72 20 -101t62 -29t58.5 18.5t23.5 75.5zM343 415v-74h163v64q0 74 -20.5 108.5t-60.5 34.5t-61 -33t-21 -100zM279 142v131h-81q-34 0 -57 -23t-23 -83q0 -54 15 -84t51 -30q30 0 52 24.5
t43 64.5zM259 700l114 200h122l-162 -200h-74z" />
    <glyph glyph-name="eth" unicode="&#xf0;" 
d="M312 -10q-93 0 -150 54.5t-57 164.5v94q0 91 53 144t137 53q52 0 86 -22t47 -52h19q-4 64 -16.5 115t-36.5 91l-163 -89v74l122 67q-28 28 -67 49t-88 37l18 51q63 -20 112 -47t83 -60l154 83v-74l-111 -61q35 -53 50 -122.5t15 -159.5v-165q0 -117 -57 -171t-150 -54z
M313 66q69 0 97.5 36t28.5 108v79q0 67 -28.5 100.5t-97.5 33.5t-98 -33.5t-29 -100.5v-79q0 -72 29 -108t98 -36z" />
    <glyph glyph-name="oslash" unicode="&#xf8;" 
d="M186 197q0 -26 4.5 -47t14.5 -37l164 410q-12 4 -26.5 6t-30.5 2q-64 0 -95 -32.5t-31 -101.5v-200zM312 69q64 0 95 30t31 98v199q0 27 -4.5 49t-14.5 38l-164 -406q12 -4 26.5 -6t30.5 -2zM312 -10q-22 0 -42 3t-39 9l-44 -102h-84l61 139q-28 26 -43.5 66t-15.5 96
v194q0 110 58.5 162.5t149.5 52.5q22 0 42.5 -3t39.5 -9l42 102h84l-60 -141q28 -26 43 -66.5t15 -97.5v-194q0 -109 -58 -160t-149 -51z" />
    <glyph glyph-name="oslashacute" unicode="&#x1ff;" 
d="M186 197q0 -26 4.5 -47t14.5 -37l164 410q-12 4 -26.5 6t-30.5 2q-64 0 -95 -32.5t-31 -101.5v-200zM312 69q64 0 95 30t31 98v199q0 27 -4.5 49t-14.5 38l-164 -406q12 -4 26.5 -6t30.5 -2zM312 -10q-22 0 -42 3t-39 9l-44 -102h-84l61 139q-28 26 -43.5 66t-15.5 96
v194q0 110 58.5 162.5t149.5 52.5q22 0 42.5 -3t39.5 -9l42 102h84l-60 -141q28 -26 43 -66.5t15 -97.5v-194q0 -109 -58 -160t-149 -51zM216 700l114 200h122l-162 -200h-74z" />
    <glyph glyph-name="thorn" unicode="&#xfe;" 
d="M304 62q70 0 103 35.5t33 110.5v189q0 69 -24.5 101.5t-78.5 32.5q-46 0 -82.5 -26t-70.5 -82v-319q28 -22 57 -32t63 -10zM303 -11q-29 0 -60.5 8t-58.5 22v-219h-79v1000h79v-284h26q19 45 57.5 69.5t89.5 24.5q77 0 119.5 -59t42.5 -166v-179q0 -104 -57 -160.5
t-159 -56.5z" />
    <glyph glyph-name="dcroat" unicode="&#x111;" 
d="M287 69q44 0 82.5 27t70.5 81v274q-26 21 -56 31.5t-64 10.5q-67 0 -100 -36.5t-33 -108.5v-132q0 -74 24.5 -110.5t75.5 -36.5zM414 84q-19 -46 -58 -70t-88 -24q-77 0 -120 58t-43 165v137q0 103 57.5 160t160.5 57q28 0 58.5 -8t58.5 -22v102h-169v74h169v87h79v-87
h84v-74h-84v-639h-79v84h-26z" />
    <glyph glyph-name="hbar" unicode="&#x127;" 
d="M184 381v-381h-79v639h-84v74h84v87h79v-87h169v-74h-169v-175h26q17 47 59 74.5t96 27.5q71 0 112.5 -48t41.5 -129v-389h-79v374q0 57 -25 84.5t-76 27.5q-42 0 -80 -25.5t-75 -79.5z" />
    <glyph glyph-name="dotlessi" 
d="M104 0v76h168v448h-168v76h248v-524h168v-76h-416z" />
    <glyph glyph-name="ij" 
d="M163 716q-31 0 -50.5 10.5t-19.5 40.5v5q0 31 19.5 42t50.5 11t50 -11t19 -42v-5q0 -30 -19 -40.5t-50 -10.5zM477 716q-31 0 -50.5 10.5t-19.5 40.5v5q0 31 19.5 42t50.5 11t50.5 -11t19.5 -42v-5q0 -30 -19.5 -40.5t-50.5 -10.5zM203 0h-81v600h81v-600zM335 -208
q-28 0 -55 5t-58 17l17 87q26 -12 49 -17t46 -5q47 0 76 29t29 97v519h-109v76h190v-607q0 -101 -53.5 -151t-131.5 -50z" />
    <glyph glyph-name="kgreenlandic" unicode="&#x138;" 
d="M228 281v-281h-80v600h80v-248h43l162 248h98l-199 -281l197 -319h-92l-166 281h-43z" />
    <glyph glyph-name="ldot" 
d="M104 0v76h167v648h-167v76h247v-724h168v-76h-415zM578 307q-31 0 -50.5 10.5t-19.5 40.5v5q0 31 19.5 42t50.5 11t50.5 -11t19.5 -42v-5q0 -30 -19.5 -40.5t-50.5 -10.5z" />
    <glyph glyph-name="lslash" 
d="M104 0v76h167v283l-125 -40v68l125 40v297h-167v76h247v-347l128 41v-68l-128 -41v-309h168v-76h-415z" />
    <glyph glyph-name="napostrophe" unicode="&#x149;" 
d="M105 0v600h79v-84h26q22 43 62 68.5t86 25.5q75 0 118 -53t43 -146v-411h-79v396q0 67 -25.5 101t-74.5 34q-43 0 -82 -26t-74 -77v-428h-79zM9 700l114 200h122l-162 -200h-74z" />
    <glyph glyph-name="eng" unicode="&#x14b;" 
d="M352 -208q-25 0 -51.5 6t-54.5 16l17 87q23 -10 45.5 -16t41.5 -6q40 0 65 25t25 85v415q0 63 -25 95t-75 32q-43 0 -81.5 -25.5t-74.5 -77.5v-428h-79v600h79v-84h26q22 43 62.5 68.5t89.5 25.5q73 0 115 -51t42 -138v-444q0 -93 -47.5 -139t-119.5 -46z" />
    <glyph glyph-name="oe" unicode="&#x153;" 
d="M580 129q-8 -69 -42 -104t-104 -35q-44 0 -76 18.5t-49 56.5q-19 -38 -49.5 -56.5t-69.5 -18.5q-65 0 -105 54.5t-40 167.5v172q0 114 40.5 170t105.5 56q38 0 68 -18.5t49 -56.5q18 38 48 56.5t69 18.5q71 0 112.5 -46.5t41.5 -143.5v-134h-234v-112q0 -66 19.5 -94.5
t60.5 -28.5q42 0 59 17t23 64zM345 421v-80h161v70q0 72 -20 105t-61 33q-40 0 -60 -31.5t-20 -96.5zM198 52q40 0 60.5 37.5t20.5 121.5v171q0 85 -20.5 125.5t-60.5 40.5q-39 0 -59.5 -40.5t-20.5 -124.5v-172q0 -84 20.5 -121.5t59.5 -37.5z" />
    <glyph glyph-name="tbar" unicode="&#x167;" 
d="M406 -9q-85 0 -132 50t-47 140v108h-114v81h114v154h-143v76h143v200h79v-200h219v-76h-219v-154h189v-81h-189v-97q0 -60 24 -90t73 -30q31 0 59.5 5t53.5 15l17 -78q-25 -9 -59 -16t-68 -7z" />
    <glyph glyph-name="longs" unicode="&#x17f;" 
d="M272 0v524h-100v76h100v42q0 73 41.5 116t107.5 43q21 0 51 -7.5t55 -18.5l-17 -72q-21 10 -42.5 15t-39.5 5q-36 0 -56 -18.5t-20 -55.5v-649h-80z" />
    <glyph glyph-name="dotlessj" unicode="&#xf6be;" 
d="M236 -208q-31 0 -62 4.5t-68 17.5l17 87q31 -13 58 -17.5t53 -4.5q54 0 88 29t34 97v519h-235v76h315v-607q0 -104 -58.5 -152.5t-141.5 -48.5z" />
    <glyph glyph-name="dotlessj" unicode="&#x237;" 
d="M236 -208q-31 0 -62 4.5t-68 17.5l17 87q31 -13 58 -17.5t53 -4.5q54 0 88 29t34 97v519h-235v76h315v-607q0 -104 -58.5 -152.5t-141.5 -48.5z" />
    <glyph glyph-name="alpha" unicode="&#x3b1;" 
d="M270 69q41 0 75.5 26.5t68.5 83.5v241q-33 57 -68 83.5t-76 26.5q-46 0 -69 -37.5t-23 -110.5v-163q0 -75 23 -112.5t69 -37.5zM429 91h-24q-20 -51 -60.5 -76t-93.5 -25q-71 0 -113 57.5t-42 167.5v175q0 106 43 163t115 57q46 0 81.5 -25t54.5 -72h24v87h81v-452
q0 -52 20 -68t65 -5v-80q-69 -8 -107.5 14.5t-43.5 81.5z" />
    <glyph glyph-name="alphatonos" unicode="&#x3ac;" 
d="M270 69q41 0 75.5 26.5t68.5 83.5v241q-33 57 -68 83.5t-76 26.5q-46 0 -69 -37.5t-23 -110.5v-163q0 -75 23 -112.5t69 -37.5zM429 91h-24q-20 -51 -60.5 -76t-93.5 -25q-71 0 -113 57.5t-42 167.5v175q0 106 43 163t115 57q46 0 81.5 -25t54.5 -72h24v87h81v-452
q0 -52 20 -68t65 -5v-80q-69 -8 -107.5 14.5t-43.5 81.5zM297 700l64 200h114l-112 -200h-66z" />
    <glyph glyph-name="beta" unicode="&#x3b2;" 
d="M304 60q70 0 102 39t32 119v42q0 64 -33 94.5t-102 30.5h-39v82h34q60 0 88 29t28 89v10q0 73 -28 108t-87 35q-58 0 -86.5 -35.5t-28.5 -110.5v-490q27 -22 56 -32t64 -10zM303 -10q-31 0 -61.5 8.5t-57.5 22.5v-221h-79v786q0 111 53 167.5t141 56.5q89 0 141 -52.5
t52 -148.5v-24q0 -53 -20.5 -90.5t-67.5 -46.5v-29q53 -6 83.5 -47.5t31.5 -95.5v-51q0 -119 -61.5 -177t-154.5 -58z" />
    <glyph glyph-name="gamma" unicode="&#x3b3;" 
d="M360 -200h-96l8 220l-188 580h88l143 -462l141 462h84l-188 -580z" />
    <glyph glyph-name="delta" unicode="&#x3b4;" 
d="M312 -10q-93 0 -151 54.5t-58 167.5v105q0 66 35.5 110t87.5 67q-52 28 -74.5 61t-22.5 86q0 84 45 121.5t135 37.5h154v-76h-156q-54 0 -79 -15t-25 -61q0 -39 24.5 -60t117.5 -54q102 -38 139 -82t37 -122v-118q0 -113 -58 -167.5t-151 -54.5zM312 66q64 0 96.5 34
t32.5 112v118q0 54 -37 85.5t-127 57.5q-41 -19 -67 -57.5t-26 -101.5v-102q0 -78 32 -112t96 -34z" />
    <glyph glyph-name="epsilon" unicode="&#x3b5;" 
d="M315 -10q-116 0 -171.5 44t-55.5 136v7q0 53 32.5 92t97.5 44v22q-53 4 -84 31.5t-31 74.5v11q0 80 51.5 119t160.5 39q99 0 148.5 -41.5t56.5 -132.5l-80 -8q-6 61 -34 82.5t-91 21.5q-72 0 -102 -18.5t-30 -64.5v-14q0 -37 28.5 -53t96.5 -16h46v-75h-46
q-75 0 -107.5 -23.5t-32.5 -82.5v-10q0 -60 33.5 -84.5t113.5 -24.5q70 0 102 24t39 93l79 -7q-7 -102 -58.5 -144t-161.5 -42z" />
    <glyph glyph-name="epsilontonos" unicode="&#x3ad;" 
d="M315 -10q-116 0 -171.5 44t-55.5 136v7q0 53 32.5 92t97.5 44v22q-53 4 -84 31.5t-31 74.5v11q0 80 51.5 119t160.5 39q99 0 148.5 -41.5t56.5 -132.5l-80 -8q-6 61 -34 82.5t-91 21.5q-72 0 -102 -18.5t-30 -64.5v-14q0 -37 28.5 -53t96.5 -16h46v-75h-46
q-75 0 -107.5 -23.5t-32.5 -82.5v-10q0 -60 33.5 -84.5t113.5 -24.5q70 0 102 24t39 93l79 -7q-7 -102 -58.5 -144t-161.5 -42zM251 700l64 200h114l-112 -200h-66z" />
    <glyph glyph-name="zeta" unicode="&#x3b6;" 
d="M362 -200h-92v79h105q31 0 49.5 13t18.5 54q0 40 -18.5 53.5t-49.5 13.5h-72q-99 0 -152 64.5t-53 159.5q0 64 22.5 120.5t50.5 90.5l138 187l-6 11q-95 -11 -149 35.5t-68 132.5l71 4q10 -67 64.5 -90t134.5 1l156 90l33 -93l-120 -50l-184 -263q-25 -29 -44 -74
t-19 -98q0 -66 32 -107.5t89 -41.5h70q69 0 110 -35t41 -113q0 -69 -43 -106.5t-115 -37.5z" />
    <glyph glyph-name="eta" unicode="&#x3b7;" 
d="M440 -200v604q0 63 -25 95t-75 32q-43 0 -81.5 -25.5t-74.5 -77.5v-428h-79v600h79v-84h26q22 43 63 68.5t89 25.5q72 0 114.5 -51t42.5 -138v-621h-79z" />
    <glyph glyph-name="etatonos" unicode="&#x3ae;" 
d="M440 -200v604q0 63 -25 95t-75 32q-43 0 -81.5 -25.5t-74.5 -77.5v-428h-79v600h79v-84h26q22 43 63 68.5t89 25.5q72 0 114.5 -51t42.5 -138v-621h-79zM255 700l64 200h114l-112 -200h-66z" />
    <glyph glyph-name="theta" unicode="&#x3b8;" 
d="M312 -10q-98 0 -152.5 57t-54.5 170v362q0 116 54.5 173.5t153.5 57.5q98 0 152 -57.5t54 -173.5v-362q0 -113 -54.5 -170t-152.5 -57zM185 581v-135h254v134q0 80 -32 117t-95 37t-95 -36.5t-32 -116.5zM312 66q63 0 95 35t32 112v151h-254v-151q0 -77 32 -112t95 -35z
" />
    <glyph glyph-name="iota" unicode="&#x3b9;" 
d="M434 -5q-75 0 -118 47.5t-43 134.5v347h-186v76h266v-436q0 -46 20 -70t63 -24q17 0 42 4.5t41 14.5l17 -73q-19 -10 -45.5 -15.5t-56.5 -5.5z" />
    <glyph glyph-name="iotadieresistonos" unicode="&#x390;" 
d="M434 -5q-75 0 -118 47.5t-43 134.5v347h-186v76h266v-436q0 -46 20 -70t63 -24q17 0 42 4.5t41 14.5l17 -73q-19 -10 -45.5 -15.5t-56.5 -5.5zM251 700l39 200h98l-87 -200h-50zM160 703q-20 0 -32.5 10.5t-12.5 41.5v4q0 31 12.5 42t32.5 11t32 -11t12 -42v-4
q0 -31 -12.5 -41.5t-31.5 -10.5zM448 703q-20 0 -32 10.5t-12 41.5v4q0 31 12 42t32 11t32.5 -11t12.5 -42v-4q0 -31 -13 -41.5t-32 -10.5z" />
    <glyph glyph-name="iotatonos" unicode="&#x3af;" 
d="M434 -5q-75 0 -118 47.5t-43 134.5v347h-186v76h266v-436q0 -46 20 -70t63 -24q17 0 42 4.5t41 14.5l17 -73q-19 -10 -45.5 -15.5t-56.5 -5.5zM246 700l64 200h114l-112 -200h-66z" />
    <glyph glyph-name="iotadieresis" unicode="&#x3ca;" 
d="M434 -5q-75 0 -118 47.5t-43 134.5v347h-186v76h266v-436q0 -46 20 -70t63 -24q17 0 42 4.5t41 14.5l17 -73q-19 -10 -45.5 -15.5t-56.5 -5.5zM212 716q-24 0 -38.5 10.5t-14.5 40.5v5q0 31 14.5 42t38.5 11q25 0 39 -11t14 -42v-5q0 -30 -14.5 -40.5t-38.5 -10.5z
M404 716q-25 0 -39 10.5t-14 40.5v5q0 31 14 42t39 11q23 0 38 -11t15 -42v-5q0 -30 -15 -40.5t-38 -10.5z" />
    <glyph glyph-name="kappa" unicode="&#x3ba;" 
d="M228 281v-281h-80v600h80v-248h43l162 248h98l-199 -281l197 -319h-92l-166 281h-43z" />
    <glyph glyph-name="lambda" unicode="&#x3bb;" 
d="M452 0l-141 534l-142 -534h-85l180 626h23l-5 19q-12 43 -35.5 65t-64.5 22q-16 0 -37 -3t-46 -10l-13 74q22 5 43.5 8.5t42.5 3.5q62 0 105.5 -31.5t65.5 -100.5l197 -673h-88z" />
    <glyph glyph-name="mu" unicode="&#x3bc;" 
d="M184 20l9 -220h-97l8 220v580h80v-410q0 -66 29.5 -94.5t71.5 -28.5q38 0 66.5 23.5t54.5 63.5v446h80v-452q0 -54 19.5 -69.5t65.5 -3.5v-80q-62 -9 -94 18.5t-36 94.5h-16q-25 -56 -61.5 -87.5t-86.5 -31.5q-28 0 -51.5 12.5t-41.5 37.5v-19z" />
    <glyph glyph-name="nu" unicode="&#x3bd;" 
d="M353 0h-83l-186 600h83l156 -550q60 139 94.5 277.5t43.5 272.5h79q-16 -169 -67 -320t-120 -280z" />
    <glyph glyph-name="xi" unicode="&#x3be;" 
d="M537 -56q0 -69 -42.5 -106.5t-114.5 -37.5h-91v79h104q31 0 49 13t18 54q0 40 -18 53.5t-49 13.5h-88q-93 0 -147 50.5t-54 137.5v30q0 62 37 109.5t111 54.5v23q-48 0 -73 30.5t-25 78.5q0 39 16 67.5t51 47.5v23q-75 7 -117.5 46.5t-56.5 102.5l75 4q7 -42 65 -65
t134 -14l168 80l35 -93l-179 -60l-40 -27q-38 -29 -54.5 -55t-16.5 -58q0 -45 19 -63.5t47 -18.5h162v-78h-161q-62 0 -89.5 -35t-27.5 -85v-30q0 -56 28.5 -90t90.5 -34h88q67 0 106.5 -35t39.5 -113z" />
    <glyph glyph-name="omicron" unicode="&#x3bf;" 
d="M312 -10q-100 0 -153.5 55.5t-53.5 158.5v188q0 105 54 161.5t154 56.5q99 0 152.5 -56t53.5 -160v-189q0 -104 -53.5 -159.5t-153.5 -55.5zM312 66q64 0 96 32t32 103v193q0 72 -32 106t-96 34t-96 -34t-32 -106v-194q0 -70 32 -102t96 -32z" />
    <glyph glyph-name="omicrontonos" unicode="&#x3cc;" 
d="M312 -10q-100 0 -153.5 55.5t-53.5 158.5v188q0 105 54 161.5t154 56.5q99 0 152.5 -56t53.5 -160v-189q0 -104 -53.5 -159.5t-153.5 -55.5zM312 66q64 0 96 32t32 103v193q0 72 -32 106t-96 34t-96 -34t-32 -106v-194q0 -70 32 -102t96 -32zM251 700l64 200h114
l-112 -200h-66z" />
    <glyph glyph-name="pi" unicode="&#x3c0;" 
d="M545 600v-76h-101v-378q0 -52 20.5 -66.5t80.5 -4.5v-80q-98 -7 -140 18t-42 91v420h-144v-524h-80v524h-85v76h491z" />
    <glyph glyph-name="rho" unicode="&#x3c1;" 
d="M337 69q52 0 77.5 36t25.5 110v177q0 72 -32.5 107.5t-95.5 35.5q-64 0 -96 -35.5t-32 -107.5v-215q33 -54 70.5 -81t82.5 -27zM105 -200v592q0 107 56 163t152 56t151 -56t55 -163v-182q0 -108 -44.5 -164t-118.5 -56q-49 0 -87.5 24t-58.5 70h-26v-284h-79z" />
    <glyph glyph-name="sigma1" unicode="&#x3c2;" 
d="M275 -200v76h105q31 0 49 13t18 56q0 40 -18 54t-49 14h-71q-108 0 -156 57t-48 167v153q0 107 49.5 163.5t160.5 56.5q99 0 145 -51.5t52 -161.5l-74 -3q-4 79 -31.5 110t-92.5 31q-67 0 -98.5 -31.5t-31.5 -101.5v-181q0 -70 29.5 -101.5t91.5 -31.5h72q68 0 107 -34
t39 -112q0 -69 -42 -105.5t-114 -36.5h-92z" />
    <glyph glyph-name="sigma" unicode="&#x3c3;" 
d="M296 66q54 0 82 31t28 103v154q0 87 -28 127t-82 40q-55 0 -83.5 -33.5t-28.5 -106.5v-181q0 -72 28.5 -103t83.5 -31zM296 -10q-84 0 -137.5 51.5t-53.5 162.5v175q0 107 53.5 164t137.5 57h308v-86l-191 21q34 -24 53.5 -65.5t19.5 -101.5v-164q0 -111 -53 -162.5
t-137 -51.5z" />
    <glyph glyph-name="tau" unicode="&#x3c4;" 
d="M452 -5q-99 -6 -139.5 18t-40.5 91v424h-167v72h422v-72h-175v-397q0 -40 21 -52.5t79 -3.5v-80z" />
    <glyph glyph-name="upsilon" unicode="&#x3c5;" 
d="M312 -10q-101 0 -154 53t-53 154v403h79v-406q0 -71 31.5 -101.5t96.5 -30.5t96.5 30.5t31.5 101.5v406h79v-403q0 -101 -53 -154t-154 -53z" />
    <glyph glyph-name="upsilondieresistonos" unicode="&#x3b0;" 
d="M312 -10q-101 0 -154 53t-53 154v403h79v-406q0 -71 31.5 -101.5t96.5 -30.5t96.5 30.5t31.5 101.5v406h79v-403q0 -101 -53 -154t-154 -53zM259 700l39 200h98l-87 -200h-50zM168 703q-20 0 -32.5 10.5t-12.5 41.5v4q0 31 12.5 42t32.5 11t32 -11t12 -42v-4
q0 -31 -12.5 -41.5t-31.5 -10.5zM456 703q-20 0 -32 10.5t-12 41.5v4q0 31 12 42t32 11t32.5 -11t12.5 -42v-4q0 -31 -13 -41.5t-32 -10.5z" />
    <glyph glyph-name="upsilondieresis" unicode="&#x3cb;" 
d="M312 -10q-101 0 -154 53t-53 154v403h79v-406q0 -71 31.5 -101.5t96.5 -30.5t96.5 30.5t31.5 101.5v406h79v-403q0 -101 -53 -154t-154 -53zM216 716q-24 0 -38.5 10.5t-14.5 40.5v5q0 31 14.5 42t38.5 11q25 0 39 -11t14 -42v-5q0 -30 -14.5 -40.5t-38.5 -10.5zM408 716
q-25 0 -39 10.5t-14 40.5v5q0 31 14 42t39 11q23 0 38 -11t15 -42v-5q0 -30 -15 -40.5t-38 -10.5z" />
    <glyph glyph-name="upsilontonos" unicode="&#x3cd;" 
d="M312 -10q-101 0 -154 53t-53 154v403h79v-406q0 -71 31.5 -101.5t96.5 -30.5t96.5 30.5t31.5 101.5v406h79v-403q0 -101 -53 -154t-154 -53zM251 700l64 200h114l-112 -200h-66z" />
    <glyph glyph-name="phi" unicode="&#x3c6;" 
d="M349 -200h-76v192q-94 10 -148.5 74.5t-54.5 174.5v98q0 86 17 156.5t45 124.5l70 -32q-23 -47 -40 -110t-17 -139v-98q0 -82 32.5 -129t96.5 -57v545h80q89 0 144.5 -68t55.5 -214v-63q0 -119 -56.5 -186t-148.5 -77v-192zM348 538v-484q65 11 97.5 61.5t32.5 139.5v63
q0 114 -33 167t-97 53z" />
    <glyph glyph-name="chi" unicode="&#x3c7;" 
d="M431 -200l-127 320l-133 -320h-77l177 395l-164 405h79l131 -325l136 325h77l-181 -400l163 -400h-81z" />
    <glyph glyph-name="psi" unicode="&#x3c8;" 
d="M349 -200h-74v194q-104 9 -154.5 66.5t-50.5 157.5v382h75v-387q0 -70 30 -103.5t99 -39.5v530h76v-530q69 6 99 39.5t30 103.5v387h75v-382q0 -100 -51 -157.5t-154 -66.5v-194z" />
    <glyph glyph-name="omega" unicode="&#x3c9;" 
d="M195 -10q-55 0 -90 59t-35 172v88q0 95 17 181.5t36 126.5l70 -32q-13 -32 -30.5 -110.5t-17.5 -165.5v-84q0 -81 16.5 -122t49.5 -41q32 0 47.5 31t15.5 101v272h76v-272q0 -70 15.5 -101t47.5 -31q33 0 49.5 41t16.5 122v84q0 87 -17.5 165.5t-30.5 110.5l70 32
q20 -40 36.5 -126.5t16.5 -181.5v-88q0 -113 -35 -172t-90 -59q-41 0 -70 31.5t-42 97.5h-10q-13 -66 -42 -97.5t-70 -31.5z" />
    <glyph glyph-name="omegatonos" unicode="&#x3ce;" 
d="M195 -10q-55 0 -90 59t-35 172v88q0 95 17 181.5t36 126.5l70 -32q-13 -32 -30.5 -110.5t-17.5 -165.5v-84q0 -81 16.5 -122t49.5 -41q32 0 47.5 31t15.5 101v272h76v-272q0 -70 15.5 -101t47.5 -31q33 0 49.5 41t16.5 122v84q0 87 -17.5 165.5t-30.5 110.5l70 32
q20 -40 36.5 -126.5t16.5 -181.5v-88q0 -113 -35 -172t-90 -59q-41 0 -70 31.5t-42 97.5h-10q-13 -66 -42 -97.5t-70 -31.5zM259 700l64 200h114l-112 -200h-66z" />
    <glyph glyph-name="acyrillic" unicode="&#x430;" 
d="M251 67q50 0 86 21t61 70v102h-143q-44 0 -69.5 -21t-25.5 -72q0 -48 21 -74t70 -26zM241 -10q-71 0 -116.5 43t-45.5 127q0 78 44.5 123t113.5 45h161v98q0 46 -27.5 76.5t-82.5 30.5q-58 0 -85 -23t-42 -90l-71 23q15 82 65 124.5t131 42.5t136.5 -42.5t55.5 -126.5
v-298q0 -49 24.5 -65t76.5 -3v-80q-63 -8 -102.5 13t-43.5 87h-16q-22 -46 -69.5 -75.5t-106.5 -29.5z" />
    <glyph glyph-name="becyrillic" unicode="&#x431;" 
d="M312 -10q-93 0 -150.5 53t-57.5 169v327q0 98 54 154t149 79l177 42l14 -67l-179 -41q-75 -19 -109.5 -66t-34.5 -144l1 -24h19q13 25 49.5 46.5t90.5 21.5q87 0 136.5 -55t49.5 -151v-122q0 -113 -58 -167.5t-151 -54.5zM312 66q70 0 99 36.5t29 110.5v113q0 69 -29 103
t-99 34q-69 0 -98.5 -34t-29.5 -103v-113q0 -74 29.5 -110.5t98.5 -36.5z" />
    <glyph glyph-name="vecyrillic" unicode="&#x432;" 
d="M105 0v600h203q110 0 161 -38t51 -115v-11q0 -48 -30.5 -75.5t-84.5 -31.5v-22q66 -5 98 -42t32 -88v-7q0 -87 -57 -128.5t-170 -41.5h-203zM185 352h130q72 0 98.5 15.5t26.5 57.5v14q0 48 -28.5 65.5t-103.5 17.5h-123v-170zM185 76h123q84 0 115.5 20t31.5 77v10
q0 56 -30 75.5t-110 19.5h-130v-202z" />
    <glyph glyph-name="gecyrillic" unicode="&#x433;" 
d="M147 0v600h382v-72h-303v-528h-79z" />
    <glyph glyph-name="gjecyrillic" unicode="&#x453;" 
d="M147 0v600h382v-72h-303v-528h-79zM283 700l114 200h122l-162 -200h-74z" />
    <glyph glyph-name="decyrillic" unicode="&#x434;" 
d="M208 99v-27h198v456h-163l-2 -290q-1 -44 -8.5 -78.5t-24.5 -60.5zM134 0v-150h-80v222h59q25 24 37.5 66t12.5 107l3 355h320v-528h84v-222h-80v150h-356z" />
    <glyph glyph-name="iecyrillic" unicode="&#x435;" 
d="M522 129q-24 -72 -70 -105.5t-140 -33.5q-98 0 -152.5 54t-54.5 161v186q0 111 58.5 165t149.5 54q92 0 149 -55t57 -171v-98h-335v-79q0 -78 32 -110.5t95 -32.5q61 0 88.5 21.5t43.5 67.5zM184 385v-32h256v22q0 83 -32.5 121.5t-95.5 38.5t-95.5 -37.5t-32.5 -112.5z
" />
    <glyph glyph-name="iegravecyrillic" unicode="&#x450;" 
d="M522 129q-24 -72 -70 -105.5t-140 -33.5q-98 0 -152.5 54t-54.5 161v186q0 111 58.5 165t149.5 54q92 0 149 -55t57 -171v-98h-335v-79q0 -78 32 -110.5t95 -32.5q61 0 88.5 21.5t43.5 67.5zM184 385v-32h256v22q0 83 -32.5 121.5t-95.5 38.5t-95.5 -37.5t-32.5 -112.5z
M315 700l-162 200h121l115 -200h-74z" />
    <glyph glyph-name="iocyrillic" unicode="&#x451;" 
d="M522 129q-24 -72 -70 -105.5t-140 -33.5q-98 0 -152.5 54t-54.5 161v186q0 111 58.5 165t149.5 54q92 0 149 -55t57 -171v-98h-335v-79q0 -78 32 -110.5t95 -32.5q61 0 88.5 21.5t43.5 67.5zM184 385v-32h256v22q0 83 -32.5 121.5t-95.5 38.5t-95.5 -37.5t-32.5 -112.5z
M217 716q-24 0 -38.5 10.5t-14.5 40.5v5q0 31 14.5 42t38.5 11q25 0 39 -11t14 -42v-5q0 -30 -14.5 -40.5t-38.5 -10.5zM409 716q-25 0 -39 10.5t-14 40.5v5q0 31 14 42t39 11q23 0 38 -11t15 -42v-5q0 -30 -15 -40.5t-38 -10.5z" />
    <glyph glyph-name="zhecyrillic" unicode="&#x436;" 
d="M249 295l-121 -295h-84l153 327l-156 273h84l125 -237h25v237h74v-237h25l126 237h82l-156 -273l154 -327h-83l-123 295h-25v-295h-74v295h-26z" />
    <glyph glyph-name="zecyrillic" unicode="&#x437;" 
d="M308 -10q-115 0 -164 41.5t-56 144.5l79 7q7 -69 38 -92.5t103 -23.5q80 0 113.5 22.5t33.5 85.5v10q0 60 -32.5 83t-107.5 23h-48v75h48q69 0 96.5 15t27.5 54v14q0 47 -29.5 65t-101.5 18q-63 0 -91 -21t-35 -83l-79 8q6 93 55 133.5t150 40.5q104 0 158 -37.5
t54 -120.5v-11q0 -47 -31 -74.5t-84 -31.5v-22q65 -5 97.5 -44t32.5 -92v-7q0 -90 -53 -135t-174 -45z" />
    <glyph glyph-name="iicyrillic" unicode="&#x438;" 
d="M443 0v501l-230 -501h-108v600h77v-505l234 505h103v-600h-76z" />
    <glyph glyph-name="iishortcyrillic" unicode="&#x439;" 
d="M443 0v501l-230 -501h-108v600h77v-505l234 505h103v-600h-76zM312 693q-71 0 -122.5 42t-52.5 149l81 10q1 -72 21 -102.5t73 -30.5t73 30.5t21 102.5l81 -10q-1 -107 -52.5 -149t-122.5 -42z" />
    <glyph glyph-name="igravecyrillic" unicode="&#x45d;" 
d="M443 0v501l-230 -501h-108v600h77v-505l234 505h103v-600h-76zM314 700l-162 200h121l115 -200h-74z" />
    <glyph glyph-name="kacyrillic" unicode="&#x43a;" 
d="M228 281v-281h-80v600h80v-248h43l162 248h98l-199 -281l197 -319h-92l-166 281h-43z" />
    <glyph glyph-name="kjecyrillic" unicode="&#x45c;" 
d="M228 281v-281h-80v600h80v-248h43l162 248h98l-199 -281l197 -319h-92l-166 281h-43zM271 700l114 200h122l-162 -200h-74z" />
    <glyph glyph-name="elcyrillic" unicode="&#x43b;" 
d="M439 0v524h-187l-3 -287q-1 -124 -39.5 -185t-107.5 -61q-17 0 -32 3.5t-27 7.5l14 72l22 -7t16 -3q42 0 59 42.5t18 143.5l3 350h344v-600h-80z" />
    <glyph glyph-name="emcyrillic" unicode="&#x43c;" 
d="M268 150l-99 403l-1 -553h-72v600h129l90 -370l89 370h124v-600h-72l-4 545l-96 -395h-88z" />
    <glyph glyph-name="encyrillic" unicode="&#x43d;" 
d="M105 0v600h79v-213h256v213h79v-600h-79v314h-256v-314h-79z" />
    <glyph glyph-name="ocyrillic" unicode="&#x43e;" 
d="M312 -10q-100 0 -153.5 55.5t-53.5 158.5v188q0 105 54 161.5t154 56.5q99 0 152.5 -56t53.5 -160v-189q0 -104 -53.5 -159.5t-153.5 -55.5zM312 66q64 0 96 32t32 103v193q0 72 -32 106t-96 34t-96 -34t-32 -106v-194q0 -70 32 -102t96 -32z" />
    <glyph glyph-name="pecyrillic" unicode="&#x43f;" 
d="M105 0v600h414v-600h-79v528h-256v-528h-79z" />
    <glyph glyph-name="ercyrillic" unicode="&#x440;" 
d="M304 62q69 0 102.5 36.5t33.5 109.5v189q0 68 -25.5 101t-77.5 33q-45 0 -82 -26.5t-71 -81.5v-319q26 -21 55.5 -31.5t64.5 -10.5zM303 -11q-28 0 -59.5 8t-59.5 22v-219h-79v800h79v-84h26q18 43 57 68.5t90 25.5q76 0 119 -60.5t43 -164.5v-179q0 -101 -57.5 -159
t-158.5 -58z" />
    <glyph glyph-name="escyrillic" unicode="&#x441;" 
d="M324 -10q-111 0 -165 55t-54 156v191q0 107 54.5 162.5t163.5 55.5q98 0 149 -49t57 -151l-78 -3q-4 73 -35 100.5t-94 27.5q-68 0 -103 -33t-35 -105v-199q0 -68 35.5 -100t104.5 -32q63 0 93 22t34 85l78 -3q-6 -93 -56.5 -136.5t-148.5 -43.5z" />
    <glyph glyph-name="tecyrillic" unicode="&#x442;" 
d="M272 0v528h-193v72h466v-72h-193v-528h-80z" />
    <glyph glyph-name="ucyrillic" unicode="&#x443;" 
d="M171 -204q-20 0 -41.5 3t-43.5 7l15 75q22 -5 40 -7.5t34 -2.5q44 0 71 26t45 82l3 10h-31l-179 611h87l144 -536l141 536h84l-177 -627q-29 -102 -80 -139.5t-112 -37.5z" />
    <glyph glyph-name="ushortcyrillic" unicode="&#x45e;" 
d="M171 -204q-20 0 -41.5 3t-43.5 7l15 75q22 -5 40 -7.5t34 -2.5q44 0 71 26t45 82l3 10h-31l-179 611h87l144 -536l141 536h84l-177 -627q-29 -102 -80 -139.5t-112 -37.5zM312 693q-71 0 -122.5 42t-52.5 149l81 10q1 -72 21 -102.5t73 -30.5t73 30.5t21 102.5l81 -10
q-1 -107 -52.5 -149t-122.5 -42z" />
    <glyph glyph-name="efcyrillic" unicode="&#x444;" 
d="M377 0h-28v-200h-74v200h-28q-84 0 -130.5 66.5t-46.5 186.5v93q0 121 46.5 187.5t130.5 66.5h28v200h74v-200h28q84 0 130.5 -66.5t46.5 -187.5v-93q0 -120 -46.5 -186.5t-130.5 -66.5zM257 76h22v449h-22q-56 0 -84 -46t-28 -137v-87q0 -90 28 -134.5t84 -44.5z
M367 525h-22v-449h22q56 0 84 44.5t28 134.5v87q0 91 -28 137t-84 46z" />
    <glyph glyph-name="khacyrillic" unicode="&#x445;" 
d="M438 0l-131 234l-125 -234h-89l174 301l-169 299h91l126 -227l128 227h89l-177 -295l173 -305h-90z" />
    <glyph glyph-name="tsecyrillic" unicode="&#x446;" 
d="M485 -150v150h-380v600h79v-528h213v528h79v-528h85v-222h-76z" />
    <glyph glyph-name="checyrillic" unicode="&#x447;" 
d="M476 600v-600h-80v221q-22 -8 -54 -13t-60 -5q-96 0 -145.5 49.5t-49.5 145.5v202h81v-200q0 -67 31.5 -96t93.5 -30q27 0 55.5 6t47.5 16v304h80z" />
    <glyph glyph-name="shacyrillic" unicode="&#x448;" 
d="M70 0v600h75v-534h130v534h74v-534h130v534h75v-600h-484z" />
    <glyph glyph-name="shchacyrillic" unicode="&#x449;" 
d="M600 -150h-74v150h-456v600h75v-534h130v534h74v-534h130v534h75v-524h46v-226z" />
    <glyph glyph-name="hardsigncyrillic" unicode="&#x44a;" 
d="M371 0h-226v528h-125v72h205v-211h145q81 0 127.5 -46t46.5 -127v-37q0 -84 -46 -131.5t-127 -47.5zM225 76h128q57 0 84 24t27 75v42q0 51 -27 74.5t-84 23.5h-128v-239z" />
    <glyph glyph-name="yericyrillic" unicode="&#x44b;" 
d="M88 0v600h74v-216h75q71 0 110.5 -48.5t39.5 -133.5v-20q0 -85 -39 -133.5t-110 -48.5h-150zM462 0v600h74v-600h-74zM162 73h58q48 0 70 25t22 79v33q0 52 -22 77t-70 25h-58v-239z" />
    <glyph glyph-name="softsigncyrillic" unicode="&#x44c;" 
d="M104 0v600h80v-211h187q81 0 127 -45.5t46 -125.5v-40q0 -84 -45.5 -131t-126.5 -47h-268zM184 76h170q58 0 84 24t26 75v45q0 50 -26 72.5t-84 22.5h-170v-239z" />
    <glyph glyph-name="ereversedcyrillic" unicode="&#x44d;" 
d="M299 -10q-100 0 -148.5 46t-55.5 144l77 4q2 -63 32 -89.5t96 -26.5q71 0 105.5 32.5t34.5 101.5v72h-193v72h193v49q0 72 -34 104.5t-104 32.5q-69 0 -98 -31t-32 -106l-77 3q7 107 56.5 159.5t148.5 52.5q113 0 166 -56t53 -163v-181q0 -108 -53 -164t-167 -56z" />
    <glyph glyph-name="iucyrillic" unicode="&#x44e;" 
d="M391 -10q-82 0 -122 53t-40 152v104h-76v-299h-82v600h82v-223h76v24q0 100 40.5 154.5t122.5 54.5q84 0 122.5 -57t38.5 -152v-206q0 -93 -38.5 -149t-123.5 -56zM391 69q48 0 68.5 28.5t20.5 97.5v206q0 71 -20.5 100.5t-68.5 29.5q-49 0 -69.5 -29.5t-20.5 -100.5
v-206q0 -69 20.5 -97.5t69.5 -28.5z" />
    <glyph glyph-name="iacyrillic" unicode="&#x44f;" 
d="M268 295h172v226h-172q-44 0 -64 -23.5t-20 -73.5v-22q0 -54 20 -80.5t64 -26.5zM440 219h-81l-162 -219h-100l162 215q-76 3 -115.5 49t-39.5 134v19q0 91 42 137t123 46h250v-600h-79v219z" />
    <glyph glyph-name="djecyrillic" unicode="&#x452;" 
d="M353 -208q-24 0 -51 6t-55 16l16 87q24 -10 46.5 -16t41.5 -6q40 0 64.5 29.5t24.5 99.5v372q0 56 -28 81t-73 25q-43 0 -82.5 -26t-72.5 -72v-388h-79v639h-84v74h84v87h79v-87h169v-74h-169v-167h26q22 46 61 70t94 24q71 0 112.5 -46.5t41.5 -122.5v-402
q0 -104 -48.5 -153.5t-117.5 -49.5z" />
    <glyph glyph-name="ecyrillic" unicode="&#x454;" 
d="M529 180q-6 -98 -56 -144t-149 -46q-111 0 -165 56t-54 164v181q0 107 54 163t164 56q98 0 149 -52.5t57 -159.5l-79 -3q-3 74 -32.5 105t-95.5 31q-68 0 -103 -32.5t-35 -103.5v-48h192v-74h-192v-71q0 -69 35.5 -100.5t104.5 -31.5q64 0 93.5 26t32.5 88z" />
    <glyph glyph-name="dzecyrillic" unicode="&#x455;" 
d="M324 -11q-63 0 -124.5 20t-109.5 62l37 67q40 -32 92 -51.5t106 -19.5t89 19.5t35 68.5q0 50 -33 70t-118 37q-101 19 -146 59.5t-45 115.5q0 84 53 128.5t135 44.5q58 0 115.5 -22.5t101.5 -62.5l-37 -69q-37 31 -84 53.5t-98 22.5q-49 0 -78 -20.5t-29 -69.5
q0 -50 32.5 -70.5t116.5 -36.5q101 -19 147 -60.5t46 -112.5q0 -87 -58.5 -130t-145.5 -43z" />
    <glyph glyph-name="icyrillic" 
d="M104 0v76h168v448h-168v76h248v-524h168v-76h-416zM311 716q-31 0 -50.5 10.5t-19.5 40.5v5q0 31 19.5 42t50.5 11t50.5 -11t19.5 -42v-5q0 -30 -19.5 -40.5t-50.5 -10.5z" />
    <glyph glyph-name="yicyrillic" 
d="M104 0v76h168v448h-168v76h248v-524h168v-76h-416zM216 716q-24 0 -38.5 10.5t-14.5 40.5v5q0 31 14.5 42t38.5 11q25 0 39 -11t14 -42v-5q0 -30 -14.5 -40.5t-38.5 -10.5zM408 716q-25 0 -39 10.5t-14 40.5v5q0 31 14 42t39 11q23 0 38 -11t15 -42v-5q0 -30 -15 -40.5
t-38 -10.5z" />
    <glyph glyph-name="jecyrillic" unicode="&#x458;" 
d="M236 -208q-31 0 -62 4.5t-68 17.5l17 87q31 -13 58 -17.5t53 -4.5q54 0 88 29t34 97v519h-235v76h315v-607q0 -104 -58.5 -152.5t-141.5 -48.5zM394 716q-31 0 -50.5 10.5t-19.5 40.5v5q0 31 19.5 42t50.5 11t50.5 -11t19.5 -42v-5q0 -30 -19.5 -40.5t-50.5 -10.5z" />
    <glyph glyph-name="ljecyrillic" unicode="&#x459;" 
d="M197 519l-9 -369q-1 -78 -34 -118t-82 -40q-14 0 -29.5 3t-30.5 9l17 86q10 -5 21 -8.5t20 -3.5q20 0 31 17t12 57l11 448h234v-211h71q63 0 98 -46t35 -129v-54q0 -75 -34.5 -117.5t-97.5 -42.5h-147v519h-86zM358 77h54q39 1 57 23.5t18 70.5v47q0 49 -18 73t-57 24
h-54v-238z" />
    <glyph glyph-name="njecyrillic" unicode="&#x45a;" 
d="M349 77h54q38 0 56.5 20.5t18.5 61.5v56q0 47 -18.5 70.5t-56.5 23.5h-54v-232zM146 311v-311h-75v600h75v-216h128v216h75v-216h71q63 0 98.5 -47t35.5 -130v-43q0 -78 -35.5 -121t-97.5 -43h-147v311h-128z" />
    <glyph glyph-name="tshecyrillic" unicode="&#x45b;" 
d="M184 381v-381h-79v639h-84v74h84v87h79v-87h169v-74h-169v-175h26q17 47 59 74.5t96 27.5q71 0 112.5 -48t41.5 -129v-389h-79v374q0 57 -25 84.5t-76 27.5q-42 0 -80 -25.5t-75 -79.5z" />
    <glyph glyph-name="dzhecyrillic" unicode="&#x45f;" 
d="M274 -150v150h-169v600h79v-528h256v528h79v-600h-168v-150h-77z" />
    <glyph glyph-name="gheupturncyrillic" unicode="&#x491;" 
d="M147 0v600h306v150h76v-222h-303v-528h-79z" />
    <glyph glyph-name="nsuperior" unicode="&#x207f;" 
d="M147 303v499h66v-68h21q8 23 21.5 38t28.5 23q16 9 32 12t32 3q27 0 50.5 -10t41.5 -29t28 -46t10 -60v-362h-66v342q0 26 -6 45t-16 31q-11 13 -25.5 19t-31.5 6q-19 0 -35.5 -5t-30.5 -15q-15 -10 -28 -23.5t-26 -30.5v-369h-66z" />
    <glyph glyph-name="gravecmb" unicode="&#x300;" horiz-adv-x="0" 
d="M2 700l-162 200h121l115 -200h-74z" />
    <glyph glyph-name="acutecmb" unicode="&#x301;" horiz-adv-x="0" 
d="M-94 700l114 200h122l-162 -200h-74z" />
    <glyph glyph-name="circumflexcmb" unicode="&#x302;" horiz-adv-x="0" 
d="M-144 718l-38 50l153 146h57l154 -146l-39 -51l-144 112z" />
    <glyph glyph-name="tildecmb" unicode="&#x303;" horiz-adv-x="0" 
d="M65 710q-32 0 -51.5 19.5t-33.5 41.5l-25 41t-28 19q-19 0 -29 -24t-9 -78v-9h-63v15q0 72 28 120.5t81 48.5q35 0 55.5 -19.5t33.5 -40.5l23.5 -41t25.5 -19q18 0 28.5 23.5t10.5 77.5v10h62v-15q0 -74 -28 -122t-81 -48z" />
    <glyph glyph-name="macroncmb" unicode="&#x304;" horiz-adv-x="0" 
d="M-166 764v72h332v-72h-332z" />
    <glyph glyph-name="brevecmb" unicode="&#x306;" horiz-adv-x="0" 
d="M0 693q-87 0 -139.5 48.5t-53.5 152.5h82q1 -72 28.5 -102.5t82.5 -30.5t82.5 30.5t28.5 102.5h82q-1 -104 -53.5 -152.5t-139.5 -48.5z" />
    <glyph glyph-name="dotaccentcmb" unicode="&#x307;" horiz-adv-x="0" 
d="M0 716q-31 0 -50.5 10.5t-19.5 40.5v5q0 31 19.5 42t50.5 11t50.5 -11t19.5 -42v-5q0 -30 -19.5 -40.5t-50.5 -10.5z" />
    <glyph glyph-name="dieresiscmb" unicode="&#x308;" horiz-adv-x="0" 
d="M-96 716q-24 0 -38.5 10.5t-14.5 40.5v5q0 31 14.5 42t38.5 11q25 0 39 -11t14 -42v-5q0 -30 -14.5 -40.5t-38.5 -10.5zM96 716q-25 0 -39 10.5t-14 40.5v5q0 31 14 42t39 11q23 0 38 -11t15 -42v-5q0 -30 -15 -40.5t-38 -10.5z" />
    <glyph glyph-name="ringcmb" unicode="&#x30a;" horiz-adv-x="0" 
d="M0 688q-59 0 -95.5 35t-36.5 107v32q0 73 36.5 109t95.5 36q60 0 96 -36t36 -109v-32q0 -72 -36.5 -107t-95.5 -35zM0 753q34 0 51.5 17.5t17.5 59.5v32q0 41 -17.5 60.5t-51.5 19.5t-51.5 -19.5t-17.5 -60.5v-32q0 -42 17.5 -59.5t51.5 -17.5z" />
    <glyph glyph-name="hungarumlautcmb" unicode="&#x30b;" horiz-adv-x="0" 
d="M65 700l47 200h115l-104 -200h-58zM-127 700l47 200h115l-104 -200h-58z" />
    <glyph glyph-name="caroncmb" unicode="&#x30c;" horiz-adv-x="0" 
d="M-28 704l-154 146l39 50l144 -110l143 110l38 -50l-153 -146h-57z" />
    <glyph glyph-name="commaturnedabovecmb" unicode="&#x312;" horiz-adv-x="0" 
d="M-111 700l128 200h75l-81 -200h-122z" />
    <glyph glyph-name="commaaccentcmb" unicode="&#x326;" horiz-adv-x="0" 
d="M-111 -300l81 200h122l-128 -200h-75z" />
    <glyph glyph-name="cedillacmb" unicode="&#x327;" horiz-adv-x="0" 
d="M-25 0l16 42q44 -10 73 -43t29 -90q0 -63 -38 -92.5t-82 -29.5q-53 0 -87 21.5t-38 75.5l71 10q1 -19 12.5 -26.5t37.5 -7.5q25 0 38 13t13 47q0 37 -10 54.5t-35 25.5z" />
    <glyph glyph-name="ogonekcmb" unicode="&#x328;" horiz-adv-x="0" 
d="M47 -213q-52 0 -88 31.5t-36 85.5q0 44 32 80t69 54l22 -15q-30 -22 -40 -49t-10 -46q0 -28 16 -43.5t44 -15.5q15 0 38 3.5t36 6.5v-82q-16 -4 -40 -7t-43 -3z" />
    <glyph glyph-name="zero" 
d="M312 -10q-110 0 -167.5 86.5t-57.5 252.5v138q0 168 57.5 255.5t168.5 87.5q110 0 167 -87.5t57 -255.5v-138q0 -166 -57.5 -252.5t-167.5 -86.5zM312 66q78 0 111 59.5t33 198.5v148q0 141 -33 201.5t-111 60.5t-111 -60.5t-33 -201.5v-148q0 -139 33 -198.5t111 -59.5z
M312 325q-27 0 -43.5 11t-16.5 42v43q0 30 16.5 41.5t43.5 11.5t43.5 -11.5t16.5 -41.5v-43q0 -31 -17 -42t-43 -11z" />
    <glyph glyph-name="one" unicode="1" 
d="M130 0v72h184v626h-23q-25 -49 -72.5 -71.5t-105.5 -12.5l-8 84q63 -7 119 20.5t93 81.5h77v-728h169v-72h-433z" />
    <glyph glyph-name="two" unicode="2" 
d="M87 0v172q0 93 35.5 142t122.5 77l116 40q46 12 66.5 39.5t20.5 78.5v48q0 74 -30 105.5t-106 31.5q-74 0 -101 -36t-35 -149l-80 10q7 139 55.5 195t159.5 56q109 0 163 -49.5t54 -150.5v-73q0 -74 -34.5 -116t-120.5 -70l-115 -40q-44 -12 -67 -43.5t-23 -93.5v-102
h369v-72h-450z" />
    <glyph glyph-name="three" unicode="3" 
d="M303 -10q-129 0 -173 56t-51 167l81 10q7 -99 35.5 -131t107.5 -32q85 0 119 35.5t34 122.5v21q0 86 -31 119t-112 33h-84v73h84q71 0 99 26.5t28 92.5v28q0 71 -30 100t-105 29q-66 0 -94 -31.5t-35 -117.5l-80 10q6 113 57 161t151 48q96 0 156 -48.5t60 -156.5v-33
q0 -59 -35 -92t-96 -37v-29q73 -7 110.5 -56t37.5 -112v-27q0 -104 -53 -166.5t-181 -62.5z" />
    <glyph glyph-name="four" unicode="4" 
d="M169 290h229v408zM578 214h-100v-214h-80v214h-319v76l282 510h117v-510h100v-76z" />
    <glyph glyph-name="five" unicode="5" 
d="M306 -10q-127 0 -173.5 46.5t-53.5 175.5l81 10q5 -98 33 -127t113 -29q82 0 116 37t34 107v48q0 72 -26.5 110t-86.5 38h-239v394h398v-76h-318v-238h157q95 0 145.5 -54.5t50.5 -171.5v-57q0 -98 -59 -155.5t-172 -57.5z" />
    <glyph glyph-name="six" unicode="6" 
d="M312 -10q-113 0 -169 75t-56 214v253q0 137 58 207.5t169 70.5q101 0 149.5 -40.5t65.5 -134.5l-88 -23q-13 69 -38 95.5t-91 26.5q-78 0 -111 -47t-33 -157v-110h16q22 40 55.5 59.5t87.5 19.5q107 0 158.5 -68t51.5 -172v-16q0 -124 -57.5 -188.5t-167.5 -64.5zM311 66
q74 0 108.5 41.5t34.5 131.5v8q0 89 -34.5 130t-108.5 41t-108.5 -41t-34.5 -130v-8q0 -90 34.5 -131.5t108.5 -41.5z" />
    <glyph glyph-name="seven" unicode="7" 
d="M231 0q48 272 91 413t134 301h-369v86h450v-86q-95 -187 -141 -338t-78 -376h-87z" />
    <glyph glyph-name="eight" unicode="8" 
d="M312 -10q-119 0 -172 51t-53 165v19q0 78 35 126.5t97 55.5v29q-49 5 -82 46.5t-33 107.5v29q0 101 49 146t159 45t159 -45t49 -146v-29q0 -66 -33 -107.5t-82 -46.5v-29q62 -7 97 -56.5t35 -125.5v-19q0 -114 -53 -165t-172 -51zM312 458q72 0 100 28.5t28 101.5v23
q0 72 -28 100.5t-100 28.5t-100 -28.5t-28 -100.5v-23q0 -73 28 -101.5t100 -28.5zM312 60q81 0 112.5 33.5t31.5 120.5v13q0 87 -31.5 121t-112.5 34t-112.5 -34t-31.5 -121v-13q0 -87 31.5 -120.5t112.5 -33.5z" />
    <glyph glyph-name="nine" unicode="9" 
d="M313 382q74 0 108.5 41t34.5 130v8q0 90 -34.5 131.5t-108.5 41.5t-108.5 -41.5t-34.5 -131.5v-8q0 -89 34.5 -130t108.5 -41zM310 -10q-101 0 -149.5 41t-65.5 134l88 23q13 -72 39.5 -97t89.5 -25q78 0 111 47t33 156v111h-15q-19 -38 -56 -58.5t-90 -20.5
q-103 0 -155.5 63.5t-52.5 176.5v16q0 124 57.5 188.5t167.5 64.5q113 0 169 -75.5t56 -213.5v-253q0 -133 -56.5 -205.5t-170.5 -72.5z" />
    <glyph glyph-name="onequarter" unicode="&#xbc;" 
d="M172 410v68h114v226h-12q-5 -19 -15.5 -35t-24.5 -28t-31 -18t-36 -6l-5 66q23 1 44 9.5t38 24.5q17 15 28.5 38t15.5 51h72v-328h103v-68h-291zM20 252v91l266 -20v-51zM350 272v51l254 20v-91zM506 -114h-78v-96h-73v96h-213v61l189 269h97v-269h78v-61zM207 -53h148
v207z" />
    <glyph glyph-name="onehalf" unicode="&#xbd;" 
d="M172 410v68h114v226h-12q-5 -19 -15.5 -35t-24.5 -28t-31 -18t-36 -6l-5 66q21 1 41 8.5t37 22.5q18 15 30.5 38t17.5 54h72v-328h103v-68h-291zM20 252v91l266 -20v-51zM350 272v51l254 20v-91zM146 -210v80q0 24 5.5 44t17.5 36q11 16 30 27.5t45 17.5l102 25
q15 4 25 8t17 10q6 6 9 13.5t3 18.5v23q0 13 -4 23t-14 17t-27 11t-43 4t-42.5 -4.5t-25.5 -14.5q-9 -9 -13 -24t-6 -38l-74 7q2 36 10.5 61.5t27.5 42.5t49 25.5t74 8.5q43 0 74 -8t50 -22q19 -15 28 -36t9 -48v-38q0 -24 -6.5 -41.5t-19.5 -30.5q-12 -12 -29 -20t-40 -14
l-102 -25q-15 -3 -24.5 -6.5t-16.5 -11.5q-7 -7 -11 -21.5t-4 -37.5h259v-62h-333z" />
    <glyph glyph-name="threequarters" unicode="&#xbe;" 
d="M310 404q-45 0 -77 7.5t-51 23.5q-20 15 -29.5 37.5t-11.5 54.5l73 6q2 -18 6 -29.5t14 -19.5q10 -7 28 -10.5t48 -3.5q28 0 46.5 3t29.5 9q10 6 14.5 14t4.5 19v16q0 11 -4 19.5t-15 13.5q-10 5 -28 8t-46 3h-41v68h41q24 0 39.5 2.5t24.5 7.5q10 6 14.5 15t4.5 23v25
q0 8 -6 14t-17 9q-12 4 -28 5.5t-37 1.5t-36 -3t-25 -10q-10 -6 -15 -16.5t-6 -25.5l-74 6q2 31 12 52.5t29 35.5t47.5 20.5t67.5 6.5q37 0 65.5 -4.5t50.5 -15.5q21 -11 33 -29.5t12 -45.5v-18q0 -17 -5.5 -31t-16.5 -24q-10 -10 -24.5 -16t-31.5 -8v-18q20 -2 36.5 -8
t27.5 -15q12 -10 18.5 -22t6.5 -26v-16q0 -28 -10.5 -48.5t-30.5 -34.5q-21 -14 -53 -21t-75 -7zM20 252v91l266 -20v-51zM350 272v51l254 20v-91zM505 -114h-78v-96h-73v96h-213v61l189 269h97v-269h78v-61zM206 -53h148v207z" />
    <glyph glyph-name="oneeighth" unicode="&#x215b;" 
d="M173 410v68h114v226h-12q-5 -19 -15.5 -35t-24.5 -28t-31 -18t-36 -6l-5 66q21 1 41 8.5t37 22.5q18 15 30.5 38t17.5 54h72v-328h103v-68h-291zM20 252v91l266 -20v-51zM350 272v51l254 20v-91zM316 -215q-47 0 -79 8t-51 22q-19 15 -27.5 36t-8.5 49v14q0 19 5.5 35
t16.5 27q11 12 26.5 18.5t35.5 8.5v18q-16 2 -29.5 7.5t-23.5 14.5t-15.5 21.5t-5.5 27.5v20q0 26 10.5 45.5t30.5 31.5t48.5 18t66.5 6q39 0 67.5 -5.5t48.5 -17.5t30 -31.5t10 -46.5v-20q0 -15 -5.5 -27.5t-15.5 -21.5q-9 -9 -22.5 -14.5t-29.5 -7.5v-18q20 -2 35.5 -9
t26.5 -19t16.5 -27.5t5.5 -33.5v-14q0 -29 -8.5 -50t-27.5 -36q-19 -14 -51.5 -21.5t-79.5 -7.5zM316 46q22 0 37.5 2.5t25.5 8.5q10 5 15 13.5t5 20.5v13q0 12 -5 20t-15 13t-25.5 7.5t-37.5 2.5t-37.5 -2.5t-24.5 -7.5q-10 -5 -15 -13t-5 -20v-13q0 -12 5 -20.5t15 -13.5
q10 -6 25 -8.5t37 -2.5zM316 -149q30 0 48.5 4t28.5 12q9 7 12.5 18t3.5 26v7q0 16 -3.5 27t-12.5 19q-10 8 -28.5 12t-48.5 4t-48 -4t-28 -12q-9 -8 -12.5 -19t-3.5 -27v-7q0 -15 3.5 -26t12.5 -18q10 -8 28 -12t48 -4z" />
    <glyph glyph-name="threeeighths" unicode="&#x215c;" 
d="M310 404q-46 0 -77.5 7.5t-50.5 22.5q-20 15 -29.5 38t-11.5 55l73 6q2 -18 6 -29.5t14 -19.5q10 -7 28 -10.5t48 -3.5q28 0 46.5 3t29.5 9q10 6 14.5 14t4.5 19v16q0 11 -4 19t-15 14q-10 5 -28 8t-46 3h-41v68h41q24 0 39.5 2t24.5 8q10 5 14.5 14.5t4.5 23.5v25
q0 8 -6 14t-17 9q-12 4 -28 5.5t-37 1.5t-36 -3t-24 -10q-10 -6 -15 -16.5t-7 -25.5l-74 6q2 31 12 52.5t29 35.5q18 14 46.5 20.5t68.5 6.5q37 0 66 -4.5t50 -15.5q22 -11 33.5 -29.5t11.5 -45.5v-18q0 -17 -5.5 -31t-16.5 -24q-10 -10 -24.5 -16t-31.5 -8v-18
q20 -2 36.5 -8t27.5 -15q12 -10 18.5 -22t6.5 -26v-16q0 -28 -10 -48.5t-31 -34.5t-53 -21t-75 -7zM20 252v91l266 -20v-51zM350 272v51l254 20v-91zM316 -215q-47 0 -79 8t-51 22q-19 15 -27.5 36t-8.5 49v14q0 19 5.5 35t16.5 27q11 12 26.5 18.5t35.5 8.5v18
q-16 2 -29.5 7.5t-23.5 14.5t-15.5 21.5t-5.5 27.5v20q0 26 10.5 45.5t30.5 31.5t48.5 18t66.5 6q39 0 67.5 -5.5t48.5 -17.5t30 -31.5t10 -46.5v-20q0 -15 -5.5 -27.5t-15.5 -21.5q-9 -9 -22.5 -14.5t-29.5 -7.5v-18q20 -2 35.5 -9t26.5 -19t16.5 -27.5t5.5 -33.5v-14
q0 -29 -8.5 -50t-27.5 -36q-19 -14 -51.5 -21.5t-79.5 -7.5zM316 46q22 0 37.5 2.5t25.5 8.5q10 5 15 13.5t5 20.5v13q0 12 -5 20t-15 13t-25.5 7.5t-37.5 2.5t-37.5 -2.5t-24.5 -7.5q-10 -5 -15 -13t-5 -20v-13q0 -12 5 -20.5t15 -13.5q10 -6 25 -8.5t37 -2.5zM316 -149
q30 0 48.5 4t28.5 12q9 7 12.5 18t3.5 26v7q0 16 -3.5 27t-12.5 19q-10 8 -28.5 12t-48.5 4t-48 -4t-28 -12q-9 -8 -12.5 -19t-3.5 -27v-7q0 -15 3.5 -26t12.5 -18q10 -8 28 -12t48 -4z" />
    <glyph glyph-name="fiveeighths" unicode="&#x215d;" 
d="M312 406q-47 0 -78 5.5t-51 18.5t-30 35.5t-12 57.5l73 6q2 -19 7 -30.5t16 -17.5t28 -8t47 -2q27 0 44.5 3t28.5 9q11 5 15.5 14t4.5 22v28q0 13 -4.5 22t-14.5 14q-10 6 -27 9t-42 3h-161v211h304v-65h-230v-74h103q35 0 62 -7t46 -21t28.5 -35t9.5 -49v-34
q0 -26 -10.5 -47t-30.5 -37q-21 -15 -52.5 -23t-73.5 -8zM20 252v91l266 -20v-51zM350 272v51l254 20v-91zM316 -215q-47 0 -79 8t-51 22q-19 15 -27.5 36t-8.5 49v14q0 19 5.5 35t16.5 27q11 12 26.5 18.5t35.5 8.5v18q-16 2 -29.5 7.5t-23.5 14.5t-15.5 21.5t-5.5 27.5v20
q0 26 10.5 45.5t30.5 31.5t48.5 18t66.5 6q39 0 67.5 -5.5t48.5 -17.5t30 -31.5t10 -46.5v-20q0 -15 -5.5 -27.5t-15.5 -21.5q-9 -9 -22.5 -14.5t-29.5 -7.5v-18q20 -2 35.5 -9t26.5 -19t16.5 -27.5t5.5 -33.5v-14q0 -29 -8.5 -50t-27.5 -36q-19 -14 -51.5 -21.5t-79.5 -7.5
zM316 46q22 0 37.5 2.5t25.5 8.5q10 5 15 13.5t5 20.5v13q0 12 -5 20t-15 13t-25.5 7.5t-37.5 2.5t-37.5 -2.5t-24.5 -7.5q-10 -5 -15 -13t-5 -20v-13q0 -12 5 -20.5t15 -13.5q10 -6 25 -8.5t37 -2.5zM316 -149q30 0 48.5 4t28.5 12q9 7 12.5 18t3.5 26v7q0 16 -3.5 27
t-12.5 19q-10 8 -28.5 12t-48.5 4t-48 -4t-28 -12q-9 -8 -12.5 -19t-3.5 -27v-7q0 -15 3.5 -26t12.5 -18q10 -8 28 -12t48 -4z" />
    <glyph glyph-name="seveneighths" unicode="&#x215e;" 
d="M249 410q11 55 24.5 99.5t32.5 83.5q18 38 42 73.5t56 71.5h-259v68h333v-68q-31 -39 -55.5 -78.5t-43.5 -80.5q-19 -40 -31.5 -82.5t-20.5 -86.5h-78zM20 252v91l266 -20v-51zM350 272v51l254 20v-91zM316 -215q-47 0 -79 8t-51 22q-19 15 -27.5 36t-8.5 49v14
q0 19 5.5 35t16.5 27q11 12 26.5 18.5t35.5 8.5v18q-16 2 -29.5 7.5t-23.5 14.5t-15.5 21.5t-5.5 27.5v20q0 26 10.5 45.5t30.5 31.5t48.5 18t66.5 6q39 0 67.5 -5.5t48.5 -17.5t30 -31.5t10 -46.5v-20q0 -15 -5.5 -27.5t-15.5 -21.5q-9 -9 -22.5 -14.5t-29.5 -7.5v-18
q20 -2 35.5 -9t26.5 -19t16.5 -27.5t5.5 -33.5v-14q0 -29 -8.5 -50t-27.5 -36q-19 -14 -51.5 -21.5t-79.5 -7.5zM316 46q22 0 37.5 2.5t25.5 8.5q10 5 15 13.5t5 20.5v13q0 12 -5 20t-15 13t-25.5 7.5t-37.5 2.5t-37.5 -2.5t-24.5 -7.5q-10 -5 -15 -13t-5 -20v-13
q0 -12 5 -20.5t15 -13.5q10 -6 25 -8.5t37 -2.5zM316 -149q30 0 48.5 4t28.5 12q9 7 12.5 18t3.5 26v7q0 16 -3.5 27t-12.5 19q-10 8 -28.5 12t-48.5 4t-48 -4t-28 -12q-9 -8 -12.5 -19t-3.5 -27v-7q0 -15 3.5 -26t12.5 -18q10 -8 28 -12t48 -4z" />
    <glyph glyph-name="underscore" unicode="_" 
d="M79 -200v80h466v-80h-466z" />
    <glyph glyph-name="hyphen" unicode="&#x2011;" 
d="M79 309v80h466v-80h-466z" />
    <glyph glyph-name="hyphen" unicode="&#x2010;" 
d="M79 309v80h466v-80h-466z" />
    <glyph glyph-name="hyphen" unicode="&#xad;" 
d="M79 309v80h466v-80h-466z" />
    <glyph glyph-name="hyphen" unicode="-" 
d="M79 309v80h466v-80h-466z" />
    <glyph glyph-name="endash" unicode="&#x2013;" 
d="M106 309v80h412v-80h-412z" />
    <glyph glyph-name="emdash" unicode="&#x2014;" 
d="M20 309v80h584v-80h-584z" />
    <glyph glyph-name="horizontalbar" unicode="&#x2015;" 
d="M20 309v80h584v-80h-584z" />
    <glyph glyph-name="parenleft" unicode="(" 
d="M478 -210q-134 39 -212 170.5t-78 339.5q0 209 78 340t212 170l8 -63q-107 -36 -162 -154.5t-55 -292.5q0 -175 55 -294.5t162 -155.5z" />
    <glyph glyph-name="parenright" unicode=")" 
d="M146 -210l-8 60q107 36 162 155.5t55 294.5t-55 293t-162 154l8 63q134 -39 212 -170.5t78 -339.5t-78 -339.5t-212 -170.5z" />
    <glyph glyph-name="bracketleft" unicode="[" 
d="M188 -200v1000h289v-76h-208v-864h208v-60h-289z" />
    <glyph glyph-name="bracketright" unicode="]" 
d="M147 -200v60h208v864h-208v76h289v-1000h-289z" />
    <glyph glyph-name="braceleft" 
d="M477 -210q-176 -4 -253 38.5t-77 127.5q0 51 17.5 86t36.5 60l36.5 46.5t17.5 48.5q0 47 -42 67.5t-149 23.5v48q107 3 149 22.5t42 65.5q0 27 -18 46l-37 40q-19 23 -36 55.5t-17 83.5q0 81 77 123t253 38v-76q-136 3 -193.5 -19t-57.5 -72q0 -25 15 -48t40 -51
q24 -28 39 -55.5t15 -61.5q0 -53 -40 -81.5t-117 -32.5v-5q77 -10 117 -43t40 -90q0 -30 -15.5 -55t-40.5 -53q-24 -26 -38.5 -50.5t-14.5 -56.5q0 -53 57.5 -76t193.5 -20v-74z" />
    <glyph glyph-name="braceright" 
d="M477 -44q0 -85 -77 -127.5t-253 -38.5v74q136 -3 193.5 20t57.5 76q0 32 -14.5 56.5t-38.5 50.5q-25 28 -40.5 53t-15.5 55q0 57 40 90t117 43v5q-77 4 -117 32.5t-40 81.5q0 34 15 61.5t39 55.5q25 28 40 51t15 48q0 50 -57.5 72t-193.5 19v76q176 4 253 -38t77 -123
q0 -51 -17 -83.5t-36 -55.5l-37 -40t-18 -46q0 -46 42 -65.5t149 -22.5v-48q-107 -3 -149 -23.5t-42 -67.5q0 -26 17.5 -48.5l36.5 -46.5q19 -25 36.5 -60t17.5 -86z" />
    <glyph glyph-name="numbersign" unicode="#" 
d="M366 287l9 226h-117l-9 -226h117zM354 0l9 209h-117l-9 -209h-73l9 209h-109v78h112l9 226h-121v78h124l9 209h73l-9 -209h117l9 209h73l-9 -209h109v-78h-112l-9 -226h121v-78h-124l-9 -209h-73z" />
    <glyph glyph-name="percent" unicode="%" 
d="M193 460q-62 0 -100.5 38t-38.5 118v54q0 76 39 113t100 37q63 0 101 -37t38 -113v-54q0 -80 -38.5 -118t-100.5 -38zM193 531q29 0 45 20t16 65v55q0 41 -16 60.5t-45 19.5q-28 0 -45 -19.5t-17 -60.5v-55q0 -45 17 -65t45 -20zM31 234l529 384l35 -53l-530 -384z
M431 -22q-63 0 -101.5 36.5t-38.5 111.5v62q0 76 39 113t101 37q63 0 100.5 -37t37.5 -113v-62q0 -75 -38 -111.5t-100 -36.5zM431 49q28 0 44.5 18.5t16.5 58.5v64q0 40 -16.5 59.5t-44.5 19.5t-45 -19.5t-17 -59.5v-64q0 -40 17 -58.5t45 -18.5z" />
    <glyph glyph-name="perthousand" unicode="&#x2030;" 
d="M189 460q-60 0 -96.5 37t-36.5 114v64q0 74 37 109.5t96 35.5q60 0 96 -35.5t36 -109.5v-64q0 -77 -36.5 -114t-95.5 -37zM135 610q0 -42 14.5 -60.5t39.5 -18.5t39 18.5t14 60.5v67q0 38 -14 56t-39 18t-39.5 -18t-14.5 -56v-67zM583 574l-528 -370l-36 55l527 370z
M494 -22q-25 0 -45 13t-33 38q-11 -25 -30.5 -38t-44.5 -13q-46 0 -73.5 34.5t-27.5 106.5v92q0 72 27.5 107.5t71.5 35.5q26 0 45.5 -13t32.5 -39q12 26 32 39t45 13q45 0 72 -35.5t27 -107.5v-92q0 -72 -27.5 -106.5t-71.5 -34.5zM312 107q0 -34 9 -49.5t25 -15.5t25 15.5
t9 49.5v118q0 35 -9 51.5t-25 16.5t-25 -16.5t-9 -51.5v-118zM452 107q0 -34 9 -49.5t26 -15.5q16 0 25 15.5t9 49.5v118q0 35 -9 51.5t-25 16.5q-17 0 -26 -16.5t-9 -51.5v-118z" />
    <glyph glyph-name="quotesingle" unicode="'" 
d="M272 414l-26 386h132l-26 -386h-80z" />
    <glyph glyph-name="quotedbl" unicode="&#x22;" 
d="M397 414l-25 386h132l-25 -386h-82zM145 414l-25 386h132l-25 -386h-82z" />
    <glyph glyph-name="quoteleft" unicode="&#x2018;" 
d="M189 414l187 386h69l-92 -386h-164z" />
    <glyph glyph-name="quoteleft" unicode="&#x2bb;" 
d="M189 414l187 386h69l-92 -386h-164z" />
    <glyph glyph-name="quoteright" unicode="&#x2019;" 
d="M179 414l92 386h164l-187 -386h-69z" />
    <glyph glyph-name="quotedblleft" unicode="&#x201c;" 
d="M313 414l189 386h61l-93 -386h-157zM61 414l189 386h61l-93 -386h-157z" />
    <glyph glyph-name="quotedblright" unicode="&#x201d;" 
d="M313 414l93 386h156l-187 -386h-62zM61 414l94 386h155l-188 -386h-61z" />
    <glyph glyph-name="quotereversed" unicode="&#x201b;" 
d="M360 414l-187 386h163l92 -386h-68z" />
    <glyph glyph-name="quotesinglbase" unicode="&#x201a;" 
d="M198 -214l76 385h162l-169 -385h-69z" />
    <glyph glyph-name="quotedblbase" unicode="&#x201e;" 
d="M293 -210l93 386h156l-187 -386h-62zM41 -210l94 386h155l-188 -386h-61z" />
    <glyph glyph-name="guilsinglleft" unicode="&#x2039;" 
d="M436 123l-248 191v72l248 191v-72l-200 -155l200 -155v-72z" />
    <glyph glyph-name="guilsinglright" unicode="&#x203a;" 
d="M188 123v72l201 155l-201 155v72l248 -191v-72z" />
    <glyph glyph-name="guillemotleft" unicode="&#xab;" 
d="M545 122l-215 191v71l215 192v-72l-173 -155l173 -155v-72zM296 122l-215 191v71l215 192v-72l-173 -155l173 -155v-72z" />
    <glyph glyph-name="guillemotright" unicode="&#xbb;" 
d="M81 122v72l173 155l-173 155v72l215 -192v-71zM330 122v72l173 155l-173 155v72l215 -192v-71z" />
    <glyph glyph-name="asterisk" 
d="M504 328l-166 142l23 -222h-100l24 221l-165 -141l-50 85l192 112l-192 111l50 86l165 -142l-24 220h100l-23 -221l166 143l49 -86l-192 -111l192 -112z" />
    <glyph glyph-name="dagger" unicode="&#x2020;" 
d="M271 -200v724h-84l-34 -206h-65l26 282h156l-5 200h94l-6 -200h157l26 -282h-65l-34 206h-85v-724h-81z" />
    <glyph glyph-name="daggerdbl" unicode="&#x2021;" 
d="M265 -200l5 205h-156l-26 221h65l34 -146h84v440h-84l-34 -146h-65l26 221h156l-5 205h94l-5 -205h156l26 -221h-65l-34 146h-84v-440h84l34 146h65l-26 -221h-156l5 -205h-94z" />
    <glyph glyph-name="period" unicode="." 
d="M313 -10q-41 0 -66.5 20.5t-25.5 66.5v16q0 46 25.5 67t66.5 21t66 -21t25 -67v-16q0 -46 -25.5 -66.5t-65.5 -20.5z" />
    <glyph glyph-name="comma" unicode="," 
d="M188 -214l76 385h162l-169 -385h-69z" />
    <glyph glyph-name="colon" unicode=":" 
d="M313 397q-41 0 -67 18.5t-26 60.5v39q0 43 26 62.5t67 19.5q42 0 67 -19.5t25 -62.5v-39q0 -42 -26 -60.5t-66 -18.5zM313 -12q-41 0 -67 18.5t-26 61.5v39q0 43 26 62.5t67 19.5q42 0 67 -19.5t25 -62.5v-39q0 -43 -26 -61.5t-66 -18.5z" />
    <glyph glyph-name="semicolon" unicode=";" 
d="M313 397q-41 0 -67 18.5t-26 60.5v39q0 43 26 62.5t67 19.5q42 0 67 -19.5t25 -62.5v-39q0 -42 -26 -60.5t-66 -18.5zM187 -221l76 399h165l-172 -399h-69z" />
    <glyph glyph-name="ellipsis" unicode="&#x2026;" 
d="M512 -9q-26 0 -42.5 20.5t-16.5 63.5v21q0 44 16.5 65t42.5 21t42.5 -21t16.5 -65v-21q0 -43 -17 -63.5t-42 -20.5zM312 -9q-26 0 -42.5 20.5t-16.5 63.5v21q0 44 16.5 65t42.5 21q27 0 43 -21t16 -65v-21q0 -43 -17 -63.5t-42 -20.5zM113 -9q-26 0 -43 20.5t-17 63.5v21
q0 44 17 65t43 21q27 0 42.5 -21t15.5 -65v-21q0 -43 -16.5 -63.5t-41.5 -20.5z" />
    <glyph glyph-name="exclam" unicode="!" 
d="M287 300l-26 500h114l-25 -500h-63zM319 -10q-41 0 -60 20.5t-19 63.5v28q0 44 19 65t60 21t59.5 -21t18.5 -65v-28q0 -43 -19 -63.5t-59 -20.5z" />
    <glyph glyph-name="exclamdown" unicode="&#xa1;" 
d="M312 810q41 0 60 -20.5t19 -63.5v-28q0 -44 -19 -65t-60 -21q-40 0 -59 21t-19 65v28q0 43 19 63.5t59 20.5zM344 500l26 -500h-114l26 500h62z" />
    <glyph glyph-name="exclamdbl" unicode="&#x203c;" 
d="M396 300l-25 500h115l-25 -500h-65zM165 300l-25 500h115l-25 -500h-65zM429 -10q-21 0 -36 5t-25 15q-9 11 -14 26.5t-5 37.5v28q0 22 5 38.5t14 26.5q10 11 25 16t36 5t35.5 -5t24.5 -16q10 -10 14.5 -26.5t4.5 -38.5v-28q0 -22 -5 -37.5t-14 -26.5q-10 -10 -25 -15
t-35 -5zM198 -10q-21 0 -36 5t-25 15q-9 11 -14 26.5t-5 37.5v28q0 22 5 38.5t14 26.5q10 11 25 16t36 5t35.5 -5t24.5 -16q10 -10 14.5 -26.5t4.5 -38.5v-28q0 -22 -5 -37.5t-14 -26.5q-10 -10 -25 -15t-35 -5z" />
    <glyph glyph-name="question" unicode="?" 
d="M254 327l-17 67q148 28 196.5 63t48.5 95v33q0 74 -35 111.5t-128 37.5q-103 0 -134 -37.5t-38 -147.5l-80 10q7 143 60 197t191 54q128 0 185.5 -56t57.5 -156v-50q0 -97 -70.5 -143.5t-236.5 -77.5zM281 -10q-40 0 -59.5 20.5t-19.5 63.5v28q0 44 19.5 65t59.5 21
q41 0 60 -21t19 -65v-28q0 -43 -19.5 -63.5t-59.5 -20.5z" />
    <glyph glyph-name="questiondown" unicode="&#xbf;" 
d="M344 810q40 0 59 -20.5t19 -63.5v-28q0 -44 -19 -65t-59 -21q-41 0 -60.5 21t-19.5 65v28q0 43 20 63.5t60 20.5zM371 473l17 -67q-147 -28 -196 -63t-49 -95v-33q0 -75 34.5 -112t128.5 -37q102 0 133 37.5t38 147.5l80 -10q-6 -142 -59 -196.5t-191 -54.5
q-128 0 -186 55.5t-58 156.5v50q0 97 71 143.5t237 77.5z" />
    <glyph glyph-name="slash" unicode="/" 
d="M104 -200l334 1000h82l-334 -1000h-82z" />
    <glyph glyph-name="backslash" unicode="\" 
d="M438 -200l-334 1000h82l334 -1000h-82z" />
    <glyph glyph-name="fraction" unicode="&#x2215;" 
d="M105 0l334 800h81l-334 -800h-81z" />
    <glyph glyph-name="fraction" unicode="&#x2044;" 
d="M105 0l334 800h81l-334 -800h-81z" />
    <glyph glyph-name="bar" unicode="|" 
d="M276 -200v1000h73v-1000h-73z" />
    <glyph glyph-name="brokenbar" unicode="&#xa6;" 
d="M276 400v400h73v-400h-73zM276 -200v400h73v-400h-73z" />
    <glyph glyph-name="at" unicode="@" 
d="M370 -110q-140 0 -214 78t-74 216v344q0 128 59 205t178 77q108 0 167.5 -79.5t59.5 -209.5v-252q-2 -77 -40 -119t-108 -42q-73 0 -107.5 43.5t-34.5 121.5v140q0 77 34 123t82 46q28 0 43.5 -13.5t25.5 -29.5h24q-2 93 -38.5 145.5t-108.5 52.5q-84 0 -119.5 -54.5
t-35.5 -154.5v-346q0 -104 48 -161.5t159 -57.5q46 0 88 9.5t73 20.5v-74q-29 -10 -74 -19.5t-87 -9.5zM400 182q33 0 51 18.5t18 77.5v132q0 51 -19.5 74.5t-49.5 23.5q-32 0 -49.5 -23t-17.5 -76v-129q0 -53 17.5 -75.5t49.5 -22.5z" />
    <glyph glyph-name="ampersand" unicode="&#x26;" 
d="M581 -1q-48 17 -94.5 46t-89.5 66q-36 -54 -80 -87.5t-98 -33.5q-74 0 -119 51.5t-45 153.5q0 84 34.5 142t80.5 89q-19 49 -30 96t-11 88q0 97 38.5 149t112.5 52q66 0 105.5 -47.5t39.5 -114.5q0 -85 -38.5 -138t-132.5 -100q8 -19 18 -37l20 -36q20 -35 44 -68t50 -61
q25 44 47 99.5t41 118.5l65 -43q-18 -49 -47 -98.5l-71 -120.5l171 -87zM205 604q0 -34 7.5 -71t21.5 -76q62 34 92 75.5t30 96.5q0 43 -20.5 74.5t-52.5 31.5q-41 0 -59.5 -34.5t-18.5 -96.5zM225 66q32 0 64 23.5t61 65.5q-29 30 -56 63.5t-49 67.5q-15 23 -28.5 46.5
t-24.5 46.5q-31 -31 -47 -79t-16 -98q0 -62 25 -99t71 -37z" />
    <glyph glyph-name="section" unicode="&#xa7;" 
d="M304 193q7 -1 15.5 -3.5l15.5 -4.5q42 2 75.5 27t33.5 85q0 47 -30 69.5t-89 37.5q-8 1 -16 3.5t-16 4.5q-41 -1 -75 -26.5t-34 -85.5q0 -47 30.5 -69.5t89.5 -37.5zM327 -207q-58 0 -111.5 24t-93.5 70l41 63q43 -43 81 -64t87 -21q47 0 82.5 24t35.5 81q0 63 -40 94.5
t-115 50.5q-98 20 -144 60.5t-46 103.5q0 69 31 106.5t79 53.5q-53 26 -81.5 67t-28.5 104q0 97 56.5 145.5t140.5 48.5q58 0 112 -24t94 -70l-42 -67q-43 45 -81 67t-87 22t-83.5 -27t-34.5 -75q0 -66 40.5 -97t113.5 -47q99 -24 145 -65.5t46 -107.5t-33.5 -101.5
t-83.5 -49.5q56 -26 86.5 -67.5t30.5 -107.5q0 -96 -54 -145t-143 -49z" />
    <glyph glyph-name="paragraph" unicode="&#xb6;" 
d="M438 340h-85v-540h-82v540q-84 -1 -139 49.5t-55 147.5v52q0 101 54.5 156t136.5 55h253v-1000h-83v540z" />
    <glyph glyph-name="lsquare" unicode="&#x2113;" 
d="M298 331q19 0 35.5 4t28.5 12q13 8 20.5 21t10.5 30l35 241q3 21 1.5 39t-9.5 31q-8 14 -23 21.5t-39 7.5q-20 0 -36.5 -4.5t-28.5 -13.5q-13 -9 -20.5 -22.5t-10.5 -30.5l-38 -244q-3 -22 -0.5 -39t11.5 -29t24.5 -18t38.5 -6zM425 23l-32.5 -11.5t-32.5 -9.5
t-35.5 -6.5t-37.5 -2.5q-45 0 -80.5 14t-59.5 39q-23 26 -32 62.5t-2 80.5l68 463q5 39 21 69t40 50q24 19 53.5 29t63.5 10q42 0 72.5 -13.5t49.5 -37.5q19 -25 25.5 -58.5t0.5 -73.5l-32 -220q-5 -40 -20.5 -69.5t-38.5 -49.5q-22 -19 -51 -28.5t-62 -9.5q-16 0 -30 3
t-26 9q-11 6 -21 14.5t-18 19.5l-13 -96q-4 -30 1 -53t18 -39t33 -24.5t46 -8.5q14 0 28.5 1.5t30.5 5.5q16 3 33.5 9t36.5 14z" />
    <glyph glyph-name="numero" unicode="&#x2116;" 
d="M177 739v-320h-73v381h110l233 -299v299h73v-381h-99zM388 -16q-61 0 -95.5 40.5t-34.5 116.5v53q0 77 34.5 118t95.5 41t95.5 -41t34.5 -118v-53q0 -76 -34.5 -116.5t-95.5 -40.5zM388 53q31 0 47 19.5t16 65.5v59q0 46 -16 68t-47 22t-47 -22t-16 -68v-59
q0 -46 16 -65.5t47 -19.5z" />
    <glyph glyph-name="periodcentered" unicode="&#x2219;" 
d="M313 303q-41 0 -66.5 20.5t-25.5 68.5v11q0 49 25.5 70t66.5 21t66 -21t25 -70v-11q0 -48 -25.5 -68.5t-65.5 -20.5z" />
    <glyph glyph-name="periodcentered" unicode="&#xb7;" 
d="M313 303q-41 0 -66.5 20.5t-25.5 68.5v11q0 49 25.5 70t66.5 21t66 -21t25 -70v-11q0 -48 -25.5 -68.5t-65.5 -20.5z" />
    <glyph glyph-name="bullet" unicode="&#x2022;" 
d="M313 236q-63 0 -102 30.5t-39 95.5v72q0 66 39 97.5t102 31.5t101.5 -31.5t38.5 -97.5v-72q0 -65 -39.5 -95.5t-100.5 -30.5z" />
    <glyph glyph-name="anoteleia" unicode="&#x387;" 
d="M323 303q-41 0 -66.5 20.5t-25.5 68.5v11q0 49 25.5 70t66.5 21t66 -21t25 -70v-11q0 -48 -25.5 -68.5t-65.5 -20.5z" />
    <glyph glyph-name="underscoredbl" unicode="&#x2017;" 
d="M79 0v80h466v-80h-466zM79 -178v80h466v-80h-466z" />
    <glyph glyph-name="minute" unicode="&#x2032;" 
d="M189 414l92 386h164l-187 -386h-69z" />
    <glyph glyph-name="second" unicode="&#x2033;" 
d="M233 414l93 386h156l-187 -386h-62zM-19 414l94 386h155l-188 -386h-61z" />
    <glyph glyph-name="overline" unicode="&#x203e;" 
d="M79 917v80h466v-80h-466z" />
    <glyph glyph-name="plus" unicode="+" 
d="M271 43v266h-192v82h192v266h82v-266h192v-82h-192v-266h-82z" />
    <glyph glyph-name="minus" unicode="&#x2212;" 
d="M79 309v82h466v-82h-466z" />
    <glyph glyph-name="plusminus" unicode="&#xb1;" 
d="M271 143v266h-192v82h192v266h82v-266h192v-82h-192v-266h-82zM79 2v82h466v-82h-466z" />
    <glyph glyph-name="divide" unicode="&#xf7;" 
d="M312 530q-31 0 -51 14.5t-20 45.5v17q0 31 20 46.5t51 15.5t50.5 -15.5t19.5 -46.5v-17q0 -31 -19.5 -45.5t-50.5 -14.5zM79 306v88h466v-88h-466zM312 30q-31 0 -51 14.5t-20 45.5v17q0 31 20 46.5t51 15.5t50.5 -15.5t19.5 -46.5v-17q0 -31 -19.5 -45.5t-50.5 -14.5z
" />
    <glyph glyph-name="multiply" unicode="&#xd7;" 
d="M134 58l-54 47l181 245l-181 247l54 45l178 -240l178 233l54 -46l-181 -239l181 -239l-54 -46l-178 233z" />
    <glyph glyph-name="equal" unicode="=" 
d="M79 427v83h466v-83h-466zM79 190v83h466v-83h-466z" />
    <glyph glyph-name="less" unicode="&#x3c;" 
d="M521 26l-418 288v72l418 288v-78l-357 -246l357 -246v-78z" />
    <glyph glyph-name="greater" unicode="&#x3e;" 
d="M103 26v80l353 244l-353 244v80l418 -286v-76z" />
    <glyph glyph-name="lessequal" unicode="&#x2264;" 
d="M521 200l-418 264v72l418 264v-77l-352 -223l352 -223v-77zM103 0v77h418v-77h-418z" />
    <glyph glyph-name="greaterequal" unicode="&#x2265;" 
d="M103 200v77l352 223l-352 223v77l418 -264l-1 -72zM521 0h-418v77h418v-77z" />
    <glyph glyph-name="approxequal" unicode="&#x2248;" 
d="M416 393q-21 0 -38.5 6t-32.5 20q-15 13 -28.5 34t-27.5 52q-17 40 -28.5 62t-20.5 33q-9 10 -18 13.5t-23 3.5q-12 0 -21.5 -7t-16.5 -21q-8 -15 -12 -39t-4 -57v-99h-75v105q0 49 10 86.5t29 63.5t44.5 39t56.5 13q21 0 38.5 -6t31.5 -19q15 -14 28.5 -35t27.5 -51
q17 -40 28.5 -62t20.5 -33q9 -10 17.5 -13.5t22.5 -3.5q12 0 22 6.5t17 21.5t11 38.5t4 57.5v98h75v-105q0 -48 -10 -86t-28 -64q-19 -26 -44.5 -39t-55.5 -13zM416 -7q-21 0 -38.5 6t-32.5 20q-15 13 -28.5 34t-27.5 52q-17 40 -28.5 62t-20.5 33q-9 10 -17.5 13.5
t-22.5 3.5q-12 0 -22 -7t-17 -21q-8 -15 -12 -39t-4 -57v-99h-75v105q0 49 10 86.5t29 63.5t44.5 39t56.5 13q21 0 38.5 -6t31.5 -19q15 -14 28.5 -35t27.5 -51q17 -40 28.5 -62t20.5 -33q9 -10 17.5 -13.5t22.5 -3.5q12 0 22 6.5t17 21.5t11 38.5t4 57.5v98h75v-105
q0 -48 -10 -86t-28 -64q-19 -26 -44.5 -39t-55.5 -13z" />
    <glyph glyph-name="notequal" unicode="&#x2260;" 
d="M545 197h-235l-41 -197h-81l40 197h-149v86h168l48 234h-216v86h235l41 197h81l-40 -197h149v-86h-168l-48 -234h216v-86z" />
    <glyph glyph-name="logicalnot" unicode="&#xac;" 
d="M464 0v309h-385v82h466v-391h-81z" />
    <glyph glyph-name="uni23af" unicode="&#x23af;" 
d="M-20 364v72h664v-72h-664z" />
    <glyph glyph-name="arrowleft" unicode="&#x2190;" 
d="M293 89l-273 301v20l273 301h17v-275h294v-72h-294v-275h-17z" />
    <glyph glyph-name="arrowup" unicode="&#x2191;" 
d="M272 14v450h-231v20l263 302h16l263 -302v-20h-231v-450h-80z" />
    <glyph glyph-name="arrowright" unicode="&#x2192;" 
d="M314 89v275h-294v72h294v275h17l273 -301v-20l-273 -301h-17z" />
    <glyph glyph-name="arrowdown" unicode="&#x2193;" 
d="M304 18l-261 301v20h229v450h80v-450h230v-20l-262 -301h-16z" />
    <glyph glyph-name="arrowboth" unicode="&#x2194;" 
d="M254 364v-275h-17l-217 301v20l217 301h17v-275h116v275h17l217 -301v-20l-217 -301h-17v275h-116z" />
    <glyph glyph-name="partialdiff" unicode="&#x2202;" 
d="M266 -10q-48 0 -86 14t-62 41q-25 28 -33.5 70t1.5 97l12 77q9 46 28.5 83t48.5 64q28 26 65 39.5t80 13.5q26 0 48.5 -5.5t40.5 -15.5q17 -10 28 -23.5t15 -28.5h18q8 66 1.5 116.5t-29.5 88.5q-24 39 -67.5 68t-111.5 51l41 63q82 -27 134.5 -63.5t79.5 -87.5
q26 -51 30 -120t-12 -162l-26 -152q-11 -59 -32.5 -102t-52.5 -71t-71 -41.5t-88 -13.5zM274 63q35 0 61 9.5t44 27.5q18 19 29.5 47t18.5 66l11 61q5 36 2 62t-15 43q-12 18 -35 26.5t-58 8.5t-61.5 -8.5t-44.5 -25.5q-18 -18 -29 -44t-16 -62l-11 -61q-7 -38 -4.5 -66
t14.5 -46q12 -19 35.5 -28.5t58.5 -9.5z" />
    <glyph glyph-name="Delta#1" unicode="&#x2206;" 
d="M53 0v72l214 728h81l223 -728v-72h-518zM493 72l-182 626l-183 -626h365z" />
    <glyph glyph-name="product" unicode="&#x220f;" 
d="M105 -200v1000h414v-1000h-80v928h-254v-928h-80z" />
    <glyph glyph-name="summation" unicode="&#x2211;" 
d="M538 -128v-72h-460v72l307 441l-307 415v72h460v-72h-373l282 -379v-66l-292 -411h383z" />
    <glyph glyph-name="mu1" unicode="&#xb5;" 
d="M175 20l9 -220h-97l8 220v580h80v-410q0 -66 29.5 -94.5t71.5 -28.5q38 0 66.5 23.5t54.5 63.5v446h80v-452q0 -54 19.5 -69.5t65.5 -3.5v-80q-62 -9 -94 18.5t-36 94.5h-16q-25 -56 -61.5 -87.5t-86.5 -31.5q-28 0 -51.5 12.5t-41.5 37.5v-19z" />
    <glyph glyph-name="radical" unicode="&#x221a;" 
d="M303 0l-146 423l-93 -20v67l140 30l146 -456l158 856h76l-181 -900h-100z" />
    <glyph glyph-name="infinity" unicode="&#x221e;" 
d="M192 123q-26 0 -49.5 18t-41.5 54t-28.5 88t-10.5 118t10.5 118t29.5 87t43.5 53t52.5 18q22 0 39.5 -11.5t31.5 -34.5q15 -23 26.5 -57t21.5 -79q13 47 25.5 81t26.5 56q13 23 29.5 34t35.5 11q26 0 49 -18t41 -54q18 -35 28 -87t10 -118t-10.5 -118t-29.5 -88
q-19 -35 -44.5 -53t-54.5 -18q-20 0 -36.5 11.5t-30.5 33.5q-13 22 -25 54t-23 76q-12 -46 -24.5 -78.5t-25.5 -53.5q-14 -22 -30 -32.5t-36 -10.5zM426 188q13 0 24.5 12t19.5 37q9 26 13.5 68t4.5 100q-1 56 -5.5 96t-13.5 64q-8 25 -19 36t-24 11q-15 0 -27 -15.5
t-21 -42.5q-10 -27 -18 -57.5t-20 -84.5q14 -68 23.5 -107t18.5 -65q9 -27 19.5 -39.5t24.5 -12.5zM199 188q14 0 25.5 15t21.5 41t17 52l22 86q-15 71 -24.5 111t-19.5 66q-9 27 -19.5 40t-23.5 13t-24.5 -12t-19.5 -37q-9 -26 -13.5 -68t-4.5 -100q0 -55 5 -95t14 -65
q8 -24 19.5 -35.5t24.5 -11.5z" />
    <glyph glyph-name="orthogonal" unicode="&#x221f;" 
d="M103 0v700h80v-630h355v-70h-435z" />
    <glyph glyph-name="intersection" unicode="&#x2229;" 
d="M104 0v441q0 66 14 116.5t41 84.5t65.5 51t87.5 17t87.5 -17t65.5 -51t41 -84.5t14 -116.5v-441h-80v446q0 52 -8 88.5t-24 59.5t-40 33.5t-56 10.5q-33 0 -56.5 -10.5t-39.5 -33.5t-24 -59.5t-8 -88.5v-446h-80z" />
    <glyph glyph-name="integral" unicode="&#x222b;" 
d="M197 -206q-15 0 -31 1.5t-31 4.5q-16 3 -30 7.5t-25 10.5l17 75q12 -6 24 -10t24 -6q11 -3 21.5 -4t20.5 -1q26 0 42.5 8t25.5 26q10 18 13.5 47.5t3.5 76.5v564q0 48 11 86.5t31 65.5q21 27 49 41t62 14q15 0 31.5 -1.5t31.5 -4.5q16 -3 30.5 -7.5t25.5 -10.5l-17 -74
q-11 6 -22.5 10t-23.5 6t-23 3t-22 1q-25 0 -41.5 -8t-25.5 -27q-9 -18 -13 -47.5t-4 -75.5v-563q0 -47 -11 -86t-32 -66t-49.5 -41.5t-62.5 -14.5z" />
    <glyph glyph-name="equivalence" unicode="&#x2261;" 
d="M79 494v83h466v-83h-466zM79 311v83h466v-83h-466zM79 129v82h466v-82h-466z" />
    <glyph glyph-name="integralbt" unicode="&#x2321;" 
d="M198 -206q-12 0 -28 1.5t-33 4.5t-32.5 7.5t-26.5 10.5l17 75q12 -6 24 -10t24 -6q11 -3 21.5 -4t20.5 -1q27 0 43.5 9.5t25.5 30.5q9 20 12.5 52t3.5 82v754h80v-783q0 -52 -11.5 -93.5t-31.5 -70.5q-21 -29 -48.5 -44t-60.5 -15z" />
    <glyph glyph-name="dollar" unicode="$" 
d="M177 577q0 -46 22.5 -74.5t88.5 -53.5v230q-55 -2 -83 -24.5t-28 -77.5zM450 225q0 46 -23.5 73.5t-90.5 53.5v-239q52 1 83 28.5t31 83.5zM345 -50h-66v98q-49 4 -96.5 20t-80.5 44l24 67q35 -27 78.5 -43t83.5 -20v253q-102 35 -142 81.5t-40 121.5q0 88 44 131.5
t129 48.5v98h66v-100q44 -4 86 -18t70 -34l-25 -71q-31 19 -67.5 32t-72.5 17v-244q104 -38 145 -83t41 -116q0 -85 -45.5 -133t-131.5 -54v-96z" />
    <glyph glyph-name="cent" unicode="&#xa2;" 
d="M185 313q0 -70 27 -105t84 -41v467q-57 -5 -84 -40t-27 -107v-174zM288 -50v142q-98 8 -140.5 68t-42.5 167v150q0 103 43 163t140 68v142h65v-141q87 -6 129 -57.5t47 -154.5l-75 -3q-3 78 -28.5 108.5t-80.5 32.5v-469q56 1 81 28t28 102l75 -3q-6 -100 -48 -148
t-128 -54v-141h-65z" />
    <glyph glyph-name="sterling" unicode="&#xa3;" 
d="M553 199q-6 -102 -49.5 -155.5t-115.5 -53.5q-23 0 -50 12t-69 37q-32 19 -55 23t-44 -11l-77 -60l-46 61l67 45q31 22 52.5 77.5t21.5 106.5q0 37 -6 64t-15 49h-114v87h73q-10 24 -16.5 54t-6.5 73q0 91 52 146.5t149 55.5q104 0 157 -48t58 -155l-81 -10
q-5 84 -34.5 113.5t-99.5 29.5q-60 0 -90 -33.5t-30 -100.5q0 -40 10 -69.5t23 -55.5h173v-87h-134q7 -22 11 -48t4 -57q0 -41 -17 -86t-58 -84l11 -10q22 18 43.5 16.5t49.5 -17.5q22 -12 43.5 -26t46.5 -14q40 0 58.5 29.5t23.5 111.5z" />
    <glyph glyph-name="currency" unicode="&#xa4;" 
d="M312 162q51 0 76.5 32t25.5 106v194q0 74 -25.5 109t-76.5 35t-76.5 -35t-25.5 -109v-194q0 -74 25.5 -106t76.5 -32zM312 90q-43 0 -77.5 13.5t-57.5 41.5l-70 -83l-52 57l84 101q-4 17 -6.5 37.5t-2.5 42.5v194q0 24 2.5 45.5t7.5 40.5l-85 101l52 57l70 -85
q25 29 59.5 43t76.5 14q43 0 77.5 -14.5t57.5 -43.5l69 81l52 -57l-84 -99q4 -18 7 -39t3 -44v-194q0 -22 -2.5 -42t-6.5 -37l83 -97l-52 -57l-68 79q-24 -28 -59 -42t-78 -14z" />
    <glyph glyph-name="yen" unicode="&#xa5;" 
d="M519 100h-167v-100h-79v100h-167v87h167v113h-167v87h124l-200 413h88l195 -452l194 452h87l-200 -413h125v-87h-167v-113h167v-87z" />
    <glyph glyph-name="franc" unicode="&#x20a3;" 
d="M352 213h-168v-213h-81v213h-83v82h83v505h434v-72h-353v-237h294v-72h-294v-124h168v-82z" />
    <glyph glyph-name="lira" unicode="&#x20a4;" 
d="M580 199q-3 -51 -16 -90t-35 -66q-22 -26 -53.5 -39.5t-70.5 -13.5q-18 0 -36.5 4.5t-36.5 12.5q-17 8 -10.5 4.5t-61.5 32.5q-18 9 -32.5 14.5t-29.5 7.5q-14 1 -28 -2t-26 -13l-77 -60l-46 61l67 45q15 11 28.5 31.5t23.5 46.5q11 26 16.5 53.5t5.5 53.5v5.5v4.5
t-0.5 4.5t-0.5 4.5h-134v74h120q-2 6 -4.5 11.5t-4.5 10.5q-3 6 -5 10.5t-6 11.5q-2 5 -8 16.5t-9 19.5q-4 8 -8 17.5t-7 18.5h-68v74h51q0 6 -0.5 11t-0.5 10q-1 6 -1 11.5v11.5q0 45 15.5 82.5t44.5 63.5q30 27 73.5 41t98.5 14q62 0 106 -12.5t72 -38.5q29 -25 43.5 -63
t16.5 -89l-81 -10q-3 39 -12.5 65t-27.5 41q-19 16 -47 22.5t-70 6.5q-40 0 -68.5 -8.5t-47.5 -24.5q-18 -17 -26.5 -40t-8.5 -52v-11.5t1 -10.5q0 -5 1 -10l2 -10h236v-74h-212q2 -4 4 -8.5t5 -10.5t5 -10.5t4 -8.5q5 -10 9 -19t8 -19q4 -9 7.5 -19t6.5 -21h163v-74h-151
q0 -31 -3 -50.5t-11 -41.5t-23.5 -45t-38.5 -45l10 -10q13 10 27 14t29 3q14 -1 28 -5t30 -11l30.5 -14.5t31.5 -14.5t25 -9t25 -4q25 0 42 7.5t27 24.5q10 16 15.5 42.5t8.5 66.5z" />
    <glyph glyph-name="peseta" unicode="&#x20a7;" 
d="M111 352h26q8 0 14 4.5t10 15.5q5 10 7 28t2 43v192q0 25 -2 43t-7 28q-4 11 -10 15.5t-14 4.5h-26v-374zM588 151q0 -40 -8.5 -70t-23.5 -51q-16 -20 -36.5 -30t-45.5 -10q-7 0 -13.5 0.5t-12.5 2.5q-7 1 -13 3.5t-12 5.5q-7 -3 -14 -5t-13 -3q-7 -2 -13 -2.5t-13 -0.5
q-18 0 -33 8.5t-26 27.5q-12 19 -18 49t-6 71v379h-51v-85q0 -45 -7.5 -76.5t-20.5 -49.5q-13 -19 -31 -27t-41 -8h-26v-280h-65v800h92q22 0 40 -8t31 -27q14 -18 21 -49.5t7 -76.5v-39h51v200h66v-200h66v-49q6 14 14.5 25.5t18.5 18.5q10 8 21.5 11.5t23.5 3.5
q13 0 24 -2.5t22 -7.5t22 -13t23 -19l-38 -66q-9 9 -15.5 14.5t-12.5 9.5q-6 3 -11.5 5t-12.5 2t-13 -4.5t-10 -13.5t-6.5 -23.5t-2.5 -35.5t5 -39t13 -34t17 -29l26 -36q14 -20 24 -36t18 -36q9 -19 14 -43t5 -52zM474 67q11 0 19.5 4t15.5 13t10.5 24t3.5 36q0 17 -5 33.5
t-13 32.5q-9 15 -8 14.5t-35 52.5q-14 20 -24 37.5t-19 37.5q-8 21 -13 45t-5 52q0 11 0.5 21.5t1.5 19.5q1 10 3 19t4 17h-57v-393q0 -16 1.5 -28t4.5 -20t6.5 -12t8.5 -4q4 0 8 0.5t9 1.5q4 2 9 3.5t11 4.5v0l11 19l15.5 -14t11.5 -9t12 -6t13 -2z" />
    <glyph glyph-name="Euro" unicode="&#x20ac;" 
d="M342 -10q-112 0 -166 70t-54 202v7h-85v75h85v110h-85v75h85v5q0 134 54.5 205t166.5 71q107 0 156 -50t55 -151l-81 -10q-5 73 -31.5 106t-98.5 33q-80 0 -110.5 -48t-30.5 -153v-8h168v-75h-167v-110h167v-75h-168v-10q0 -104 30.5 -150.5t109.5 -46.5q72 0 99 31.5
t32 103.5l81 -10q-6 -99 -55 -148t-157 -49z" />
    <glyph glyph-name="florin" unicode="&#x192;" 
d="M204 -6q-13 0 -30 1.5t-34 4.5t-33 7.5t-27 10.5l17 75q12 -6 24 -10t24 -6q11 -3 21.5 -4t20.5 -1q26 0 42.5 6t25.5 18q9 13 13 33.5t4 51.5v235h-176v75h176v151q0 36 11 65.5t32 50.5q20 21 47.5 32t58.5 11q13 0 29.5 -1.5t33.5 -4.5q18 -3 33.5 -7.5t26.5 -10.5
l-17 -74q-12 6 -24.5 10t-23.5 6q-12 2 -22.5 3t-20.5 1q-25 0 -41 -6t-26 -18q-9 -13 -13 -33.5t-4 -51.5v-123h185v-75h-185v-263q0 -36 -11 -66t-31 -50q-20 -21 -47.5 -32t-58.5 -11z" />
    <glyph glyph-name="asciicircum" unicode="^" 
d="M492 200l-179 500l-172 -500h-78l209 600h80l218 -600h-78z" />
    <glyph glyph-name="asciitilde" unicode="~" 
d="M423 224q-49 0 -80 30t-60 111q-31 87 -46 110t-37 23q-28 0 -41.5 -23.5t-13.5 -82.5v-158h-75v164q0 80 37.5 129t93.5 49q50 0 80.5 -30t60.5 -112q29 -87 44 -109.5t38 -22.5q25 0 40 29.5t15 89.5v151h75v-158q0 -86 -37 -138t-94 -52z" />
    <glyph glyph-name="acute" unicode="&#xb4;" 
d="M218 700l114 200h122l-162 -200h-74z" />
    <glyph glyph-name="grave" unicode="`" 
d="M350 414l-187 386h163l92 -386h-68z" />
    <glyph glyph-name="hungarumlaut" unicode="&#x2dd;" 
d="M377 700l47 200h115l-104 -200h-58zM185 700l47 200h115l-104 -200h-58z" />
    <glyph glyph-name="circumflex" unicode="&#x2c6;" 
d="M168 718l-38 50l153 146h57l154 -146l-39 -51l-144 112z" />
    <glyph glyph-name="caron" unicode="&#x2c7;" 
d="M284 704l-154 146l39 50l144 -110l143 110l38 -50l-153 -146h-57z" />
    <glyph glyph-name="breve" unicode="&#x2d8;" 
d="M312 693q-87 0 -139.5 48.5t-53.5 152.5h82q1 -72 28.5 -102.5t82.5 -30.5t82.5 30.5t28.5 102.5h82q-1 -104 -53.5 -152.5t-139.5 -48.5z" />
    <glyph glyph-name="tilde" unicode="&#x2dc;" 
d="M377 710q-32 0 -51.5 19.5t-33.5 41.5l-25 41t-28 19q-19 0 -29 -24t-9 -78v-9h-63v15q0 72 28 120.5t81 48.5q35 0 55.5 -19.5t33.5 -40.5l23.5 -41t25.5 -19q18 0 28.5 23.5t10.5 77.5v10h62v-15q0 -74 -28 -122t-81 -48z" />
    <glyph glyph-name="macron" unicode="&#x2c9;" 
d="M146 764v72h332v-72h-332z" />
    <glyph glyph-name="macron" unicode="&#xaf;" 
d="M146 764v72h332v-72h-332z" />
    <glyph glyph-name="dieresis" unicode="&#xa8;" 
d="M216 716q-24 0 -38.5 10.5t-14.5 40.5v5q0 31 14.5 42t38.5 11q25 0 39 -11t14 -42v-5q0 -30 -14.5 -40.5t-38.5 -10.5zM408 716q-25 0 -39 10.5t-14 40.5v5q0 31 14 42t39 11q23 0 38 -11t15 -42v-5q0 -30 -15 -40.5t-38 -10.5z" />
    <glyph glyph-name="dotaccent" unicode="&#x2d9;" 
d="M312 716q-31 0 -50.5 10.5t-19.5 40.5v5q0 31 19.5 42t50.5 11t50.5 -11t19.5 -42v-5q0 -30 -19.5 -40.5t-50.5 -10.5z" />
    <glyph glyph-name="ring" unicode="&#x2da;" 
d="M312 688q-59 0 -95.5 35t-36.5 107v32q0 73 36.5 109t95.5 36q60 0 96 -36t36 -109v-32q0 -72 -36.5 -107t-95.5 -35zM312 753q34 0 51.5 17.5t17.5 59.5v32q0 41 -17.5 60.5t-51.5 19.5t-51.5 -19.5t-17.5 -60.5v-32q0 -42 17.5 -59.5t51.5 -17.5z" />
    <glyph glyph-name="cedilla" unicode="&#xb8;" 
d="M287 0l16 42q44 -10 73 -43t29 -90q0 -63 -38 -92.5t-82 -29.5q-53 0 -87 21.5t-38 75.5l71 10q1 -19 12.5 -26.5t37.5 -7.5q25 0 38 13t13 47q0 37 -10 54.5t-35 25.5z" />
    <glyph glyph-name="ogonek" unicode="&#x2db;" 
d="M359 -213q-52 0 -88 31.5t-36 85.5q0 44 32 80t69 54l22 -15q-30 -22 -40 -49t-10 -46q0 -28 16 -43.5t44 -15.5q15 0 38 3.5t36 6.5v-82q-16 -4 -40 -7t-43 -3z" />
    <glyph glyph-name="tonos" unicode="&#x384;" 
d="M251 700l64 200h114l-112 -200h-66z" />
    <glyph glyph-name="dieresistonos" unicode="&#x385;" 
d="M259 700l39 200h98l-87 -200h-50zM168 703q-20 0 -32.5 10.5t-12.5 41.5v4q0 31 12.5 42t32.5 11t32 -11t12 -42v-4q0 -31 -12.5 -41.5t-31.5 -10.5zM456 703q-20 0 -32 10.5t-12 41.5v4q0 31 12 42t32 11t32.5 -11t12.5 -42v-4q0 -31 -13 -41.5t-32 -10.5z" />
    <glyph glyph-name="copyright" unicode="&#xa9;" 
d="M312 -110q-145 0 -210 96.5t-65 270.5v222q0 175 65.5 273t210.5 98q144 0 209.5 -98t65.5 -273v-222q0 -174 -65.5 -270.5t-210.5 -96.5zM312 -48q120 0 165 82.5t45 233.5v199q0 150 -45 235.5t-165 85.5q-119 0 -164 -85.5t-45 -235.5v-198q0 -152 45 -234.5
t164 -82.5zM319 109q-69 0 -99 46.5t-30 132.5v166q0 85 30.5 131t98.5 46q59 0 86 -40t31 -124l-67 -6q-4 58 -14 78t-37 20q-28 0 -41 -21.5t-13 -71.5v-192q0 -49 13.5 -71t42.5 -22q25 0 35 17.5t14 72.5l67 -6q-4 -81 -31 -118.5t-86 -37.5z" />
    <glyph glyph-name="registered" unicode="&#xae;" 
d="M312 144q-122 0 -177.5 75.5t-55.5 194.5v173q0 121 55.5 197t178.5 76q122 0 177 -76t55 -197v-173q0 -119 -55.5 -194.5t-177.5 -75.5zM312 196q99 1 137 61t38 170v147q0 108 -38 171t-137 63t-137 -63t-38 -171v-147q0 -110 38 -170t137 -61zM267 499h53q18 0 29 9
t11 34v28q0 30 -11 41.5t-29 11.5h-53v-124zM267 334h-52v341h105q43 0 68 -27.5t25 -76.5v-28q0 -35 -14.5 -59.5t-40.5 -32.5l60 -117h-60l-55 111h-36v-111z" />
    <glyph glyph-name="trademark" unicode="&#x2122;" 
d="M106 351v384h-77v65h210v-65h-69v-384h-64zM337 725l1 -374h-59v449h95l49 -196l55 196h84v-449h-58l1 368l-63 -231h-42z" />
    <glyph glyph-name="degree" unicode="&#xb0;" 
d="M312 355q-74 0 -120 42.5t-46 131.5v100q0 89 46 133t120 44q75 0 120.5 -44t45.5 -133v-100q0 -89 -45.5 -131.5t-120.5 -42.5zM312 430q44 0 66.5 21t22.5 72v112q0 49 -22.5 72t-66.5 23q-45 0 -66.5 -23t-21.5 -72v-112q0 -51 21.5 -72t66.5 -21z" />
    <glyph glyph-name="careof" unicode="&#x2105;" 
d="M254 595l80 -8q0 -32 -10 -56t-28 -40q-19 -16 -45 -23.5t-58 -7.5t-57.5 9.5t-43.5 28.5t-28 49t-10 69v54q0 37 10 65.5t28 47.5q19 19 44.5 28t56.5 9q32 0 58 -7.5t45 -22.5t28.5 -37.5t9.5 -52.5l-80 -7q0 15 -4 26t-12 18t-19 10.5t-26 3.5q-14 0 -25.5 -5
t-19.5 -14q-8 -10 -12.5 -25t-4.5 -35v-56q0 -22 4.5 -38t12.5 -27q8 -10 19 -15t26 -5t26 3.5t19 11.5t12 20t4 29zM31 234l529 384l35 -53l-530 -384zM431 -22q-32 0 -57.5 9t-44.5 27q-18 19 -28 47t-10 65v62q0 38 10 66t29 47q18 19 44 28t57 9q32 0 57.5 -9t43.5 -28
t27.5 -47t9.5 -66v-62q0 -37 -9.5 -65t-28.5 -47q-18 -18 -43.5 -27t-56.5 -9zM431 49q14 0 25.5 4.5t19.5 13.5q8 10 12 24.5t4 34.5v64q0 20 -4 35t-12 25q-8 9 -19.5 14t-25.5 5t-25.5 -5t-19.5 -14q-8 -10 -12.5 -25t-4.5 -35v-64q0 -20 4.5 -34.5t12.5 -24.5
q8 -9 19.5 -13.5t25.5 -4.5z" />
    <glyph glyph-name="uni2117" unicode="&#x2117;" 
d="M312 -110q-140 0 -203.5 96.5t-63.5 270.5v222q0 175 64 273t204 98t203 -98t63 -273v-222q0 -174 -63.5 -270.5t-203.5 -96.5zM312 -48q115 0 158 82.5t43 233.5v199q0 150 -43 235.5t-158 85.5q-114 0 -157 -85.5t-43 -235.5v-198q0 -152 43 -234.5t157 -82.5zM203 130
v488h120q65 0 99 -40.5t34 -118.5v-36q0 -71 -34 -108t-100 -37h-46v-148h-73zM276 349h46q33 0 47 18t14 56v36q0 44 -14 65t-47 21h-46v-196z" />
    <glyph glyph-name="estimated" unicode="&#x212e;" 
d="M308 -12q-117 0 -191 113t-74 301q0 189 74.5 301t193.5 112q116 0 190 -126t78 -339h-382v-236q23 -24 51.5 -38t59.5 -14q60 0 109 31t77 83l40 -52q-34 -62 -94 -99t-132 -37zM197 430h225v254q-23 25 -49.5 41t-63.5 16q-35 0 -63 -14.5t-49 -39.5v-257z" />
    <glyph glyph-name="arrowupdn" unicode="&#x2195;" 
d="M320 -86h-16l-263 316v20h231v300h-231v20l263 316h16l263 -316v-20h-231v-300h231v-20z" />
    <glyph glyph-name="arrowupdnbse" unicode="&#x21a8;" 
d="M79 -184v82h466v-82h-466zM320 -86h-16l-263 316v20h231v300h-231v20l263 316h16l263 -316v-20h-231v-300h231v-20z" />
    <glyph glyph-name="logicalnotreversed" unicode="&#x2310;" 
d="M80 0v391h464v-82h-382v-309h-82z" />
    <glyph glyph-name="lighthorzbxd" unicode="&#x2500;" 
d="M-20 342h664v-84h-664v84z" />
    <glyph glyph-name="heavyhorzbxd" unicode="&#x2501;" 
d="M-20 384h664v-168h-664v168z" />
    <glyph glyph-name="lightvertbxd" unicode="&#x2502;" 
d="M270 1050h84v-1500h-84v1500z" />
    <glyph glyph-name="heavyvertbxd" unicode="&#x2503;" 
d="M228 1050h168v-1500h-168v1500z" />
    <glyph glyph-name="lighttrpldashhorzbxd" unicode="&#x2504;" 
d="M34 342h139v-84h-139v84zM242 342h139v-84h-139v84zM450 342h139v-84h-139v84z" />
    <glyph glyph-name="heavytrpldashhorzbxd" unicode="&#x2505;" 
d="M34 384h139v-168h-139v168zM242 384h139v-168h-139v168zM450 384h139v-168h-139v168z" />
    <glyph glyph-name="lighttrpldashvertbxd" unicode="&#x2506;" 
d="M270 55h84v-244h-84v244zM270 421h84v-244h-84v244zM270 787h84v-244h-84v244zM270 1153h84v-244h-84v244z" />
    <glyph glyph-name="heavytrpldashvertbxd" unicode="&#x2507;" 
d="M228 55h168v-244h-168v244zM228 421h168v-244h-168v244zM228 787h168v-244h-168v244zM228 1153h168v-244h-168v244z" />
    <glyph glyph-name="lightquaddashhorzbxd" unicode="&#x2508;" 
d="M19 342h117v-84h-117v84zM175 342h117v-84h-117v84zM331 342h117v-84h-117v84zM487 342h117v-84h-117v84z" />
    <glyph glyph-name="heavyquaddashhorzbxd" unicode="&#x2509;" 
d="M19 384h117v-168h-117v168zM175 384h117v-168h-117v168zM331 384h117v-168h-117v168zM487 384h117v-168h-117v168z" />
    <glyph glyph-name="lightquaddashvertbxd" unicode="&#x250a;" 
d="M270 -9h84v-207h-84v207zM270 266h84v-207h-84v207zM270 541h84v-207h-84v207zM270 816h84v-207h-84v207z" />
    <glyph glyph-name="heavyquaddashvertbxd" unicode="&#x250b;" 
d="M228 -9h168v-207h-168v207zM228 266h168v-207h-168v207zM228 541h168v-207h-168v207zM228 816h168v-207h-168v207z" />
    <glyph glyph-name="lightdnrightbxd" unicode="&#x250c;" 
d="M270 342h374v-84h-290v-708h-84v792z" />
    <glyph glyph-name="dnlightrightheavybxd" unicode="&#x250d;" 
d="M270 384h374v-168h-290v-666h-84v834z" />
    <glyph glyph-name="dnheavyrightlightbxd" unicode="&#x250e;" 
d="M228 342h416v-84h-248v-708h-168v792z" />
    <glyph glyph-name="heavydnrightbxd" unicode="&#x250f;" 
d="M228 384h416v-168h-248v-666h-168v834z" />
    <glyph glyph-name="lightdnleftbxd" unicode="&#x2510;" 
d="M-20 342h374v-792h-84v708h-290v84z" />
    <glyph glyph-name="dnlightleftheavybxd" unicode="&#x2511;" 
d="M-20 384h374v-834h-84v666h-290v168z" />
    <glyph glyph-name="dnheavyleftlightbxd" unicode="&#x2512;" 
d="M-20 342h416v-792h-168v708h-248v84z" />
    <glyph glyph-name="heavydnleftbxd" unicode="&#x2513;" 
d="M-20 384h416v-834h-168v666h-248v168z" />
    <glyph glyph-name="lightuprightbxd" unicode="&#x2514;" 
d="M270 1050h84v-708h290v-84h-374v792z" />
    <glyph glyph-name="uplightrightheavybxd" unicode="&#x2515;" 
d="M270 1050h84v-666h290v-168h-374v834z" />
    <glyph glyph-name="upheavyrightlightbxd" unicode="&#x2516;" 
d="M228 1050h168v-708h248v-84h-416v792z" />
    <glyph glyph-name="heavyuprightbxd" unicode="&#x2517;" 
d="M228 1050h168v-666h248v-168h-416v834z" />
    <glyph glyph-name="lightupleftbxd" unicode="&#x2518;" 
d="M-20 342h290v708h84v-792h-374v84z" />
    <glyph glyph-name="uplightleftheavybxd" unicode="&#x2519;" 
d="M-20 384h290v666h84v-834h-374v168z" />
    <glyph glyph-name="upheavyleftlightbxd" unicode="&#x251a;" 
d="M-20 342h248v708h168v-792h-416v84z" />
    <glyph glyph-name="heavyupleftbxd" unicode="&#x251b;" 
d="M-20 384h248v666h168v-834h-416v168z" />
    <glyph glyph-name="lightvertrightbxd" unicode="&#x251c;" 
d="M270 1050h84v-708h290v-84h-290v-708h-84v1500z" />
    <glyph glyph-name="vertlightrightheavybxd" unicode="&#x251d;" 
d="M270 1050h84v-666h290v-168h-290v-666h-84v1500z" />
    <glyph glyph-name="upheavyrightdnlightbxd" unicode="&#x251e;" 
d="M228 1050h168v-708h248v-84h-290v-708h-84v708h-42v792z" />
    <glyph glyph-name="dnheavyrightuplightbxd" unicode="&#x251f;" 
d="M228 342h42v708h84v-708h290v-84h-248v-708h-168v792z" />
    <glyph glyph-name="vertheavyrightlightbxd" unicode="&#x2520;" 
d="M228 1050h168v-708h248v-84h-248v-708h-168v1500z" />
    <glyph glyph-name="dnlightrightupheavybxd" unicode="&#x2521;" 
d="M228 1050h168v-666h248v-168h-290v-666h-84v666h-42v834z" />
    <glyph glyph-name="uplightrightdnheavybxd" unicode="&#x2522;" 
d="M228 384h42v666h84v-666h290v-168h-248v-666h-168v834z" />
    <glyph glyph-name="heavyvertrightbxd" unicode="&#x2523;" 
d="M228 1050h168v-666h248v-168h-248v-666h-168v1500z" />
    <glyph glyph-name="lightvertleftbxd" unicode="&#x2524;" 
d="M-20 342h290v708h84v-1500h-84v708h-290v84z" />
    <glyph glyph-name="vertlightleftheavybxd" unicode="&#x2525;" 
d="M-20 384h290v666h84v-1500h-84v666h-290v168z" />
    <glyph glyph-name="upheavyleftdnlightbxd" unicode="&#x2526;" 
d="M-20 342h248v708h168v-792h-42v-708h-84v708h-290v84z" />
    <glyph glyph-name="dnheavyleftuplightbxd" unicode="&#x2527;" 
d="M-20 342h290v708h84v-708h42v-792h-168v708h-248v84z" />
    <glyph glyph-name="vertheavyleftlightbxd" unicode="&#x2528;" 
d="M-20 342h248v708h168v-1500h-168v708h-248v84z" />
    <glyph glyph-name="dnlightleftupheavybxd" unicode="&#x2529;" 
d="M-20 384h248v666h168v-834h-42v-666h-84v666h-290v168z" />
    <glyph glyph-name="uplightleftdnheavybxd" unicode="&#x252a;" 
d="M-20 384h290v666h84v-666h42v-834h-168v666h-248v168z" />
    <glyph glyph-name="heavyvertleftbxd" unicode="&#x252b;" 
d="M-20 384h248v666h168v-1500h-168v666h-248v168z" />
    <glyph glyph-name="lightdnhorzbxd" unicode="&#x252c;" 
d="M-20 342h664v-84h-290v-708h-84v708h-290v84z" />
    <glyph glyph-name="leftheavyrightdnlightbxd" unicode="&#x252d;" 
d="M-20 384h374v-42h290v-84h-290v-708h-84v666h-290v168z" />
    <glyph glyph-name="rightheavyleftdnlightbxd" unicode="&#x252e;" 
d="M-20 342h290v42h374v-168h-290v-666h-84v708h-290v84z" />
    <glyph glyph-name="dnlighthorzheavybxd" unicode="&#x252f;" 
d="M-20 384h664v-168h-290v-666h-84v666h-290v168z" />
    <glyph glyph-name="dnheavyhorzlightbxd" unicode="&#x2530;" 
d="M-20 342h664v-84h-248v-708h-168v708h-248v84z" />
    <glyph glyph-name="rightlightleftdnheavybxd" unicode="&#x2531;" 
d="M-20 384h416v-42h248v-84h-248v-708h-168v666h-248v168z" />
    <glyph glyph-name="leftlightrightdnheavybxd" unicode="&#x2532;" 
d="M-20 342h248v42h416v-168h-248v-666h-168v708h-248v84z" />
    <glyph glyph-name="heavydnhorzbxd" unicode="&#x2533;" 
d="M-20 384h664v-168h-248v-666h-168v666h-248v168z" />
    <glyph glyph-name="lightuphorzbxd" unicode="&#x2534;" 
d="M-20 342h290v708h84v-708h290v-84h-664v84z" />
    <glyph glyph-name="leftheavyrightuplightbxd" unicode="&#x2535;" 
d="M-20 384h290v666h84v-708h290v-84h-290v-42h-374v168z" />
    <glyph glyph-name="rightheavyleftuplightbxd" unicode="&#x2536;" 
d="M-20 342h290v708h84v-666h290v-168h-374v42h-290v84z" />
    <glyph glyph-name="uplighthorzheavybxd" unicode="&#x2537;" 
d="M-20 384h290v666h84v-666h290v-168h-664v168z" />
    <glyph glyph-name="upheavyhorzlightbxd" unicode="&#x2538;" 
d="M-20 342h248v708h168v-708h248v-84h-664v84z" />
    <glyph glyph-name="rightlightleftupheavybxd" unicode="&#x2539;" 
d="M-20 384h248v666h168v-708h248v-84h-248v-42h-416v168z" />
    <glyph glyph-name="leftlightrightupheavybxd" unicode="&#x253a;" 
d="M-20 342h248v708h168v-666h248v-168h-416v42h-248v84z" />
    <glyph glyph-name="heavyuphorzbxd" unicode="&#x253b;" 
d="M-20 384h248v666h168v-666h248v-168h-664v168z" />
    <glyph glyph-name="lightverthorzbxd" unicode="&#x253c;" 
d="M-20 342h290v708h84v-708h290v-84h-290v-708h-84v708h-290v84z" />
    <glyph glyph-name="leftheavyrightvertlightbxd" unicode="&#x253d;" 
d="M-20 384h290v666h84v-708h290v-84h-290v-708h-84v666h-290v168z" />
    <glyph glyph-name="rightheavyleftvertlightbxd" unicode="&#x253e;" 
d="M-20 342h290v708h84v-666h290v-168h-290v-666h-84v708h-290v84z" />
    <glyph glyph-name="vertlighthorzheavybxd" unicode="&#x253f;" 
d="M-20 384h290v666h84v-666h290v-168h-290v-666h-84v666h-290v168z" />
    <glyph glyph-name="upheavydnhorzlightbxd" unicode="&#x2540;" 
d="M-20 342h248v708h168v-708h248v-84h-290v-708h-84v708h-290v84z" />
    <glyph glyph-name="dnheavyuphorzlightbxd" unicode="&#x2541;" 
d="M-20 342h290v708h84v-708h290v-84h-248v-708h-168v708h-248v84z" />
    <glyph glyph-name="vertheavyhorzlightbxd" unicode="&#x2542;" 
d="M-20 342h248v708h168v-708h248v-84h-248v-708h-168v708h-248v84z" />
    <glyph glyph-name="leftupheavyrightdnlightbxd" unicode="&#x2543;" 
d="M-20 384h248v666h168v-708h248v-84h-248v-42h-42v-666h-84v666h-290v168z" />
    <glyph glyph-name="rightupheavyleftdnlightbxd" unicode="&#x2544;" 
d="M-20 342h248v708h168v-666h248v-168h-290v-666h-84v666h-42v42h-248v84z" />
    <glyph glyph-name="leftdnheavyrightuplightbxd" unicode="&#x2545;" 
d="M-20 384h290v666h84v-666h42v-42h248v-84h-248v-708h-168v666h-248v168z" />
    <glyph glyph-name="rightdnheavyleftuplightbxd" unicode="&#x2546;" 
d="M-20 342h248v42h42v666h84v-666h290v-168h-248v-666h-168v708h-248v84z" />
    <glyph glyph-name="dnlightuphorzheavybxd" unicode="&#x2547;" 
d="M-20 384h248v666h168v-666h248v-168h-290v-666h-84v666h-290v168z" />
    <glyph glyph-name="uplightdnhorzheavybxd" unicode="&#x2548;" 
d="M-20 384h290v666h84v-666h290v-168h-248v-666h-168v666h-248v168z" />
    <glyph glyph-name="rightlightleftvertheavybxd" unicode="&#x2549;" 
d="M-20 384h248v666h168v-708h248v-84h-248v-708h-168v666h-248v168z" />
    <glyph glyph-name="leftlightrightvertheavybxd" unicode="&#x254a;" 
d="M-20 342h248v708h168v-666h248v-168h-248v-666h-168v708h-248v84z" />
    <glyph glyph-name="heavyverthorzbxd" unicode="&#x254b;" 
d="M-20 384h248v666h168v-666h248v-168h-248v-666h-168v666h-248v168z" />
    <glyph glyph-name="lightdbldashhorzbxd" unicode="&#x254c;" 
d="M78 342h156v-84h-156v84zM390 342h156v-84h-156v84z" />
    <glyph glyph-name="heavydbldashhorzbxd" unicode="&#x254d;" 
d="M78 384h156v-168h-156v168zM390 384h156v-168h-156v168z" />
    <glyph glyph-name="lightdbldashvertbxd" unicode="&#x254e;" 
d="M270 162h84v-275h-84v275zM270 712h84v-275h-84v275z" />
    <glyph glyph-name="heavydbldashvertbxd" unicode="&#x254f;" 
d="M228 162h168v-275h-168v275zM228 712h168v-275h-168v275z" />
    <glyph glyph-name="dblhorzbxd" unicode="&#x2550;" 
d="M-20 426h664v-84h-664v84zM-20 258h664v-84h-664v84z" />
    <glyph glyph-name="dblvertbxd" unicode="&#x2551;" 
d="M186 1050h84v-1500h-84v1500zM354 1050h84v-1500h-84v1500z" />
    <glyph glyph-name="dnsngrightdblbxd" unicode="&#x2552;" 
d="M270 426h374v-84h-290v-84h290v-84h-290v-624h-84v876z" />
    <glyph glyph-name="dndblrightsngbxd" unicode="&#x2553;" 
d="M186 342h458v-84h-206v-708h-84v708h-84v-708h-84v792z" />
    <glyph glyph-name="dbldnrightbxd" unicode="&#x2554;" 
d="M186 426h458v-84h-374v-792h-84v876zM354 258h290v-84h-206v-624h-84v708z" />
    <glyph glyph-name="dnsngleftdblbxd" unicode="&#x2555;" 
d="M-20 426h374v-876h-84v624h-290v84h290v84h-290v84z" />
    <glyph glyph-name="dndblleftsngbxd" unicode="&#x2556;" 
d="M-20 342h458v-792h-84v708h-84v-708h-84v708h-206v84z" />
    <glyph glyph-name="dbldnleftbxd" unicode="&#x2557;" 
d="M-20 426h458v-876h-84v792h-374v84zM-20 258h290v-708h-84v624h-206v84z" />
    <glyph glyph-name="upsngrightdblbxd" unicode="&#x2558;" 
d="M270 1050h84v-624h290v-84h-290v-84h290v-84h-374v876z" />
    <glyph glyph-name="updblrightsngbxd" unicode="&#x2559;" 
d="M186 1050h84v-708h84v708h84v-708h206v-84h-458v792z" />
    <glyph glyph-name="dbluprightbxd" unicode="&#x255a;" 
d="M186 1050h84v-792h374v-84h-458v876zM354 1050h84v-624h206v-84h-290v708z" />
    <glyph glyph-name="upsngleftdblbxd" unicode="&#x255b;" 
d="M-20 426h290v624h84v-876h-374v84h290v84h-290v84z" />
    <glyph glyph-name="updblleftsngbxd" unicode="&#x255c;" 
d="M-20 342h206v708h84v-708h84v708h84v-792h-458v84z" />
    <glyph glyph-name="dblupleftbxd" unicode="&#x255d;" 
d="M-20 258h374v792h84v-876h-458v84zM-20 426h206v624h84v-708h-290v84z" />
    <glyph glyph-name="vertsngrightdblbxd" unicode="&#x255e;" 
d="M270 1050h84v-624h290v-84h-290v-84h290v-84h-290v-624h-84v1500z" />
    <glyph glyph-name="vertdblrightsngbxd" unicode="&#x255f;" 
d="M354 1050h84v-708h206v-84h-206v-708h-84v1500zM186 1050h84v-1500h-84v1500z" />
    <glyph glyph-name="dblvertrightbxd" unicode="&#x2560;" 
d="M186 1050h84v-1500h-84v1500zM354 1050h84v-624h206v-84h-290v708zM354 258h290v-84h-206v-624h-84v708z" />
    <glyph glyph-name="vertsngleftdblbxd" unicode="&#x2561;" 
d="M-20 426h290v624h84v-1500h-84v624h-290v84h290v84h-290v84z" />
    <glyph glyph-name="vertdblleftsngbxd" unicode="&#x2562;" 
d="M-20 342h206v708h84v-1500h-84v708h-206v84zM354 1050h84v-1500h-84v1500z" />
    <glyph glyph-name="dblvertleftbxd" unicode="&#x2563;" 
d="M354 1050h84v-1500h-84v1500zM-20 258h290v-708h-84v624h-206v84zM-20 426h206v624h84v-708h-290v84z" />
    <glyph glyph-name="dnsnghorzdblbxd" unicode="&#x2564;" 
d="M-20 258h664v-84h-290v-624h-84v624h-290v84zM-20 426h664v-84h-664v84z" />
    <glyph glyph-name="dndblhorzsngbxd" unicode="&#x2565;" 
d="M-20 342h664v-84h-206v-708h-84v708h-84v-708h-84v708h-206v84z" />
    <glyph glyph-name="dbldnhorzbxd" unicode="&#x2566;" 
d="M-20 258h290v-708h-84v624h-206v84zM354 258h290v-84h-206v-624h-84v708zM-20 426h664v-84h-664v84z" />
    <glyph glyph-name="upsnghorzdblbxd" unicode="&#x2567;" 
d="M-20 426h290v624h84v-624h290v-84h-664v84zM-20 258h664v-84h-664v84z" />
    <glyph glyph-name="updblhorzsngbxd" unicode="&#x2568;" 
d="M-20 342h206v708h84v-708h84v708h84v-708h206v-84h-664v84z" />
    <glyph glyph-name="dbluphorzbxd" unicode="&#x2569;" 
d="M-20 426h206v624h84v-708h-290v84zM354 1050h84v-624h206v-84h-290v708zM-20 258h664v-84h-664v84z" />
    <glyph glyph-name="vertsnghorzdblbxd" unicode="&#x256a;" 
d="M-20 426h290v624h84v-624h290v-84h-290v-84h290v-84h-290v-624h-84v624h-290v84h290v84h-290v84z" />
    <glyph glyph-name="vertdblhorzsngbxd" unicode="&#x256b;" 
d="M-20 342h206v708h84v-708h84v708h84v-708h206v-84h-206v-708h-84v708h-84v-708h-84v708h-206v84z" />
    <glyph glyph-name="dblverthorzbxd" unicode="&#x256c;" 
d="M-20 426h206v624h84v-708h-290v84zM-20 258h290v-708h-84v624h-206v84zM354 1050h84v-624h206v-84h-290v708zM354 258h290v-84h-206v-624h-84v708z" />
    <glyph glyph-name="lightarcdnrightbxd" unicode="&#x256d;" 
d="M270 -12q0 73 27.5 137.5t75.5 112.5t112.5 76t138.5 28h20v-84h-20q-56 0 -105 -21t-86 -58t-58 -86t-21 -105v-438h-84v438z" />
    <glyph glyph-name="lightarcdnleftbxd" unicode="&#x256e;" 
d="M354 -450h-84v438q0 56 -21 105t-58 86t-86 58t-105 21h-20v84h20q73 0 137.5 -28t112.5 -76t76 -112.5t28 -137.5v-438z" />
    <glyph glyph-name="lightarcupleftbxd" unicode="&#x256f;" 
d="M354 612q0 -74 -28 -138.5t-76 -112.5t-112.5 -75.5t-137.5 -27.5h-20v84h20q56 0 105 21t86 58t58 86t21 105v438h84v-438z" />
    <glyph glyph-name="lightarcuprightbxd" unicode="&#x2570;" 
d="M270 1050h84v-438q0 -56 21 -105t58 -86t86 -58t105 -21h20v-84h-20q-74 0 -138.5 27.5t-112.5 75.5t-75.5 112.5t-27.5 138.5v438z" />
    <glyph glyph-name="lightdiaguprightdnleftbxd" unicode="&#x2571;" 
d="M576 850h48v-85l-576 -1015h-48v85z" />
    <glyph glyph-name="lightdiagupleftdnrightbxd" unicode="&#x2572;" 
d="M624 -165v-85h-48l-576 1015v85h48z" />
    <glyph glyph-name="lightdiagcrossbxd" unicode="&#x2573;" 
d="M264 300l-264 465v85h48l264 -466l264 466h48v-85l-264 -465l264 -465v-85h-48l-264 465l-264 -465h-48v85z" />
    <glyph glyph-name="lightleftbxd" unicode="&#x2574;" 
d="M-20 342h374v-84h-374v84z" />
    <glyph glyph-name="lightupbxd" unicode="&#x2575;" 
d="M270 1050h84v-792h-84v792z" />
    <glyph glyph-name="lightrightbxd" unicode="&#x2576;" 
d="M270 342h374v-84h-374v84z" />
    <glyph glyph-name="lightdnbxd" unicode="&#x2577;" 
d="M270 342h84v-792h-84v792z" />
    <glyph glyph-name="heavyleftbxd" unicode="&#x2578;" 
d="M-20 384h374v-168h-374v168z" />
    <glyph glyph-name="heavyupbxd" unicode="&#x2579;" 
d="M228 1050h168v-792h-168v792z" />
    <glyph glyph-name="heavyrightbxd" unicode="&#x257a;" 
d="M270 384h374v-168h-374v168z" />
    <glyph glyph-name="heavydnbxd" unicode="&#x257b;" 
d="M228 342h168v-792h-168v792z" />
    <glyph glyph-name="lightleftheavyrightbxd" unicode="&#x257c;" 
d="M-20 342h290v42h374v-168h-374v42h-290v84z" />
    <glyph glyph-name="lightupheavydnbxd" unicode="&#x257d;" 
d="M228 342h42v708h84v-708h42v-792h-168v792z" />
    <glyph glyph-name="heavyleftlightrightbxd" unicode="&#x257e;" 
d="M-20 384h374v-42h290v-84h-290v-42h-374v168z" />
    <glyph glyph-name="heavyuplightdnbxd" unicode="&#x257f;" 
d="M228 1050h168v-792h-42v-708h-84v708h-42v792z" />
    <glyph glyph-name="uphalfblock" unicode="&#x2580;" 
d="M0 850h624v-550h-624v550z" />
    <glyph glyph-name="dneighthblock" unicode="&#x2581;" 
d="M0 -113h624v-137h-624v137z" />
    <glyph glyph-name="dnquarterblock" unicode="&#x2582;" 
d="M0 25h624v-275h-624v275z" />
    <glyph glyph-name="dnthreeeighthsblock" unicode="&#x2583;" 
d="M0 162h624v-412h-624v412z" />
    <glyph glyph-name="dnhalfblock" unicode="&#x2584;" 
d="M0 300h624v-550h-624v550z" />
    <glyph glyph-name="dnfiveeighthsblock" unicode="&#x2585;" 
d="M0 437h624v-687h-624v687z" />
    <glyph glyph-name="dnthreequartersblock" unicode="&#x2586;" 
d="M0 575h624v-825h-624v825z" />
    <glyph glyph-name="dnseveneighthsblock" unicode="&#x2587;" 
d="M0 712h624v-962h-624v962z" />
    <glyph glyph-name="fullblock" unicode="&#x2588;" 
d="M0 850h624v-1100h-624v1100z" />
    <glyph glyph-name="leftseveneighthsblock" unicode="&#x2589;" 
d="M0 850h546v-1100h-546v1100z" />
    <glyph glyph-name="leftthreequartersblock" unicode="&#x258a;" 
d="M0 850h468v-1100h-468v1100z" />
    <glyph glyph-name="leftfiveeighthsblock" unicode="&#x258b;" 
d="M0 850h390v-1100h-390v1100z" />
    <glyph glyph-name="lefthalfblock" unicode="&#x258c;" 
d="M0 850h312v-1100h-312v1100z" />
    <glyph glyph-name="leftthreeeighthsblock" unicode="&#x258d;" 
d="M0 850h234v-1100h-234v1100z" />
    <glyph glyph-name="leftquarterblock" unicode="&#x258e;" 
d="M0 850h156v-1100h-156v1100z" />
    <glyph glyph-name="lefteighthblock" unicode="&#x258f;" 
d="M0 850h78v-1100h-78v1100z" />
    <glyph glyph-name="righthalfblock" unicode="&#x2590;" 
d="M312 850h312v-1100h-312v1100z" />
    <glyph glyph-name="lightshade" unicode="&#x2591;" 
d="M0 -220h20v-30h-20v30zM50 -170h20v-30h-20v30zM0 -120h20v-30h-20v30zM50 -70h20v-30h-20v30zM0 -20h20v-30h-20v30zM50 30h20v-30h-20v30zM0 80h20v-30h-20v30zM50 130h20v-30h-20v30zM0 180h20v-30h-20v30zM50 230h20v-30h-20v30zM0 280h20v-30h-20v30zM50 330h20v-30
h-20v30zM0 380h20v-30h-20v30zM50 430h20v-30h-20v30zM0 480h20v-30h-20v30zM50 530h20v-30h-20v30zM0 580h20v-30h-20v30zM50 630h20v-30h-20v30zM0 680h20v-30h-20v30zM50 730h20v-30h-20v30zM0 780h20v-30h-20v30zM50 830h20v-30h-20v30zM100 -220h20v-30h-20v30z
M150 -170h20v-30h-20v30zM100 -120h20v-30h-20v30zM150 -70h20v-30h-20v30zM100 -20h20v-30h-20v30zM150 30h20v-30h-20v30zM100 80h20v-30h-20v30zM150 130h20v-30h-20v30zM100 180h20v-30h-20v30zM150 230h20v-30h-20v30zM100 280h20v-30h-20v30zM150 330h20v-30h-20v30z
M100 380h20v-30h-20v30zM150 430h20v-30h-20v30zM100 480h20v-30h-20v30zM150 530h20v-30h-20v30zM100 580h20v-30h-20v30zM150 630h20v-30h-20v30zM100 680h20v-30h-20v30zM150 730h20v-30h-20v30zM100 780h20v-30h-20v30zM150 830h20v-30h-20v30zM200 -220h20v-30h-20v30z
M250 -170h20v-30h-20v30zM200 -120h20v-30h-20v30zM250 -70h20v-30h-20v30zM200 -20h20v-30h-20v30zM250 30h20v-30h-20v30zM200 80h20v-30h-20v30zM250 130h20v-30h-20v30zM200 180h20v-30h-20v30zM250 230h20v-30h-20v30zM200 280h20v-30h-20v30zM250 330h20v-30h-20v30z
M200 380h20v-30h-20v30zM250 430h20v-30h-20v30zM200 480h20v-30h-20v30zM250 530h20v-30h-20v30zM200 580h20v-30h-20v30zM250 630h20v-30h-20v30zM200 680h20v-30h-20v30zM250 730h20v-30h-20v30zM200 780h20v-30h-20v30zM250 830h20v-30h-20v30zM300 -220h20v-30h-20v30z
M350 -170h20v-30h-20v30zM300 -120h20v-30h-20v30zM350 -70h20v-30h-20v30zM300 -20h20v-30h-20v30zM350 30h20v-30h-20v30zM300 80h20v-30h-20v30zM350 130h20v-30h-20v30zM300 180h20v-30h-20v30zM350 230h20v-30h-20v30zM300 280h20v-30h-20v30zM350 330h20v-30h-20v30z
M300 380h20v-30h-20v30zM350 430h20v-30h-20v30zM300 480h20v-30h-20v30zM350 530h20v-30h-20v30zM300 580h20v-30h-20v30zM350 630h20v-30h-20v30zM300 680h20v-30h-20v30zM350 730h20v-30h-20v30zM300 780h20v-30h-20v30zM350 830h20v-30h-20v30zM400 -220h20v-30h-20v30z
M450 -170h20v-30h-20v30zM400 -120h20v-30h-20v30zM450 -70h20v-30h-20v30zM400 -20h20v-30h-20v30zM450 30h20v-30h-20v30zM400 80h20v-30h-20v30zM450 130h20v-30h-20v30zM400 180h20v-30h-20v30zM450 230h20v-30h-20v30zM400 280h20v-30h-20v30zM450 330h20v-30h-20v30z
M400 380h20v-30h-20v30zM450 430h20v-30h-20v30zM400 480h20v-30h-20v30zM450 530h20v-30h-20v30zM400 580h20v-30h-20v30zM450 630h20v-30h-20v30zM400 680h20v-30h-20v30zM450 730h20v-30h-20v30zM400 780h20v-30h-20v30zM450 830h20v-30h-20v30zM500 -220h20v-30h-20v30z
M550 -170h20v-30h-20v30zM500 -120h20v-30h-20v30zM550 -70h20v-30h-20v30zM500 -20h20v-30h-20v30zM550 30h20v-30h-20v30zM500 80h20v-30h-20v30zM550 130h20v-30h-20v30zM500 180h20v-30h-20v30zM550 230h20v-30h-20v30zM500 280h20v-30h-20v30zM550 330h20v-30h-20v30z
M500 380h20v-30h-20v30zM550 430h20v-30h-20v30zM500 480h20v-30h-20v30zM550 530h20v-30h-20v30zM500 580h20v-30h-20v30zM550 630h20v-30h-20v30zM500 680h20v-30h-20v30zM550 730h20v-30h-20v30zM500 780h20v-30h-20v30zM550 830h20v-30h-20v30zM600 -220h20v-30h-20v30z
M650 -170h20v-30h-20v30zM600 -120h20v-30h-20v30zM650 -70h20v-30h-20v30zM600 -20h20v-30h-20v30zM650 30h20v-30h-20v30zM600 80h20v-30h-20v30zM650 130h20v-30h-20v30zM600 180h20v-30h-20v30zM650 230h20v-30h-20v30zM600 280h20v-30h-20v30zM650 330h20v-30h-20v30z
M600 380h20v-30h-20v30zM650 430h20v-30h-20v30zM600 480h20v-30h-20v30zM650 530h20v-30h-20v30zM600 580h20v-30h-20v30zM650 630h20v-30h-20v30zM600 680h20v-30h-20v30zM650 730h20v-30h-20v30zM600 780h20v-30h-20v30zM650 830h20v-30h-20v30z" />
    <glyph glyph-name="mediumshade" unicode="&#x2592;" 
d="M0 -200h40v-50h-40v50zM50 -150h40v-50h-40v50zM0 -100h40v-50h-40v50zM50 -50h40v-50h-40v50zM0 0h40v-50h-40v50zM50 50h40v-50h-40v50zM0 100h40v-50h-40v50zM50 150h40v-50h-40v50zM0 200h40v-50h-40v50zM50 250h40v-50h-40v50zM0 300h40v-50h-40v50zM50 350h40v-50
h-40v50zM0 400h40v-50h-40v50zM50 450h40v-50h-40v50zM0 500h40v-50h-40v50zM50 550h40v-50h-40v50zM0 600h40v-50h-40v50zM50 650h40v-50h-40v50zM0 700h40v-50h-40v50zM50 750h40v-50h-40v50zM0 800h40v-50h-40v50zM50 850h40v-50h-40v50zM100 -200h40v-50h-40v50z
M150 -150h40v-50h-40v50zM100 -100h40v-50h-40v50zM150 -50h40v-50h-40v50zM100 0h40v-50h-40v50zM150 50h40v-50h-40v50zM100 100h40v-50h-40v50zM150 150h40v-50h-40v50zM100 200h40v-50h-40v50zM150 250h40v-50h-40v50zM100 300h40v-50h-40v50zM150 350h40v-50h-40v50z
M100 400h40v-50h-40v50zM150 450h40v-50h-40v50zM100 500h40v-50h-40v50zM150 550h40v-50h-40v50zM100 600h40v-50h-40v50zM150 650h40v-50h-40v50zM100 700h40v-50h-40v50zM150 750h40v-50h-40v50zM100 800h40v-50h-40v50zM150 850h40v-50h-40v50zM200 -200h40v-50h-40v50z
M250 -150h40v-50h-40v50zM200 -100h40v-50h-40v50zM250 -50h40v-50h-40v50zM200 0h40v-50h-40v50zM250 50h40v-50h-40v50zM200 100h40v-50h-40v50zM250 150h40v-50h-40v50zM200 200h40v-50h-40v50zM250 250h40v-50h-40v50zM200 300h40v-50h-40v50zM250 350h40v-50h-40v50z
M200 400h40v-50h-40v50zM250 450h40v-50h-40v50zM200 500h40v-50h-40v50zM250 550h40v-50h-40v50zM200 600h40v-50h-40v50zM250 650h40v-50h-40v50zM200 700h40v-50h-40v50zM250 750h40v-50h-40v50zM200 800h40v-50h-40v50zM250 850h40v-50h-40v50zM300 -200h40v-50h-40v50z
M350 -150h40v-50h-40v50zM300 -100h40v-50h-40v50zM350 -50h40v-50h-40v50zM300 0h40v-50h-40v50zM350 50h40v-50h-40v50zM300 100h40v-50h-40v50zM350 150h40v-50h-40v50zM300 200h40v-50h-40v50zM350 250h40v-50h-40v50zM300 300h40v-50h-40v50zM350 350h40v-50h-40v50z
M300 400h40v-50h-40v50zM350 450h40v-50h-40v50zM300 500h40v-50h-40v50zM350 550h40v-50h-40v50zM300 600h40v-50h-40v50zM350 650h40v-50h-40v50zM300 700h40v-50h-40v50zM350 750h40v-50h-40v50zM300 800h40v-50h-40v50zM350 850h40v-50h-40v50zM400 -200h40v-50h-40v50z
M450 -150h40v-50h-40v50zM400 -100h40v-50h-40v50zM450 -50h40v-50h-40v50zM400 0h40v-50h-40v50zM450 50h40v-50h-40v50zM400 100h40v-50h-40v50zM450 150h40v-50h-40v50zM400 200h40v-50h-40v50zM450 250h40v-50h-40v50zM400 300h40v-50h-40v50zM450 350h40v-50h-40v50z
M400 400h40v-50h-40v50zM450 450h40v-50h-40v50zM400 500h40v-50h-40v50zM450 550h40v-50h-40v50zM400 600h40v-50h-40v50zM450 650h40v-50h-40v50zM400 700h40v-50h-40v50zM450 750h40v-50h-40v50zM400 800h40v-50h-40v50zM450 850h40v-50h-40v50zM500 -200h40v-50h-40v50z
M550 -150h40v-50h-40v50zM500 -100h40v-50h-40v50zM550 -50h40v-50h-40v50zM500 0h40v-50h-40v50zM550 50h40v-50h-40v50zM500 100h40v-50h-40v50zM550 150h40v-50h-40v50zM500 200h40v-50h-40v50zM550 250h40v-50h-40v50zM500 300h40v-50h-40v50zM550 350h40v-50h-40v50z
M500 400h40v-50h-40v50zM550 450h40v-50h-40v50zM500 500h40v-50h-40v50zM550 550h40v-50h-40v50zM500 600h40v-50h-40v50zM550 650h40v-50h-40v50zM500 700h40v-50h-40v50zM550 750h40v-50h-40v50zM500 800h40v-50h-40v50zM550 850h40v-50h-40v50zM600 -200h40v-50h-40v50z
M650 -150h40v-50h-40v50zM600 -100h40v-50h-40v50zM650 -50h40v-50h-40v50zM600 0h40v-50h-40v50zM650 50h40v-50h-40v50zM600 100h40v-50h-40v50zM650 150h40v-50h-40v50zM600 200h40v-50h-40v50zM650 250h40v-50h-40v50zM600 300h40v-50h-40v50zM650 350h40v-50h-40v50z
M600 400h40v-50h-40v50zM650 450h40v-50h-40v50zM600 500h40v-50h-40v50zM650 550h40v-50h-40v50zM600 600h40v-50h-40v50zM650 650h40v-50h-40v50zM600 700h40v-50h-40v50zM650 750h40v-50h-40v50zM600 800h40v-50h-40v50zM650 850h40v-50h-40v50z" />
    <glyph glyph-name="darkshade" unicode="&#x2593;" 
d="M0 -185h45v-65h-45v65zM50 -135h45v-65h-45v65zM0 -85h45v-65h-45v65zM50 -35h45v-65h-45v65zM0 15h45v-65h-45v65zM50 65h45v-65h-45v65zM0 115h45v-65h-45v65zM50 165h45v-65h-45v65zM0 215h45v-65h-45v65zM50 265h45v-65h-45v65zM0 315h45v-65h-45v65zM50 365h45v-65
h-45v65zM0 415h45v-65h-45v65zM50 465h45v-65h-45v65zM0 515h45v-65h-45v65zM50 565h45v-65h-45v65zM0 615h45v-65h-45v65zM50 665h45v-65h-45v65zM0 715h45v-65h-45v65zM50 765h45v-65h-45v65zM0 815h45v-65h-45v65zM50 865h45v-65h-45v65zM100 -185h45v-65h-45v65z
M150 -135h45v-65h-45v65zM100 -85h45v-65h-45v65zM150 -35h45v-65h-45v65zM100 15h45v-65h-45v65zM150 65h45v-65h-45v65zM100 115h45v-65h-45v65zM150 165h45v-65h-45v65zM100 215h45v-65h-45v65zM150 265h45v-65h-45v65zM100 315h45v-65h-45v65zM150 365h45v-65h-45v65z
M100 415h45v-65h-45v65zM150 465h45v-65h-45v65zM100 515h45v-65h-45v65zM150 565h45v-65h-45v65zM100 615h45v-65h-45v65zM150 665h45v-65h-45v65zM100 715h45v-65h-45v65zM150 765h45v-65h-45v65zM100 815h45v-65h-45v65zM150 865h45v-65h-45v65zM200 -185h45v-65h-45v65z
M250 -135h45v-65h-45v65zM200 -85h45v-65h-45v65zM250 -35h45v-65h-45v65zM200 15h45v-65h-45v65zM250 65h45v-65h-45v65zM200 115h45v-65h-45v65zM250 165h45v-65h-45v65zM200 215h45v-65h-45v65zM250 265h45v-65h-45v65zM200 315h45v-65h-45v65zM250 365h45v-65h-45v65z
M200 415h45v-65h-45v65zM250 465h45v-65h-45v65zM200 515h45v-65h-45v65zM250 565h45v-65h-45v65zM200 615h45v-65h-45v65zM250 665h45v-65h-45v65zM200 715h45v-65h-45v65zM250 765h45v-65h-45v65zM200 815h45v-65h-45v65zM250 865h45v-65h-45v65zM300 -185h45v-65h-45v65z
M350 -135h45v-65h-45v65zM300 -85h45v-65h-45v65zM350 -35h45v-65h-45v65zM300 15h45v-65h-45v65zM350 65h45v-65h-45v65zM300 115h45v-65h-45v65zM350 165h45v-65h-45v65zM300 215h45v-65h-45v65zM350 265h45v-65h-45v65zM300 315h45v-65h-45v65zM350 365h45v-65h-45v65z
M300 415h45v-65h-45v65zM350 465h45v-65h-45v65zM300 515h45v-65h-45v65zM350 565h45v-65h-45v65zM300 615h45v-65h-45v65zM350 665h45v-65h-45v65zM300 715h45v-65h-45v65zM350 765h45v-65h-45v65zM300 815h45v-65h-45v65zM350 865h45v-65h-45v65zM400 -185h45v-65h-45v65z
M450 -135h45v-65h-45v65zM400 -85h45v-65h-45v65zM450 -35h45v-65h-45v65zM400 15h45v-65h-45v65zM450 65h45v-65h-45v65zM400 115h45v-65h-45v65zM450 165h45v-65h-45v65zM400 215h45v-65h-45v65zM450 265h45v-65h-45v65zM400 315h45v-65h-45v65zM450 365h45v-65h-45v65z
M400 415h45v-65h-45v65zM450 465h45v-65h-45v65zM400 515h45v-65h-45v65zM450 565h45v-65h-45v65zM400 615h45v-65h-45v65zM450 665h45v-65h-45v65zM400 715h45v-65h-45v65zM450 765h45v-65h-45v65zM400 815h45v-65h-45v65zM450 865h45v-65h-45v65zM500 -185h45v-65h-45v65z
M550 -135h45v-65h-45v65zM500 -85h45v-65h-45v65zM550 -35h45v-65h-45v65zM500 15h45v-65h-45v65zM550 65h45v-65h-45v65zM500 115h45v-65h-45v65zM550 165h45v-65h-45v65zM500 215h45v-65h-45v65zM550 265h45v-65h-45v65zM500 315h45v-65h-45v65zM550 365h45v-65h-45v65z
M500 415h45v-65h-45v65zM550 465h45v-65h-45v65zM500 515h45v-65h-45v65zM550 565h45v-65h-45v65zM500 615h45v-65h-45v65zM550 665h45v-65h-45v65zM500 715h45v-65h-45v65zM550 765h45v-65h-45v65zM500 815h45v-65h-45v65zM550 865h45v-65h-45v65zM600 -185h45v-65h-45v65z
M650 -135h45v-65h-45v65zM600 -85h45v-65h-45v65zM650 -35h45v-65h-45v65zM600 15h45v-65h-45v65zM650 65h45v-65h-45v65zM600 115h45v-65h-45v65zM650 165h45v-65h-45v65zM600 215h45v-65h-45v65zM650 265h45v-65h-45v65zM600 315h45v-65h-45v65zM650 365h45v-65h-45v65z
M600 415h45v-65h-45v65zM650 465h45v-65h-45v65zM600 515h45v-65h-45v65zM650 565h45v-65h-45v65zM600 615h45v-65h-45v65zM650 665h45v-65h-45v65zM600 715h45v-65h-45v65zM650 765h45v-65h-45v65zM600 815h45v-65h-45v65zM650 865h45v-65h-45v65z" />
    <glyph glyph-name="upeighthblock" unicode="&#x2594;" 
d="M0 850h624v-138h-624v138z" />
    <glyph glyph-name="righteighthblock" unicode="&#x2595;" 
d="M546 850h78v-1100h-78v1100z" />
    <glyph glyph-name="dnleftquadrant" unicode="&#x2596;" 
d="M0 300h312v-550h-312v550z" />
    <glyph glyph-name="dnrightquadrant" unicode="&#x2597;" 
d="M312 300h312v-550h-312v550z" />
    <glyph glyph-name="upleftquadrant" unicode="&#x2598;" 
d="M0 850h312v-550h-312v550z" />
    <glyph glyph-name="upleftdnleftdnrightquadrant" unicode="&#x2599;" 
d="M0 850h312v-550h312v-550h-624v1100z" />
    <glyph glyph-name="upleftdnrightquadrant" unicode="&#x259a;" 
d="M0 850h312v-550h312v-550h-312v550h-312v550z" />
    <glyph glyph-name="upleftuprightdnleftquadrant" unicode="&#x259b;" 
d="M0 850h624v-550h-312v-550h-312v1100z" />
    <glyph glyph-name="upleftuprightdnrightquadrant" unicode="&#x259c;" 
d="M0 850h624v-1100h-312v550h-312v550z" />
    <glyph glyph-name="uprightquadrant" unicode="&#x259d;" 
d="M312 850h312v-550h-312v550z" />
    <glyph glyph-name="uprightdnleftquadrant" unicode="&#x259e;" 
d="M0 300h312v-550h-312v550zM312 850h312v-550h-312v550z" />
    <glyph glyph-name="uprightdnleftdnrightquadrant" unicode="&#x259f;" 
d="M0 300h312v550h312v-1100h-624v550z" />
    <glyph glyph-name="blacksquare" unicode="&#x25a0;" 
d="M62 700h501v-600h-501v600z" />
    <glyph glyph-name="H22073" unicode="&#x25a1;" 
d="M62 100v600h501v-600h-501zM155 182h315v436h-315v-436z" />
    <glyph glyph-name="blacksmallsquare" unicode="&#x25aa;" 
d="M190 546h244v-292h-244v292z" />
    <glyph glyph-name="whitesmallsquare" unicode="&#x25ab;" 
d="M467 214h-310v372h310v-372zM387 514h-150v-228h150v228z" />
    <glyph glyph-name="triagup" unicode="&#x25b2;" 
d="M320 700l214 -480v-20h-444v20l214 480h16z" />
    <glyph glyph-name="blackrightpointingpointer" unicode="&#x25ba;" 
d="M521 440l-401 -208h-17v436h17l401 -208v-20z" />
    <glyph glyph-name="blackdownpointingtriangle" unicode="&#x25bc;" 
d="M304 150l-214 480v20h444v-20l-214 -480h-16z" />
    <glyph glyph-name="triaglf" unicode="&#x25c4;" 
d="M103 460l401 208h17v-436h-17l-401 208v20z" />
    <glyph glyph-name="lozenge" unicode="&#x25ca;" 
d="M265 0l-212 400l212 400h88l219 -400l-219 -400h-88zM311 60l182 340l-182 340l-174 -340z" />
    <glyph glyph-name="circle" unicode="&#x25cb;" 
d="M314 86q-57 0 -105 23t-84 66q-35 42 -54.5 100t-19.5 126t19.5 126t54.5 101q36 43 84 66t105 23t105 -23t84 -66q35 -43 54.5 -101t19.5 -126t-19.5 -126t-54.5 -100q-36 -43 -84 -66t-105 -23zM314 166q38 0 69.5 17t54.5 48q23 32 35.5 75.5t12.5 94.5q0 52 -12.5 95
t-35.5 75q-23 31 -54.5 48t-69.5 17t-70 -17t-55 -48q-22 -32 -34.5 -75t-12.5 -95t12.5 -95t34.5 -75q23 -31 55 -48t70 -17z" />
    <glyph glyph-name="H18533" unicode="&#x25cf;" 
d="M314 86q-57 0 -105 23t-84 66q-35 42 -54.5 100t-19.5 126t19.5 126t54.5 101q36 43 84 66t105 23t105 -23t84 -66q35 -43 54.5 -101t19.5 -126t-19.5 -126t-54.5 -100q-36 -43 -84 -66t-105 -23z" />
    <glyph glyph-name="whitebullet" unicode="&#x25e6;" 
d="M486 362q0 -40 -11.5 -71t-34.5 -52q-22 -22 -54.5 -32.5t-72.5 -10.5q-41 0 -73.5 10.5t-54.5 32.5q-23 21 -34.5 52t-11.5 71v72q0 41 12 72.5t34 52.5q23 22 55 33t73 11t73.5 -11t54.5 -33q22 -21 33.5 -52.5t11.5 -72.5v-72zM211 362q0 -26 8 -44.5t22 -29.5
q15 -10 33 -15t39 -5t39 5t32 16q14 10 22 28.5t8 44.5v72q0 26 -8 45t-22 30q-14 12 -32 17t-39 5t-39.5 -5t-32.5 -17q-14 -11 -22 -30t-8 -45v-72z" />
    <glyph glyph-name="uni2619" unicode="&#x2619;" 
d="M581 373l-70 2q1 33 -4 59.5t-15.5 45t-26.5 28.5t-35 10h-235q-40 0 -69 14.5t-46.5 41.5t-25 64.5t-5.5 85.5l71 -2q-2 -30 0 -53t10 -40t22.5 -26t37.5 -9h58v82q0 42 12.5 75.5t36.5 56.5t59.5 35.5t81.5 12.5l9 -84q-31 0 -52 -4.5t-35.5 -16.5t-22 -34t-7.5 -56
v-67h101q35 0 64 -14.5t50 -42.5t30.5 -69.5t5.5 -94.5zM314 183v253h36q31 0 53 -7.5t37.5 -24t23 -43.5t7.5 -67v-188q0 -71 -17.5 -130.5t-50.5 -103t-78.5 -67t-99.5 -23.5q-52 0 -91 17t-63.5 47t-36 70.5t-10.5 87.5l74 -5q0 -31 5 -54t14.5 -38t23 -22.5t29.5 -7.5
q14 0 24.5 4.5t17 13t9.5 20.5t3 27v38l-147 215v92q0 38 6.5 68t20 51.5t34.5 33t50 11.5h11l87 -268h28z" />
    <glyph glyph-name="female" unicode="&#x2640;" 
d="M354 -200h-83v203h-167v84h167v167q-43 8 -78.5 31t-60.5 60q-26 36 -39.5 83.5t-13.5 101.5q0 61 17 112.5t48 89.5q31 37 74 57.5t94 20.5t94 -20.5t74 -58.5q32 -37 49 -88.5t17 -112.5q0 -54 -13.5 -101.5t-39.5 -83.5q-25 -37 -60.5 -60t-78.5 -31v-167h167v-84
h-167v-203zM312 730q-32 0 -59 -14t-46 -41q-19 -26 -29.5 -63t-10.5 -82q0 -44 10.5 -81t29.5 -64t46 -41t59 -14q33 0 59.5 14t45.5 41q20 27 30 63.5t10 81.5t-10 81.5t-30 63.5q-19 27 -45.5 41t-59.5 14z" />
    <glyph glyph-name="male" unicode="&#x2642;" 
d="M488 260q0 -61 -17 -112.5t-49 -88.5q-31 -38 -74 -58.5t-94 -20.5t-94 20.5t-74 58.5q-32 37 -49 88.5t-17 112.5t17 112.5t49 88.5q31 38 74 58.5t94 20.5q15 0 29 -1.5t27 -5.5q14 -3 26.5 -8t24.5 -12l143 214h-207v73h328v-399h-74v282l-134 -214q17 -19 30 -42
t22 -50q10 -26 14.5 -55.5t4.5 -61.5zM254 460q-32 0 -59 -14t-46 -41q-19 -26 -29.5 -63t-10.5 -82q0 -44 10.5 -81t29.5 -64t46 -41t59 -14t59 14t46 41t29.5 64t10.5 81q0 45 -10.5 81.5t-29.5 63.5t-46 41t-59 14z" />
    <glyph glyph-name="spade" unicode="&#x2660;" 
d="M455 90v-90h-284v90h100l11 260h-23l-47 -150h-44q-30 0 -53.5 12.5t-38.5 33.5q-16 22 -23.5 50t-7.5 60v92l236 352h62l237 -352v-92q0 -32 -7.5 -60t-23.5 -50q-15 -21 -38.5 -33.5t-53.5 -12.5h-44l-47 150h-23l11 -260h101z" />
    <glyph glyph-name="club" unicode="&#x2663;" 
d="M193 603q0 41 8 78.5t24 66.5q15 29 37.5 45.5t49.5 16.5t49.5 -16.5t37.5 -45.5q16 -29 24 -66.5t8 -78.5l-58 -106l22 -28q11 18 22 31t21 22q11 10 22.5 14.5t22.5 4.5q22 0 41.5 -10.5t35.5 -30.5q15 -20 24 -49t9 -65q0 -40 -12.5 -77t-35.5 -65q-23 -29 -55 -45
t-70 -16l-41 172h-34l9 -273h102v-82h-287v82h101l9 273h-33l-41 -172q-38 0 -70 15t-55 42t-35.5 64.5t-12.5 81.5q0 35 9.5 63t25.5 47t36 28.5t41 9.5q12 0 23.5 -4.5t22.5 -12.5q10 -8 20 -20t19 -28l22 28z" />
    <glyph glyph-name="heart" unicode="&#x2665;" 
d="M265 0l-203 422l-17 172q-4 41 2.5 78.5t22.5 65.5q16 29 40 45.5t53 16.5q30 0 53.5 -13.5t40.5 -41.5q17 -27 28 -71t15 -104h24q4 58 17 102t32 72q20 29 44.5 42.5t51.5 13.5t49.5 -16.5t37.5 -45.5q15 -28 21.5 -65.5t2.5 -78.5l-17 -172l-204 -422h-94z" />
    <glyph glyph-name="diamond" unicode="&#x2666;" 
d="M264 0l-212 400l212 400h88l219 -400l-219 -400h-88z" />
    <glyph glyph-name="musicalnote" unicode="&#x266a;" 
d="M471 431q0 38 -14 62t-66.5 63t-69.5 64v-468q0 -35 -11.5 -65t-32.5 -52t-49 -33.5t-60 -11.5q-28 0 -49 8.5t-35 23.5t-20.5 35t-6.5 43t9.5 46t27.5 41.5t43.5 29.5t56.5 11h53v582h63q3 -39 25.5 -59.5t87.5 -67.5t96 -92t31 -114q0 -37 -7.5 -69t-21 -58.5
t-30.5 -48.5t-38 -44l-43 57q14 13 24.5 26t19 27t13 30t4.5 34z" />
    <glyph glyph-name="checkmark" unicode="&#x2713;" 
d="M195 0l-161 486h80l132 -423q21 100 47.5 196t59.5 189q34 92 74.5 181t87.5 171h77q-51 -92 -95 -188.5t-82 -196.5q-37 -101 -67 -205t-53 -210h-100z" />
    <glyph glyph-name="uni2767" unicode="&#x2767;" 
d="M35 373q-4 53 5.5 95t30.5 70t50.5 42t64.5 14h100v67q0 34 -7.5 56t-22 34t-35.5 16.5t-52 4.5l10 84q45 0 80.5 -12.5t59.5 -35.5t36.5 -56.5t12.5 -75.5v-82h58q23 0 37.5 9t22.5 26t10 40t0 53l72 2q2 -48 -5.5 -86t-25 -64.5t-46.5 -41t-69 -14.5h-235
q-20 0 -36 -10t-26.5 -28.5t-15.5 -45t-3 -59.5zM302 183h28l87 268h11q29 0 50.5 -11.5t35 -33t20 -51.5t6.5 -68v-92l-147 -215v-38q0 -15 3 -27t9 -20.5t16.5 -13t24.5 -4.5q16 0 29.5 7.5t23 22.5t14.5 38t5 54l74 5q1 -47 -10.5 -87.5t-36 -70.5t-63 -47t-90.5 -17
q-54 0 -99.5 23.5t-78.5 67t-50.5 103t-17.5 130.5v188q0 40 7.5 67t23 43.5t37.5 24t52 7.5h36v-253z" />
    <glyph glyph-name="commaaccent" unicode="&#xf6c3;" 
d="M201 -300l81 200h122l-128 -200h-75z" />
    <glyph glyph-name="apple" unicode="&#x1f41b;" 
d="M537 543h73v-39h-73l-172 -27l42 -57h130l40 -115l28 -58l-34 -16l-29 61l-34 89h-86l14 -160h64l13 -217l27 -71l-35 -18l-32 86l-10 175h-30l-75 -207h-91l-77 207h-30l-9 -175l-32 -86l-35 18l26 71l13 217h66l12 160h-86l-33 -89l-30 -61l-33 16l28 58l40 115h130
l41 57l-171 27h-74v39h74l180 -25v42l-35 22v51l54 14v20l-110 60l-53 12l2 39l51 -10l137 -70l136 70l50 10l2 -39l-52 -12l-113 -60v-20l56 -14v-51l-34 -22v-42z" />
    <glyph glyph-name="apple" unicode="&#xf8ff;" 
d="M537 543h73v-39h-73l-172 -27l42 -57h130l40 -115l28 -58l-34 -16l-29 61l-34 89h-86l14 -160h64l13 -217l27 -71l-35 -18l-32 86l-10 175h-30l-75 -207h-91l-77 207h-30l-9 -175l-32 -86l-35 18l26 71l13 217h66l12 160h-86l-33 -89l-30 -61l-33 16l28 58l40 115h130
l41 57l-171 27h-74v39h74l180 -25v42l-35 22v51l54 14v20l-110 60l-53 12l2 39l51 -10l137 -70l136 70l50 10l2 -39l-52 -12l-113 -60v-20l56 -14v-51l-34 -22v-42z" />
    <glyph glyph-name="cyrillicbrevecmb" horiz-adv-x="0" 
d="M0 693q-71 0 -122.5 42t-52.5 149l81 10q1 -72 21 -102.5t73 -30.5t73 30.5t21 102.5l81 -10q-1 -107 -52.5 -149t-122.5 -42z" />
    <glyph glyph-name="dieresistonoscmb" horiz-adv-x="0" 
d="M-53 700l39 200h98l-87 -200h-50zM-144 703q-20 0 -32.5 10.5t-12.5 41.5v4q0 31 12.5 42t32.5 11t32 -11t12 -42v-4q0 -31 -12.5 -41.5t-31.5 -10.5zM144 703q-20 0 -32 10.5t-12 41.5v4q0 31 12 42t32 11t32.5 -11t12.5 -42v-4q0 -31 -13 -41.5t-32 -10.5z" />
    <glyph glyph-name="tonoscmb" horiz-adv-x="0" 
d="M-61 700l64 200h114l-112 -200h-66z" />
    <glyph glyph-name="space.frac" 
 />
    <glyph glyph-name="caroncmb.salt" horiz-adv-x="0" 
d="M-94 505l68 295h119l-129 -295h-58z" />
    <glyph glyph-name="space.scrap_001" 
 />
    <glyph glyph-name="space.scrap_002" 
 />
    </font>
</defs>
</svg>
